<svg xmlns="http://www.w3.org/2000/svg" width="260" height="260.002" viewBox="0 0 260 260.002">
  <g id="グループ_1010" data-name="グループ 1010" transform="translate(-635.791 -43.94)" opacity="0.299">
    <path id="パス_392" data-name="パス 392" d="M764.664,45.569A127.245,127.245,0,1,0,891.909,172.814,127.389,127.389,0,0,0,764.664,45.569Zm0,253.728A126.483,126.483,0,1,1,891.147,172.814,126.626,126.626,0,0,1,764.664,299.3Z" transform="translate(1.127 1.128)" fill="#fff"/>
    <path id="パス_393" data-name="パス 393" d="M765.791,43.94a130,130,0,1,0,130,130A130.148,130.148,0,0,0,765.791,43.94Zm0,259.24A129.239,129.239,0,1,1,895.029,173.942,129.385,129.385,0,0,1,765.791,303.18Z" transform="translate(0 0)" fill="#fff"/>
    <path id="パス_394" data-name="パス 394" d="M701.9,56.689a4.034,4.034,0,0,0,.694-.061,3.978,3.978,0,1,0-.694.061Zm-2.635-5.826a3.21,3.21,0,0,1,2.078-1.325,3.326,3.326,0,0,1,.56-.049,3.224,3.224,0,0,1,3.168,2.662,3.218,3.218,0,0,1-2.609,3.728,3.219,3.219,0,0,1-3.2-5.016Z" transform="translate(43.097 3.315)" fill="#fff"/>
    <path id="パス_395" data-name="パス 395" d="M689.658,58.691a3.137,3.137,0,1,0-2.949-2.064A3.113,3.113,0,0,0,689.658,58.691ZM687.5,54.55a2.374,2.374,0,1,1-.08,1.816A2.359,2.359,0,0,1,687.5,54.55Z" transform="translate(35.186 5.866)" fill="#fff"/>
    <path id="パス_396" data-name="パス 396" d="M677.8,64.95a4,4,0,0,0,1.036.137,3.993,3.993,0,1,0-1.036-.137Zm-2.08-4.677a3.218,3.218,0,1,1,.322,2.442A3.2,3.2,0,0,1,675.724,60.273Z" transform="translate(27.093 9.127)" fill="#fff"/>
    <path id="パス_397" data-name="パス 397" d="M668.39,72.139c.118.01.235.015.354.015a3.98,3.98,0,1,0-2.565-7.029,3.98,3.98,0,0,0,2.212,7.014Zm-1.723-6.43a3.194,3.194,0,0,1,2.063-.753c.1,0,.191,0,.288.012a3.219,3.219,0,1,1-2.35.741Z" transform="translate(20.093 14.019)" fill="#fff"/>
    <path id="パス_398" data-name="パス 398" d="M659.676,79.676a3.135,3.135,0,1,0-2.014-.733A3.132,3.132,0,0,0,659.676,79.676Zm-1.817-4.662a2.376,2.376,0,1,1,.293,3.347A2.372,2.372,0,0,1,657.859,75.014Z" transform="translate(14.364 20.439)" fill="#fff"/>
    <path id="パス_399" data-name="パス 399" d="M650.965,90.429a3.966,3.966,0,0,0,1.985.535,4.013,4.013,0,0,0,1.036-.137,3.979,3.979,0,1,0-3.021-.4Zm-.8-5.056a3.218,3.218,0,0,1,5.9.777,3.219,3.219,0,0,1-4.719,3.62A3.223,3.223,0,0,1,650.168,85.373Z" transform="translate(9.127 27.094)" fill="#fff"/>
    <path id="パス_400" data-name="パス 400" d="M646.387,101.892a4.011,4.011,0,0,0,1.364.242,3.986,3.986,0,1,0-1.364-.242Zm-1.663-4.843a3.219,3.219,0,1,1,1.924,4.127A3.225,3.225,0,0,1,644.724,97.049Z" transform="translate(5.521 34.841)" fill="#fff"/>
    <path id="パス_401" data-name="パス 401" d="M643.669,112.8a3.129,3.129,0,0,0,3.635-2.543,3.137,3.137,0,1,0-3.635,2.543Zm-1.794-3.5a2.38,2.38,0,0,1,2.339-1.963,2.284,2.284,0,0,1,.413.037,2.375,2.375,0,1,1-2.751,1.926Z" transform="translate(3.659 43.443)" fill="#fff"/>
    <path id="パス_402" data-name="パス 402" d="M648.479,133.913a3.98,3.98,0,1,0-3.929,4.672,4.081,4.081,0,0,0,.7-.061A3.985,3.985,0,0,0,648.479,133.913Zm-3.36,3.861a3.217,3.217,0,1,1,2.611-3.73A3.2,3.2,0,0,1,645.119,137.774Z" transform="translate(3.314 60.128)" fill="#fff"/>
    <path id="パス_403" data-name="パス 403" d="M648.729,143.319a3.142,3.142,0,1,0,1.621,1.772A3.126,3.126,0,0,0,648.729,143.319Zm.827,3.848a2.365,2.365,0,0,1-1.34,1.227,2.374,2.374,0,1,1-1.625-4.462,2.373,2.373,0,0,1,.814-.146,2.377,2.377,0,0,1,2.151,3.381Z" transform="translate(5.866 68.728)" fill="#fff"/>
    <path id="パス_404" data-name="パス 404" d="M653.986,153.832a3.979,3.979,0,1,0,2.418,1.855A3.955,3.955,0,0,0,653.986,153.832Zm2.08,4.677a3.218,3.218,0,1,1-3.115-4.054,3.241,3.241,0,0,1,.839.112,3.22,3.22,0,0,1,2.276,3.943Z" transform="translate(9.127 76.13)" fill="#fff"/>
    <path id="パス_405" data-name="パス 405" d="M660.371,163.8a3.981,3.981,0,0,0-.694,7.931c.12.01.237.015.354.015a3.981,3.981,0,0,0,.34-7.946Zm1.723,6.432a3.218,3.218,0,1,1-2.075-5.684c.095,0,.191,0,.286.012a3.218,3.218,0,0,1,1.789,5.672Z" transform="translate(14.018 83.132)" fill="#fff"/>
    <path id="パス_406" data-name="パス 406" d="M665.991,174.122a3.137,3.137,0,1,0,4.418-.386A3.119,3.119,0,0,0,665.991,174.122Zm4.222,3.543a2.375,2.375,0,1,1-.293-3.347A2.379,2.379,0,0,1,670.212,177.665Z" transform="translate(20.438 89.552)" fill="#fff"/>
    <path id="パス_407" data-name="パス 407" d="M680.823,180.106a3.98,3.98,0,1,0,1.855,2.416A3.964,3.964,0,0,0,680.823,180.106Zm.8,5.056a3.219,3.219,0,1,1,.322-2.443A3.222,3.222,0,0,1,681.621,185.162Z" transform="translate(27.093 94.098)" fill="#fff"/>
    <path id="パス_408" data-name="パス 408" d="M691.363,185.02a3.981,3.981,0,1,0,2.245,2.058A3.967,3.967,0,0,0,691.363,185.02Zm1.663,4.841a3.219,3.219,0,1,1-4.384-4.019,3.219,3.219,0,0,1,4.384,4.019Z" transform="translate(34.84 97.702)" fill="#fff"/>
    <path id="パス_409" data-name="パス 409" d="M702.1,188.515a3.137,3.137,0,0,0-1.09,6.178,3.215,3.215,0,0,0,.552.049,3.137,3.137,0,0,0,.538-6.227Zm1.8,3.5a2.375,2.375,0,1,1-2.34-2.787,2.459,2.459,0,0,1,.413.036A2.38,2.38,0,0,1,703.9,192.016Z" transform="translate(43.442 100.255)" fill="#fff"/>
    <path id="パス_410" data-name="パス 410" d="M725.765,188.029a3.98,3.98,0,1,0,4.609,3.229A3.957,3.957,0,0,0,725.765,188.029Zm1.249,7.09a3.219,3.219,0,0,1-1.117-6.34,3.326,3.326,0,0,1,.56-.049,3.219,3.219,0,0,1,.557,6.39Z" transform="translate(60.127 99.91)" fill="#fff"/>
    <path id="パス_411" data-name="パス 411" d="M736.94,185.468a3.137,3.137,0,1,0,4.019,1.873A3.14,3.14,0,0,0,736.94,185.468Zm3.225,3.949a2.352,2.352,0,0,1-1.34,1.228,2.376,2.376,0,1,1,1.34-1.228Z" transform="translate(68.728 98.048)" fill="#fff"/>
    <path id="パス_412" data-name="パス 412" d="M747.536,180.106a3.98,3.98,0,0,0,.959,7.291,4.033,4.033,0,0,0,1.037.135,3.98,3.98,0,1,0-2-7.427Zm3.6,6.234a3.219,3.219,0,1,1-1.614-6.005,3.218,3.218,0,0,1,1.614,6.005Z" transform="translate(76.13 94.098)" fill="#fff"/>
    <path id="パス_413" data-name="パス 413" d="M757.061,173.435a3.982,3.982,0,0,0,2.212,7.014c.119.01.237.015.354.015a3.981,3.981,0,1,0-2.565-7.029Zm4.628,5.515a3.217,3.217,0,1,1,.4-4.537A3.225,3.225,0,0,1,761.69,178.949Z" transform="translate(83.131 89.207)" fill="#fff"/>
    <path id="パス_414" data-name="パス 414" d="M765.586,165.409a3.139,3.139,0,0,0,2.4,5.153c.093,0,.186-.005.279-.014a3.136,3.136,0,1,0-2.675-5.139Zm4.222,3.542a2.374,2.374,0,1,1-.293-3.345A2.362,2.362,0,0,1,769.808,168.951Z" transform="translate(89.551 83.477)" fill="#fff"/>
    <path id="パス_415" data-name="パス 415" d="M777.391,154.23a3.98,3.98,0,0,0-5.437,1.457,3.983,3.983,0,0,0,3.44,5.972,4.035,4.035,0,0,0,1.037-.137,3.98,3.98,0,0,0,.959-7.291Zm.8,5.056a3.219,3.219,0,1,1-3.621-4.719,3.218,3.218,0,0,1,3.943,2.278A3.194,3.194,0,0,1,778.188,159.286Z" transform="translate(94.099 76.13)" fill="#fff"/>
    <path id="パス_416" data-name="パス 416" d="M781.971,142.767a3.981,3.981,0,1,0,2.379,5.1A3.986,3.986,0,0,0,781.971,142.767Zm1.663,4.841a3.219,3.219,0,1,1-1.924-4.125A3.227,3.227,0,0,1,783.634,147.608Z" transform="translate(97.702 68.384)" fill="#fff"/>
    <path id="パス_417" data-name="パス 417" d="M784,131.171a3.137,3.137,0,0,0-1.09,6.178,3.127,3.127,0,0,0,3.633-2.543A3.136,3.136,0,0,0,784,131.171Zm-.958,5.428a2.375,2.375,0,0,1-.949-4.285,2.374,2.374,0,0,1,3.7,2.357A2.385,2.385,0,0,1,783.041,136.6Z" transform="translate(100.255 60.472)" fill="#fff"/>
    <path id="パス_418" data-name="パス 418" d="M780.539,107.771a3.981,3.981,0,0,0,3.259,6.263,3.852,3.852,0,0,0,.692-.061,3.979,3.979,0,1,0-3.951-6.2Zm2.7-.887a3.159,3.159,0,0,1,.56-.049,3.218,3.218,0,0,1,.557,6.388,3.218,3.218,0,1,1-1.117-6.339Z" transform="translate(99.91 43.097)" fill="#fff"/>
    <path id="パス_419" data-name="パス 419" d="M778.939,100.648a3.136,3.136,0,1,0-1.516-4.168,3.136,3.136,0,0,0,1.516,4.168Zm-.828-3.846a2.375,2.375,0,1,1-.079,1.816A2.368,2.368,0,0,1,778.112,96.8Z" transform="translate(98.047 35.186)" fill="#fff"/>
    <path id="パス_420" data-name="パス 420" d="M774.371,90.828a4.026,4.026,0,0,0,1.037.137,3.989,3.989,0,1,0-1.037-.137Zm-.579-6.633a3.2,3.2,0,0,1,1.6-.432,3.3,3.3,0,0,1,.838.11,3.22,3.22,0,1,1-2.442.322Z" transform="translate(94.099 27.094)" fill="#fff"/>
    <path id="パス_421" data-name="パス 421" d="M767.988,80.852c.119.01.235.015.352.015a3.984,3.984,0,1,0-.352-.015Zm-1.723-6.432a3.22,3.22,0,1,1-.4,4.537A3.205,3.205,0,0,1,766.265,74.42Z" transform="translate(89.206 20.094)" fill="#fff"/>
    <path id="パス_422" data-name="パス 422" d="M759.269,70.966c.093,0,.186,0,.279-.012a3.137,3.137,0,1,0-.279.012ZM757.455,66.3a2.362,2.362,0,0,1,1.613-.839c.071-.005.141-.008.212-.008a2.374,2.374,0,1,1-1.824.848Z" transform="translate(83.477 14.364)" fill="#fff"/>
    <path id="パス_423" data-name="パス 423" d="M747.536,64.553a3.98,3.98,0,1,0-1.854-2.416A3.959,3.959,0,0,0,747.536,64.553Zm-.8-5.056a3.217,3.217,0,1,1-.322,2.443A3.193,3.193,0,0,1,746.739,59.5Z" transform="translate(76.13 9.126)" fill="#fff"/>
    <path id="パス_424" data-name="パス 424" d="M737,59.638a3.981,3.981,0,1,0-2.245-2.058A3.972,3.972,0,0,0,737,59.638Zm-1.663-4.84a3.219,3.219,0,0,1,5.943-.259,3.219,3.219,0,1,1-5.943.259Z" transform="translate(68.383 5.522)" fill="#fff"/>
    <path id="パス_425" data-name="パス 425" d="M725.565,55.452a3.21,3.21,0,0,0,.552.047,3.132,3.132,0,1,0-.552-.047Zm.543-5.462a2.464,2.464,0,0,1,.415.036,2.38,2.38,0,0,1,1.926,2.751,2.375,2.375,0,0,1-4.677-.826A2.378,2.378,0,0,1,726.108,49.99Z" transform="translate(60.472 3.66)" fill="#fff"/>
    <path id="パス_426" data-name="パス 426" d="M711.493,48.961l4.7,7.305.7-.206v-8.6h-.761v7.308l-4.7-7.305-.7.206V56.09h.761Z" transform="translate(51.981 2.433)" fill="#fff"/>
    <path id="パス_427" data-name="パス 427" d="M646.928,122.173a3.6,3.6,0,1,0-3.6,3.6A3.6,3.6,0,0,0,646.928,122.173Z" transform="translate(2.726 51.769)" fill="#fff"/>
    <path id="パス_428" data-name="パス 428" d="M784.717,118.574a3.6,3.6,0,1,0,3.6,3.6A3.6,3.6,0,0,0,784.717,118.574Z" transform="translate(100.809 51.769)" fill="#fff"/>
    <path id="パス_429" data-name="パス 429" d="M714.023,189.267a3.6,3.6,0,1,0,3.6,3.6A3.6,3.6,0,0,0,714.023,189.267Z" transform="translate(51.768 100.809)" fill="#fff"/>
    <path id="パス_430" data-name="パス 430" d="M843.72,235.9q1.471-1.753,2.829-3.6A110.694,110.694,0,1,0,647.19,166.052c0,1.858.047,3.76.142,5.656.019.371.049.737.08,1.1.022.249.042.5.059.75l.036.535c.071,1.067.142,2.134.249,3.193.046.462.107.923.168,1.382.037.276.075.552.109.83l.086.72c.1.859.2,1.718.332,2.568.075.5.166.994.257,1.489l.281,1.6c.132.779.266,1.558.422,2.329.107.523.229,1.042.351,1.558l.354,1.553c.164.739.329,1.477.515,2.207.137.54.292,1.076.446,1.611l.425,1.508c.193.7.386,1.406.6,2.1.166.539.347,1.071.528,1.6l.5,1.494c.224.674.446,1.347.686,2.012.2.545.41,1.081.623,1.618l.6,1.536c.2.52.395,1.042.612,1.562l.124.279c.264.628.547,1.248.828,1.868l1.248,2.79.156.317c.085.176.173.351.261.525l.176.354c.568,1.159,1.165,2.326,1.775,3.466q.328.615.664,1.225c.708,1.287,1.389,2.47,2.08,3.62l.324.55c.779,1.279,1.617,2.587,2.561,4q.234.348.473.691l.256.373q1.042,1.517,2.133,3l.2.273c.186.256.372.512.562.762,1.028,1.364,1.985,2.581,2.924,3.72l.41.483c.855,1.026,1.77,2.082,2.719,3.139.307.344.618.683.932,1.021.878.954,1.773,1.894,2.663,2.795l.672.688c1.077,1.072,2.226,2.166,3.415,3.254.174.161.352.318.532.478l.335.3c.923.828,1.86,1.64,2.878,2.493.322.269.644.539.971.8,1.375,1.126,2.6,2.087,3.743,2.944s2.382,1.734,3.879,2.756c.351.241.7.474,1.121.752q1.555,1.034,3.146,2.017l.379.237c.2.127.406.254.613.378,1.385.837,2.771,1.633,4.116,2.366.166.091.334.18.5.268l.357.186c1.13.606,2.3,1.2,3.466,1.777.42.2.838.408,1.26.608,1.3.615,2.585,1.2,3.833,1.733l.586.259c1.377.581,2.841,1.159,4.473,1.763.3.112.6.219.9.325l.32.113c1.152.413,2.351.818,3.564,1.206l.371.119c.291.095.584.19.877.28,1.68.513,3.21.949,4.678,1.328l.633.152c1.328.335,2.736.661,4.182.965q.7.147,1.406.286c1.306.257,2.639.5,3.964.708l.417.069c.191.032.385.064.578.095,1.587.239,3.242.449,4.919.625.256.027.511.049.771.071l.451.041c1.314.124,2.637.224,3.933.3l.135.008c.435.027.869.051,1.3.071,1.936.088,3.557.129,5.1.129A110.533,110.533,0,0,0,843.72,235.9Zm-116.5-9.689a8.722,8.722,0,0,1,1.872-.757,69.325,69.325,0,0,0,128.5-30.594l2.021-.256a70.93,70.93,0,0,1-13.681,37.249c-.9,1.208-1.845,2.388-2.8,3.557a71.28,71.28,0,0,1-115.911-9.2Zm-2.17,26.314c-.12-.615-1.721-8.085-8.944-10.873-3.7-1.425-4.6-3.945-5.449-6.642L721.6,228.7l-.01-.017a9.882,9.882,0,0,0,4.77-1.909c.071-.056.149-.1.224-.152a71.6,71.6,0,0,0,10.678,13.7ZM687.393,236.8a14.569,14.569,0,1,1,11.127-.728A14.584,14.584,0,0,1,687.393,236.8Zm-30.914-28.235a9.839,9.839,0,0,0,4.91-.1c4.3-1.394,9.02,1.338,11.555,2.808a20.383,20.383,0,0,0,7.3,2.011,15.239,15.239,0,0,0-2.578,4.524c-1.489-1.406-6.608-5.911-11.151-6.084a25.068,25.068,0,0,1-9.686-2.365C656.713,209.091,656.593,208.832,656.479,208.564Zm19.9-11.882a13.775,13.775,0,0,1-4.541-9.936,26.282,26.282,0,0,0,7.4,11.747c3.383,3.066,4.294,10.461,4.426,11.72a15.379,15.379,0,0,0-2.8,2.36l-.02,0c-1.552-2.243-1.472-4.5-1.367-6.875C679.6,202.707,679.741,199.617,676.375,196.682Zm20.594-3.936a13.772,13.772,0,0,1,2.907-10.529A26.274,26.274,0,0,0,698,195.972c.618,4.5-3.4,10.719-4.133,11.806a15.166,15.166,0,0,0-3.667.029l-.022-.022c.254-2.715,1.763-4.39,3.373-6.145C695.568,199.438,697.658,197.159,696.969,192.745Zm19.422-2.717a72.926,72.926,0,0,0,.674,9.57,13.373,13.373,0,0,0-2.444,2.976c-2.119,3.51-4.872,3.87-7.785,4.252-2.212.29-4.49.589-6.5,2.3a19.009,19.009,0,0,1,.693-6.743c1.038-2.835,2.954-8.09.776-12.357Zm.749-.381a71.012,71.012,0,0,1,3.432-21.835q.869.513,1.76,1.025a69.063,69.063,0,0,0-3.2,20.811,70.15,70.15,0,0,0,.476,8.1,14.27,14.27,0,0,0-1.843,1.25A72.353,72.353,0,0,1,717.139,189.647Zm-21.715-54.162c6.364-3.1,21.529-1.7,41.286,4.052A72.445,72.445,0,0,0,724.533,156.4l-24.64-6.83a3.695,3.695,0,0,0-5.21-3.936c-.108.051-.2.12-.307.181-2.063-3.049-2.707-5.588-1.882-7.541a5.248,5.248,0,0,1,2.175-2.343l31.172,18,.381-.659ZM834.5,95.061a18.929,18.929,0,0,1-7.289,33.831,71.707,71.707,0,0,0-20.08-8.879,19.494,19.494,0,0,1-1.628-3.594,19.58,19.58,0,0,0,29-21.358Zm5.188,43.9L858,120.655a108.976,108.976,0,0,1,7.732,23.944l-15.045,8.686A72.588,72.588,0,0,0,839.692,138.966Zm-.539-.539a72.754,72.754,0,0,0-11.061-8.972,19.634,19.634,0,0,0,12.284-28.948l2.439-4.223a110.231,110.231,0,0,1,14.852,23.629Zm-34.1-23.185-.849-.554.273.976a20.416,20.416,0,0,0,1.674,4.087,71.917,71.917,0,0,0-17.3-2.19V60.566A109.514,109.514,0,0,1,818.9,74.625l-11.257,42.017A19.371,19.371,0,0,1,805.055,115.242Zm-16.581,3.071a71.414,71.414,0,0,1,71.333,71.335c0,1.458-.058,2.9-.144,4.341l-1.926-1.426c.041-.967.074-1.938.074-2.915a69.323,69.323,0,0,0-130.565-32.5l-1.963-.544A71.391,71.391,0,0,1,788.473,118.313Zm72.085,71.716h4.629a109.175,109.175,0,0,1-5.773,18.233l-1.2-.322A71.9,71.9,0,0,0,860.558,190.028Zm0-.762a71.88,71.88,0,0,0-2.348-17.911l9.572-2.564a109.844,109.844,0,0,1-2.419,20.475ZM725.888,226.172c-3.562,2.781-8.935,1.824-11.818,1.313a20.342,20.342,0,0,0-7.536.6c.019-.054.044-.1.061-.156a15.221,15.221,0,0,0,.8-4.977c1.877.81,8.234,3.3,12.562,1.9a25.416,25.416,0,0,1,12.7-.684A11.7,11.7,0,0,0,725.888,226.172Zm-19.7,2.795.019-.005c2.226,1.577,2.922,3.723,3.635,5.994.9,2.852,1.826,5.8,5.995,7.409a13.8,13.8,0,0,1,7.666,7.783,26.3,26.3,0,0,0-10.976-8.506c-4.206-1.716-7.578-8.3-8.156-9.48A15.356,15.356,0,0,0,706.188,228.966Zm4.235,5.3a10.838,10.838,0,0,0-3.25-5.547,18.938,18.938,0,0,1,6.762-.486,29.221,29.221,0,0,0,5.92.589ZM700.4,210.146l0-.024c1.94-1.917,4.172-2.231,6.533-2.539,2.966-.39,6.03-.791,8.339-4.616a13.782,13.782,0,0,1,9-6.2,26.3,26.3,0,0,0-10.283,9.33c-2.424,3.85-9.508,6.03-10.759,6.389A15.293,15.293,0,0,0,700.4,210.146Zm14.227-3.64a25.406,25.406,0,0,1,9.287-8.686,11.707,11.707,0,0,0-3.9,5.878c-.938,4.419-5.668,7.14-8.208,8.6a20.307,20.307,0,0,0-5.385,5.309,15.451,15.451,0,0,0-2.644-4.484C705.728,212.539,712.2,210.359,714.629,206.506Zm4.092,1.382a71.751,71.751,0,0,0,5.056,13.585c-.429.1-.862.22-1.3.371-3.881,1.328-6.218-.166-8.7-1.746-1.88-1.2-3.82-2.436-6.457-2.419a18.869,18.869,0,0,1,4.861-4.717A23.208,23.208,0,0,0,718.721,207.888Zm5.829,13.439a70.91,70.91,0,0,1-5.244-14.181,9.263,9.263,0,0,0,1.375-3.049,68.851,68.851,0,0,0,6.011,17.018A13.592,13.592,0,0,0,724.55,221.327Zm-17.818-2.842c2.719-.222,4.631.974,6.638,2.254,2.52,1.607,5.126,3.273,9.353,1.824A13.8,13.8,0,0,1,733.6,223.6a26.309,26.309,0,0,0-13.874.539c-4.328,1.391-11.162-1.5-12.348-2.022a15.262,15.262,0,0,0-.661-3.6Zm29.283,6.638,2.26.959-1.911-1.619a16.33,16.33,0,0,0-8.817-3.323,68.075,68.075,0,0,1-6.408-18.453c1.452-3.493,5.607-6.088,5.956-6.3l2.349-.72-2.5-.012h0a16.491,16.491,0,0,0-6.6,1.7,69.9,69.9,0,0,1-.44-7.705,68.368,68.368,0,0,1,3.1-20.419c3.7,2.117,7.639,4.218,11.757,6.271a55.539,55.539,0,1,0,109.234,15.2l7.177,1.989-3.6,3.449,9.257-1.174a68.559,68.559,0,0,1-126.945,30.3A19.186,19.186,0,0,1,736.015,225.123Zm-42.692-76.191,5.456,1.513a2.921,2.921,0,0,1-5.456-1.513Zm3.925-2.708a2.935,2.935,0,0,1,1.9,3.137l-5.583-1.546A2.926,2.926,0,0,1,697.248,146.224Zm2.276,4.428L724,157.435a71.68,71.68,0,0,0-3.852,9.248c-8.772-5.232-16.027-10.509-21.037-15.39A3.674,3.674,0,0,0,699.525,150.652Zm25.225,6.992,1.963.544a69.13,69.13,0,0,0-4.133,9.914c-.591-.342-1.182-.683-1.76-1.025A71.013,71.013,0,0,1,724.75,157.644Zm2.714.752,12.882,3.571a55.284,55.284,0,0,0-5.375,12.788c-4.107-2.051-8.027-4.148-11.718-6.262A68.036,68.036,0,0,1,727.463,158.4Zm129.526,33.613L850,186.83l1.447,4.744-7.428-2.06a55.533,55.533,0,0,0-103.082-28.572L728,157.357a68.562,68.562,0,0,1,129.052,32.29C857.049,190.438,857.015,191.222,856.989,192.008Zm1.4,1.984-.71-.185c.007-.108.019-.215.024-.324l.688.508Zm-1.46-.381-4.414-1.155-1.109-3.637,5.564,4.121C856.954,193.164,856.939,193.387,856.925,193.611Zm-76.154-58.2a38.214,38.214,0,0,1,14.076,40.473L760.632,166.4a2.744,2.744,0,0,0-5.246-1.453L741.7,161.155A54.887,54.887,0,0,1,780.771,135.414ZM796.89,165.8a141.92,141.92,0,0,1,13.62,9.286,2.879,2.879,0,0,0-.4,1.033,2.919,2.919,0,0,0,4.55,2.9,3.394,3.394,0,0,0,.278-.239q2.137,1.926,3.762,3.718l-23.116-6.406a38.956,38.956,0,0,0,1.316-10.039C796.9,165.967,796.892,165.884,796.89,165.8Zm17.331,12.594a2.138,2.138,0,0,1-1.613.357,2.155,2.155,0,1,1,1.613-.357Zm-18.046,16.656a2.909,2.909,0,0,0-5.515.122c-1.78-.4-3.6-.842-5.451-1.316a39.037,39.037,0,0,0,10.06-16.664l24.779,6.869c3.095,3.823,4.245,7.058,3.262,9.387-1.931,4.578-11.76,5.62-26.983,2.873A2.885,2.885,0,0,0,796.175,195.049Zm-2.005,3.027a2.158,2.158,0,1,1,1.289-2.766A2.158,2.158,0,0,1,794.17,198.076Zm-39.019-32.005a2.752,2.752,0,0,0,4.778,1.851,2.779,2.779,0,0,0,.329-.437l34.277,9.5a38.277,38.277,0,0,1-10.188,16.64,249.814,249.814,0,0,1-33.309-11.493c-5.325-2.246-10.471-4.611-15.372-7.04a54.482,54.482,0,0,1,5.439-12.919Zm-4.411,16.767A251.547,251.547,0,0,0,783.7,194.246a38.177,38.177,0,0,1-49.636,1.689,54.357,54.357,0,0,1,1.392-20.1C740.329,178.254,745.446,180.605,750.74,182.838Zm7.162,22.211a38.84,38.84,0,0,0,26.661-10.576c2.021.523,4.013,1.015,5.956,1.447a2.908,2.908,0,0,0,5.635,1.143,84.41,84.41,0,0,0,14.642,1.538c7.294,0,11.86-1.638,13.219-4.858,1.032-2.448.085-5.618-2.727-9.342l21.949,6.084a54.77,54.77,0,0,1-109.043,6.494A39.079,39.079,0,0,0,757.9,205.049Zm62.157-22.174a51.173,51.173,0,0,0-4.619-4.668A2.912,2.912,0,0,0,811,174.5a143.4,143.4,0,0,0-14.137-9.616,39.181,39.181,0,0,0-15.031-29.607A54.679,54.679,0,0,1,843.249,189.3ZM752.772,127.05,716.5,64.222a109.125,109.125,0,0,1,35.833-7.978l17.115,63.873A71.627,71.627,0,0,0,752.772,127.05Zm-.661.379a72.584,72.584,0,0,0-14.32,11L684.04,84.675A110.205,110.205,0,0,1,715.782,64.5Zm-60.321,10.546c-.932,2.212-.261,5,1.972,8.29a3.632,3.632,0,0,0-.938,1.343l-12.351-3.423a5.661,5.661,0,1,0-.3,1.1l12.406,3.438a3.661,3.661,0,0,0,6,3.11c5.076,4.944,12.433,10.29,21.324,15.583q-.516,1.585-.955,3.2L648.9,151.852a109.074,109.074,0,0,1,11.178-35.9l33.858,19.549A5.786,5.786,0,0,0,691.791,137.975Zm8.52,64.149a20.337,20.337,0,0,0-.713,7.527,15.179,15.179,0,0,0-2.59-1.167,15.376,15.376,0,0,0-2.317-.573c1.121-1.7,4.678-7.534,4.06-12.043a25.408,25.408,0,0,1,1.529-12.623,11.691,11.691,0,0,0,.789,7.009C703.19,194.246,701.317,199.372,700.311,202.124Zm-4.1-9.26c.634,4.05-1.243,6.1-3.23,8.261-1.507,1.643-3.059,3.337-3.5,5.94a18.9,18.9,0,0,1-3.8-5.608c-1.037-2.868-2.971-8.2-7.477-10.026a7.6,7.6,0,0,1-2.177-1.4h20.043A13.462,13.462,0,0,0,696.215,192.864Zm-18.3-.727c4.192,1.694,6.049,6.823,7.046,9.579a20.237,20.237,0,0,0,4.3,6.228,15.454,15.454,0,0,0-4.882,1.824c-.236-2.022-1.259-8.783-4.631-11.84a25.4,25.4,0,0,1-6.943-10.653A11.7,11.7,0,0,0,677.916,192.137Zm20.941,44.618c.069-.034.132-.076.2-.112l.014.007c.69,2.639-.154,4.729-1.067,6.928-1.147,2.763-2.332,5.617-.173,9.528a12.842,12.842,0,0,1,1.58,6.032c-.325-.205-.659-.422-.986-.634a25.8,25.8,0,0,0-2.663-8.078c-2.119-4.013-.478-11.208-.158-12.5A15.474,15.474,0,0,0,698.857,236.755Zm1.108.334a26.88,26.88,0,0,1,2.761,1.624l-2.819,1.628A8.347,8.347,0,0,0,699.965,237.088Zm-.088-.9a15.238,15.238,0,0,0,3.969-3.367c.923,1.836,4.189,7.812,8.395,9.524a25.419,25.419,0,0,1,10.166,7.638,11.7,11.7,0,0,0-6.465-2.822c-4.517-.158-8.019-4.343-9.9-6.591A20.347,20.347,0,0,0,699.877,236.189Zm88.978,25.543a71.869,71.869,0,0,0,17.909-2.348l1.208,4.506a109.28,109.28,0,0,1-19.117,7.646Zm18.644-2.556a71.632,71.632,0,0,0,16.674-6.933l.584,1.011a109.99,109.99,0,0,1-16.092,10.278Zm17.335-7.312a72.628,72.628,0,0,0,7.965-5.419q-3.572,3.331-7.436,6.335Zm-36.741,9.867v10.023a109.293,109.293,0,0,1-22.279,3.933l4.377-16.335A71.592,71.592,0,0,0,788.092,261.73ZM858,208.672l1.121.3q-2.063,4.845-4.563,9.447A71.451,71.451,0,0,0,858,208.672Zm9.8-40.678L858,170.62a71.63,71.63,0,0,0-6.933-16.674l14.809-8.551a110.116,110.116,0,0,1,1.973,20.656C867.852,166.7,867.813,167.346,867.8,167.995ZM842.292,95.668l-2.353,4.075a19.582,19.582,0,0,0-5.437-5.617,1.917,1.917,0,0,0-.251-.141,1.356,1.356,0,0,1-.146-.078l-.847-.551.273.974a18.818,18.818,0,0,1-25.189,22.635l11.225-41.894A110.8,110.8,0,0,1,842.292,95.668Zm-54.2-35.318v57.211a71.876,71.876,0,0,0-17.911,2.348L753.118,56.223c1.587-.069,3.179-.122,4.784-.122A109.619,109.619,0,0,1,788.092,60.349ZM683.487,85.2l53.671,53.673c-20.675-6.047-36.08-7.343-42.493-3.826l-34.241-19.767A110.555,110.555,0,0,1,683.487,85.2ZM649.741,185.751l-.283-1.611c-.09-.486-.18-.972-.254-1.463-.127-.844-.229-1.694-.329-2.544l-.086-.723q-.051-.419-.11-.838c-.059-.451-.119-.9-.166-1.358-.105-1.048-.174-2.105-.246-3.164l-.036-.537c-.017-.256-.039-.51-.059-.764-.031-.357-.061-.716-.078-1.079-.095-1.882-.142-3.77-.142-5.617a110.268,110.268,0,0,1,.85-13.436l69.932,18.739a71.883,71.883,0,0,0-2.348,17.911H701.456c-1.462-3.669.207-8.774.339-9.165l1.336-2.058-1.926,1.6a16.1,16.1,0,0,0-5.056,9.624H675.255a19.156,19.156,0,0,1-3.31-5.373l-.3-2.436-.447,2.461a16.37,16.37,0,0,0,.179,5.347H650.43c-.095-.4-.19-.8-.273-1.211C650,187.293,649.871,186.522,649.741,185.751Zm5.41,19.44c-.21-.53-.42-1.059-.617-1.6-.239-.657-.459-1.323-.678-1.99l-.5-1.5c-.178-.527-.357-1.052-.522-1.584-.212-.686-.4-1.382-.594-2.077l-.427-1.518c-.152-.527-.3-1.055-.44-1.589-.185-.722-.347-1.452-.51-2.183l-.256-1.125h20.943a13.776,13.776,0,0,0,4.328,7.228c3.09,2.695,2.968,5.468,2.837,8.4-.1,2.229-.2,4.524,1.137,6.8a18.952,18.952,0,0,1-6.52-1.856c-2.639-1.528-7.548-4.374-12.172-2.873a9.46,9.46,0,0,1-5.021-.012c-.129-.329-.259-.654-.384-.984Zm2.126,5.171a25.756,25.756,0,0,0,9.209,2.119c4.558.173,10,5.244,10.92,6.13a15.181,15.181,0,0,0-.628,3.611l-.017.012c-2.629-.722-4.018-2.5-5.466-4.389-1.817-2.373-3.7-4.827-8.166-4.914a12.837,12.837,0,0,1-5.247-1.231l-.586-1.3Zm15.731,10.617a8.425,8.425,0,0,0,2.924,1.811,18.879,18.879,0,0,1-6.183,2.771,38.436,38.436,0,0,0-3.764.822c-.684-1.04-1.326-2.039-1.919-3.007Zm-11.459-1.953c-.224-.4-.442-.81-.659-1.216-.606-1.133-1.2-2.29-1.762-3.442l-.181-.361c-.086-.171-.171-.339-.254-.513l-.351-.776a13.573,13.573,0,0,0,4.773.976c4.1.08,5.788,2.282,7.575,4.616.534.7,1.077,1.4,1.687,2.05l-8.72,2.336-.042-.074C662.928,221.481,662.252,220.3,661.549,219.027Zm5.4,8.791q-.234-.338-.466-.681l-.053-.08c1.23-.33,2.422-.566,3.452-.745a20.287,20.287,0,0,0,6.884-3.152,15.262,15.262,0,0,0,.935,5.124,27.444,27.444,0,0,0-9.672,1.064c-.273-.386-.556-.766-.822-1.155Zm2.376,3.352c-.284-.386-.556-.784-.835-1.174a28.138,28.138,0,0,1,9.536-.927,15.487,15.487,0,0,0,1.831,3.178l0,.012c-2.48,1.138-4.684.667-7.007.152a23.027,23.027,0,0,0-2.988-.517c-.11-.149-.222-.3-.332-.449Zm4.069,5.2-.408-.479c-.8-.971-1.619-2.017-2.48-3.144.732.107,1.462.247,2.177.407a18.214,18.214,0,0,0,3.967.578,8.289,8.289,0,0,0,2.93-.517,19.021,19.021,0,0,1-2.959,6.1c-.105.125-.217.261-.327.393-.066-.075-.134-.147-.2-.22C675.147,238.438,674.239,237.392,673.39,236.372Zm3.418,3.906c.132-.159.266-.322.391-.471a20.366,20.366,0,0,0,3.249-6.843,15.209,15.209,0,0,0,4,3.334,29.833,29.833,0,0,0-5.908,5.81c-.512-.534-1.025-1.057-1.528-1.6C676.946,240.429,676.878,240.352,676.809,240.278Zm2.851,3c-.195-.2-.388-.412-.584-.613a29.912,29.912,0,0,1,6.128-5.976,15.185,15.185,0,0,0,1.945.832,15.478,15.478,0,0,0,1.509.42l.005.012c-1.167,2.465-3.157,3.523-5.271,4.621a22.261,22.261,0,0,0-2.785,1.66c-.091-.088-.188-.18-.278-.269Zm4.582,4.385c-.175-.156-.351-.312-.523-.469-.883-.808-1.731-1.616-2.556-2.419a21.966,21.966,0,0,1,2.58-1.524c1.98-1.03,4.02-2.09,5.326-4.389a19.009,19.009,0,0,1,1.653,6.575c0,.063,0,.141,0,.207L685.43,248.7c-.283-.247-.571-.486-.85-.735Zm4.16,3.576c-.324-.264-.642-.532-1.028-.857-.452-.378-.889-.771-1.335-1.155l4.687-2.705A20.406,20.406,0,0,0,692,254.072C690.9,253.246,689.726,252.321,688.4,251.239Zm7.571,5.661c-.966-.659-1.812-1.253-2.607-1.826-1.889-3.068-1.887-7.334-1.884-9.636a20.3,20.3,0,0,0-1.9-7.3,14.417,14.417,0,0,0,5.2-.058c-.471,1.985-1.819,8.681.3,12.706a24.982,24.982,0,0,1,2.453,7.155c-.176-.117-.342-.215-.52-.334C696.671,257.37,696.32,257.137,695.973,256.9Zm13.607,7.926c-1.16-.571-2.319-1.164-3.442-1.763l-.364-.191c-.164-.086-.329-.171-.491-.259-1.335-.73-2.71-1.521-4.086-2.351-.2-.122-.4-.247-.6-.371l-.385-.241-.02-.014a13.631,13.631,0,0,0-1.69-6.9c-1.982-3.589-.917-6.154.21-8.867.337-.813.673-1.64.933-2.5l3.771-2.177a12.062,12.062,0,0,1,2.046,1.863c1.956,2.339,5.6,6.694,10.456,6.863,4.167.146,8.174,4.621,8.459,4.944l.114.225L711.741,265.84c-.307-.141-.6-.264-.91-.41Q710.2,265.13,709.579,264.825Zm25.508,8.791c-1.44-.3-2.837-.627-4.155-.959l-.63-.152c-1.457-.376-2.976-.808-4.644-1.319-.291-.088-.579-.181-.867-.274l-.373-.12c-1.2-.384-2.4-.788-3.539-1.2l-.323-.117q-.45-.155-.894-.32c-1.621-.6-3.074-1.174-4.441-1.751l-.583-.257c-.7-.3-1.433-.645-2.155-.974l12.368-12.368.637,1.247-.276-1.607,12.573-12.573a72.661,72.661,0,0,0,14.344,10.961l-13.01,22.537c-.882-.151-1.768-.3-2.637-.471C736.015,273.807,735.549,273.714,735.087,273.616Zm16.459,2.187-.136-.008c-1.289-.075-2.6-.174-3.908-.3l-.456-.041c-.254-.022-.507-.044-.759-.071-1.663-.174-3.306-.383-4.883-.62-.19-.029-.376-.061-.562-.093l-.425-.071c-.168-.027-.334-.061-.5-.09l12.865-22.282a72.722,72.722,0,0,0,16.676,6.919l-4.448,16.6c-2.351.151-4.716.254-7.106.254-1.528,0-3.137-.041-5.063-.127C752.407,275.854,751.976,275.828,751.546,275.8Z" transform="translate(7.89 7.89)" fill="#fff"/>
    <path id="パス_431" data-name="パス 431" d="M872.5,167.179a113.468,113.468,0,0,0-226.936,0c0,1.846.049,3.764.146,5.7.019.383.049.76.078,1.14.022.251.041.5.058.755l.015.237c.078,1.167.154,2.336.269,3.494.047.481.108.957.169,1.435l.151,1.236c.115.962.229,1.924.371,2.876.08.537.173,1.07.268,1.6l.19,1.1c.158.921.313,1.843.5,2.758.117.581.246,1.157.376,1.733l.191.859c.207.93.413,1.858.644,2.778.161.639.335,1.272.512,1.906l.129.473c.264.967.532,1.934.821,2.893.21.691.435,1.377.661,2.061l.1.3c.308.938.617,1.875.948,2.8.276.772.566,1.536.871,2.332.088.229.171.461.256.691.119.325.237.652.369.981l.5,1.186q.356.859.725,1.709l.542,1.279c.227.508.466,1.009.7,1.511l.478,1.011c.105.227.21.452.318.678.73,1.5,1.48,2.969,2.236,4.365.093.173.192.346.288.517l.2.352c.646,1.169,1.314,2.329,1.985,3.45q.381.638.77,1.269c.683,1.109,1.4,2.227,2.131,3.325l.224.34c.11.171.22.34.334.508.889,1.309,1.841,2.646,2.825,3.97.148.2.3.4.451.593l.274.357q1.148,1.512,2.344,2.983c.308.378.617.757.93,1.131.933,1.12,1.87,2.2,2.781,3.211l.437.5c1.037,1.137,2.134,2.288,3.361,3.523.205.208.415.412.623.617l.327.32q1.321,1.3,2.681,2.556l.237.22c.268.247.539.5.81.742,1.348,1.213,2.551,2.253,3.694,3.2s2.39,1.922,3.845,3.02c.288.219.579.432.869.647l.271.2q1.494,1.1,3.025,2.153l.383.264q.363.252.728.5c1.462.979,2.807,1.841,4.116,2.637l.554.327c1.182.71,2.436,1.431,3.726,2.143.43.235.862.467,1.3.7,1.1.586,2.239,1.17,3.394,1.738l.43.213c.22.112.442.222.664.329,1.516.723,3.027,1.406,4.489,2.027.178.076.356.147.533.22l.4.159c1.238.515,2.495,1.01,3.737,1.474q.706.264,1.418.518c1.262.454,2.546.888,3.811,1.291l.413.135c.19.061.378.124.567.183,1.545.478,3.161.937,4.8,1.365.244.063.489.122.734.181l.472.115c1.264.315,2.546.61,3.811.879.5.105.989.21,1.487.308,1.484.295,2.952.557,4.363.779l.3.053c.125.022.252.044.378.063,1.58.241,3.239.451,5.071.645.313.032.63.061.947.09l.464.042c1.3.12,2.617.22,3.914.3l.31.019c.4.024.8.049,1.206.066,1.953.09,3.667.134,5.241.134A113.6,113.6,0,0,0,872.5,167.179ZM752.628,279.686l-.31-.019c-1.289-.076-2.6-.174-3.889-.295l-.468-.042c-.312-.029-.623-.056-.935-.09-1.819-.193-3.467-.4-5.036-.64l-.678-.113c-1.4-.222-2.861-.483-4.334-.774-.495-.1-.986-.2-1.477-.307-1.258-.268-2.532-.561-3.786-.874l-.478-.115c-.241-.059-.481-.117-.72-.178-1.633-.427-3.239-.882-4.772-1.357-.186-.056-.369-.119-.554-.18l-.42-.137c-1.259-.4-2.532-.832-3.786-1.281q-.706-.254-1.408-.515c-1.235-.461-2.483-.954-3.713-1.463l-.4-.164c-.173-.069-.347-.141-.52-.213-1.452-.617-2.952-1.3-4.456-2.014-.22-.105-.437-.213-.654-.322l-.434-.215c-1.148-.566-2.282-1.147-3.372-1.728-.432-.23-.86-.461-1.287-.7-1.284-.706-2.527-1.421-3.7-2.127l-.55-.324c-1.3-.791-2.635-1.648-4.087-2.619-.242-.163-.481-.329-.72-.493l-.384-.266q-1.519-1.047-3.006-2.138l-.269-.2c-.288-.212-.576-.423-.862-.64-1.447-1.092-2.695-2.073-3.84-3.02-1.115-.92-2.309-1.953-3.649-3.159-.269-.242-.535-.488-.8-.735l-.239-.219q-1.354-1.25-2.664-2.541l-.329-.322c-.2-.2-.412-.4-.615-.608-1.216-1.226-2.309-2.371-3.337-3.5l-.434-.493c-.906-1-1.836-2.078-2.764-3.189-.312-.373-.617-.749-.923-1.125q-1.189-1.461-2.327-2.962l-.278-.363c-.149-.193-.3-.386-.444-.581-.979-1.316-1.923-2.644-2.8-3.945-.112-.164-.219-.329-.327-.495l-.227-.347c-.727-1.091-1.44-2.2-2.117-3.3q-.386-.628-.766-1.26c-.667-1.115-1.33-2.266-1.971-3.428l-.2-.359c-.095-.168-.19-.334-.281-.5-.75-1.387-1.5-2.846-2.221-4.336-.107-.218-.21-.442-.313-.664l-.479-1.02c-.237-.495-.474-.991-.7-1.487l-.539-1.274c-.246-.566-.486-1.131-.723-1.7l-.5-1.181c-.125-.313-.242-.633-.357-.952-.086-.234-.171-.469-.273-.735-.29-.759-.579-1.516-.852-2.283-.329-.921-.637-1.851-.942-2.783l-.1-.3c-.224-.679-.445-1.36-.654-2.046-.29-.95-.552-1.912-.816-2.874l-.131-.473c-.173-.627-.346-1.255-.5-1.889-.229-.911-.434-1.834-.64-2.758l-.191-.86c-.129-.569-.258-1.138-.373-1.714-.18-.906-.335-1.821-.491-2.736l-.191-1.108c-.093-.525-.186-1.052-.266-1.582-.141-.945-.252-1.9-.366-2.852l-.153-1.247c-.059-.467-.12-.937-.166-1.411-.115-1.15-.191-2.31-.268-3.471l-.015-.237c-.017-.256-.037-.512-.058-.766-.03-.371-.059-.742-.078-1.116-.095-1.921-.144-3.825-.144-5.659A112.706,112.706,0,1,1,759.029,279.884c-1.562,0-3.266-.044-5.205-.132C753.424,279.734,753.026,279.71,752.628,279.686Z" transform="translate(6.762 6.763)" fill="#fff"/>
  </g>
</svg>
