<svg id="グループ_60" data-name="グループ 60" xmlns="http://www.w3.org/2000/svg" width="47.442" height="61.856" viewBox="0 0 47.442 61.856">
  <path id="パス_353" data-name="パス 353" d="M1050.539,284.735a9.624,9.624,0,0,1-3.543-2.58,8.511,8.511,0,0,1-1.537-3.109c-.64-2.215-.82-4.68-2.228-7.029a9.431,9.431,0,0,1,3.977,2.814,9.126,9.126,0,0,1,1.671,3.521C1049.5,280.778,1049.424,283.163,1050.539,284.735Z" transform="translate(-1003.097 -229.383)" fill="#ddd"/>
  <path id="パス_354" data-name="パス 354" d="M1037.6,279.4a7.125,7.125,0,0,1-4.728-5.292c-.512-2.084-.528-4.364-1.447-6.5a8.227,8.227,0,0,1,3.193,2.63,9.133,9.133,0,0,1,1.359,3.229C1036.5,275.691,1036.488,277.94,1037.6,279.4Z" transform="translate(-1000.639 -228.464)" fill="#ddd"/>
  <path id="パス_355" data-name="パス 355" d="M1025.957,274.207a6.89,6.89,0,0,1-2.861-2.524,5.39,5.39,0,0,1-.6-1.419,7.023,7.023,0,0,1-.236-1.469c-.127-1.977.3-4.029.079-5.96a6.86,6.86,0,0,1,2.09,2.677,9.505,9.505,0,0,1,.67,3.043C1025.263,270.635,1025.034,272.731,1025.957,274.207Z" transform="translate(-998.725 -227.471)" fill="#ddd"/>
  <path id="パス_356" data-name="パス 356" d="M1015.791,267.963a5.793,5.793,0,0,1-1.979-2.916,4.637,4.637,0,0,1-.164-1.42,6.172,6.172,0,0,1,.2-1.362,12.58,12.58,0,0,1,.42-1.307c.162-.427.352-.854.53-1.269s.35-.823.519-1.237a12.214,12.214,0,0,0,.414-1.219,5.5,5.5,0,0,1,.91,2.73,6.744,6.744,0,0,1-.048,1.369,12.281,12.281,0,0,1-.241,1.381C1015.949,264.556,1015.261,266.406,1015.791,267.963Z" transform="translate(-996.937 -226.304)" fill="#ddd"/>
  <path id="パス_357" data-name="パス 357" d="M1007.967,260.187a6.371,6.371,0,0,1-.694-1.712,4.694,4.694,0,0,1-.127-1.523,4.571,4.571,0,0,1,.3-1.333,6,6,0,0,1,.584-1.167,17.29,17.29,0,0,1,1.584-2.032c.276-.322.546-.64.79-.96a8.8,8.8,0,0,0,.687-1,5.688,5.688,0,0,1,.055,2.89,8.457,8.457,0,0,1-1.067,2.352c-.466.753-.972,1.473-1.382,2.209A4.872,4.872,0,0,0,1007.967,260.187Z" transform="translate(-995.581 -224.895)" fill="#ddd"/>
  <path id="パス_358" data-name="パス 358" d="M1003.532,250.812a6.346,6.346,0,0,1-.123-1.743,4.982,4.982,0,0,1,.3-1.434,4.78,4.78,0,0,1,.6-1.166,7.175,7.175,0,0,1,.8-.957c1.171-1.169,2.592-1.962,3.529-3.105a7.723,7.723,0,0,1-.112,1.618,5.363,5.363,0,0,1-1.092,2.353,8.906,8.906,0,0,1-.82.911c-.294.288-.6.565-.911.839s-.6.54-.876.819A4.964,4.964,0,0,0,1003.532,250.812Z" transform="translate(-994.803 -223.217)" fill="#ddd"/>
  <path id="パス_359" data-name="パス 359" d="M1001.959,241.2a5.8,5.8,0,0,1,2.409-4.687,21.045,21.045,0,0,1,1.884-1.219,9.008,9.008,0,0,0,1.673-1.205,6.059,6.059,0,0,1-.891,2.745,5.984,5.984,0,0,1-1.639,1.648c-.625.447-1.274.82-1.887,1.238A5.177,5.177,0,0,0,1001.959,241.2Z" transform="translate(-994.504 -221.486)" fill="#ddd"/>
  <path id="パス_360" data-name="パス 360" d="M1001.824,232.134a6.012,6.012,0,0,1,2.793-4.126c1.2-.782,2.507-1.2,3.36-1.918a6.742,6.742,0,0,1-.44,1.443,4.908,4.908,0,0,1-.614,1.07,5.539,5.539,0,0,1-1.636,1.388C1004.094,230.7,1002.719,231.1,1001.824,232.134Z" transform="translate(-994.476 -219.82)" fill="#ddd"/>
  <path id="パス_361" data-name="パス 361" d="M1047.692,290.271a8.019,8.019,0,0,0-4.2-.852,7.816,7.816,0,0,0-3.218,1.128c-1.976,1.144-3.756,2.824-6.424,3.534a8.9,8.9,0,0,0,4.713.7,9.148,9.148,0,0,0,3.486-1.37C1044.111,292.138,1045.8,290.443,1047.692,290.271Z" transform="translate(-1001.144 -233)" fill="#ddd"/>
  <path id="パス_362" data-name="パス 362" d="M1034.622,284.794a7.939,7.939,0,0,0-7.239.337c-1.961,1-3.769,2.481-6.469,2.862a9.179,9.179,0,0,0,4.834,1.06,8.157,8.157,0,0,0,3.487-1.176C1031.251,286.7,1032.806,285.073,1034.622,284.794Z" transform="translate(-998.45 -231.896)" fill="#ddd"/>
  <path id="パス_363" data-name="パス 363" d="M1022.144,279.335a9.966,9.966,0,0,0-3.867-1,8.772,8.772,0,0,0-1.638.116,13.946,13.946,0,0,0-1.551.371c-1.022.31-2.028.7-3.115.993a9.2,9.2,0,0,1-3.585.315,9.332,9.332,0,0,0,4.7,2.084,7.353,7.353,0,0,0,3.58-.527C1018.761,280.859,1020.376,279.491,1022.144,279.335Z" transform="translate(-995.842 -230.698)" fill="#ddd"/>
  <path id="パス_364" data-name="パス 364" d="M1011.315,272.064a11.832,11.832,0,0,0-3.418-1.785,10.633,10.633,0,0,0-1.56-.338c-.511-.073-1.033-.092-1.538-.115s-1.024-.015-1.546-.016-1.036-.019-1.57-.057a9.4,9.4,0,0,1-1.618-.244,7.676,7.676,0,0,1-1.664-.6,9.4,9.4,0,0,0,3.791,3.44,7.059,7.059,0,0,0,1.807.536,7.85,7.85,0,0,0,1.678.042C1007.825,272.738,1009.609,271.873,1011.315,272.064Z" transform="translate(-993.763 -228.735)" fill="#ddd"/>
  <path id="パス_365" data-name="パス 365" d="M1003.975,262.028a14.533,14.533,0,0,0-1.261-1.508,9.4,9.4,0,0,0-2.536-1.875c-.433-.221-.888-.4-1.324-.576-.881-.343-1.815-.61-2.692-.975a11.176,11.176,0,0,1-1.321-.633,7.274,7.274,0,0,1-1.228-.9,8.619,8.619,0,0,0,2.257,3.953,6.44,6.44,0,0,0,2.853,1.548,17.634,17.634,0,0,0,2.8.42A8.126,8.126,0,0,1,1003.975,262.028Z" transform="translate(-992.766 -225.956)" fill="#ddd"/>
  <path id="パス_366" data-name="パス 366" d="M1000.253,251.309a13.063,13.063,0,0,0-.736-1.662,9.266,9.266,0,0,0-.852-1.289,9.525,9.525,0,0,0-.968-1.009,10.426,10.426,0,0,0-1.054-.817c-1.428-1-3.019-1.712-4.1-3.109a8.8,8.8,0,0,0,.411,2.151,6.261,6.261,0,0,0,.76,1.6,6.016,6.016,0,0,0,.989,1.142,6.932,6.932,0,0,0,1.138.8,12.007,12.007,0,0,0,1.177.576l1.178.477A7.746,7.746,0,0,1,1000.253,251.309Z" transform="translate(-992.543 -223.429)" fill="#ddd"/>
  <path id="パス_367" data-name="パス 367" d="M999.094,241.019a8.036,8.036,0,0,0-2.546-4.931c-.578-.557-1.2-1.043-1.776-1.547a7.6,7.6,0,0,1-1.482-1.645,7.109,7.109,0,0,0,.572,3.4,5.732,5.732,0,0,0,1.606,1.994,21.825,21.825,0,0,0,1.945,1.316A7.194,7.194,0,0,1,999.094,241.019Z" transform="translate(-992.695 -221.237)" fill="#ddd"/>
  <path id="パス_368" data-name="パス 368" d="M999.729,231.6a7.546,7.546,0,0,0-1.879-4.782,22.153,22.153,0,0,1-2.637-3.036,8.491,8.491,0,0,0-.045,1.7,5.457,5.457,0,0,0,.3,1.35,5.042,5.042,0,0,0,1.245,1.907C997.741,229.769,998.969,230.44,999.729,231.6Z" transform="translate(-993.085 -219.34)" fill="#ddd"/>
  <path id="パス_369" data-name="パス 369" d="M1002.137,225.293a6.65,6.65,0,0,1-.641-2.22,6.2,6.2,0,0,1,.151-2.052,5.109,5.109,0,0,1,1.768-2.85,11.7,11.7,0,0,0,.015,3.515,4.12,4.12,0,0,1-.2,1.548A7.578,7.578,0,0,1,1002.137,225.293Z" transform="translate(-994.401 -218.171)" fill="#ddd"/>
</svg>
