<svg xmlns="http://www.w3.org/2000/svg" width="44.998" height="44.998" viewBox="0 0 44.998 44.998">
  <g id="グループ_3" data-name="グループ 3" transform="translate(-300.532 -153.785)">
    <path id="パス_12" data-name="パス 12" d="M324.363,155.6a22.022,22.022,0,1,0,22.022,22.022A22.046,22.046,0,0,0,324.363,155.6Zm0,43.911a21.89,21.89,0,1,1,21.89-21.89A21.914,21.914,0,0,1,324.363,199.506Z" transform="translate(-1.333 -1.333)" fill="#fff"/>
    <path id="パス_13" data-name="パス 13" d="M323.031,153.785a22.5,22.5,0,1,0,22.5,22.5A22.525,22.525,0,0,0,323.031,153.785Zm0,44.866A22.367,22.367,0,1,1,345.4,176.284,22.393,22.393,0,0,1,323.031,198.651Z" transform="translate(0 0)" fill="#fff"/>
    <path id="パス_14" data-name="パス 14" d="M370.257,160.484a.69.69,0,1,0-.678-.57A.688.688,0,0,0,370.257,160.484Zm-.456-1.009a.558.558,0,1,1-.092.417A.554.554,0,0,1,369.8,159.475Z" transform="translate(-50.825 -3.917)" fill="#fff"/>
    <path id="パス_15" data-name="パス 15" d="M357.44,164.289a.543.543,0,1,0-.511-.357A.541.541,0,0,0,357.44,164.289Zm-.373-.717a.408.408,0,0,1,.232-.213.414.414,0,0,1,.141-.025.411.411,0,0,1,.141.8.412.412,0,0,1-.527-.246A.408.408,0,0,1,357.067,163.572Z" transform="translate(-41.496 -6.933)" fill="#fff"/>
    <path id="パス_16" data-name="パス 16" d="M344.444,169.792a.7.7,0,0,0,.179.024.691.691,0,1,0-.179-.024Zm-.36-.81a.558.558,0,1,1,.056.423A.553.553,0,0,1,344.084,168.981Z" transform="translate(-31.952 -10.787)" fill="#fff"/>
    <path id="パス_17" data-name="パス 17" d="M333.348,177.665l.061,0a.689.689,0,1,0-.444-1.217.689.689,0,0,0,.383,1.215Zm-.3-1.114a.552.552,0,0,1,.357-.131l.05,0a.558.558,0,1,1-.407.128Z" transform="translate(-23.696 -16.568)" fill="#fff"/>
    <path id="パス_18" data-name="パス 18" d="M324.134,187.612a.543.543,0,1,0-.349-.127A.542.542,0,0,0,324.134,187.612Zm-.315-.807a.411.411,0,1,1,.051.58A.411.411,0,0,1,323.819,186.8Z" transform="translate(-16.976 -24.104)" fill="#fff"/>
    <path id="パス_19" data-name="パス 19" d="M315.528,198.473a.683.683,0,0,0,.343.093.7.7,0,0,0,.18-.024.69.69,0,1,0-.523-.069Zm-.138-.876a.558.558,0,1,1,.2.762A.558.558,0,0,1,315.39,197.6Z" transform="translate(-10.787 -31.952)" fill="#fff"/>
    <path id="パス_20" data-name="パス 20" d="M309.85,210.932a.689.689,0,1,0-.412-.884A.69.69,0,0,0,309.85,210.932Zm-.288-.839a.558.558,0,1,1,.333.715A.558.558,0,0,1,309.562,210.094Z" transform="translate(-6.526 -41.088)" fill="#fff"/>
    <path id="パス_21" data-name="パス 21" d="M306.855,224.453a.544.544,0,0,0,.629-.441.543.543,0,1,0-.629.441Zm-.311-.606a.411.411,0,1,1,.334.477A.413.413,0,0,1,306.544,223.847Z" transform="translate(-4.325 -51.232)" fill="#fff"/>
    <path id="パス_22" data-name="パス 22" d="M307.221,250.671a.689.689,0,1,0-1.358.239.69.69,0,0,0,.677.57.7.7,0,0,0,.121-.011A.69.69,0,0,0,307.221,250.671Zm-.582.669a.557.557,0,1,1,.452-.646A.555.555,0,0,1,306.638,251.339Z" transform="translate(-3.917 -70.908)" fill="#fff"/>
    <path id="パス_23" data-name="パス 23" d="M310.722,263.931a.544.544,0,1,0,.281.307A.541.541,0,0,0,310.722,263.931Zm.143.666a.411.411,0,1,1-.514-.561.416.416,0,0,1,.141-.025.412.412,0,0,1,.372.585Z" transform="translate(-6.933 -81.053)" fill="#fff"/>
    <path id="パス_24" data-name="パス 24" d="M316.051,275.758a.683.683,0,0,0-.523.069.69.69,0,1,0,.523-.069Zm.36.81a.557.557,0,1,1-.539-.7.573.573,0,0,1,.145.019.558.558,0,0,1,.394.683Z" transform="translate(-10.787 -89.78)" fill="#fff"/>
    <path id="パス_25" data-name="パス 25" d="M323.785,286.953a.689.689,0,0,0-.12,1.374l.061,0a.69.69,0,0,0,.059-1.376Zm.3,1.114a.558.558,0,1,1-.359-.985l.05,0a.558.558,0,0,1,.31.983Z" transform="translate(-16.568 -98.037)" fill="#fff"/>
    <path id="パス_26" data-name="パス 26" d="M333.4,297.381a.543.543,0,1,0,.765-.067A.539.539,0,0,0,333.4,297.381Zm.731.614a.411.411,0,1,1-.051-.58A.412.412,0,0,1,334.13,298Z" transform="translate(-24.103 -105.574)" fill="#fff"/>
    <path id="パス_27" data-name="パス 27" d="M344.967,304.578a.689.689,0,1,0,.321.418A.687.687,0,0,0,344.967,304.578Zm.138.876a.558.558,0,0,1-1.021-.135.558.558,0,0,1,.394-.683.568.568,0,0,1,.145-.019.558.558,0,0,1,.482.837Z" transform="translate(-31.952 -110.947)" fill="#fff"/>
    <path id="パス_28" data-name="パス 28" d="M357.267,310.313a.69.69,0,1,0,.389.357A.686.686,0,0,0,357.267,310.313Zm.288.839a.558.558,0,1,1-.759-.7.557.557,0,0,1,.759.7Z" transform="translate(-41.087 -115.206)" fill="#fff"/>
    <path id="パス_29" data-name="パス 29" d="M370.76,314.378a.543.543,0,1,0-.189,1.07.56.56,0,0,0,.1.008.543.543,0,0,0,.093-1.078Zm.311.606a.412.412,0,1,1-.334-.477A.409.409,0,0,1,371.071,314.985Z" transform="translate(-51.232 -118.224)" fill="#fff"/>
    <path id="パス_30" data-name="パス 30" d="M397.417,313.826a.69.69,0,0,0,.118,1.369.7.7,0,0,0,.121-.011.689.689,0,0,0-.239-1.358Zm.216,1.228a.558.558,0,0,1-.194-1.1.587.587,0,0,1,.1-.008.558.558,0,0,1,.1,1.107Z" transform="translate(-70.907 -117.816)" fill="#fff"/>
    <path id="パス_31" data-name="パス 31" d="M410.984,310.86a.543.543,0,1,0,.7.325A.544.544,0,0,0,410.984,310.86Zm.559.684a.411.411,0,1,1,.014-.314A.409.409,0,0,1,411.543,311.544Z" transform="translate(-81.052 -115.615)" fill="#fff"/>
    <path id="パス_32" data-name="パス 32" d="M422.826,304.579a.689.689,0,0,0,.166,1.263.7.7,0,0,0,.18.024.689.689,0,1,0-.346-1.286Zm.624,1.08a.558.558,0,1,1-.28-1.04.557.557,0,0,1,.28,1.04Z" transform="translate(-89.78 -110.947)" fill="#fff"/>
    <path id="パス_33" data-name="パス 33" d="M433.944,296.795a.69.69,0,0,0,.383,1.215l.061,0a.683.683,0,0,0,.442-.161.689.689,0,1,0-.886-1.056Zm.8.955a.557.557,0,1,1,.069-.786A.559.559,0,0,1,434.746,297.75Z" transform="translate(-98.037 -105.166)" fill="#fff"/>
    <path id="パス_34" data-name="パス 34" d="M444.061,287.7a.543.543,0,0,0,.415.892l.048,0a.543.543,0,1,0-.463-.89Zm.731.614a.411.411,0,1,1-.051-.58A.409.409,0,0,1,444.792,288.313Z" transform="translate(-105.573 -98.446)" fill="#fff"/>
    <path id="パス_35" data-name="パス 35" d="M452.268,275.827a.69.69,0,1,0,.321.419A.684.684,0,0,0,452.268,275.827Zm.138.876a.558.558,0,1,1-.627-.818.568.568,0,0,1,.145-.019.558.558,0,0,1,.482.837Z" transform="translate(-110.947 -89.78)" fill="#fff"/>
    <path id="パス_36" data-name="パス 36" d="M457.945,263.368a.69.69,0,1,0,.412.884A.69.69,0,0,0,457.945,263.368Zm.288.839a.558.558,0,1,1-.333-.715A.559.559,0,0,1,458.233,264.207Z" transform="translate(-115.207 -80.645)" fill="#fff"/>
    <path id="パス_37" data-name="パス 37" d="M461.755,250.663a.543.543,0,0,0-.189,1.07.526.526,0,0,0,.094.008.543.543,0,0,0,.094-1.078Zm.311.606a.411.411,0,0,1-.81-.143.411.411,0,0,1,.81.143Z" transform="translate(-118.224 -71.316)" fill="#fff"/>
    <path id="パス_38" data-name="パス 38" d="M460.688,223.114a.69.69,0,0,0,.565,1.085.717.717,0,0,0,.12-.011.689.689,0,1,0-.685-1.075Zm.468-.154a.558.558,0,1,1-.36.229A.554.554,0,0,1,461.155,222.96Z" transform="translate(-117.815 -50.824)" fill="#fff"/>
    <path id="パス_39" data-name="パス 39" d="M457.886,211.185a.544.544,0,1,0-.281-.307A.542.542,0,0,0,457.886,211.185Zm-.143-.666a.412.412,0,1,1-.014.314A.41.41,0,0,1,457.743,210.519Z" transform="translate(-115.614 -41.496)" fill="#fff"/>
    <path id="パス_40" data-name="パス 40" d="M451.745,198.541a.7.7,0,0,0,.18.024.691.691,0,1,0-.18-.024Zm-.1-1.149a.557.557,0,1,1-.2.762A.554.554,0,0,1,451.644,197.392Z" transform="translate(-110.947 -31.952)" fill="#fff"/>
    <path id="パス_41" data-name="パス 41" d="M444.008,187.348l.061,0a.69.69,0,1,0-.061,0Zm-.3-1.114a.558.558,0,1,1-.069.786A.555.555,0,0,1,443.71,186.234Z" transform="translate(-105.165 -23.696)" fill="#fff"/>
    <path id="パス_42" data-name="パス 42" d="M434.8,177.93l.048,0a.542.542,0,1,0-.048,0Zm-.314-.808a.409.409,0,0,1,.279-.145h.036a.411.411,0,1,1-.316.147Z" transform="translate(-98.446 -16.975)" fill="#fff"/>
    <path id="パス_43" data-name="パス 43" d="M422.826,169.722a.69.69,0,0,0,.942-.252.69.69,0,1,0-.942.252Zm-.138-.876a.558.558,0,1,1-.056.423A.555.555,0,0,1,422.688,168.846Z" transform="translate(-89.78 -10.785)" fill="#fff"/>
    <path id="パス_44" data-name="パス 44" d="M410.526,163.986a.69.69,0,1,0-.389-.357A.69.69,0,0,0,410.526,163.986Zm-.288-.839a.559.559,0,0,1,.525-.367.558.558,0,1,1-.191,1.082A.558.558,0,0,1,410.238,163.148Z" transform="translate(-80.644 -6.526)" fill="#fff"/>
    <path id="パス_45" data-name="パス 45" d="M397.851,160.738a.552.552,0,0,0,.1.008.545.545,0,1,0-.1-.008Zm-.311-.606a.411.411,0,1,1,.81.143.411.411,0,1,1-.81-.143Z" transform="translate(-71.316 -4.325)" fill="#fff"/>
    <path id="パス_46" data-name="パス 46" d="M383.931,157.952l.813,1.265.121-.036v-1.49h-.132v1.266l-.813-1.265-.121.036v1.46h.132Z" transform="translate(-61.302 -2.876)" fill="#fff"/>
    <path id="パス_47" data-name="パス 47" d="M306.156,237.335a.623.623,0,1,0-.623.623A.623.623,0,0,0,306.156,237.335Z" transform="translate(-3.222 -61.051)" fill="#fff"/>
    <path id="パス_48" data-name="パス 48" d="M462.63,236.711a.623.623,0,1,0,.624.624A.623.623,0,0,0,462.63,236.711Z" transform="translate(-118.879 -61.051)" fill="#fff"/>
    <path id="パス_49" data-name="パス 49" d="M384.081,315.26a.623.623,0,1,0,.624.623A.623.623,0,0,0,384.081,315.26Z" transform="translate(-61.051 -118.879)" fill="#fff"/>
    <path id="パス_50" data-name="パス 50" d="M347.206,197.7q.254-.3.49-.623a19.155,19.155,0,1,0-34.5-11.464c0,.322.008.651.025.979,0,.064.008.127.014.191q.006.065.01.13l.006.093c.012.185.025.369.043.552.008.08.019.16.029.239q.01.072.019.144l.015.125c.018.149.035.3.058.444.013.087.029.172.045.257l.049.277c.023.135.046.269.073.4.018.09.039.18.061.27l.061.269c.028.128.057.256.089.382.024.094.05.186.077.279l.074.261c.034.122.067.243.1.363.029.093.06.185.092.278l.087.259c.038.116.077.233.119.348.034.094.071.187.108.28l.1.266c.034.09.068.18.106.27l.021.048c.046.109.095.216.143.323l.216.483.027.055c.015.031.03.061.045.091l.031.061c.1.2.2.4.307.6.038.071.076.142.115.212.122.223.24.427.36.626l.056.1c.135.221.28.448.443.692l.082.119.044.064q.18.263.369.519l.035.047c.032.044.064.088.1.132.178.236.343.447.506.644l.071.084c.148.178.306.36.47.543l.161.177c.152.165.307.327.461.483l.116.119c.186.186.385.375.591.563l.092.082.058.052c.16.143.322.284.5.431l.168.14c.238.195.45.361.648.509s.412.3.671.477l.194.13q.269.179.544.349l.066.041.106.065c.24.145.479.282.712.409l.087.046.062.032c.2.1.4.208.6.307l.218.105c.224.106.447.207.663.3l.1.045c.238.1.492.2.774.305l.156.056.056.02c.2.071.407.142.616.209l.064.021.152.048c.291.089.556.164.81.23l.11.027c.23.058.473.114.724.167l.243.049c.226.045.457.086.686.123l.072.012.1.016c.275.041.561.078.851.108l.133.013.078.007c.227.021.456.039.681.052h.023l.226.012c.335.015.615.022.882.022A19.127,19.127,0,0,0,347.206,197.7Zm-20.158-1.677a1.517,1.517,0,0,1,.324-.131,12,12,0,1,0,10.275-18.195,11.942,11.942,0,0,0-7.749,2.848l-.162-.316a12.336,12.336,0,0,1,17.855,16.769c-.157.209-.319.414-.484.616a12.335,12.335,0,0,1-20.058-1.592Zm-.376,4.554a2.646,2.646,0,0,0-1.548-1.882,1.509,1.509,0,0,1-.943-1.149l1.892-1.093,0,0a1.713,1.713,0,0,0,.825-.331c.012-.01.026-.017.039-.026a12.393,12.393,0,0,0,1.848,2.371Zm-6.517-2.722a2.521,2.521,0,1,1,1.925-.126A2.524,2.524,0,0,1,320.155,197.851Zm-5.349-4.886a1.7,1.7,0,0,0,.85-.018,2.644,2.644,0,0,1,2,.486,3.521,3.521,0,0,0,1.263.348,2.632,2.632,0,0,0-.446.783,3.688,3.688,0,0,0-1.929-1.053,4.338,4.338,0,0,1-1.676-.409C314.846,193.056,314.825,193.011,314.806,192.965Zm3.443-2.056a2.386,2.386,0,0,1-.786-1.719,4.549,4.549,0,0,0,1.281,2.033,3.742,3.742,0,0,1,.766,2.028,2.659,2.659,0,0,0-.485.408h0a1.77,1.77,0,0,1-.236-1.19A1.673,1.673,0,0,0,318.248,190.909Zm3.563-.681a2.383,2.383,0,0,1,.5-1.822,4.549,4.549,0,0,0-.325,2.38,3.734,3.734,0,0,1-.715,2.043,2.633,2.633,0,0,0-.635,0l0,0a1.769,1.769,0,0,1,.583-1.063A1.674,1.674,0,0,0,321.812,190.228Zm3.36-.47a12.656,12.656,0,0,0,.117,1.657,2.317,2.317,0,0,0-.422.514,1.547,1.547,0,0,1-1.347.736,1.993,1.993,0,0,0-1.125.4,3.274,3.274,0,0,1,.12-1.166,2.775,2.775,0,0,0,.134-2.139Zm.131-.066a12.3,12.3,0,0,1,.594-3.778l.3.177a11.952,11.952,0,0,0-.553,3.6,12.1,12.1,0,0,0,.082,1.4,2.485,2.485,0,0,0-.321.218A12.523,12.523,0,0,1,325.3,189.692Zm-3.759-9.373c1.1-.536,3.726-.294,7.146.7a12.489,12.489,0,0,0-2.866,4.7,20.146,20.146,0,0,1-3.64-2.663.638.638,0,0,0-.766-.98.558.558,0,0,0-.053.031,1.42,1.42,0,0,1-.326-1.3.9.9,0,0,1,.372-.408l5.4,3.117.066-.114Zm9.925-1.459-6.277-10.872a18.885,18.885,0,0,1,6.2-1.381l2.962,11.053A12.388,12.388,0,0,0,331.468,178.86Zm-.114.066a12.517,12.517,0,0,0-1.682,1.179l-4.875-9.482.861.054-1.708-1.437.24,2.22.434-.74,4.895,9.52c-.221.19-.436.386-.642.59l-9.3-9.3a19.071,19.071,0,0,1,5.493-3.491Zm-7.238-9.374.494.927-.333.568-.162-1.5Zm2.7,26.46a2.643,2.643,0,0,1-2.045.227,3.524,3.524,0,0,0-1.3.1c0-.009.007-.018.011-.027a2.643,2.643,0,0,0,.138-.861,3.689,3.689,0,0,0,2.174.33,4.392,4.392,0,0,1,2.2-.118A2.024,2.024,0,0,0,326.816,196.012Zm-3.409.484h0a1.768,1.768,0,0,1,.629,1.037,1.673,1.673,0,0,0,1.037,1.282,2.387,2.387,0,0,1,1.327,1.347,4.553,4.553,0,0,0-1.9-1.472,3.731,3.731,0,0,1-1.412-1.641A2.648,2.648,0,0,0,323.407,196.5Zm.733.917a1.876,1.876,0,0,0-.562-.96,3.272,3.272,0,0,1,1.17-.084,5.06,5.06,0,0,0,1.024.1Zm-1.734-4.174v0a1.77,1.77,0,0,1,1.131-.439,1.673,1.673,0,0,0,1.443-.8,2.386,2.386,0,0,1,1.557-1.073,4.552,4.552,0,0,0-1.78,1.615,3.735,3.735,0,0,1-1.862,1.106A2.63,2.63,0,0,0,322.406,193.239Zm2.462-.63a4.4,4.4,0,0,1,1.607-1.5,2.02,2.02,0,0,0-.675,1.017c-.163.765-.981,1.236-1.42,1.489a3.522,3.522,0,0,0-.932.918,2.667,2.667,0,0,0-.458-.776A3.691,3.691,0,0,0,324.868,192.609Zm.71.244a12.406,12.406,0,0,0,.873,2.346c-.074.017-.149.038-.225.064a1.547,1.547,0,0,1-1.5-.3,1.994,1.994,0,0,0-1.118-.419,3.283,3.283,0,0,1,.842-.816A4.019,4.019,0,0,0,325.577,192.853Zm1.007,2.321a12.257,12.257,0,0,1-.907-2.453,1.607,1.607,0,0,0,.236-.514,11.911,11.911,0,0,0,1.04,2.93A2.341,2.341,0,0,0,326.585,195.174Zm-3.083-.492a1.77,1.77,0,0,1,1.149.39,1.672,1.672,0,0,0,1.619.316,2.387,2.387,0,0,1,1.882.179,4.552,4.552,0,0,0-2.4.093,3.742,3.742,0,0,1-2.137-.35,2.655,2.655,0,0,0-.114-.624Zm5.067,1.149.391.166-.331-.28a2.832,2.832,0,0,0-1.527-.575,11.789,11.789,0,0,1-1.108-3.192,2.819,2.819,0,0,1,1.031-1.091l.406-.125-.433,0h0a2.858,2.858,0,0,0-1.142.294,12.007,12.007,0,0,1-.076-1.334,11.833,11.833,0,0,1,.537-3.533c.641.366,1.322.73,2.034,1.085a9.612,9.612,0,0,0,9.295,12.06c.244,0,.484-.012.723-.03a.931.931,0,0,0,1.715-.284,9.611,9.611,0,1,0-9.06-16.255l-1.065-2.072a11.863,11.863,0,1,1,7.687,20.9,11.934,11.934,0,0,1-10.139-5.7A3.328,3.328,0,0,1,328.568,195.83Zm11.535,3.016a.92.92,0,0,0,0-.155.935.935,0,0,0-1.036-.821.922.922,0,0,0-.228.06l-3.282-6.382a6.781,6.781,0,0,0,1.413-1.021c.35.091.694.175,1.03.25a.5.5,0,0,0,.976.2,14.613,14.613,0,0,0,2.534.266c1.262,0,2.052-.284,2.287-.841.271-.643-.243-1.572-1.484-2.688a.5.5,0,0,0-.011-.563.5.5,0,0,0-.757-.078,24.863,24.863,0,0,0-2.446-1.664,6.78,6.78,0,0,0-2.6-5.123,9.478,9.478,0,0,1,3.607,18.563Zm-1.859.06a.922.922,0,0,0,.065.239c-.22.015-.44.026-.663.026a9.492,9.492,0,0,1-9.392-8.211,6.724,6.724,0,0,0,7.127.678l3.282,6.383A.932.932,0,0,0,338.244,198.906Zm-2.749-7.476-.81-1.576q1.1.36,2.134.633A6.652,6.652,0,0,1,335.5,191.431Zm3.607-5.866a24.484,24.484,0,0,1,2.357,1.607.5.5,0,0,0,.34.764.5.5,0,0,0,.378-.084.516.516,0,0,0,.048-.041c1.178,1.06,1.693,1.96,1.449,2.538-.334.792-2.035.972-4.669.5a.5.5,0,0,0-.981-.2c-.308-.069-.624-.146-.943-.228a6.726,6.726,0,0,0,2.023-4.811C339.1,185.594,339.1,185.58,339.1,185.565Zm3.152,1.938a.373.373,0,1,1-.368-.438.387.387,0,0,1,.065.006A.374.374,0,0,1,342.255,187.5Zm-3.623,3.647a.373.373,0,1,1,.223-.479A.373.373,0,0,1,338.632,191.15Zm-2.318-10.843a6.609,6.609,0,0,1,.618,10.074c-.753-.2-1.533-.429-2.333-.695l-1.918-3.73a.476.476,0,0,0-.419-.815l-1.175-2.284A9.454,9.454,0,0,1,336.313,180.307Zm-4.233,4.913a.475.475,0,0,0,.431.838l1.818,3.536c-1.034-.351-2.093-.752-3.161-1.2-.922-.389-1.812-.8-2.66-1.218a9.484,9.484,0,0,1,2.43-4.175Zm-.963,3.293c1.115.47,2.222.888,3.3,1.25l.9,1.758a6.6,6.6,0,0,1-7.09-.742,9.564,9.564,0,0,1-.064-1.088,9.468,9.468,0,0,1,.305-2.389C329.315,187.72,330.2,188.127,331.116,188.513Zm-.242-5.637a9.618,9.618,0,0,0-2.487,4.238c-.711-.355-1.389-.718-2.028-1.084A11.9,11.9,0,0,1,329.8,180.8Zm-4.631,3.087-.3-.177a12.374,12.374,0,0,1,3.641-5.427l.163.316A12.029,12.029,0,0,0,326.243,185.963Zm-4.383-3.786a.508.508,0,1,1-.651.3A.508.508,0,0,1,321.86,182.178Zm-.945-1.427a1.54,1.54,0,0,0,.341,1.434.638.638,0,0,0,.7,1.05.645.645,0,0,0,.132-.086,20.336,20.336,0,0,0,3.69,2.7q-.089.274-.165.554l-12.121-3.248a18.872,18.872,0,0,1,1.934-6.212l5.859,3.383A1,1,0,0,0,320.916,180.751Zm1.474,11.1a3.526,3.526,0,0,0-.123,1.3,2.5,2.5,0,0,0-.849-.3,3.691,3.691,0,0,0,.7-2.084,4.4,4.4,0,0,1,.265-2.184,2.024,2.024,0,0,0,.137,1.213A2.641,2.641,0,0,1,322.39,191.851Zm-.709-1.6a1.547,1.547,0,0,1-.559,1.43,1.994,1.994,0,0,0-.606,1.028,3.263,3.263,0,0,1-.658-.97A2.747,2.747,0,0,0,318.564,190a1.311,1.311,0,0,1-.377-.243h3.469A2.317,2.317,0,0,0,321.681,190.248Zm-3.166-.126a2.641,2.641,0,0,1,1.219,1.657,3.5,3.5,0,0,0,.744,1.078,2.673,2.673,0,0,0-.844.316,3.691,3.691,0,0,0-.8-2.049,4.4,4.4,0,0,1-1.2-1.844A2.024,2.024,0,0,0,318.515,190.123Zm3.623,7.72.035-.019h0a1.771,1.771,0,0,1-.185,1.2,1.673,1.673,0,0,0-.03,1.649,2.22,2.22,0,0,1,.274,1.045l-.17-.108a4.461,4.461,0,0,0-.461-1.4,3.731,3.731,0,0,1-.027-2.163A2.656,2.656,0,0,0,322.138,197.843Zm.192.058a4.639,4.639,0,0,1,.478.281l-.488.282A1.443,1.443,0,0,0,322.33,197.9Zm-.015-.156a2.629,2.629,0,0,0,.687-.582,3.685,3.685,0,0,0,1.453,1.648,4.4,4.4,0,0,1,1.759,1.322,2.023,2.023,0,0,0-1.119-.488,2.642,2.642,0,0,1-1.713-1.141A3.52,3.52,0,0,0,322.315,197.745Zm23.3-24.421a3.275,3.275,0,0,1-1.261,5.854,12.413,12.413,0,0,0-3.475-1.536,3.362,3.362,0,0,1-.281-.622,3.388,3.388,0,0,0,5.018-3.7Zm.9,7.6,3.169-3.168a18.854,18.854,0,0,1,1.338,4.143l-2.6,1.5A12.557,12.557,0,0,0,346.509,180.922Zm-.093-.093a12.545,12.545,0,0,0-1.914-1.553,3.4,3.4,0,0,0,2.126-5.009l.422-.731a19.066,19.066,0,0,1,2.57,4.089Zm-5.9-4.012-.147-.1.047.169a3.518,3.518,0,0,0,.29.707,12.473,12.473,0,0,0-2.993-.379v-9.862a18.948,18.948,0,0,1,5.2,2.432l-1.948,7.271A3.347,3.347,0,0,1,340.515,176.817Zm9.6,12.941h.8a18.9,18.9,0,0,1-1,3.155l-.208-.056A12.445,12.445,0,0,0,350.12,189.758Zm0-.132a12.445,12.445,0,0,0-.406-3.1l1.656-.444a19,19,0,0,1-.419,3.543Zm-12.408,12.54a12.47,12.47,0,0,0,3.1-.406l.209.779a18.884,18.884,0,0,1-3.308,1.323Zm3.226-.443a12.4,12.4,0,0,0,2.886-1.2l.1.175a19.078,19.078,0,0,1-2.785,1.779Zm3-1.265a12.546,12.546,0,0,0,1.378-.938q-.618.577-1.286,1.1Zm-6.358,1.707V203.9a18.911,18.911,0,0,1-3.855.68l.757-2.827A12.375,12.375,0,0,0,337.58,202.165Zm12.1-9.181.194.052q-.357.838-.79,1.635A12.391,12.391,0,0,0,349.677,192.984Zm1.7-7.039-1.7.455a12.4,12.4,0,0,0-1.2-2.886l2.563-1.479a19.048,19.048,0,0,1,.342,3.574C351.382,185.721,351.375,185.833,351.373,185.945Zm-4.414-12.516-.407.705a3.389,3.389,0,0,0-.941-.972.3.3,0,0,0-.043-.024l-.025-.013-.147-.1.047.169a3.256,3.256,0,0,1-4.359,3.917l1.943-7.25A19.193,19.193,0,0,1,346.959,173.429Zm-9.379-6.111v9.9a12.456,12.456,0,0,0-3.1.407l-2.953-11.02c.275-.012.55-.021.828-.021A18.965,18.965,0,0,1,337.58,167.318Zm-18.1,4.3,9.287,9.287c-3.578-1.046-6.243-1.27-7.353-.662l-5.925-3.421A19.133,19.133,0,0,1,319.479,171.618Zm-5.84,17.4-.049-.279c-.015-.084-.031-.168-.044-.254-.022-.146-.04-.293-.057-.44l-.015-.125q-.009-.072-.019-.145c-.01-.078-.021-.156-.029-.235-.018-.181-.03-.365-.043-.548l-.006-.093c0-.044-.007-.088-.01-.132-.005-.062-.011-.124-.014-.187-.016-.326-.025-.653-.025-.972a19.108,19.108,0,0,1,.147-2.325l12.1,3.242a12.444,12.444,0,0,0-.406,3.1h-2.584a2.7,2.7,0,0,1,.059-1.586l.231-.356-.333.277a2.786,2.786,0,0,0-.875,1.665h-3.615a3.3,3.3,0,0,1-.573-.93l-.052-.422-.077.426a2.839,2.839,0,0,0,.031.925h-3.625c-.016-.07-.033-.139-.047-.209C313.685,189.284,313.662,189.151,313.639,189.018Zm.936,3.364c-.036-.092-.073-.183-.107-.276-.041-.114-.079-.229-.117-.345l-.087-.26c-.031-.091-.062-.182-.09-.274-.037-.119-.07-.239-.1-.36l-.074-.262c-.026-.091-.052-.183-.076-.275-.032-.125-.06-.251-.088-.378l-.044-.195h3.624a2.384,2.384,0,0,0,.749,1.251,1.546,1.546,0,0,1,.491,1.454,1.994,1.994,0,0,0,.2,1.178,3.28,3.28,0,0,1-1.128-.321,2.749,2.749,0,0,0-2.106-.5,1.634,1.634,0,0,1-.869,0c-.022-.057-.045-.113-.066-.17Zm.368.9a4.458,4.458,0,0,0,1.594.366,3.74,3.74,0,0,1,1.89,1.061,2.624,2.624,0,0,0-.109.625l0,0a1.77,1.77,0,0,1-.946-.759,1.673,1.673,0,0,0-1.413-.85,2.216,2.216,0,0,1-.908-.213l-.1-.224Zm2.722,1.837a1.454,1.454,0,0,0,.507.313,3.283,3.283,0,0,1-1.07.479c-.207.036-.428.08-.651.142-.118-.18-.229-.353-.332-.52Zm-1.983-.338c-.038-.07-.076-.14-.114-.211-.1-.2-.207-.4-.3-.6l-.031-.063-.044-.089-.061-.134a2.347,2.347,0,0,0,.826.169,1.547,1.547,0,0,1,1.311.8c.092.12.187.242.292.355l-1.509.4-.008-.013C315.921,195.2,315.8,195,315.682,194.776Zm.934,1.521-.081-.118-.009-.013c.213-.057.419-.1.6-.129a3.521,3.521,0,0,0,1.191-.545,2.652,2.652,0,0,0,.162.886,4.752,4.752,0,0,0-1.674.184c-.047-.067-.1-.132-.142-.2Zm.411.58c-.049-.067-.1-.136-.145-.2a4.863,4.863,0,0,1,1.65-.16,2.682,2.682,0,0,0,.317.55v0a1.772,1.772,0,0,1-1.213.026,4.054,4.054,0,0,0-.517-.089l-.057-.078Zm.7.9-.071-.083c-.138-.168-.28-.349-.429-.544.127.019.253.043.377.071a3.145,3.145,0,0,0,.686.1,1.437,1.437,0,0,0,.507-.089,3.293,3.293,0,0,1-.512,1.055l-.056.068-.035-.038C318.036,198.135,317.878,197.953,317.732,197.777Zm.591.676.068-.081a3.526,3.526,0,0,0,.562-1.184,2.634,2.634,0,0,0,.692.577,5.191,5.191,0,0,0-1.023,1c-.088-.092-.177-.182-.264-.276Zm.493.519-.1-.107a5.174,5.174,0,0,1,1.061-1.034,2.618,2.618,0,0,0,.336.144,2.648,2.648,0,0,0,.261.073v0a1.77,1.77,0,0,1-.912.8,3.778,3.778,0,0,0-.482.287l-.048-.047Zm.793.759-.091-.081c-.153-.14-.3-.28-.442-.419a3.788,3.788,0,0,1,.446-.264,1.994,1.994,0,0,0,.921-.759,3.286,3.286,0,0,1,.286,1.138v.036l-.916.529c-.049-.043-.1-.084-.147-.127Zm.72.619c-.056-.045-.111-.092-.178-.148s-.154-.133-.231-.2l.811-.468a3.52,3.52,0,0,0,.221,1.307C320.762,200.7,320.559,200.537,320.329,200.349Zm1.31.98c-.167-.114-.314-.217-.451-.316a3.282,3.282,0,0,1-.326-1.667,3.516,3.516,0,0,0-.329-1.264,2.641,2.641,0,0,0,.434.036,2.608,2.608,0,0,0,.466-.046,3.692,3.692,0,0,0,.053,2.2,4.312,4.312,0,0,1,.425,1.239l-.09-.059Zm2.355,1.371c-.2-.1-.4-.2-.6-.305l-.063-.033-.085-.045c-.231-.126-.469-.263-.707-.407l-.1-.064-.066-.042,0,0a2.358,2.358,0,0,0-.293-1.194,1.546,1.546,0,0,1,.036-1.535c.058-.141.117-.284.162-.432l.652-.376a2.076,2.076,0,0,1,.354.322,2.749,2.749,0,0,0,1.809,1.188,2.534,2.534,0,0,1,1.464.855l.02.039-2.206,2.206c-.053-.025-.1-.046-.157-.071Zm4.414,1.521c-.249-.053-.491-.108-.719-.166l-.109-.026c-.252-.065-.515-.14-.8-.228l-.15-.047-.065-.021c-.208-.067-.414-.136-.612-.207l-.056-.02-.155-.056c-.28-.1-.532-.2-.769-.3l-.1-.045c-.121-.052-.248-.112-.373-.169l2.14-2.14.11.216-.048-.278,2.176-2.176a12.578,12.578,0,0,0,2.482,1.9l-2.252,3.9c-.153-.026-.306-.052-.456-.081Zm2.848.378h-.024c-.223-.013-.45-.03-.676-.051l-.079-.007-.131-.012c-.288-.03-.572-.066-.845-.107l-.1-.016-.074-.012-.087-.016,2.226-3.856a12.563,12.563,0,0,0,2.885,1.2l-.769,2.872c-.407.026-.816.044-1.23.044-.265,0-.543-.007-.876-.022Z" transform="translate(-9.325 -9.325)" fill="#fff"/>
    <path id="パス_51" data-name="パス 51" d="M350.658,184.276a19.635,19.635,0,1,0-39.27,0c0,.319.008.651.025.986,0,.066.008.131.014.2q.006.065.01.131l0,.041c.013.2.026.4.046.6.008.083.019.166.029.248l.026.214c.02.166.04.333.064.5.014.093.03.185.046.278l.033.19c.027.16.054.319.086.477.02.1.042.2.065.3l.033.149c.036.161.071.322.111.481.028.111.058.22.088.33l.022.082c.046.168.092.335.142.5.036.12.075.238.114.357l.017.052c.053.162.107.324.164.485.048.134.1.266.151.4.015.04.03.079.044.119.021.056.041.113.064.17l.087.2q.062.149.126.3l.094.221c.039.088.081.175.122.261l.083.175c.018.039.036.079.055.117.126.26.256.514.387.755l.05.089.035.061c.112.2.227.4.343.6q.066.11.133.219c.118.192.242.385.369.575l.039.059.058.088c.154.227.318.458.489.687l.078.1.047.062q.2.261.406.516c.053.065.107.131.161.2.161.194.324.381.481.556l.076.086c.179.2.369.4.581.61l.108.107.057.055q.228.225.464.442l.041.038.14.128c.233.21.441.39.639.554s.413.332.665.523l.151.112.046.034q.259.191.524.372l.066.046.126.086c.253.169.486.319.712.457l.1.056c.2.123.421.248.645.371l.224.121c.19.1.388.2.587.3l.074.037.115.057c.262.126.524.243.777.351l.092.038.069.028c.214.089.432.175.647.255l.245.09c.218.078.44.153.659.223l.072.023.1.032c.267.083.547.162.831.236l.127.031.082.02c.219.054.441.105.66.152l.257.053c.257.051.511.1.755.135l.052.009.066.011c.273.042.56.078.877.112l.164.016.08.007c.225.021.453.038.677.051l.054,0,.209.012c.338.015.634.023.907.023A19.657,19.657,0,0,0,350.658,184.276Zm-20.743,19.469-.054,0c-.223-.013-.449-.03-.673-.051l-.081-.007-.162-.015c-.315-.033-.6-.069-.872-.111l-.117-.02c-.243-.038-.5-.083-.75-.134l-.256-.053c-.217-.046-.438-.1-.655-.151l-.083-.02-.124-.031c-.283-.074-.56-.153-.826-.235l-.1-.031-.073-.024c-.218-.069-.438-.144-.655-.222l-.243-.089c-.214-.08-.43-.165-.643-.253l-.07-.028-.09-.037c-.251-.107-.511-.224-.771-.349l-.113-.056-.075-.037c-.2-.1-.395-.2-.583-.3l-.223-.12c-.222-.122-.437-.246-.641-.368l-.1-.056c-.225-.137-.456-.285-.707-.453l-.125-.085-.066-.046q-.263-.181-.52-.37l-.047-.035-.149-.111c-.251-.189-.467-.359-.665-.523s-.4-.338-.631-.547c-.047-.042-.093-.084-.139-.127l-.041-.038q-.234-.216-.461-.439l-.057-.056c-.036-.035-.072-.07-.107-.105-.21-.212-.4-.41-.577-.605l-.075-.085c-.157-.174-.318-.36-.478-.552l-.16-.195q-.206-.253-.4-.513l-.048-.063-.077-.1c-.169-.228-.333-.458-.485-.683l-.056-.085-.039-.06c-.126-.189-.249-.381-.366-.572-.045-.072-.089-.145-.133-.218-.115-.193-.23-.392-.341-.593l-.035-.062c-.016-.029-.033-.058-.049-.087-.13-.24-.259-.492-.384-.75-.018-.038-.036-.077-.054-.115l-.083-.176c-.041-.086-.082-.172-.12-.257l-.093-.22c-.042-.1-.084-.2-.125-.3l-.087-.2c-.022-.054-.042-.109-.062-.165s-.03-.081-.047-.127c-.05-.131-.1-.262-.147-.4-.057-.159-.11-.32-.163-.481l-.017-.052c-.039-.118-.077-.235-.113-.354-.05-.165-.1-.331-.141-.5l-.023-.082c-.03-.109-.06-.217-.087-.327-.04-.158-.075-.318-.111-.477l-.033-.149c-.022-.1-.045-.2-.065-.3-.031-.157-.058-.315-.085-.473l-.033-.192c-.016-.091-.032-.182-.046-.274-.024-.164-.044-.329-.063-.494l-.026-.216c-.011-.081-.021-.162-.029-.244-.02-.2-.033-.4-.046-.6l0-.041c0-.044-.007-.088-.01-.132-.005-.064-.01-.128-.013-.193-.016-.332-.025-.662-.025-.979a19.5,19.5,0,1,1,19.5,19.5c-.27,0-.565-.008-.9-.023Z" transform="translate(-7.992 -7.992)" fill="#fff"/>
  </g>
</svg>
