<svg xmlns="http://www.w3.org/2000/svg" width="500" height="146.705" viewBox="0 0 500 146.705">
  <g id="グループ_1046" data-name="グループ 1046" transform="translate(-390 -300.295)">
    <g id="グループ_1" data-name="グループ 1" transform="translate(-292.792 -359.339)">
      <path id="パス_10" data-name="パス 10" d="M1153.852,726.71c5.752,1.708,11.208,3.319,16.659,4.955,2.314.7,4.625,1.411,6.91,2.195a3.146,3.146,0,0,1,1.665,1.108,3.237,3.237,0,0,1,.474,2.343,2.745,2.745,0,0,1-1.841,1.52,6.45,6.45,0,0,1-3.015-.491c-5.506-2.019-10.972-4.157-16.486-6.153-2.083-.754-4.262-1.24-6.248-1.805-3.537,4.67-7.051,12.47-7.875,17.634l3.76-3.217a32.129,32.129,0,0,1,11.236-6.311,11.025,11.025,0,0,1,5.62-.455c2.41.491,3.487,2,3.2,4.494a7.021,7.021,0,0,1-2.28,4.559,62.04,62.04,0,0,1-6.808,5.581c-3.305,2.206-6.824,4.088-10.277,6.065a4.481,4.481,0,0,1-1.942.6,1.55,1.55,0,0,1-1.218-.7,1.468,1.468,0,0,1,.2-1.38,18.732,18.732,0,0,1,3.079-1.815,46.537,46.537,0,0,0,11.828-7.417,19.174,19.174,0,0,0,3.268-3.966,2.069,2.069,0,0,0-1.8-3.306,12.486,12.486,0,0,0-4.5.849c-5.773,2.418-10.068,6.622-13.428,11.835-1.032,1.6-1.872,3.323-2.871,4.944a3.185,3.185,0,0,1-1.406,1.408c-.457.143-1.553-.295-1.61-.611a6.411,6.411,0,0,1,.089-3.042c1.7-5.092,3.4-10.192,5.343-15.195,1.493-3.842,3.344-7.543,5.171-11.6a288.951,288.951,0,0,0-34.9-9.368c-6.227,9.145-11.757,18.436-15.275,29.236a25.981,25.981,0,0,1,3.653-1.18,1.793,1.793,0,0,1,1.639,2.536,8.977,8.977,0,0,1-5.676,4.165,2.218,2.218,0,0,1-2.643-1.879c-.175-1.352-.154-2.731-.238-4.486-1.228.293-2.324.531-3.409.82-6.5,1.722-12.964,3.635-19.517,5.134-5.9,1.349-11.908,2.117-17.966.828-.845-.179-1.707-.295-2.539-.523-5.858-1.611-8.658-5.229-8.769-11.31-.078-4.294,1.5-8.178,3.121-12.008a84.236,84.236,0,0,1,10.147-16.9c.892-1.212,2.133-2.237,2.52-3.806-9.631-3.8-87.809-9.065-101.986-6.911-4.722,6.275-12.9,22.976-14.16,29.259,1.058-1.012,1.793-1.657,2.458-2.367a15.67,15.67,0,0,1,1.678-1.964,2.515,2.515,0,0,1,1.9-.466c.544.147.933.877,1.548,1.511a26.921,26.921,0,0,1-7.662,7.057,2.36,2.36,0,0,1-2.9.036,2.39,2.39,0,0,1-.6-2.85,79.538,79.538,0,0,1,3.134-9.352c2.426-5.364,5.2-10.57,7.817-15.85.743-1.5,1.446-3.019,2.355-4.924a38.243,38.243,0,0,0-4.512-.479c-5.171.106-10.34.362-15.511.464a4.915,4.915,0,0,0-4.87,3.052c-3.866,7.926-7.785,15.819-10.369,24.447.991-1.093,1.995-2.175,2.97-3.282a39.536,39.536,0,0,1,8.831-7.981,8.039,8.039,0,0,1,4.855-1.517,3.193,3.193,0,0,1,3.223,3.824,11.045,11.045,0,0,1-1.244,3.934,25.123,25.123,0,0,1-12.227,10.82c-2.7,1.108-3,1.005-6.138-.877-2.6,1.845-2.964,5.7-6.217,7.711a6.027,6.027,0,0,1,.091-4.973c1.95-5.565,3.859-11.149,6.021-16.63,1.971-5,4.253-9.871,6.392-14.8.337-.774.653-1.558,1.139-2.723a24.071,24.071,0,0,0-3.7-.375,716.094,716.094,0,0,0-89.257,11.085c-6.777,1.286-13.517,2.773-20.309,3.976a6.425,6.425,0,0,0-5.55,4.574c-3.307,8.944-6.887,17.787-10.4,26.657a18.5,18.5,0,0,1-1.828,3.7,2.168,2.168,0,0,1-2.8.6,2.1,2.1,0,0,1-1.362-2.508,31.96,31.96,0,0,1,1.8-4.856c3.279-7.461,6.609-14.9,9.895-22.355.4-.913.657-1.89.931-2.689-.923-1.172-1.77-.6-2.525-.42-10.56,2.575-21.109,5.193-31.675,7.75a7.688,7.688,0,0,0-4.947,3.388c-5.459,8.234-11.067,16.366-15.027,25.5a6.139,6.139,0,0,1-1.765,2.452,2.747,2.747,0,0,1-2.372.288,2.623,2.623,0,0,1-1.338-2,11.923,11.923,0,0,1,1.18-4.45c2.026-3.824,4.209-7.57,6.455-11.271,1.971-3.246,4.108-6.389,6.1-9.466-.5-1.022-1.121-.917-1.823-.72-19.639,5.467-39.139,11.37-58.06,19.042-3.035,1.23-5.9,2.878-8.909,4.189a4.51,4.51,0,0,1-2.923.319,2.769,2.769,0,0,1-1.025-4.652,15.613,15.613,0,0,1,4.478-2.5c9.1-3.256,18.165-6.674,27.4-9.511,13.854-4.255,27.814-8.175,41.794-12a12.324,12.324,0,0,0,7.028-4.725,377.71,377.71,0,0,1,45.76-50.294c4.227-3.833,8.769-7.321,13.271-10.833a19.225,19.225,0,0,1,4.965-2.757,3,3,0,0,1,4.212,3.459,15.949,15.949,0,0,1-1.262,3.94c-3.642,8.056-7.38,16.067-11.007,24.129-3.55,7.887-7,15.816-10.46,23.64,1.231,1.354,2.392.7,3.538.5,14.615-2.5,29.2-5.173,43.858-7.432a614.266,614.266,0,0,1,63.781-6.386c1.718-.085,3.43-.287,5.406-.456.551-.9,1.189-1.9,1.78-2.927,3.289-5.7,6.517-11.442,9.883-17.1a17.3,17.3,0,0,1,3.329-3.925,2.594,2.594,0,0,1,2.316.09,1.572,1.572,0,0,1,.463,2.275c-.551.877-1.25,1.659-1.872,2.491a141.131,141.131,0,0,0-11.381,18.413c4.146,1.041,8.034.135,11.87.238,3.776.1,7.564-.173,11.642-.29,1.1-1.848,2.257-3.749,3.383-5.671,1.577-2.69,3.082-5.428,4.729-8.074a6.5,6.5,0,0,1,2.157-2.11,2.045,2.045,0,0,1,1.854.373,2.016,2.016,0,0,1,.531,1.779,14.13,14.13,0,0,1-1.691,2.584c-2.337,3.422-4.823,6.753-6.711,10.988,7.1.4,13.952.207,20.782.461,6.9.257,13.793.637,20.685,1.028,6.722.381,13.449.743,20.159,1.3,6.884.574,13.751,1.372,20.622,2.086s13.738,1.445,20.773,2.188c1.234-1.317,2.538-2.7,3.83-4.088,10.426-11.239,21.846-21.26,35.19-28.9a54.723,54.723,0,0,1,14.806-6.1,17.483,17.483,0,0,1,8.709-.181c3.553.974,5.491,4.069,4.39,7.587a16,16,0,0,1-2.857,5.485,45.6,45.6,0,0,1-7.04,6.857c-5.715,4.344-12.277,7.034-19.156,8.933a4.517,4.517,0,0,1-2.481.059c-.509-.168-.949-.976-1.119-1.584a1.512,1.512,0,0,1,.62-1.294,12.582,12.582,0,0,1,2.826-1.144,66.143,66.143,0,0,0,14.4-5.78,28.866,28.866,0,0,0,8.823-7.158,23.346,23.346,0,0,0,3.077-5.358,2.672,2.672,0,0,0-2.039-3.58,15.254,15.254,0,0,0-5.6-.235,49.76,49.76,0,0,0-10.317,3.279,104.759,104.759,0,0,0-13.056,7.435,154.011,154.011,0,0,0-26.709,23.016c-.8.859-1.513,1.809-2.194,2.63.58,1.491,1.765,1.251,2.69,1.406,9.718,1.629,19.449,3.177,29.164,4.823,4.591.779,9.153,1.724,13.652,2.579,1.817-.5,2.27-2.167,3.129-3.4,4.341-6.265,8.6-12.593,12.936-18.86a20.179,20.179,0,0,1,2.746-3.083,2.068,2.068,0,0,1,2.791.4,1.8,1.8,0,0,1,.132,2.377c-.641.816-1.378,1.559-2,2.391q-6.848,9.149-13.645,18.338a16.942,16.942,0,0,0-1.344,2.838c11.665,2.891,23.007,5.7,34.58,8.571.986-1.643,1.883-3.091,2.739-4.564a234.746,234.746,0,0,1,23.307-33.75,20.163,20.163,0,0,1,3.378-3.138c.36-.267,1.346-.041,1.819.287a1.622,1.622,0,0,1,.612,2.265,30.262,30.262,0,0,1-2.718,3.119,199.362,199.362,0,0,0-25.6,35.27A7.423,7.423,0,0,0,1153.852,726.71ZM1063.4,710.5c-5.15,4.634-13.253,16.707-15.976,24.651a36.866,36.866,0,0,0-1.687,9.156c-.238,3.215,1.417,5.633,4.408,6.974a18.725,18.725,0,0,0,7.488,1.819,44.793,44.793,0,0,0,12.789-1.365c6.789-1.924,13.535-4,20.319-5.946,1.929-.552,3.927-.859,6.146-1.333,1.995-4.018,4.2-8.31,6.267-12.668,2.055-4.329,5.161-8.113,6.949-12.943C1094.35,715.84,1079.1,712.119,1063.4,710.5ZM826.727,666.323c-12.07,5.752-49.571,44.45-56.573,58.3,2.894-.106,29.2-5.9,35.059-7.766,7.119-16.161,14.377-32.629,21.6-49.111C826.978,667.376,826.768,666.838,826.727,666.323Zm91.875,67.61a10.758,10.758,0,0,0,2.206.456c5.125-.463,11.4-5.635,12.946-10.632a4.719,4.719,0,0,0,.089-.505c.165-.849-.7-1.827-1.534-1.574a12.457,12.457,0,0,0-3.268,1.377C924.962,725.766,921.864,729.441,918.6,733.933Z"/>
      <path id="パス_11" data-name="パス 11" d="M899.191,709.2c5.384.166,8.6-4.141,12.888-4.81a1.9,1.9,0,0,1,.861,2.739c-1.053,2.043-2.169,4.062-3.419,5.99s-2.674,3.7-4.037,5.568a17.939,17.939,0,0,1,2.578,1.714,1.72,1.72,0,0,1-.776,2.79,13.786,13.786,0,0,1-2.95.252,7.854,7.854,0,0,0-6.093,2.616,76.233,76.233,0,0,1-18.431,13.231A90.408,90.408,0,0,1,836.05,749.76a21.183,21.183,0,0,1-6.766-1.222c-3.36-1.222-3.715-3.819-.92-5.915a23.25,23.25,0,0,1,5.147-2.911c4.885-1.979,9.782-3.969,14.787-5.61,16.286-5.338,32.725-10.149,49.595-13.334a7.633,7.633,0,0,0,5.281-3.2c1.587-2.3,3.37-4.472,5.04-6.719.353-.477.587-1.042,1.391-2.5-2.06.951-3.137,1.544-4.28,1.956a28.668,28.668,0,0,1-5.612,1.744c-2.348.327-3.74-1.357-3.391-3.676a8.276,8.276,0,0,1,.653-2.374,19.224,19.224,0,0,1,7.6-8.234,5.111,5.111,0,0,1,2.338-.638,3.1,3.1,0,0,1,1.8.623,2,2,0,0,1,.8,2.586c-.327.593-1.359,1.339-1.858,1.206-2.334-.624-3.747.661-5.177,2.067C900.85,705.22,900.618,705.6,899.191,709.2Zm-3.4,16.315-.539-.856c-1.422.276-2.852.516-4.266.83a391.205,391.205,0,0,0-50.278,14.779c-2.626.966-5.166,2.183-7.707,3.367a10.948,10.948,0,0,0-1.894,1.476c2.524,1.448,2.547,1.547,4.228,1.577,3.459.062,6.936.226,10.378-.017,16.936-1.2,32.034-7.323,45.623-17.336C892.912,728.173,894.315,726.791,895.8,725.511Z" transform="translate(91.27 25.635)"/>
      <path id="パス_12" data-name="パス 12" d="M782.568,715.3c-.753-.866-1.552-1.675-2.219-2.581-1.339-1.818-1.425-3.25-.111-4.971a14.7,14.7,0,0,1,8.449-5.627c.313-.073.77-.184.952-.031a4.653,4.653,0,0,1,1.525,1.693,1.9,1.9,0,0,1-.736,1.635,21.28,21.28,0,0,1-2.719,1.116c-1.782.836-3.593,1.662-4.728,3.7.763,1,1.617,1.97,2.309,3.046a3.449,3.449,0,0,1,0,4.158,18.119,18.119,0,0,1-2.16,2.674,39.878,39.878,0,0,1-4.2,3.442,130.015,130.015,0,0,1-28.649,15.406,20.778,20.778,0,0,1-4.258,1.116,1.945,1.945,0,0,1-1.5-.946,1.454,1.454,0,0,1,.777-2.053,19,19,0,0,1,2.808-.9c11.111-3.1,20.975-8.628,30.091-15.567C779.994,719.246,781.911,717.866,782.568,715.3Z" transform="translate(38.602 28.313)"/>
      <path id="パス_13" data-name="パス 13" d="M969.318,715.061a9.6,9.6,0,0,1,2.478-.081,2.354,2.354,0,0,1,1.435,1.056,1.983,1.983,0,0,1-.258,1.79,10.768,10.768,0,0,1-7.162,2.746A1.965,1.965,0,0,1,964.1,718.5a34.164,34.164,0,0,1,1.048-3.732c-1.048.522-1.836.849-2.56,1.285-3.521,2.128-6.982,4.361-10.56,6.391a12.763,12.763,0,0,1-4.164,1.35,2.5,2.5,0,0,1-2.854-2.152,4.256,4.256,0,0,1-.172-1.937c.7-2.524,1.463-5.034,2.332-7.506a1.917,1.917,0,0,1,2.5-.94,1.887,1.887,0,0,1,.976,2.473c-.5,1.211-1.178,2.349-1.7,3.554-.437,1.013-.754,2.078-1.271,3.531,1.044.018,1.737.243,2.185,0,2.756-1.47,5.542-2.913,8.158-4.612,4.28-2.78,8.435-5.754,12.65-8.636.952-.649,1.922-1.274,2.914-1.858.715-.42,1.679-.824,2.1.111a2.564,2.564,0,0,1-.348,2.2c-1.318,1.679-2.843,3.191-4.269,4.786C970.638,713.3,970.266,713.839,969.318,715.061Z" transform="translate(165.597 28.91)"/>
      <path id="パス_14" data-name="パス 14" d="M806.874,707.691a29.423,29.423,0,0,1,3.085-1.11c2-.451,3.089.246,3.63,2.276a17.025,17.025,0,0,1,.246,2.386c1.143-.737,2.094-1.264,2.95-1.917,1.711-1.31,3.371-2.684,6.005-2.693l3.27,2.849c1.6-.327,2.7-1.594,3.964-2.581.907-.709,1.751-1.513,2.713-2.135a1.462,1.462,0,0,1,2.159.4,1.573,1.573,0,0,1-.147,2.236,64.161,64.161,0,0,1-7.1,4.432,3.294,3.294,0,0,1-4.06-.912c-.527-.587-1.027-1.2-1.559-1.821-2.389.7-3.831,2.343-5.516,3.614-1.158.876-2.214,2.306-3.845,1.816-2.207-.661-1.082-2.806-1.549-4.258a2.309,2.309,0,0,0-.231-.41c-.942-.461-1.6.135-2.142.712-1.795,1.931-3.534,3.913-5.268,5.9a19.486,19.486,0,0,1-1.871,2.286,2.254,2.254,0,0,1-1.767.181c-.279-.073-.508-.782-.543-1.222a3.613,3.613,0,0,1,.289-1.439q2.65-7.452,5.336-14.891c.167-.463.274-1.086.621-1.315.64-.42,1.558-.971,2.132-.781a2.371,2.371,0,0,1,1.163,1.894,12.679,12.679,0,0,1-.832,3.329C807.732,705.439,807.366,706.333,806.874,707.691Z" transform="translate(72.84 25.156)"/>
      <path id="パス_15" data-name="パス 15" d="M870.279,709.943c1.549-.508,3.083-1.005,4.613-1.518a11.8,11.8,0,0,1,1.861-.657,1.457,1.457,0,0,1,1.793,1.25,1.909,1.909,0,0,1-.731,1.593,14.986,14.986,0,0,1-7.151,1.586,3.5,3.5,0,0,1-2.924-1.618c-.514-.777-.906-1.637-1.5-2.73-2,1.106-3.8,2.273-5.745,3.134a54.61,54.61,0,0,1-7.834,2.955c-2.307.621-3.811-1.332-2.982-3.6a10.745,10.745,0,0,1,1.386-2.606,38.3,38.3,0,0,1,12.589-10.981,10.233,10.233,0,0,1,2.8-.923,1.954,1.954,0,0,1,2.219,1.518,1.718,1.718,0,0,1-1.451,2.165c-5.861,1.11-9.935,4.938-13.819,9.037a7.732,7.732,0,0,0-1.036,2,1.51,1.51,0,0,0,2.247.655c2.379-1.14,4.735-2.331,7.08-3.54,1.753-.9,3.475-1.866,4.986-2.682C869.355,705.569,868.512,708.125,870.279,709.943Z" transform="translate(104 22.9)"/>
      <path id="パス_16" data-name="パス 16" d="M888.214,702.968a13.548,13.548,0,0,0-1.236,2.585,2.633,2.633,0,0,0,2.039,3.384,10.4,10.4,0,0,0,5.832.11,35.449,35.449,0,0,0,10.7-4.986c1.378-.9,2.778-1.764,4.212-2.568.712-.4,2,.074,2.043.746a5.477,5.477,0,0,1-.446,1.809c-.042.133-.218.246-.358.322-6.228,3.4-12.469,6.806-19.793,7.1a9.291,9.291,0,0,1-3.794-.688,4.6,4.6,0,0,1-2.826-5.62c.9-3.816,5.6-8.065,9.46-8.492a6.637,6.637,0,0,1,1.957.158,2.157,2.157,0,0,1,1.6,2.643c-.548,2.334-4.04,5.465-6.447,5.373C890.243,704.813,889.369,703.743,888.214,702.968Zm2.715-2.286c.807.13,1.277.358,1.556.214.39-.2,1.265-.245.767-1.4Z" transform="translate(125.769 23.335)"/>
      <path id="パス_17" data-name="パス 17" d="M788.161,715.455c-.835-.886-1.764-1.8-2.609-2.784a3.58,3.58,0,0,1-.338-4.568,20,20,0,0,1,7.331-6.468c.811-.472,2.482.1,2.527.85a3.2,3.2,0,0,1-.621,2.21,16.439,16.439,0,0,1-2.841,1.959,11.073,11.073,0,0,0-3.833,3.5c.777.994,1.592,1.961,2.321,2.986,1.364,1.917,1.386,3.577-.088,5.426a11.681,11.681,0,0,1-2.851,2.708q-7.579,4.683-15.3,9.142c-1.688.977-2.982.605-3.3-.609-.257-.988.277-1.781,1.857-2.505,2.1-.965,4.313-1.71,6.332-2.812,3.037-1.659,5.988-3.487,8.9-5.361C787.1,718.194,787.02,718.075,788.161,715.455Z" transform="translate(53.449 28.013)"/>
      <path id="パス_18" data-name="パス 18" d="M790.362,710.422a18.018,18.018,0,0,0-1.121,2.038c-1.161,2.866.115,4.488,3.236,4.042a16.086,16.086,0,0,0,6.716-2.967,21.984,21.984,0,0,1,3.349-2.042,1.84,1.84,0,0,1,1.629.636c.286.4.139,1.175.04,1.761-.045.26-.41.516-.686.677a30.331,30.331,0,0,1-9.071,3.789,11.992,11.992,0,0,1-2.447.223c-4.536,0-6.542-2.608-4.833-6.687a19.937,19.937,0,0,1,10.4-10.736,5.169,5.169,0,0,1,1.423-.364,2.145,2.145,0,0,1,2.335,2.479,5.84,5.84,0,0,1-.852,2.27,13.118,13.118,0,0,1-5.689,4.61C793.679,710.6,792.27,710.335,790.362,710.422Z" transform="translate(64.568 26.042)"/>
    </g>
    <text id="A_miraculous_blend_that_goes_beyond_sake_breweries" data-name="A miraculous blend that goes beyond sake breweries" transform="translate(640 442)" fill="#1a1311" font-size="14" font-family="IowanOldStyle-Roman, Iowan Old Style" letter-spacing="0.05em"><tspan x="-180.649" y="0">A miraculous blend that goes beyond sake breweries</tspan></text>
  </g>
</svg>
