<svg xmlns="http://www.w3.org/2000/svg" width="295.646" height="85.705" viewBox="0 0 295.646 85.705">
  <g id="グループ_1081" data-name="グループ 1081" transform="translate(-389.823 -300.295)">
    <g id="グループ_1" data-name="グループ 1" transform="translate(389.823 300.295)">
      <path id="パス_10" data-name="パス 10" d="M961.326,699.3c3.4,1.01,6.627,1.963,9.85,2.93,1.368.411,2.735.834,4.086,1.3a1.86,1.86,0,0,1,.984.655,1.914,1.914,0,0,1,.281,1.385,1.623,1.623,0,0,1-1.089.9,3.814,3.814,0,0,1-1.783-.29c-3.256-1.194-6.487-2.458-9.748-3.638-1.231-.446-2.52-.733-3.694-1.068a27.73,27.73,0,0,0-4.657,10.427l2.224-1.9a19,19,0,0,1,6.644-3.732,6.519,6.519,0,0,1,3.323-.269,2.163,2.163,0,0,1,1.895,2.657,4.151,4.151,0,0,1-1.348,2.7,36.684,36.684,0,0,1-4.026,3.3c-1.954,1.3-4.035,2.417-6.077,3.586a2.65,2.65,0,0,1-1.148.353.916.916,0,0,1-.72-.412.868.868,0,0,1,.119-.816,11.073,11.073,0,0,1,1.82-1.073,27.518,27.518,0,0,0,6.994-4.386,11.335,11.335,0,0,0,1.932-2.345,1.223,1.223,0,0,0-1.065-1.955,7.384,7.384,0,0,0-2.66.5,17.513,17.513,0,0,0-7.94,7c-.61.945-1.107,1.965-1.7,2.923a1.883,1.883,0,0,1-.831.832c-.27.085-.918-.174-.952-.361a3.791,3.791,0,0,1,.053-1.8c1.005-3.011,2.01-6.027,3.159-8.985.883-2.272,1.978-4.46,3.058-6.861a170.853,170.853,0,0,0-20.637-5.539c-3.682,5.407-6.952,10.9-9.032,17.287a15.376,15.376,0,0,1,2.16-.7,1.06,1.06,0,0,1,.969,1.5,5.308,5.308,0,0,1-3.356,2.463,1.311,1.311,0,0,1-1.563-1.111c-.1-.8-.091-1.615-.141-2.653-.726.173-1.374.314-2.016.485-3.846,1.018-7.665,2.149-11.54,3.036a24.419,24.419,0,0,1-10.623.489c-.5-.106-1.009-.174-1.5-.309-3.464-.953-5.119-3.092-5.185-6.688a17.393,17.393,0,0,1,1.845-7.1,49.808,49.808,0,0,1,6-9.992,6.712,6.712,0,0,0,1.49-2.251c-5.695-2.247-51.921-5.36-60.3-4.086-2.792,3.71-7.628,13.585-8.373,17.3.625-.6,1.06-.98,1.454-1.4a9.259,9.259,0,0,1,.992-1.161,1.486,1.486,0,0,1,1.122-.276c.322.087.552.518.916.893a15.921,15.921,0,0,1-4.53,4.173,1.4,1.4,0,0,1-1.716.021,1.413,1.413,0,0,1-.354-1.685,47.026,47.026,0,0,1,1.853-5.53c1.434-3.172,3.075-6.25,4.622-9.372.44-.886.855-1.785,1.392-2.912a22.593,22.593,0,0,0-2.668-.283c-3.057.063-6.114.214-9.172.275a2.906,2.906,0,0,0-2.879,1.8,95.772,95.772,0,0,0-6.131,14.455c.586-.646,1.18-1.286,1.756-1.94a23.375,23.375,0,0,1,5.222-4.719,4.754,4.754,0,0,1,2.871-.9,1.888,1.888,0,0,1,1.906,2.261,6.528,6.528,0,0,1-.735,2.326,14.855,14.855,0,0,1-7.23,6.4c-1.594.655-1.775.594-3.629-.518-1.54,1.091-1.752,3.367-3.676,4.559a3.564,3.564,0,0,1,.054-2.941c1.153-3.29,2.282-6.592,3.56-9.833,1.165-2.955,2.515-5.837,3.779-8.752.2-.458.386-.921.673-1.61a14.231,14.231,0,0,0-2.185-.221,423.418,423.418,0,0,0-52.777,6.555c-4.007.76-7.993,1.64-12.009,2.351a3.8,3.8,0,0,0-3.281,2.7c-1.955,5.289-4.073,10.517-6.147,15.762a10.94,10.94,0,0,1-1.081,2.189,1.282,1.282,0,0,1-1.654.355,1.239,1.239,0,0,1-.805-1.483,18.888,18.888,0,0,1,1.062-2.871c1.939-4.412,3.908-8.809,5.851-13.218.238-.54.389-1.118.551-1.59-.546-.693-1.047-.357-1.493-.249-6.244,1.522-12.482,3.071-18.729,4.582a4.545,4.545,0,0,0-2.925,2c-3.228,4.869-6.544,9.677-8.885,15.076a3.63,3.63,0,0,1-1.044,1.45,1.624,1.624,0,0,1-1.4.171,1.551,1.551,0,0,1-.791-1.182,7.05,7.05,0,0,1,.7-2.631c1.2-2.261,2.489-4.476,3.817-6.664,1.165-1.919,2.429-3.778,3.606-5.6-.295-.6-.663-.542-1.078-.426a317.655,317.655,0,0,0-34.33,11.259c-1.794.727-3.489,1.7-5.268,2.477a2.666,2.666,0,0,1-1.728.189,1.637,1.637,0,0,1-.606-2.751,9.233,9.233,0,0,1,2.648-1.479c5.383-1.925,10.741-3.947,16.2-5.624,8.192-2.516,16.446-4.834,24.713-7.094a7.287,7.287,0,0,0,4.156-2.794A223.337,223.337,0,0,1,758.1,667.825c2.5-2.266,5.185-4.329,7.847-6.405a11.369,11.369,0,0,1,2.936-1.63,1.774,1.774,0,0,1,2.491,2.046,9.431,9.431,0,0,1-.746,2.33c-2.154,4.763-4.364,9.5-6.509,14.267-2.1,4.663-4.14,9.352-6.185,13.978.728.8,1.414.413,2.092.3,8.642-1.479,17.269-3.059,25.933-4.394a363.206,363.206,0,0,1,37.713-3.776c1.016-.05,2.028-.17,3.2-.27.326-.534.7-1.124,1.052-1.73,1.945-3.372,3.853-6.766,5.844-10.11a10.23,10.23,0,0,1,1.969-2.321,1.534,1.534,0,0,1,1.369.053.93.93,0,0,1,.274,1.345c-.326.518-.739.981-1.107,1.473a83.447,83.447,0,0,0-6.73,10.888c2.451.616,4.75.08,7.019.141,2.233.059,4.473-.1,6.884-.171.652-1.093,1.335-2.217,2-3.353.933-1.591,1.822-3.209,2.8-4.774a3.843,3.843,0,0,1,1.276-1.248,1.209,1.209,0,0,1,1.1.221,1.192,1.192,0,0,1,.314,1.052,8.354,8.354,0,0,1-1,1.528,40.563,40.563,0,0,0-3.968,6.5c4.2.237,8.249.122,12.288.273,4.079.152,8.156.377,12.231.608,3.975.225,7.952.439,11.92.771,4.071.339,8.131.811,12.194,1.233s8.123.855,12.283,1.294c.73-.779,1.5-1.594,2.265-2.417a88.768,88.768,0,0,1,20.808-17.09,32.357,32.357,0,0,1,8.755-3.605,10.337,10.337,0,0,1,5.15-.107,3.444,3.444,0,0,1,2.6,4.486,9.462,9.462,0,0,1-1.689,3.243,26.966,26.966,0,0,1-4.162,4.054,32.811,32.811,0,0,1-11.327,5.282,2.671,2.671,0,0,1-1.467.035c-.3-.1-.561-.577-.662-.937a.9.9,0,0,1,.367-.765,7.437,7.437,0,0,1,1.671-.676,39.112,39.112,0,0,0,8.512-3.417,17.071,17.071,0,0,0,5.217-4.233,13.809,13.809,0,0,0,1.819-3.168,1.58,1.58,0,0,0-1.206-2.117,9.02,9.02,0,0,0-3.314-.139,29.424,29.424,0,0,0-6.1,1.939,61.937,61.937,0,0,0-7.72,4.4,91.065,91.065,0,0,0-15.793,13.609c-.476.508-.894,1.069-1.3,1.555.343.882,1.044.74,1.59.832,5.746.963,11.5,1.879,17.245,2.852,2.715.46,5.412,1.019,8.072,1.525,1.074-.3,1.342-1.281,1.85-2.013,2.567-3.7,5.083-7.446,7.649-11.151a11.934,11.934,0,0,1,1.624-1.823,1.223,1.223,0,0,1,1.65.234,1.061,1.061,0,0,1,.078,1.406c-.379.483-.815.922-1.182,1.413q-4.049,5.41-8.068,10.843a10.016,10.016,0,0,0-.795,1.678l20.447,5.068c.583-.971,1.114-1.828,1.619-2.7a138.79,138.79,0,0,1,13.781-19.956,11.924,11.924,0,0,1,2-1.856c.213-.158.8-.024,1.075.17a.96.96,0,0,1,.362,1.339,17.9,17.9,0,0,1-1.607,1.844,117.88,117.88,0,0,0-15.135,20.855A4.391,4.391,0,0,0,961.326,699.3Zm-53.484-9.584c-3.045,2.74-7.837,9.879-9.446,14.576a21.8,21.8,0,0,0-1,5.414A4.009,4.009,0,0,0,900,713.825a11.072,11.072,0,0,0,4.428,1.075,26.486,26.486,0,0,0,7.562-.807c4.014-1.138,8-2.367,12.014-3.516,1.141-.327,2.322-.508,3.634-.788,1.18-2.376,2.482-4.914,3.706-7.49,1.215-2.56,3.052-4.8,4.109-7.653C926.143,692.868,917.127,690.668,907.841,689.711ZM767.9,663.589c-7.137,3.4-29.311,26.283-33.451,34.473,1.711-.063,17.267-3.488,20.73-4.592,4.209-9.556,8.5-19.293,12.773-29.039C768.048,664.212,767.924,663.894,767.9,663.589Zm54.325,39.977a6.366,6.366,0,0,0,1.3.27c3.031-.274,6.74-3.332,7.655-6.287a2.788,2.788,0,0,0,.053-.3c.1-.5-.412-1.08-.907-.931a7.365,7.365,0,0,0-1.932.814A24.743,24.743,0,0,0,822.225,703.566Z" transform="translate(-682.792 -659.634)"/>
      <path id="パス_11" data-name="パス 11" d="M869.478,704.263c3.184.1,5.085-2.448,7.621-2.844a1.125,1.125,0,0,1,.509,1.62c-.623,1.208-1.283,2.4-2.022,3.542s-1.581,2.19-2.387,3.293a10.608,10.608,0,0,1,1.524,1.014,1.017,1.017,0,0,1-.459,1.65,8.146,8.146,0,0,1-1.744.149,4.644,4.644,0,0,0-3.6,1.547,45.075,45.075,0,0,1-10.9,7.823,53.457,53.457,0,0,1-25.877,6.192,12.523,12.523,0,0,1-4-.722c-1.987-.722-2.2-2.258-.544-3.5a13.746,13.746,0,0,1,3.044-1.721c2.889-1.17,5.784-2.347,8.743-3.317a233.343,233.343,0,0,1,29.325-7.884,4.514,4.514,0,0,0,3.122-1.891c.939-1.362,1.992-2.644,2.98-3.973.209-.282.347-.616.822-1.478-1.218.562-1.855.913-2.531,1.156a16.954,16.954,0,0,1-3.318,1.031,1.724,1.724,0,0,1-2.005-2.174,4.9,4.9,0,0,1,.386-1.4,11.367,11.367,0,0,1,4.494-4.868,3.023,3.023,0,0,1,1.383-.377,1.835,1.835,0,0,1,1.067.368,1.185,1.185,0,0,1,.473,1.529c-.193.351-.8.792-1.1.713-1.38-.369-2.216.391-3.061,1.222C870.459,701.912,870.322,702.137,869.478,704.263Zm-2.008,9.647-.319-.506c-.841.163-1.687.3-2.523.491a231.309,231.309,0,0,0-29.729,8.739c-1.553.571-3.055,1.291-4.557,1.991a6.47,6.47,0,0,0-1.12.873c1.493.856,1.506.915,2.5.932,2.046.037,4.1.134,6.137-.01a50.824,50.824,0,0,0,26.976-10.251C865.765,715.484,866.595,714.667,867.47,713.911Z" transform="translate(-687.556 -659.8)"/>
      <path id="パス_12" data-name="パス 12" d="M766.945,709.865c-.445-.512-.917-.991-1.312-1.526a2.132,2.132,0,0,1-.066-2.939,8.691,8.691,0,0,1,5-3.327c.185-.043.455-.109.563-.018a2.752,2.752,0,0,1,.9,1,1.125,1.125,0,0,1-.435.967,12.6,12.6,0,0,1-1.608.66,5.419,5.419,0,0,0-2.8,2.189c.451.589.956,1.165,1.365,1.8a2.04,2.04,0,0,1,0,2.458,10.713,10.713,0,0,1-1.277,1.581,23.588,23.588,0,0,1-2.482,2.035,76.873,76.873,0,0,1-16.94,9.11,12.282,12.282,0,0,1-2.518.66,1.15,1.15,0,0,1-.888-.559.86.86,0,0,1,.46-1.214,11.235,11.235,0,0,1,1.66-.53,52.824,52.824,0,0,0,17.792-9.2A5.855,5.855,0,0,0,766.945,709.865Z" transform="translate(-685.124 -660.212)"/>
      <path id="パス_13" data-name="パス 13" d="M959.287,711.053a5.678,5.678,0,0,1,1.465-.048,1.392,1.392,0,0,1,.849.624,1.173,1.173,0,0,1-.153,1.058,6.367,6.367,0,0,1-4.235,1.623,1.162,1.162,0,0,1-1.014-1.228,20.192,20.192,0,0,1,.62-2.207c-.62.309-1.086.5-1.514.76-2.082,1.258-4.129,2.578-6.244,3.779a7.548,7.548,0,0,1-2.462.8,1.478,1.478,0,0,1-1.687-1.273,2.516,2.516,0,0,1-.1-1.145c.414-1.492.865-2.977,1.379-4.438a1.134,1.134,0,0,1,1.481-.556,1.116,1.116,0,0,1,.577,1.462c-.3.716-.7,1.389-1,2.1-.258.6-.446,1.229-.752,2.088.617.011,1.027.144,1.292,0,1.63-.869,3.277-1.722,4.823-2.727,2.531-1.644,4.987-3.4,7.48-5.106.563-.384,1.136-.754,1.723-1.1.423-.248.993-.487,1.244.066a1.517,1.517,0,0,1-.206,1.3c-.779.992-1.681,1.887-2.524,2.83C960.067,710.01,959.847,710.33,959.287,711.053Z" transform="translate(-691.951 -661.185)"/>
      <path id="パス_14" data-name="パス 14" d="M803.777,704.245a17.391,17.391,0,0,1,1.824-.656,1.576,1.576,0,0,1,2.146,1.346,10.067,10.067,0,0,1,.146,1.411c.676-.436,1.238-.747,1.744-1.134a5.623,5.623,0,0,1,3.551-1.592l1.934,1.685a6.089,6.089,0,0,0,2.344-1.526c.537-.419,1.036-.895,1.6-1.263a.864.864,0,0,1,1.276.238.93.93,0,0,1-.087,1.322,37.929,37.929,0,0,1-4.2,2.621,1.948,1.948,0,0,1-2.4-.539c-.311-.347-.607-.707-.922-1.077a9.992,9.992,0,0,0-3.261,2.137c-.685.518-1.309,1.363-2.274,1.074-1.3-.391-.64-1.659-.916-2.518a1.368,1.368,0,0,0-.136-.243c-.557-.273-.949.08-1.266.421-1.061,1.142-2.09,2.314-3.115,3.489a11.528,11.528,0,0,1-1.106,1.352,1.333,1.333,0,0,1-1.045.107c-.165-.043-.3-.462-.321-.722a2.137,2.137,0,0,1,.171-.851q1.567-4.406,3.155-8.8c.1-.274.162-.642.367-.777.378-.248.921-.574,1.261-.462a1.4,1.4,0,0,1,.688,1.12,7.5,7.5,0,0,1-.492,1.969C804.284,702.913,804.068,703.442,803.777,704.245Z" transform="translate(-687.339 -660.954)"/>
      <path id="パス_15" data-name="パス 15" d="M861.766,704.157c.916-.3,1.823-.594,2.728-.9a6.976,6.976,0,0,1,1.1-.388.861.861,0,0,1,1.06.739,1.129,1.129,0,0,1-.432.942,8.861,8.861,0,0,1-4.228.938,2.066,2.066,0,0,1-1.729-.957c-.3-.46-.536-.968-.886-1.614-1.183.654-2.25,1.344-3.4,1.853a32.291,32.291,0,0,1-4.632,1.747c-1.364.367-2.253-.787-1.763-2.132a6.353,6.353,0,0,1,.819-1.541,22.647,22.647,0,0,1,7.444-6.493,6.048,6.048,0,0,1,1.654-.546,1.155,1.155,0,0,1,1.312.9,1.016,1.016,0,0,1-.858,1.28c-3.466.656-5.875,2.92-8.171,5.344a4.572,4.572,0,0,0-.613,1.184.893.893,0,0,0,1.329.387c1.406-.674,2.8-1.378,4.186-2.093,1.036-.534,2.055-1.1,2.948-1.586C861.22,701.57,860.721,703.082,861.766,704.157Z" transform="translate(-689.413 -660.869)"/>
      <path id="パス_16" data-name="パス 16" d="M886.667,700.386a8.014,8.014,0,0,0-.731,1.528,1.557,1.557,0,0,0,1.206,2,6.149,6.149,0,0,0,3.448.065,20.961,20.961,0,0,0,6.326-2.948c.815-.53,1.643-1.043,2.49-1.518.421-.237,1.184.044,1.208.441a3.238,3.238,0,0,1-.264,1.07c-.025.079-.129.146-.211.19-3.683,2.013-7.373,4.024-11.7,4.2a5.494,5.494,0,0,1-2.243-.407,2.723,2.723,0,0,1-1.671-3.323,7.574,7.574,0,0,1,5.594-5.021,3.925,3.925,0,0,1,1.157.093,1.275,1.275,0,0,1,.945,1.563c-.324,1.38-2.389,3.231-3.812,3.177C887.866,701.476,887.35,700.843,886.667,700.386Zm1.605-1.351c.477.077.755.212.92.126.231-.12.748-.145.453-.829Z" transform="translate(-690.837 -660.965)"/>
      <path id="パス_17" data-name="パス 17" d="M780.126,709.736c-.494-.524-1.043-1.064-1.543-1.646a2.117,2.117,0,0,1-.2-2.7,11.828,11.828,0,0,1,4.335-3.825c.48-.279,1.468.057,1.494.5a1.89,1.89,0,0,1-.367,1.307,9.724,9.724,0,0,1-1.68,1.158A6.546,6.546,0,0,0,779.9,706.6c.46.588.941,1.159,1.373,1.765a2.359,2.359,0,0,1-.052,3.208,6.906,6.906,0,0,1-1.686,1.6q-4.482,2.769-9.045,5.406c-1,.578-1.763.358-1.951-.36-.152-.584.164-1.053,1.1-1.481,1.242-.57,2.55-1.011,3.744-1.663,1.8-.981,3.541-2.062,5.261-3.17C779.5,711.355,779.451,711.285,780.126,709.736Z" transform="translate(-686.219 -660.166)"/>
      <path id="パス_18" data-name="パス 18" d="M788.812,706.478a10.651,10.651,0,0,0-.663,1.2c-.687,1.695.068,2.654,1.914,2.39a9.512,9.512,0,0,0,3.971-1.754,13,13,0,0,1,1.98-1.208,1.088,1.088,0,0,1,.963.376c.169.237.082.695.024,1.041-.027.154-.243.3-.406.4a17.936,17.936,0,0,1-5.364,2.241,7.09,7.09,0,0,1-1.447.132c-2.682,0-3.869-1.542-2.858-3.954A11.788,11.788,0,0,1,793.077,701a3.054,3.054,0,0,1,.841-.215,1.268,1.268,0,0,1,1.381,1.466,3.452,3.452,0,0,1-.5,1.342,7.757,7.757,0,0,1-3.364,2.726A9.251,9.251,0,0,1,788.812,706.478Z" transform="translate(-687.029 -661.049)"/>
    </g>
    <text id="A_miraculous_blend_that_goes_beyond_sake_breweries" data-name="A miraculous blend that goes beyond sake breweries" transform="translate(537.823 383)" fill="#1a1311" font-size="9" font-family="IowanOldStyle-Roman, Iowan Old Style" letter-spacing="0.05em"><tspan x="-116.131" y="0">A miraculous blend that goes beyond sake breweries</tspan></text>
  </g>
</svg>
