<svg xmlns="http://www.w3.org/2000/svg" width="230.691" height="170" viewBox="0 0 230.691 170">
  <g id="グループ_56" data-name="グループ 56" transform="translate(-210.964 -934.466)">
    <path id="パス_296" data-name="パス 296" d="M358.318,1085.844V934.466h-3.6v151.378a9.4,9.4,0,1,0,3.6,0Z" transform="translate(-41.688)" fill="#f0f0f0"/>
    <rect id="長方形_36" data-name="長方形 36" width="12.325" height="3.925" transform="translate(328.22 1079.521)" fill="#f0f0f0"/>
    <rect id="長方形_37" data-name="長方形 37" width="7.507" height="3.925" transform="translate(328.22 1061.842)" fill="#f0f0f0"/>
    <rect id="長方形_38" data-name="長方形 38" width="12.325" height="3.925" transform="translate(328.22 1044.162)" fill="#f0f0f0"/>
    <rect id="長方形_39" data-name="長方形 39" width="7.507" height="3.925" transform="translate(328.22 1026.484)" fill="#f0f0f0"/>
    <rect id="長方形_40" data-name="長方形 40" width="12.325" height="3.925" transform="translate(328.22 1008.805)" fill="#f0f0f0"/>
    <rect id="長方形_41" data-name="長方形 41" width="7.507" height="3.925" transform="translate(328.22 991.125)" fill="#f0f0f0"/>
    <rect id="長方形_42" data-name="長方形 42" width="12.325" height="3.925" transform="translate(328.22 973.447)" fill="#f0f0f0"/>
    <rect id="長方形_43" data-name="長方形 43" width="7.507" height="3.925" transform="translate(328.22 955.766)" fill="#f0f0f0"/>
    <rect id="長方形_44" data-name="長方形 44" width="12.325" height="3.925" transform="translate(328.22 938.088)" fill="#f0f0f0"/>
    <path id="パス_297" data-name="パス 297" d="M227.948,986.374a8.942,8.942,0,0,0-5.328-1.581,5.661,5.661,0,0,0-5.412,3.371h-.25c0-5.911,1.873-9.949,5-12.113,1.707-1.207,3.58-1.665,7.076-1.665.5,0,.624-.083.624-.333s-.083-.458-.54-.916c-.5-.541-.708-.749-1.083-.749a29.828,29.828,0,0,0-7.909,3.372c-6.161,3.83-9.158,9.074-9.158,16.776,0,7.534,4.2,12.031,10.491,12.031a9.9,9.9,0,0,0,10.2-10.157C231.653,990.661,230.279,988,227.948,986.374Zm-6.577,17.317c-2.872,0-4.413-2.706-4.413-10.823a8.172,8.172,0,0,1,.5-3.372c.749-2.04,2.29-3.5,4-3.5,2.5,0,4.121,2.164,4.121,8.533C225.575,1000.985,224.119,1003.691,221.371,1003.691Z" transform="translate(0 -12.835)" fill="#f0f0f0"/>
    <path id="パス_298" data-name="パス 298" d="M255.8,972.747c-5.87,0-10.573,5.786-10.573,16.11s4.579,15.819,10.448,15.819c5.911,0,10.615-5.87,10.615-16.194S261.667,972.747,255.8,972.747Zm-.083,31.054c-3.081,0-4.287-2.789-4.287-15.11s1.29-15.07,4.329-15.07,4.329,2.747,4.329,15.07S258.794,1003.8,255.714,1003.8Z" transform="translate(-10.49 -12.946)" fill="#f0f0f0"/>
    <path id="パス_299" data-name="パス 299" d="M284.543,971.067a5.079,5.079,0,1,0,5.12,5.079A5.055,5.055,0,0,0,284.543,971.067Zm0,8.867a3.788,3.788,0,1,1,3.788-3.788A3.7,3.7,0,0,1,284.543,979.934Z" transform="translate(-20.961 -12.431)" fill="#f0f0f0"/>
    <path id="パス_300" data-name="パス 300" d="M323.512,995.913a.418.418,0,0,0-.416.249c-2.123,4.871-4.871,6.369-8.243,6.369-5.369,0-9.616-5.2-9.616-14.486,0-10.2,3.663-15.319,8.867-15.319a6.591,6.591,0,0,1,4.7,2.373,18.9,18.9,0,0,1,3.788,6.119c.083.209.167.334.333.334.375,0,.583-.125.583-.458-.25-2.165-.749-6.161-1-8.659a15.063,15.063,0,0,1-2.248.208,11.977,11.977,0,0,1-2.581-.458,15.027,15.027,0,0,0-3.579-.457c-8.534,0-15.9,6.7-15.9,16.484,0,9.741,6.744,16.152,15.319,16.152,5.037,0,8.451-2.456,10.532-7.744.083-.207.083-.207.083-.291C324.136,996.121,323.845,995.913,323.512,995.913Z" transform="translate(-26.711 -12.634)" fill="#f0f0f0"/>
    <path id="パス_301" data-name="パス 301" d="M439.024,1083.092a.381.381,0,0,0-.416.292c-1.332,3.746-1.915,4.288-5.079,4.288H421.5c1.124-1.873,2.331-3.206,7.742-6.952,7.66-5.286,9.034-7.7,9.034-11.905s-3.622-7.327-9.367-7.327c-5.162,0-9.657,3.58-9.657,7.119a3.06,3.06,0,0,0,3.247,3.164,2.9,2.9,0,0,0,1.581-5.412c-.582-.375-.666-.5-.666-.915,0-1.5,1.957-2.831,3.872-2.831,2.788,0,4.828,2,4.828,6.286,0,3.5-.957,5.536-5.7,10.865a42.074,42.074,0,0,0-7.617,10.99,1.943,1.943,0,0,0-.25,1.166c0,.707.167.749.5.749,2.914-.083,5.828-.083,9.116-.083,3.164,0,5.87,0,8.909.083.749-2.248,2.04-6.994,2.456-9.158C439.523,1083.217,439.357,1083.092,439.024,1083.092Z" transform="translate(-63.557 -40.116)" fill="#f0f0f0"/>
    <path id="パス_302" data-name="パス 302" d="M463.406,1074.352a8.419,8.419,0,0,0-6.7,3c.125-.917.208-1.749.291-2.5l.708-7.284h7.867c1.832,0,3,.042,5.12.125a.712.712,0,0,0,.541-.291l1.665-4.62c0-.209-.083-.334-.375-.334-2.914.125-6.119.167-8.326.167-2.122,0-4.7,0-6.493-.042a.787.787,0,0,0-.583.25.758.758,0,0,0-.291.542l-1.249,13.9c-.083.833-.25.707-.25,1.165,0,.251.5.583,1.082.583.25,0,.333-.125.5-.375a6.132,6.132,0,0,1,4.912-2.956c3.038,0,5.536,2.623,5.536,7.785,0,5.953-2.247,9.366-5.7,9.366-1.832,0-3.164-.874-3.164-2.331a.789.789,0,0,1,.458-.791,2.689,2.689,0,0,0,1.166-2.081,3,3,0,0,0-3.247-3.08,3.228,3.228,0,0,0-3.289,3.329c0,3.122,3.33,5.829,9.158,5.829,6.285,0,10.823-4.163,10.823-10.324C473.563,1077.974,469.317,1074.352,463.406,1074.352Z" transform="translate(-74.285 -40.41)" fill="#f0f0f0"/>
    <path id="パス_303" data-name="パス 303" d="M492.422,1059.808a5.079,5.079,0,1,0,5.12,5.078A5.054,5.054,0,0,0,492.422,1059.808Zm0,8.866a3.788,3.788,0,1,1,3.788-3.788A3.7,3.7,0,0,1,492.422,1068.674Z" transform="translate(-84.61 -39.602)" fill="#f0f0f0"/>
    <path id="パス_304" data-name="パス 304" d="M531.39,1084.653a.419.419,0,0,0-.416.25c-2.123,4.871-4.871,6.368-8.242,6.368-5.37,0-9.616-5.2-9.616-14.486,0-10.2,3.663-15.319,8.867-15.319a6.592,6.592,0,0,1,4.7,2.373,18.9,18.9,0,0,1,3.788,6.119c.083.209.167.334.333.334.375,0,.583-.125.583-.458-.25-2.165-.749-6.161-1-8.659a15.055,15.055,0,0,1-2.249.208,11.958,11.958,0,0,1-2.58-.458,15.033,15.033,0,0,0-3.58-.457c-8.534,0-15.9,6.7-15.9,16.484,0,9.741,6.743,16.151,15.319,16.151,5.036,0,8.45-2.456,10.531-7.743.083-.208.083-.208.083-.291C532.015,1084.861,531.724,1084.653,531.39,1084.653Z" transform="translate(-90.36 -39.804)" fill="#f0f0f0"/>
  </g>
</svg>
