<?xml version="1.0" encoding="utf-8"?>
<!-- Generator: Adobe Illustrator 26.3.1, SVG Export Plug-In . SVG Version: 6.00 Build 0)  -->
<svg version="1.1" id="レイヤー_1" xmlns="http://www.w3.org/2000/svg" xmlns:xlink="http://www.w3.org/1999/xlink" x="0px"
	 y="0px" viewBox="0 0 354.9 243.1" style="enable-background:new 0 0 354.9 243.1;" xml:space="preserve">
<style type="text/css">
	.st0{fill:#F0F0F0;}
</style>
<g id="グループ_1083" transform="translate(-737.192 -7677.807)">
	<g id="グループ_57" transform="matrix(0.951, -0.309, 0.309, 0.951, -693.614, 7328.004)">
		<path id="パス_305" class="st0" d="M1522.1,1079.2c-0.9,0.1-1.8,0-2.7-0.3c-0.5-0.1-1-0.2-1.5-0.2c-1,0-1.9,0-2.9-0.1
			c-2.2-0.1-4.3-0.2-6.5-0.4c-1.6-0.1-3.2-0.2-4.8-0.3c-0.5,0-1.1-0.1-1.6-0.2c-2.8-0.3-5.6-0.5-8.4-0.5c-1.7,0-3.4-0.2-5-0.3
			c-1.1-0.1-2.1-0.1-3.2-0.2c-1.1-0.1-2.2-0.2-3.3-0.3c-1.3-0.1-2.5-0.2-3.8-0.3c-1.2-0.1-2.4-0.2-3.6-0.2c-0.3,0-0.7-0.1-1-0.1
			c-6.2,0-12.3,0-18.5,0c-0.6,0-1.3-0.1-1.9-0.4c-0.4-0.1-0.7-0.5-0.7-0.9c-0.2-0.7-0.3-1.5-0.3-2.3c0-0.3,0-0.6,0-1
			c0-0.5-0.3-1-0.7-1.3c-1.4-1-3-1.5-4.7-1.4c-1.8,0-3.6-0.1-5.4,0c-1.3,0.1-2.5,0.2-3.8,0.5c-0.9,0.1-1.7,0.3-2.6,0.5
			c-0.8,0.2-1.5,0.6-1.9,1.3c-0.7,0.8-1.4,1.7-1.9,2.6c-0.1,0.2-0.3,0.3-0.5,0.5c0,0-0.1,0-0.1,0.1c-1.4,0.9-3,1.2-4.5,1
			c-1.7-0.1-3.5-0.1-5.2-0.2c-1.7-0.1-3.4,0.1-5.1-0.1c-2.8-0.2-5.6-0.1-8.5-0.5c-1.2-0.1-2.4-0.2-3.6-0.3c-1.8-0.1-3.6-0.1-5.3-0.2
			c-0.7,0-1.5-0.1-2.2-0.2c-2.2-0.4-4.5-0.6-6.7-0.6c-1.6,0-3.1,0.1-4.7,0.1c-1.6,0-1.7-0.2-1.8-1.9c0-0.1,0-0.3,0-0.4
			c-0.5-1-0.3-2.1-0.4-3.2c-0.1-1.2,0-2.4,0-3.6c0-0.4-0.1-0.8-0.2-1.2c-0.2-0.7-0.2-1.4,0.1-2.1c0.4-1,1-1.9,1.7-2.7
			c1-1.2,1.6-2.7,1.7-4.3c0.1-1.7,0-3.3,0-5c0-1.4-0.1-2.9-0.2-4.3c0-1.7-0.4-3.4-1.3-4.8c-0.2-0.4-0.5-0.8-0.6-1.2
			c-0.3-0.6-0.7-1.2-1.3-1.5c-0.9-0.7-1.7-1.6-2.3-2.7c-0.6-1.3-0.9-2.7-1-4.1c-0.3-2.1-0.4-4.2-0.6-6.3c-0.3-2.3-0.7-4.5-1-6.8
			c-0.3-1.6-0.6-3.2-0.8-4.8c-0.3-2.3,0.1-4.6,1.1-6.7c0.8-1.8,2.1-3.4,3.8-4.6c0.5-0.3,1-0.6,1.5-0.9c0.4-0.1,0.8-0.3,1.1-0.5
			c1.5-1.2,3.4-1.7,5.2-2.5c1.1-0.5,2.2-1,3.3-1.5c3.4-1.5,6.9-2.7,10.5-3.8c0.7-0.2,1.3-0.5,1.9-0.9c1.1-0.7,2.3-1.2,3.5-1.5
			c0.8-0.1,1.6-0.4,2.4-0.6c0.7-0.3,1.5,0.1,1.8,0.9c0,0,0,0.1,0,0.1c0.1,0.5,0.6,0.8,1.1,0.7c1.3-0.1,2.6-0.5,3.7-1.2
			c0.4-0.3,0.7-0.7,0.9-1.2c0.1-0.2,0.1-0.4,0-0.6c-0.3-0.7,0-1.5,0.7-1.9c0.1,0,0.1-0.1,0.2-0.1c3.8-1.8,7.6-3.8,11.5-5.3
			c1.2-0.5,2.4-1.1,3.6-1.7c0.9-0.4,1.9-0.9,2.8-1.3c1.4-0.6,2.9-1.2,4.4-1.7c1-0.4,2.1-0.6,3.1-1c0.9-0.3,1.9-0.6,2.8-1
			c3.1-1.3,6.1-2.8,9.3-3.8c1.7-0.6,3.4-1.3,5.1-2c2.1-0.8,4.3-1.4,6.5-2.3c1.7-0.7,3.5-1.2,5.2-1.7c0.6-0.2,1.3-0.3,2-0.4
			c0.2-0.1,0.5-0.1,0.7,0c0.5,0.2,1,0.2,1.4,0.1c1.1-0.2,2.3-0.2,3.4,0.1c0.9,0.2,1.8,0.4,2.7,0.5c1.4,0.3,2.7,0.8,3.9,1.4
			c1.4,0.6,2.8,1.2,4.1,1.8c1.1,0.5,2.3,1,3.4,1.5c1.8,0.9,3.7,1.8,5.6,2.6s3.7,1.8,5.6,2.6c0.4,0.2,0.7,0.4,1.1,0.5
			c1.8,0.8,3.6,1.7,5.2,2.8c0.8,0.5,1.6,0.9,2.5,1.2c1.2,0.5,2.4,1.1,3.6,1.8c1,0.6,2.1,1.2,3.1,1.8c0.8,0.5,1.6,1,2.4,1.6
			c0.8,0.6,1.7,1.2,2.5,1.7c2.8,1.8,5.3,4.1,7.3,6.8c0.7,1.2,0.2,2.4,0.6,3.7c0.3,1,0.3,2,0,3c0,0.4-0.2,0.7-0.5,0.9
			c-0.1,0.1-0.2,0.4-0.2,0.6c-0.1,0.8-0.1,1.6-0.2,2.4c-0.2,1.7-0.3,3.3-0.5,5c-0.1,1.3-0.3,2.6-0.4,3.9c-0.3,2.6-0.6,5.2-1,7.7
			c-0.3,2.3-0.8,4.6-0.9,6.9c-0.1,2-0.1,4.1-0.3,6.1c-0.2,2.5-0.4,4.9-0.7,7.4c-0.2,2-0.5,4-0.7,6c-0.3,2.4-0.3,4.5-0.7,7
			c-0.3,2.2,0.1,4.6-0.2,6.8c-0.2,1.2-1.2,2.5-1.4,3.7c-0.1,1-0.2,2-0.3,2.9c-0.2,1.8-0.4,3.5-0.6,5.3c-0.1,1.2-0.1,2.4,0,3.6
			c0.1,1.5,0.4,2.6-1,3.3C1524.3,1079,1523.2,1079.3,1522.1,1079.2z M1456.6,1073.2c0.6,0,1.1,0,1.6,0c1.5,0,3,0.1,4.5,0.1
			c3.6,0,7.3-0.1,10.9,0c1.6,0,3.2,0.1,4.8,0.2c1,0,1.9,0.1,2.9,0.2c2.2,0.2,4.5,0.6,6.7,0.7c2.4,0.1,4.8,0.3,7.3,0.3
			c1.3,0,2.6,0.1,3.9,0.2c1.5,0.1,3.1,0.3,4.6,0.5c1.4,0.1,2.8,0.2,4.1,0.3c1.5,0.1,3.1,0.3,4.6,0.3c2.2,0,4.4-0.1,6.5-0.1
			c0.2,0,0.5,0,0.7,0l4.2,0.2c0.1-0.2,0.1-0.3,0.2-0.5c0.1-0.7,0.1-1.4,0.1-2.1c0.1-0.8,0.1-1.6,0.2-2.4c0.1-1,0.1-2.1,0.2-3.1
			c0.3-2.2,0.4-4.4,0.4-6.7c0-0.4,0-0.8,0.1-1.2c0.2-1.8,0.5-3.7,0.7-5.5c0.1-1.1,0.2-2.2,0.4-3.3c0.3-2,0.6-4.1,0.8-6.1
			c0.1-0.9,0.2-1.9,0.3-2.8c0.6-3.6,0.8-7.2,1.1-10.8c0.2-1.8,0.3-3.5,0.5-5.2c0.5-3.7,1-7.4,1.5-11c0.3-2.7,0.9-5.4,1.1-8.2
			c0.1-1.5,0.2-3,0.4-4.5c0.1-0.7,0.1-1.5,0.2-2.2c0.3-1.5,0.4-3.1,0.5-4.6c0-0.1,0-0.2,0-0.4c0.1-0.3,0.1-0.7-0.1-1
			c-0.2-0.3-0.4-0.7-0.6-1c-1-1.3-2.2-2.6-3.5-3.7c-0.5-0.5-1.1-1-1.7-1.4c-1.8-1.1-3.6-2.3-5.3-3.6c-0.4-0.3-0.8-0.5-1.1-0.7
			c-1-0.7-2.1-1.4-3.1-2c-0.9-0.6-1.9-1.1-2.9-1.6c-1.2-0.5-2.3-1.1-3.3-1.8c-1.3-0.9-2.6-1.6-4.1-2.1c-0.8-0.3-1.5-0.6-2.2-1
			c-1.8-0.9-3.7-1.6-5.7-2.2c-1.5-0.5-3-1.1-4.5-1.7c-1.6-0.6-3.2-1.3-4.8-1.9c-1.1-0.4-2.2-0.8-3.3-1.3c-1.4-0.7-2.9-1.2-4.4-1.6
			c-0.8-0.2-1.6-0.5-2.4-0.7c-0.3-0.1-0.7-0.2-1-0.1c-1,0.1-2,0.3-2.9,0.5c-0.6,0.2-1.2,0.2-1.8,0.2c-0.2,0-0.4,0-0.6,0.1
			c-1.5,0.5-3,1.1-4.5,1.6c-2.1,0.7-4.2,1.4-6.3,2.1c-1.5,0.5-3,1.2-4.5,1.6c-3.3,1.1-6.5,2.5-9.6,4.1c-0.9,0.5-1.9,0.8-2.8,1.2
			c-0.8,0.3-1.5,0.5-2.3,0.9c-1.8,0.7-3.6,1.5-5.3,2.2c-2.2,0.9-4.3,1.9-6.5,2.8c-3.3,1.4-6.7,2.7-10.1,4.1
			c-0.1,0.1-0.3,0.1-0.4,0.2c0.1,0.6,0.1,1.3-0.2,1.9c-0.4,1-1,1.9-1.8,2.6c-0.9,1-2.2,1.6-3.6,1.7c-0.3,0-0.7,0.1-1,0.1
			c-1.2,0.3-2.4-0.2-3.2-1.1c-0.2-0.2-0.4-0.5-0.5-0.7c-1.6,0.1-3.1,0.7-4.4,1.6c-0.8,0.6-1.7,1.1-2.6,1.5c-1.5,0.6-3.1,1.1-4.7,1.7
			c-2.7,1-5.4,2.1-8.1,3.1c-1.9,0.8-3.8,1.6-5.8,2.3c-1.6,0.6-3.2,1.4-4.6,2.4c-0.6,0.4-0.9,1-1,1.7c-0.1,0.9-0.1,1.8,0,2.7
			c0.1,1.3,0.1,2.6,0,3.9c0,1.1,0.1,2.2,0.3,3.3c0.5,3.2,0.9,6.5,1.3,9.8c0.2,2,0.6,4.1,0.9,6.1c0.2,1,0.8,1.8,1.6,2.4
			c0.6,0.5,1.3,0.9,2.1,1.2c1.7,0.9,3.3,1.9,4.7,3.1c1.4,1.1,2.4,2.5,3,4.2c0.7,2.1,0.9,4.4,0.6,6.7c-0.3,2.3-1.3,4.4-3,6
			c-1.2,1.1-2.4,2.1-3.8,3c-0.5,0.3-1,0.7-1.5,1c-0.3,0.2-0.4,0.5-0.4,0.9c0,0.8-0.1,1.5-0.2,2.3c-0.1,0.4-0.2,0.9-0.2,1.3
			c0.1,1.3,0.2,2.6,0.3,3.9c0.1,0.8,0.2,1.6,0.2,2.5c2,0,3.9,0.1,5.8,0.1c1.1,0,2.2,0.1,3.3,0.2c1,0.1,2,0.2,3,0.3
			c2.4,0.2,4.9,0,7.4,0.3c1.9,0.2,3.8,0.3,5.7,0.4c0.4,0,0.9,0,1.3,0.1c2.7,0.3,5.5,0.4,8.2,0.4c0.2,0,0.5,0,0.7,0
			c2.2,0.2,4.4,0.3,6.5,0.2c0.6,0,1.1-0.3,1.4-0.8c0.3-0.6,0.3-1.3,0.2-1.9c-0.1-0.6-0.2-1.1-0.2-1.7c-0.1-1.7,0.2-3.4,0.9-4.9
			c0.6-1.8,1.6-3.4,3-4.8c2.6-2.5,6.2-3.8,9.8-3.3c1.5,0.2,3.1,0.6,4.6,1c0.7,0.2,1.6,0.1,2.2-0.4c0.8-0.6,1.7-1.1,2.5-1.5
			c0.4-0.2,0.9-0.3,1.4-0.3c0.5,0,1,0,1.5,0c2.1,0.2,4.1,0.9,5.8,2c0.1,0.1,0.3,0.2,0.4,0.3c0.8,0.7,1.5,1.7,1.8,2.7
			c0.5,1.1,0.5,2.3-0.1,3.3c-1.1,2.3-3.1,4-5.5,4.9c0.3,1,0.4,2,0.4,3.1C1457.6,1071.2,1457.2,1072.3,1456.6,1073.2z M1455.7,1070.1
			c0-0.3-0.1-0.6-0.1-0.8c-0.1-0.5-0.2-1.1-0.3-1.6c-0.2-0.6,0.2-1.1,0.3-1.6c0.2-1.2,1.1-2.3,2.3-2.6c1.1-0.5,2.1-1.3,2.7-2.4
			c0.5-0.7,0.4-1.6-0.1-2.3c-0.2-0.4-0.5-0.7-0.9-0.9c-1-0.6-2-1.1-3.1-1.6c-0.8-0.2-1.5-0.4-2.3-0.4c-0.6-0.1-1.2,0.1-1.7,0.4
			c-0.6,0.4-1.1,0.8-1.7,1.2c-0.7,0.7-1.6,1.1-2.7,1.2c-0.6,0-1.2-0.1-1.7-0.2c-1.2-0.2-2.4-0.6-3.6-0.7c-1.9-0.2-3.9,0.1-5.6,0.9
			c-1.7,0.7-3.1,2-4,3.7c-0.7,1.5-1.3,3.1-1.8,4.7c-0.1,0.5-0.2,1-0.2,1.5c0.2-0.1,0.3-0.1,0.4-0.1c1.1-0.4,2.2-0.8,3.3-1.1
			c3-0.8,6.1-1.2,9.2-1.1c1,0,2,0.1,2.9,0.1C1450.4,1066.3,1453.5,1067.7,1455.7,1070.1L1455.7,1070.1z M1387.1,1056.3
			c0.1-0.1,0.3-0.2,0.4-0.3c1-0.9,2-1.3,2.7-2.5c0.6-0.9,1.6-2.5,1.7-3.5c0.1-1.7,0-3.5-0.4-5.2c-0.5-1.2-1.2-2.3-2.1-3.2
			c-0.5-0.5-0.6-1.2-1.1-1.7c-0.2-0.2-1.9-1-2.2-1.2C1387.4,1044.2,1388.4,1050.8,1387.1,1056.3L1387.1,1056.3z"/>
		<path id="パス_306" class="st0" d="M1467.6,996.5c0.5-0.8,1-1.6,1.6-2.4c0.8-1,1.7-1.9,2.8-2.6c0.1-0.1,0.2-0.1,0.3-0.2
			c1.8-1.2,3.8-1.9,5.9-2.2c1.3-0.3,2.7-0.4,4-0.3c0.6,0,1.2,0,1.8-0.1c1.5,0,2.9,0.1,4.4,0.4c2.8,0.3,5.5,1,8,2.1
			c0.7,0.3,1.3,0.7,1.8,1.2c0.2,0.3,0.5,0.5,0.8,0.7c0.8,0.6,1.5,1.5,1.8,2.5c1.7,0.2,3.3,0.1,5-0.1c0.8-0.1,1.5-0.2,2.3-0.2
			c1.2-0.1,2.3-0.2,3.5-0.3c1.6-0.1,3.3-0.2,4.9-0.3c1,0,1.9,0,2.9,0c2.1,0,4.2-0.1,6.3-0.3c1.1-0.1,2.3,0,3.4,0.1
			c0.3,0,0.5,0,0.8,0.1c0.9,0.1,1.7,0.6,2,1.5c0.2,0.5,0.1,1.1-0.1,1.6c-0.2,0.6-0.7,1-1.2,1.2c-0.5-0.2-0.8-0.6-0.9-1.1
			c-0.4-1-0.7-1.2-1.8-1.2c-1.5,0-2.9,0.2-4.4,0.4c-2.1,0.2-4.2,0.4-6.3,0.6c-1.1,0.1-2.2,0.3-3.3,0.3c-2,0.2-3.9,0.3-5.9,0.2
			c-0.6,0-1.3,0-1.9,0.1c-0.7,0-1.3,0.1-2,0.1c-0.4,0-0.8,0-1.2,0c-0.6,0.1-1.1,0.2-1.6,0.3c-0.2,1.1-0.3,2.1-0.5,3.2
			c-0.5,2-1.2,3.9-2.1,5.7c-0.4,1-0.9,2.1-1.4,3.1c-1.3,2.9-3.8,5.2-6.9,6.2c-1.6,0.6-3.2,0.9-4.9,1.1c-1.7,0.2-3.5,0-5.2-0.4
			c-1.2-0.3-2.3-0.9-3.3-1.7c-1-0.8-2-1.7-2.9-2.5c-1.8-1.5-3.2-3.5-4.2-5.6c-0.4-0.9-0.8-1.7-1.2-2.6c-0.6-1.3-0.9-2.7-1.1-4.2
			c0-0.1,0-0.3,0-0.4c-0.6-0.2-1.2-1.4-1.7-1.3c-2.1,0.3-4.3,0.6-6.4,0.8c-2.9,0.3-5.8,0.6-8.7,0.9c-1.7,0.2-3.5,0.2-5.2,0.4
			c-2.5,0.2-5.1,0.4-7.6,0.9c-1.7,0.3-3.4,0.5-5.1,0.6c-2.2,0.2-4.3,0.2-6.5,0.3c-1.2,0.1-2.4,0.2-3.6,0.3c-0.7,0.1-1.3,0.1-2,0.1
			c-2.1-0.1-4.1,0-6.2,0.2c-0.8,0.1-1.7,0.1-2.5,0.1c-1.9,0.1-3.7,0.1-5.6,0.2c-2.1,0.1-4.1,0.1-6.2,0.1c-0.7,0-1.3,0.1-2,0.1
			c-1.4,0.1-2.8,0.1-4.2,0.1c-0.8,0-1.6,0.1-2.5,0.1c-1.1,0-2.1-0.1-3.2-0.1c-0.6,0-1.2,0.1-1.8,0.3c-0.8,0.4-1.5,1.1-2.1,1.8
			c0,0.1,0,0.9,0,0.9c-0.1,1.3,0.5,1.6-0.5,2.5c-0.6,0.5-0.9,0.5-1.4-0.2c-0.3-0.4-0.5-0.9-0.5-1.4c0-0.6-0.1-1.1-0.2-1.7
			c-0.1-1.3,0.5-2.6,1.7-3.2c0.8-0.5,1.7-0.9,2.6-1.2c0.9-0.3,1.9-0.4,2.9-0.5c0.9-0.1,1.8,0,2.7,0c0.9,0,1.9-0.1,2.8-0.1
			c0.5,0,0.9,0,1.4,0.1c2.7,0.1,5.5,0,8.2-0.2c2.1-0.2,4.2-0.4,6.4-0.6c1-0.1,2-0.1,3.1-0.1c3.1,0,6.1,0.1,9.2,0
			c1.3,0,2.7-0.2,4-0.2c0.8,0,1.6-0.1,2.4-0.1c3.1-0.1,6.1-0.5,9.1-1.2c2.3-0.4,4.7-0.7,7-0.9c2.4-0.2,4.7-0.3,7.1-0.5
			c2.2-0.2,4.4-0.4,6.6-0.5c0.7-0.1,1.5-0.1,2.2-0.1c1.3,0,2.6-0.1,3.9-0.4C1466.2,996.6,1466.9,996.5,1467.6,996.5z M1483.6,1014.7
			c2.3,0.1,4.7-0.9,6.8-1.7c0.9-0.3,1.7-0.8,2.4-1.4c0.9-0.9,1.6-1.8,2.3-2.9c0.8-1.4,0.9-2.8,1.6-4.2c0.6-1.1,1.1-2.3,1.2-3.6
			c0-0.4,0.1-0.8,0.2-1.2c0.1-0.9,0.3-1.8,0.4-2.7c0-0.2,0-0.5-0.2-0.7c-1.1-0.8-1.9-2.7-3.3-3.1c-2.3-0.8-3.6-1.6-6.1-1.9
			c-0.9-0.1-2.2,0-3.2,0c-0.5,0-2-0.2-2.5-0.2c-1.7-0.1-3.2,0.7-4.8,1.1c-1.3,0.3-2.8-0.3-3.9,0.3c-0.8,0.4-1.3,1-2.1,1.4
			c-0.6,0.3-1.1,2-1.1,2.6c0,0.3-0.1,0.6-0.2,0.9c-0.4,1.5-1,3.3-0.5,4.8c0.4,1.3,1.5,2.4,2,3.7c0.6,1.4,1.5,2.7,2.6,3.6
			c1.1,1,2.5,2.6,3.6,3.5c0.9,0.8,2.1,1.4,3.3,1.6C1482.7,1014.7,1483.1,1014.7,1483.6,1014.7L1483.6,1014.7z"/>
		<path id="パス_307" class="st0" d="M1413.5,1039.6c0.1-1.8,0.6-3.5,1.4-5.1c0.3-0.5,0.6-0.9,1-1.3c1.5-1.5,3.3-2.6,5.2-3.5
			c0.5-0.2,1-0.3,1.5-0.3c1.4,0,2.8,0.1,4.2,0.2c0.5,0.1,1,0.2,1.5,0.5c1.2,0.6,2.5,1.1,3.7,1.8c1.2,0.6,2.3,1.5,3.1,2.7
			c0.8,1.1,1.6,2.2,2.2,3.4c1.3,2.1,1.3,4.9-0.1,7c-1.1,1.7-2.3,3.4-3.6,4.9c-0.9,1-2.1,1.7-3.4,2.1c-1.2,0.5-2.5,0.7-3.8,0.8
			c-0.7,0.1-1.5-0.1-2.2-0.4c-0.6-0.3-1.2-0.6-1.7-0.9c-0.7-0.5-1.5-1-2.3-1.3c-0.2-0.1-0.4-0.2-0.6-0.4c-1.1-1-2.2-2.1-3.3-3.1
			c-1.7-1.7-2.7-3.9-2.9-6.3c0-0.1,0-0.3,0-0.4C1413.4,1039.9,1413.5,1039.8,1413.5,1039.6z M1423.5,1031.9
			c-0.7-0.1-1.4,0.1-1.9,0.7c-1.5,1.3-3.1,2.7-4.6,4c-0.2,0.1-0.4,0.3-0.4,0.6c-0.4,1.2-0.6,2.5-0.3,3.8c0.3,1.3,0.9,2.5,1.8,3.5
			c1,1.1,2,2.1,3.1,3.2c0.4,0.3,0.7,0.7,0.9,1.1c0.2,0.5,0.6,0.8,1.1,1c0.5,0.2,0.9,0.4,1.4,0.6c0.6,0.3,1.3,0.3,2,0.1
			c0.6-0.2,1.2-0.4,1.8-0.5c1.3-0.4,3-0.7,3.7-1.8c0.8-1.3,2.3-2.8,3-4.1c0.3-0.6,0.5-1.3,0.7-2c0.1-0.6,0-1.3-0.3-1.9
			c-0.7-1.2-2.7-2.6-3.5-3.7c-0.5-0.7-1-1.3-1.7-1.8c-0.9-0.7-1.9-1.1-2.8-1.7c-0.7-0.4-1.5-0.6-2.2-0.7
			C1424.7,1031.9,1424.2,1031.9,1423.5,1031.9z"/>
		<path id="パス_308" class="st0" d="M1465.2,1041.4c-1,0-2-0.2-3-0.7c-0.3-0.1-0.6-0.2-0.9-0.3c-0.7-0.2-1.3-0.5-1.8-1
			c-1.3-1.2-2-2.9-2.1-4.7c-0.2-1.8,0-3.6,0.7-5.3c0.4-1.1,1-2.2,1.7-3.2c0.5-0.6,0.9-1.3,1.5-2c0.9-1.1,2.2-1.8,3.6-2
			c1.6-0.2,3.3-0.2,4.9,0.2c0.6,0.1,1.1,0.4,1.6,0.7c0.9,0.6,1.7,1.3,2.5,2c0.9,0.9,1.6,2,2,3.2c0.3,1,0.3,2-0.1,2.9
			c-0.7,1.7-1.8,3.1-3.2,4.2c-1.2,0.8-2.3,1.8-3.3,2.9c-0.5,0.7-1,1.4-1.6,2.1C1467.2,1041.2,1466.2,1041.6,1465.2,1041.4z
			 M1459.8,1033.4c0,0.5,0,1.1,0,1.6c0,1.1,0.6,2.1,1.5,2.7c0.8,0.5,1.6,0.9,2.5,1.2c0.7,0.4,1.6,0.2,2.1-0.4c0.5-0.5,1-1,1.5-1.6
			c1.2-1.6,2.7-2.9,4.4-3.9c1.1-0.6,1.9-1.6,2.2-2.8c0.1-0.3,0.1-0.6,0-0.8c-0.2-0.6-0.6-1.3-1-1.8c-1.7-2.3-4.4-3.5-7.2-3.1
			c-1.2,0.1-2.2,0.6-3,1.5c-0.7,0.9-1.3,1.9-1.9,2.9C1460.1,1030.2,1459.7,1031.8,1459.8,1033.4L1459.8,1033.4z"/>
		<path id="パス_309" class="st0" d="M1508.2,1025.1c0.7,0.1,1.8,0.1,2.8,0.4c1.9,0.4,3.5,1.6,4.5,3.2c0.2,0.4,0.4,0.7,0.5,1.1
			c0.2,0.7,0.3,1.5,0.4,2.3c0,0.2,0,0.4,0,0.6c-0.1,1.8-0.5,3.5-1.2,5.2c-0.8,1.4-2,2.5-3.5,3.1c-1.6,0.8-3.4,1-5.2,0.7
			c-1.1-0.2-2.2-0.5-3.2-0.8c-0.4-0.1-0.7-0.3-1-0.5c-0.6-0.5-1.2-1-1.7-1.6c-0.6-0.7-1.1-1.5-1.3-2.3c-0.2-1.1,0-2.1,0.6-3
			c0.2-0.3,0.2-0.6,0.3-0.9c0-1.1,0.3-2.2,0.8-3.1c0.8-1.6,2-2.9,3.6-3.7C1505.8,1025.2,1507,1025,1508.2,1025.1z M1505.2,1029.6
			c0.5,0.1,0.9,0.3,1.4,0.5c1.6,0.8,2.9,2.1,3.5,3.8c0.5,1.3,1,2.6,1.4,3.9c0.1,0,0.1-0.1,0.2-0.1c1.1-0.9,1.8-2.1,2.1-3.5
			c0.1-0.4,0.2-0.9,0.2-1.4c-0.2-1.4-1-2.6-2.1-3.4c-0.5-0.4-1.1-0.7-1.7-1c-1.1-0.7-2.4-0.8-3.5-0.3
			C1506,1028.4,1505.4,1028.9,1505.2,1029.6L1505.2,1029.6z M1510,1038.6c0-0.3,0-0.6,0-0.9c-0.4-1.1-0.9-2.3-1.4-3.4
			c-0.5-1-1.3-1.9-2.4-2.4c-0.5-0.3-1.1-0.4-1.7-0.2c-0.2,0-0.4,0.1-0.5,0.3c-0.5,0.8-1,1.6-1.5,2.4c-0.2,0.3-0.2,0.7-0.1,1.1
			c0.2,1.1,1.1,2,2.2,2.3c1.2,0.5,2.4,0.8,3.7,0.9C1508.9,1038.7,1509.4,1038.6,1510,1038.6L1510,1038.6z"/>
		<path id="パス_310" class="st0" d="M1516.4,1058.9c-0.1,2-0.5,4-1.3,5.9c-0.7,1.5-1.9,2.6-3.4,3.1c-2.1,0.7-4.3,0.7-6.3,0.1
			c-0.3-0.1-0.6-0.2-0.9-0.3c-1.5-0.4-2.7-1.3-3.6-2.5c-0.4-0.5-0.6-1-0.8-1.6c-0.3-1.2-0.4-2.4-0.6-3.6c-0.1-1,0.2-2.1,0.7-3
			c0.6-1.3,1.5-2.5,2.6-3.5c0.2-0.2,0.4-0.3,0.6-0.5c1.2-0.6,2.4-1.2,3.6-1.8c0.2-0.1,0.4-0.1,0.6-0.1c0.4,0.1,0.8,0.1,1.2-0.1
			c1.1-0.3,2.3-0.3,3.4,0.1c0.7,0.2,1.4,0.7,1.9,1.3C1515.4,1054.3,1516.3,1056.5,1516.4,1058.9z M1513.6,1059.8
			c0-0.3-0.1-0.8-0.2-1.3c-0.1-1.1-0.8-2.1-1.7-2.8c-1.8-1.1-3.8-1.6-5.8-0.4c-1.7,1-3,2.7-3.4,4.7c-0.3,0.9-0.2,1.8,0.2,2.7
			c0.6,1.3,1.7,2.3,3.1,2.8c0.2,0.1,0.4,0.1,0.6,0.2c0.8,0.3,1.7,0.5,2.6,0.4c1.6,0.1,3.1-0.9,3.7-2.4
			C1513.2,1062.4,1513.5,1061.1,1513.6,1059.8L1513.6,1059.8z"/>
		<path id="パス_311" class="st0" d="M1482.7,1036c-0.1,1.4-0.5,2.7-1.3,3.9c-1.6,2.9-3.8,5.4-6.3,7.4c-1.1,0.9-2.3,1.9-3.4,2.8
			c-0.7,0.6-1.6,1-2.5,1.2c-0.8,0.1-1.6,0-2.4-0.3c-0.6-0.3-1.2-0.8-1.5-1.4c-0.9-1.7-0.8-3.8,0.3-5.4c0.5-0.7,1.1-1.4,1.8-2.1
			c1.4-1.5,2.8-2.9,4.2-4.4c0.1-0.1,0.2-0.3,0.3-0.4c0.6-1.1,1.6-1.9,2.7-2.3c0.2,0,0.3-0.1,0.4-0.3c0.4-0.7,1.1-1.3,1.9-1.5
			c0.8-0.4,1.7-0.5,2.5-0.5c1.7,0.1,3,1.4,3.2,3C1482.7,1035.7,1482.7,1035.8,1482.7,1036z M1468,1049.5c0.3-0.1,0.6-0.2,0.9-0.3
			c0.6-0.3,1.2-0.7,1.7-1.2c1.4-1.2,2.9-2.3,4.3-3.5c1.7-1.4,3.2-3.1,4.5-5c0.9-1.1,1.4-2.4,1.7-3.8c0.1-0.5-0.2-1.1-0.7-1.2
			c-0.1,0-0.1,0-0.2,0c-0.3,0-0.7,0-1,0.1c-0.7,0.3-1.4,0.7-2.1,1.1c-0.3,0.2-0.7,0.4-1.1,0.4c-0.3-0.1-0.7,0.1-0.8,0.4
			c-0.2,0.3-0.5,0.6-0.6,1c-0.4,1-1.7,1.5-2.4,2.3c-1.3,1.7-2.1,3.5-3.7,4.9c-0.6,0.6-1.3,1.2-1.9,1.9c-0.5,0.6-0.7,1.5-0.3,2.2
			C1466.7,1049.3,1467.3,1049.3,1468,1049.5L1468,1049.5z"/>
		<path id="パス_312" class="st0" d="M1398.7,1028.7c-1.4,0-2.7-0.2-4-0.5c-1-0.4-2.1-0.8-3.1-1.3c-1.4-0.7-2.5-1.9-2.8-3.5
			c-0.2-0.7-0.4-1.4-0.5-2.2c0-0.5,0-0.9,0.2-1.4c0.3-1.2,0.9-2.3,1.8-3.3c0.7-0.8,1.3-1.6,1.9-2.5c0.8-1.1,2-1.7,3.4-1.6
			c1.6,0,3.2,0.2,4.7,0.7c3,1,5.2,3.7,5.6,6.8c0.2,0.9,0.2,1.8,0,2.7c-0.2,1.4-0.9,2.7-2,3.6c-1.1,1-2.4,1.8-3.9,2.2
			C1399.5,1028.6,1399.1,1028.7,1398.7,1028.7z M1402.8,1020.9c-0.1-0.7-0.2-1.3-0.5-1.9c-0.4-0.8-0.8-1.5-1.3-2.1
			c-0.6-0.9-1.5-1.5-2.6-1.7c-1.1-0.2-2.2-0.4-3.4-0.5c-0.4-0.1-0.9,0.1-1.1,0.5c-0.6,0.8-1.1,1.5-1.7,2.3c-0.7,0.9-1.2,2-1.3,3.1
			c-0.2,1.3,0.2,2.6,1,3.7c0.2,0.3,0.5,0.6,0.8,0.7c0.8,0.5,1.5,0.9,2.3,1.3c0.1,0,0.2,0.1,0.4,0.1c0.8,0.2,1.6,0.2,2.4,0
			C1400.7,1026.1,1402.9,1023.8,1402.8,1020.9z"/>
		<path id="パス_313" class="st0" d="M1405,1055.4c1,1,2.1,1.9,3.3,2.6c0.8,0.4,1.4,1.1,1.6,2c0.4,1.2,0.6,2.5,0.6,3.7
			c0,1-0.3,2-0.8,2.8c-0.4,0.7-1,1.3-1.8,1.5c-0.5,0.2-1.1,0.1-1.6-0.2c-0.4-0.3-0.8-0.6-1.2-1c-0.8-0.8-1.7-1.6-2.5-2.4
			c-1.6-1.6-2.9-3.4-4-5.4c-0.6-1.4-1.1-2.9-1.3-4.4c-0.2-1.1-0.1-2.1,0.4-3.1c0.3-0.9,1-1.5,1.9-1.7c0.3-0.1,0.7-0.2,1-0.3
			c1.6-0.5,3.2-0.1,4.4,1c0.9,0.7,1.3,1.8,1,2.9C1405.9,1054.1,1405.5,1054.8,1405,1055.4z M1407.1,1064.9c0.6-0.4,0.9-1.1,0.8-1.8
			c-0.1-0.9-0.2-1.9-0.2-2.8c0-0.4-0.2-0.7-0.5-1c-0.7-0.7-1.4-1.5-2-2.3c-0.2-0.3-0.4-0.6-0.8-0.5c-0.2,0-0.4-0.1-0.5-0.3
			c-0.8-0.8-1-2-0.4-3c0.1-0.2,0.2-0.3,0.3-0.5c-0.9-0.8-2.2-0.9-3.3-0.3c-0.6,0.3-0.9,1-0.8,1.6c0.1,0.7,0.3,1.3,0.5,2
			c0.2,1,0.6,1.9,1.2,2.8C1403,1061.1,1404.9,1063.2,1407.1,1064.9L1407.1,1064.9z"/>
		<path id="パス_314" class="st0" d="M1479.3,969.3c1.5,0,3,0.3,4.4,1c0.8,0.4,1.5,0.8,2.3,1.2c1.1,0.6,2,1.4,2.6,2.5
			c0.8,1.3,0.6,3-0.4,4.1c-0.9,1-2.1,1.8-3.4,2.2c-1.2,0.4-2.5,0.6-3.7,0.4c-1.5-0.1-2.9-0.3-4.3-0.7c-0.8-0.3-1.6-0.6-2.4-1.1
			c-1.7-1-2.1-2.8-1.8-4.6c0.2-1.1,0.8-2.1,1.5-2.9c0.1-0.1,0.2-0.2,0.4-0.3C1475.8,970,1477.5,969.4,1479.3,969.3z M1481.7,977.6
			c1.2,0,2.4-0.2,3.5-0.6c0.3-0.1,0.6-0.2,0.7-0.6c0.2-0.6,0.6-1.1,0.4-1.8c-0.1-0.2-0.1-0.3-0.3-0.4c-0.2-0.2-0.5-0.4-0.8-0.6
			c-0.8-0.4-1.6-0.8-2.4-1.2c-1.3-0.7-2.9-0.8-4.3-0.5c-1.2,0.4-2.4,0.9-3.5,1.5c-0.1,0-0.2,0.1-0.2,0.2c-0.4,0.8-0.2,1.8,0.5,2.3
			c0.6,0.4,1.3,0.7,1.9,0.9C1478.6,977.4,1480.1,977.6,1481.7,977.6L1481.7,977.6z"/>
		<path id="パス_315" class="st0" d="M1451.2,994.5c-1.4-0.1-3.1-0.2-4.9-0.4c-1.3-0.2-2.5-0.6-3.7-1.2c-1-0.5-1.7-1.5-1.9-2.7
			c-0.1-0.4-0.1-0.8-0.1-1.2c-0.1-1,0.4-2,1.3-2.5c1.2-0.7,2.6-1.1,4-1.3c2.2-0.3,4.5-0.1,6.6,0.5c1.2,0.3,2.4,0.8,3.4,1.7
			c0.6,0.6,1.2,1.2,1.6,1.9c0.3,0.4,0.3,1,0.1,1.4c-0.4,0.9-1,1.6-1.7,2.2C1454.6,993.9,1452.9,994.4,1451.2,994.5z M1452.1,991.8
			c0.6-0.2,1.3-0.4,2-0.6c0.4-0.1,0.6-0.4,0.6-0.8c0-0.1,0-0.1-0.1-0.2c-0.1-0.2-0.2-0.4-0.3-0.6c-0.8-1-1.9-1.7-3.2-2
			c-0.7-0.1-1.4-0.1-2.1-0.2c-0.5,0-0.9,0-1.4,0c-0.9-0.1-1.8-0.1-2.6,0.2c-0.3,0.1-0.7,0.2-0.9,0.4c-0.2,0.1-0.3,0.3-0.3,0.5
			c-0.1,0.6,0.2,1.2,0.7,1.4c0.8,0.4,1.7,0.8,2.5,1.1C1448.4,991.7,1450.2,991.5,1452.1,991.8L1452.1,991.8z"/>
		<path id="パス_316" class="st0" d="M1515.1,1017.3c-0.1,2-0.8,3.9-1.9,5.5c-0.4,0.5-0.8,0.9-1.3,1.2c-0.9,0.5-1.9,0.5-2.9,0.1
			c-0.2-0.1-0.4-0.3-0.6-0.5c-0.4-0.5-0.8-1-1.3-1.4c-0.8-0.7-1.1-1.8-0.7-2.8c0.2-1,0.7-2,1.2-2.9c0.8-1.5,2-2.8,3.4-3.8
			c0.6-0.4,1.3-0.6,2-0.4c0.6,0.1,1,0.5,1,1.1c0.1,0.6,0.3,1.2,0.6,1.8C1514.8,1015.9,1515,1016.6,1515.1,1017.3z M1512.3,1015.1
			c-0.5,0-1,0.3-1.2,0.7c-0.1,0.2-0.3,0.4-0.4,0.6c-0.4,0.3-0.7,0.7-0.8,1.2c-0.2,0.6-0.3,1.2-0.4,1.9c-0.1,0.5,0,0.9,0.1,1.4
			c0.2,0.6,0.5,0.6,1,0.2c0.8-0.7,1.4-1.6,1.8-2.6C1512.7,1017.4,1512.7,1016.2,1512.3,1015.1z"/>
		<path id="パス_317" class="st0" d="M1425.5,996.3c-1.7,0.1-2.7-2-2.3-3.3c0.2-0.8,0.7-1.6,1.4-2.1c1.2-0.9,2.3-2,3.2-3.3
			c0.8-1.2,2-2.1,3.4-2.5c0.6-0.3,1.3-0.2,1.9,0.2c0.3,0.2,0.5,0.4,0.8,0.6c0.9,0.6,1.2,1.9,0.6,2.8c-0.3,0.4-0.6,0.7-1.1,0.8
			c-0.5,0.2-0.9,0.6-1,1.1c0,0,0,0.1,0,0.1c-0.9,3.6-3.9,4.9-6.5,5.4C1425.7,996.3,1425.6,996.3,1425.5,996.3z M1432.8,987.8
			c-1-1.1-1.8-1-2.8-0.2c-0.7,0.5-1.2,1.1-1.7,1.8c-0.5,0.8-1.2,1.5-1.9,2.1c-0.4,0.4-0.8,0.8-1.2,1.2c-0.2,0.3-0.1,0.7,0.2,0.9
			c0.1,0.1,0.2,0.1,0.3,0.1c0.2,0,0.4,0,0.7,0c1.4-0.3,2.7-1,3.7-2.1C1431.1,990.5,1431.9,989.2,1432.8,987.8z"/>
		<path id="パス_318" class="st0" d="M1514.3,991.3c1-0.4,2.2-0.6,3.3-0.5c1,0.1,1.9,0.1,2.9-0.1c0.4-0.2,0.8-0.4,1.2-0.6
			c-0.6-0.9-1.3-1.6-2.2-2.3c-0.2-0.2-0.4-0.3-0.7-0.5c-0.3-0.2-0.4-0.6-0.3-0.9c0.3-0.9,0.6-1.1,1.6-0.8c1.5,0.4,2.9,1.3,3.9,2.5
			c0.5,0.6,0.6,1.5,0.1,2.1c-0.6,0.9-1.5,1.6-2.6,1.9c-1.4,0.4-2.9,0.6-4.3,0.4c-0.9,0-1.9-0.3-2.6-0.8c-0.1-0.1-0.2-0.1-0.2-0.2
			C1514.3,991.6,1514.3,991.5,1514.3,991.3z"/>
	</g>
	<g id="グループ_55" transform="translate(-445.625 6689.682) rotate(13)">
		<path id="パス_280" class="st0" d="M1579.9,753.5c-0.1-0.5-0.2-1-0.2-1.5c-0.2-1.9-0.7-3.8-1.6-5.5c-0.2-0.4-0.4-0.8-0.5-1.3
			l-0.1-0.2c-0.1-0.4-0.2-0.8-0.3-1.2c0-0.2-0.1-0.5-0.1-0.7c-0.3-1.8-1.7-3.3-3.5-3.6c-0.6-0.1-1.1-0.5-1.3-1
			c-0.3-0.8-0.6-1.6-0.8-2.4c-0.2-0.9-0.7-1.6-1.5-2.1c-1.9-1.3-3.6-3-5-4.9c-0.2-0.2-0.3-0.4-0.5-0.6c-0.1-0.2-0.3-0.3-0.4-0.5
			c-0.4-0.5-1.1-0.8-1.8-0.8h0c-0.5,0-1,0-1.5-0.1l-0.3,0l-0.3-0.8c-0.3-0.8-0.6-1.6-0.9-2.4c-3.2-8.3-7.5-16-12.8-23.1
			c-3.4-4.6-7.5-8.6-12.1-12l-0.4-0.3c-1-0.6-1.9-1.3-2.7-2.1c-0.9-1-2.1-1.6-3.5-1.8c-1.4-0.3-2.7-0.9-3.8-1.8
			c-1.1-0.8-2.3-1.4-3.6-1.7c-1.4-0.4-2.7-1-3.9-1.8c-0.5-0.3-1-0.6-1.6-0.9l-0.2-0.1c-2.1-0.9-4.2-1.6-6.4-2.2
			c-1-0.2-1.9-0.4-2.9-0.5c-0.8-0.1-1.7-0.3-2.5-0.4c-1.6-0.3-3.3-0.4-5-0.2c-1,0.1-2,0.2-3,0.1c-0.7,0.1-1.4-0.1-1.9-0.6
			c-0.8-0.8-1.8-1.2-2.9-1.1c-1.2,0-2.5,0-3.7,0c-0.6,0-1.2-0.1-1.8-0.1c-0.5,0-1.1-0.1-1.6-0.1c-0.5,0-0.9,0-1.4,0.1
			c-0.7,0.1-1.4,0.3-2,0.4c-1.1,0.2-2.2,0.5-3.4,0.7c-0.9,0.2-1.8,0.2-2.7-0.2c-0.6-0.3-1.3-0.2-1.8,0.2c-1.8,1.2-3.9,2-6.1,2.3
			c-1.3,0-2.5,0.6-3.3,1.6c-0.1,0.2-0.2,0.2-0.6,0.2c-0.7-0.1-1.4-0.3-2.1-0.4c-0.7-0.1-1.4,0.1-1.8,0.6c-0.4,0.3-0.8,0.5-1.3,0.4h0
			c-1.8,0-3.4,1.2-3.8,3c-0.1,0.4-0.3,0.6-0.7,0.7c-2,0.9-4,2-5.8,3.2c-5.3,3.7-10.1,8.2-14.2,13.2c-5.2,6.2-9.5,13.1-13,20.4
			c-0.2,0.5-0.3,0.5-0.6,0.5c-0.3,0-0.6,0.1-0.8,0.2c-0.1,0-0.1,0.1-0.2,0.1c-0.3,0.1-0.7,0.3-1,0.4c-0.7,0.3-1.5,0.6-2.2,0.8
			c-1.1,0.2-2.1,0.9-2.8,1.8c-1,1.1-1.6,2.5-1.9,4c-0.2,1.4-0.2,2.9-0.2,4.4v0.7c0.1,0.6-0.1,1.3-0.5,1.7c-0.8,0.8-1,2.1-0.4,3
			c0,0.1,0.1,0.3,0.1,0.4c0,0.1,0,0.2,0.1,0.3c0.1,0.5,0,1-0.1,1.4c0,0.2-0.1,0.4-0.1,0.6c0,0.4-0.1,0.8-0.1,1.1
			c0,0.3,0,0.6-0.1,0.9c0,0,0,0,0,0c-0.6,0.4-0.9,1.1-0.8,1.8c0,0.1,0,0.2,0,0.3c-0.2,0-0.4,0-0.5-0.2c-0.6-0.6-1.4-0.9-2.2-0.9h0
			c-0.9,0-1.7,0.3-2.4,0.9c-0.3,0.4-0.9,0.5-1.3,0.3c-0.8-0.3-1.7-0.3-2.5,0c-0.4,0.1-0.8,0.2-1.2,0.2c-0.9,0-1.7,0.4-2.1,1.2
			l-0.2,0.3c-0.6,1-1.2,2.1-1.5,3.3c-0.3,1-0.7,2-1.2,2.9c-1.2,2-2.1,4.1-2.6,6.4c-0.3,1.1-0.1,2.3,0.6,3.3c0.9,1.4,1.4,3.1,1.3,4.7
			c0,0.6,0,1.2,0.1,1.8c0.1,0.7,0.2,1.3,0.3,2c0.1,0.8,0.3,1.5,0.4,2.3c0.2,1.4,0.8,2.7,1.6,3.9c0.5,0.7,0.9,1.6,1.1,2.4
			c0.2,1.5,1.2,2.7,2.5,3.3c0,0,0.1,0,0.1,0.1c0.1,0,0.1,0.1,0.2,0.1c0.5,0.3,0.8,0.8,0.8,1.4c0.1,1.2,0.3,2.4,0.7,3.5
			c0.1,0.5,0.3,1,0.4,1.4c0.1,0.3,0.2,0.5,0.3,0.7c0.5,0.9,0.9,1.8,1.2,2.8c0.1,0.2,0.2,0.5,0.2,0.7c0.3,0.9,0.7,1.8,1.3,2.6
			l0.1,0.1c1.1,1.6,2.4,3.1,3.7,4.4c1.2,1.1,1.9,1.2,3.1,0.2c0.1-0.1,0.1-0.1,0.2-0.2c0,0,0-0.1,0-0.1c0.1,0,0.3-0.1,0.4-0.2
			c0.3-0.1,0.6-0.2,0.9-0.2c1.3,0.1,2.6,0.7,3.3,1.8c0.7,1,1.5,2,2.2,3.1c0.6,0.9,1.3,1.8,1.9,2.6c0.1,0.2,0.2,0.3,0.2,0.5
			c0.1,1.1,0,2.2-0.4,3.2c-0.4,0.8-0.2,1.8,0.5,2.3c0.2,0.2,0.5,0.4,0.8,0.6l0.2,0.2c1.3,0.9,2.4,2,3.4,3.2c1.2,1.5,2.6,2.7,4.3,3.6
			c0.5,0.2,0.9,0.5,1.2,0.9c0.3,0.3,0.7,0.7,1,1c0.8,0.7,1.4,1.4,2,2.2c0.3,0.4,0.7,0.8,1.1,1c0.6,0.4,1.2,1,1.6,1.6
			c0.8,1.3,2.1,2.2,3.7,2.2c0.2,0,0.3,0,0.5,0c0.3,0,0.7,0,1.1,0c1.9,0,3,0.5,3.7,1.8c0.5,0.9,1.4,1.5,2.4,1.7
			c1.4,0.4,2.9,0.9,4.7,1.6c1.2,0.5,2.6,0.3,3.6-0.6c0.4-0.4,0.9-0.8,1.5-1.2c0.1-0.1,0.3-0.2,0.4-0.2c1.2-0.3,2.4,0.1,3.2,1
			c0.7,0.8,1.5,1.4,2.5,1.7c1.6,0.5,3.1,1.4,4.3,2.6c0.7,0.7,1.6,1.2,2.5,1.4c0.5,0.1,0.9,0.1,1.4,0.2c0.6,0,1.3,0.3,1.6,0.8
			c0.3,0.4,0.6,0.8,1,1.2c0.7,0.8,1.8,1.2,2.8,1.3c1.4,0.1,2.9,0,4.3,0c0.8-0.1,1.7-0.2,2.5-0.3c0.9-0.1,1.9-0.3,2.9-0.3
			c2.1-0.1,4.2-0.1,6.3-0.1l0.5,0c1,0,2-0.1,3-0.4c1.5-0.5,2.9-1.1,4.3-1.8c0.9-0.5,1.9-0.7,3-0.7c0,0,0,0,0,0
			c-0.4,0.3-0.7,0.8-0.7,1.4c0.1,0.5,0.4,1,0.9,1.3c0.3,0.2,0.6,0.3,0.9,0.3c0.1,0,0.2,0,0.3,0c0.6,0.1,1.2,0.1,1.9,0.1
			c0.9,0,1.8,0.1,2.6,0.4c0.1,0.1,0.3,0.1,0.4,0.1l0.4,0c0.5,0,0.9,0,1.4,0c1.4,0.1,2.8-0.2,4.2-0.6c1.7-0.6,3.5-0.9,5.4-0.9
			c0.5,0,1-0.1,1.5-0.1c0.7-0.1,1.5-0.1,2.2-0.1c1,0,1.9,0,2.9-0.1c2.7-0.2,5.3-1.1,7.6-2.4c2.3-1.4,4.6-2.6,7-3.6
			c1.3-0.5,2.5-1.2,3.6-1.7c1.2-0.5,2.2-1.4,3.1-2.4c0.9-1,1.1-2.4,0.5-3.6c-0.1-0.2-0.1-0.4-0.1-0.6c0.5-1.6,1-2.9,1.5-4.1
			c0.4-1.1,1.2-1.9,2.3-2.3c0.4-0.2,0.8-0.6,1-1c0.3-0.6,0.5-1.3,0.7-1.9c0.1-0.4,0.3-0.7,0.4-1.1c0-0.1,0-0.1,0.1-0.2
			c0-0.1,0.1-0.3,0.2-0.4c0.8-0.7,1.3-1.7,1.4-2.7c0.1-0.4,0.3-0.8,0.6-1.1c0.3-0.2,0.6-0.4,0.9-0.6c0.7-0.5,1.4-1,2.2-1.4
			c0.9-0.5,1.6-1.3,1.9-2.3c0-0.1,0.1-0.2,0.1-0.3c0-0.1,0.1-0.2,0.1-0.4c0.5-1.8,1-3.7,1.6-5.5c0.1-0.2,0.1-0.4,0.1-0.7l0-0.1
			c0-0.3,0.1-0.7,0.1-1c0.1-0.6,0.2-1.3,0.3-1.9c0.2-1,0.4-1.9,0.6-2.9c0.1-0.5,0.3-1.1,0.4-1.6c0.2-0.7,0.4-1.4,0.8-2.1
			c1.3-2,3-3.6,5-4.8c0.7-0.4,1.2-1.2,1.2-2.1c0-0.5,0.1-0.9,0.2-1.4c0.2-0.7,0.4-1.5,0.7-2.2l0.2-0.6c0.2-0.7,0.4-1.3,0.7-2
			c0.2-0.6,0.4-1.2,0.6-1.8c0.2-0.7,0.1-1.4-0.3-2c-0.4-0.7-0.6-1.6-0.5-2.4c0.3-2.2,0.8-4.4,1.4-6.5l0.2-0.7
			c0.3-1.5,1.3-2.8,2.7-3.5c1.5-0.8,2.4-2.2,2.6-3.8C1580.2,756.2,1580.2,754.8,1579.9,753.5z M1571.4,770.1l-0.1,0.6
			c-0.3,1-0.3,2.1-0.1,3.2c0,0.1,0.1,0.2,0.1,0.3c0.1,0.4,0.2,0.7,0.4,1c0.2,0.4,0.2,0.8,0.1,1.2l-0.1,0.3c-0.3,0.9-0.6,1.9-1,2.8
			c-0.7,1.6-1.1,3.3-1.2,5.1c-1.8,1.1-3.4,2.4-4.7,4c-1,1.1-1.8,2.5-2.2,4c-0.2,0.6-0.3,1.3-0.5,1.9c-0.2,0.9-0.5,1.9-0.7,2.8
			c-0.1,0.7-0.2,1.3-0.3,2c0,0.3-0.1,0.5-0.1,0.8c0,0.1,0,0.2,0,0.3c0,0.1,0,0.2,0,0.3c-0.2,0.8-0.4,1.6-0.6,2.4
			c-0.3,1.3-0.7,2.6-1,3.9c-0.1,0.6-0.6,1.1-1.1,1.3c-1.2,0.7-2.4,1.4-3.4,2.1c-0.8,0.6-1.3,1.4-1.4,2.3c-0.1,0.5-0.3,1-0.6,1.5
			c-0.2,0.3-0.4,0.7-0.5,1l0,0.1c-0.2,0.4-0.3,0.9-0.5,1.3c-0.2,0.6-0.4,1.2-0.6,1.8c0,0.1-0.1,0.2-0.1,0.2c-1.6,0.7-2.8,2-3.3,3.6
			c-0.5,1.2-0.9,2.4-1.4,3.6c-0.4,0.9-0.3,1.9,0.1,2.7c0.1,0.2,0.1,0.4-0.2,0.9c-0.4,0.7-0.9,1.2-1.6,1.5c-1.2,0.7-2.3,1.3-3.6,1.9
			c-3,1.3-6,2.8-9,4.4c-0.6,0.3-1.3,0.6-2,0.8l-0.2,0.1c-0.9,0.3-1.8,0.5-2.7,0.7c-1.1,0.2-2.2,0.3-3.3,0.4c-0.4,0-0.8,0-1.3,0
			c-0.4,0-0.9,0-1.3,0c-1.3,0.1-2.7,0.2-4.4,0.4c-1.5,0.2-2.9,0.5-4.4,0.9c-1.2,0.3-2.5,0.4-3.8,0.3l-0.5,0h0
			c-0.7-0.4-1.6-0.6-2.4-0.6c-0.3,0-0.5,0-0.8,0c0.3-0.4,0.5-1,0.6-1.5c0.1-0.5,0-1.1-0.3-1.5c-0.4-0.4-0.9-0.6-1.4-0.5l-0.3,0
			c-0.8,0-1.7,0-2.6,0c-1.5,0.2-2.9,0.7-4.2,1.4c-1.2,0.6-2.3,1.2-3.6,1.6l-0.3,0.1c-0.3,0.1-0.5,0.1-0.8,0.1h-0.1c-0.5,0-1,0-1.6,0
			c-0.8,0-1.6,0-2.5,0c0,0,0.1,0,0.1-0.1c0.6-0.4,1.3-0.7,2-0.9c0.5-0.2,1-0.3,1.5-0.4c0.9-0.2,1.8-0.5,2.6-0.8
			c0.9-0.3,1.6-1,1.9-1.9c0.1-0.2,0.1-0.4,0.2-0.6c1-0.6,2.2-0.8,3.4-0.5c0.6,0.1,1.3-0.1,1.8-0.5c0.2-0.1,0.3-0.3,0.5-0.4
			c0.3-0.3,0.7-0.5,1-0.8c0.5-0.4,1.1-0.5,1.7-0.3c0.8,0.3,1.6,0.3,2.3-0.1c0.4-0.2,0.9-0.5,1.3-0.7l0.2-0.1
			c0.2-0.1,0.2-0.1,0.3-0.1c0.4,0.3,1,0.4,1.5,0.1c0.7-0.2,1.3-0.7,1.5-1.4c0.1-0.3,0.3-0.6,0.5-0.8c0.1-0.1,0.1-0.3,0.2-0.4
			c0.3-0.5,0.8-0.9,1.3-1c0.1,0,0.3-0.1,0.4-0.1c0.2,0,0.5-0.1,0.7-0.2l0.1,0c0.6-0.2,1.2-0.4,1.7-0.7c0.8-0.4,1.3-1.2,1.3-2.1
			c0.1-0.7-0.1-1.3-0.6-1.8c-0.5-0.4-1.1-0.6-1.7-0.5c-1.4,0.1-2.8,0.5-4.1,1.2c-1,0.7-2,1.4-2.9,2.2c-0.7,0.7-1.6,1.2-2.5,1.6
			c-1.2,0.4-2.2,0.9-3.2,1.7c-0.2,0.2-0.5,0.2-0.8,0.1c-0.5-0.2-1-0.3-1.5-0.2c-0.4,0-0.8,0-1.1,0c-0.5,0-0.9,0-1.4,0
			c-1.4-0.2-2.8,0.3-3.9,1.3c-1.3,1.2-2.4,2.5-3.2,4c-0.1,0.3-0.5,0.5-0.8,0.4c0,0,0,0-0.1,0c-0.2,0-0.3-0.1-0.5-0.1
			c-0.5-0.1-0.9-0.2-1.4-0.2c-1.1-0.2-2.3-0.4-3.5-0.5c-0.6,0-1.1-0.3-1.4-0.8c-0.4-0.9-1.4-1.3-2.3-0.9c0.1-0.1,0.2-0.2,0.3-0.3
			c0.3-0.3,0.5-0.8,0.4-1.2c-0.2-0.4-0.5-0.7-1-0.8l-0.1,0c-0.6-0.2-1.2-0.3-1.8-0.4c-0.4-0.1-0.7-0.2-0.9-0.5
			c-0.5-0.8-1.5-1.2-2.4-0.7c-0.4,0.2-0.7,0.5-0.8,1c-0.1,0.3-0.3,0.5-0.4,0.8c-0.1,0.2-0.2,0.4-0.2,0.5c-0.1,0.2-0.3,0.4-0.5,0.4
			c-0.2,0-0.4,0-0.5-0.1c-0.7-0.5-1.4-1-2.2-1.5c-0.6-0.4-1.3-0.9-1.9-1.3c-0.4-0.3-0.8-0.5-1.3-0.7c-1-0.5-2.1-0.5-3.1-0.2
			c-0.6,0.1-1.1,0.6-1.1,1.3c0,0.6,0.3,1.2,0.9,1.5c0.2,0.1,0.4,0.2,0.7,0.3c0.1,0,0.2,0.1,0.3,0.1l0.3,0.1c0.5,0.2,1,0.4,1.5,0.6
			c0.3,0.1,0.5,0.4,0.5,0.7c0.1,0.4,0.2,0.7,0.3,1c0.4,1.3,1.5,2.3,2.9,2.5c0.3,0.1,0.7,0.1,1.1,0c0.6-0.1,1.2,0.1,1.7,0.5
			c0.1,0.1,0.3,0.2,0.4,0.3c0.1,0.1,0.3,0.2,0.4,0.3c0.8,0.7,1.9,1,2.9,0.8l0.2,0c0.7-0.1,1.5-0.1,2.2-0.1c1.5,0,2.9,0.5,4.1,1.4
			c0.3,0.2,0.5,0.5,0.8,0.6c0.2,0.1,0.3,0.2,0.4,0.3c0.1,0.1,0.2,0.2,0.3,0.2c-0.8,0.1-1.6,0.1-2.3,0.2c-2.6,0.4-5.3,0.6-8,0.6
			c-1,0-2-0.5-2.6-1.3c0,0,0-0.1-0.1-0.1c-0.7-1.4-2.1-2.2-3.7-2.3c-1-0.1-1.9-0.5-2.5-1.3c-1.3-1.3-2.9-2.3-4.7-2.9
			c-0.7-0.2-1.3-0.6-1.8-1.1c-0.8-0.9-1.8-1.5-2.9-1.7c-0.4-0.1-0.8-0.1-1.2-0.1c-1.1-0.1-2.1,0.4-2.8,1.1c-0.2,0.2-0.5,0.4-0.7,0.6
			c-0.2,0.2-0.4,0.3-0.6,0.5c-0.3,0.3-0.8,0.4-1.2,0.3l-0.5-0.2c-1.6-0.5-3.2-1-4.7-1.6c-0.3-0.1-0.5-0.3-0.8-0.5
			c-0.3-0.3-0.5-0.6-0.7-0.9c-0.7-1.2-2-1.9-3.4-1.9c-0.9,0-1.8-0.1-2.7-0.2l-0.2,0c-0.8,0-1.5-0.4-2-1c-0.6-1-1.5-1.9-2.5-2.6
			c-0.2-0.1-0.3-0.3-0.4-0.4c-0.1-0.1-0.1-0.2-0.2-0.2c-0.3-0.3-0.6-0.7-0.9-1c-0.6-0.7-1.3-1.5-2-2.2c-0.6-0.6-1.2-1-1.9-1.4
			c-1.4-0.8-2.6-1.8-3.5-3c-1.1-1.4-2.5-2.6-4-3.6c-0.2-0.2-0.4-0.3-0.7-0.5c0.3-0.9,0.5-1.8,0.5-2.7c0.3,0.6,0.5,1.3,0.4,1.9v0.1
			c-0.1,0.8,0.4,1.5,1.1,1.8c0.5,0.2,0.9,0.5,1.3,1c0.5,0.5,1.1,0.9,1.8,0.9c0.2,0,0.4,0.1,0.5,0.2l0.2,0.3c0.5,0.5,0.9,1.1,1,1.8
			c0.1,0.8,0.7,1.5,1.5,1.7c0.3,0.1,0.7,0.2,0.9,0.4c0.2,0.2,0.5,0.3,0.7,0.5c0.7,0.6,1.4,1,2.2,1.3c0,0,0.1,0.1,0.1,0.1
			c0.1,0.1,0.1,0.1,0.2,0.2c0.1,0.1,0.3,0.2,0.4,0.3c0.2,0.1,0.3,0.3,0.5,0.4c0.1,0.1,0.3,0.2,0.4,0.3c0.4,0.3,0.7,0.5,1,0.8
			l0.2,0.2c0.6,0.5,1.1,1.1,1.5,1.8c0.1,0.4,0.5,0.7,0.9,0.9c0.5,0.1,1-0.1,1.3-0.4c0,0,0.1-0.1,0.1-0.1l0,0
			c0.3,0.2,0.5,0.3,0.8,0.5c0.5,0.3,1,0.6,1.5,0.9c0.4,0.3,0.8,0.4,1.3,0.4c0.3,0,0.5-0.1,0.8-0.2c0.6-0.4,1-1,0.9-1.8
			c0-0.5-0.1-0.9-0.5-1.2c-0.4-0.2-0.9-0.3-1.3-0.1c-0.3,0.1-0.5,0.2-0.8,0.4c-0.2-0.3-0.3-0.6-0.4-0.9c-0.4-1.4-1.6-2.4-3.1-2.5
			c-0.5-0.1-1-0.1-1.4-0.2c-0.2,0-0.4-0.1-0.6-0.4c-0.1-0.1-0.1-0.2-0.2-0.3c-0.2-0.3-0.3-0.6-0.6-0.9l-0.1-0.1
			c-0.4-0.5-0.8-0.9-1.4-1.2c-0.6-0.2-1.1-0.8-1.3-1.4c-0.2-1.2-1.3-1.9-2.5-1.7c0,0-0.1,0-0.1,0c-0.3,0-0.3,0-0.5-0.3
			c-0.3-0.8-0.9-1.5-1.6-1.9c-0.6-0.4-1-1-1-1.7c0-0.2,0-0.4,0-0.7c0-0.2,0-0.4,0-0.6c0-0.1,0-0.3,0-0.4c0-0.4-0.1-0.9-0.2-1.3
			c-0.2-0.8-0.2-1.7,0.2-2.5c0.2-0.4,0.3-0.9,0.4-1.4c0.1-0.2,0.1-0.5,0.2-0.7l0-0.2c0-0.1,0.1-0.3,0.1-0.4c0.5-0.6,1.1-1.2,1.7-1.8
			c0.3-0.3,0.7-0.4,1.1-0.3l0.6,0.1c0.6,0.1,1.2,0.3,1.8,0.4c0.8,0.1,1.6,0.5,2.2,1.1c0.4,0.4,0.8,0.7,1.3,1.1l0.4,0.3
			c0.6,0.5,1.1,1.1,1.4,1.8c0.2,0.4,0.4,0.7,0.7,1.1c0.6,0.6,1.4,0.9,2.2,0.7c0.4,0,0.8-0.3,0.9-0.6c0.1-0.3,0.1-0.7-0.2-0.9
			c-0.2-0.3-0.4-0.7-0.4-1.1c0-0.2-0.1-0.3-0.1-0.5c-0.1-0.7-0.5-1.3-1.1-1.6c0,0,0,0,0,0l0,0c-0.1-0.9-0.8-1.6-1.7-1.7
			c-0.4-0.1-0.7-0.3-0.9-0.6l-0.3-0.3c-0.9-1.1-2.1-2-3.5-2.3c-0.2,0-0.4-0.2-0.5-0.3c-1-1.1-2.4-1.5-3.8-1.3
			c-0.8,0.2-1.6-0.1-2.1-0.8c0,0-0.1-0.1-0.2-0.1c-0.5-0.6-1.3-1-2.1-1.1c-0.2,0-0.4-0.1-0.6-0.2c-0.2-0.1-0.5-0.1-0.8,0
			c0-0.1-0.1-0.2-0.1-0.3c0-0.1-0.1-0.1-0.1-0.2c0.1,0,0.3-0.1,0.4-0.1c0.7-0.1,1.3-0.2,1.8-0.2c0.4,0,0.8-0.1,1.2-0.4
			c0.2,0.2,0.4,0.4,0.6,0.6c0.6,0.5,1.4,0.6,2,0.1c0.6-0.4,0.8-1.3,0.4-1.9c-0.3-0.6-0.7-1.1-1.2-1.5c-1.5-1-3.2-1.8-4.9-2.1
			c-0.3-0.1-0.7-0.1-1,0c-0.8,0.2-1.2-0.1-1.9-0.9c-0.3-0.2-0.4-0.7-0.1-1c0.5-0.7,0.3-1.7-0.4-2.1c-0.1-0.1-0.2-0.1-0.3-0.1
			c-0.3-0.2-0.6-0.3-0.9-0.5c-0.6-0.3-1.3-0.1-1.6,0.5c-0.1,0.2-0.2,0.5-0.1,0.8c0,0.2,0.1,0.3,0.1,0.5l0,0.1
			c0.3,0.5,0.3,1.1,0.1,1.7c-0.3,0.8-0.3,1.7,0,2.5c0,0.1,0.1,0.3,0.1,0.4l0.2,0.8l-0.1,0.1c-0.3,0.2-0.6,0.5-0.8,0.7
			c-0.3,0.4-0.8,0.7-1.3,0.8c-0.1,0-0.2,0.1-0.3,0.1c0,0-0.1,0-0.1,0l-0.2,0c-0.2,0-0.4,0.1-0.6,0.1h-0.1c-1,0-2.1,0-3.2-0.1
			c-0.4,0-0.9-0.1-1.3-0.3c-0.4-0.2-0.8-0.5-1.2-0.9c-0.2-0.2-0.4-0.4-0.6-0.5c-0.9-0.8-1.7-1.8-2.3-2.8c-0.3-0.4-0.6-0.9-0.9-1.3
			c-0.2-0.2-0.8-0.7-1.3-0.4c-0.3,0.2-0.6,0.6-0.7,1c-0.1,0.3,0,0.6,0.1,0.9l0.1,0.5c0.1,0.5,0.3,0.9,0.4,1.4c0.3,0.7,0.6,1.4,1,2.3
			c0.1,0.3,0.3,0.5,0.4,0.8c0.2,0.4,0.4,0.8,0.6,1.2c0.2,0.8,0.6,1.6,1,2.3c0.3,0.6,0.9,0.9,1.6,0.9l0.1,0c0.5,0,1.1-0.1,1.6-0.1
			c1,0,1.9-0.1,2.9-0.1h0c0.6,0.4,1.4,0.5,2,0.1l0.1,0c1.7-0.6,2.7-0.4,3.6,0.7c0.3,0.3,0.5,0.6,0.9,0.8c0.2,0.1,0.4,0.3,0.5,0.5
			c0.3,0.3,0.8,0.5,1.3,0.5c0.3,0,0.5-0.1,0.8-0.1c0.5-0.1,0.8-0.5,1.1-0.9c0,0.5-0.1,1-0.4,1.5c0,0-0.1,0.1-0.1,0.1
			c-0.8-0.1-1.6,0-2.4,0.3c-0.1-0.1-0.2-0.2-0.2-0.3c-0.2-0.3-0.4-0.5-0.7-0.8c-0.5-0.5-1.3-0.6-1.9-0.2c-0.6,0.3-0.8,1-0.7,1.6
			c0,0,0,0,0,0.1c-0.1-0.1-0.1-0.2-0.2-0.3c-1-1.4-2.5-2.4-4.2-2.7c-1.4-0.3-2.8,0.1-3.8,1.1c0,0-0.1,0.1-0.1,0.1
			c-0.1-0.1-0.3-0.3-0.4-0.4c-0.8-0.7-1.4-1.5-2-2.4c-0.1-0.3-0.3-0.5-0.5-0.7c-0.8-1-1.4-2.2-1.6-3.4c-0.2-0.6-0.4-1.2-0.6-1.8
			c-0.1-0.3-0.2-0.6-0.4-0.9c-0.3-0.7-0.5-1.5-0.8-2.2l-0.1-0.2c-0.2-0.5-0.3-0.8-0.4-1.2l-0.1-0.3c-0.1-0.3-0.2-0.6-0.2-1
			c0-1.8-1.2-3.5-3-4c-0.1,0-0.3-0.1-0.4-0.1c-0.1,0-0.2-0.1-0.3-0.1c-0.3-0.1-0.4-0.3-0.5-0.6c-0.2-0.7-0.4-1.3-0.7-1.9
			c0.3,0.2,0.6,0.4,0.9,0.5c0.1,0.1,0.1,0.3,0.2,0.4c0.6,1.1,1.5,2,2.7,2.5c0.3,0.1,0.7,0.2,1.1,0.2c0.7,0,1.3-0.3,1.7-0.9
			c0.6-1,0.4-2.3-0.5-3l-0.1-0.1c-0.1-0.1-0.2-0.2-0.3-0.3c0,0-0.1-0.1-0.1-0.1c0-0.1,0-0.1,0.1-0.2c0.3-0.7,0.6-1.3,0.8-2
			c0.1-0.2,0.1-0.4,0.1-0.7c0-0.1,0-0.1,0-0.2v-0.5l-0.5-0.1c-0.6-0.1-1.3,0-1.9,0.3c0-1.1,0.4-2.2,1.2-3.1c0.2-0.2,0.4-0.4,0.6-0.6
			s0.4-0.4,0.6-0.6l0.2-0.2c0.5-0.5,1-1,1.5-1.6c0.5-0.6,0.6-1.4,0.5-2.1c0-0.1,0-0.2-0.1-0.4c0-0.2-0.1-0.4-0.1-0.7
			c0-0.7-0.5-1.3-1.2-1.4c-0.2-0.1-0.5-0.2-0.7-0.3c-0.3-0.1-0.6-0.3-0.9-0.5c-0.5-0.3-1-0.5-1.6-0.8c-1-0.6-2.2-0.2-2.7,0.7
			c0,0.1-0.1,0.1-0.1,0.2c-0.7,1.1-1.2,2.3-1.5,3.6c-0.1,0.5-0.3,0.9-0.6,1.2c-0.7,0.8-1.2,1.7-1.6,2.7c0-0.1,0-0.1,0-0.2
			c-0.1-0.6-0.2-1.3-0.3-1.9c-0.1-0.6-0.1-1.2-0.1-1.8c0-1.7-0.4-3.3-1.4-4.7c-0.5-0.7-0.6-1.6-0.4-2.4c0.5-1.9,1.3-3.7,2.3-5.3
			c0.7-1.1,1.2-2.2,1.5-3.5c0.2-0.8,0.6-1.6,1-2.3l0.2-0.4c0.1-0.3,0.4-0.5,0.8-0.5c0.1,0,0.2,0,0.4,0c1.2-0.4,2.4-0.5,3.6-0.1
			c0.5,0.1,1,0,1.5-0.3c0.2-0.1,0.4-0.3,0.6-0.4c0.1-0.1,0.2-0.2,0.3-0.2c0.5-0.5,1.3-0.4,1.8,0.1c0,0,0,0,0,0
			c0.6,0.5,1.3,0.8,2.1,0.8c0.8,0.1,1.5-0.5,1.6-1.3c0,0,0-0.1,0-0.1c0-0.2,0-0.4,0-0.5v-0.3c0-0.3,0-0.3,0.1-0.3
			c0.4-0.3,0.7-0.8,0.7-1.3c0-0.5,0.1-1.1,0.3-1.5c0.1-0.3,0.2-0.6,0.3-1c0.3-0.7,0.2-1.6-0.4-2.2c0,0,0-0.1,0-0.1
			c0-0.1,0-0.2-0.1-0.3c0-0.1,0-0.1-0.1-0.2c0-0.2-0.1-0.4-0.2-0.7c-0.3-0.5-0.2-0.6,0-0.7c1.3-1.1,1.3-2.5,1.3-3.7
			c0-1.3,0-2.6,0.2-3.9c0.2-1,0.6-1.9,1.2-2.8c0.1-0.1,0.1-0.2,0.2-0.3c0.1-0.1,0.2-0.2,0.3-0.4c0.4-0.5,0.9-0.9,1.5-1.1
			c0.9-0.3,1.7-0.7,2.6-1.1c0.2-0.1,0.4-0.2,0.7-0.3c-0.4,0.8-0.7,1.7-1,2.5c-2.3,5.4-3.7,11.2-4.4,17c-0.1,0.8-0.1,1.5-0.2,2.3
			c0,0.5-0.1,1-0.1,1.5c0,0.1,0,0.2,0,0.4c0,0,0,0.1,0,0.1c-0.4,0.2-0.3,0.8-0.3,1c0,0.1,0.1,0.3,0.1,0.4c0.1,0.5,0.3,0.9,0.4,1.4
			c0.2,0.5,0.5,1,0.9,1.3c0.6,0.5,1.2,1.1,1.5,1.9c0.1,0.2,0.2,0.5,0.3,0.7c0.1,0.3,0.3,0.6,0.4,0.9l0.1,0.2
			c0.2,0.5,0.5,0.9,0.8,1.3c0.7,0.8,1.1,1.8,1.4,2.9c0,0.1,0,0.2,0.1,0.2c-0.2,1.7,0.2,3.4,1.1,4.8c0.1,0.3,0.3,0.6,0.4,0.8l0.1,0.3
			c0.5,1,0.9,2,0.9,3.1c0,0.2,0,0.3-0.1,0.5c-0.4,0.7-0.5,1.5-0.5,2.4c0,0.1,0,0.2-0.1,0.2c-0.5,0.5-0.8,1.3-0.8,2
			c0,0.7-0.2,1.4-0.5,2c-0.3,0.6-0.3,1.3-0.1,2c0.2,0.7,0.7,1.2,1.4,1.5c0.4,0.1,0.7,0.5,0.8,0.9c0.1,0.8,0.7,1.5,1.4,1.9
			c0,0,0,0.1,0.1,0.1c0,0.1,0.1,0.2,0.1,0.2l1.7,2.8c0.8,1.3,1.5,2.5,2.3,3.8c0.2,0.3,0.4,0.5,0.6,0.7l1.2,1.1l-0.2-1.6
			c-0.2-1-0.5-1.9-1.1-2.7c-1.3-2.2-2.3-3.9-3.3-5.5c-0.3-0.5-0.5-1-0.6-1.5l0-0.1c-0.2-1.1-0.9-2-1.8-2.5c0.4-1,0.4-2,0.2-3l0-0.1
			c0.1-0.4,0.2-0.7,0.2-1.1c0.1-0.7,0.2-1.3,0.5-1.9c0.5-1.1,0.6-2.3,0.3-3.4c-0.1-0.3-0.1-0.7-0.2-1c-0.1-0.3-0.1-0.5-0.2-0.8
			c-0.1-0.7-0.4-1.3-0.9-1.8c-0.2-0.2-0.3-0.5-0.4-0.7c-0.1-0.2-0.2-0.4-0.2-0.6c-0.1-0.3-0.3-0.6-0.4-0.9c-0.2-0.4-0.2-0.9-0.2-1.3
			c0.1-0.5,0-1.1-0.1-1.6c-0.3-1.2-0.8-2.3-1.6-3.2c-0.2-0.3-0.3-0.5-0.5-0.8c-0.1-0.1-0.1-0.3-0.2-0.4c-0.1-0.3-0.3-0.6-0.4-0.9
			c-0.3-0.5-0.6-1.1-0.9-1.7c-0.4-0.7-1-1.2-1.7-1.5c-0.5-0.3-0.8-0.8-0.7-1.3c0.1-7.1,1.9-14.4,5.7-23.2
			c3.7-8.4,8.4-16.2,14.2-23.2c4.1-5.2,9-9.7,14.4-13.5c0.8-0.5,1.6-1,2.5-1.5c-0.2,0.2-0.3,0.3-0.5,0.4c-1.6,1.4-2.9,3.1-3.6,5.1
			c-0.4,0.9-0.8,1.8-1.3,2.7c-0.2,0.5-0.5,0.9-0.7,1.4c-0.2,0.4-0.5,0.8-0.8,1.2c-0.2,0.3-0.4,0.5-0.5,0.8l-0.1,0.2
			c-0.3,0.5-0.6,0.9-0.8,1.4c-0.4,1.1-0.9,2.3-1.3,3.5c-0.2,0.5-0.4,1-0.5,1.5c0,0.1,0,0.1-0.1,0.2s-0.1,0.1,0,0.1
			c-0.2,0.2-0.4,0.5-0.5,0.8l-0.2-0.1l0.1,0.5c-0.1,0.5-0.1,1.1-0.1,1.6c0,0.9,0.1,1.8,0.2,2.6c0,0.3,0.1,0.6,0.1,0.9
			c0.1,1.1,0.4,2.2,1,3.1l0.1,0.2c0.7,1,1.3,2.1,1.7,3.2c0.1,0.4,0.4,0.8,0.7,1.2c0.4,0.6,0.7,1.2,0.6,1.9c0.2,1.9,0.3,3.6,0.4,5.3
			c0.1,1-0.2,1.9-0.9,2.7c-0.4,0.4-0.7,0.8-1,1.3c-0.1,0.2-0.3,0.4-0.4,0.6c-0.5,0.7-1,1.4-1.5,2.1c-0.9,1.1-1.5,2.6-1.5,4
			c-0.1,2.2-0.6,4.3-1.4,6.3c-0.9,2.2-1.5,4.6-1.7,7c-0.1,0.6-0.2,1.1-0.3,1.7l-0.1,0.6c-0.2,0.9,0.1,1.8,0.6,2.4
			c0.5,0.7,1.1,1.3,1.7,2c1.5,1.6,2.5,3.6,2.8,5.8c0.3,2.5,1.2,4.9,2.6,6.9c0.5,0.7,0.9,1.4,1.4,2.1c0.3,0.4,0.5,0.8,0.8,1.2
			c0.7,1,1.6,1.9,2.6,2.6c0.6,0.4,1.2,0.8,1.8,1.3c0.5,0.4,1,0.8,1.5,1.1c0.8,0.6,1.8,1.2,2.7,1.8c0.4,0.2,0.9,0.4,1.4,0.5l0.2,0
			c0.5,0.1,0.9,0.4,1.2,0.8c0.5,0.8,1.4,1.4,2.3,1.6c0.3,0.1,0.6,0.3,0.7,0.7c0.7,1.3,1.7,2.5,2.8,3.5c0.6,0.5,1.3,0.9,2,0.9
			c0.8,0.2,1.6-0.3,1.9-1.1c0.1-0.5,0.2-0.9,0.2-1.4c0-0.3,0-0.5,0-0.8c0-0.2,0-0.4,0-0.6c0-0.8,0.2-0.9,0.9-1
			c0.7-0.1,1.5-0.1,2.2-0.1l0.2,0c0,0.1,0,0.1,0.1,0.2c0.1,0.4,0.1,0.7,0.2,1.1c0.2,1,0.7,1.9,1.4,2.7c1,1,3,1,3.9,0.7
			c0.3-0.1,0.6-0.4,0.7-0.7c0.1-0.4,0.1-0.9-0.2-1.3c-0.2-0.3-0.4-0.6-0.6-0.8c-0.1-0.1-0.2-0.2-0.2-0.3l-0.1-0.1l0,0
			c0.7-0.5,1.5-0.6,2.2-0.3c1,0.4,2.1,0.2,3-0.5c0.7-0.5,1-1.4,0.9-2.2c0-0.2-0.1-0.5-0.1-0.7c0-0.1-0.1-0.3-0.1-0.4l-0.1-0.4
			l-0.4-0.1c-0.1,0-0.2-0.1-0.3-0.1c-0.3-0.1-0.6-0.2-1-0.2c-1.2,0-2.5,0-3.8,0c-0.5,0-1.1,0.1-1.6,0.2l-0.3,0c-0.2,0-0.3,0.1-0.5,0
			c-0.1-0.1-0.2-0.2-0.2-0.4c-0.7-1.4-1.4-1.7-2.9-1.1c-1.4,0.5-2.8,1-4.2,1.6c-0.5,0.2-1.1,0.2-1.6,0c-0.5-0.2-1-0.4-1.6-0.6
			c-0.7-0.2-0.9-0.6-0.9-0.9c0-1.1-0.8-2.1-1.8-2.4c-0.1-0.1-0.2-0.3-0.3-0.4c-0.3-1.1-1.5-1.7-2.6-1.4c-0.1,0-0.1,0-0.2,0.1
			c-0.4,0.2-0.9,0-1.1-0.3c-0.1-0.1-0.3-0.3-0.4-0.4c-0.7-0.7-1.8-0.9-2.6-0.3c-0.5,0.3-0.7,0.4-0.8,0.3s-0.2-0.1-0.6-0.9
			c-0.3-0.7-0.8-1.3-1.5-1.6c-0.1-0.1-0.1-0.1-0.2-0.2l-0.1-0.1c-0.9-1.4-1.5-2.9-1.9-4.4c0.8-0.5,1.4-1.3,1.6-2.2
			c0-0.1,0-0.1,0-0.2c0.1-0.2,0.1-0.4,0.1-0.5c0-0.5,0.2-1.1,0.5-1.5c0.5-0.7,0.8-1.6,0.8-2.5c0.1-0.8-0.3-1.6-1-2
			c-1.6-1-3-2.2-4.2-3.6c-0.3-0.3-0.5-0.6-0.7-0.9c-0.6-1.1-1.9-1.6-3.1-1.3c-0.1,0-0.2,0-0.3,0.1c-0.1,0-0.1,0-0.2,0.1l-0.1-0.1
			c-0.3-0.4-0.5-0.7-0.5-1c0.1-2,0.6-3.9,1.7-5.6c0.6-0.9,1-1.9,1.1-2.9c0.1-0.5,0.2-0.9,0.4-1.3c0.4-0.9,0.2-1.9-0.3-2.7
			c-0.5-0.7-0.5-0.7,0.2-1.3l0,0c0.8,1,1.2,1,2.3,0.3c0.2-0.1,0.4-0.3,0.6-0.4c0.5-0.3,0.9-0.6,1.4-1c0.7-0.6,1.3-1.2,1.8-2
			c0.8-1.3,1.3-2.8,1.4-4.3c0-0.7,0-1.4-0.1-2.1c0-0.3-0.1-0.6-0.1-0.9c0-0.2,0-0.4,0-0.6c-0.1-0.4-0.1-0.9-0.1-1.3
			c0-0.9,0.4-1.8,1-2.5c0.4-0.4,0.6-0.9,0.7-1.4c0.2-0.8,0.3-1.6,0.4-2.3l0-0.3c0.3-0.9-0.2-1.9-1.1-2.2c-0.1,0-0.2,0-0.2-0.1
			c-0.2-0.1-0.4-0.1-0.6-0.2c-0.3-0.1-0.5-0.2-0.8-0.3c-0.1,0-0.2-0.1-0.2-0.1c0-0.1,0.1-0.1,0.1-0.2c0.3-0.6,0.4-1.3,0-1.9
			c-0.2-0.3-0.3-0.6-0.4-0.9c-0.1-0.2-0.2-0.5-0.3-0.7c-0.3-0.8-1.1-1.3-2-1.3c-1.1,0-2.3-0.1-3.8-0.2c-0.3,0-1-0.1-1-1.3
			c0-0.5-0.1-1-0.3-1.5c0-0.1-0.1-0.2-0.1-0.4c0.3-0.2,0.6-0.4,0.9-0.6c0.2-0.1,0.4-0.3,0.6-0.4c0.3-0.2,0.6-0.4,0.9-0.6
			c0.9-0.6,1.8-1.3,2.5-2.1c0.8-1,1.5-2.1,1.9-3.3c0.2-0.7,0.6-1.3,1-1.9c0.3-0.3,0.6-0.6,0.9-0.8l0.1-0.1c0.1,0,0.2-0.1,0.5,0.1
			c1.4,0.8,2.1,0.6,3.3-0.2c1.1-0.7,1.7-1.9,1.8-3.2c0.2-1.2,0.7-2.4,1.4-3.4l0.1-0.2c0,0,0,0,0.1-0.1c0.9-0.6,1.6-1.5,2.1-2.5
			c0.3-0.5,0.6-1.1,1-1.5c0.1-0.2,0.3-0.4,0.4-0.6c0.1-0.2,0.4-0.4,0.7-0.3c1.4,0.1,2.7-0.1,3.9-0.7c0.1-0.1,0.2-0.1,0.4-0.2
			c0.2-0.2,0.6-0.3,0.9-0.2l0.2,0.1l0.2-0.1c0.1-0.1,0.3-0.2,0.4-0.3c1-0.4,1.8-1.3,2-2.4c0.2-0.5,0.4-0.9,0.8-1.3
			c0.1,0,0.2-0.1,0.4,0c0.3,0,0.7,0,1,0.1c0.6,0.1,1.2,0.1,1.9,0c0.6-0.1,1.2-0.3,1.7-0.5c0.2-0.1,0.4-0.2,0.6-0.2
			c0.3-0.1,0.7-0.3,1-0.4c0.2-0.1,0.3-0.1,0.5-0.2c0.4-0.2,0.9-0.3,1.3-0.6c0.3-0.2,0.8-0.3,1.2-0.3c0.4,0,0.8,0.1,1.2,0.1
			c0.4,0,0.7,0,1.1,0.1c0.3,0.1,0.7,0.1,1,0.2c0.4,0.1,0.7,0.2,1.1,0.3c1.1,0.2,2.3,0.3,3.4,0.4c0.4,0,0.8-0.1,1.1-0.3
			c0.2-0.1,0.3-0.1,0.5-0.2l1.3-0.5l-1.2-0.6c-0.1-0.1-0.2-0.1-0.3-0.2c-0.2-0.1-0.4-0.2-0.6-0.2c-0.5,0-0.9-0.1-1.4-0.1
			c-0.9,0-1.8-0.1-2.6-0.3c0.3,0,0.5,0,0.8,0c0.4,0,0.7,0,1.1,0c0.5,0,1,0,1.4,0c0.4,0,0.7,0,1.1,0c0.7-0.1,1.4,0.2,1.9,0.7
			c0.7,0.7,1.7,1.1,2.7,1c0.5,0,1,0,1.6,0c1,0,1.9,0,2.9-0.1c1-0.1,2.1,0,3.1,0.2c0.7,0.1,1.5,0.3,2.2,0.4c1.3,0.2,2.6,0.4,3.9,0.7
			c2.9,0.7,5.7,1.8,8.2,3.3c1.1,0.6,2.2,1.1,3.4,1.5c1.3,0.4,2.5,1,3.5,1.8c1.2,0.9,2.6,1.6,4,1.8c0.6,0.1,1.2,0.4,1.7,0.7l0.4,0.2
			c2.8,1.5,5.3,3.4,7.6,5.5c5.3,5,9.9,11.3,14.4,19.7c4.5,8.5,7.9,17.6,10.2,27c0.1,0.4,0.2,0.8,0.4,1.3c0.2,0.8,0.9,1.5,1.7,1.6
			c0,0.1,0.1,0.1,0.1,0.2c0.1,0.2,0.2,0.5,0.3,0.7c0.2,0.4,0.3,0.8,0.5,1.2c0.1,0.2,0.1,0.3,0.1,0.5v0.7c0,1.1,0,2.2-0.2,3.3
			c-0.1,0.6-0.2,1.2-0.2,1.8c0,0.2,0,0.4,0,0.7l-0.1,0.9c-0.1,1-0.2,2-0.2,3l0,0.2c-0.1,1.4-0.2,2.8-0.2,4.2c0,0.3-0.1,0.7-0.4,0.9
			c-0.3,0.2-0.6,0.4-0.9,0.7c-0.2,0.2-0.4,0.3-0.6,0.5c-0.1,0.1-0.3,0.2-0.5,0.2c-0.2,0-0.4,0.1-0.6,0.1c-0.3,0-0.6,0.1-0.9,0.2
			c-0.8,0.2-1.4,0.7-1.7,1.5c-0.1,0.3-0.3,0.5-0.8,0.7c-0.6,0.3-1.1,0.6-1.6,0.9c-1.4,0.9-2.1,2.6-1.7,4.2c0.1,0.5,0.1,1,0,1.5
			c0,0.2,0,0.5,0,0.7c0,0.1,0,0.1,0,0.2c0,0.1,0,0.3,0,0.4c0,0.9-0.2,1.9-0.8,2.7c-0.2,0.3-0.3,0.7-0.5,1.1
			c-0.1,0.1-0.1,0.3-0.2,0.4c-0.1,0.2-0.1,0.3-0.2,0.5c-0.1,0.3-0.2,0.6-0.4,0.9c-0.6,1.1-0.8,2.4-0.4,3.6c0.1,0.2,0.1,0.5,0,0.7
			c0,0.1,0,0.2,0,0.4c-0.1,0.5,0.1,1.1,0.4,1.5c0.4,0.3,0.8,0.4,1.3,0.3l0.1,0.1c0.2,0.3,0.5,0.7,0.7,1c0,0,0,0.1-0.1,0.2
			c-1.8,3.3-3.8,6.5-6.1,9.5c-3.7,4.8-8.2,8.9-13.2,12.2c-1.8,1.2-3.8,2.1-5.9,2.7c-0.4,0.1-0.9,0-1.3-0.1c-0.2,0-0.3-0.1-0.5-0.1
			c-0.1,0-0.2-0.1-0.2-0.2h0.1c1.8,0,3.6-0.4,5.2-1.3c0.2-0.1,0.4-0.2,0.6-0.3c0.8,0,1.6-0.5,2.1-1.1c0.7-0.9,1.4-1.8,1.9-2.6
			c0.4-0.5,0.7-1,1.1-1.5c0.6-0.9,1.3-1.8,2-2.7c0.3-0.4,0.7-0.8,1.2-1.1c1.2-0.7,2-1.9,2.2-3.3c0.2-0.7,0.5-1.4,0.9-2.1
			c1.1-1.8,1.4-3.9,0.9-6l0-0.1c0-0.1,0-0.1,0-0.1c0.2-1,0.2-2,0.1-3c0-0.6-0.1-1.1,0-1.6c0.1-1.2-0.2-2.4-0.7-3.5
			c-0.2-0.5-0.3-1-0.1-1.5c0.1-0.2,0.1-0.5,0.2-0.7c0.1-0.4,0.2-0.9,0.5-1.2c0.4-0.7,0.5-1.6,0.2-2.3c0-0.1-0.1-0.2-0.1-0.4
			c0.2,0.5,0.3,1,0.4,1.6c0.1,0.8,0.1,1.6,0.2,2.3c0.1,0.9,0.5,1.8,1.2,2.5c0.4,0.4,1,0.6,1.5,0.5c0.5-0.2,0.9-0.6,1-1.1
			c0.2-0.6,0.3-1.3,0.2-1.9c-0.1-0.6,0.2-1.2,0.8-1.5c0.5-0.2,0.9-0.6,1.2-1.1c1.5-2.3,2.1-5.1,1.6-7.8c-0.1-0.4,0-0.9,0.3-1.3
			c0.4-0.6,0.8-1.2,1.2-2c0.3-0.4,0.7-0.8,1.2-1c0.4-0.2,0.8-0.4,1.2-0.6c0.3-0.2,0.7-0.4,1-0.6c0.4-0.2,0.7-0.4,1.2-0.5
			c1.1-0.2,2-0.9,2.5-2c0.4-1,0.3-2.1-0.3-3c-0.4-0.8-1.4-1.1-2.2-0.7c-0.1,0.1-0.2,0.1-0.3,0.2c-0.8,0.5-1.5,1.1-2.2,1.7l-0.3,0.2
			c-0.3,0.3-0.6,0.5-0.9,0.8l-0.1,0.1l-0.5-0.1c-0.6-0.2-1.2-0.3-1.7-0.4c-0.5-0.1-1,0-1.4,0.1c-0.8,0.2-1.4,0.9-1.5,1.7l-0.1,0.7
			c-0.4,2-0.6,4.1-0.5,6.2c0.1,0.5-0.1,1.1-0.5,1.5c-0.2,0.2-0.3,0.5-0.5,0.7c-0.1,0.1-0.1,0.2-0.2,0.4c0-0.2,0-0.3,0-0.5
			c0.1-0.8,0.1-1.7-0.1-2.5c-0.1-0.7-0.1-1.4,0.1-2.1c0.4-1.6,0.1-3.4-0.9-4.7c-0.1-0.1-0.1-0.2-0.2-0.3l-0.4-0.7l-0.5,0.4
			c-0.6,0.3-0.8,1-0.5,1.6c0,0,0,0.1,0,0.1c0.6,1.2,0.7,2.7,0.2,4c-0.1,0.5-0.1,1.1-0.1,1.7c0.1,0.4,0.1,0.8,0.1,1.3
			c0,1.1,0.2,2.2,0.5,3.2c0.1,0.5,0.4,0.8,0.9,1c0.4,0.1,0.9,0,1.2-0.2c0.4-0.3,0.7-0.6,1-1c0.2-0.3,0.4-0.5,0.6-0.8
			c0.2-0.2,0.3-0.5,0.5-0.7c0.2-0.3,0.4-0.6,0.6-1c0.2,2-0.3,3.9-1.4,5.6c-0.2,0.3-0.5,0.6-0.8,0.7c-1.2,0.5-1.9,1.7-1.7,3
			c0,0,0,0.1,0,0.1c-0.1-0.6-0.2-1.2-0.3-1.9c0-0.4-0.1-0.7-0.1-1.1c0-0.4-0.1-0.8-0.1-1.3c0-0.7-0.4-1.4-1-1.8
			c-0.5-0.3-1.1-0.4-1.6-0.2c-0.3,0.1-0.6,0.3-0.8,0.5c-0.1,0.1-0.2,0.3-0.3,0.4c-0.4,0.5-0.7,1.2-0.7,1.9c0,0.8-0.1,1.6-0.4,2.4
			l-0.1,0.3c0,0.1,0,0.2-0.1,0.3c-0.6,1.4-0.6,3.1,0,4.5c0.2,0.7,0.4,1.3,0.4,2c0,0.3,0.1,0.6,0.1,0.9c0.1,0.5,0.1,1,0.2,1.7
			c0,0.2,0,0.4,0,0.6c0,0.2,0,0.5,0,0.7l0,0.2c0,0.5,0.1,1,0.2,1.4c0.3,1.2,0.2,2.4-0.4,3.5c-0.7,1.3-1.3,2.6-1.6,4
			c-0.1,0.3-0.3,0.6-0.6,0.8c-1.4,0.9-2.6,2.2-3.4,3.6c-0.2,0.3-0.4,0.6-0.6,0.9c-0.6,0.8-1.2,1.7-1.8,2.5c-0.4,0.5-0.8,1.1-1.1,1.6
			c-0.4,0.5-0.7,0.7-1.1,0.7c-0.4,0-0.8,0.2-1.1,0.4l-0.1,0c-1.7,0.9-3.7,1.3-5.6,1.1c-0.2,0-0.2-0.1-0.3-0.2
			c-0.3-0.9-1.1-1.5-2-1.5c-0.3,0-0.5,0-0.8,0c-0.2,0-0.4,0-0.6,0l-0.3,0c-0.5,0-0.9-0.1-1.4-0.2c-1.3-0.2-2.6-0.2-3.9,0.3
			c-1.7,0.5-3.2,1.6-4.2,3c-0.6,0.7-1.3,1.3-2.1,1.7c-0.2,0.1-0.4,0.2-0.6,0.3c-0.5,0.3-0.9,0.5-1.4,0.7c-0.6,0.2-1.3,0.4-1.9,0.5
			l-0.4,0.1c-0.5,0.1-1.1,0.2-1.7,0.3c-0.3,0.1-0.5,0.1-0.8,0c-0.6-0.1-1.2-0.2-1.8-0.4l-0.8-0.2c-0.9-0.2-1.8-0.3-2.3,0.7
			c-0.4,1,0,2.2,0.9,2.8c0.2,0.2,0.5,0.3,0.8,0.3c0.4,0.1,0.9,0.2,1.3,0.3l0.4,0.1l0.4,0.1c0,0.1,0,0.1-0.1,0.2
			c-0.4,0.7-0.2,1.5,0.4,2c0.2,0.2,0.3,0.5,0.2,0.8c-0.2,1.1,0.3,2.1,1.3,2.6c0.1,0.1,0.2,0.2,0.2,0.5c0,0.1,0,0.2,0,0.2
			s0,0.1,0,0.2c-0.1,0.7,0.2,1.3,0.8,1.6c0.6,0.3,1.3,0.1,1.7-0.4c0.7-0.6,1.1-1.6,1.1-2.5c0-0.5-0.2-1-0.5-1.3
			c-0.1-0.2-0.3-0.3-0.5-0.5c-0.1-0.1-0.2-0.2-0.3-0.3l-0.1-0.1c-0.3-0.4-0.6-0.9-0.7-1.4c-0.1-0.3-0.1-0.5,0-0.8
			c0.2-0.2,0.5-0.4,0.8-0.4l0,0c0.1,0.1,0.2,0.2,0.3,0.2c0.4,0.3,0.6,0.5,0.6,0.8c0,0.3,0.2,0.7,0.4,0.9c0.1,0.1,0.1,0.2,0.2,0.3
			l0.3,0.6l0.6-0.3c0.6-0.3,1-0.9,1.3-1.5c0.1-0.1,0.1-0.3,0.2-0.4c0.2-0.3,0.4-0.6,0.8-0.9c0.6-0.4,1.1-1.1,1.3-1.8
			c0.3-0.7,0.7-1.5,1.1-2.1c0.1-0.1,0.3-0.2,0.4-0.2c0.5-0.1,1-0.1,1.5-0.1c0.7,0.1,1.4-0.4,1.7-1c0.5-0.8,1.1-1.5,1.9-2.1l0.3-0.3
			c0.3-0.3,0.7-0.3,0.9,0c0,0,0,0,0,0c0.7,0.6,1.6,0.8,2.5,0.5c0.5-0.1,1-0.2,1.5-0.3l0.2,0l0.3,0.4c0.4,0.4,0.7,0.9,1.1,1.3
			c0.2,0.2,0.5,0.4,0.8,0.6c-1.2-0.3-2.5-0.4-3.8-0.2c-0.1,0-0.2,0-0.3-0.1c-1.2-0.4-2.6,0-3.5,0.9c-0.9,0.8-1,2.2-0.2,3.2
			c0.3,0.3,0.7,0.6,1.2,0.7c0.5,0.1,1,0.2,1.5,0.3c0.2,0,0.4,0,0.5,0.1l0,0c-0.1,0.5,0,1,0.3,1.4c0.3,0.3,0.7,0.5,1.1,0.5
			c0.1,0,0.2,0,0.4,0c0.5-0.1,1-0.4,1.3-0.8c0.3-0.3,0.6-0.7,0.7-1c0.1-0.3,0.4-0.5,0.7-0.6c0.7-0.2,1.3-0.5,2-0.7l0.7-0.3
			c0.1,0,0.3-0.1,0.4-0.2c0.5-0.4,1-0.6,1.6-0.7c0.6-0.1,1-0.4,1.1-0.7c0.1,0,0.1,0,0.2,0c0.1,0,0.1,0,0.2,0l0.4-0.1
			c1.9-0.3,3.8-0.7,5.7-1c0.5-0.1,1,0,1.4,0.1c1.1,0.4,2.2,0.2,3.2-0.4l0.2-0.1c0.7-0.4,1.3-0.8,2-1.2c1.3-0.8,2.3-2.1,2.7-3.7
			c0.2,0,0.3-0.1,0.5-0.1c0.6-0.1,1.1-0.3,1.7-0.3c0.9-0.1,1.8-0.2,2.7-0.3c0.7-0.1,1.4-0.1,2.1-0.2c2.4-0.3,2.7-0.5,3.8-2.7
			c0.5-0.6,0.4-1.5-0.2-1.9c-0.3-0.2-0.7-0.4-1.1-0.3c-0.9-0.1-1.8-0.1-2.7,0h-0.2c-0.1,0-0.2,0-0.2,0c0-0.1-0.1-0.2-0.1-0.3
			c-0.1-0.3-0.1-0.7-0.1-1v-0.1c0.1-1.8-0.6-3.5-1.8-4.8c-0.3-0.4-0.8-0.6-1.2-0.6c-0.5,0.1-0.9,0.4-1.1,0.8c-0.6,1-1.4,1.8-2.3,2.6
			c1.8-2.1,3.5-4.4,5-6.8c0.3-0.5,0.6-1.1,0.9-1.6c0.2-0.4,0.4-0.8,0.7-1.2c0.2-0.3,0.4-0.6,0.7-0.9c1.2-1.4,1.2-2.2,0.3-3.6
			c-0.5-0.6-1-1.2-1.6-1.8c-0.2-0.2-0.5-0.3-0.8-0.3c0-0.1-0.1-0.2-0.1-0.3c-0.2-0.5-0.3-1-0.4-1.5c0-0.3,0-0.7,0.2-1
			c0.1-0.2,0.1-0.4,0.2-0.6c0.2-0.7,0.4-1.4,0.6-2c0.7-1.5,1.2-3.1,1.7-4.7l0.1-0.3c0.3-0.9,0.5-1.9,0.3-2.9
			c-0.1-0.7,0.2-1.3,0.8-1.6c0.2-0.1,0.5-0.3,0.7-0.4c0.3-0.2,0.6-0.4,0.9-0.6c0.5-0.3,0.8-0.7,1.1-1.1c0.3-0.7,0.8-1,1.9-1
			c0.7,0,1.4-0.3,1.8-0.8c0.3-0.3,0.7-0.6,1-0.8l0.3-0.2c0.7-0.4,1.1-1.2,1-2c0-0.4,0-0.8,0-1.1c0.1-1.3,0.2-2.7,0.2-4
			c0.1-1,0.1-2.1,0.2-3.1l0.1-0.9c0-0.1,0-0.2,0-0.3c0-0.2,0-0.4,0.1-0.6c0.4-1.6,0.6-3.3,0.4-5c0-0.6-0.2-1.1-0.4-1.6
			c-0.2-0.3-0.4-0.7-0.4-1.1c0.1-0.7-0.4-1.3-1.1-1.5c-0.1-0.1-0.3-0.2-0.4-0.3l-0.1-0.1c-0.7-3.9-1.7-7.7-3-11.4c0.4,0,0.8,0,1.2,0
			c0.2,0,0.5,0.4,0.7,0.6c0.3,0.3,0.5,0.7,0.8,1c0.5,0.6,1,1.3,1.5,1.8c1.1,1,2.3,2,3.5,2.9c0.3,0.2,0.6,0.6,0.7,1
			c0.3,0.9,0.6,1.8,1,2.6c0.5,1.1,1.5,1.8,2.7,2c1.1,0.2,1.9,1,2,2.1l0,0.2c0.1,0.5,0.2,0.9,0.3,1.4l0.1,0.4
			c0.1,0.6,0.4,1.2,0.6,1.8c0.7,1.5,1.2,3.2,1.3,4.8c0,0.6,0.1,1.2,0.3,1.8c0.3,1.1,0.3,2.4,0,3.5c-0.2,0.8-0.7,1.5-1.4,2
			c-0.3,0.3-0.7,0.5-1.1,0.7c-1,0.6-1.7,1.5-2.1,2.6C1572.6,765.2,1571.9,767.6,1571.4,770.1z M1486.8,838.4
			c-0.2-0.1-0.4-0.3-0.6-0.4c-0.3-0.2-0.5-0.4-0.8-0.6c-0.6-0.5-1.3-0.9-2-1.2c1.7,0.2,3.3,0.4,4.9,0.9c0.4,0.1,0.8,0.2,1.2,0.3
			c-0.8,0.2-1.6,0.6-2.2,1C1487.2,838.6,1487.1,838.6,1486.8,838.4z M1493.4,836.2c0.1-0.1,0.1-0.2,0.2-0.3c0.3-0.4,0.6-0.8,1-1.2v0
			c0.1,0.7-0.4,1.3-1.1,1.5L1493.4,836.2z M1495.7,833.3l0.4-0.4l0.2-0.3c0.5-0.6,1.3-0.9,2.1-0.9c0.8,0,1.6-0.1,2.3-0.2
			c0.3-0.1,0.7-0.1,1,0c-0.4,0.3-0.8,0.6-1.2,0.9c-0.1,0.1-0.3,0.1-0.5,0.1C1498.5,832.4,1497,832.7,1495.7,833.3L1495.7,833.3z
			 M1482,835.8c-0.7-0.1-1.4-0.2-2.2-0.2c-0.6,0-1.3,0-1.9,0.1c-0.6,0.1-1.3,0-1.8-0.5c-0.2-0.2-0.4-0.3-0.7-0.5
			c-0.1-0.1-0.2-0.2-0.4-0.2c-0.6-0.5-1.4-0.7-2.2-0.7c-0.3,0-0.5,0-0.8,0c-1.4-0.1-1.7-0.9-1.7-1.5c0-0.3-0.1-0.7-0.2-1
			c0.8,0.5,1.6,1.1,2.5,1.6c0.5,0.4,1.1,0.6,1.7,0.4l0.2-0.1c0.8-0.2,1.5-0.7,1.8-1.5c0.1-0.4,0.3-0.9,0.6-1.3l0,0c0,0,0,0,0,0
			c0.5,0.8,1.4,1.3,2.3,1.3c0.1,0,0.3,0,0.4,0.1c-0.5,0.4-0.6,1.1-0.4,1.6c0.2,0.6,0.8,1,1.4,1.1c0.3,0,0.6,0,0.9,0
			c0.2,0,0.4-0.1,0.5-0.1c0,0,0.1,0.1,0.1,0.1l-0.6,0.9L1482,835.8z M1505.2,830.6c0.5-0.3,1-0.6,1.5-0.7c1.3-0.4,2.5-1.1,3.5-2.1
			c0.8-0.7,1.6-1.3,2.5-1.8l0.1-0.1c1-0.6,2.2-1,3.4-1c0.3,0,0.4,0,0.5,0.1s0.1,0.2-0.1,0.5c-0.1,0.2-0.3,0.4-0.5,0.5
			c-0.5,0.2-1,0.4-1.6,0.5c-1.5,0.2-2.8,1.1-3.5,2.5c-0.2,0.4-0.4,0.8-0.7,1.2l0,0c-1-0.7-1.6-0.6-2.9,0.1c-0.3,0.2-0.6,0.3-0.9,0.4
			c-0.2,0.1-0.5,0.1-0.7,0C1505.6,830.7,1505.4,830.6,1505.2,830.6L1505.2,830.6z M1440,802.3L1440,802.3L1440,802.3z M1424.5,797.7
			c-0.1-0.7-0.1-1.4,0-2.2c0.8,0.2,1.5,0.6,2,1.2l0.1,0.1c0.5,0.5,1.1,0.7,1.8,0.7l0.3,0c0.4,0,0.8,0,1.3,0c0.6,0,1.1,0.1,1.6,0.5
			c0.3,0.3,0.6,0.5,1,0.7c-0.5-0.1-1-0.2-1.6-0.3c-1-0.2-2.1,0.1-2.8,0.9c-0.7,0.8-1.3,1.5-1.9,2.2c-0.3,0.4-0.4,0.8-0.4,1.2
			c0,0.6-0.1,1.2-0.4,1.7c-0.6,1.1-0.7,2.5-0.2,3.7c0.1,0.3,0.1,0.6,0.1,0.9c0,0.1,0,0.3,0,0.4c0,0.2,0,0.4,0,0.5c0,0.2,0,0.4,0,0.7
			c0,0.7,0.3,1.4,0.7,2c-0.2-0.1-0.5-0.1-0.7-0.2c-0.4,0-0.7-0.2-0.9-0.5c-0.4-0.5-0.9-0.8-1.4-1.1c-0.3-0.1-0.4-0.2-0.5-0.8
			c-0.1-0.4-0.1-0.8-0.2-1.3l-0.1-0.4l0,0c0.2-0.2,0.4-0.5,0.6-0.6c0.7-0.5,1.1-1.5,0.8-2.3c-0.3-0.8-0.6-1.6-1-2.3
			c-0.2-0.3-0.5-0.6-0.8-0.7v0l0,0c-0.1,0-0.2,0-0.2,0l0,0c-0.5,0-0.9,0.3-1.2,0.8c-0.1,0.1-0.1,0.3-0.2,0.4
			c-0.1-0.2-0.3-0.4-0.4-0.7c-0.3-0.4-0.5-0.8-0.8-1.1c0.4,0,0.7-0.1,1.1-0.3c0.5-0.3,1.1-0.4,1.6-0.3c0.6,0.1,1.2-0.1,1.6-0.6
			C1424.3,800,1424.6,798.8,1424.5,797.7L1424.5,797.7z M1428.7,815.8c0.4,0.5,1,0.7,1.6,0.6c0.7,0,0.7,0,0.9,0.7
			c0.1,0.4,0.3,0.8,0.5,1.2c0,0,0,0-0.1,0c-0.7-0.8-1.6-1.3-2.7-1.6c-0.1,0-0.1,0-0.2-0.2C1428.9,816.3,1428.8,816,1428.7,815.8
			L1428.7,815.8z M1421.4,807.2c0.3-0.5,0.4-1,0.5-1.6c0-0.2,0.1-0.4,0.1-0.5c0.1,0.3,0.2,0.5,0.3,0.8c0.2,0.3,0,0.7-0.3,0.8
			c-0.3,0.2-0.5,0.4-0.8,0.7L1421.4,807.2z M1437.5,822.7c0.5,0,1,0.1,1.5,0.3l0,0.3c0,0,0,0,0,0c-0.3,0.1-0.5,0.2-0.7,0.4
			L1437.5,822.7z M1421.2,793.5c0.3,0.7,0.3,1.5-0.1,2.1c-0.2,0.3-0.3,0.7-0.3,1c0,0.1,0,0.1,0,0.2c-0.4-0.2-0.8-0.5-1.2-0.8
			l-0.2-0.2c-0.1-0.1-0.3-0.2-0.4-0.3c-0.2-0.2-0.4-0.3-0.6-0.4c-0.5-0.4-1.1-0.5-1.7-0.6c-0.2,0-0.4,0-0.6,0.1
			c-0.3,0.1-0.6,0.1-0.9,0.2c-0.4,0.1-0.9,0.2-1.3,0.3c-0.1,0-0.2,0-0.2,0c-0.5-0.3-1-0.4-1.5-0.3h-0.1c-0.5,0-1,0-1.5,0.1
			c-0.8,0-1.5,0.1-2.3,0.1c-0.2,0-0.3,0-0.4-0.2c-0.3-0.5-0.5-1-0.7-1.5c-0.2-0.6-0.4-1.1-0.7-1.7c0.7,0.7,1.5,1.3,2.4,1.7
			c0.3,0.2,0.7,0.3,1.1,0.3c0.7,0,1.4,0,2.1,0h0.7c0.1,0,0.3,0,0.4,0c0.2,0,0.4,0,0.5,0h0.2c0.6,0.1,1.2,0,1.7-0.3
			c0.1,0,0.2,0,0.3,0c0.1,0,0.2,0,0.3,0c0.7,0.1,1.4-0.4,1.6-1.1c0.1-0.4,0.4-0.7,0.8-0.8c0.7-0.2,1-0.9,0.8-1.6
			c0-0.1-0.1-0.3-0.1-0.4c-0.1-0.2-0.1-0.5-0.1-0.7c0-0.4-0.1-0.7-0.1-1.1c0.7,1,1.8,1.6,3.1,1.7c0.5,0,1,0.1,1.5,0.2
			c0.7,0.2,1.4,0.5,2,0.8c-0.2,0.1-0.5,0.2-0.6,0.3c-0.4,0.4-1,0.5-1.8,0.5l-0.1,0c-0.3,0-0.6,0.1-0.9,0.2c-0.5,0.1-0.8,0.4-1.1,0.9
			C1421,792.7,1421,793.1,1421.2,793.5L1421.2,793.5z M1420.8,807.5l0.3,0.1l-0.1,0.1c-0.1,0.1-0.3,0.3-0.4,0.4c0,0,0-0.1,0-0.1
			c0-0.2,0-0.3,0-0.5C1420.6,807.4,1420.7,807.5,1420.8,807.5L1420.8,807.5z M1403,765.5c0.1,0.2,0,0.5-0.2,0.6l-0.2,0.3
			c-0.4,0.5-0.8,0.9-1.3,1.3c-2,1.6-3,4.2-2.5,6.7l0,0.3c0.1,0.5,0.1,1,0.2,1.5c0,0.2,0.1,0.4,0.3,0.6c0,0.1,0.1,0.1,0.1,0.2
			l0.6,1.2c-0.5-0.4-0.8-0.9-1-1.5c-0.1-0.6-0.7-1-1.3-1c0,0-0.1,0-0.1,0l0,0c0.1-0.5,0.2-1,0.3-1.5c0.3-1.1,0.3-2.3,0.1-3.4
			c0-0.7-0.6-1.2-1.3-1.2c-0.1,0-0.2,0-0.4,0.1c-0.2,0-0.3,0.1-0.5,0.1c0.3-0.5,0.6-0.9,1-1.4c0.5-0.5,0.9-1.2,1-2
			c0.3-1.1,0.7-2.1,1.3-3.1c0.1-0.2,0.2-0.3,0.2-0.3c0,0,0.1,0,0.4,0.1c0.5,0.2,0.9,0.4,1.4,0.7c0.2,0.1,0.5,0.2,0.7,0.3
			c0.3,0.1,0.6,0.3,0.9,0.4l0.1,0.1l0,0C1402.9,765,1402.9,765.2,1403,765.5L1403,765.5z M1400.1,778.3l0.2-0.7c0.3,0.4,0.6,0.7,1,1
			c0,0,0,0,0,0c0,0.1,0,0.1-0.1,0.2c0,0,0,0.1-0.1,0.1c0,0,0,0-0.1,0C1400.8,778.8,1400.4,778.6,1400.1,778.3L1400.1,778.3z
			 M1395.3,772.1c0.3-0.1,0.6-0.2,0.9-0.3c0.1,0.3,0.1,0.7,0,1c-0.1,0.5-0.3,1.1-0.4,1.6l-0.1,0.5c-0.1,0.3-0.1,0.7-0.1,1
			c-0.2-0.3-0.4-0.6-0.6-0.9c-0.5-0.7-0.8-1.6-0.9-2.5c0-0.2,0-0.3-0.1-0.5C1394.4,772.2,1394.9,772.2,1395.3,772.1L1395.3,772.1z
			 M1472.9,676.3c0.9,0.3,1.8,0.4,2.7,0.3c-0.6,0.2-1.1,0.2-1.7,0.2c-0.8,0-1.6,0.1-2.4,0.3l-0.1,0c-0.1,0-0.2,0.1-0.3,0.1
			c0.5-0.3,1-0.5,1.5-0.8l0.1-0.1C1472.7,676.4,1472.8,676.3,1472.9,676.3L1472.9,676.3z M1447.9,714.9c0.1,0.6,0.5,1.1,1,1.4
			c0.4,0.2,0.8,0.4,1.3,0.5c0.1,0,0.3,0.1,0.4,0.1c0.2,0.1,0.3,0.1,0.5,0.2l0,0.1c-0.1,0.5-0.2,0.9-0.2,1.4
			c-0.1,0.7-0.3,1.4-0.8,1.9c-1,1.4-1.4,3.1-1.1,4.8l0,0.1c0.2,1.2,0.2,2.4-0.1,3.6c-0.3,1-0.6,1.9-1,2.9c-0.3,0.5-0.6,0.9-1.1,1.2
			c-0.5,0.4-1.1,0.9-1.7,1.3l-0.3,0.2c-0.2-0.3-0.6-0.6-1-0.7c-0.4,0-0.9,0.2-1.1,0.5c-0.3,0.3-0.6,0.5-0.8,0.9
			c-0.8,0.8-0.8,2.1,0,3c0.3,0.3,0.4,0.9,0.2,1.3c-0.2,0.5-0.4,1.1-0.4,1.7c-0.1,0.7-0.3,1.4-0.7,2l-0.2,0.3
			c-0.2,0.3-0.3,0.5-0.4,0.8c-0.6,1.1-1,2.2-1.1,3.4c0,0.4-0.1,0.8-0.2,1.3c-0.3,1.2-0.1,2.4,0.7,3.3c0.4,0.7,1.3,1.1,2.1,0.9
			c0.7-0.2,1.2,0,1.7,0.8c0.5,0.7,1,1.3,1.7,1.8c1,0.8,2,1.6,3.3,2.5c0.3,0.2,0.2,0.3,0.2,0.4c-0.1,0.4-0.3,0.9-0.6,1.2
			c-0.5,0.6-0.7,1.4-0.7,2.1c0.1,0.8-0.3,1.5-1,1.9c-0.8,0.6-0.9,0.9-0.5,1.8c0.1,0.2,0.1,0.5,0.2,0.7c0.1,0.4,0.3,0.8,0.4,1.3
			c0.5,1.1,1,2.3,1.5,3.2c0.3,0.6,0.8,1.2,1.4,1.4c0.1,0.1,0.2,0.2,0.2,0.3l0,0.1c0.1,0.1,0.1,0.2,0.2,0.3c0.1,0.1,0.1,0.2,0.2,0.3
			c0.9,1.5,1.9,1.9,3.5,1.1c0.1-0.1,0.3-0.1,0.4-0.2c0.1,0.1,0.3,0.2,0.4,0.3c0.2,0.2,0.4,0.3,0.5,0.5c0.6,0.6,1.6,0.8,2.4,0.5
			c0.2-0.1,0.6-0.2,0.6-0.2c0.1,0.2,0.3,0.3,0.4,0.5c0.3,0.5,0.9,0.9,1.5,1c0.3,0,0.6,0.3,0.6,0.6c0.1,1.4,1.2,2.4,2.6,2.6
			c0.3,0.1,0.6,0.2,0.9,0.3c0.8,0.4,1.8,0.4,2.6,0.1c0.9-0.4,1.9-0.7,2.8-1.1l1.4-0.5c0.1-0.1,0.2-0.1,0.4-0.1
			c0.2-0.1,0.3-0.1,0.5-0.1c0,0,0.1,0.1,0.2,0.4c0.3,1,1.2,1.7,2.3,1.8c0.7,0.1,1.5,0.2,2.2,0.3c-0.6,0.1-1.1,0.3-1.6,0.5
			c-0.6,0.3-1.1,0.9-1.2,1.6c-0.1,0.6,0.2,1.2,0.6,1.6c-0.4,0-0.7-0.1-1-0.4c-0.5-0.5-0.9-1.2-1-1.9l0-0.3c0-0.3-0.1-0.6-0.2-0.9
			c-0.2-0.8-1-1.3-1.8-1.3c-0.1,0-0.1,0-0.2,0c-0.3,0-0.6,0-0.9,0c-0.2,0-0.3,0-0.5,0l-0.2,0c-0.2,0-0.5,0-0.7,0
			c-1.3,0.1-2.4,1.2-2.3,2.5c0,0,0,0,0,0.1c0,0.1,0,0.3,0,0.4c0.1,0.5-0.1,1-0.4,1.4c-0.2,0-0.3,0-0.5,0c-0.1,0-0.2-0.1-0.2-0.1
			c-0.2-0.3-0.4-0.5-0.7-0.8c-0.7-0.8-1.3-1.6-1.7-2.6c-0.3-0.7-0.9-1.3-1.7-1.5c-0.5-0.2-0.9-0.5-1.2-0.9c-0.6-0.9-1.6-1.5-2.7-1.6
			c-1.2-0.2-2.3-0.7-3.2-1.4l-0.1-0.1c-0.8-0.5-1.7-1.1-2.5-1.7c-0.5-0.3-0.9-0.7-1.4-1c-0.8-0.6-1.5-1.3-2-2.1
			c-0.4-0.6-0.7-1.2-1.1-1.7c-0.5-0.8-0.9-1.5-1.4-2.3c-1-1.6-1.5-3.4-1.7-5.2c-0.4-2.7-1.6-5.3-3.6-7.2l-0.1-0.1
			c-0.1-0.1-0.1-0.1-0.2-0.2c-1.1-0.7-1.5-2.1-1-3.3c0.2-0.6,0.3-1.3,0.3-1.9l0-0.2c0.2-1.6,0.6-3.2,1.3-4.8
			c0.2-0.5,0.4-1.1,0.6-1.6c0.7-1.9,1.1-4,1.2-6c0-1.1,0.6-2.2,1.4-2.9c0.4-0.4,0.7-0.8,1-1.2c0.1-0.2,0.3-0.4,0.4-0.5
			s0.3-0.4,0.4-0.6c0.3-0.5,0.7-0.9,1-1.3c1.1-1.3,1.6-2.9,1.4-4.6c0-0.7-0.1-1.3-0.2-1.9c-0.1-0.4-0.1-0.7-0.2-1.1
			c-0.1-1-0.2-1.9-0.3-2.7c0-0.8-0.3-1.6-0.8-2.3l-0.1-0.1c-0.2-0.2-0.3-0.4-0.4-0.6c-0.4-1.2-1.1-2.3-2-3.3l-0.2-0.3
			c-0.6-0.8-0.9-1.7-1.1-2.6l0-0.1l0.1,0.1c0.4,0.6,1.1,0.9,1.8,0.9c0.6,0,1.3,0,1.9,0c0.6,0,1.3,0,2,0.1c0.2,0,0.5,0,0.5,0
			c0.1,0.2,0.2,0.3,0.2,0.5c0,0,0,0.1,0.1,0.1c0,0.2,0.1,0.3,0.2,0.5c0.3,0.4,0.3,0.6,0,0.9C1448,713.9,1447.8,714.4,1447.9,714.9
			L1447.9,714.9z M1470.1,677.9l-0.2,0.2c-0.6,0.6-0.9,1.4-1,2.2c-0.1,0.6-0.6,1-1.1,0.9c-0.5,0-1,0.1-1.5,0.3
			c-1.2,0.5-2.5,0.7-3.8,0.4c-0.8-0.2-1.7,0.1-2.2,0.8c-0.6,0.8-1.1,1.6-1.7,2.3l-0.6,0.8c-0.1,0.1-0.2,0.2-0.2,0.3
			c-0.1,0.1-0.2,0.3-0.2,0.4c-1.5,1.7-2.4,3.8-2.6,6c-0.1,0.8-0.6,1.5-1.3,1.9c-0.2,0.1-0.4,0.1-0.6,0c-0.6-0.5-1.4-0.7-2.2-0.6
			c-0.9,0.2-1.7,0.8-2.2,1.6c-0.4,0.8-0.8,1.6-1.1,2.4c-0.4,1.2-1.1,2.2-2.1,3.1l-0.1,0.1c-0.7,0.3-1.4,0.7-2,1.2
			c-0.1,0.1-0.2,0.2-0.4,0.3c0.2-0.5,0.4-1,0.6-1.4c0.3-1.1,0.9-2.1,1.7-2.9c0.3-0.4,0.6-0.8,0.8-1.2l0-0.1c0.2-0.5,0.5-0.9,0.8-1.4
			c0.6-1.1,1.2-2.1,1.7-3.3c0.7-1.7,1.8-3.1,3.1-4.3c0.3-0.3,0.7-0.6,0.9-1c0.2-0.3,0.4-0.5,0.7-0.8c0.9-0.8,1.4-2,1.4-3.2
			c0-1,0.9-1.9,2-1.8c0,0,0.1,0,0.1,0c0.9,0,1.8-0.3,2.5-0.9c0.1-0.1,0.2-0.2,0.4-0.2c0.1,0,0.1,0,0.2,0c0.4,0.1,0.9,0.2,1.3,0.2
			c0.3,0,0.5,0.1,0.8,0.1c0.7,0.2,1.5-0.1,1.9-0.7c0.5-0.6,1.3-1,2.1-1.1c1.6-0.1,3.2-0.6,4.7-1.4
			C1470.3,677.6,1470.2,677.8,1470.1,677.9L1470.1,677.9z M1528.9,812.3c1.1-0.5,2.2-1,3.3-1.5c1.7-0.8,3.5-1.6,5.3-2.5
			c1.7-1,3.3-2.1,4.7-3.5l0.3-0.3c0.9-0.8,1.7-1.6,2.5-2.4c-0.2,1-0.9,2-1.8,2.5c-0.6,0.4-1.2,0.9-1.6,1.5c-0.3,0.4-0.7,0.8-1.1,0.9
			c-0.3,0.1-0.6,0.2-0.8,0.3s-0.6,0.2-0.9,0.3c-0.3,0.1-0.5,0.2-0.7,0.4l-0.1,0c-0.1,0.1-0.2,0.1-0.4,0.2c-0.2,0.1-0.3,0.2-0.5,0.3
			c-0.4,0.2-0.7,0.3-1.1,0.4c-0.7,0.3-1.4,0.6-2.1,1c-1.3,0.8-2.7,1.4-4.1,2c-0.5,0.2-1,0.3-1.5,0.4
			C1528.6,812.4,1528.8,812.4,1528.9,812.3z M1548.2,805.4c-0.3,0.1-0.7,0.2-1,0.2c-0.7,0.1-1.2,0.8-1.1,1.5c0,0,0,0.1,0,0.1
			c0.1,0.5-0.2,1.1-0.6,1.4c-1,0.8-2.1,1.6-3.4,2.5c-0.2,0.1-0.4,0.2-0.7,0.1c-1.1-0.2-2.3-0.2-3.4,0.1c-0.6,0.1-1.2,0.3-1.9,0.4
			c0.7-0.3,1.5-0.5,2.4-0.8c0.5-0.1,0.9-0.4,1.2-0.8c0.1-0.1,0.2-0.1,0.3-0.2c0.2-0.1,0.5-0.2,0.7-0.3c0.2-0.1,0.4-0.1,0.6-0.2
			c1-0.3,1.8-1.1,2.2-2.1c0.1-0.3,0.4-0.5,0.6-0.7c1.4-0.9,2.3-2.3,2.7-3.9c0.1-0.5,0.5-1,0.9-1.2c1.7-0.9,3.1-2.1,4.2-3.6
			c0.4,0.5,0.6,1.1,0.7,1.7c0.1,0.8,0.1,1.6,0.2,2.4c-0.1,1.2,0.9,2.3,2.1,2.4c0.2,0,0.4,0,0.5,0c0.4,0,0.9-0.1,1.3-0.1
			c-0.1,0.3-0.3,0.3-0.9,0.4c-0.7,0.1-1.4,0.1-2.1,0.2c-1,0.1-2,0.1-3,0.3C1549.9,805,1549.1,805.1,1548.2,805.4L1548.2,805.4z
			 M1527.8,814.4c-0.4,0.2-0.9,0.3-1.3,0.4l-0.1,0c-0.8,0.2-1.4,0.7-1.9,1.3c0-0.1,0-0.2-0.1-0.3c-0.2-0.3-0.5-0.6-0.9-0.6
			c-0.3-0.1-0.6-0.1-0.9-0.2c-0.2,0-0.4,0-0.5-0.1l-0.1,0c-0.4-0.1-0.9-0.2-1.3-0.3c0,0-0.1,0-0.1,0c0,0,0,0,0.1-0.1
			c0.4-0.4,0.9-0.7,1.5-0.5c0.3,0.1,0.7,0.1,1,0.1c1.2-0.2,2.4-0.2,3.5,0.1l0.4,0.1C1527.4,814.3,1527.6,814.4,1527.8,814.4
			L1527.8,814.4z M1557.3,759.4c0.5-0.5,1.1-0.9,1.6-1.4l0.5-0.4c0.1-0.1,0.1-0.1,0.2-0.1c0.1,0.1,0.1,0.3,0.1,0.4
			c-0.3,0.9-0.8,1-0.9,1C1558.3,759,1557.7,759.2,1557.3,759.4L1557.3,759.4z M1551.8,762.4c0.1-0.6,0.2-1.2,0.3-1.9
			c0-0.4,0.1-0.5,0.3-0.5c0,0,0.1,0,0.2,0c0.5,0,1.1,0.1,1.6,0.4c0.3,0.2,0.7,0.3,1.1,0.3c-0.2,0.1-0.4,0.2-0.6,0.3
			c-0.8,0.4-1.5,1.1-1.9,1.9c-0.2,0.5-0.5,0.9-0.8,1.3c-0.2,0.3-0.4,0.5-0.5,0.8C1551.5,764.1,1551.7,763.3,1551.8,762.4
			L1551.8,762.4z M1523.2,808.4c-0.4,0.1-0.7,0.2-1.1,0.3c-0.2,0-0.4,0-0.6-0.2c0,0-0.1,0-0.1-0.1c0.2,0,0.4,0,0.6,0
			c0.3,0,0.6,0,0.9,0C1523.1,808.4,1523.2,808.4,1523.2,808.4L1523.2,808.4z M1503.8,818.2c0-0.1-0.1-0.1-0.1-0.2
			c0-0.2,0.1-0.3,0.1-0.5c0.2-0.5,0.2-1,0-1.5c-0.3-0.4-0.9-0.7-1.4-0.7c-0.2,0-0.4-0.1-0.6-0.1c-0.5-0.1-0.9-0.1-1.3-0.2
			c-0.2,0-0.5-0.2-0.6-0.4c0.8,0.1,1.7,0.3,2.4,0.4c0.7,0.2,1.5,0.2,2.3,0c0.4-0.1,0.7-0.2,1.1-0.2l0.2,0c2.4-0.3,4.7-1.3,6.6-2.8
			c0.6-0.5,1.2-1,1.6-1.7c0.6-0.7,1.4-1.3,2.3-1.6c0.7-0.3,1.4-0.5,2.2-0.5c-0.2,0.1-0.4,0.3-0.6,0.4c-0.1,0.1-0.3,0.2-0.4,0.4
			c-0.9,0.6-1.6,1.5-2.1,2.4c0,0.1,0,0.1-0.3,0.1c-0.3,0-0.7,0-1,0h-0.2h0c-0.9,0-1.7,0.4-2.1,1.2c-0.4,0.7-0.8,1.3-1.2,1.9
			l-0.3,0.5c-0.1,0.1-0.1,0.2-0.2,0.3c-0.5,0.4-0.9,0.7-1.4,1.1l-0.2,0.2c-0.1-0.1-0.3-0.2-0.4-0.3c-0.6-0.7-1.7-0.9-2.5-0.3
			C1504.2,816.7,1503.8,817.2,1503.8,818.2L1503.8,818.2z M1504.5,820.9c-0.1,0-0.1-0.1-0.1-0.2
			C1504.4,820.8,1504.4,820.9,1504.5,820.9L1504.5,820.9z"/>
		<path id="パス_281" class="st0" d="M1577.8,790.1c-0.1-0.4-0.2-0.8-0.4-1.1c-0.9-1.5-2.8-2.2-4.5-1.7c-0.6,0.2-1.1,0.5-1.4,1.1
			l-0.2,0.3c-0.6,0.9-1.4,1.7-2.3,2.3c-1.4,0.7-2.4,2-2.7,3.5c-0.2,1-0.5,2-0.7,3c-0.3,1.5,0.4,2.9,1.7,3.7c0.6,0.4,1.3,0.6,2,0.7
			c0.8,0,1.5-0.3,2.1-0.9c0.9-0.7,1.8-1.5,2.7-2.3c2.7-2.3,3.5-5.6,3.9-8.1l0-0.1l0-0.1C1577.9,790.3,1577.8,790.2,1577.8,790.1z
			 M1573.4,789.7c0.1-0.2,0.2-0.2,0.7-0.2l0.1,0c0,0,0.1,0,0.1,0c0.4,0,0.9,0.2,1.1,0.6c0.1,0.1,0.2,0.3,0.2,0.5
			c-0.4,2-0.9,3.9-2.3,5.3c-1.3,1.2-2.6,2.2-3.9,3.2c-0.2,0.1-0.5,0.1-0.8,0c-0.4-0.2-0.7-0.6-0.8-1c0-0.4,0-0.7,0.1-1.1l0-0.2
			c0-0.2,0.1-0.5,0.1-0.7c0.1-0.3,0.1-0.5,0.2-0.8c0.2-1.1,0.8-2.1,1.8-2.6c0.1-0.1,0.2-0.1,0.3-0.2c0.1-0.1,0.3-0.2,0.4-0.3
			C1572,791.6,1572.8,790.7,1573.4,789.7L1573.4,789.7z"/>
		<path id="パス_282" class="st0" d="M1483.8,816.9c1.2-1.4,2.4-2.9,3.6-4.3c0.3-0.3,0.4-0.8,0.4-1.3c-0.1-0.5-0.4-0.9-0.8-1.1
			c-0.5-0.4-1.1-0.6-1.7-0.8c-0.6-0.2-1.2-0.3-1.7-0.4s-1.1-0.2-1.7-0.4c-0.5-0.1-0.9-0.2-1.4-0.2c-0.9,0-1.8-0.3-2.4-1
			c-0.1-0.1-0.2-0.2-0.3-0.2c-1.1-0.6-2.5-0.3-3.1,0.8c-0.2,0.3-0.3,0.7-0.3,1.1c0,0.3,0,0.6,0,0.8c0.1,0.2-0.1,0.5-0.3,0.5
			c0,0,0,0,0,0c-0.6,0.2-1.2,0.7-1.4,1.3l-1,0.7l-0.4-0.2c-0.6-0.2-1.2-0.5-1.7-0.7c-0.1,0-0.1,0-0.2-0.1c0-0.1,0-0.2,0-0.3
			c0.3-0.9-0.1-1.8-1-2.2c-0.1,0-0.2-0.1-0.3-0.1c-1.1-0.3-2.2-0.6-3.3-0.8c-0.2,0-0.4-0.1-0.6-0.1c-1,0-2-0.4-2.8-0.9
			c-1-0.6-2.1-0.7-3.2-0.5l-0.3,0c-0.8,0.1-1.5,0.7-1.9,1.4l-0.5-0.2c-0.7-0.3-1.4-0.6-2.1-1c-1.7-0.9-3.8-0.5-5.1,1
			c-0.4,0.4-0.5,0.4-0.8,0.4c-0.3-0.1-0.7-0.1-1,0.1c-0.3,0.2-0.5,0.1-1,0l-0.1,0c-1.1-0.3-2.3-0.1-3.3,0.6c-0.6,0.4-1.2,0.7-1.8,1
			c-0.3,0.1-0.6,0.3-0.9,0.4l-0.3,0.2l0,0.4c0,0.4,0.2,0.8,0.5,1.1c0.3,0.2,0.8,0.2,1.1,0l0.3-0.1c0.5-0.2,1-0.4,1.5-0.7
			c0.9-0.5,1.9-0.6,2.8-0.2c0.4,0.1,0.8,0.1,1.2,0.1c0.6-0.1,1.2-0.3,1.7-0.4l0.3-0.1c1.1-0.1,2.1-0.7,2.8-1.6c0,0,0.1-0.1,0.2,0
			c0.4,0,0.7,0.1,1.1,0.2c1.2,0.4,2.3,0.8,3.3,1.2c0.5,0.2,0.9,0.4,1.3,0.7c0.8,0.7,1.8,1,2.9,1c0.2,0,0.5,0,0.7,0
			c0.2,0,0.4,0,0.6,0c1.9,0.1,3.2,0.4,4.2,1.6c0.3,0.4,0.4,0.6,0.4,0.9c0,0.2,0,0.3,0,0.5v0.1c0.1,1.1,0.7,2.1,1.6,2.6
			c0.9,0.5,2.1,0.4,2.9-0.2c1.2-0.6,2.2-1.7,2.8-2.9c0-0.1,0.1-0.1,0.1-0.2l4.8-0.2l0.1,0.2c0.2,0.4,0.5,0.8,0.8,1.2
			c0.2,0.2,0.3,0.5,0.2,0.7c-0.1,0.4,0,0.9,0.2,1.3c0.3,0.3,0.8,0.5,1.2,0.4h0.1C1481.9,818.2,1483.1,817.8,1483.8,816.9z
			 M1480.6,814.4c-0.2-0.3-0.4-0.6-0.6-0.9c-0.2-0.8-0.9-1.3-1.7-1.3c-0.2,0-0.4,0-0.6,0.1c-0.8,0.1-1.5,0.1-2.3-0.1
			c0.8-0.6,1.2-1.7,0.9-2.6c-0.1-0.4,0-0.4,0.1-0.4c0.1,0,0.3-0.1,0.6,0.2c0.1,0.1,0.2,0.1,0.2,0.2l0.1,0.1c0.6,0.5,1.3,0.8,2.1,0.8
			c1.9,0.1,3.8,0.6,5.6,1.4l-0.6,0.8c-0.7,0.9-1.4,1.8-2.1,2.7c-0.3,0.4-0.7,0.7-1.2,0.8C1481.2,815.5,1481,814.9,1480.6,814.4z
			 M1469.1,813.7c0.2,0.1,0.3,0.1,0.5,0.2c0.3,0.1,0.7,0.2,1,0.4c-0.3,0.6-0.9,1-1.5,1.3c-0.2,0.1-0.5,0.2-0.8,0.1
			c-0.1-0.1-0.2-0.3-0.2-0.5c-0.1-1.4-0.9-2.7-2.1-3.5c-1.1-0.8-2.5-1.2-3.9-1.2c-0.1,0-0.3,0-0.4,0c-0.1,0-0.2,0-0.3,0
			c-0.2,0-0.3,0-0.5,0c-1.2,0-2.1-0.1-2.8-0.9c-0.2-0.2-0.4-0.4-0.7-0.6c0.4-0.3,0.9-0.5,1.4-0.4c0.8,0,1.5,0.2,2.1,0.7
			c0.8,0.7,1.9,1.1,2.9,1.2c0.9,0.2,1.8,0.3,2.6,0.5l0.6,0.1C1467,812.6,1467.5,813.1,1469.1,813.7L1469.1,813.7z"/>
		<path id="パス_283" class="st0" d="M1457.7,813.8c-1.4-1.2-3-2.1-4.7-2.8c-1.5-0.7-3.3-0.4-4.7,0.6c-0.1,0.1-0.3,0.1-0.4,0.1
			c-0.4,0-0.7,0-1.1,0c-0.4,0-0.7,0-1.1,0h0c-1,0-1.9,0.4-2.5,1.2c-0.6,0.8-0.8,1.9-0.4,2.8c0.1,0.3,0.2,0.7,0.3,1
			c0.1,0.5,0.2,1,0.4,1.4l0.1,0.2c0.2,0.7,0.5,1.3,1,1.8c0.7,0.7,1,1.6,0.9,2.5c0,0.5,0.1,1.1,0.2,1.6c0.3,1.3,0.5,2.6,0.5,3.9
			c0,0.3,0,0.6,0.1,0.9c0.1,0.8,0.8,1.4,1.7,1.4c0.2,0,0.3,0,0.5,0c0.2,0,0.3-0.1,0.5-0.2l0.9-0.3c0.7-0.3,1.4-0.5,2.1-0.8l0.1-0.1
			c0.4-0.1,0.7-0.3,1.1-0.5c0.8-0.4,1.1-1.5,0.7-2.3c-0.2-0.3-0.5-0.6-0.8-0.7c-0.2-0.1-0.4-0.2-0.7-0.3s-0.4-0.2-0.6-0.3
			c-0.5-0.3-0.9-0.6-1.4-0.9c-0.2-0.2-0.4-0.4-0.7-0.6l-0.2-0.2c0-0.2,0-0.3,0.1-0.5c0.3-0.8,0.2-1.8-0.4-2.4
			c-0.1-0.1-0.1-0.2-0.2-0.3c-0.3-0.4-0.4-1-0.3-1.5c0.3-0.5,0.7-0.8,1.2-0.9c0.2-0.1,0.5-0.2,0.8-0.2c0.7,0,1.5,0.1,2.2,0.1l0.2,0
			c0.8,0,1.6,0.4,2.1,1c0.7,0.7,1.6,1,2.5,1.1c0.8,0.1,1.6-0.4,1.8-1.2c0.3-0.7,0.3-1.4,0-2.1
			C1459.1,815.3,1458.5,814.5,1457.7,813.8z M1447.7,816.7c-0.2,0.2-0.5,0.3-0.7,0.5c-0.1,0.1-0.2,0.2-0.3,0.3l-0.4,0.3l0.2,0.4
			c0.1,0.4,0.2,0.7,0.3,1.1c0,0.9,0.4,1.7,0.9,2.3c0,0,0,0.1,0,0.4c-0.1,0.5-0.2,1-0.2,1.5c-0.1,0.6,0.3,1.2,0.9,1.3h0
			c0.9,0.9,1.9,1.6,3.1,2.1c0,0,0,0-0.1,0c-1,0.4-1.9,0.7-2.9,1.1l-0.5,0.2l-0.1,0c0,0,0-0.1,0-0.1l0-0.1c0,0,0-0.1,0-0.1
			c0-1.2-0.2-2.4-0.4-3.6c-0.1-0.3-0.1-0.5-0.2-0.8c-0.1-0.5-0.1-1-0.1-1.4c0-1.3-0.4-2.5-1.3-3.5c-0.3-0.4-0.4-0.8-0.5-1.2
			c-0.1-0.5-0.2-0.9-0.3-1.4c-0.1-0.4-0.2-0.7-0.2-1.1c-0.1-0.3,0-0.7,0.2-1c0.2-0.3,0.5-0.4,0.9-0.4c0,0,0.1,0,0.1,0
			c0.8,0.1,1.6,0.1,2.4,0.1c0.5,0,0.9-0.2,1.3-0.5c0.7-0.6,1.7-0.7,2.5-0.3c0.8,0.3,1.5,0.6,2.1,1c0.2,0.1,0.4,0.3,0.6,0.4
			c0.8,0.4,1.6,1.1,2.1,1.8c0.2,0.4,0.4,0.7,0.5,1.1c-0.4,0-0.9-0.2-1.2-0.5c-2.2-1.9-4.7-1.6-7.1-1.1c-0.4,0.1-0.9,0.4-1.2,0.7
			C1447.9,816.6,1447.8,816.7,1447.7,816.7L1447.7,816.7z"/>
		<path id="パス_284" class="st0" d="M1548.2,722.9c-0.4-0.1-0.8-0.2-1.1-0.3c-0.9-0.3-1.8-0.5-2.7-0.7c-0.9-0.3-1.9-0.1-2.7,0.4
			c-0.6,0.6-0.9,1.5-0.8,2.3v0.1c0,0,0,0.1,0,0.1c0,0.4,0,0.8,0.1,1.3c0,1,0.1,2.1,0.2,3.2c0.1,0.7,0.3,1.4,0.6,2
			c0.3,0.6,0.6,1.1,0.9,1.7c0.3,0.5,0.6,1,0.9,1.5c0.2,0.5,0.4,1,0.5,1.6c0.1,0.3,0.1,0.7,0.2,1c0,0.2,0.1,0.5,0.1,0.7
			c0,0.1,0,0.2,0.1,0.4c0.1,0.5,0.2,1,0.1,1.5c-0.1,0.3-0.1,0.5-0.1,0.8c0,0.1,0,0.3,0,0.4c-0.1,0.6-0.2,1.2-0.4,1.8
			c-0.1,0.2-0.1,0.4-0.2,0.6c0,0.1-0.1,0.2-0.1,0.3c-0.3,1-0.4,2-0.4,3c-0.1,0.6,0.3,1.2,0.8,1.5c0.2,0.1,0.3,0.1,0.5,0.1
			c0.4,0,0.9-0.3,1.1-0.6c0.3-0.4,0.6-0.7,0.9-1.1c1.5-2.5,2.6-5.1,3.3-7.9c0.4-1.2,0.4-2.5,0.1-3.8c-0.2-0.9-0.4-1.7-0.6-2.6
			c-0.1-0.5-0.2-1-0.3-1.6c0-0.3-0.1-0.5-0.3-0.7c-0.2-0.3-0.4-0.7-0.4-1c0-0.1,0-0.2-0.1-0.3l0,0l0.1,0.1c0.9,0.5,2,0.8,3,0.9
			c0.4,0.1,0.9,0,1.2-0.3c0.3-0.3,0.5-0.8,0.4-1.2c0-1-0.3-2-1-2.7C1551,724.3,1549.7,723.4,1548.2,722.9z M1547.4,726.6
			c-0.7,0.2-1.3,0.8-1.5,1.6c-0.3,0.7-0.2,1.5,0.2,2.1c1.2,1.4,2,3.2,2.2,5c0.2,0.9,0.1,1.8-0.1,2.6c-0.7,2.5-1.7,4.9-3,7.2
			c0-0.2,0.1-0.5,0.2-0.7c0.5-1.4,0.8-2.9,0.9-4.4l0-0.4c0-0.5,0-1-0.1-1.5c0-0.1,0-0.3-0.1-0.4l0-0.5c0-0.6-0.1-1.1-0.2-1.7
			c-0.2-0.7-0.4-1.4-0.7-2c-0.3-0.6-0.6-1.2-1-1.8c-0.3-0.5-0.6-1-0.8-1.5c-0.2-0.3-0.3-0.7-0.3-1.1c-0.1-1.3-0.2-2.6-0.2-4.4
			c0-0.6,0.1-0.8,0.1-0.9c0,0,0.1-0.1,0.4-0.1c0.2,0,0.4,0,0.6,0.1c1.3,0.2,2.6,0.6,3.8,1l0.3,0.1c1.1,0.4,2.1,1.1,2.8,2
			c0.1,0.2,0.2,0.3,0.2,0.5c-0.5-0.1-0.9-0.2-1.4-0.4c-0.1,0-0.2-0.1-0.3-0.1c-0.2-0.1-0.5-0.2-0.7-0.3
			C1548.2,726.6,1547.8,726.6,1547.4,726.6z"/>
		<path id="パス_285" class="st0" d="M1534.9,696.9l0.1,0.1c0.3,0.3,0.6,0.6,0.9,0.9c0.5,0.5,0.9,1,1.4,1.5
			c0.4,0.4,0.7,0.9,1.1,1.3l0.5,0.8c0.9,1.4,1.8,2.8,2.6,4.2c1.3,2.1,1.8,4.5,1.5,6.9c0,0.1,0,0.2-0.1,0.3c-0.1,0.3-0.1,0.5-0.1,0.8
			c-0.2,1.2,0.6,2.4,1.8,2.6c0.4,0.1,0.8,0.4,1,0.8c0.5,0.7,1.1,1.4,1.7,2.1c1,1,1.8,2.1,2.5,3.3c0.2,0.3,0.4,0.6,0.7,0.8
			c0.2,0.2,0.5,0.3,0.9,0.3c0.1,0,0.2,0,0.3,0c0.4-0.1,0.7-0.4,0.8-0.8c0.1-0.4,0.2-0.8,0.3-1.2c0-0.1,0-0.2,0.1-0.3l0-0.1v-0.1
			c0-1.2-0.3-2.3-0.8-3.3c-0.4-0.7-0.7-1.4-1-2.1l-0.2-0.4c-0.1-0.2-0.1-0.4-0.2-0.5c-0.2-0.8-0.7-1.5-1.2-2.1
			c-0.1-0.1-0.1-0.2-0.2-0.3c0-0.1-0.1-0.2-0.1-0.3c-0.2-0.4-0.4-0.8-0.5-1.2c-0.2-0.9-0.8-1.8-1.5-2.5c-0.1-0.1-0.1-0.2-0.1-0.3
			l0-0.1c-0.2-0.5-0.4-1.1-0.6-1.6c-0.5-1.4-1.2-2.7-2.1-3.8c-0.3-0.4-0.7-0.8-1.1-1.2c-0.4-0.4-0.8-0.9-1.2-1.4
			c-0.3-0.3-0.5-0.7-0.7-1c-0.2-0.2-0.3-0.5-0.5-0.7l-0.1-0.2c-0.2-0.3-0.5-0.7-0.8-0.9c-0.5-0.4-1-0.8-1.5-1.2
			c-0.3-0.3-0.7-0.5-1-0.8c-0.2-0.2-0.5-0.4-0.7-0.6l-0.2-0.2c-0.5-0.5-1.3-0.6-1.8-0.1c0,0,0,0,0,0c-0.3,0.4-0.4,1-0.3,1.5
			C1534.4,696.4,1534.6,696.7,1534.9,696.9z M1543.1,704.2L1543.1,704.2c0.3,0.6,0.6,1.1,0.9,1.6c0.4,0.5,0.7,1.1,0.9,1.7
			c0.2,1.2,0.8,2.2,1.7,3.1c0.1,0.1,0.1,0.2,0.1,0.3c0.4,1.4,1,2.6,1.9,3.7c0.2,0.3,0.4,0.6,0.5,1c0.1,0.2,0.1,0.4,0.2,0.6
			c0.1,0.3,0.3,0.6,0.4,0.9c0.3,0.6,0.5,1.2,0.8,1.8c0.3,0.6,0.5,1.4,0.5,2.1c-0.7-1.1-1.4-2.1-2.3-3l-0.1-0.1
			c-0.6-0.6-1.1-1.3-1.6-2c-0.4-0.6-1.1-1.1-1.8-1.4c-0.5-0.2-0.5-0.2-0.4-0.8c0.6-3.2-0.1-6.4-1.9-9.1c-0.4-0.6-0.8-1.2-1.2-1.8
			l0.7,0.7L1543.1,704.2z"/>
		<path id="パス_286" class="st0" d="M1442.6,796.8c1.2,1,2.6,1.7,4.1,2.1c0.5,0.1,0.9,0.3,1.3,0.5c0.5,0.3,1,0.7,1.4,1
			c0.4,0.3,0.7,0.5,1.1,0.8c1.5,1,3.1,1.8,4.9,2.2c0.2,0,0.3,0.1,0.5,0.1c0.7,0,1.4-0.4,1.7-1c0.4-0.7,0.2-1.6-0.4-2.1
			c-0.5-0.6-1.1-1.1-1.7-1.5c-1.2-0.8-2.5-1.7-3.8-2.4l-0.6-0.4c-0.7-0.4-1.2-0.9-1.6-1.6c-0.6-1.3-1.9-2.1-3.3-1.9
			c-0.4,0-0.7,0-0.9-0.7c-0.1-0.4-0.2-0.8-0.2-1.2c0-0.5,0-1,0-1.4c-0.1-0.9,0-1.8,0.1-2.7c0.1-0.4,0.1-0.8,0-1.1
			c0-0.5-0.4-0.9-0.8-1.1c-0.5-0.2-1,0-1.3,0.3c-0.3,0.3-0.5,0.6-0.6,1c-0.1,0.3-0.2,0.5-0.2,0.8c0,0.1,0,0.2-0.1,0.3
			c-0.1,0.4-0.2,0.7-0.3,1.1c-0.2,0.9-0.4,1.8-0.6,2.7v0c0-0.5-0.1-1.1-0.1-1.6c0-0.2-0.1-0.4-0.2-0.5c0,0-0.1-0.1-0.1-0.1l-0.3-0.4
			l-0.5,0.3c-0.5,0.3-0.9,0.8-1.2,1.3c-0.1,0.1-0.1,0.2-0.2,0.3c-0.1-0.4-0.1-0.8-0.2-1.2c0-0.2-0.1-0.4-0.1-0.6
			c0-0.3-0.1-0.7-0.1-1c-0.2-0.7-0.8-1.2-1.5-1.2c-0.7,0-1.3,0.5-1.3,1.1l0,0.1c-0.1,0.2-0.1,0.4-0.1,0.7l0,0.3
			c0.1,0.9,0.2,1.9,0.4,2.8c0.1,0.4,0.1,0.7,0.2,1.1c0.2,0.8,0.3,1.7,0.3,2.5c-0.1,1.9,0.6,3.8,1.8,5.4c0.3,0.5,0.8,0.9,1.4,0.9h0.2
			l0.2-0.2c0.5-0.5,0.6-1.2,0.5-1.9l0-0.1c-0.2-1.1-0.1-2.2,0.2-3.2c0.2-0.6,0.4-1.2,0.5-1.8c0,0.2,0,0.4,0,0.5
			C1441.1,795,1441.6,796.1,1442.6,796.8z M1439,794.2c-0.1,0.3-0.2,0.6-0.3,1c-0.1,0.4-0.1,0.9-0.1,1.3c-0.2-0.4-0.3-0.9-0.3-1.3
			c0-0.6-0.1-1.3-0.2-1.9l0.3,0.7l0.5-1.4c0.1-0.5,0.3-0.9,0.6-1.3c0,0.8-0.1,1.6-0.4,2.4C1439.2,793.9,1439.1,794.1,1439,794.2
			L1439,794.2z M1443.5,793c0.3,0.8,1,1.4,1.9,1.5c0.5,0.1,0.9,0.1,1.4,0.1c0.4,0,0.5,0.1,0.5,0.2c1.2,1.7,2.8,3.2,4.7,4.2
			c0.2,0.1,0.5,0.3,0.7,0.4c0.4,0.3,0.9,0.6,1.4,0.9c-1.7-0.7-3.3-1.6-4.8-2.7c-0.6-0.4-1.3-0.7-2.1-0.9c-1.2-0.3-2.3-0.9-3.3-1.6
			c-0.5-0.3-0.8-0.9-0.7-1.5c0-0.8,0-1.6-0.1-2.4l0-0.6c0-0.7,0.1-1.5,0.3-2.2c0,0.3-0.1,0.6-0.1,0.9
			C1443,790.6,1443.1,791.9,1443.5,793L1443.5,793z"/>
		<path id="パス_287" class="st0" d="M1527.7,787.9c-0.4,0.3-0.7,0.8-0.7,1.3c0.1,0.7,0.6,1,1.5,1c0.2,0,0.3,0,0.5,0
			c0.1,0,0.1,0,0.2,0c0.2,0,0.3,0,0.5,0c0,0.3-0.1,0.7-0.3,0.9c-0.7,0.9-1.3,1.8-2,2.7c-0.3,0.4-0.5,0.7-0.8,1.1
			c-0.7,1-1.5,1.9-2.4,2.7c-0.8,0.7-1.5,1.5-2.2,2.2l-0.4,0.5c-0.7,0.6-0.9,1.5-0.5,2.3c0.4,0.8,1.3,1.2,2.2,1.1
			c0.5,0,1-0.1,1.5-0.3c0.7-0.2,1.5-0.1,2.1,0.4c0.2,0.2,0.4,0.3,0.7,0.5c0.2,0.2,0.5,0.3,0.7,0.5c0.3,0.2,0.6,0.3,0.9,0.3
			c0.4,0,0.7-0.1,1-0.4c0.3-0.2,0.5-0.5,0.8-0.7c0.2-0.1,0.3-0.3,0.5-0.4c0.5-0.5,1.1-0.9,1.6-1.4c0.2-0.2,0.4-0.3,0.6-0.5
			c0.5-0.4,0.9-0.7,1.3-1.2c0.7-0.8,1.3-1.6,1.8-2.5c0.3-0.4,0.3-0.9,0.1-1.3c-0.3-0.5-0.8-0.7-1.3-0.7c-0.5,0-1,0-1.4,0.1
			c0.2-0.5,0.3-1,0.3-1.5c0-0.5,0.2-1,0.6-1.2l0.2-0.1c0.2-0.1,0.4-0.3,0.6-0.4c0.5-0.4,0.7-1,0.7-1.5c0-0.6-0.3-1.1-0.8-1.4
			c-0.3-0.2-0.4-0.5-0.4-0.8c0-0.1,0-0.2,0-0.3c0-0.1,0-0.3,0-0.4c0.1-1.2-0.3-2.4-1.2-3.3c-0.1-0.1-0.2-0.2-0.4-0.3
			s-0.2-0.2-0.4-0.3c-0.3-0.3-0.7-0.5-1.1-0.5c-0.4,0.1-0.8,0.3-1,0.6c-0.3,0.5-0.6,1-0.8,1.5c-0.1,0.4-0.4,0.7-0.8,0.8
			C1529,787,1528.3,787.4,1527.7,787.9z M1534.8,791.3c-0.2,0.2-0.4,0.4-0.7,0.6c-0.9,0.6-1.4,1.6-1.4,2.7c0,0.7-0.1,0.8-0.9,1.1
			l-0.3,0.1c-0.5,0.1-0.9,0.3-1.4,0.5c-0.9,0.3-1.3,1.3-1,2.2c0,0.1,0,0.1,0.1,0.2c0.4,0.9,1.4,1.3,2.3,0.9c0,0,0.1,0,0.1,0
			c0.7-0.3,1.3-0.6,1.9-1.1c0.4-0.3,0.9-0.5,1.3-0.6c0,0.1-0.1,0.1-0.1,0.2c-0.9,0.9-1.7,1.8-2.6,2.6c-0.5,0.5-1,0.9-1.5,1.3
			c-0.3,0.2-0.5,0.4-0.8,0.7c-0.3,0.2-0.5,0.5-0.8,0.7l0,0l-0.2-0.1c-0.4-0.3-0.8-0.5-1.1-0.8c-0.7-0.6-1.6-0.9-2.5-0.9
			c-0.3,0-0.7,0-1,0.1c-0.4,0.1-0.7,0.2-1.1,0.2c-0.2,0.1-0.4,0-0.6-0.1c0.1-0.1,0.1-0.2,0.2-0.3c0.5-0.5,0.9-0.9,1.4-1.4
			c0.5-0.5,1.1-1.1,1.6-1.6c0.7-0.7,1.3-1.4,1.8-2.1c0.8-1,1.5-2.1,2.2-3.1c0.4-0.6,0.8-1.1,1.2-1.7c0.5-0.6,0.6-1.5,0.2-2.3
			c-0.1-0.3-0.3-0.5-0.6-0.7c0.8-0.3,1.4-1,1.6-1.9c0.1-0.2,0.2-0.4,0.3-0.6c0.2,0.1,0.4,0.3,0.5,0.5c0.4,0.5,0.6,1.1,0.6,1.7
			C1533.5,789.4,1533.9,790.6,1534.8,791.3L1534.8,791.3z"/>
		<path id="パス_288" class="st0" d="M1569.2,764.4c-0.5-0.2-1-0.2-1.5,0c-0.5,0.2-1.1,0.5-1.5,0.9c-0.2,0.2-0.4,0.3-0.6,0.5
			c-0.1,0.1-0.2,0.2-0.3,0.3c-0.4,0.3-0.6,0.3-0.7,0.2c-0.2-0.1-0.4-0.2-0.6-0.3c-0.4-0.1-0.7-0.3-1.1-0.4l-0.1,0
			c-0.6-0.4-1.4-0.2-1.7,0.4c0,0,0,0,0,0.1l-0.3,0.4l0.6,0.8c0.3,0.4,0.5,0.7,0.8,1c0.7,0.8,0.7,1,0.2,1.9c-0.1,0.2-0.2,0.3-0.3,0.5
			l-0.5,0.8c-0.3,0.6-0.7,1.1-1,1.7c-0.3,0.5-0.5,1.1-0.3,1.7c0.2,0.6,0.6,1.1,1.2,1.3c0.2,0.1,0.4,0.2,0.7,0.3
			c0.1,0,0.2,0.1,0.3,0.1s0.3,0.1,0.4,0.2c0,0.1,0,0.3-0.1,0.4c-0.1,0.4-0.2,0.8-0.2,1.1l0,0.2c-0.2,0.9-0.4,1.8-0.6,2.7l-0.1,0.4
			c-0.1,0.4-0.2,0.8-0.3,1.1c-0.3,0.6-0.2,1.2,0.2,1.7c0.1,0.1,0.2,0.2,0.3,0.3l0,0.2l0.1-0.1c0.2,0.1,0.4,0.2,0.7,0.2
			c0.2,0,0.4,0,0.6-0.1c0.9-0.3,1.6-0.8,2.2-1.5c0.7-1,1.2-2.2,1.3-3.5c0.1-0.7,0.2-1.4,0.4-2c0.2-0.6,0.4-1.2,0.6-1.8
			c0.2-0.5,0.4-0.9,0.5-1.4c0.4-1.3,0.9-2.5,1.3-3.8l0.5-1.6c0.4-1.1,0.3-2.3,0-3.4C1570,765.1,1569.7,764.7,1569.2,764.4z
			 M1563.8,782c0.4-1.4,0.7-2.8,1-4.2c0.1-0.4,0.1-0.7,0.2-1.1c0.1-0.9-0.4-1.7-1.2-2l-0.4-0.2c-0.2-0.1-0.4-0.2-0.6-0.3
			c-0.1-0.1-0.3-0.1-0.4-0.2c0.1-0.2,0.2-0.4,0.3-0.6l0.4-0.9c0.5-1,1-2,1.4-2.9c0.1-0.3,0.2-0.6,0.2-0.9c0-0.1,0-0.3,0.1-0.4l0-0.1
			c0.5,0,1.1-0.3,1.5-0.6c0.1-0.1,0.3-0.2,0.4-0.4c0.2-0.2,0.4-0.3,0.6-0.5c0.3-0.3,0.7-0.5,1.1-0.6c0.2,0.7,0.2,1.4,0,2.1
			c-0.6,1.8-1.3,3.7-2,5.6c-0.1,0.4-0.3,0.7-0.4,1.1c-0.2,0.6-0.5,1.1-0.6,1.7c-0.2,0.9-0.4,1.8-0.5,2.7
			C1564.8,780.4,1564.4,781.3,1563.8,782L1563.8,782z"/>
		<path id="パス_289" class="st0" d="M1548.1,817.2c-0.3-0.1-0.7-0.3-1-0.3l-0.2-0.1l-0.1-0.1c-0.2-0.2-0.4-0.5-0.6-0.7
			c-0.7-0.8-1.8-1.2-2.9-1c-0.4,0.1-0.9,0-1.2-0.3c-0.8-0.5-1.9-0.6-2.8-0.2c-0.6,0.3-1.3,0.5-1.9,0.7c-0.3,0.1-0.6,0.2-0.9,0.3
			c-0.2,0.1-0.3,0.1-0.5,0.2c-0.4,0.2-0.7,0.6-0.8,1.1c-0.1,0.5,0.1,1,0.4,1.3c0.3,0.3,0.7,0.6,1.1,0.7l0.1,0
			c0.9,0.1,1.8,0.2,2.7,0.2l0.1,0c0.5-0.1,1,0,1.5,0.2c0.2,0.1,0.5,0.2,0.7,0.2c0,0,0.1,0,0.1,0c0.4,0,0.5,0.1,0.5,0.6
			c0,0.6,0.1,1.1,0.3,1.7c0.1,0.3,0.1,0.7,0,1l0,0.2c-0.3,0.8-0.4,1.7-0.2,2.6c0.1,0.3,0.1,0.5-0.6,0.7l-0.4,0.1
			c-0.5,0.1-1,0.3-1.5,0.6c-0.5,0.3-1,0.6-1.4,1.1c-0.5,0.5-0.6,1.4-0.2,2c0.2,0.3,0.6,0.5,1,0.5c0.2,0,0.5,0,0.7-0.1
			c0.2-0.1,0.5-0.1,0.7-0.2c0.7-0.2,1.4-0.4,2.1-0.7c1.2-0.4,2.2-1.4,2.6-2.6c0.2-0.5,0.4-1,0.6-1.4l0.2-0.4
			c0.5-0.8,0.9-1.6,1.1-2.5c0-0.1,0.1-0.3,0.2-0.4c0.1-0.1,0.2-0.3,0.2-0.5l0.2-0.4c0.3-0.7,0.6-1.5,0.9-2.2c0.3-0.6,0-1.4-0.6-1.7
			C1548.2,817.2,1548.1,817.2,1548.1,817.2z M1544.7,823.2c0.4-0.9,0.3-1.8-0.1-2.7c-0.1-0.2-0.2-0.5-0.2-0.8l0-0.1
			c-0.1-0.9-0.7-1.7-1.6-1.9c-0.2-0.1-0.4-0.2-0.7-0.3c-0.3-0.1-0.5-0.3-0.8-0.4c-0.5-0.2-1.1-0.3-1.6-0.3c-0.2,0-0.3,0-0.5,0
			c0.4-0.2,0.7-0.3,1.1-0.5c0.2,0,0.5,0,0.6,0.1l0.1,0c0.7,0.4,1.5,0.6,2.4,0.7h0c0.6,0.1,1.2,0.4,1.5,1c0.3,0.7,1.1,1,1.8,0.8
			c0.1,0,0.2,0,0.3,0c-0.2,0.6-0.4,1.2-0.7,1.7c-0.2,0.4-0.4,0.7-0.5,1.1c-0.1,0.2-0.2,0.4-0.3,0.6c-0.1,0.3-0.2,0.5-0.4,0.7
			s-0.2,0.5-0.3,0.7c-0.1,0.2-0.2,0.4-0.3,0.6c-0.1,0.3-0.3,0.6-0.4,0.9C1544.2,824.6,1544.4,823.9,1544.7,823.2z"/>
		<path id="パス_290" class="st0" d="M1496.5,814.6c-0.2-0.1-0.3-0.3-0.5-0.5c-0.4-0.7-1.1-1-1.9-0.9c-0.8,0.1-1.7,0.2-2.5,0.3
			c-0.4,0.1-0.8,0.4-1,0.8c-0.2,0.6,0.2,1.2,0.7,1.3c0,0,0,0,0,0c0.5,0.2,1.1,0.5,1.7,0.8c0,0,0,0,0,0c0,0.1,0,0.2,0,0.3
			c0,0.5-0.2,1-0.4,1.5c-0.1,0.2-0.2,0.3-0.3,0.5c-0.4,0.6-0.7,1.3-1,2c-0.2,0.8-0.7,1.5-1.2,2c-0.8,0.7-1.6,1.4-2.2,2
			c-0.3,0.4-0.8,0.6-1.3,0.8l-3.5,0.8l-0.1,0.4c-0.1,1.1,0,1.8,1.4,2c0.3,0,0.5,0.1,0.8,0.1c0.2,0,0.4,0,0.6,0.1
			c0.5,0.1,0.9,0.1,1.4,0.1c0.7,0,1.4,0.1,2.1,0.3c0.2,0.1,0.5,0.1,0.8,0.1c0.9,0,1.6-0.5,2-1.3c0.1-0.1,0.2-0.3,0.3-0.4
			c0.1-0.2,0.2-0.4,0.4-0.6c0.7-1.1,1.2-2.3,1.3-3.6c0-0.4,0.2-0.8,0.6-1c0.2-0.1,0.4-0.3,0.6-0.4c0.9-0.5,1.5-1.5,1.5-2.6
			c0-0.6,0.1-1.3,0.4-1.8C1497.7,816.6,1497.4,815.3,1496.5,814.6z M1494.9,819.4c0,0.4-0.2,0.7-0.5,0.9l-0.1,0.1
			c-0.3,0.2-0.6,0.3-0.8,0.6c0.2-0.5,0.5-1.1,0.8-1.6c0.6-1.1,0.9-2.3,0.8-3.6c0.2,0.2,0.4,0.4,0.5,0.6c0.1,0.1,0.1,0.3,0,0.4
			C1495.1,817.6,1494.8,818.5,1494.9,819.4L1494.9,819.4z M1490.2,825.5c0.4-0.5,0.9-0.9,1.3-1.3c0.2-0.2,0.4-0.4,0.5-0.6
			c-0.3,1.1-0.7,2.2-1.4,3.1l-0.2,0.3c0,0.1-0.2,0.3-0.5,0.2c-0.4-0.1-0.9-0.2-1.3-0.4C1489.3,826.4,1489.8,826,1490.2,825.5
			L1490.2,825.5z"/>
		<path id="パス_291" class="st0" d="M1519.3,796.3c0.1,0,0.2,0,0.3,0c0.3,0,0.6-0.1,0.9-0.3c0.7-0.4,1.2-0.9,1.7-1.5
			c0.7-0.9,1.2-1.9,1.8-2.9l0.3-0.5c0.3-0.5,0.6-0.9,1.1-1.2c0.5-0.3,0.9-0.7,1.2-1.2c0.3-0.4,0.5-0.9,0.8-1.3
			c0.2-0.4,0.4-0.8,0.7-1.1c1.4-2.2,2-4.9,1.7-7.5c0-0.6-0.3-1.2-0.8-1.7c-1-1-2.3-1.6-3.6-1.9c-1-0.3-2.1,0.3-2.4,1.3
			c-0.2,0.5-0.3,1-0.4,1.5c0,0.6-0.1,1-0.1,1.3c-0.2,1.2,0,1.5,1,2.7l-0.2,0.4c-0.3,0.5-0.5,0.9-0.8,1.4c-0.3,0.5-0.4,1.2-0.2,1.8
			c0,0.1,0,0.2,0,0.3c-0.6,1.9-1.6,3.6-2.7,5.2l-0.3,0.4c-0.3,0.3-0.5,0.7-0.8,1.1c-0.6,0.8-0.7,1.9-0.2,2.8
			C1518.5,795.8,1518.9,796.1,1519.3,796.3z M1524.3,785.6c0.1-0.2,0.1-0.5,0.1-0.7c-0.1-0.4,0-0.6,0.4-1.1c0.1-0.2,0.2-0.3,0.3-0.5
			c0-0.1,0.1-0.1,0.1-0.2c0.1-0.1,0.2-0.3,0.3-0.4c0.4-0.5,0.2-1.3-0.3-1.7c-0.1,0-0.1-0.1-0.1-0.1l-0.1-0.1c-0.6-0.6-0.9-1-0.7-1.6
			c0.1-0.3,0.1-0.6,0.2-0.9c0-0.2,0-0.4,0.1-0.5c0.1-0.3,0.2-0.5,0.2-0.5c0,0,0.1,0,0.1,0c0.1,0,0.2,0,0.3,0.1
			c0.7,0.3,1.5,0.7,2.2,1.1l0.3,0.2c0.1,0.1,0.2,0.3,0.2,0.7c0.2,2-0.3,4.1-1.3,5.9c-0.3,0.5-0.6,1-0.9,1.5
			c-0.2,0.3-0.3,0.6-0.5,0.9c-0.2,0.4-0.5,0.7-0.9,0.9c-0.7,0.3-1.3,0.9-1.6,1.6c-0.8,1.3-1.4,2.3-2.1,3.2c-0.1,0.2-0.3,0.4-0.5,0.5
			c0-0.1,0.1-0.1,0.1-0.2c0.2-0.2,0.3-0.5,0.5-0.7c0.6-0.8,1-1.6,1.5-2.5c0.5-1.1,1-2.2,1.4-3.4
			C1524,786.5,1524.1,786.1,1524.3,785.6L1524.3,785.6z"/>
		<path id="パス_292" class="st0" d="M1504.1,807.7l0.9,0.1c0.4,0,0.9,0.1,1.4,0.1c0.5,0,1,0.1,1.5,0.3c0.5,0.4,1.1,0.6,1.7,0.6
			c0.6,0,1.3-0.2,1.8-0.6c1.7-1.1,3.1-2.5,4.1-4.1c0.5-0.7,0.8-1.6,0.9-2.4c0.1-1.6-0.3-3.2-1-4.6c-0.3-0.7-1.1-1.2-1.8-1
			c-1.6,0.3-3.1,1.1-4.2,2.3c-0.5,0.5-0.6,1.3-0.2,1.9l0.1,0.2l0.3,0.1c0.1,0,0.3,0.1,0.4,0c0.3-0.1,0.6-0.1,0.9-0.2l0.3-0.1
			c0.5-0.1,0.5,0,0.7,0.3l-0.1,0c-0.2,0-0.4,0.1-0.6,0.2c-2.4,1.3-4.7,2.8-6.9,4.5c-0.7,0.4-1,1.4-0.5,2.1c0,0,0,0,0,0L1504.1,807.7
			z M1513.6,801.8c0.4-0.5,0.6-1.1,0.4-1.7c-0.2-0.7-0.6-1.4-1.3-1.7c0.2-0.1,0.4-0.1,0.7-0.2l0.2-0.1c0.3,0.5,0.5,1.1,0.6,1.7
			c0.1,0.5,0.2,1,0.3,1.5c0,0.2,0,0.4-0.1,0.6c-0.6,1.4-1.6,2.6-2.8,3.5c-0.5,0.4-1,0.7-1.5,1.1l-0.3,0.2c-0.3,0.2-0.4,0.1-0.4,0
			c-0.6-0.5-1.4-0.9-2.2-1c0.1-0.1,0.2-0.1,0.2-0.2c1.3-0.9,2.7-1.8,4.5-2.9c0,0,0.1,0,0.2,0
			C1512.7,802.5,1513.3,802.3,1513.6,801.8L1513.6,801.8z"/>
		<path id="パス_293" class="st0" d="M1454.7,732.6c-0.7-0.1-1.3,0.3-1.6,0.9c-0.1,0.1-0.2,0.3-0.2,0.5l-0.2,0.6
			c-0.2,0.6-0.5,1.3-0.7,1.9l0,0.1c0,0.1-0.1,0.2-0.1,0.2c-0.3,0.1-0.5,0.3-0.7,0.5c-1.3,1.7-2.7,3.6-2.5,6.2
			c-0.1,1.5,0.2,2.9,0.9,4.2c0.6,1.2,0.9,2.5,1.1,3.9c0,0.4,0.2,0.8,0.4,1.1c0.3,0.4,0.7,0.7,1.2,0.7c0,0,0.1,0,0.1,0
			c0.5-0.1,1-0.4,1.1-0.9c0.2-0.4,0.2-0.8,0.2-1.2l0-0.4c0-0.9-0.1-1.7-0.3-2.6c-0.4-1.9-0.3-3.8,0.3-5.6c0.2-0.6,0.4-1.2,0.5-1.9
			c0.1-0.4,0.2-0.8,0.3-1.2c0.2-0.8,0.5-1.6,0.8-2.4c0.4-0.9,0.6-2,0.6-3C1455.7,733.7,1455.6,732.8,1454.7,732.6z M1451,746.2
			c-0.4-1-0.6-2.1-0.6-3.2c0-1,0.2-1.9,0.7-2.7c0.2-0.3,0.3-0.5,0.5-0.8l0-0.1c0.3,0,0.6,0,0.9-0.2c0,0.1-0.1,0.3-0.1,0.4
			c-0.1,0.8-0.4,1.5-0.6,2.2C1451.3,743.3,1451,744.7,1451,746.2L1451,746.2z"/>
		<path id="パス_294" class="st0" d="M1553.1,740.3c0.4,0.5,0.9,0.9,1.4,1.3c0.5,0.4,0.6,0.7,0.5,1c-0.1,0.5,0,1,0.2,1.4l0.1,0.1
			c0.3,0.6,0.5,1.2,0.6,1.8c0.2,0.8,0.3,1.7,0.2,2.6c-0.1,0.5,0,0.9,0.3,1.3c0.3,0.4,0.7,0.7,1.2,0.7c0,0,0.1,0,0.1,0
			c0.5,0,1.1-0.3,1.3-1.4c0.1-0.5,0.2-1,0.2-1.5c0-0.3,0.1-0.5,0.1-0.8c0.1-0.5,0.2-1,0.2-1.5l0.1-0.9l-0.2-1.1
			c-0.2-1-0.4-2.1-0.7-3.2c-0.1-0.4-0.3-0.7-0.5-1c-0.4-0.6-1-1-1.6-1.1c-0.4-0.1-0.8-0.2-1.2-0.4l-0.2-0.1
			c-0.7-0.3-1.5-0.1-2.1,0.5C1552.6,738.8,1552.5,739.7,1553.1,740.3C1553.1,740.3,1553.1,740.3,1553.1,740.3z M1555.4,740.3
			c-0.3-0.3-0.6-0.5-0.8-0.8l0,0l0.2,0.1c0.5,0.2,1,0.4,1.5,0.5c0.4,0,0.7,0.3,0.8,0.7c0.3,1.1,0.5,2.3,0.7,3.4l0.1,0.6
			c0,0.1,0,0.2,0,0.3l0,0.1l-0.1,1c-0.2-0.9-0.5-1.8-0.9-2.7c-0.1-0.2-0.1-0.3-0.1-0.5C1556.7,741.8,1556.2,740.9,1555.4,740.3
			L1555.4,740.3z"/>
		<path id="パス_295" class="st0" d="M1483.1,781.1c0.2,0.9,0.9,1.7,1.8,1.9c0.1,0,0.2,0.1,0.3,0.1c0.1,0,0.2,0.1,0.2,0.1l0.3,0.1
			l1.2-0.7c0.7-0.4,1.4-0.8,2.1-1.2c0.7-0.3,1.2-0.9,1.4-1.6c0.2-0.5,0.1-1.1-0.2-1.5c-0.3-0.4-0.8-0.6-1.3-0.6h0
			c-0.7,0-1.3,0.1-1.9,0.4c-0.7,0.2-1.4,0.5-2.1,0.8l-0.5,0.2c-0.3,0.1-0.7,0.3-0.9,0.5c-0.4,0.3-0.5,0.8-0.4,1.2
			C1483.1,780.9,1483.1,781,1483.1,781.1z M1487.1,780c-0.6,0.3-1.1,0.7-1.5,1.1c-0.2,0-0.3-0.1-0.5-0.1c0,0,0-0.1-0.1-0.2
			c0.7-0.5,1.5-0.8,2.3-1L1487.1,780z"/>
	</g>
</g>
</svg>
