<svg xmlns="http://www.w3.org/2000/svg" width="374" height="338.466" viewBox="0 0 374 338.466">
  <g id="グループ_1132" data-name="グループ 1132" transform="translate(-25 -7671.631)">
    <g id="グループ_1099" data-name="グループ 1099" transform="translate(277.653 7671.631) rotate(13)">
      <path id="パス_280" data-name="パス 280" d="M124.4,52.425a9.794,9.794,0,0,1-.161-1.013,9.119,9.119,0,0,0-1.06-3.6,3.619,3.619,0,0,1-.306-.843l-.034-.124c-.068-.244-.12-.491-.175-.752-.031-.149-.063-.3-.1-.447a2.785,2.785,0,0,0-2.3-2.324,1.111,1.111,0,0,1-.858-.642,9.959,9.959,0,0,1-.545-1.554,2.132,2.132,0,0,0-.965-1.356,13.029,13.029,0,0,1-3.245-3.229c-.107-.134-.218-.265-.33-.4-.094-.111-.189-.221-.281-.335a1.426,1.426,0,0,0-1.183-.532h-.009c-.321.006-.645-.019-.963-.039l-.166-.01-.2-.544c-.2-.544-.4-1.073-.612-1.6a62.953,62.953,0,0,0-8.387-15.118,35.282,35.282,0,0,0-7.93-7.811l-.265-.182a12.908,12.908,0,0,1-1.757-1.359,4.063,4.063,0,0,0-2.264-1.2,5.566,5.566,0,0,1-2.492-1.148A7.636,7.636,0,0,0,85.46,5.126a9.251,9.251,0,0,1-2.532-1.159,6.037,6.037,0,0,0-1.056-.581l-.1-.041A24.4,24.4,0,0,0,77.6,1.922c-.627-.133-1.267-.239-1.885-.341-.533-.088-1.085-.18-1.62-.288a9.842,9.842,0,0,0-3.252-.12,14.356,14.356,0,0,1-1.96.081A1.6,1.6,0,0,1,67.633.862a2.4,2.4,0,0,0-1.9-.731c-.779.012-1.607.021-2.422,0-.4-.011-.8-.039-1.2-.066-.349-.024-.7-.047-1.046-.06a3.673,3.673,0,0,0-.914.081c-.444.093-.888.192-1.332.292-.719.161-1.463.328-2.2.462A2.735,2.735,0,0,1,54.878.709a1.212,1.212,0,0,0-1.2.109A9.138,9.138,0,0,1,49.715,2.3a2.941,2.941,0,0,0-2.152,1.03c-.086.1-.157.139-.366.1-.431-.085-.891-.173-1.36-.243a1.367,1.367,0,0,0-1.2.367,1.146,1.146,0,0,1-.857.288h-.032a2.489,2.489,0,0,0-2.484,1.937.629.629,0,0,1-.439.484,24.006,24.006,0,0,0-3.789,2.123,45.175,45.175,0,0,0-9.262,8.643,63.475,63.475,0,0,0-8.5,13.325c-.146.307-.228.339-.394.341a1.363,1.363,0,0,0-.551.16c-.046.021-.093.043-.139.061-.225.087-.448.181-.672.275a9.55,9.55,0,0,1-1.443.523,3.092,3.092,0,0,0-1.811,1.173,5.587,5.587,0,0,0-1.235,2.622,22.9,22.9,0,0,0-.131,2.847l0,.457a1.5,1.5,0,0,1-.358,1.143,1.623,1.623,0,0,0-.251,1.993.938.938,0,0,1,.058.255c.009.067.019.133.033.2a2.593,2.593,0,0,1-.044.932c-.022.133-.044.266-.06.4-.028.244-.041.49-.054.736-.01.188-.019.377-.037.564a.149.149,0,0,1-.007.03,1.179,1.179,0,0,0-.513,1.188c0,.058,0,.117,0,.176a.377.377,0,0,1-.315-.119,1.961,1.961,0,0,0-1.414-.58H9.907a2.223,2.223,0,0,0-1.556.611.7.7,0,0,1-.867.178,2.532,2.532,0,0,0-1.643-.03,3.63,3.63,0,0,1-.788.128,1.614,1.614,0,0,0-1.382.76l-.112.2a8.794,8.794,0,0,0-.986,2.14A6.716,6.716,0,0,1,1.756,51.6,13.637,13.637,0,0,0,.084,55.771,2.568,2.568,0,0,0,.445,57.9,5.219,5.219,0,0,1,1.289,61a7.948,7.948,0,0,0,.065,1.184c.067.433.145.863.223,1.294.089.492.182,1,.253,1.5a6.259,6.259,0,0,0,1.021,2.555,5.011,5.011,0,0,1,.732,1.579,2.867,2.867,0,0,0,1.65,2.173.394.394,0,0,1,.053.034,1.36,1.36,0,0,0,.135.083.958.958,0,0,1,.513.889,10.491,10.491,0,0,0,.449,2.314c.085.311.171.622.243.936a1.792,1.792,0,0,0,.2.49,10.334,10.334,0,0,1,.766,1.844q.078.229.158.456a6.4,6.4,0,0,0,.832,1.691l.039.053a22.117,22.117,0,0,0,2.439,2.908c.779.739,1.233.762,2.024.1a1.447,1.447,0,0,0,.124-.121c.019-.021.032-.034.023-.041.088-.031.177-.067.267-.1a1.455,1.455,0,0,1,.564-.157,2.849,2.849,0,0,1,2.184,1.2c.471.671.949,1.336,1.427,2q.618.859,1.231,1.723a.748.748,0,0,1,.14.341,4.243,4.243,0,0,1-.269,2.085,1.15,1.15,0,0,0,.333,1.5c.163.14.334.26.5.376l.148.105a10.622,10.622,0,0,1,2.214,2.067,8.722,8.722,0,0,0,2.783,2.347,3.173,3.173,0,0,1,.808.587c.214.225.438.44.663.655a8.4,8.4,0,0,1,1.309,1.461,2.349,2.349,0,0,0,.722.679,3.456,3.456,0,0,1,1.027,1.073,2.957,2.957,0,0,0,2.4,1.46c.113,0,.225.012.337.018.228.014.457.027.686.028a2.407,2.407,0,0,1,2.425,1.156,2.5,2.5,0,0,0,1.558,1.112c.909.272,1.889.6,3.081,1.018a2.192,2.192,0,0,0,2.321-.412c.282-.247.6-.5,1-.8a.708.708,0,0,1,.275-.156,2.089,2.089,0,0,1,2.069.671,3.7,3.7,0,0,0,1.631,1.1,7.415,7.415,0,0,1,2.826,1.707,2.911,2.911,0,0,0,1.65.908,8.53,8.53,0,0,0,.924.114,1.222,1.222,0,0,1,1.06.541,5.42,5.42,0,0,0,.673.768,2.7,2.7,0,0,0,1.855.832,28.287,28.287,0,0,0,2.833-.028c.551-.041,1.1-.113,1.639-.183.62-.081,1.263-.165,1.889-.2,1.368-.068,2.77-.051,4.126-.035l.307,0a5.647,5.647,0,0,0,1.941-.249,16.687,16.687,0,0,0,2.788-1.2,3.952,3.952,0,0,1,1.928-.461l-.03.025a1.2,1.2,0,0,0-.472.917,1.357,1.357,0,0,0,.6.85,1.234,1.234,0,0,0,.607.175c.058.006.116.011.171.021a7.318,7.318,0,0,0,1.221.1,4,4,0,0,1,1.705.279.641.641,0,0,0,.281.058l.235.006c.3.007.6.014.9.014a7.555,7.555,0,0,0,2.713-.4,11.752,11.752,0,0,1,3.507-.573c.335-.021.67-.041,1-.07.477-.041.975-.04,1.457-.037a13.951,13.951,0,0,0,1.88-.079,12.689,12.689,0,0,0,4.994-1.542,38.9,38.9,0,0,1,4.6-2.362c.827-.351,1.652-.769,2.38-1.139a5.394,5.394,0,0,0,1.995-1.571,2.106,2.106,0,0,0,.314-2.347.583.583,0,0,1-.041-.371c.349-1.054.661-1.912.983-2.7a2.566,2.566,0,0,1,1.472-1.525,1.247,1.247,0,0,0,.648-.655c.171-.411.322-.832.468-1.24.086-.24.173-.48.263-.719.016-.043.032-.089.048-.135a1.139,1.139,0,0,1,.114-.266,2.8,2.8,0,0,0,.935-1.766,1.079,1.079,0,0,1,.4-.712c.192-.131.382-.264.572-.4.462-.324.94-.659,1.427-.945a2.435,2.435,0,0,0,1.226-1.532c.019-.07.044-.139.068-.207s.057-.157.079-.237q.514-1.8,1.021-3.6a3.3,3.3,0,0,0,.083-.433l.012-.08c.032-.213.062-.426.091-.639.057-.421.116-.856.2-1.272.128-.628.277-1.266.422-1.883.082-.353.165-.708.244-1.062a4.181,4.181,0,0,1,.546-1.353,10.088,10.088,0,0,1,3.274-3.146,1.457,1.457,0,0,0,.754-1.34,3.6,3.6,0,0,1,.111-.9c.128-.477.287-.96.441-1.426l.12-.367q.212-.649.427-1.3.2-.591.389-1.183a1.5,1.5,0,0,0-.171-1.29,2.379,2.379,0,0,1-.307-1.58,29.651,29.651,0,0,1,.934-4.278l.125-.463a3.282,3.282,0,0,1,1.76-2.281,3.257,3.257,0,0,0,1.716-2.515A7,7,0,0,0,124.4,52.425ZM118.89,63.307l-.083.379a4.2,4.2,0,0,0-.06,2.072c.018.064.035.129.051.194a2.722,2.722,0,0,0,.236.672.878.878,0,0,1,.059.768l-.076.222c-.207.605-.422,1.231-.656,1.832a10.735,10.735,0,0,0-.814,3.33,12.158,12.158,0,0,0-3.07,2.642A6.272,6.272,0,0,0,113.06,78c-.1.419-.215.835-.326,1.251-.162.608-.33,1.236-.473,1.862a13.09,13.09,0,0,0-.209,1.313c-.022.177-.044.355-.07.532-.009.063-.013.127-.017.192a.962.962,0,0,1-.021.18q-.2.782-.4,1.563c-.216.84-.431,1.68-.638,2.523a1.3,1.3,0,0,1-.716.863c-.779.443-1.545.934-2.191,1.357a2.418,2.418,0,0,0-.944,1.522,2.383,2.383,0,0,1-.415.975,2,2,0,0,0-.329.675l-.032.093c-.1.293-.2.586-.3.88-.132.4-.264.8-.405,1.195-.03.083-.079.155-.073.159a3.834,3.834,0,0,0-2.178,2.339c-.318.767-.6,1.558-.886,2.346a2.031,2.031,0,0,0,.082,1.757c.079.141.051.289-.109.585a2.58,2.58,0,0,1-1.017,1.008,24.945,24.945,0,0,1-2.33,1.217c-1.959.854-3.942,1.829-5.893,2.9a7.162,7.162,0,0,1-1.3.5l-.124.039a15.114,15.114,0,0,1-1.734.459,20.406,20.406,0,0,1-2.129.276c-.264.021-.534.015-.818.009s-.557-.012-.842.007c-.847.057-1.753.14-2.851.262a14.913,14.913,0,0,0-2.856.616,7.745,7.745,0,0,1-2.5.223l-.355-.005h-.031a2.679,2.679,0,0,0-1.591-.373c-.177,0-.347,0-.509-.021a2.163,2.163,0,0,0,.408-.982,1.173,1.173,0,0,0-.176-.987,1.127,1.127,0,0,0-.9-.352l-.2,0c-.548-.012-1.113-.025-1.675.009a6.446,6.446,0,0,0-2.716.943,25.366,25.366,0,0,1-2.329,1.072l-.166.07a1.533,1.533,0,0,1-.517.055h-.1c-.34,0-.68,0-1.021,0-.524-.005-1.065-.007-1.6.012.025-.015.05-.026.075-.042a5.354,5.354,0,0,1,1.292-.6c.322-.1.646-.185.97-.272a16.861,16.861,0,0,0,1.724-.529,2.067,2.067,0,0,0,1.254-1.271,3.458,3.458,0,0,0,.129-.418,3,3,0,0,1,2.205-.351,1.5,1.5,0,0,0,1.177-.325c.114-.089.227-.18.34-.27.223-.179.447-.358.678-.526a1.057,1.057,0,0,1,1.121-.169,1.794,1.794,0,0,0,1.529-.079c.289-.136.564-.3.828-.452l.136-.079c.11-.064.147-.065.165-.052a.944.944,0,0,0,.974.087,1.594,1.594,0,0,0,1.01-.884,6.29,6.29,0,0,1,.3-.553c.049-.083.1-.166.145-.251a1.356,1.356,0,0,1,.879-.638c.089-.025.182-.04.273-.057a2.888,2.888,0,0,0,.442-.1l.039-.013a7.234,7.234,0,0,0,1.116-.447A1.647,1.647,0,0,0,84.2,99.42a1.414,1.414,0,0,0-.392-1.163,1.337,1.337,0,0,0-1.126-.319,6.254,6.254,0,0,0-2.648.786,15.707,15.707,0,0,0-1.892,1.425,5.165,5.165,0,0,1-1.616,1.032,7.158,7.158,0,0,0-2.1,1.1.442.442,0,0,1-.5.074,2.877,2.877,0,0,0-1.005-.161c-.244,0-.49.008-.735.02a8,8,0,0,1-.9.012,3.1,3.1,0,0,0-2.523.865,11.294,11.294,0,0,0-2.113,2.627.437.437,0,0,1-.59.264c-.106-.025-.213-.044-.32-.062-.3-.049-.605-.1-.908-.156-.742-.131-1.51-.265-2.278-.343a1.1,1.1,0,0,1-.929-.5,1.226,1.226,0,0,0-1.516-.61,2.143,2.143,0,0,0,.22-.213.822.822,0,0,0,.249-.788.831.831,0,0,0-.643-.532l-.037-.011a11.69,11.69,0,0,0-1.154-.279.886.886,0,0,1-.6-.359,1.144,1.144,0,0,0-2.082.171,5.4,5.4,0,0,0-.25.524c-.051.118-.1.237-.16.351a.5.5,0,0,1-.3.273.428.428,0,0,1-.348-.076c-.473-.318-.944-.64-1.415-.961-.411-.281-.823-.562-1.236-.841a5.81,5.81,0,0,0-.819-.486,2.794,2.794,0,0,0-2.013-.136.888.888,0,0,0-.74.839,1.049,1.049,0,0,0,.575.993,2.615,2.615,0,0,0,.442.166c.071.022.142.043.211.069l.223.084c.323.121.656.246.973.384a.539.539,0,0,1,.325.437,4.984,4.984,0,0,0,.175.684,2.338,2.338,0,0,0,1.878,1.616,2.778,2.778,0,0,0,.691.025,1.516,1.516,0,0,1,1.109.349c.091.074.189.141.287.207a2.554,2.554,0,0,1,.273.2,2.445,2.445,0,0,0,1.895.552l.153-.012a11.689,11.689,0,0,1,1.454-.046,3.982,3.982,0,0,1,2.647.927,4.08,4.08,0,0,0,.554.421c.1.066.2.132.291.2a1.783,1.783,0,0,0,.22.143c-.532.042-1.042.094-1.534.159a31.947,31.947,0,0,1-5.2.373,2.033,2.033,0,0,1-1.683-.852.191.191,0,0,0-.048-.051,2.763,2.763,0,0,0-2.39-1.472,2.325,2.325,0,0,1-1.636-.846,7.466,7.466,0,0,0-3.056-1.9,3.073,3.073,0,0,1-1.152-.719,3.346,3.346,0,0,0-1.921-1.14,6.315,6.315,0,0,0-.8-.06,2.4,2.4,0,0,0-1.854.747,4.719,4.719,0,0,1-.463.409c-.125.1-.25.2-.368.311a.71.71,0,0,1-.773.164l-.335-.109c-1.017-.334-2.068-.679-3.092-1.039a1.491,1.491,0,0,1-.492-.337,3.356,3.356,0,0,1-.462-.58,2.691,2.691,0,0,0-2.245-1.265c-.583-.021-1.177-.067-1.753-.111l-.126-.009a1.587,1.587,0,0,1-1.278-.67,5.2,5.2,0,0,0-1.647-1.678,1.26,1.26,0,0,1-.272-.272c-.044-.053-.088-.106-.133-.155-.2-.217-.391-.436-.585-.655-.417-.471-.848-.958-1.3-1.417a5.451,5.451,0,0,0-1.224-.916,7.493,7.493,0,0,1-2.305-1.969,11.65,11.65,0,0,0-2.583-2.348c-.145-.1-.286-.209-.436-.323a5.242,5.242,0,0,0,.307-1.75,2.253,2.253,0,0,1,.294,1.255l0,.043a1.154,1.154,0,0,0,.745,1.172,2.066,2.066,0,0,1,.832.63,1.665,1.665,0,0,0,1.193.588.59.59,0,0,1,.342.127l.139.168a2.435,2.435,0,0,1,.675,1.2,1.219,1.219,0,0,0,1.009,1.1,1.78,1.78,0,0,1,.614.27c.159.108.312.224.465.34a5.031,5.031,0,0,0,1.453.855.771.771,0,0,1,.081.073,1.687,1.687,0,0,0,.144.129c.095.073.191.145.286.217s.219.164.327.248c.093.072.187.143.281.214a7.932,7.932,0,0,1,.663.536l.122.114a3.688,3.688,0,0,1,.953,1.157.9.9,0,0,0,.59.564,1.06,1.06,0,0,0,.869-.275c.03-.024.06-.049.089-.075l0,0q.248.158.494.318c.319.207.637.413.963.609a1.639,1.639,0,0,0,.835.282,1.057,1.057,0,0,0,.5-.127,1.2,1.2,0,0,0,.612-1.145.881.881,0,0,0-.331-.785.866.866,0,0,0-.836-.055,4.375,4.375,0,0,0-.525.24,4.323,4.323,0,0,1-.253-.574,2.352,2.352,0,0,0-2-1.641,6.116,6.116,0,0,0-.942-.1c-.141,0-.242-.046-.374-.27-.038-.065-.074-.132-.11-.2a2.812,2.812,0,0,0-.371-.569l-.07-.078a2.623,2.623,0,0,0-.905-.751,1.345,1.345,0,0,1-.83-.94,1.4,1.4,0,0,0-1.712-1.117c-.2.025-.226,0-.311-.2A2.543,2.543,0,0,0,25.245,91,1.3,1.3,0,0,1,24.6,89.88c-.015-.141-.021-.284-.028-.427s-.012-.264-.023-.4c-.008-.091-.013-.182-.019-.274a3.631,3.631,0,0,0-.122-.862,2.4,2.4,0,0,1,.143-1.653,5.827,5.827,0,0,0,.243-.894c.033-.151.065-.3.1-.452l.028-.11a.951.951,0,0,1,.094-.278c.324-.382.688-.77,1.112-1.184a.709.709,0,0,1,.691-.183l.367.078c.383.083.767.165,1.152.239a2.77,2.77,0,0,1,1.428.714c.267.251.552.481.828.7l.24.194a2.533,2.533,0,0,1,.884,1.175,2.834,2.834,0,0,0,.449.687,1.6,1.6,0,0,0,1.415.479.675.675,0,0,0,.593-.408.582.582,0,0,0-.122-.611,1.272,1.272,0,0,1-.252-.71c-.018-.111-.036-.222-.06-.332A1.315,1.315,0,0,0,33,84.319s-.007-.007-.009,0h0a1.183,1.183,0,0,0-1.1-1.083,1.107,1.107,0,0,1-.6-.413l-.2-.211A4.3,4.3,0,0,0,28.8,81.081a.72.72,0,0,1-.348-.2,2.762,2.762,0,0,0-2.507-.848,1.459,1.459,0,0,1-1.4-.495.451.451,0,0,0-.1-.083,2.03,2.03,0,0,0-1.37-.733,3.924,3.924,0,0,1-.42-.1.789.789,0,0,0-.5,0c-.021-.066-.043-.132-.071-.2-.017-.04-.033-.081-.049-.124.1-.024.185-.044.271-.056.47-.068.853-.111,1.208-.135a1.343,1.343,0,0,0,.765-.264,4.69,4.69,0,0,0,.386.419,1.038,1.038,0,0,0,1.312.069.912.912,0,0,0,.269-1.25,3.164,3.164,0,0,0-.789-.983,8.773,8.773,0,0,0-3.222-1.393,1.286,1.286,0,0,0-.672-.027c-.5.135-.791-.082-1.214-.589a.494.494,0,0,1-.1-.65,1.009,1.009,0,0,0-.414-1.5,3.419,3.419,0,0,0-.59-.313.782.782,0,0,0-1.131.836,1.45,1.45,0,0,0,.078.315l.017.05a1.273,1.273,0,0,1,.034,1.1,2.141,2.141,0,0,0-.008,1.627c.025.089.049.179.07.266l.117.494-.088.067a4.188,4.188,0,0,0-.554.469,1.474,1.474,0,0,1-.848.531,1.38,1.38,0,0,0-.187.056.5.5,0,0,1-.084.027l-.1.018a3.706,3.706,0,0,1-.4.049h-.086c-.682-.007-1.387-.015-2.073-.056a2.986,2.986,0,0,1-.852-.176,2.387,2.387,0,0,1-.758-.562c-.124-.119-.248-.237-.38-.346a6.7,6.7,0,0,1-1.518-1.859,5.4,5.4,0,0,0-.6-.824c-.138-.158-.549-.438-.874-.25a1.126,1.126,0,0,0-.451.644.976.976,0,0,0,.045.558l.083.295c.083.3.169.619.286.927.169.443.366.9.64,1.488.081.175.176.344.271.514a3.51,3.51,0,0,1,.37.8,6.145,6.145,0,0,0,.67,1.486,1.051,1.051,0,0,0,1.049.57l.064-.005c.35-.028.7-.056,1.05-.073.626-.031,1.252-.054,1.879-.075h.008a1.176,1.176,0,0,0,1.3.1l.074-.028c1.1-.4,1.773-.27,2.341.451a3.046,3.046,0,0,0,.564.517,3.352,3.352,0,0,1,.352.3,1.11,1.11,0,0,0,.818.355,1.573,1.573,0,0,0,.511-.1,1.234,1.234,0,0,0,.7-.572,1.6,1.6,0,0,1-.238.952.544.544,0,0,1-.071.081,3.236,3.236,0,0,0-1.566.213c-.054-.062-.106-.126-.159-.19a4.471,4.471,0,0,0-.453-.5,1.073,1.073,0,0,0-1.217-.154.985.985,0,0,0-.459,1.068c0,.016.007.031.009.048-.042-.063-.086-.125-.129-.188A4.149,4.149,0,0,0,14.635,81.2a2.62,2.62,0,0,0-2.486.691,1,1,0,0,1-.087.074c-.083-.084-.166-.167-.25-.25a5.911,5.911,0,0,1-1.276-1.594,2.288,2.288,0,0,0-.31-.481,5.391,5.391,0,0,1-1.073-2.228,9.5,9.5,0,0,0-.422-1.2c-.081-.2-.163-.405-.236-.61-.172-.482-.331-.967-.49-1.454l-.034-.1c-.1-.3-.171-.544-.23-.772L7.7,73.1a3.892,3.892,0,0,1-.135-.638,2.783,2.783,0,0,0-1.94-2.619c-.084-.028-.166-.063-.249-.1L5.2,69.674a.476.476,0,0,1-.318-.373,8.009,8.009,0,0,0-.434-1.266,1.969,1.969,0,0,0,.6.314,2.391,2.391,0,0,0,.136.251,3.892,3.892,0,0,0,1.742,1.644,1.884,1.884,0,0,0,.713.148,1.243,1.243,0,0,0,1.1-.585,1.459,1.459,0,0,0-.317-1.924l-.083-.074c-.068-.062-.136-.123-.208-.178a.268.268,0,0,1-.06-.056.334.334,0,0,1,.044-.138c.208-.438.378-.881.53-1.294a.953.953,0,0,0,.036-.426c0-.034-.006-.068-.006-.1v-.329l-.324-.055a1.978,1.978,0,0,0-1.24.185,2.973,2.973,0,0,1,.758-2.008c.122-.131.254-.253.386-.375s.257-.238.378-.364l.109-.114c.32-.333.652-.677.951-1.047a1.72,1.72,0,0,0,.321-1.374c-.013-.08-.026-.161-.04-.24-.024-.144-.05-.288-.061-.433a.945.945,0,0,0-.8-.922,2.153,2.153,0,0,1-.455-.18c-.2-.1-.394-.2-.591-.3-.328-.168-.668-.341-1.016-.495a1.313,1.313,0,0,0-1.852.608,7.282,7.282,0,0,0-.978,2.364,1.457,1.457,0,0,1-.414.778,5.85,5.85,0,0,0-1.068,1.734c-.007-.046-.014-.092-.022-.137-.068-.412-.136-.824-.194-1.238a9.235,9.235,0,0,1-.065-1.19,5.342,5.342,0,0,0-.9-3.082,1.68,1.68,0,0,1-.231-1.576,13.356,13.356,0,0,1,1.509-3.475,6.877,6.877,0,0,0,1.006-2.283,6.043,6.043,0,0,1,.685-1.482L4.7,48.3a.476.476,0,0,1,.5-.3.508.508,0,0,0,.229-.024,3.52,3.52,0,0,1,2.359-.066,1.292,1.292,0,0,0,.949-.213,1.816,1.816,0,0,0,.38-.281,1.685,1.685,0,0,1,.174-.144.843.843,0,0,1,1.2.061,1.912,1.912,0,0,0,1.353.493.959.959,0,0,0,1.046-.92,2.3,2.3,0,0,0,.016-.344v-.2c0-.184.005-.186.056-.219a1.043,1.043,0,0,0,.425-.867,2.47,2.47,0,0,1,.221-1,5.4,5.4,0,0,0,.205-.642,1.432,1.432,0,0,0-.233-1.439c-.007-.023-.01-.049-.015-.076a1.626,1.626,0,0,0-.041-.175c-.014-.044-.025-.09-.037-.136a1.758,1.758,0,0,0-.154-.428c-.186-.336-.145-.37-.025-.472a2.773,2.773,0,0,0,.82-2.415,13.413,13.413,0,0,1,.145-2.529,6.175,6.175,0,0,1,.765-1.839A1.848,1.848,0,0,1,15.2,33.9c.061-.08.122-.161.175-.245a1.7,1.7,0,0,1,1.007-.713,17.275,17.275,0,0,0,1.668-.7l.433-.2c-.23.544-.46,1.088-.679,1.637a41.358,41.358,0,0,0-2.889,11.106c-.051.5-.078,1-.1,1.482-.017.319-.035.638-.059.956a1.4,1.4,0,0,0,.009.243c0,.022.005.051.006.075-.292.159-.217.537-.186.654.025.092.049.184.073.276a6.983,6.983,0,0,0,.279.906,1.847,1.847,0,0,0,.6.843,3.134,3.134,0,0,1,.97,1.236c.078.153.147.311.217.468.083.188.167.377.262.559l.069.134a4.208,4.208,0,0,0,.527.852,5.067,5.067,0,0,1,.909,1.871l.033.108a4.96,4.96,0,0,0,.739,3.145c.09.182.18.365.264.548l.088.193a4.606,4.606,0,0,1,.594,2.044,1.034,1.034,0,0,1-.043.327,3.364,3.364,0,0,0-.323,1.547.308.308,0,0,1-.069.157,1.664,1.664,0,0,0-.512,1.309,2.67,2.67,0,0,1-.311,1.3,1.567,1.567,0,0,0-.057,1.276,1.629,1.629,0,0,0,.908.967.765.765,0,0,1,.516.579,1.58,1.58,0,0,0,.94,1.222c.013.024.024.05.037.076.026.055.053.108.082.155l1.107,1.827q.755,1.247,1.511,2.494a2.185,2.185,0,0,0,.4.482l.772.7-.124-1.035a4.4,4.4,0,0,0-.719-1.783c-.867-1.423-1.523-2.522-2.125-3.564a5.911,5.911,0,0,1-.411-.978l-.025-.073a2.423,2.423,0,0,0-1.208-1.625,3.558,3.558,0,0,0,.139-1.971l.012-.049c.059-.243.1-.486.14-.721a4.847,4.847,0,0,1,.329-1.258,3.506,3.506,0,0,0,.192-2.215c-.044-.22-.095-.439-.145-.657-.038-.168-.077-.336-.113-.5a2.491,2.491,0,0,0-.576-1.179,1.952,1.952,0,0,1-.261-.462c-.058-.126-.109-.256-.159-.385a5.556,5.556,0,0,0-.271-.617,1.63,1.63,0,0,1-.109-.876,3.434,3.434,0,0,0-.071-1.073,5.489,5.489,0,0,0-1.051-2.1,2.536,2.536,0,0,1-.308-.543c-.042-.089-.084-.178-.129-.265-.1-.185-.189-.372-.282-.558-.179-.359-.364-.73-.567-1.09a2.25,2.25,0,0,0-1.086-.986.831.831,0,0,1-.438-.867c.065-4.626,1.258-9.435,3.753-15.134a64.854,64.854,0,0,1,9.3-15.162,42.517,42.517,0,0,1,9.44-8.808c.52-.344,1.074-.662,1.619-.969a3.689,3.689,0,0,1-.314.282,7.679,7.679,0,0,0-2.331,3.35A15.913,15.913,0,0,1,36.4,13.7c-.161.3-.322.6-.473.9a6.935,6.935,0,0,1-.494.795c-.119.172-.237.345-.346.523l-.1.154a5.678,5.678,0,0,0-.507.945c-.288.749-.561,1.516-.825,2.257q-.177.494-.354.989c-.012.033-.023.068-.034.1s-.034.079-.014.074a1.612,1.612,0,0,0-.355.507l-.135-.1.045.357a3.576,3.576,0,0,0-.063,1.061c.025.578.081,1.159.135,1.721.019.2.038.4.056.6a4.238,4.238,0,0,0,.673,2.022l.068.1a8.718,8.718,0,0,1,1.134,2.09,2.153,2.153,0,0,0,.426.76,2.044,2.044,0,0,1,.424,1.26c.115,1.226.215,2.334.272,3.468a2.255,2.255,0,0,1-.578,1.739,5.813,5.813,0,0,0-.622.85c-.086.134-.173.269-.264.4-.328.464-.657.929-.994,1.387a4.493,4.493,0,0,0-.993,2.629,12.469,12.469,0,0,1-.9,4.14,18.847,18.847,0,0,0-1.134,4.567c-.039.37-.109.734-.182,1.12l-.07.371a1.932,1.932,0,0,0,.415,1.6c.347.432.7.878,1.1,1.287a6.385,6.385,0,0,1,1.806,3.773,9.648,9.648,0,0,0,1.7,4.519c.311.443.6.918.887,1.376.169.273.337.546.511.815a6.081,6.081,0,0,0,1.688,1.7c.391.272.776.555,1.159.838.333.245.665.49,1,.729.555.391,1.147.8,1.757,1.166a3.174,3.174,0,0,0,.9.315l.1.024a1.357,1.357,0,0,1,.815.5,2.59,2.59,0,0,0,1.5,1.057.742.742,0,0,1,.484.436,9.153,9.153,0,0,0,1.8,2.279,2.3,2.3,0,0,0,1.325.617,1.027,1.027,0,0,0,1.219-.7,3.025,3.025,0,0,0,.153-.917,4.145,4.145,0,0,0-.015-.5,3.538,3.538,0,0,1-.015-.394c.02-.493.111-.6.572-.66a10.677,10.677,0,0,1,1.455-.059l.141-.011a.275.275,0,0,1,.036.113c.036.237.074.472.113.707a3.339,3.339,0,0,0,.928,1.747,2.752,2.752,0,0,0,2.558.434.757.757,0,0,0,.456-.466.971.971,0,0,0-.1-.82,3.364,3.364,0,0,0-.415-.519c-.051-.056-.1-.111-.151-.169l-.033-.041.018-.013a1.558,1.558,0,0,1,1.466-.182,1.848,1.848,0,0,0,1.931-.322,1.561,1.561,0,0,0,.568-1.443c-.014-.148-.042-.295-.076-.469-.016-.079-.032-.165-.049-.26l-.043-.245-.241-.064c-.056-.015-.116-.035-.18-.056a2.238,2.238,0,0,0-.638-.141c-.788-.026-1.615-.027-2.458,0a7.689,7.689,0,0,0-1.027.119l-.2.031a1.106,1.106,0,0,1-.334.028.839.839,0,0,1-.155-.25,1.285,1.285,0,0,0-1.914-.731C51.8,68.6,50.9,68.939,50,69.3a1.174,1.174,0,0,1-1.051-.03,4.683,4.683,0,0,0-1.034-.366c-.468-.111-.556-.371-.58-.584a1.664,1.664,0,0,0-1.206-1.545.768.768,0,0,1-.191-.27,1.359,1.359,0,0,0-1.835-.84.613.613,0,0,1-.727-.191,3.967,3.967,0,0,0-.285-.276,1.31,1.31,0,0,0-1.7-.193c-.348.208-.472.237-.515.226s-.152-.086-.4-.562a2.009,2.009,0,0,0-1.005-1.053,1,1,0,0,1-.108-.146l-.046-.069a10.085,10.085,0,0,1-1.235-2.907,2.371,2.371,0,0,0,1.049-1.46c.009-.038.019-.075.029-.112a1.642,1.642,0,0,0,.068-.354,1.738,1.738,0,0,1,.344-.994A2.961,2.961,0,0,0,40.1,55.9a1.338,1.338,0,0,0-.664-1.285,13.931,13.931,0,0,1-2.772-2.338,3.712,3.712,0,0,1-.445-.606,1.785,1.785,0,0,0-2.036-.846,1.946,1.946,0,0,0-.2.053,1.337,1.337,0,0,0-.143.047l-.044-.054c-.22-.268-.343-.431-.318-.655a7.2,7.2,0,0,1,1.12-3.664,3.759,3.759,0,0,0,.69-1.905,3.768,3.768,0,0,1,.24-.874,1.84,1.84,0,0,0-.2-1.766c-.327-.479-.328-.482.106-.855l.006.007c.516.633.794.668,1.488.2.134-.092.273-.178.411-.265a6.942,6.942,0,0,0,.9-.632,5.072,5.072,0,0,0,1.19-1.325,7.026,7.026,0,0,0,.929-2.779,7.225,7.225,0,0,0-.065-1.4c-.023-.2-.046-.4-.06-.6-.009-.125-.02-.25-.031-.375a6.692,6.692,0,0,1-.043-.882,2.344,2.344,0,0,1,.652-1.621,1.935,1.935,0,0,0,.479-.9c.116-.506.188-1.022.258-1.521l.029-.2a1.158,1.158,0,0,0-.895-1.5c-.119-.043-.24-.083-.361-.124-.174-.057-.348-.114-.517-.185a1.011,1.011,0,0,1-.149-.082c.026-.048.05-.093.076-.138a1.323,1.323,0,0,0,.029-1.269c-.1-.2-.195-.412-.288-.619-.069-.151-.138-.3-.209-.453a1.352,1.352,0,0,0-1.278-.82c-.715-.016-1.5-.064-2.46-.152-.177-.016-.647-.059-.652-.878a3.475,3.475,0,0,0-.192-.976c-.023-.076-.046-.154-.069-.234a5.092,5.092,0,0,1,.56-.412c.122-.082.246-.165.367-.253.2-.144.4-.28.609-.415a6.752,6.752,0,0,0,1.643-1.36,7.512,7.512,0,0,0,1.24-2.157,5.4,5.4,0,0,1,.64-1.219,2.367,2.367,0,0,1,.595-.5l.064-.044c.045-.031.113-.077.3.034a1.62,1.62,0,0,0,2.145-.157,2.7,2.7,0,0,0,1.176-2.07,5.237,5.237,0,0,1,.922-2.22l.1-.161A.178.178,0,0,1,45,10.435a3.893,3.893,0,0,0,1.342-1.66A7.2,7.2,0,0,1,47.01,7.77c.091-.122.181-.243.269-.366a.434.434,0,0,1,.454-.212A4.667,4.667,0,0,0,50.3,6.713c.08-.036.16-.077.24-.119a.858.858,0,0,1,.565-.163l.157.035L51.4,6.38c.091-.057.184-.112.276-.167A2.3,2.3,0,0,0,53,4.663a2.479,2.479,0,0,1,.5-.873.652.652,0,0,1,.247-.031c.219.005.439.026.659.046a6.3,6.3,0,0,0,1.21.032,4.262,4.262,0,0,0,1.135-.329c.135-.053.271-.106.405-.153.227-.078.451-.165.673-.254.1-.039.2-.077.3-.115a5.587,5.587,0,0,0,.836-.368,1.116,1.116,0,0,1,.762-.194,7.415,7.415,0,0,0,.757.045,6.21,6.21,0,0,1,.718.044,5.256,5.256,0,0,1,.66.155,6.309,6.309,0,0,0,.713.168,21.657,21.657,0,0,0,2.218.248,1.546,1.546,0,0,0,.71-.188c.1-.044.2-.091.325-.134l.819-.293-.764-.416c-.078-.042-.137-.079-.185-.11a.825.825,0,0,0-.37-.152c-.3-.029-.612-.047-.919-.064A10.929,10.929,0,0,1,62.7,1.54c.172.005.33,0,.494,0,.243,0,.487-.006.729,0,.311,0,.623,0,.935,0,.244,0,.489,0,.734,0a1.534,1.534,0,0,1,1.225.444,2.215,2.215,0,0,0,1.752.677c.339-.011.678-.018,1.016-.025.622-.013,1.266-.027,1.9-.065a8.249,8.249,0,0,1,2.031.1c.474.088.949.165,1.426.242.834.134,1.7.273,2.52.476a18.174,18.174,0,0,1,5.366,2.173,10.408,10.408,0,0,0,2.2.954,8.384,8.384,0,0,1,2.319,1.171,5.643,5.643,0,0,0,2.641,1.171,3.473,3.473,0,0,1,1.1.463l.232.127a22.84,22.84,0,0,1,4.935,3.617,49.181,49.181,0,0,1,9.393,12.85,76.1,76.1,0,0,1,6.681,17.648c.063.248.14.54.237.828a1.409,1.409,0,0,0,1.139,1.072.962.962,0,0,1,.058.131c.063.157.127.314.191.47.108.262.214.523.315.788a.946.946,0,0,1,.073.321l0,.435a10.24,10.24,0,0,1-.129,2.152,7.8,7.8,0,0,0-.12,1.154c-.008.143-.015.286-.027.428l-.043.556c-.05.644-.1,1.289-.136,1.934l-.007.134c-.05.893-.1,1.817-.1,2.731a.566.566,0,0,1-.282.562,5,5,0,0,0-.558.46c-.119.108-.239.217-.366.315a.794.794,0,0,1-.311.118c-.134.029-.271.049-.407.069a5.334,5.334,0,0,0-.6.113,1.614,1.614,0,0,0-1.141.974c-.078.2-.206.319-.536.476a6.819,6.819,0,0,0-1.069.592,2.568,2.568,0,0,0-1.122,2.761,4.148,4.148,0,0,1,.025.977c-.008.159-.016.318-.017.475a.717.717,0,0,1-.012.1,1.239,1.239,0,0,0-.021.279,3,3,0,0,1-.494,1.751,4.18,4.18,0,0,0-.3.7c-.033.092-.066.184-.1.274s-.081.209-.122.314c-.077.2-.153.4-.244.6a2.938,2.938,0,0,0-.29,2.352,1.378,1.378,0,0,1,.03.456c0,.081,0,.163,0,.242a1.236,1.236,0,0,0,.28.96,1.067,1.067,0,0,0,.82.19l.043.063c.15.215.309.442.459.673.011.018.026.041-.038.159a43.216,43.216,0,0,1-3.984,6.233,34.7,34.7,0,0,1-8.642,7.971,15.836,15.836,0,0,1-3.831,1.778,1.463,1.463,0,0,1-.846-.088c-.109-.032-.216-.064-.324-.09a.308.308,0,0,1-.132-.109H89.7a6.744,6.744,0,0,0,3.373-.868,1.173,1.173,0,0,1,.414-.177,1.728,1.728,0,0,0,1.339-.745c.453-.574.887-1.164,1.259-1.672.241-.328.477-.658.714-.988.413-.576.84-1.171,1.275-1.741a3.52,3.52,0,0,1,.771-.725,3.237,3.237,0,0,0,1.438-2.161,4.4,4.4,0,0,1,.564-1.343,4.886,4.886,0,0,0,.557-3.9L101.378,75c-.011-.036-.03-.085-.032-.072a7.153,7.153,0,0,0,.084-1.991c-.019-.36-.037-.7-.024-1.042a4.882,4.882,0,0,0-.434-2.259,1.241,1.241,0,0,1-.064-.976c.053-.156.1-.314.137-.473a2.675,2.675,0,0,1,.309-.816,1.815,1.815,0,0,0,.159-1.534.6.6,0,0,1-.044-.241,2.77,2.77,0,0,1,.242,1.018c.034.512.082,1.017.145,1.5a2.451,2.451,0,0,0,.774,1.612,1.036,1.036,0,0,0,.982.3.977.977,0,0,0,.647-.721,3.514,3.514,0,0,0,.153-1.248.839.839,0,0,1,.532-.957,1.954,1.954,0,0,0,.815-.735,7.053,7.053,0,0,0,1.061-5.1,1.035,1.035,0,0,1,.187-.831c.26-.374.516-.78.809-1.278a1.778,1.778,0,0,1,.775-.645c.256-.131.5-.277.753-.422.213-.125.426-.25.643-.365a2.934,2.934,0,0,1,.755-.313,2.157,2.157,0,0,0,1.609-1.3,2.05,2.05,0,0,0-.221-1.952,1.042,1.042,0,0,0-1.6-.312c-.5.348-.986.733-1.452,1.107l-.168.135c-.213.17-.415.353-.594.516l-.046.041-.311-.083c-.391-.105-.759-.2-1.139-.27a2.122,2.122,0,0,0-.928.1,1.292,1.292,0,0,0-.98,1.1l-.071.434a18.049,18.049,0,0,0-.349,4.066,1.3,1.3,0,0,1-.313.981,3.2,3.2,0,0,0-.31.465c-.046.079-.092.157-.142.233a1.181,1.181,0,0,1,0-.319,4.03,4.03,0,0,0-.066-1.62,2.913,2.913,0,0,1,.084-1.341,3.72,3.72,0,0,0-.586-3.084,1.686,1.686,0,0,1-.1-.166l-.284-.486-.347.253A.768.768,0,0,0,102.125,57a3.214,3.214,0,0,1,.144,2.634,2.872,2.872,0,0,0-.038,1.089c.033.274.054.55.075.826a8.626,8.626,0,0,0,.344,2.119,1.019,1.019,0,0,0,.561.678.9.9,0,0,0,.8-.145,2.617,2.617,0,0,0,.636-.63c.136-.176.26-.36.385-.543.109-.161.218-.322.335-.476a2.344,2.344,0,0,0,.366-.665,5.794,5.794,0,0,1-.9,3.629,1.274,1.274,0,0,1-.519.464,1.923,1.923,0,0,0-1.138,1.937c0,.023,0,.045,0,.068-.064-.392-.114-.8-.167-1.271-.026-.235-.044-.471-.062-.707-.021-.277-.042-.555-.076-.831a1.5,1.5,0,0,0-.624-1.159,1.22,1.22,0,0,0-1.069-.1.87.87,0,0,0-.519.352c-.05.087-.108.173-.165.259a1.878,1.878,0,0,0-.431,1.25,3.988,3.988,0,0,1-.252,1.56l-.063.216a1.19,1.19,0,0,1-.053.165,3.522,3.522,0,0,0,.026,2.942,4.822,4.822,0,0,1,.258,1.335c.021.2.041.4.07.6.047.324.083.68.111,1.089.009.139.009.279.009.419,0,.156,0,.312.01.468l.007.114a5.817,5.817,0,0,0,.112.941,3.085,3.085,0,0,1-.238,2.26A10.139,10.139,0,0,0,99,80.512a.991.991,0,0,1-.384.549,7.536,7.536,0,0,0-2.248,2.381c-.136.2-.273.393-.414.586-.4.548-.789,1.106-1.177,1.664q-.369.53-.741,1.059c-.237.334-.428.46-.7.465a1.555,1.555,0,0,0-.738.269l-.047.027a6.343,6.343,0,0,1-3.688.7c-.145-.007-.156-.05-.171-.1a1.328,1.328,0,0,0-1.289-.954,4.31,4.31,0,0,0-.523-.011c-.128,0-.255,0-.381,0l-.194-.012a5.7,5.7,0,0,1-.921-.1,4.946,4.946,0,0,0-2.527.176,5.43,5.43,0,0,0-2.737,1.987A4.038,4.038,0,0,1,78.728,90.3c-.141.071-.281.145-.422.219a7.663,7.663,0,0,1-.926.44,10.447,10.447,0,0,1-1.274.346l-.277.064c-.335.078-.695.145-1.133.21a1.754,1.754,0,0,1-.516.023c-.4-.066-.79-.149-1.184-.232l-.491-.1c-.584-.119-1.179-.18-1.478.474a1.561,1.561,0,0,0,.611,1.845,1.65,1.65,0,0,0,.494.217c.288.069.579.125.87.182l.245.048.248.048a1.325,1.325,0,0,1-.051.135,1.058,1.058,0,0,0,.266,1.319.5.5,0,0,1,.156.514,1.63,1.63,0,0,0,.86,1.728c.092.052.155.105.133.322-.006.051-.01.1-.014.155s-.007.093-.012.138a.949.949,0,0,0,.536,1.046.993.993,0,0,0,1.125-.241,2.291,2.291,0,0,0,.746-1.643,1.456,1.456,0,0,0-.355-.867,1.861,1.861,0,0,0-.295-.311,1.1,1.1,0,0,1-.184-.189l-.037-.058a3.939,3.939,0,0,1-.487-.932.71.71,0,0,1-.012-.525.812.812,0,0,1,.52-.288l.016,0c.063.05.129.1.194.147.259.188.395.3.414.52a1.532,1.532,0,0,0,.233.618c.036.064.073.128.1.195l.174.375.364-.2a1.942,1.942,0,0,0,.833-.976c.043-.088.084-.175.133-.256a1.552,1.552,0,0,1,.5-.564,2.286,2.286,0,0,0,.878-1.161,8.326,8.326,0,0,1,.744-1.391.582.582,0,0,1,.281-.118,5.711,5.711,0,0,1,1-.042,1.136,1.136,0,0,0,1.122-.672,4.43,4.43,0,0,1,1.253-1.368l.221-.185a.426.426,0,0,1,.622.021,1.677,1.677,0,0,0,1.616.344c.336-.071.674-.139.983-.2l.148-.03.2.245c.245.293.475.57.726.831a1.919,1.919,0,0,0,.52.389,6.506,6.506,0,0,0-2.46-.129A.472.472,0,0,1,87,90.745a2.174,2.174,0,0,0-2.283.613,1.466,1.466,0,0,0,.625,2.526,6.449,6.449,0,0,0,.982.174c.117.015.232.029.347.046l.028,0a1.017,1.017,0,0,0,.164.9.938.938,0,0,0,.749.336,1.3,1.3,0,0,0,.232-.021,1.937,1.937,0,0,0,.88-.5,2.471,2.471,0,0,0,.488-.682.761.761,0,0,1,.455-.371c.44-.152.876-.316,1.312-.481l.486-.182a.8.8,0,0,0,.256-.136,2.207,2.207,0,0,1,1.063-.439c.4-.076.641-.233.71-.481a.69.69,0,0,1,.14-.026c.041-.005.081-.011.12-.018l.279-.05c1.226-.222,2.494-.452,3.743-.639a2.09,2.09,0,0,1,.929.075,2.433,2.433,0,0,0,2.081-.239l.1-.058c.429-.246.873-.5,1.3-.782a3.749,3.749,0,0,0,1.734-2.394l.306-.072a10.277,10.277,0,0,1,1.117-.227c.584-.074,1.184-.128,1.764-.181.452-.041.9-.082,1.355-.132,1.537-.172,1.789-.356,2.451-1.8a.9.9,0,0,0-.843-1.448,13.922,13.922,0,0,0-1.758,0l-.11,0c-.074,0-.1,0-.1,0a.555.555,0,0,1-.048-.166,3.881,3.881,0,0,1-.046-.647v-.054a4.189,4.189,0,0,0-1.182-3.133,1.039,1.039,0,0,0-.807-.383,1.053,1.053,0,0,0-.707.541,7.561,7.561,0,0,1-1.512,1.693,34.735,34.735,0,0,0,3.25-4.46c.213-.349.408-.712.6-1.062.146-.271.291-.542.446-.807a4.209,4.209,0,0,1,.459-.6,1.572,1.572,0,0,0,.169-2.357,6.959,6.959,0,0,0-1.053-1.159.915.915,0,0,0-.537-.2c-.017-.06-.034-.119-.052-.178a8.954,8.954,0,0,1-.249-.993,1.778,1.778,0,0,1,.1-.647c.034-.127.067-.254.1-.382a7.586,7.586,0,0,1,.422-1.31,18.74,18.74,0,0,0,1.079-3.066l.062-.222a4.169,4.169,0,0,0,.218-1.916.983.983,0,0,1,.5-1.076c.147-.1.3-.185.453-.274.2-.118.417-.242.62-.385a1.871,1.871,0,0,0,.712-.739c.189-.453.518-.621,1.256-.64a1.474,1.474,0,0,0,1.208-.518,3.442,3.442,0,0,1,.68-.547l.176-.121a1.494,1.494,0,0,0,.683-1.339c-.008-.254-.014-.5,0-.74q.071-1.3.158-2.6c.044-.679.093-1.357.141-2.036l.04-.564c.006-.075.008-.151.01-.228a1.693,1.693,0,0,1,.041-.4,9.7,9.7,0,0,0,.281-3.253,2.592,2.592,0,0,0-.293-1.053,1.406,1.406,0,0,1-.243-.741.847.847,0,0,0-.711-.95.972.972,0,0,1-.261-.171l-.065-.051a56.221,56.221,0,0,0-1.967-7.463,3.134,3.134,0,0,1,.785.032c.108.023.309.267.439.424.183.221.355.453.526.685a9.936,9.936,0,0,0,.98,1.187,22.019,22.019,0,0,0,2.277,1.888,1.166,1.166,0,0,1,.457.642,11.7,11.7,0,0,0,.638,1.718,2.355,2.355,0,0,0,1.733,1.32,1.55,1.55,0,0,1,1.324,1.357l.031.157c.057.3.116.612.2.919l.07.253a5.951,5.951,0,0,0,.406,1.163,8.248,8.248,0,0,1,.827,3.161,6.106,6.106,0,0,0,.2,1.184,4.708,4.708,0,0,1,0,2.286,2.186,2.186,0,0,1-.885,1.317,7.072,7.072,0,0,1-.7.47,3.118,3.118,0,0,0-1.37,1.695A36.924,36.924,0,0,0,118.89,63.307Zm-55.3,44.641c-.119-.1-.242-.185-.367-.275a5.7,5.7,0,0,1-.5-.4,3.726,3.726,0,0,0-1.3-.77,18.752,18.752,0,0,1,3.23.58c.264.064.528.128.793.189a4.783,4.783,0,0,0-1.471.686C63.81,108.075,63.742,108.073,63.586,107.948Zm4.286-1.453.149-.207c.2-.274.407-.543.625-.807v.011a.922.922,0,0,1-.7.978Zm1.514-1.869.241-.271.153-.172a1.8,1.8,0,0,1,1.372-.559,10.151,10.151,0,0,0,1.532-.134,2.058,2.058,0,0,1,.64-.02c-.267.21-.526.41-.793.593a.517.517,0,0,1-.316.066A4.966,4.966,0,0,0,69.386,104.626Zm-8.958,1.625a7.727,7.727,0,0,0-1.413-.127,8.979,8.979,0,0,0-1.238.088,1.4,1.4,0,0,1-1.189-.3,3.938,3.938,0,0,0-.429-.3c-.078-.05-.156-.1-.232-.154a2.209,2.209,0,0,0-1.41-.432,3.9,3.9,0,0,1-.537-.018c-.9-.1-1.078-.564-1.132-.96a2.816,2.816,0,0,0-.159-.631c.538.355,1.064.7,1.6,1.035a1.355,1.355,0,0,0,1.14.293l.136-.047a1.589,1.589,0,0,0,1.19-1.009,3.832,3.832,0,0,1,.388-.826l.016-.026.016.022a1.943,1.943,0,0,0,1.528.862,1.144,1.144,0,0,1,.243.047.968.968,0,0,0-.248,1.076,1.132,1.132,0,0,0,.939.73,1.982,1.982,0,0,0,.6-.031c.12-.023.245-.046.307-.049.016.02.037.051.06.087l-.408.6Zm15.186-3.413a4,4,0,0,1,.965-.475,6.006,6.006,0,0,0,2.268-1.341,12.273,12.273,0,0,1,1.615-1.186l.052-.034a5.085,5.085,0,0,1,2.246-.685c.18-.021.291.016.318.057s.034.145-.075.338a.8.8,0,0,1-.325.312,3.89,3.89,0,0,1-1.015.334,2.964,2.964,0,0,0-2.279,1.618c-.136.26-.29.517-.454.788l-.017.028c-.661-.467-1.061-.421-1.92.081a2.312,2.312,0,0,1-.559.268.865.865,0,0,1-.453,0A2.725,2.725,0,0,0,75.614,102.838ZM32.988,84.317h0v0ZM22.835,81.331a4.574,4.574,0,0,1,.025-1.405,2.338,2.338,0,0,1,1.31.791l.078.073a1.661,1.661,0,0,0,1.165.465l.21,0c.274.005.547.01.818,0a1.305,1.305,0,0,1,1.018.358,2.856,2.856,0,0,0,.662.488q-.512-.092-1.025-.176a1.935,1.935,0,0,0-1.817.578c-.452.492-.848.958-1.212,1.424a1.3,1.3,0,0,0-.245.8,2.448,2.448,0,0,1-.24,1.1,3.02,3.02,0,0,0-.159,2.419,2.188,2.188,0,0,1,.09.608c.005.095.011.19.02.283.012.116.016.232.021.349.005.142.011.284.026.425a2.9,2.9,0,0,0,.426,1.327,1.768,1.768,0,0,0-.486-.1.793.793,0,0,1-.575-.322,2.411,2.411,0,0,0-.918-.689c-.221-.074-.251-.157-.3-.544-.033-.267-.078-.533-.129-.834l-.044-.261.02-.024a2.6,2.6,0,0,1,.405-.418,1.337,1.337,0,0,0,.495-1.532,7.526,7.526,0,0,0-.652-1.484.856.856,0,0,0-.536-.447l0-.005,0,0a.69.69,0,0,0-.159-.019h0a.866.866,0,0,0-.752.518,2.06,2.06,0,0,0-.13.283c-.082-.147-.167-.293-.259-.436-.171-.267-.34-.507-.509-.726a1.166,1.166,0,0,0,.687-.174,1.562,1.562,0,0,1,1.061-.2.952.952,0,0,0,1.013-.389A2.769,2.769,0,0,0,22.835,81.331Zm2.8,11.859a1.162,1.162,0,0,0,1.046.4c.477-.028.475-.028.617.457a2.944,2.944,0,0,0,.335.758.246.246,0,0,1-.034-.03,3.64,3.64,0,0,0-1.744-1.03c-.093-.025-.1-.026-.113-.13A2.635,2.635,0,0,0,25.63,93.19Zm-4.812-5.652a2.634,2.634,0,0,0,.313-1.036c.018-.118.034-.23.057-.337a4.751,4.751,0,0,1,.222.521.4.4,0,0,1-.169.542,3.917,3.917,0,0,0-.5.437ZM31.363,97.671a2.468,2.468,0,0,1,.988.2l-.019.215a.234.234,0,0,1,0,.026,1.1,1.1,0,0,0-.46.24ZM20.7,78.619A1.489,1.489,0,0,1,20.608,80a1.8,1.8,0,0,0-.206.682c-.007.043-.013.086-.021.129-.267-.157-.521-.344-.788-.54l-.16-.117c-.086-.062-.165-.133-.244-.2a3.474,3.474,0,0,0-.364-.292,1.974,1.974,0,0,0-1.107-.366,1.729,1.729,0,0,0-.377.042c-.2.043-.393.09-.589.136-.28.066-.559.132-.841.189a.95.95,0,0,1-.163.02,1.557,1.557,0,0,0-1.006-.2l-.055,0c-.329.016-.658.029-.987.042-.5.02-1,.04-1.5.068-.153.009-.193-.022-.255-.138a6.035,6.035,0,0,1-.433-1.013,7.769,7.769,0,0,0-.464-1.085,6.476,6.476,0,0,0,1.577,1.126,1.793,1.793,0,0,0,.714.213c.461.017.926.014,1.376.011l.466,0c.1,0,.194,0,.292,0,.118,0,.233-.006.353,0l.153,0a2.409,2.409,0,0,0,1.119-.169.894.894,0,0,1,.2,0c.058,0,.117,0,.171,0A1.008,1.008,0,0,0,18.51,77.8a.911.911,0,0,1,.545-.555.866.866,0,0,0,.53-1.058c-.019-.089-.042-.177-.064-.266a3.678,3.678,0,0,1-.095-.449c-.028-.232-.057-.467-.073-.7a2.561,2.561,0,0,0,2,1.087,3.021,3.021,0,0,1,.968.137,10.283,10.283,0,0,1,1.322.511.916.916,0,0,0-.41.226c-.277.293-.625.324-1.17.351l-.081,0a2.1,2.1,0,0,0-.569.118,1.137,1.137,0,0,0-.7.563A1.076,1.076,0,0,0,20.7,78.619Zm-.266,9.1.224.033-.073.074c-.083.085-.17.173-.26.26,0-.029,0-.057,0-.086a2.642,2.642,0,0,0-.025-.314A.88.88,0,0,0,20.429,87.718ZM8.808,60.3a.43.43,0,0,1-.133.418l-.161.181a6.732,6.732,0,0,1-.826.831,4.48,4.48,0,0,0-1.652,4.361l.025.218c.036.319.074.649.131.976a1.206,1.206,0,0,0,.169.4c.025.043.053.09.078.142l.406.809a2.311,2.311,0,0,1-.678-.995.834.834,0,0,0-.818-.652l-.074,0h0a8.949,8.949,0,0,1,.186-1,4.8,4.8,0,0,0,.079-2.231.806.806,0,0,0-1.067-.734c-.109.019-.217.043-.325.07A4.389,4.389,0,0,1,4.8,62.2a2.463,2.463,0,0,0,.657-1.283,6.414,6.414,0,0,1,.85-1.995c.09-.159.133-.195.124-.2s.068,0,.256.081c.307.131.616.284.916.431.153.075.307.151.461.224.182.087.366.171.558.26l.082.038h0C8.732,59.934,8.766,60.116,8.808,60.3ZM6.9,68.679l.136-.472a2.684,2.684,0,0,0,.659.645.214.214,0,0,1,.03.025.292.292,0,0,1-.037.137.141.141,0,0,1-.033.053.142.142,0,0,1-.063-.011,2.327,2.327,0,0,1-.661-.352ZM3.767,64.587c.191-.06.382-.119.575-.178a1.43,1.43,0,0,1-.02.646c-.1.351-.169.708-.24,1.053l-.062.3a2.5,2.5,0,0,0-.059.679c-.119-.2-.244-.4-.382-.594A3.362,3.362,0,0,1,3,64.851c-.011-.1-.027-.2-.039-.3A1,1,0,0,0,3.767,64.587ZM54.486,2.008a3.793,3.793,0,0,0,1.757.226,3.807,3.807,0,0,1-1.133.154,9.236,9.236,0,0,0-1.579.185l-.076.014a1.5,1.5,0,0,0-.227.061c.34-.173.674-.354,1.006-.534l.074-.041A.591.591,0,0,1,54.486,2.008Zm-16.312,25.2a1.375,1.375,0,0,0,.685.922,4.557,4.557,0,0,0,.845.348c.087.029.175.059.261.09.112.04.227.074.348.11l-.015.08c-.057.313-.111.608-.14.917a2.344,2.344,0,0,1-.5,1.239,4.268,4.268,0,0,0-.7,3.163l.007.06a6.363,6.363,0,0,1-.038,2.333,10.965,10.965,0,0,1-.677,1.878,2.72,2.72,0,0,1-.706.805c-.343.29-.719.562-1.118.85l-.22.16a.99.99,0,0,0-.648-.426,1.058,1.058,0,0,0-.75.343,4.266,4.266,0,0,0-.551.558,1.438,1.438,0,0,0-.031,1.942.694.694,0,0,1,.116.845,3.1,3.1,0,0,0-.282,1.111,2.9,2.9,0,0,1-.443,1.276l-.128.218c-.1.169-.2.337-.294.509a5.338,5.338,0,0,0-.709,2.248,3.409,3.409,0,0,1-.123.823,2.372,2.372,0,0,0,.465,2.168,1.159,1.159,0,0,0,1.347.557c.467-.141.753,0,1.131.556A5.548,5.548,0,0,0,36.4,54.036c.626.516,1.308,1.035,2.148,1.634.17.121.15.176.122.252a3.64,3.64,0,0,1-.394.81,2.189,2.189,0,0,0-.468,1.39,1.352,1.352,0,0,1-.646,1.273c-.536.369-.56.576-.357,1.17.05.146.094.294.139.442a8.1,8.1,0,0,0,.281.823c.317.751.666,1.485.969,2.115a1.707,1.707,0,0,0,.943.924,1.074,1.074,0,0,1,.162.2l.026.037a1.6,1.6,0,0,1,.116.217c.037.077.074.154.116.226a1.5,1.5,0,0,0,2.266.733,1.753,1.753,0,0,1,.283-.124,1.6,1.6,0,0,1,.256.221c.116.114.233.226.354.336a1.57,1.57,0,0,0,1.579.355c.144-.041.362-.1.389-.108a2.213,2.213,0,0,1,.235.335,1.439,1.439,0,0,0,.974.641.4.4,0,0,1,.366.394,1.846,1.846,0,0,0,1.68,1.675,2.288,2.288,0,0,1,.62.211,1.993,1.993,0,0,0,1.693.039c.61-.243,1.223-.48,1.835-.718l.885-.346a2.452,2.452,0,0,1,.234-.088.889.889,0,0,1,.346-.067c.005,0,.054.045.135.273a1.641,1.641,0,0,0,1.488,1.179c.472.056.95.129,1.421.2a2.868,2.868,0,0,0-1.063.355,1.382,1.382,0,0,0-.785,1.023,1.327,1.327,0,0,0,.38,1.072.962.962,0,0,1-.651-.252,2.162,2.162,0,0,1-.622-1.244l-.027-.173a3.447,3.447,0,0,0-.122-.579,1.175,1.175,0,0,0-1.165-.825c-.036,0-.072,0-.108,0-.2.014-.4.019-.594.024l-.338.01-.157,0a3.586,3.586,0,0,0-.479.032,1.583,1.583,0,0,0-1.51,1.693,1.254,1.254,0,0,0,0,.286,1.263,1.263,0,0,1-.24.918,1.4,1.4,0,0,1-.305-.007.361.361,0,0,1-.163-.076c-.142-.181-.289-.358-.436-.535a6.677,6.677,0,0,1-1.141-1.691,1.81,1.81,0,0,0-1.093-.978,1.674,1.674,0,0,1-.787-.615,2.5,2.5,0,0,0-1.752-1.058,5.569,5.569,0,0,1-2.1-.914l-.068-.041c-.554-.335-1.1-.723-1.623-1.1-.3-.215-.6-.429-.909-.637a4.639,4.639,0,0,1-1.307-1.389c-.24-.378-.473-.76-.707-1.143-.3-.5-.608-1-.926-1.484a7.749,7.749,0,0,1-1.1-3.413,8.04,8.04,0,0,0-2.356-4.7l-.042-.043c-.046-.048-.092-.1-.142-.141a1.821,1.821,0,0,1-.638-2.173,4.8,4.8,0,0,0,.227-1.262l.011-.121a12.837,12.837,0,0,1,.817-3.111c.127-.358.253-.715.368-1.076a14.352,14.352,0,0,0,.786-3.929,2.613,2.613,0,0,1,.926-1.907,4.355,4.355,0,0,0,.659-.817c.083-.122.165-.244.253-.36s.185-.247.276-.371c.227-.308.441-.6.68-.871a3.873,3.873,0,0,0,.9-2.995c-.03-.427-.1-.851-.159-1.26-.036-.232-.072-.465-.1-.7-.085-.668-.148-1.224-.2-1.751a2.885,2.885,0,0,0-.536-1.522l-.053-.071a1.611,1.611,0,0,1-.259-.416,6.811,6.811,0,0,0-1.279-2.145l-.148-.19a3.548,3.548,0,0,1-.7-1.718l-.011-.079.054.075a1.425,1.425,0,0,0,1.169.611c.409.008.818.02,1.227.032s.844.025,1.287.033c.162,0,.33.007.346,0a2.148,2.148,0,0,1,.154.336c.012.03.023.06.033.091a1.316,1.316,0,0,0,.135.3c.174.27.173.39,0,.613A1.058,1.058,0,0,0,38.174,27.207ZM52.66,3.033l-.1.139a2.66,2.66,0,0,0-.675,1.47.672.672,0,0,1-.738.6,3.229,3.229,0,0,0-.981.21,4.33,4.33,0,0,1-2.509.284,1.417,1.417,0,0,0-1.46.551c-.384.5-.749,1.017-1.1,1.52l-.359.511c-.052.072-.1.149-.145.226a2,2,0,0,1-.163.243A7.294,7.294,0,0,0,42.7,12.732a1.669,1.669,0,0,1-.845,1.24.266.266,0,0,1-.366-.005,1.63,1.63,0,0,0-1.435-.378,2.3,2.3,0,0,0-1.459,1.07,10.472,10.472,0,0,0-.745,1.551,5.131,5.131,0,0,1-1.342,2l-.051.051a5.972,5.972,0,0,0-1.3.781l-.23.165a8.8,8.8,0,0,0,.393-.947,5.225,5.225,0,0,1,1.1-1.9,3.793,3.793,0,0,0,.506-.783l.023-.043c.16-.3.326-.6.492-.894a23.88,23.88,0,0,0,1.1-2.127,7.311,7.311,0,0,1,2.05-2.8,4.023,4.023,0,0,0,.607-.665,3.921,3.921,0,0,1,.433-.5,3.081,3.081,0,0,0,.916-2.075A1.236,1.236,0,0,1,43.876,5.3a2.389,2.389,0,0,0,1.615-.611.337.337,0,0,1,.243-.1.644.644,0,0,1,.129.015c.281.056.564.1.848.152.168.029.335.057.5.088a1.236,1.236,0,0,0,1.27-.449,1.78,1.78,0,0,1,1.36-.688A8.111,8.111,0,0,0,52.9,2.812.985.985,0,0,0,52.66,3.033ZM91.094,90.889c.718-.343,1.44-.675,2.163-1.007,1.131-.52,2.3-1.058,3.434-1.629a14.975,14.975,0,0,0,3.091-2.288l.215-.19c.568-.5,1.111-1.014,1.641-1.538a2.611,2.611,0,0,1-1.146,1.662,3.1,3.1,0,0,0-1.024.965,1.407,1.407,0,0,1-.749.6c-.179.074-.36.142-.541.21s-.378.142-.565.219a3.741,3.741,0,0,0-.483.252l-.034.02c-.079.046-.156.1-.233.148a2.338,2.338,0,0,1-.317.187c-.234.1-.475.2-.715.293a9.507,9.507,0,0,0-1.381.628,23.056,23.056,0,0,1-2.657,1.325,3.093,3.093,0,0,1-.975.249A2.06,2.06,0,0,0,91.094,90.889Zm12.612-4.55c-.224.05-.449.1-.674.147a.87.87,0,0,0-.726,1.036.981.981,0,0,1-.4.9c-.657.521-1.387,1.047-2.233,1.607a.7.7,0,0,1-.443.074,5.321,5.321,0,0,0-2.217.07c-.408.089-.817.173-1.227.257.47-.172.987-.351,1.6-.554a1.326,1.326,0,0,0,.78-.528.714.714,0,0,1,.213-.124c.146-.068.3-.126.447-.185.122-.048.245-.1.366-.148a2.323,2.323,0,0,0,1.424-1.368,1.1,1.1,0,0,1,.423-.453,4.227,4.227,0,0,0,1.775-2.563,1.168,1.168,0,0,1,.612-.8,7.481,7.481,0,0,0,2.721-2.373,2.028,2.028,0,0,1,.442,1.112c.063.52.091,1.054.117,1.57a1.467,1.467,0,0,0,1.737,1.518c.277-.021.567-.035.862-.045-.094.216-.21.227-.6.262-.447.041-.9.07-1.343.1-.648.042-1.317.086-1.977.165A16.889,16.889,0,0,0,103.706,86.339Zm-13.323,5.9c-.283.106-.576.2-.864.287l-.08.025a2.236,2.236,0,0,0-1.219.878.674.674,0,0,0-.059-.174.841.841,0,0,0-.568-.417,3.868,3.868,0,0,0-.6-.107c-.12-.015-.241-.029-.358-.053l-.049-.01a5.985,5.985,0,0,1-.866-.218.5.5,0,0,1-.065-.029.444.444,0,0,1,.042-.047.98.98,0,0,1,.976-.349,1.338,1.338,0,0,0,.659.041,5.506,5.506,0,0,1,2.317.069l.292.049Q90.169,92.22,90.382,92.236Zm19.235-35.909c.353-.305.717-.6,1.072-.894l.334-.274a1.08,1.08,0,0,1,.135-.092.272.272,0,0,1,.048.281c-.209.614-.5.647-.591.658A2.8,2.8,0,0,0,109.618,56.327Zm-3.578,1.908c.06-.4.12-.809.166-1.214.031-.277.063-.322.219-.322.031,0,.067,0,.109,0a2.627,2.627,0,0,1,1.038.238,1.5,1.5,0,0,0,.722.186c-.12.064-.248.13-.385.2a2.639,2.639,0,0,0-1.245,1.249,4.832,4.832,0,0,1-.5.848,2.642,2.642,0,0,0-.338.551C105.868,59.4,105.953,58.827,106.04,58.235ZM87.376,88.343c-.23.058-.459.114-.69.164a.4.4,0,0,1-.38-.115l-.053-.041c.136,0,.272-.005.406-.009.186-.006.373-.012.557-.007C87.282,88.336,87.335,88.339,87.376,88.343Zm-12.7,6.4c-.03-.034-.061-.067-.095-.1.03-.112.059-.221.09-.329a1.211,1.211,0,0,0-.025-.994,1.248,1.248,0,0,0-.91-.457c-.133-.022-.265-.042-.4-.063-.3-.046-.581-.089-.859-.155a.456.456,0,0,1-.364-.273c.547.073,1.088.177,1.549.27a3.017,3.017,0,0,0,1.476-.016,3.847,3.847,0,0,1,.739-.112l.125-.012a8.709,8.709,0,0,0,4.282-1.829,6.059,6.059,0,0,0,1.065-1.083,3.54,3.54,0,0,1,1.513-1.059,4.714,4.714,0,0,1,1.441-.339,2.349,2.349,0,0,0-.387.283c-.091.082-.184.162-.277.243a4.866,4.866,0,0,0-1.359,1.587c-.016.034-.027.057-.212.071-.216.015-.436.012-.668.008l-.13,0h-.029a1.507,1.507,0,0,0-1.389.8c-.244.425-.517.849-.781,1.259l-.214.333a.684.684,0,0,1-.147.168c-.306.241-.615.477-.947.729l-.142.109c-.086-.062-.173-.127-.255-.2a1.2,1.2,0,0,0-1.6-.229C74.965,93.759,74.69,94.061,74.679,94.744Zm.432,1.784a.154.154,0,0,1-.067-.119C75.065,96.449,75.088,96.489,75.111,96.528Z" transform="translate(0)" fill="#f0f0f0"/>
      <path id="パス_281" data-name="パス 281" d="M8.11,1.926a2.039,2.039,0,0,0-.273-.711A2.543,2.543,0,0,0,4.886.113,1.659,1.659,0,0,0,3.941.8l-.152.21a4.308,4.308,0,0,1-1.507,1.5,3.357,3.357,0,0,0-1.79,2.3C.33,5.444.162,6.093.038,6.747a2.411,2.411,0,0,0,1.1,2.446,2.5,2.5,0,0,0,1.307.446,2.225,2.225,0,0,0,1.37-.559c.611-.475,1.207-.985,1.8-1.492A8.293,8.293,0,0,0,8.171,2.282l.014-.092L8.157,2.1C8.14,2.051,8.126,1.991,8.11,1.926ZM5.225,1.681c.06-.112.162-.133.484-.145l.084,0,.069,0a.9.9,0,0,1,.732.394.625.625,0,0,1,.136.329A6.089,6.089,0,0,1,5.2,5.719a27.515,27.515,0,0,1-2.581,2.1.52.52,0,0,1-.514,0,.839.839,0,0,1-.491-.67,3.458,3.458,0,0,1,.068-.706l.024-.154c.024-.153.056-.305.088-.457.037-.178.074-.355.1-.535A2.367,2.367,0,0,1,3.073,3.58c.073-.046.143-.1.213-.146a2.123,2.123,0,0,1,.293-.185A3.564,3.564,0,0,0,5.225,1.681Z" transform="translate(114.947 74.425)" fill="#f0f0f0"/>
      <path id="パス_282" data-name="パス 282" d="M29.321,6.769c.814-.917,1.6-1.889,2.322-2.8a1.044,1.044,0,0,0,.25-.825,1.055,1.055,0,0,0-.5-.717,3.94,3.94,0,0,0-1.121-.537c-.379-.1-.765-.185-1.138-.263s-.751-.158-1.113-.258a5.77,5.77,0,0,0-.921-.154A2.043,2.043,0,0,1,25.523.577a.4.4,0,0,0-.19-.14,1.557,1.557,0,0,0-1.48-.009A1.553,1.553,0,0,0,23.107,1.7a3.152,3.152,0,0,0,.007.542.276.276,0,0,1-.2.34,1.5,1.5,0,0,0-.935.859l-.638.435-.287-.119c-.377-.156-.756-.313-1.133-.474a1,1,0,0,1-.108-.052,1.248,1.248,0,0,1,.024-.177,1.1,1.1,0,0,0-.828-1.466,17.9,17.9,0,0,0-2.182-.5c-.131-.02-.261-.038-.391-.055A3.8,3.8,0,0,1,14.6.46a2.767,2.767,0,0,0-2.07-.313L12.3.172a1.752,1.752,0,0,0-1.251.912L10.7.924C10.254.721,9.8.513,9.343.3a2.757,2.757,0,0,0-3.321.64c-.231.26-.356.281-.53.229a.863.863,0,0,0-.655.036c-.171.1-.338.064-.641-.013l-.044-.011a2.7,2.7,0,0,0-2.171.378,12.207,12.207,0,0,1-1.188.624c-.188.09-.377.181-.565.277L0,2.57l.014.255a.851.851,0,0,0,.307.7.806.806,0,0,0,.724.01l.223-.081a5.843,5.843,0,0,0,.984-.427,2.217,2.217,0,0,1,1.822-.145,1.882,1.882,0,0,0,.81.041c.385-.069.763-.168,1.129-.263l.22-.057A2.785,2.785,0,0,0,8.08,1.53c.028-.013.073-.037.1-.024a2.288,2.288,0,0,1,.689.114c.776.273,1.476.54,2.142.817a3.311,3.311,0,0,1,.874.482,2.929,2.929,0,0,0,1.888.655c.156.006.313,0,.469,0s.283,0,.424,0a3.176,3.176,0,0,1,2.721,1.071c.191.255.273.4.256.585a2.7,2.7,0,0,0,0,.336l0,.067a2.037,2.037,0,0,0,1.069,1.694,1.818,1.818,0,0,0,1.9-.149,3.914,3.914,0,0,0,1.8-1.922.642.642,0,0,1,.059-.111L25.6,5.041l.079.136a5.648,5.648,0,0,0,.51.774.521.521,0,0,1,.156.49,1.006,1.006,0,0,0,.143.857.976.976,0,0,0,.781.281h.047A2.615,2.615,0,0,0,29.321,6.769Zm-2.14-1.65A3.011,3.011,0,0,1,26.8,4.5a1.179,1.179,0,0,0-1.106-.852,1.863,1.863,0,0,0-.4.048A3.628,3.628,0,0,1,23.8,3.655a1.675,1.675,0,0,0,.6-1.726c-.058-.245.012-.279.033-.289.05-.025.181-.088.406.1.055.046.107.1.158.148l.083.081a2.1,2.1,0,0,0,1.353.548,11.252,11.252,0,0,1,3.676.917l-.367.49c-.454.606-.9,1.2-1.343,1.783a1.4,1.4,0,0,1-.8.528A1.562,1.562,0,0,0,27.181,5.119ZM19.7,4.644c.111.038.224.07.339.1a1.89,1.89,0,0,1,.64.261,1.913,1.913,0,0,1-.972.818.617.617,0,0,1-.526.058.431.431,0,0,1-.14-.339,2.991,2.991,0,0,0-1.365-2.259A4.206,4.206,0,0,0,15.117,2.5c-.09-.006-.18-.007-.269-.007l-.2,0c-.105,0-.211,0-.316,0A2.215,2.215,0,0,1,12.513,1.9a1.8,1.8,0,0,0-.449-.361,1.153,1.153,0,0,1,.913-.286,2.085,2.085,0,0,1,1.4.458,3.683,3.683,0,0,0,1.923.79c.574.1,1.154.229,1.716.352l.41.09C18.327,3.924,18.61,4.266,19.7,4.644Z" transform="translate(32.322 87.141)" fill="#f0f0f0"/>
      <path id="パス_283" data-name="パス 283" d="M9.845,2.064A10.358,10.358,0,0,0,6.79.235,3.052,3.052,0,0,0,3.733.614.63.63,0,0,1,3.48.663c-.23,0-.46-.015-.69-.028S2.3.608,2.058.607H2.047a2.036,2.036,0,0,0-1.659.787A2.071,2.071,0,0,0,.1,3.247c.066.223.12.45.174.676.074.309.15.629.256.942l.036.107a2.824,2.824,0,0,0,.632,1.2,2.194,2.194,0,0,1,.618,1.664,6.6,6.6,0,0,0,.12,1.06,11.841,11.841,0,0,1,.316,2.557,2.143,2.143,0,0,0,.069.576,1.087,1.087,0,0,0,1.087.9,1.576,1.576,0,0,0,.3-.029,1.644,1.644,0,0,0,.312-.1l.579-.215c.467-.172.935-.343,1.4-.521l.09-.034a3.1,3.1,0,0,0,.69-.329,1.1,1.1,0,0,0-.1-1.981c-.138-.076-.282-.142-.426-.208s-.284-.129-.419-.207a8.989,8.989,0,0,1-.9-.589A4.945,4.945,0,0,1,4.5,8.334l-.106-.1A1.661,1.661,0,0,1,4.458,7.9,1.6,1.6,0,0,0,4.189,6.3,1.735,1.735,0,0,1,4.061,6.1a1.264,1.264,0,0,1-.193-.981,1.151,1.151,0,0,1,.778-.568,1.623,1.623,0,0,1,.51-.106c.482.007.979.044,1.458.079l.116.008a2.152,2.152,0,0,1,1.4.629,2.459,2.459,0,0,0,1.652.689,1.025,1.025,0,0,0,1.179-.78,1.8,1.8,0,0,0,0-1.388A3.869,3.869,0,0,0,9.845,2.064ZM3.3,3.975c-.156.106-.3.224-.449.348-.067.056-.138.113-.212.173L2.4,4.685l.125.276a2.935,2.935,0,0,1,.178.742,2.567,2.567,0,0,0,.617,1.525c.021.022.022.06-.018.272a8.776,8.776,0,0,0-.122.981.775.775,0,0,0,.564.866l.011,0a6.325,6.325,0,0,0,2.03,1.367l-.041.017c-.626.245-1.258.475-1.889.705l-.323.118-.044.016c0-.017-.01-.037-.016-.06l-.025-.09a.876.876,0,0,1-.024-.1A10.2,10.2,0,0,0,3.135,9c-.035-.17-.07-.339-.1-.51a6.016,6.016,0,0,1-.084-.937A3.135,3.135,0,0,0,2.079,5.3a2.014,2.014,0,0,1-.341-.784c-.087-.294-.152-.593-.221-.91-.05-.23-.1-.46-.159-.688a.72.72,0,0,1,.12-.659.728.728,0,0,1,.578-.247c.025,0,.051,0,.076,0,.511.037,1.034.075,1.572.071a1.354,1.354,0,0,0,.86-.3,1.47,1.47,0,0,1,1.656-.2,6.181,6.181,0,0,1,1.4.672c.131.088.266.173.4.258a4.007,4.007,0,0,1,1.387,1.2,3.4,3.4,0,0,1,.311.751,1.284,1.284,0,0,1-.768-.332C7.506,2.9,5.858,3.051,4.293,3.4a2.153,2.153,0,0,0-.8.431C3.433,3.882,3.368,3.931,3.3,3.975Z" transform="translate(34.734 89.806)" fill="#f0f0f0"/>
      <path id="パス_284" data-name="パス 284" d="M4.813.735C4.568.666,4.323.591,4.079.516A13.592,13.592,0,0,0,2.317.061,2.1,2.1,0,0,0,.528.354,1.859,1.859,0,0,0,0,1.877v.04c0,.031,0,.062,0,.093.014.274.025.548.036.823.028.686.057,1.395.124,2.094A3.791,3.791,0,0,0,.567,6.24c.189.372.4.731.608,1.08.19.322.387.656.559.988a4.444,4.444,0,0,1,.33,1.019c.049.211.077.429.107.661.021.162.042.323.07.484.014.077.028.154.043.232a2.174,2.174,0,0,1,.044,1,2.015,2.015,0,0,0-.054.535,1.912,1.912,0,0,1-.013.276c-.06.388-.137.786-.231,1.183a3.392,3.392,0,0,1-.138.413c-.028.073-.055.147-.081.22a5.785,5.785,0,0,0-.267,1.942,1,1,0,0,0,.55,1,.784.784,0,0,0,.336.08,1.038,1.038,0,0,0,.737-.414,5.988,5.988,0,0,0,.579-.751,19.83,19.83,0,0,0,2.176-5.168A4.847,4.847,0,0,0,6,8.547c-.128-.559-.247-1.12-.366-1.682-.072-.341-.144-.681-.218-1.02a.9.9,0,0,0-.21-.462A1.356,1.356,0,0,1,4.926,4.7c-.013-.056-.026-.114-.041-.173l.028.016.076.043a4.823,4.823,0,0,0,1.967.56,1.022,1.022,0,0,0,.8-.2,1.06,1.06,0,0,0,.281-.792A2.391,2.391,0,0,0,7.4,2.406,5.732,5.732,0,0,0,4.813.735ZM4.3,3.137a1.443,1.443,0,0,0-1,1.014,1.353,1.353,0,0,0,.14,1.37A6.634,6.634,0,0,1,4.891,8.8,3.462,3.462,0,0,1,4.8,10.529,20.991,20.991,0,0,1,2.83,15.211a2.008,2.008,0,0,1,.136-.459,8.548,8.548,0,0,0,.559-2.9l.017-.235a4.635,4.635,0,0,0-.059-.96c-.013-.1-.026-.192-.036-.288l-.031-.3a8.538,8.538,0,0,0-.159-1.1,5.7,5.7,0,0,0-.463-1.3c-.2-.392-.424-.776-.639-1.147-.188-.324-.376-.648-.551-.979a1.809,1.809,0,0,1-.211-.688c-.06-.831-.1-1.72-.135-2.884-.012-.424.049-.542.087-.575.019-.017.085-.057.279-.057a2.588,2.588,0,0,1,.414.04,17.524,17.524,0,0,1,2.5.67l.189.061A3.888,3.888,0,0,1,6.537,3.432a1.136,1.136,0,0,1,.16.346,3.17,3.17,0,0,1-.9-.259c-.064-.028-.127-.062-.189-.095a2.3,2.3,0,0,0-.455-.2A2.077,2.077,0,0,0,4.3,3.137Z" transform="translate(98.852 31.733)" fill="#f0f0f0"/>
      <path id="パス_285" data-name="パス 285" d="M.381,1.7l.071.072c.185.2.372.4.56.592.3.317.6.634.9.959a6.53,6.53,0,0,1,.686.882l.32.509c.567.9,1.154,1.83,1.676,2.77a7.038,7.038,0,0,1,.995,4.525c-.011.071-.023.142-.036.213a4.148,4.148,0,0,0-.069.528,1.535,1.535,0,0,0,1.175,1.721,1.348,1.348,0,0,1,.675.514,17.177,17.177,0,0,0,1.128,1.388,9.962,9.962,0,0,1,1.65,2.175,1.6,1.6,0,0,0,.466.521.952.952,0,0,0,.568.225.632.632,0,0,0,.171-.024.8.8,0,0,0,.511-.528,4.674,4.674,0,0,0,.209-.755c.016-.078.032-.151.048-.216l.014-.054,0-.056a4.537,4.537,0,0,0-.518-2.165,13.21,13.21,0,0,1-.638-1.353l-.115-.27c-.051-.117-.1-.237-.143-.357A3.3,3.3,0,0,0,9.86,12.16a.837.837,0,0,1-.1-.179c-.03-.062-.06-.123-.094-.181a4.665,4.665,0,0,1-.344-.815,3.29,3.29,0,0,0-.962-1.606.937.937,0,0,1-.082-.192l-.023-.064c-.128-.346-.246-.7-.359-1.048a7.1,7.1,0,0,0-1.4-2.481c-.228-.264-.466-.518-.7-.772-.269-.287-.547-.584-.8-.887a6.482,6.482,0,0,1-.476-.683c-.1-.155-.2-.31-.3-.46l-.076-.109a2.83,2.83,0,0,0-.51-.606c-.323-.267-.661-.52-.987-.765-.222-.166-.444-.333-.662-.5A5.985,5.985,0,0,1,1.508.383L1.394.272A.832.832,0,0,0,.208.227a1.131,1.131,0,0,0-.172.952A1.118,1.118,0,0,0,.381,1.7ZM5.734,6.462l.023.022a5.272,5.272,0,0,0,.574,1.03,3.65,3.65,0,0,1,.576,1.124,3.677,3.677,0,0,0,1.1,2,.5.5,0,0,1,.074.176,6.25,6.25,0,0,0,1.266,2.438,2.1,2.1,0,0,1,.307.642c.046.129.092.259.146.382.087.2.17.4.255.6.166.395.337.8.526,1.2a2.794,2.794,0,0,1,.311,1.357,11.532,11.532,0,0,0-1.5-1.94l-.052-.058A16.547,16.547,0,0,1,8.3,14.112a2.567,2.567,0,0,0-1.183-.931c-.349-.133-.349-.133-.271-.509A7.763,7.763,0,0,0,5.6,6.74c-.256-.406-.523-.81-.791-1.209l.425.431Z" transform="translate(94.608 13.768)" fill="#f0f0f0"/>
      <path id="パス_286" data-name="パス 286" d="M4.683,8.236A6.126,6.126,0,0,0,7.359,9.594a2.794,2.794,0,0,1,.86.348c.313.2.624.425.925.644.236.173.473.345.715.509a9.248,9.248,0,0,0,3.2,1.435,1.524,1.524,0,0,0,.329.037,1.271,1.271,0,0,0,1.122-.627,1.119,1.119,0,0,0-.267-1.367,6.424,6.424,0,0,0-1.125-1.013c-.806-.554-1.644-1.086-2.454-1.6l-.4-.251A3.042,3.042,0,0,1,9.226,6.685,2.136,2.136,0,0,0,7.053,5.427c-.286.031-.425-.006-.557-.472A2.625,2.625,0,0,1,6.375,4.2c.007-.318-.006-.634-.019-.941A7.05,7.05,0,0,1,6.43,1.487a2.048,2.048,0,0,0,0-.733A.855.855,0,0,0,5.9.047a.843.843,0,0,0-.847.184,1.632,1.632,0,0,0-.422.634,2.887,2.887,0,0,0-.146.514c-.012.056-.024.111-.038.167-.057.233-.116.466-.175.7-.143.563-.292,1.146-.4,1.732l0,.014c-.012-.353-.035-.708-.062-1.065a.552.552,0,0,0-.16-.329c-.02-.023-.045-.052-.073-.09l-.217-.292-.306.2a2.825,2.825,0,0,0-.77.823c-.042.058-.082.116-.124.172-.039-.258-.077-.505-.112-.753-.018-.129-.033-.259-.047-.389-.025-.223-.05-.454-.1-.685A1.007,1.007,0,0,0,.917.815a.808.808,0,0,0-.851.748l-.015.061a1.1,1.1,0,0,0-.044.425l.024.18c.08.6.162,1.215.274,1.822.042.232.095.461.148.691A5.748,5.748,0,0,1,.669,6.4,5.175,5.175,0,0,0,1.843,9.9a1.142,1.142,0,0,0,.921.582l.159,0,.116-.108a1.275,1.275,0,0,0,.3-1.236l-.008-.052a3.991,3.991,0,0,1,.138-2.074,6.167,6.167,0,0,0,.3-1.155c0,.119,0,.238,0,.356A2.322,2.322,0,0,0,4.683,8.236Zm-2.34-1.7a3.469,3.469,0,0,0-.184.635,7.759,7.759,0,0,0-.082.837,2.033,2.033,0,0,1-.215-.855A11.541,11.541,0,0,0,1.76,5.9l.225.447.3-.89A2.844,2.844,0,0,1,2.7,4.576a7.018,7.018,0,0,1-.234,1.6C2.431,6.3,2.387,6.417,2.343,6.536Zm2.937-.787a1.548,1.548,0,0,0,1.227.984,3.475,3.475,0,0,0,.928.082c.237-.005.305.067.357.153A8.8,8.8,0,0,0,10.85,9.713L11.3,10c.286.187.579.388.887.607a17.3,17.3,0,0,1-3.159-1.76,4.4,4.4,0,0,0-1.354-.6A5.816,5.816,0,0,1,5.494,7.175a1.112,1.112,0,0,1-.482-.959c0-.534-.026-1.071-.053-1.59l-.02-.386a5.076,5.076,0,0,1,.214-1.433c-.025.2-.054.4-.092.589A4.483,4.483,0,0,0,5.281,5.749Z" transform="translate(30.004 72.536)" fill="#f0f0f0"/>
      <path id="パス_287" data-name="パス 287" d="M4.426,2.625A1.042,1.042,0,0,0,4,3.479c.06.43.392.66.984.685a1.989,1.989,0,0,0,.3-.017c.048-.006.1-.012.145-.013.114,0,.228,0,.348,0a.824.824,0,0,1-.2.59C5.126,5.295,4.7,5.89,4.28,6.466c-.171.236-.341.471-.513.706A11.086,11.086,0,0,1,2.2,8.918c-.512.458-.989.962-1.45,1.448l-.286.3A1.236,1.236,0,0,0,.141,12.2a1.374,1.374,0,0,0,1.445.7,5.983,5.983,0,0,0,1-.172A1.48,1.48,0,0,1,3.935,13c.143.1.293.2.442.3s.327.214.482.332a1.006,1.006,0,0,0,.612.224.994.994,0,0,0,.627-.24c.176-.141.343-.294.51-.447.1-.091.2-.182.3-.27.342-.3.688-.59,1.034-.883.125-.106.254-.207.384-.309a6.669,6.669,0,0,0,.87-.769,10.219,10.219,0,0,0,1.2-1.631.866.866,0,0,0,.087-.87.953.953,0,0,0-.834-.474,2.651,2.651,0,0,0-.945.073,2.429,2.429,0,0,0,.183-1.006A.966.966,0,0,1,9.3,6.217l.132-.1a3.741,3.741,0,0,0,.369-.291,1.314,1.314,0,0,0,.458-1.013,1.216,1.216,0,0,0-.494-.907.558.558,0,0,1-.243-.54c0-.069.007-.138.01-.207,0-.087.007-.173.014-.258A2.552,2.552,0,0,0,8.742.779C8.665.7,8.584.632,8.5.559S8.343.414,8.266.338A.993.993,0,0,0,7.531,0,.871.871,0,0,0,6.9.422a3.663,3.663,0,0,0-.5,1.005.653.653,0,0,1-.556.527A2.685,2.685,0,0,0,4.426,2.625ZM9.1,4.84a3.257,3.257,0,0,1-.443.382,2.009,2.009,0,0,0-.889,1.747c.015.473-.067.535-.584.71l-.168.055a4.946,4.946,0,0,0-.887.357,1.1,1.1,0,0,0-.581,1.537,1.134,1.134,0,0,0,1.555.538,7.089,7.089,0,0,0,1.254-.7A1.869,1.869,0,0,1,9.23,9.1a.614.614,0,0,1-.074.1c-.569.613-1.137,1.188-1.689,1.709-.321.3-.669.6-1.006.879-.168.141-.337.283-.5.427s-.353.308-.541.474l-.021.019-.123-.081c-.252-.165-.49-.321-.709-.491a2.6,2.6,0,0,0-1.619-.6,2.548,2.548,0,0,0-.667.091,4.91,4.91,0,0,1-.7.134.389.389,0,0,1-.38-.1,1.157,1.157,0,0,1,.154-.216c.3-.312.612-.618.921-.924.353-.349.705-.7,1.049-1.056a14.5,14.5,0,0,0,1.2-1.381c.493-.664.977-1.348,1.445-2.011q.384-.543.771-1.085a1.305,1.305,0,0,0,.157-1.477,1.154,1.154,0,0,0-.366-.452A1.822,1.822,0,0,0,7.573,1.83a3.234,3.234,0,0,1,.164-.386,1.947,1.947,0,0,1,.326.3,1.393,1.393,0,0,1,.365,1.12A1.827,1.827,0,0,0,9.1,4.84Z" transform="translate(85.86 72.333)" fill="#f0f0f0"/>
      <path id="パス_288" data-name="パス 288" d="M5.9.106A1.192,1.192,0,0,0,4.93.1a4.848,4.848,0,0,0-1,.566,3.512,3.512,0,0,0-.419.348c-.065.06-.13.12-.2.177-.25.208-.369.185-.478.141-.139-.056-.279-.11-.418-.164-.24-.093-.48-.185-.714-.29L1.637.847a.816.816,0,0,0-1.154.284l-.166.232.4.543c.171.232.341.463.521.685.444.548.453.628.133,1.216-.055.1-.113.2-.171.294l-.3.5c-.221.361-.442.723-.651,1.09a1.481,1.481,0,0,0-.21,1.14A1.5,1.5,0,0,0,.818,7.7a4.287,4.287,0,0,0,.44.205c.062.026.124.052.184.079s.18.081.241.118c0,.071-.028.2-.039.255-.046.247-.1.493-.156.738L1.463,9.2c-.132.58-.264,1.159-.4,1.736l-.053.231A4.624,4.624,0,0,1,.8,11.9a.972.972,0,0,0,.115,1.122,1.1,1.1,0,0,0,.222.187l-.025.1.095-.061a.957.957,0,0,0,.448.11,1.164,1.164,0,0,0,.373-.064,2.923,2.923,0,0,0,1.432-1.006A4.368,4.368,0,0,0,4.291,10a6.6,6.6,0,0,1,.253-1.314c.123-.387.276-.778.424-1.156.115-.294.23-.588.334-.885.29-.826.57-1.655.85-2.484l.357-1.055A3.544,3.544,0,0,0,6.495.884,1.2,1.2,0,0,0,5.9.106ZM2.354,11.548c.234-.938.455-1.827.671-2.717a3.979,3.979,0,0,0,.1-.712,1.3,1.3,0,0,0-.786-1.332l-.266-.119c-.126-.055-.252-.111-.376-.17-.089-.042-.178-.086-.273-.135.067-.128.131-.248.191-.37l.291-.583c.313-.627.637-1.276.94-1.924A2.115,2.115,0,0,0,3,2.88c.012-.083.025-.17.043-.259l.009-.044a1.616,1.616,0,0,0,.959-.406c.091-.076.18-.155.269-.234.115-.1.229-.2.365-.311a1.417,1.417,0,0,1,.7-.377,2.079,2.079,0,0,1,.008,1.373c-.4,1.183-.83,2.423-1.278,3.687-.085.239-.178.475-.272.71-.146.366-.3.744-.413,1.135a11.083,11.083,0,0,0-.35,1.734,2.676,2.676,0,0,1-.689,1.666Z" transform="translate(111.528 59.495)" fill="#f0f0f0"/>
      <path id="パス_289" data-name="パス 289" d="M8.587,1.962a4.5,4.5,0,0,0-.677-.223L7.749,1.7l-.08-.1c-.124-.149-.251-.3-.384-.447A2.083,2.083,0,0,0,5.375.486a1.062,1.062,0,0,1-.79-.173A1.905,1.905,0,0,0,2.758.168C2.349.343,1.915.5,1.5.646,1.293.718,1.09.79.89.865a2.312,2.312,0,0,0-.326.145,1.063,1.063,0,0,0-.549.734A1.023,1.023,0,0,0,.27,2.6,1.275,1.275,0,0,0,1,3.033l.046.005a9.657,9.657,0,0,0,1.79.119l.081,0A1.4,1.4,0,0,1,3.9,3.3a.833.833,0,0,0,.487.124c.03,0,.058,0,.085,0,.267.027.323.044.352.4a3.857,3.857,0,0,0,.214,1.091,1.022,1.022,0,0,1,.021.682l-.025.1a3.629,3.629,0,0,0-.148,1.7c.037.184.067.329-.405.486l-.256.082a6.3,6.3,0,0,0-.967.367,3.707,3.707,0,0,0-.941.7,1.016,1.016,0,0,0-.1,1.289.779.779,0,0,0,.631.3,1.569,1.569,0,0,0,.437-.076c.162-.047.325-.092.488-.136A12.842,12.842,0,0,0,5.126,10,2.531,2.531,0,0,0,6.8,8.275a4.315,4.315,0,0,1,.423-.937l.148-.264A6.181,6.181,0,0,0,8.1,5.41a1.149,1.149,0,0,1,.134-.273,2.586,2.586,0,0,0,.156-.294L8.5,4.574c.2-.469.413-.953.591-1.447A.851.851,0,0,0,8.587,1.962ZM6.373,5.9A2.072,2.072,0,0,0,6.3,4.151a1.579,1.579,0,0,1-.114-.5L6.184,3.6A1.435,1.435,0,0,0,5.142,2.343a3.921,3.921,0,0,1-.43-.185,4.34,4.34,0,0,0-.542-.23,4.946,4.946,0,0,0-1.055-.214C3,1.7,2.888,1.693,2.775,1.685c.242-.108.486-.211.729-.3a.752.752,0,0,1,.424.091l.044.02a3.487,3.487,0,0,0,1.55.442h.03a1.215,1.215,0,0,1,.954.645A1.013,1.013,0,0,0,7.7,3.1a.685.685,0,0,1,.223.007,4.428,4.428,0,0,1-.464,1.109,7.753,7.753,0,0,0-.332.739c-.057.14-.113.279-.176.417-.074.164-.153.326-.232.488s-.152.312-.224.47c-.063.139-.128.278-.193.416-.092.2-.185.4-.276.6A5.187,5.187,0,0,1,6.373,5.9Z" transform="translate(95.031 92.094)" fill="#f0f0f0"/>
      <path id="パス_290" data-name="パス 290" d="M8.719.947A1.5,1.5,0,0,1,8.406.624,1.257,1.257,0,0,0,7.194.005,16.293,16.293,0,0,0,5.572.226a.861.861,0,0,0-.628.527.7.7,0,0,0,.48.876c.331.145.722.321,1.1.519l.022.014c-.01.068-.02.137-.029.205a2.823,2.823,0,0,1-.25.986c-.062.109-.126.217-.189.324a10.28,10.28,0,0,0-.68,1.3,3.108,3.108,0,0,1-.816,1.313c-.526.425-1.02.893-1.433,1.3a1.791,1.791,0,0,1-.833.49L.063,8.625l-.034.264c-.1.731.018,1.152.9,1.284.165.024.331.039.5.052.131.011.263.021.393.039a8.746,8.746,0,0,0,.912.058,4.7,4.7,0,0,1,1.367.171,1.564,1.564,0,0,0,.491.082A1.506,1.506,0,0,0,5.9,9.726c.057-.093.111-.188.165-.282.08-.141.16-.282.251-.416a4.785,4.785,0,0,0,.821-2.341.815.815,0,0,1,.4-.675q.2-.125.4-.246A1.968,1.968,0,0,0,8.9,4.057,2.624,2.624,0,0,1,9.17,2.862,1.562,1.562,0,0,0,8.719.947ZM7.684,4.081a.594.594,0,0,1-.331.563L7.259,4.7a4.581,4.581,0,0,0-.553.362,9.968,9.968,0,0,1,.517-1.034A3.929,3.929,0,0,0,7.731,1.69a4.547,4.547,0,0,1,.345.4.226.226,0,0,1,.013.285A2.666,2.666,0,0,0,7.684,4.081ZM4.612,8.011a8.782,8.782,0,0,1,.879-.825A1.727,1.727,0,0,0,5.847,6.8a5.987,5.987,0,0,1-.915,2.057l-.126.211c-.03.05-.1.169-.349.1-.281-.071-.558-.151-.843-.237A9.039,9.039,0,0,0,4.612,8.011Z" transform="translate(61.207 91.461)" fill="#f0f0f0"/>
      <path id="パス_291" data-name="パス 291" d="M.839,13.75a.808.808,0,0,0,.209.028,1.069,1.069,0,0,0,.58-.193A4.2,4.2,0,0,0,2.745,12.6c.433-.6.813-1.244,1.179-1.865l.191-.324a1.888,1.888,0,0,1,.739-.777,2.4,2.4,0,0,0,.8-.77c.189-.28.357-.572.519-.854.14-.245.281-.49.436-.726A7.553,7.553,0,0,0,7.7,2.379a1.722,1.722,0,0,0-.491-1.1A4.843,4.843,0,0,0,4.85.033,1.319,1.319,0,0,0,3.273.88a3.164,3.164,0,0,0-.234.98c-.019.368-.052.628-.078.837-.1.786-.028.963.662,1.78l-.146.242c-.183.305-.358.595-.53.886a1.332,1.332,0,0,0-.122,1.179.421.421,0,0,1-.029.183A12.869,12.869,0,0,1,1,10.368L.826,10.6c-.168.224-.342.456-.5.7A1.8,1.8,0,0,0,.2,13.155,1.052,1.052,0,0,0,.839,13.75ZM4.127,6.758a.628.628,0,0,0,.054-.47c-.082-.237,0-.381.255-.7.078-.1.155-.2.221-.3a.862.862,0,0,1,.095-.1A1.3,1.3,0,0,0,4.974,4.9.786.786,0,0,0,4.79,3.818.889.889,0,0,1,4.7,3.73l-.038-.039c-.4-.4-.567-.66-.446-1.062a2.976,2.976,0,0,0,.1-.616,3.352,3.352,0,0,1,.042-.355c.044-.226.113-.335.158-.36a.129.129,0,0,1,.057-.01.613.613,0,0,1,.219.055,11.49,11.49,0,0,1,1.419.742l.2.117c.091.053.128.178.138.462a6.527,6.527,0,0,1-.834,3.828c-.193.313-.376.634-.558.954-.113.2-.226.4-.341.592a1.263,1.263,0,0,1-.616.592A2.3,2.3,0,0,0,3.15,9.653c-.518.823-.948,1.48-1.354,2.066a1.79,1.79,0,0,1-.318.351c.024-.043.051-.088.084-.138.1-.151.2-.3.3-.452a13.3,13.3,0,0,0,.971-1.609c.346-.718.641-1.467.927-2.193C3.876,7.382,3.993,7.084,4.127,6.758Z" transform="translate(83.974 66.651)" fill="#f0f0f0"/>
      <path id="パス_292" data-name="パス 292" d="M.265,7.66l.582.035c.292.019.6.039.9.044a1.538,1.538,0,0,1,.952.222A1.759,1.759,0,0,0,3.8,8.366a2.153,2.153,0,0,0,1.164-.389,8.76,8.76,0,0,0,2.711-2.69,3.589,3.589,0,0,0,.618-1.6,5.942,5.942,0,0,0-.645-3A1.052,1.052,0,0,0,6.45.027,4.788,4.788,0,0,0,3.726,1.514a1,1,0,0,0-.139,1.237l.093.158.227.04a.628.628,0,0,0,.292.016c.2-.041.393-.088.589-.135l.228-.054c.3-.072.355-.033.463.2L5.4,3a1.526,1.526,0,0,0-.375.14A37.008,37.008,0,0,0,.484,6.055,1,1,0,0,0,.162,7.464Zm6.261-3.8a1.216,1.216,0,0,0,.252-1.139A1.713,1.713,0,0,0,5.923,1.6c.136-.05.278-.1.427-.142L6.5,1.409A5.015,5.015,0,0,1,6.92,2.5a5.422,5.422,0,0,1,.183.974.926.926,0,0,1-.078.392,5.981,5.981,0,0,1-1.81,2.3,8.31,8.31,0,0,1-1,.693l-.175.109c-.173.109-.25.048-.279.024A3.261,3.261,0,0,0,2.305,6.33c.053-.04.107-.079.161-.115C3.3,5.649,4.231,5.037,5.384,4.288a.268.268,0,0,1,.1-.027A1.164,1.164,0,0,0,6.526,3.858Z" transform="translate(74.588 80.182)" fill="#f0f0f0"/>
      <path id="パス_293" data-name="パス 293" d="M4.028.016A1.081,1.081,0,0,0,2.974.579a1.2,1.2,0,0,0-.16.309L2.656,1.3c-.159.41-.323.833-.469,1.259l-.022.066a.393.393,0,0,1-.068.147.8.8,0,0,0-.461.326C.8,4.184-.15,5.418.02,7.114A5.694,5.694,0,0,0,.6,9.866a7.824,7.824,0,0,1,.69,2.55,1.542,1.542,0,0,0,.259.742.95.95,0,0,0,.774.457.776.776,0,0,0,.08,0A.928.928,0,0,0,3.146,13a1.72,1.72,0,0,0,.133-.752l-.021-.291a13.4,13.4,0,0,0-.193-1.7,6.777,6.777,0,0,1,.2-3.651,11.43,11.43,0,0,0,.327-1.219c.062-.27.124-.54.2-.806A13.857,13.857,0,0,1,4.321,3,4.139,4.139,0,0,0,4.71,1.024C4.688.736,4.645.135,4.028.016ZM1.645,8.859a6.726,6.726,0,0,1-.392-2.074A3.4,3.4,0,0,1,1.708,5c.1-.172.2-.343.3-.511l.027-.047a1.406,1.406,0,0,0,.564-.1c-.018.089-.034.178-.049.27a8.105,8.105,0,0,1-.412,1.468A7.661,7.661,0,0,0,1.645,8.859Z" transform="translate(38.556 38.806)" fill="#f0f0f0"/>
      <path id="パス_294" data-name="パス 294" d="M.279,1.744a6.322,6.322,0,0,0,.9.881c.338.283.368.475.31.677a1.3,1.3,0,0,0,.124.932l.039.1A7.321,7.321,0,0,1,2.065,5.5a3.885,3.885,0,0,1,.1,1.71,1.084,1.084,0,0,0,.2.863,1.136,1.136,0,0,0,.78.475c.031,0,.063.005.1.005.323,0,.7-.178.842-.933.062-.327.106-.657.149-.976.023-.168.045-.336.07-.5.048-.323.1-.645.157-1.01l.093-.589L4.4,3.834c-.133-.664-.276-1.378-.432-2.089a2,2,0,0,0-.321-.657A1.589,1.589,0,0,0,2.58.389,4.886,4.886,0,0,1,1.775.131L1.64.08A1.261,1.261,0,0,0,.29.385.95.95,0,0,0,.279,1.744Zm1.46,0a5.141,5.141,0,0,1-.529-.53v0l.1.047a3.638,3.638,0,0,0,1,.331.53.53,0,0,1,.506.437c.168.725.3,1.474.437,2.2l.072.4a.865.865,0,0,1-.019.219l-.01.069L3.2,5.555a10.811,10.811,0,0,0-.557-1.778,1,1,0,0,1-.087-.332A1.948,1.948,0,0,0,1.74,1.746Z" transform="translate(106.635 42.061)" fill="#f0f0f0"/>
      <path id="パス_295" data-name="パス 295" d="M.107,2.243a1.519,1.519,0,0,0,1.2,1.235.89.89,0,0,1,.191.077c.05.024.1.048.146.067l.177.072.816-.472c.47-.272.918-.532,1.365-.793a1.825,1.825,0,0,0,.907-1.043A1.12,1.12,0,0,0,4.794.377,1,1,0,0,0,3.94,0h0A4.119,4.119,0,0,0,2.662.232c-.478.157-.944.351-1.395.539L.929.911a2.461,2.461,0,0,0-.617.337.775.775,0,0,0-.279.784C.059,2.1.083,2.172.107,2.243Zm2.559-.709a4.522,4.522,0,0,0-1,.75A1.836,1.836,0,0,1,1.344,2.2a.4.4,0,0,1-.032-.1,5.2,5.2,0,0,1,1.532-.678Z" transform="translate(61.077 68.245)" fill="#f0f0f0"/>
    </g>
    <g id="グループ_1100" data-name="グループ 1100" transform="translate(25 7939.421) rotate(-18)">
      <path id="パス_319" data-name="パス 319" d="M91.229,73.968c-.622-.026-4.027-.088-5.413-.171-1.035-.062-5.652-.413-7.458-.426-1.084-.007-6.69-.46-7.374-.511-.7-.053-5.454-.312-6.265-.368-.78-.053-9.414-.265-13.382-.261a1.565,1.565,0,0,1-1.365-.779,5.9,5.9,0,0,1-.152-1.622c-.024-.352-.938-.946-1.239-1.163A5.4,5.4,0,0,0,45.354,68c-1.151.009-2.3-.035-3.453.015a23.858,23.858,0,0,0-2.419.3c-.567.083-1.125.223-1.692.309a2.007,2.007,0,0,0-1.247.81,10.963,10.963,0,0,0-1.23,1.7c-.069.124-.223.2-.34.3-.024.02-.059.026-.085.045a4.543,4.543,0,0,1-2.93.666c-1.117-.033-2.231-.045-3.349-.136-1.1-.089-2.21.038-3.309-.035-1.814-.122-3.638-.061-5.444-.343a22.624,22.624,0,0,0-2.339-.162c-1.148-.058-2.3-.093-3.445-.157-.477-.027-.953-.091-1.426-.159a25.4,25.4,0,0,0-4.331-.413c-1.006.028-1.324.009-2.33-.013C4.926,70.7,4.563,70.58,4.5,69.494c0-.077-.134-1.581-.2-2.271-.076-.775-.167-1.544-.184-2.326a13.006,13.006,0,0,1-.036-2.491,3.335,3.335,0,0,1,.808-1.366,4.86,4.86,0,0,0,1.068-2.774c.069-1.063.024-2.134,0-3.2-.018-.925-.055-1.851-.12-2.774a5.85,5.85,0,0,0-.851-3.1,4.168,4.168,0,0,1-.4-.762,2.328,2.328,0,0,0-.857-.994,5.442,5.442,0,0,1-1.465-1.731,6.382,6.382,0,0,1-.624-2.651c-.182-1.357-.241-2.73-.415-4.088C1.032,37.5.778,36.038.544,34.575c-.163-1.023-.4-2.038-.5-3.066a8.062,8.062,0,0,1,.715-4.342,7.407,7.407,0,0,1,2.433-2.958,9.881,9.881,0,0,1,.994-.572,4.57,4.57,0,0,0,.734-.347,14.044,14.044,0,0,1,3.357-1.6c.716-.313,1.421-.653,2.137-.967a69.765,69.765,0,0,1,6.746-2.47c.43-.137,1.375-.489,2.457-.914s2.1-.973,2.625-1.081c.6-.122.935.174,1.158.734a.62.62,0,0,0,.691.447,4.609,4.609,0,0,0,2.377-.8,2.269,2.269,0,0,0,.552-.761.55.55,0,0,0,0-.364.9.9,0,0,1,.573-1.24c2.475-1.152,4.883-2.446,7.437-3.431.8-.309,1.557-.736,2.336-1.1.606-.286,1.161-.441,1.781-.694.931-.381,1.808-.7,2.756-1.034.662-.234,1.456-.586,2.122-.809.6-.2,1.207-.416,1.789-.672,1.971-.869,3.919-1.791,5.971-2.47,1.12-.371,2.2-.859,3.312-1.261,1.381-.5,2.788-.928,4.157-1.457A27.812,27.812,0,0,1,62.625.25c.417-.1.844-.17,1.27-.236a25.926,25.926,0,0,1,3.588.122c.577.127,1.158.238,1.737.352a11.041,11.041,0,0,1,2.525.886c.882.412,1.779.792,2.667,1.19.728.327,1.468.631,2.176,1,1.179.609,2.381,1.159,3.6,1.676s2.4,1.13,3.591,1.7c.23.11.45.247.687.339A19.415,19.415,0,0,1,87.837,9.1a9.5,9.5,0,0,0,1.582.788,15.364,15.364,0,0,1,2.308,1.161c.655.4,1.333.757,1.99,1.152.533.321,1.052.665,1.574,1.005.548.358,1.068.765,1.64,1.077a12.236,12.236,0,0,1,2.686,2.071,12.155,12.155,0,0,1,2.036,2.284c.789,1.165-.036,5.157-.048,5.291-.045.508-.058,1.018-.1,1.526-.1,1.079-.206,2.158-.316,3.236-.086.84-.173,1.68-.275,2.518q-.3,2.491-.624,4.979c-.189,1.473-.5,2.95-.564,4.434-.055,1.288-.073,2.651-.2,3.935-.161,1.585-.289,3.171-.48,4.753-.154,1.281-.308,2.6-.479,3.881-.209,1.564-.219,2.929-.436,4.492-.2,1.437-.416,2.382-.6,3.82-.1.789-.339,2.15-.423,2.942-.067.634-.152,1.266-.224,1.9-.129,1.14-.232,2.283-.388,3.419a13.183,13.183,0,0,0,0,2.288c.035.962.236,1.645-.623,2.132C95.171,74.573,93.894,73.968,91.229,73.968ZM51.61,70.79c.377,0,.711,0,1.045,0,.975.012,1.95.041,2.926.038,2.351-.005,4.7-.041,7.052-.031,1.037,0,2.073.086,3.109.136.622.03,1.247.038,1.865.106,1.442.159,2.877.375,4.332.435,1.563.065,3.122.2,4.689.187.828-.007,1.659.052,2.485.12.986.08,1.967.211,2.951.3.889.081,1.781.142,2.672.2.987.066,1.974.163,2.962.169,1.406.008,2.811-.055,4.217-.085.16,0,.319.01.479.016l2.721.107a1.725,1.725,0,0,0,.1-.32c.037-.444.061-.888.094-1.331.039-.509.091-1.017.122-1.526.041-.669.048-1.34.105-2.007a35.206,35.206,0,0,0,.254-4.3,4.97,4.97,0,0,1,.072-.76c.144-1.186.293-2.372.434-3.559.084-.712.145-1.426.238-2.137.171-1.311.364-2.62.537-3.931.079-.6.107-1.208.2-1.805.366-2.317.523-4.655.725-6.988.1-1.128.188-2.257.329-3.379.3-2.371.639-4.737.938-7.109.221-1.755.6-3.487.708-5.258.06-.969.153-1.937.23-2.9.038-.477.052-.956.115-1.43a18.442,18.442,0,0,0,.3-2.994.536.536,0,0,1,.029-.235.68.68,0,0,0-.074-.64c-.12-.225-.255-.443-.4-.656a15.211,15.211,0,0,0-2.232-2.367,6.139,6.139,0,0,0-1.109-.909,37.721,37.721,0,0,1-3.389-2.34c-.229-.173-.485-.309-.727-.465-.673-.43-1.337-.876-2.02-1.288A19.623,19.623,0,0,0,88.86,10.84a14.823,14.823,0,0,1-2.144-1.164A12.52,12.52,0,0,0,84.089,8.3c-.492-.186-.969-.413-1.446-.638a30.61,30.61,0,0,0-3.651-1.444c-.985-.319-1.945-.717-2.911-1.094-1.025-.4-2.044-.818-3.066-1.228-.71-.285-1.433-.544-2.129-.861A14.138,14.138,0,0,0,68.05,2.031c-.529-.116-3.063-.617-3.479-.648-.139-.01-1.957.076-2.089.122-.966.33-2.3.845-3.265,1.17-1.346.453-2.533.922-3.875,1.385-.966.333-2.245.87-3.216,1.187a25.223,25.223,0,0,0-4.914,1.986c-.578.3-1.6.793-2.206,1.038-.488.2-1.5.589-1.984.788-1.152.471-2.536.9-3.681,1.39-1.4.595-2.768,1.224-4.169,1.8-2.153.891-4.2,1.779-6.363,2.657a2.18,2.18,0,0,0-.268.153,3.362,3.362,0,0,1,.088,1.544c-.221.681-.668.826-1.163,1.308a3.293,3.293,0,0,1-2.226,1.113,5.387,5.387,0,0,0-.663.095,2.04,2.04,0,0,1-2.051-.544c-.125-.139-.388-.436-.488-.566a34.43,34.43,0,0,0-5.278,1.919c-.984.415-2.623.864-3.621,1.246-1.744.667-2.73,1.078-4.467,1.763-1.248.493-2.108.946-3.323,1.531a13.33,13.33,0,0,0-2.578,1.714,2.519,2.519,0,0,0-.764,1.485,10.882,10.882,0,0,0-.444,2.086c.074.824.291,4.2.4,4.907.332,2.093.684,4.15.936,6.254.157,1.312.362,2.475.562,3.782.1.68.663.989,1.176,1.372a11.8,11.8,0,0,0,1.583.814,12.153,12.153,0,0,1,2.763,1.7,5.611,5.611,0,0,1,1.932,2.683,9.708,9.708,0,0,1,.413,4.3,6.617,6.617,0,0,1-1.9,3.88A15.641,15.641,0,0,1,7,61.382c-.323.207-.639.425-.955.642-.2.137-.693.268-.693,1.678,0,.386.031,1.193.047,1.469.047.842.033,1.519.11,2.359.047.518,0,1.872.483,2.055,1.274.029,2.487-.063,3.73-.018.7.025,1.994.089,2.693.148.651.055,4.9.393,6.474.564,1.22.132,10.538.453,11.943.441,2.183.049,2.805-.542,3.012-.915a1.849,1.849,0,0,0,.113-1.209,8.9,8.9,0,0,1,.423-4.266,8.08,8.08,0,0,1,1.908-3.069,7.648,7.648,0,0,1,6.36-1.92,25.036,25.036,0,0,1,3.126.648,1.565,1.565,0,0,0,1.4-.247,11.841,11.841,0,0,1,1.425-1.2,2.555,2.555,0,0,1,.918-.219,8.484,8.484,0,0,1,.956.032,8.286,8.286,0,0,1,3.767,1.28,2.17,2.17,0,0,1,.275.191,4.3,4.3,0,0,1,1.19,1.763,2.371,2.371,0,0,1-.077,2.158,6.169,6.169,0,0,1-3.522,3.13,7.723,7.723,0,0,1,.253,1.982A5.68,5.68,0,0,1,51.61,70.79ZM51,69.235a3.274,3.274,0,0,0,.229-1.029c-.061-.341-.11-.685-.192-1.019-.187-1.285.766-1.476,1.531-1.735a3.746,3.746,0,0,0,2.055-2.215,2.5,2.5,0,0,0-.19-1.865,4.46,4.46,0,0,0-.948-.787,14.079,14.079,0,0,0-1.924-.993,8.018,8.018,0,0,0-1.647-.333c-.383-.053-.682.375-1.011.6-.36.245-.749.833-1.1,1.1a1.578,1.578,0,0,1-1.38.374A13.112,13.112,0,0,1,45,61.135c-.773-.15-1.622-.437-2.4-.529a6.082,6.082,0,0,0-3.436.234,6.15,6.15,0,0,0-3.022,2.474,17.507,17.507,0,0,0-1,3.07,3.97,3.97,0,0,0,.132,2.138,20.645,20.645,0,0,1,2.435-1.152,16.179,16.179,0,0,1,5.342-.649c.632.026,2.448.084,3.08.084A7.007,7.007,0,0,1,51,69.235Zm-44.606-8.6c.092-.067.681-.568.749-.629.67-.6,1.246-.812,1.723-1.573a6.5,6.5,0,0,0,1.281-2.427,7.193,7.193,0,0,0-.1-3.49,6.124,6.124,0,0,0-1.228-2.277c-.3-.326-.863-.977-1.184-1.288a4.775,4.775,0,0,0-1.647-.884C6.826,51.567,7.243,57.124,6.392,60.635Z" fill="#f0f0f0"/>
      <path id="パス_320" data-name="パス 320" d="M53.629,5c.327-.491.657-1.021,1.021-1.525a6.9,6.9,0,0,1,1.8-1.7c.066-.044.141-.075.206-.122A9.063,9.063,0,0,1,60.487.236,10.6,10.6,0,0,1,63.058.043,9.718,9.718,0,0,0,64.208.008a18.039,18.039,0,0,1,2.813.227,17.471,17.471,0,0,1,5.167,1.357,3.266,3.266,0,0,1,1.181.8c.147.166.329.3.489.458a3.482,3.482,0,0,1,1.185,1.6,12.447,12.447,0,0,0,3.212-.093,9.824,9.824,0,0,1,1.47-.124c.747-.057,1.494-.12,2.241-.172,1.05-.074,2.1-.154,3.152-.2.622-.029,1.248,0,1.871-.007q2.037-.021,4.063-.219a17.855,17.855,0,0,1,2.2.038c.174,0,.348.028.522.039.553.035,1.115.144,1.256.649,0,.728-1.823.667-2.522.64a21.1,21.1,0,0,0-2.812.257c-1.35.127-2.7.029-4.052.153-.715.065-1.428.166-2.144.2-1.272.064-4.647.379-5.062.4-.43.023-.859.064-1.288.086-.255.013-.515-.021-.767.013-.361.05-.716.143-1.036.209-.113.7-.185,1.378-.34,2.041a22.6,22.6,0,0,1-1.342,3.682c-.282.66-.563,1.322-.871,1.971a7.288,7.288,0,0,1-4.447,3.965,14.134,14.134,0,0,1-3.172.718,9.835,9.835,0,0,1-3.329-.244,5.329,5.329,0,0,1-2.1-1.11c-.632-.538-1.258-1.083-1.893-1.617a9.9,9.9,0,0,1-2.686-3.628c-.245-.555-.487-1.111-.743-1.661a8.763,8.763,0,0,1-.683-2.678c-.011-.092-.02-.185-.03-.276-.152-.914-.75-.91-1.108-.865-1.377.174-2.749.389-4.129.543-1.855.207-3.714.383-5.573.548-1.113.1-2.232.128-3.344.234-1.635.156-3.273.285-4.9.569-1.082.189-2.183.295-3.279.375-1.386.1-2.776.126-4.163.2-.764.044-1.525.139-2.289.2a8.1,8.1,0,0,1-1.291.037,19.246,19.246,0,0,0-3.965.156c-.538.064-1.083.074-1.625.1-1.2.048-2.394.1-3.591.129-1.325.037-2.651.056-3.976.089-.431.011-.861.043-1.292.06q-1.34.051-2.681.1C5.975,9.964,5.448,10,4.921,10c-.686-.01-1.37-.085-2.055-.08a7.456,7.456,0,0,0-1.178.169c-.211.036-1.633-.041-1.679-.422-.106-.878.88-.96,1.465-1.14a8.891,8.891,0,0,1,1.837-.3c.569-.049,1.146,0,1.719-.015.606-.015,1.212-.062,1.818-.078.3-.008.606.031.909.038a47.2,47.2,0,0,0,5.264-.149c1.367-.118,2.732-.047,4.1-.152.653-.051,1.31-.058,1.965-.057,1.968.005,3.935-.171,5.9-.183.861,0,1.72-.1,2.581-.15.51-.029,1.021-.049,1.532-.071a36.881,36.881,0,0,0,5.883-.75,38.336,38.336,0,0,1,4.507-.59c1.526-.13,3.058-.192,4.586-.3,1.417-.1,2.831-.227,4.247-.33.478-.035.958-.047,1.438-.047a11.82,11.82,0,0,0,2.522-.237A12.988,12.988,0,0,1,53.629,5ZM67.967,16.28a6.252,6.252,0,0,0,1.76-1.054,9.227,9.227,0,0,0,1.536-1.666c.536-.888.8-1.834,1.28-2.752a4.8,4.8,0,0,0,.768-1.984c.025-.253.284-1.572.32-1.824a3.7,3.7,0,0,0-2.321-4.052,15.627,15.627,0,0,0-3.913-1.2c-.6-.053-1.441.006-2.044-.031C65,1.7,64.063,1.573,63.713,1.562a11.517,11.517,0,0,0-3.145.132,10.566,10.566,0,0,0-2.511.782c-.519.282-.822.66-1.354.914a3.143,3.143,0,0,0-1.3,1.723,8.444,8.444,0,0,0,.114,3.6c.282.846,1.074,2.575,1.41,3.4.374.919,2.76,2.954,3.488,3.552a7.424,7.424,0,0,0,2.816,1.34A19.664,19.664,0,0,0,67.967,16.28Z" transform="translate(5.102 16.366)" fill="#f0f0f0"/>
      <path id="パス_321" data-name="パス 321" d="M.022,6.56a7.684,7.684,0,0,1,.9-3.283,4.982,4.982,0,0,1,.649-.825A10.818,10.818,0,0,1,4.948.22,2.485,2.485,0,0,1,5.921,0c.909,0,1.82.035,2.726.1a2.965,2.965,0,0,1,.958.291c.8.36,1.6.734,2.379,1.133a5.251,5.251,0,0,1,1.969,1.715c.5.724,1,1.446,1.434,2.21a4.145,4.145,0,0,1-.042,4.494A23.233,23.233,0,0,1,13,13.091a5.446,5.446,0,0,1-2.16,1.384,8.807,8.807,0,0,1-2.423.541,2.778,2.778,0,0,1-1.4-.229,11.029,11.029,0,0,1-1.109-.565,21.8,21.8,0,0,1-1.9-1.074,24.744,24.744,0,0,1-2.115-2.019A6.621,6.621,0,0,1,.01,7.085,2.116,2.116,0,0,1,0,6.8C0,6.719.014,6.639.022,6.56ZM4.841,1.67A5.342,5.342,0,0,0,2.032,3.737a5.047,5.047,0,0,0-.514,3.877A10.811,10.811,0,0,0,2.691,9.746a10.421,10.421,0,0,0,1.7,1.855,9.57,9.57,0,0,0,.717.74,3.906,3.906,0,0,0,1.1.641c.291.13.946.558,1.242.678a5.2,5.2,0,0,0,2.07-.133,11.124,11.124,0,0,0,2.445-1.357,6.722,6.722,0,0,0,1.929-2.5,4.97,4.97,0,0,0,.56-1.293,2.837,2.837,0,0,0-.112-1.635c-.464-.763-.965-1.869-1.464-2.608a4.832,4.832,0,0,0-1.067-1.149c-.557-.42-1.571-.587-2.157-.97A6.5,6.5,0,0,0,7.563,1.4,11.086,11.086,0,0,0,4.841,1.67Z" transform="translate(23.805 42.634)" fill="#f0f0f0"/>
      <path id="パス_322" data-name="パス 322" d="M5,12.436a4.554,4.554,0,0,1-1.91-.444,3.3,3.3,0,0,0-.592-.184,2.236,2.236,0,0,1-1.142-.654A4.393,4.393,0,0,1,.021,8.115,7.848,7.848,0,0,1,.444,4.677,8.92,8.92,0,0,1,1.57,2.628c.321-.417.607-.862.942-1.266A3.677,3.677,0,0,1,4.861.095,8.63,8.63,0,0,1,8,.207a3,3,0,0,1,1.045.45A17.148,17.148,0,0,1,10.663,1.92a4.839,4.839,0,0,1,1.3,2.091,2.564,2.564,0,0,1-.1,1.871,6.154,6.154,0,0,1-2.058,2.7,9.758,9.758,0,0,0-2.123,1.849c-.338.445-.66.9-1.012,1.335A1.711,1.711,0,0,1,5,12.436ZM1.55,7.268c0,.35-.018.7,0,1.05a2.172,2.172,0,0,0,.937,1.74,15.3,15.3,0,0,0,1.58.784,1.084,1.084,0,0,0,1.354-.257c.33-.32.643-.661.941-1.013A10.035,10.035,0,0,1,9.18,7.028,3.131,3.131,0,0,0,10.6,5.2a.785.785,0,0,0,.013-.53A4.895,4.895,0,0,0,10,3.5,5.044,5.044,0,0,0,5.349,1.475a2.77,2.77,0,0,0-1.94.953,12.007,12.007,0,0,0-1.2,1.853A5.283,5.283,0,0,0,1.55,7.268Z" transform="translate(52.153 37.913)" fill="#f0f0f0"/>
      <path id="パス_323" data-name="パス 323" d="M5.258,0c.4.045,1.042.077,1.67.2A4.158,4.158,0,0,1,9.62,2.029a2.106,2.106,0,0,1,.3.653c.109.423.178.856.256,1.286a1.081,1.081,0,0,1,.006.338,9.059,9.059,0,0,1-.728,2.943A4.178,4.178,0,0,1,7.407,9.038a4.97,4.97,0,0,1-3.086.377C3.674,9.3,3.034,9.145,2.4,8.982a1.607,1.607,0,0,1-.577-.294C1.471,8.41,1.136,8.112.814,7.8A3,3,0,0,1,.062,6.477,2.364,2.364,0,0,1,.423,4.743c.077-.161.836-1.815,1.152-2.362C2.088,1.494,2.24.8,3.206.318A5.23,5.23,0,0,1,5.258,0ZM3.3,2.328a8.319,8.319,0,0,1,.878.3A4.437,4.437,0,0,1,6.466,5.1c.326.824.618,1.663.927,2.5a.608.608,0,0,0,.114-.059A4.013,4.013,0,0,0,8.846,5.275a2.16,2.16,0,0,0,.1-.891A3.19,3.19,0,0,0,7.594,2.209c-.345-.229-.709-.428-1.068-.636A2.467,2.467,0,0,0,4.242,1.39,1.411,1.411,0,0,0,3.3,2.328ZM6.376,8.087a1.963,1.963,0,0,0-.008-.592c-.286-.727-.583-1.45-.908-2.161A3.453,3.453,0,0,0,3.942,3.784,1.4,1.4,0,0,0,2.876,3.64a.555.555,0,0,0-.311.188c-.335.505-.653,1.022-.969,1.54a.949.949,0,0,0-.078.694,2.038,2.038,0,0,0,1.4,1.513,7.22,7.22,0,0,0,2.368.561A10.624,10.624,0,0,0,6.376,8.087Z" transform="translate(79.64 40.417)" fill="#f0f0f0"/>
      <path id="パス_324" data-name="パス 324" d="M10.314,4.826a10.415,10.415,0,0,1-.8,3.6,3.6,3.6,0,0,1-2.074,1.892,6.14,6.14,0,0,1-3.856.034c-.189-.049-.372-.125-.562-.169A3.877,3.877,0,0,1,.841,8.663,2.515,2.515,0,0,1,.358,7.71,19.7,19.7,0,0,1,.014,5.535a3.236,3.236,0,0,1,.431-1.82A7.309,7.309,0,0,1,2.019,1.581,1.715,1.715,0,0,1,2.37,1.3Q3.457.75,4.556.227A.486.486,0,0,1,4.9.176a1.043,1.043,0,0,0,.74-.055A3.64,3.64,0,0,1,7.688.175,2.337,2.337,0,0,1,8.832.943,6.734,6.734,0,0,1,10.314,4.826Zm-1.147.131c-.031-.247-.049-.582-.117-.906a2.834,2.834,0,0,0-1.2-1.978,3.708,3.708,0,0,0-4.114-.25A4.975,4.975,0,0,0,1.354,5.145a2.541,2.541,0,0,0,.132,1.887A3.617,3.617,0,0,0,3.7,8.993a3.06,3.06,0,0,1,.394.15,4.161,4.161,0,0,0,1.859.3A2.745,2.745,0,0,0,8.617,7.719,9.175,9.175,0,0,0,9.167,4.957Z" transform="translate(79.516 56.774)" fill="#f0f0f0"/>
      <path id="パス_325" data-name="パス 325" d="M11.6,2.193a5.541,5.541,0,0,1-.813,2.522A16.236,16.236,0,0,1,6.7,9.482c-.731.593-1.451,1.2-2.183,1.79a2.989,2.989,0,0,1-1.629.748,3.376,3.376,0,0,1-1.55-.207A1.778,1.778,0,0,1,.4,10.9,3.256,3.256,0,0,1,.6,7.445,11.867,11.867,0,0,1,1.755,6.111c.9-.954,1.807-1.893,2.711-2.84a1.4,1.4,0,0,0,.2-.265,3.434,3.434,0,0,1,1.75-1.5.52.52,0,0,0,.265-.183A2.281,2.281,0,0,1,7.932.336,3.91,3.91,0,0,1,9.562,0,2.126,2.126,0,0,1,11.6,1.954C11.608,2.033,11.6,2.113,11.6,2.193Zm-9.455,8.7a2.78,2.78,0,0,0,.594-.2,9.41,9.41,0,0,0,1.1-.75C4.772,9.19,5.7,8.437,6.6,7.659a15.313,15.313,0,0,0,2.9-3.2A6.081,6.081,0,0,0,10.608,2a.636.636,0,0,0-.561-.791,1.256,1.256,0,0,0-.627.065,13.756,13.756,0,0,0-1.377.687,1,1,0,0,1-.688.227.518.518,0,0,0-.547.245,3,3,0,0,0-.4.621c-.258.654-1.1.959-1.522,1.514A22.526,22.526,0,0,1,2.533,7.752c-.418.388-.837.777-1.219,1.2a1.309,1.309,0,0,0-.211,1.4C1.269,10.807,1.7,10.8,2.15,10.892Z" transform="translate(61.038 48.333)" fill="#f0f0f0"/>
      <path id="パス_326" data-name="パス 326" d="M6.69,10.441a10.141,10.141,0,0,1-2.6-.331C3.416,9.87,2.759,9.579,2.1,9.3A3.239,3.239,0,0,1,.3,7.061,7.827,7.827,0,0,1,.01,5.66a2.19,2.19,0,0,1,.11-.893,5.551,5.551,0,0,1,1.146-2.13A17.319,17.319,0,0,0,2.493,1.046,2.4,2.4,0,0,1,4.675,0,9.6,9.6,0,0,1,7.688.468,5.4,5.4,0,0,1,11.3,4.862a4.687,4.687,0,0,1,.006,1.71,4.058,4.058,0,0,1-1.282,2.35,5.785,5.785,0,0,1-2.524,1.4A7.076,7.076,0,0,1,6.69,10.441ZM10.134,5.51A6.729,6.729,0,0,0,9.788,4.16a8.877,8.877,0,0,0-.981-1.506A3.149,3.149,0,0,0,6.856,1.445c-.833-.156-1.679-.251-2.521-.361a.855.855,0,0,0-.814.354c-.419.529-.813,1.078-1.267,1.579A4.088,4.088,0,0,0,1.29,5.186,3.362,3.362,0,0,0,2.044,7.77a1.893,1.893,0,0,0,.609.525c.567.322,1.157.61,1.741.906a1.888,1.888,0,0,0,.265.076,4.8,4.8,0,0,0,1.761,0C7.611,9.222,10.172,7.728,10.134,5.51Z" transform="translate(7.608 31.715)" fill="#f0f0f0"/>
      <path id="パス_327" data-name="パス 327" d="M5.593,3.992C5.685,4.532,6.6,5.4,7.43,5.836A2.031,2.031,0,0,1,8.484,7.152,8.992,8.992,0,0,1,8.87,9.645a4.1,4.1,0,0,1-.526,1.9,2,2,0,0,1-1.233,1.018,1.143,1.143,0,0,1-1.045-.146,8.418,8.418,0,0,1-.809-.653q-.853-.8-1.679-1.631A17.015,17.015,0,0,1,.924,6.539,10.8,10.8,0,0,1,.073,3.592,3.28,3.28,0,0,1,.342,1.515,1.841,1.841,0,0,1,1.606.347c.224-.06.443-.138.665-.207A3.1,3.1,0,0,1,5.244.814a1.8,1.8,0,0,1,.646,1.912C5.782,3.233,5.5,3.452,5.593,3.992Zm1.452,7.4a2.74,2.74,0,0,0,.822-1.7,3.346,3.346,0,0,0-.382-2.129,2.429,2.429,0,0,0-.7-.91C6.332,6.175,5.048,5.482,4.77,4.479S5.421,2.4,4.76,1.9a2.639,2.639,0,0,0-2.413-.591A2.077,2.077,0,0,0,.923,3.364,7.043,7.043,0,0,0,1.5,5.327a10.479,10.479,0,0,0,1.156,1.94C3.649,8.781,6.395,11.828,7.045,11.392Z" transform="translate(13.201 55.14)" fill="#f0f0f0"/>
      <path id="パス_328" data-name="パス 328" d="M4.3,0a6.531,6.531,0,0,1,2.73.559c.472.231.962.435,1.443.654a3.593,3.593,0,0,1,1.6,1.376A1.661,1.661,0,0,1,9.8,4.811,4.908,4.908,0,0,1,7.665,5.994a5.964,5.964,0,0,1-2.336.223,13.937,13.937,0,0,1-2.7-.388A8.425,8.425,0,0,1,1.16,5.247a2.161,2.161,0,0,1-1.1-2.521A3.541,3.541,0,0,1,.994,1.117,1.186,1.186,0,0,1,1.234.928,6.025,6.025,0,0,1,4.3,0ZM5.8,4.865a5.97,5.97,0,0,0,2.286-.417c.192-.07.39-.12.461-.364.108-.373.411-.7.247-1.132a.685.685,0,0,0-.176-.272,2.7,2.7,0,0,0-.508-.355c-.512-.259-1.037-.5-1.552-.748a4.175,4.175,0,0,0-2.8-.306,10.317,10.317,0,0,0-2.279.982.372.372,0,0,0-.145.12,1.161,1.161,0,0,0,.325,1.489,7.469,7.469,0,0,0,1.251.589A10.955,10.955,0,0,0,5.8,4.865Z" transform="translate(61.964 4.373)" fill="#f0f0f0"/>
      <path id="パス_329" data-name="パス 329" d="M6.782,6.053c-.877-.061-2.007-.114-3.131-.227a6.729,6.729,0,0,1-2.358-.754A2.233,2.233,0,0,1,.1,3.33,6.238,6.238,0,0,1,0,2.525,1.55,1.55,0,0,1,.867.938,8.186,8.186,0,0,1,3.421.076,11.471,11.471,0,0,1,7.688.382,5.2,5.2,0,0,1,9.861,1.445a8.307,8.307,0,0,1,1.051,1.231.905.905,0,0,1,.072.91,3.107,3.107,0,0,1-1.122,1.4A5.22,5.22,0,0,1,6.782,6.053ZM7.8,4.756c.437-.175.972-.369,1.491-.6.372-.169.83-.4.7-.809a3.113,3.113,0,0,0-.46-.681c-1.27-1.394-1.45-1.417-2.486-1.51C6.5,1.1,5.6,1.025,5.054,1.022A12.917,12.917,0,0,0,2.4,1.354,1.77,1.77,0,0,0,1.17,2.386a1.94,1.94,0,0,0,.587,1.62,6.742,6.742,0,0,0,1.731.534C4.777,4.988,6.372,4.554,7.8,4.756Z" transform="translate(41.359 14.036)" fill="#f0f0f0"/>
      <path id="パス_330" data-name="パス 330" d="M3.939,2.629a6.466,6.466,0,0,1-.885,2.877,2.62,2.62,0,0,1-.6.6,1.266,1.266,0,0,1-1.275.026c-.094-.031-.169-.156-.244-.25C.741,5.639.568,5.367.358,5.142a1.558,1.558,0,0,1-.3-1.467A5.98,5.98,0,0,1,.609,2.182,5.587,5.587,0,0,1,2.163.24a.982.982,0,0,1,.911-.2.617.617,0,0,1,.455.583,5.131,5.131,0,0,0,.235.92A7.615,7.615,0,0,1,3.939,2.629Zm-1.1-1.585a.838.838,0,0,0-.791.464,1,1,0,0,1-.289.376,1.372,1.372,0,0,0-.5.792,7.163,7.163,0,0,0-.27,1.21,2.43,2.43,0,0,0,.068.9c.1.371.353.411.646.147A4.134,4.134,0,0,0,2.841,3.235,2.93,2.93,0,0,0,2.841,1.044Z" transform="translate(84.669 32.334)" fill="#f0f0f0"/>
      <path id="パス_331" data-name="パス 331" d="M1.557,7.269a1.731,1.731,0,0,1-1.5-2.117A2.427,2.427,0,0,1,.934,3.82a8.277,8.277,0,0,0,2.055-2.1A4.18,4.18,0,0,1,5.178.094,1.237,1.237,0,0,1,6.4.239c.165.126.336.244.5.372a1.312,1.312,0,0,1-.323,2.34.907.907,0,0,0-.625.737c-.005.031-.012.063-.02.094-.55,2.3-2.481,3.156-4.18,3.486A1.018,1.018,0,0,1,1.557,7.269ZM6.222,1.811C5.59,1.1,5.081,1.2,4.4,1.7A4.374,4.374,0,0,0,3.337,2.856,5.754,5.754,0,0,1,2.083,4.214a4.4,4.4,0,0,0-.747.8.43.43,0,0,0,.335.666,1.175,1.175,0,0,0,.429-.01,4.316,4.316,0,0,0,2.391-1.32C5.121,3.559,5.639,2.678,6.222,1.811Z" transform="translate(30.046 13.992)" fill="#f0f0f0"/>
      <path id="パス_332" data-name="パス 332" d="M0,3.729A5.272,5.272,0,0,1,2.111,3.4a4.95,4.95,0,0,0,1.853-.077,6.747,6.747,0,0,0,.793-.379,5.717,5.717,0,0,0-1.4-1.455c-.139-.107-.282-.21-.43-.3A.458.458,0,0,1,2.752.6c.176-.571.415-.7,1.007-.53A5.1,5.1,0,0,1,6.242,1.7a1.137,1.137,0,0,1,.092,1.375A2.87,2.87,0,0,1,4.68,4.3a6.886,6.886,0,0,1-2.787.265,2.91,2.91,0,0,1-1.7-.54A1.181,1.181,0,0,1,.047,3.9C.028,3.879.029,3.84,0,3.729Z" transform="translate(88.771 14.33)" fill="#f0f0f0"/>
    </g>
  </g>
</svg>
