<svg xmlns="http://www.w3.org/2000/svg" width="292.513" height="281.483" viewBox="0 0 292.513 281.483">
  <path id="パス_256" data-name="パス 256" d="M992.854,504.437l-11.263-5.983-29.523,3.616,15.6-12.19,2.189-9.268-9.168,2.077-15.7,20.079H935.05l-2.494-2.685-17.3,2.542-14.124-3.784,12.142-12.191,14.239,6.649,5.746-2.971-3.58-5.462-8.941-.773,23.239-8.321,4.962-10.981L936.95,463.6l-18.825,15.965,3.8-8.129-2.939-5.831-5.446,3.492L912.184,484.7l-16.626,4.454,3.8-14.3,10.762-13.6-1.035-3.359,5.048-8.744,25.158-3.543,6.382-6.9-9.121-2.738-18.243,7.371,17.832-23.68.451-12.747-10.814,6.763-11.63,27.374-2.755-19.607-6.932-6.53-2.786,8.978,9.541,23.635-4.972,8.611-3.572.818-6.448,16.252-10.339,10.339L881.4,466.945l12.878-9.006.3-6.463-6.521.369-5.137,7.356,4.412-24.285-7.03-9.788-7.029,9.788,4.412,24.285-5.137-7.356-6.521-.369.3,6.463,12.839,8.978-4.455,16.626L864.228,473.1l-6.394-16.116-3.426-.783-5.048-8.744L858.87,423.9l-2.788-8.978-6.932,6.53-2.737,19.483-11.591-27.283-10.814-6.763.451,12.747,17.891,23.76-18.357-7.419-9.121,2.738,6.381,6.9,25.24,3.554,4.972,8.611-1.08,3.5L861.238,475l3.784,14.122-16.629-4.42-1.361-15.655-5.446-3.492-2.939,5.833,3.8,8.127-18.825-15.965-11.99,1.194,4.96,10.982,23.239,8.321-8.939.771-3.581,5.462,5.746,2.972,14.2-6.629,12.17,12.17-14.28,3.858-17.154-2.522L825.6,502.7H815.5l-15.649-20.015-9.167-2.077,2.187,9.268,15.506,12.114-29.423-3.6-11.265,5.983,11.265,5.983,29.521-3.616-15.6,12.19-2.187,9.268,9.167-2.077,15.7-20.079h9.943l2.494,2.685,17.3-2.542,14.123,3.784L847.267,522.16l-14.237-6.649-5.748,2.971,3.581,5.462,8.94.773-23.239,8.321L811.6,544.019l11.99,1.194,18.827-15.964-3.8,8.127,2.94,5.833L847,539.717l1.355-15.607,16.627-4.454-3.8,14.3-10.762,13.6,1.035,3.359-5.048,8.744-25.158,3.543-6.381,6.9,9.121,2.738,18.243-7.371L824.4,589.141l-.451,12.747,10.815-6.763L846.4,567.75l2.753,19.607,6.932,6.53,2.788-8.978-9.542-23.635,4.972-8.612,3.572-.817,6.448-16.252,10.339-10.339,4.488,16.611-12.878,9.006-.3,6.463,6.521-.369,5.139-7.356-4.414,24.285,7.03,9.788,7.028-9.788-4.412-24.285L888,556.965l6.521.369-.3-6.463-12.837-8.978,4.454-16.626,10.48,10.437,6.394,16.118,3.426.783,5.048,8.744-9.509,23.559,2.786,8.978,6.932-6.53,2.737-19.483,11.591,27.283,10.814,6.763-.45-12.747-17.893-23.758,18.359,7.417,9.121-2.738-6.382-6.9-25.24-3.555-4.971-8.611,1.078-3.5-10.851-13.71-3.784-14.123,16.629,4.42,1.361,15.655,5.446,3.492,2.941-5.833-3.8-8.128,18.825,15.964,11.992-1.194-4.962-10.982-23.239-8.321,8.94-.771,3.58-5.462-5.746-2.971-14.194,6.628-12.172-12.17,14.28-3.857,17.154,2.521,2.393-2.576h10.095l15.649,20.015,9.168,2.077-2.189-9.268-15.506-12.114,29.424,3.6Zm-96.42-28.005-3.059,11.5-8.434,8.4,3.079-11.491Zm-23.873,8.391,3.059,11.5-8.412-8.412-3.079-11.491Zm-13.1,16.469,11.491,3.1-11.491,3.079L847.967,504.4Zm4.653,31.085,3.057-11.5,8.434-8.4-3.079,11.491Zm23.872-8.389-3.057-11.5,8.412,8.412,3.078,11.491Zm13.1-16.469-11.493-3.1,11.493-3.079,11.49,3.079Z" transform="translate(-868.284 144.05) rotate(-30)" fill="#f5f5f5"/>
</svg>
