<svg id="グループ_922" data-name="グループ 922" xmlns="http://www.w3.org/2000/svg" width="180" height="180" viewBox="0 0 180 180">
  <path id="パス_287" data-name="パス 287" d="M90,0A90,90,0,1,1,0,90,90,90,0,0,1,90,0Z"/>
  <path id="パス_763" data-name="パス 763" d="M16.452,7.344A8.665,8.665,0,0,1,16.716,4.2c.264-.48.768-.48,1.68-.576.144-.024.216-.048.216-.312,0-.288-.072-.336-.264-.336-1.032.024-2.3.1-3.408.1s-2.376-.072-3.408-.1c-.192,0-.24.048-.24.336,0,.264.048.288.24.312.96.1,1.488.12,1.728.576.264.528.288.84.288,3.144v8.712a7.846,7.846,0,0,1-.312,3.192c-.288.5-.744.528-1.656.624-.168.024-.216.072-.216.312s.048.288.216.288c2.136-.048,4.416-.072,6.528-.072,1.992,0,4.2.024,6.336.072a33.082,33.082,0,0,0,1.248-4.248c.024-.144.024-.24-.24-.336-.264-.072-.312-.024-.408.144a8.949,8.949,0,0,1-1.872,2.4,6.235,6.235,0,0,1-4.1,1.224c-1.032,0-1.9-.048-2.3-.7a7.416,7.416,0,0,1-.312-2.9Zm15.48,0a8.516,8.516,0,0,1,.264-3.12c.264-.48.816-.5,1.728-.6.144-.024.216-.048.216-.312,0-.288-.048-.336-.216-.336-1.08.024-2.3.1-3.432.1-1.056,0-2.328-.072-3.48-.1-.144,0-.192.048-.192.312,0,.288.048.336.168.336,1.008.1,1.608.12,1.872.6.24.528.24.816.24,3.12v8.712a8.771,8.771,0,0,1-.264,3.216c-.288.5-.816.5-1.728.6-.144.024-.168.072-.168.312s.048.288.192.288c1.056-.024,2.3-.072,3.36-.072,1.1,0,2.352.048,3.528.072.192,0,.24-.048.24-.288s-.048-.288-.216-.312c-.984-.1-1.632-.12-1.872-.6-.264-.48-.24-.816-.24-3.216Zm7.9-1.776,7.32,10.992c1.512,2.28,1.944,2.976,2.712,4.2a.252.252,0,0,0,.216.12c.12,0,.216-.024,1.752-.84-.048-1.32-.072-2.328-.048-3.984l.144-8.712A6.024,6.024,0,0,1,52.5,4.392a1.957,1.957,0,0,1,1.56-.744c.168-.024.216-.072.216-.336,0-.288-.048-.336-.216-.336-.648.048-1.8.1-2.76.1-.936,0-2.016-.048-2.784-.1-.168,0-.216.048-.216.36,0,.288.072.312.288.336.648.072,1.416.216,1.7.72a5.956,5.956,0,0,1,.576,2.952l.048,7.176v2.736c-.624-1.08-1.128-1.824-1.968-3.1l-5.5-8.184A34.152,34.152,0,0,1,41.6,3.024c-1.176.024-2.232.024-2.928.024-.72,0-1.656-.048-2.52-.072-.168,0-.216.072-.216.336,0,.288.048.336.216.36a2.8,2.8,0,0,1,2.016.744,5.822,5.822,0,0,1,.384,2.928l-.12,8.736a5.817,5.817,0,0,1-.6,3.048,2.219,2.219,0,0,1-1.656.768c-.168.024-.192.072-.192.312,0,.216.024.264.216.264.864-.048,1.9-.072,2.88-.072s1.9.024,2.808.072c.192,0,.24-.048.24-.288s-.024-.288-.216-.312a2.554,2.554,0,0,1-1.8-.744,6.344,6.344,0,0,1-.5-3.048l-.12-10.512Zm21.36,6.144c.384-.024.936-.024,1.344-.024a6.405,6.405,0,0,1,3,.576,3.164,3.164,0,0,1,.96,1.8c.048.168.1.24.36.24s.288-.072.288-.264c-.024-.864-.048-1.9-.048-2.784,0-.816.024-1.656.048-2.52,0-.168-.024-.24-.288-.24-.288,0-.336.072-.36.216a2.581,2.581,0,0,1-.936,1.632,5.945,5.945,0,0,1-3.024.528c-.408,0-.96,0-1.344-.024v-3.5a7.794,7.794,0,0,1,.24-2.9c.312-.552,1.056-.6,1.92-.6,1.872,0,2.928.264,3.6.864A6.269,6.269,0,0,1,68.58,7.176c.048.144.144.192.408.168.24-.048.288-.144.264-.288-.192-1.248-.36-2.856-.456-4.08-2.088.072-4.2.1-6.168.1-2.04,0-4.248-.024-6.36-.1-.168,0-.216.048-.216.336,0,.264.048.288.216.312,1.008.1,1.512.12,1.752.576.264.528.288.84.288,3.144v8.712A8.312,8.312,0,0,1,58,19.248c-.264.5-.672.528-1.584.624-.168.024-.216.072-.216.312s.048.288.216.288c2.136-.048,4.44-.072,6.552-.072,1.992,0,4.2.024,6.312.072a29.639,29.639,0,0,0,1.248-4.248c.024-.144.048-.24-.264-.336-.24-.072-.312,0-.384.168a9.751,9.751,0,0,1-1.92,2.448c-.768.648-1.9,1.152-4.128,1.152-1.056,0-1.92-.048-2.3-.7a6.949,6.949,0,0,1-.336-2.9ZM83.172,3c.552-.192.768-.336.768-.552,0-.192-.144-.36-.552-.672-.912-.72-1.128-.864-1.368-.864-.192,0-.384.144-1.368,1.224H76.98A8.639,8.639,0,0,1,75.2,1.944l.264.936a6.741,6.741,0,0,1,1.584-.192h3.576a22.459,22.459,0,0,1-9,9.048c-.1.072.048.288.168.24,5.448-1.968,8.688-4.44,11.136-8.568a15.019,15.019,0,0,0,3.84,5.328,20.4,20.4,0,0,0,4.68,2.976,3.208,3.208,0,0,0,1.056.312c.168,0,.264-.12.336-.432a2.335,2.335,0,0,1,1.3-1.752.161.161,0,0,0-.024-.288A20.829,20.829,0,0,1,87.924,7.44a14.134,14.134,0,0,0,3.24-1.92c.864-.048,1.032-.1,1.032-.336,0-.36-.528-.744-2.376-1.7a11.821,11.821,0,0,1-1.056,1.848A21.306,21.306,0,0,1,87.372,7.1a14.493,14.493,0,0,1-2.16-1.68A14.238,14.238,0,0,0,88.26,3.36c1.056-.024,1.1-.048,1.1-.36,0-.384-.12-.456-2.4-1.632A12.2,12.2,0,0,1,86.1,3.144a12.524,12.524,0,0,1-1.3,1.872,16.328,16.328,0,0,1-1.656-1.968ZM73.884,21.5a10.414,10.414,0,0,1-1.968-.192l.264.888a12.52,12.52,0,0,1,1.752-.144H93.18c.24,0,.312-.072.312-.24s-.192-.384-.672-.792c-1.1-.912-1.368-1.1-1.584-1.1-.168,0-.456.192-1.632,1.584H83.868a21.235,21.235,0,0,0,2.688-2.76c.72-.1.96-.216.96-.5,0-.336-.168-.408-2.856-1.392a18.467,18.467,0,0,1-.528,2.136,21.235,21.235,0,0,1-.912,2.52ZM86.6,16.392v.1c0,.528.216.72.888.72q1.368,0,1.368-.648c0-.36-.072-1.44-.072-3.048v-.6c.48-.36.552-.432.552-.648,0-.192-.144-.36-.5-.648C88,10.944,87.8,10.8,87.564,10.8c-.192,0-.384.144-1.128.888H78.108a20.483,20.483,0,0,0-2.328-1.08c.024,1.368.048,2.712.048,4.056s-.048,1.68-.048,2.016c0,.576.192.768.84.768,1.008,0,1.344-.216,1.344-.864v-.192Zm0-.552h-8.64v-3.6H86.6ZM79.86,8.784a5.671,5.671,0,0,1-1.44-.192l.264.888a5.773,5.773,0,0,1,1.176-.144H86.1c.24,0,.312-.072.312-.24s-.192-.384-.552-.672c-.864-.7-1.128-.888-1.344-.888-.168,0-.456.192-1.344,1.248ZM77.244,5.808c0-1.152-1.008-1.872-3.576-2.52-.12-.024-.192.1-.1.168a4.858,4.858,0,0,1,1.44,2.3c.36,1.128.5,1.32,1.08,1.32A1.2,1.2,0,0,0,77.244,5.808Zm3.912,13.824c0-1.056-1.08-1.944-2.976-2.448-.12-.024-.168.048-.12.144a5.664,5.664,0,0,1,.768,2.376c.192,1.128.336,1.368,1.008,1.368A1.376,1.376,0,0,0,81.156,19.632ZM101.676,2.64c.672-.048.912-.168.912-.456,0-.336-.72-.672-2.76-1.248a13.4,13.4,0,0,1-.912,2.784A21.488,21.488,0,0,1,95.676,8.9c-.072.1.1.288.192.216a13.546,13.546,0,0,0,1.944-1.44l.216.72a4.412,4.412,0,0,1,1.032-.144h.528v3.288h-1.92a6.017,6.017,0,0,1-1.488-.192l.264.888a7.108,7.108,0,0,1,1.32-.144h1.824V19.56c-.624.1-1.248.168-1.824.24-.672.072-1.272.12-1.728.12.816,2.5.936,2.808,1.272,2.808.24,0,.384-.24.5-.888a27.448,27.448,0,0,0,6.1-2.88c.1-.072.024-.336-.1-.312-.624.192-1.416.384-2.232.552V12.1h3.24c.24,0,.312-.072.312-.24s-.192-.384-.5-.648c-.744-.624-.984-.816-1.2-.816-.168,0-.456.192-1.224,1.152h-.624V8.256h2.472c.24,0,.312-.072.312-.24s-.192-.384-.456-.6c-.7-.576-.936-.768-1.152-.768-.168,0-.456.192-1.056,1.056H99.012a4.787,4.787,0,0,1-1.08-.144,19.067,19.067,0,0,0,3.5-4.464,5.348,5.348,0,0,1,1.848,2.352c.456.96.648,1.128,1.176,1.128a1,1,0,0,0,1.008-1.032c0-1.176-1.416-2.16-3.864-2.808Zm16.152,7.176c.24,0,.312-.072.312-.24s-.192-.408-.5-.72c-.816-.768-1.032-.96-1.248-.96-.168,0-.456.192-1.3,1.368h-.24l.216-5.592c.552-.36.72-.552.72-.816,0-.192-.144-.36-.552-.7-.888-.72-1.08-.864-1.32-.864-.192,0-.384.144-1.248,1.152H107.6a9.537,9.537,0,0,1-1.7-.168l.192.84a7.922,7.922,0,0,1,1.56-.12h5.28l-.12,2.784h-4.944a7.439,7.439,0,0,1-1.512-.168l.264.888a5.637,5.637,0,0,1,1.3-.168h4.872l-.1,2.928h-6.576a7.86,7.86,0,0,1-1.7-.192l.264.888a8.56,8.56,0,0,1,1.44-.144h3.72v5.952a33.493,33.493,0,0,1-4.392,1.752,16,16,0,0,1-1.632.408c1.056,2.16,1.248,2.5,1.536,2.5s.384-.216.408-.912a25.921,25.921,0,0,0,4.08-3.048v3.7c0,.36-.1.456-.432.456-.5,0-1.368-.048-2.784-.168-.12,0-.144.288-.024.312,1.608.432,2.136.984,2.208,1.536s.192.624.624.624a2.986,2.986,0,0,0,1.776-.5,1.952,1.952,0,0,0,.672-1.536c0-.912-.1-3.768-.288-9.408a20.509,20.509,0,0,0,1.536,4.8,15.438,15.438,0,0,0,3.192,4.56c.264.24.456.384.576.384.144,0,.24-.12.336-.384A2.371,2.371,0,0,1,118.5,19.2a.148.148,0,0,0,0-.264,11.842,11.842,0,0,1-4.344-3.312,8.908,8.908,0,0,1-.552-.768,27.892,27.892,0,0,0,2.712-2.088c.792,0,.936-.1.936-.36s-.336-.528-2.352-1.776a17.179,17.179,0,0,1-.816,2.136c-.24.528-.528,1.032-.816,1.536a15.476,15.476,0,0,1-1.632-4.488Zm-18.72,7.392c0-1.152-.648-2.208-2.232-3.552a.125.125,0,0,0-.192.144,7.719,7.719,0,0,1,.576,3.576c.024.84.264,1.176.816,1.176C98.7,18.552,99.108,18.024,99.108,17.208Zm9.72-3.312c0-1.1-.936-2.112-2.952-3.072-.12-.048-.264.1-.192.192a5.573,5.573,0,0,1,1.08,2.64c.192,1.344.312,1.536.912,1.536A1.191,1.191,0,0,0,108.828,13.9Zm-3.6.648c0-.312-.408-.528-2.208-1.224a18.154,18.154,0,0,1-.336,1.992,21.6,21.6,0,0,1-.768,2.712c-.048.12.216.24.288.144a12.931,12.931,0,0,0,2.28-3.192C104.988,14.952,105.228,14.808,105.228,14.544Zm30.912,2.112c-.12-1.848-.24-4.008-.24-6.888a18.827,18.827,0,0,0,3.192-.792c.552-.216.72-.5.72-.912,0-.432-.408-.912-1.512-.912a1.745,1.745,0,0,0-.936.264,1.784,1.784,0,0,1-.5.312,8.245,8.245,0,0,1-.888.24,14.251,14.251,0,0,1,.216-2.256,1.735,1.735,0,0,1,.384-.912.689.689,0,0,0,.216-.552c0-.5-.432-.816-1.1-1.176A3.193,3.193,0,0,0,134,2.64a1.818,1.818,0,0,0-.984.312c-.312.192-.6.456-.6.6a.206.206,0,0,0,.192.192c.072,0,.192.024.288.024a3.9,3.9,0,0,1,.5.024.779.779,0,0,1,.768.792c.072.624.072,1.56.1,3.792a20.924,20.924,0,0,1-3.624.408,4.564,4.564,0,0,1-2.064-.432,1.327,1.327,0,0,0-.456-.192c-.1,0-.144.1-.144.192s.024.168.168.384a3.657,3.657,0,0,0,1.224,1.08,3.3,3.3,0,0,0,1.632.36,21.024,21.024,0,0,0,3.24-.216c.024,2.184.072,4.128.1,6.312a9.86,9.86,0,0,0-2.04-.24,5.206,5.206,0,0,0-2.616.576,2.456,2.456,0,0,0-1.224,2.04,2.513,2.513,0,0,0,1.32,2.088,5.826,5.826,0,0,0,2.568.552c2.208,0,3.7-1.152,3.72-2.712a11.362,11.362,0,0,1,2.088,1.776,1.2,1.2,0,0,0,.864.432.951.951,0,0,0,.648-.24,1.03,1.03,0,0,0,.36-.816,1.552,1.552,0,0,0-.456-1.08A9.932,9.932,0,0,0,136.14,16.656Zm-1.9,1.08a2.979,2.979,0,0,1-.072.648,1.591,1.591,0,0,1-.648,1.008,3.551,3.551,0,0,1-1.8.456,3.465,3.465,0,0,1-1.8-.312,1.172,1.172,0,0,1,.144-2.136,4.433,4.433,0,0,1,1.7-.264A6.227,6.227,0,0,1,134.244,17.736Zm-7.92-4.944a.229.229,0,0,0-.192-.24c-.144-.024-.24.144-.312.312-.6,1.44-1.1,2.52-1.728,3.768-.1.192-.336.192-.408-.072a8.72,8.72,0,0,1-.168-1.944,19.486,19.486,0,0,1,1.224-6.192,3.658,3.658,0,0,1,.816-1.656.944.944,0,0,0,.36-.768A4.143,4.143,0,0,0,124.5,3.384a1.82,1.82,0,0,0-1.272-.672c-.264,0-.384.048-.384.144,0,.12.048.168.192.384a2.93,2.93,0,0,1,.552,1.68,10,10,0,0,1-.384,2.16,37.36,37.36,0,0,0-1.1,8.208,11.935,11.935,0,0,0,.792,5.112,1.5,1.5,0,0,0,1.3,1.08.863.863,0,0,0,.912-.816c0-.672-.168-1.128-.168-1.656a5.616,5.616,0,0,1,.048-1.032,42.6,42.6,0,0,1,1.248-4.752A2.435,2.435,0,0,0,126.324,12.792ZM22.932,36.2c-.12,0-.192.072-.192.24a3.2,3.2,0,0,0,1.128,1.848,5.036,5.036,0,0,0,2.616.936,11.733,11.733,0,0,0-2.232,1.944c0,.12.048.144.168.144a3.652,3.652,0,0,0,.768-.384,14.759,14.759,0,0,1,3.12-1.32,19.336,19.336,0,0,1,3.552-.648,8.028,8.028,0,0,0,1.584-.216c.5-.192.672-.432.648-.912-.024-.6-.48-.888-1.2-1.08a3.611,3.611,0,0,0-.984-.12,4.329,4.329,0,0,0-.888.12,12.689,12.689,0,0,1-4.056.672c-2.208,0-3.264-.336-3.768-1.008C23.124,36.32,23.028,36.2,22.932,36.2Zm-.144,7.7q-.144,0-.288.216a5.5,5.5,0,0,0-.984,2.976,3.521,3.521,0,0,0,.72,2.424,5.2,5.2,0,0,0,2.232,1.68A12.98,12.98,0,0,0,29,51.992c.744,0,1.92-.024,3.1-.12a22.024,22.024,0,0,0,2.472-.312c.816-.144,1.416-.744,1.416-1.248,0-.528-.48-1.272-1.9-1.272a7.437,7.437,0,0,0-1.512.192,14.717,14.717,0,0,1-4.224.5,10.289,10.289,0,0,1-4.656-.864,2.5,2.5,0,0,1-1.272-2.208,5.7,5.7,0,0,1,.408-2.208.963.963,0,0,0,.072-.36C22.908,44,22.884,43.9,22.788,43.9Zm26.3,2.112c.288-1.7.672-3.672,1.008-5.376,1.608-.336,3.384-.768,4.368-1.08,1.008-.312,1.224-.528,1.224-1.008a.859.859,0,0,0-.6-.864,3.444,3.444,0,0,0-1.1-.192,1.941,1.941,0,0,0-1.176.36,5.569,5.569,0,0,1-2.3.936c.12-.5.24-.96.36-1.344a1.882,1.882,0,0,1,.432-.912.987.987,0,0,0,.384-.72,1.111,1.111,0,0,0-.6-1.008,4.584,4.584,0,0,0-2.208-.792,2.1,2.1,0,0,0-1.128.432c-.192.12-.312.264-.312.384s.1.144.192.144a4.084,4.084,0,0,1,.864.216c.384.144.552.264.552,1.008a22.224,22.224,0,0,1-.312,3.048,16.911,16.911,0,0,1-2.76.384,3.161,3.161,0,0,1-2.136-.648c-.1-.072-.192-.168-.312-.168-.144,0-.264.168-.168.384a4.019,4.019,0,0,0,1.128,1.44,2.211,2.211,0,0,0,1.632.576c.264,0,1.056-.1,2.328-.24-.288,1.728-.5,3.048-.816,4.344-.072.288-.216.792-.312,1.056-.168.5-.36.648-.36,1.1a3.168,3.168,0,0,0,.336,1.536c.336.624.648.768.984.768.48,0,.672-.264.888-.816a6.152,6.152,0,0,1,1.656-2.376,6.466,6.466,0,0,1,4.464-2.112,2.819,2.819,0,0,1,2.088.792,2.733,2.733,0,0,1,.7,1.968c0,1.248-.6,2.568-2.592,3.936a17,17,0,0,1-6.528,2.352,5.092,5.092,0,0,0-.672.12.31.31,0,0,0-.144.264c0,.144.072.24.5.24a25.958,25.958,0,0,0,4.92-.552,12.624,12.624,0,0,0,4.3-1.68,5.1,5.1,0,0,0,2.592-4.176,3.657,3.657,0,0,0-1.488-3.12,4.6,4.6,0,0,0-3.1-1.056A11.464,11.464,0,0,0,49.092,46.016Zm26.04-1.656a23.988,23.988,0,0,0-2.568,1.608c-.168.12-.48.336-.672.48-.24.168-.408.168-.408-.048a25.8,25.8,0,0,1,.24-3.048,9.712,9.712,0,0,0,.192-1.248,6.123,6.123,0,0,0-.408-1.7,1.838,1.838,0,0,1-.1-.6,1.041,1.041,0,0,1,.744-.84,6.834,6.834,0,0,1,2.976-.408,6.211,6.211,0,0,1,1.032.144,3.416,3.416,0,0,0,.816.072.981.981,0,0,0,.912-1.128,2.487,2.487,0,0,0-2.04-1.92c-1.824-.48-3.168-1.128-3.672-1.968-.12-.216-.168-.336-.288-.336-.1,0-.144.144-.144.48a3.661,3.661,0,0,0,1.008,2.256,7.979,7.979,0,0,0,1.584,1.272,12.169,12.169,0,0,0-3,1.248,1.852,1.852,0,0,0-.936,1.536v.744a11.7,11.7,0,0,1-.168,1.656c-.192,1.368-.552,3.84-.552,4.728a3.028,3.028,0,0,0,.552,1.8,1.626,1.626,0,0,0,1.392.936c.216,0,.552-.192.7-.7A4.446,4.446,0,0,1,73.6,47.24c2.184-2.5,4.128-3.408,5.376-3.408a3.147,3.147,0,0,1,2.352.768,2.669,2.669,0,0,1,.84,2.088c0,1.488-.888,3.216-3.144,4.536a17.745,17.745,0,0,1-6.5,2.136c-.336.048-.5.1-.5.264,0,.192.168.288.552.264a23.223,23.223,0,0,0,8.04-1.464c2.592-1.08,4.032-2.9,4.032-4.872A4.108,4.108,0,0,0,83.484,44.5a5.452,5.452,0,0,0-4.008-1.44A9.556,9.556,0,0,0,75.132,44.36ZM108.06,46.4a1.069,1.069,0,0,1,.816.432,1.134,1.134,0,0,0,.984.384c.408-.024,1.008-.36,1.008-1.32a5.646,5.646,0,0,0-2.016-4.44,7.4,7.4,0,0,0-3.888-1.992c-.072,0-.12-.024-.168-.024-.24,0-.36.072-.36.24,0,.144.192.24.432.336a5.826,5.826,0,0,1,2.76,2.448,3.959,3.959,0,0,1,.72,1.968c0,.384-.792.84-2.9,1.68-.216.1-.216.12-.216.216s.048.168.264.168c.168,0,.456-.024.72-.048C106.692,46.424,107.22,46.4,108.06,46.4Zm-8.928-6.744c.36-.792.7-1.464.912-1.968a1.767,1.767,0,0,1,.5-.744.919.919,0,0,0,.336-1.44,3.918,3.918,0,0,0-2.52-1.368,3.789,3.789,0,0,0-1.176.192c-.24.072-.408.216-.408.432,0,.144.168.168.36.24a5.994,5.994,0,0,1,.936.408.716.716,0,0,1,.36.7,13.8,13.8,0,0,1-1.128,3.84c-.984.24-1.9.5-2.784.672a9.947,9.947,0,0,1-2.064.288,1.828,1.828,0,0,1-1.224-.84c-.1-.144-.12-.264-.312-.264-.216,0-.36.36-.36.864a2.76,2.76,0,0,0,.912,1.632,2.059,2.059,0,0,0,1.344.648.942.942,0,0,0,.624-.216,4.781,4.781,0,0,1,.7-.336c.768-.336,1.68-.7,2.616-1.056a76.961,76.961,0,0,1-5.3,9.264A2.232,2.232,0,0,0,91,51.9a.971.971,0,0,0,.912.96,1.154,1.154,0,0,0,1.056-.528c.624-1.032,1.488-2.64,2.376-4.464,1.008-2.04,2.3-4.872,3.384-7.152a6.607,6.607,0,0,1,1.248-.192c1.08,0,1.416.672,1.416,2.928a14.733,14.733,0,0,1-.576,3.816A8.5,8.5,0,0,1,99.564,50a1.04,1.04,0,0,1-.912.432,2.544,2.544,0,0,1-.912-.264,10.419,10.419,0,0,1-1.632-.936.536.536,0,0,0-.312-.144.177.177,0,0,0-.192.192c0,.072.048.144.168.288a14.277,14.277,0,0,1,1.032,1.3,1.919,1.919,0,0,1,.48,1.272c-.024.768.456,1.08,1.176,1.08.816,0,1.512-.552,2.352-1.44a7.8,7.8,0,0,0,1.416-2.568,16.007,16.007,0,0,0,.888-5.448c0-2.424-1.176-4.176-2.736-4.176A7.986,7.986,0,0,0,99.132,39.656Zm24,4.7a23.988,23.988,0,0,0-2.568,1.608c-.168.12-.48.336-.672.48-.24.168-.408.168-.408-.048a25.8,25.8,0,0,1,.24-3.048,9.712,9.712,0,0,0,.192-1.248,6.123,6.123,0,0,0-.408-1.7,1.838,1.838,0,0,1-.1-.6,1.041,1.041,0,0,1,.744-.84,6.834,6.834,0,0,1,2.976-.408,6.211,6.211,0,0,1,1.032.144,3.416,3.416,0,0,0,.816.072.981.981,0,0,0,.912-1.128,2.487,2.487,0,0,0-2.04-1.92c-1.824-.48-3.168-1.128-3.672-1.968-.12-.216-.168-.336-.288-.336-.1,0-.144.144-.144.48a3.661,3.661,0,0,0,1.008,2.256,7.979,7.979,0,0,0,1.584,1.272,12.169,12.169,0,0,0-3,1.248,1.852,1.852,0,0,0-.936,1.536v.744a11.7,11.7,0,0,1-.168,1.656c-.192,1.368-.552,3.84-.552,4.728a3.028,3.028,0,0,0,.552,1.8,1.626,1.626,0,0,0,1.392.936c.216,0,.552-.192.7-.7A4.446,4.446,0,0,1,121.6,47.24c2.184-2.5,4.128-3.408,5.376-3.408a3.147,3.147,0,0,1,2.352.768,2.669,2.669,0,0,1,.84,2.088c0,1.488-.888,3.216-3.144,4.536a17.745,17.745,0,0,1-6.5,2.136c-.336.048-.5.1-.5.264,0,.192.168.288.552.264a23.223,23.223,0,0,0,8.04-1.464c2.592-1.08,4.032-2.9,4.032-4.872a4.108,4.108,0,0,0-1.152-3.048,5.452,5.452,0,0,0-4.008-1.44A9.556,9.556,0,0,0,123.132,44.36Z" transform="translate(13.5 65)" fill="#fff"/>
  <path id="パス_288" data-name="パス 288" d="M85,0A85,85,0,1,1,0,85,85,85,0,0,1,85,0Z" transform="translate(5 5)" fill="none" stroke="#fff" stroke-width="1"/>
</svg>
