<svg id="SP_LINE登録ボタン" xmlns="http://www.w3.org/2000/svg" width="344" height="45" viewBox="0 0 344 45">
  <rect id="長方形_1118" data-name="長方形 1118" width="344" height="45" rx="22.5"/>
  <path id="パス_764" data-name="パス 764" d="M-75.037-8.475a5.093,5.093,0,0,1,.18-1.92c.165-.285.57-.3,1.08-.36.12-.015.15-.03.15-.18,0-.2-.03-.24-.15-.24-.6.045-1.38.09-1.98.09-.63,0-1.4-.045-2.01-.09-.1,0-.135.045-.135.24,0,.15.03.165.135.18.57.06.99.075,1.155.36.165.315.165.495.165,1.92V-3.15a4.94,4.94,0,0,1-.18,1.98c-.18.285-.585.3-1.11.36-.09.015-.12.045-.12.195s.03.195.12.195c1.275-.045,2.655-.06,3.915-.06,1.215,0,2.49.015,3.795.06a19.71,19.71,0,0,0,.78-2.535c.03-.09.015-.15-.15-.21s-.195-.015-.24.09a4.587,4.587,0,0,1-1.125,1.5,4.1,4.1,0,0,1-2.61.63c-.675,0-1.215-.015-1.455-.405a4.235,4.235,0,0,1-.21-1.8Zm9.645,0a4.834,4.834,0,0,1,.18-1.92c.18-.285.57-.3,1.1-.36.09-.015.135-.03.135-.18,0-.2-.03-.24-.135-.24-.6.045-1.365.09-1.995.09-.585,0-1.38-.045-2.01-.09-.09,0-.12.045-.12.225s.03.18.12.2c.57.06,1,.075,1.17.36.18.33.18.495.18,1.92V-3.15a4.565,4.565,0,0,1-.195,1.98c-.18.3-.57.3-1.08.36-.09.015-.12.045-.12.195s.03.195.12.195c.585-.03,1.35-.06,1.935-.06.63,0,1.41.03,2.055.06.12,0,.15-.045.15-.195s-.03-.18-.135-.195c-.57-.06-1.02-.075-1.185-.36s-.165-.495-.165-1.98Zm4.95-1.11,4.635,6.75c.9,1.305,1.245,1.815,1.71,2.58a.153.153,0,0,0,.12.075c.045,0,.075-.015.81-.42-.03-.8-.045-1.53-.03-2.535l.09-5.355a4.593,4.593,0,0,1,.285-1.875c.18-.3.555-.33,1-.39.12-.015.15-.045.15-.2,0-.195-.03-.225-.15-.225-.48.03-1.14.06-1.695.06-.54,0-1.14-.03-1.695-.06-.1,0-.135.03-.135.225,0,.165.03.18.15.2.48.06.93.09,1.11.39a4.211,4.211,0,0,1,.3,1.875l.015,4.41v1.86c-.465-.735-.885-1.365-1.4-2.1l-3.42-5.01a19.814,19.814,0,0,1-1.155-1.815c-.72.015-1.1.015-1.5.015-.375,0-.93-.03-1.44-.045-.12,0-.15.045-.15.24,0,.15.03.18.15.195a1.835,1.835,0,0,1,1.23.435,3.6,3.6,0,0,1,.24,1.815l-.09,5.355a4.308,4.308,0,0,1-.3,1.92c-.195.315-.585.36-1.035.42-.1.015-.135.045-.135.2,0,.135.03.165.15.165.51-.03,1.185-.045,1.74-.045s1.125.015,1.725.045c.09,0,.12-.03.12-.18s-.015-.18-.12-.18c-.495-.06-.945-.1-1.14-.4a4.55,4.55,0,0,1-.27-1.935l-.06-6.45ZM-47.708-5.8c.24-.015.6-.015.93-.015a4.162,4.162,0,0,1,1.9.315,1.718,1.718,0,0,1,.525,1.11c.015.09.045.15.18.15.195,0,.21-.045.21-.15-.015-.54-.03-1.14-.03-1.695,0-.51.015-.99.03-1.515,0-.09-.015-.135-.21-.135-.15,0-.165.045-.18.135a1.35,1.35,0,0,1-.495.975,3.568,3.568,0,0,1-1.935.315c-.33,0-.69,0-.93-.015V-8.475a4.694,4.694,0,0,1,.15-1.785c.21-.345.72-.375,1.29-.375a3.312,3.312,0,0,1,2.235.48,3.388,3.388,0,0,1,.975,1.485c.03.09.075.135.255.105.12-.03.15-.09.135-.18-.1-.75-.195-1.665-.255-2.43-1.29.075-2.52.075-3.7.075-1.23,0-2.565,0-3.81-.075-.1,0-.135.045-.135.24,0,.15.03.165.135.18.57.06.99.075,1.155.345.165.33.165.51.165,1.935V-3.15a5.241,5.241,0,0,1-.18,1.98c-.18.285-.54.3-1.065.36-.09.015-.12.045-.12.195s.03.195.12.195c1.275-.045,2.655-.06,3.93-.06,1.215,0,2.49.015,3.78.06a15.894,15.894,0,0,0,.78-2.535c.03-.09.03-.15-.15-.21-.15-.045-.18,0-.225.09A4.676,4.676,0,0,1-43.4-1.56a3.96,3.96,0,0,1-2.61.615c-.675,0-1.245-.015-1.485-.405a4.269,4.269,0,0,1-.21-1.8Zm10.275-6.06a6.084,6.084,0,0,1-1.23-.12l.18.6a5.074,5.074,0,0,1,1.08-.1h2.325a13.583,13.583,0,0,1-5.835,5.625c-.09.045-.015.27.09.225a12.423,12.423,0,0,0,6.855-5.49,10.939,10.939,0,0,0,2.58,3.36,11.941,11.941,0,0,0,2.9,1.8,2.424,2.424,0,0,0,.69.21c.09,0,.18-.075.225-.225.15-.51.33-.705.675-.81.075-.015.09-.165.015-.18a10.237,10.237,0,0,1-4-1.5,7.723,7.723,0,0,0,2.055-1.38c.51,0,.615-.075.615-.21,0-.165-.33-.39-1.23-.87a8.539,8.539,0,0,1-.585.99A7.265,7.265,0,0,1-31.163-8.64a10.462,10.462,0,0,1-1.32-1.125,7.819,7.819,0,0,0,1.875-1.44c.57,0,.645-.03.645-.21s-.09-.24-1.275-.84a4.978,4.978,0,0,1-.435.9,7.989,7.989,0,0,1-1,1.4,10.821,10.821,0,0,1-1.08-1.4c.315-.09.42-.165.42-.27s-.045-.18-.27-.39c-.555-.435-.645-.495-.75-.495s-.165.06-.705.645Zm.27,8.97h5.775v.09c0,.285.105.39.45.39.435,0,.66-.12.66-.39,0-.165-.045-.675-.045-1.845v-.54c.315-.21.36-.27.36-.39,0-.09-.045-.18-.255-.345-.48-.39-.57-.45-.675-.45s-.165.06-.6.5h-5.55c-.495-.27-.72-.375-1.215-.6.045.81.045,1.365.045,2.295,0,1.05-.03,1.335-.03,1.5,0,.285.1.39.42.39.465,0,.66-.12.66-.465Zm5.775-.375h-5.775V-5.505h5.775ZM-33.278.27a15.228,15.228,0,0,0,1.545-1.785c.435-.045.585-.12.585-.3,0-.2-.255-.33-1.47-.765a7.925,7.925,0,0,1-.315,1.17c-.195.525-.435,1.095-.72,1.68H-39.5A6.226,6.226,0,0,1-40.748.15l.15.57a7.02,7.02,0,0,1,1.11-.075h12.03c.15,0,.195-.045.195-.165,0-.09-.075-.18-.39-.45-.69-.555-.8-.63-.885-.63s-.21.075-.885.87Zm-4.785-9.06a.6.6,0,0,0,.555-.63c0-.66-.69-1.26-2.13-1.71-.06-.015-.12.045-.075.09a3.95,3.95,0,0,1,1.155,1.68C-38.408-8.88-38.333-8.79-38.063-8.79Zm2.28,8.76A.722.722,0,0,0-35.138-.8c0-.585-.645-1.26-1.665-1.6-.06-.015-.12.045-.09.09a3.237,3.237,0,0,1,.63,1.59C-36.188-.165-36.1-.03-35.783-.03Zm-.75-7.215a4.352,4.352,0,0,1,.84-.075h3.81c.15,0,.195-.06.195-.165,0-.09-.075-.2-.315-.39-.57-.465-.69-.525-.78-.525-.105,0-.21.06-.735.7h-2.175a4.841,4.841,0,0,1-.99-.1Zm12-.66a3.2,3.2,0,0,1,.78-.1h.39v2.04h-1.29a4.156,4.156,0,0,1-1.005-.12l.15.585a4.138,4.138,0,0,1,.9-.09h1.245V-.84c-.51.09-1,.18-1.44.24a7.952,7.952,0,0,1-.855.045c.39,1.32.51,1.5.66,1.5s.225-.1.315-.525a20.022,20.022,0,0,0,3.84-1.695c.075-.045.03-.225-.06-.195a13.942,13.942,0,0,1-1.485.4v-4.53h2.13c.15,0,.195-.045.195-.15s-.06-.21-.27-.375c-.525-.435-.63-.51-.72-.51s-.21.075-.66.66h-.675V-8.01h1.68c.165,0,.21-.045.21-.135,0-.105-.075-.21-.27-.36-.5-.39-.6-.465-.69-.465-.105,0-.21.075-.6.585h-1.71a3.654,3.654,0,0,1-.8-.075,12.461,12.461,0,0,0,2.07-2.925,4.228,4.228,0,0,1,1.44,1.62c.27.54.4.645.66.645a.491.491,0,0,0,.48-.54c0-.69-1.02-1.485-2.49-1.92l.03-.06c.435-.06.585-.135.585-.285s-.465-.345-1.47-.645a6.134,6.134,0,0,1-.465,1.47,12.125,12.125,0,0,1-2.2,3.465c-.075.075.06.24.15.18a9.1,9.1,0,0,0,1.125-.915Zm9.39.54h-4.17a5.268,5.268,0,0,1-1.14-.12l.15.585a4.846,4.846,0,0,1,.99-.09h2.34v3.66a17.42,17.42,0,0,1-2.97,1.32,4.756,4.756,0,0,1-.84.24c.57,1.155.7,1.35.84,1.35s.21-.135.225-.585a15.974,15.974,0,0,0,2.745-1.95V-.3c0,.195-.075.27-.255.27-.465-.015-.8-.015-1.68-.1-.075-.015-.075.18,0,.195,1.02.24,1.32.48,1.365.81.03.27.09.315.3.315a1.825,1.825,0,0,0,.855-.24,1.059,1.059,0,0,0,.45-.915c0-.54-.045-2.28-.165-5.82v-.285a13.662,13.662,0,0,0,1.11,3.33A9.31,9.31,0,0,0-13.013-.09c.18.15.27.21.33.21s.135-.045.195-.21a.94.94,0,0,1,.63-.72c.075-.03.09-.135.03-.165a7.346,7.346,0,0,1-2.6-2.13,6.827,6.827,0,0,1-.42-.645,11.138,11.138,0,0,0,1.71-1.485c.495,0,.6-.045.6-.195s-.2-.3-1.26-.945a5.87,5.87,0,0,1-.45,1.125,11.084,11.084,0,0,1-.765,1.215A11.341,11.341,0,0,1-16.043-6.99H-12.1c.15,0,.2-.045.2-.15,0-.09-.075-.195-.285-.39-.54-.51-.63-.585-.735-.585-.09,0-.21.075-.72.75h-.465l.135-3.57c.345-.24.42-.345.42-.465,0-.09-.06-.18-.3-.39-.45-.375-.54-.42-.645-.42s-.18.045-.63.57h-3.24a6.4,6.4,0,0,1-1.17-.1l.12.555a6.249,6.249,0,0,1,1.065-.075h3.345l-.06,1.74h-3.12a5.938,5.938,0,0,1-1.08-.105l.165.585a4.208,4.208,0,0,1,.93-.105h3.09Zm-3.225,3.63c.33,0,.555-.285.555-.675,0-.615-.63-1.335-1.7-1.875-.06-.03-.15.06-.12.105a4.068,4.068,0,0,1,.81,1.785C-18.728-3.84-18.638-3.735-18.368-3.735Zm-6.03,2.13c.3,0,.525-.315.525-.75a3.149,3.149,0,0,0-1.275-2.2c-.045-.045-.165.03-.135.09A4.818,4.818,0,0,1-24.818-2.3C-24.8-1.8-24.683-1.605-24.4-1.605Zm2.55-.21a11.144,11.144,0,0,0,1.335-2.04c.33-.03.465-.105.465-.27s-.255-.285-1.23-.66a5.519,5.519,0,0,1-.165,1.02,12.493,12.493,0,0,1-.585,1.845C-22.058-1.83-21.908-1.74-21.848-1.815ZM-.562-2.67C-.637-3.99-.7-5.52-.7-7.14a11.692,11.692,0,0,0,2.025-.51c.3-.105.435-.255.435-.48,0-.255-.18-.42-.675-.42a1.084,1.084,0,0,0-.66.18,2.014,2.014,0,0,1-.4.2c-.21.06-.42.12-.7.18,0-.555.045-.915.075-1.365a.9.9,0,0,1,.21-.6A.427.427,0,0,0-.232-10.3c0-.315-.33-.51-.645-.675a2.132,2.132,0,0,0-.99-.27,1.438,1.438,0,0,0-.57.165c-.1.06-.24.165-.24.24,0,.045.03.075.1.075a1.615,1.615,0,0,1,.33.03,1.844,1.844,0,0,1,.435.12c.21.105.24.285.27.69.015.585.045,1.185.045,2.115A13.045,13.045,0,0,1-3.8-7.59a1.545,1.545,0,0,1-1.3-.57c-.075-.09-.135-.135-.2-.135a.163.163,0,0,0-.12.12.673.673,0,0,0,.06.255A1.627,1.627,0,0,0-3.637-6.87a17.053,17.053,0,0,0,2.145-.135c.015,1.38.045,2.73.06,4.1a6.742,6.742,0,0,0-1.41-.15c-1.35,0-2.13.69-2.13,1.515S-4.117-.06-2.917-.06c1.455,0,2.34-.615,2.34-1.71A7.624,7.624,0,0,1,.938-.675a.853.853,0,0,0,.57.27A.478.478,0,0,0,2-.945a.686.686,0,0,0-.285-.5A8.685,8.685,0,0,0-.562-2.67Zm-.93.54a.873.873,0,0,1,0,.285.993.993,0,0,1-.345.69A1.925,1.925,0,0,1-3.082-.8c-.99,0-1.41-.36-1.41-.78,0-.63.705-.9,1.32-.9A4.192,4.192,0,0,1-1.492-2.13ZM-8.377-3.855a13.664,13.664,0,0,1,.93-4.365,1.7,1.7,0,0,1,.33-.645.639.639,0,0,0,.165-.48,1.791,1.791,0,0,0-.51-1.17,3.18,3.18,0,0,0-.765-.69.342.342,0,0,0-.165-.045c-.09,0-.15.045-.15.12a.431.431,0,0,0,.105.225,1.922,1.922,0,0,1,.33,1.08,4.767,4.767,0,0,1-.225,1.29,22.031,22.031,0,0,0-.75,4.995A8.306,8.306,0,0,0-8.527-.225a.763.763,0,0,0,.645.51.379.379,0,0,0,.39-.42,2.407,2.407,0,0,0-.045-.45,3.564,3.564,0,0,1-.045-.585,2.87,2.87,0,0,1,.12-.72c.225-.81.51-1.815.87-2.985a1.048,1.048,0,0,0,.045-.18.177.177,0,0,0-.165-.165c-.075,0-.15.06-.2.18-.36.855-.765,1.86-1.11,2.625-.06.135-.09.195-.15.195s-.105-.06-.135-.225A8.23,8.23,0,0,1-8.377-3.855ZM10.193-8.52c-.54.48-1.2,1.05-1.53,1.35a.561.561,0,0,0-.165.24.23.23,0,0,0,.165.165.8.8,0,0,0,.33-.135,10.856,10.856,0,0,1,2.475-1.485,9.939,9.939,0,0,1,2.085-.36c.51-.045.69-.2.69-.48,0-.27-.12-.465-.495-.585a1.929,1.929,0,0,0-.54-.075,1.817,1.817,0,0,0-.435.1,8.713,8.713,0,0,1-1.335.3,10.1,10.1,0,0,1-1.425.135,5.926,5.926,0,0,1-1.11-.09A2.867,2.867,0,0,1,7.9-9.825.353.353,0,0,0,7.7-9.9a.164.164,0,0,0-.15.165.262.262,0,0,0,.06.18,2.31,2.31,0,0,0,.945.735A3.977,3.977,0,0,0,10.193-8.52ZM7.4-5.115a.25.25,0,0,0-.195.15A2.446,2.446,0,0,0,6.8-3.525a2.412,2.412,0,0,0,1.635,2.28,7.254,7.254,0,0,0,2.835.48A22.682,22.682,0,0,0,14.618-1c.54-.075.855-.225.855-.615s-.405-.645-.96-.645a2.864,2.864,0,0,0-.915.135,8.935,8.935,0,0,1-2.565.315,5.664,5.664,0,0,1-2.715-.5,1.513,1.513,0,0,1-.96-1.47,2.643,2.643,0,0,1,.18-.99.589.589,0,0,0,.045-.21C7.583-5.055,7.493-5.115,7.4-5.115ZM23.663-7.7c-.21,1.14-.405,2.19-.63,3.105-.045.18-.075.3-.12.435a1.066,1.066,0,0,1-.12.27.626.626,0,0,0-.09.345,1.959,1.959,0,0,0,.18.72c.12.255.285.375.465.375.21,0,.33-.135.42-.36a2.791,2.791,0,0,1,.7-.96,6.355,6.355,0,0,1,1.515-1.17,3.813,3.813,0,0,1,1.725-.48,2.06,2.06,0,0,1,1.485.48,1.433,1.433,0,0,1,.45,1.155,3.041,3.041,0,0,1-1.77,2.565,12.447,12.447,0,0,1-4.29,1.4c-.135.015-.255.06-.255.195s.1.225.3.21A13,13,0,0,0,28.583-.6c1.305-.675,2.22-1.59,2.22-2.91a2.119,2.119,0,0,0-.81-1.725,3.4,3.4,0,0,0-2.19-.66,7.4,7.4,0,0,0-4.02,1.575c.21-1.14.465-2.43.69-3.54A20.1,20.1,0,0,0,27.1-8.58c.435-.15.615-.27.615-.54,0-.195-.18-.315-.345-.375a1.921,1.921,0,0,0-.525-.09.908.908,0,0,0-.645.24,4.386,4.386,0,0,1-1.545.645c.09-.4.2-.84.3-1.215a.8.8,0,0,1,.24-.45.492.492,0,0,0,.21-.39c0-.225-.225-.435-.42-.555a2.112,2.112,0,0,0-1.065-.39,1.585,1.585,0,0,0-.7.15c-.12.075-.195.165-.195.24a.121.121,0,0,0,.135.105,4.078,4.078,0,0,1,.45.06c.33.09.45.165.45.585,0,.15-.03.42-.06.7-.06.48-.09.81-.18,1.335a7.832,7.832,0,0,1-1.665.225,1.892,1.892,0,0,1-1.305-.54.341.341,0,0,0-.18-.09.161.161,0,0,0-.15.15.317.317,0,0,0,.06.15A1.9,1.9,0,0,0,22.388-7.59,11.014,11.014,0,0,0,23.663-7.7ZM39.908-9.6a9.221,9.221,0,0,0-1.89.75.992.992,0,0,0-.585.87c0,.2.03.405.03.57a5.869,5.869,0,0,1-.12,1.14,17.02,17.02,0,0,0-.36,3.06,1.6,1.6,0,0,0,.24.87c.18.285.375.435.57.435.24,0,.345-.1.435-.39a3.894,3.894,0,0,1,.795-1.11,9.229,9.229,0,0,1,1.83-1.545,3.694,3.694,0,0,1,1.98-.645,2.142,2.142,0,0,1,1.455.465,1.866,1.866,0,0,1,.525,1.4c0,.96-.69,1.785-1.89,2.475a12.855,12.855,0,0,1-4.2,1.29A.255.255,0,0,0,38.5.255c0,.135.135.18.3.18a12.5,12.5,0,0,0,4.755-.99c1.47-.675,2.415-1.65,2.415-3.015a2.262,2.262,0,0,0-.7-1.65,3.2,3.2,0,0,0-2.34-.84,5.355,5.355,0,0,0-2.775.885,15.752,15.752,0,0,0-2.01,1.35c-.09.075-.135.09-.18.09s-.075-.045-.075-.105A16.05,16.05,0,0,1,38.077-6a8.647,8.647,0,0,0,.105-1.05,1.638,1.638,0,0,0-.12-.645,1.044,1.044,0,0,1-.12-.405c0-.15.135-.3.375-.4a5.51,5.51,0,0,1,1.89-.435,2.213,2.213,0,0,1,.72.09,1.371,1.371,0,0,0,.465.075.406.406,0,0,0,.4-.42.85.85,0,0,0-.315-.645,2.4,2.4,0,0,0-.885-.48,3.344,3.344,0,0,1-1.875-1.38c-.075-.135-.12-.165-.195-.165-.06,0-.12.045-.12.18a2.117,2.117,0,0,0,.63,1.38A3.325,3.325,0,0,0,39.908-9.6Zm22.56,5.385a3.564,3.564,0,0,0-1.2-2.31,5.938,5.938,0,0,0-2.1-1.425.274.274,0,0,0-.135-.03c-.135,0-.225.075-.225.15a.31.31,0,0,0,.15.21,6.436,6.436,0,0,1,1.65,1.575,2.438,2.438,0,0,1,.51,1.155c0,.165-.06.21-.24.27a13.063,13.063,0,0,1-1.68.42c-.12.03-.165.09-.165.18a.186.186,0,0,0,.21.2c.69-.045,1.215-.075,1.695-.075a.843.843,0,0,1,.555.165.69.69,0,0,0,.435.165C62.213-3.57,62.468-3.765,62.468-4.215ZM55.073-8.1c.21-.465.42-.9.6-1.3a1.025,1.025,0,0,1,.36-.48c.195-.09.285-.2.285-.345a.626.626,0,0,0-.24-.495,2.439,2.439,0,0,0-1.5-.63,1.308,1.308,0,0,0-.54.12c-.1.06-.195.12-.195.2s.06.105.21.135a2.116,2.116,0,0,1,.66.225c.195.135.225.21.225.345a1.726,1.726,0,0,1-.1.585,16.76,16.76,0,0,1-.675,1.815c-.72.2-1.29.345-1.815.465a4.594,4.594,0,0,1-1.08.195c-.24,0-.465-.21-.735-.555-.075-.1-.1-.135-.165-.135-.075,0-.15.2-.15.36a1.68,1.68,0,0,0,.57,1.05,1.007,1.007,0,0,0,.675.36.545.545,0,0,0,.375-.165,1.633,1.633,0,0,1,.435-.225c.435-.18,1.02-.42,1.575-.615-.3.63-.63,1.245-1.02,1.98-.75,1.38-1.56,2.73-2.445,4.065a.927.927,0,0,0-.195.555.445.445,0,0,0,.48.42.56.56,0,0,0,.525-.3c.81-1.38,1.485-2.7,2.265-4.215.45-.87.87-1.815,1.335-2.775a4.287,4.287,0,0,1,1.035-.18.688.688,0,0,1,.645.255,2.043,2.043,0,0,1,.255,1.26,9.963,9.963,0,0,1-.39,2.55,5.176,5.176,0,0,1-1.065,2.04.776.776,0,0,1-.57.285.98.98,0,0,1-.435-.105c-.39-.225-.75-.465-1.185-.765a.273.273,0,0,0-.165-.075c-.075,0-.15.105-.15.165a.2.2,0,0,0,.075.15c.36.375.63.66.87.945a.988.988,0,0,1,.225.54c.06.3.21.39.555.39A1.977,1.977,0,0,0,55.823-.69a4.911,4.911,0,0,0,1.17-1.92,9.647,9.647,0,0,0,.585-3.18,3.13,3.13,0,0,0-.435-1.785,1.389,1.389,0,0,0-1.185-.615A4.662,4.662,0,0,0,55.073-8.1ZM69.908-9.6a9.221,9.221,0,0,0-1.89.75.992.992,0,0,0-.585.87c0,.2.03.405.03.57a5.869,5.869,0,0,1-.12,1.14,17.02,17.02,0,0,0-.36,3.06,1.6,1.6,0,0,0,.24.87c.18.285.375.435.57.435.24,0,.345-.1.435-.39a3.894,3.894,0,0,1,.795-1.11,9.229,9.229,0,0,1,1.83-1.545,3.694,3.694,0,0,1,1.98-.645,2.142,2.142,0,0,1,1.455.465,1.866,1.866,0,0,1,.525,1.4c0,.96-.69,1.785-1.89,2.475a12.855,12.855,0,0,1-4.2,1.29A.255.255,0,0,0,68.5.255c0,.135.135.18.3.18a12.5,12.5,0,0,0,4.755-.99c1.47-.675,2.415-1.65,2.415-3.015a2.262,2.262,0,0,0-.7-1.65,3.2,3.2,0,0,0-2.34-.84,5.355,5.355,0,0,0-2.775.885,15.752,15.752,0,0,0-2.01,1.35c-.09.075-.135.09-.18.09-.06,0-.075-.045-.075-.105A16.05,16.05,0,0,1,68.077-6a8.646,8.646,0,0,0,.105-1.05,1.637,1.637,0,0,0-.12-.645,1.044,1.044,0,0,1-.12-.405c0-.15.135-.3.375-.4a5.51,5.51,0,0,1,1.89-.435,2.213,2.213,0,0,1,.72.09,1.371,1.371,0,0,0,.465.075.406.406,0,0,0,.4-.42.85.85,0,0,0-.315-.645,2.4,2.4,0,0,0-.885-.48,3.344,3.344,0,0,1-1.875-1.38c-.075-.135-.12-.165-.195-.165s-.12.045-.12.18a2.117,2.117,0,0,0,.63,1.38A3.325,3.325,0,0,0,69.908-9.6Z" transform="translate(172 28)" fill="#fff"/>
  <g id="長方形_1124" data-name="長方形 1124" transform="translate(4 4)" fill="none" stroke="#fff" stroke-width="1">
    <rect width="336" height="37" rx="18.5" stroke="none"/>
    <rect x="0.5" y="0.5" width="335" height="36" rx="18" fill="none"/>
  </g>
</svg>
