<svg xmlns="http://www.w3.org/2000/svg" width="17.002" height="17.001" viewBox="0 0 17.002 17.001">
  <g id="グループ_1295" data-name="グループ 1295" transform="translate(-220.865 -216.078)">
    <path id="パス_1" data-name="パス 1" d="M235.159,231.372H222.573V218.786h5.61v-1.708h-6.464a.853.853,0,0,0-.854.854v14.294a.854.854,0,0,0,.854.854h14.294a.854.854,0,0,0,.854-.854v-6.464h-1.708Z" transform="translate(0 0)" fill="#fff"/>
    <path id="パス_2" data-name="パス 2" d="M237.653,217.078h-5.041v1.643h3.057l-8.347,8.346,1.162,1.162,8.347-8.347v3.058h1.643V217.9A.821.821,0,0,0,237.653,217.078Z" transform="translate(-0.608 -1)" fill="#fff"/>
  </g>
</svg>
