<svg xmlns="http://www.w3.org/2000/svg" width="220" height="220" viewBox="0 0 220 220">
  <g id="グループ_968" data-name="グループ 968" transform="translate(-92.851 -336.447)">
    <circle id="楕円形_52" data-name="楕円形 52" cx="110" cy="110" r="110" transform="translate(92.851 336.447)" fill="#fff" opacity="0.601"/>
    <path id="パス_169" data-name="パス 169" d="M275.525,374.321a102.39,102.39,0,1,1-145.5.154" fill="none" stroke="#000" stroke-miterlimit="10" stroke-width="1"/>
    <g id="グループ_36" data-name="グループ 36">
      <path id="パス_170" data-name="パス 170" d="M147.9,367.913l.531-.335a4.218,4.218,0,0,0,1.117.923,3.583,3.583,0,0,0,1.257.432,3.62,3.62,0,0,0,1.327-.066,4.24,4.24,0,0,0,1.321-.564,3.072,3.072,0,0,0,1.364-1.568,1.983,1.983,0,0,0-.245-1.757,2.091,2.091,0,0,0-.54-.583,2.052,2.052,0,0,0-.777-.323,4.424,4.424,0,0,0-1.118-.066,14.316,14.316,0,0,0-1.586.179,16.4,16.4,0,0,1-1.967.2,5.013,5.013,0,0,1-1.434-.139,2.754,2.754,0,0,1-1.033-.5,3.6,3.6,0,0,1-.781-.9,3.673,3.673,0,0,1-.535-1.371,3.392,3.392,0,0,1,.055-1.4,3.583,3.583,0,0,1,.62-1.276,4.256,4.256,0,0,1,1.152-1.041,3.985,3.985,0,0,1,1.3-.545,4.781,4.781,0,0,1,1.515-.053l-.036-.885.331-.209,1.965,2.761-.532.337a4.289,4.289,0,0,0-2.1-1.122,2.715,2.715,0,0,0-1.936.421,2.5,2.5,0,0,0-1.122,1.313,1.7,1.7,0,0,0,.219,1.492,1.912,1.912,0,0,0,.51.551,1.854,1.854,0,0,0,.709.3,4.462,4.462,0,0,0,.993.076,10.724,10.724,0,0,0,1.365-.13,22.153,22.153,0,0,1,2.326-.235,6.65,6.65,0,0,1,1.638.111,2.878,2.878,0,0,1,1.134.488,3.348,3.348,0,0,1,.812.9,3.558,3.558,0,0,1,.4,3.047,4.418,4.418,0,0,1-.813,1.451,5.921,5.921,0,0,1-1.43,1.237,5.256,5.256,0,0,1-1.618.7,5.356,5.356,0,0,1-1.819.064l.043.959-.33.209Z"/>
      <path id="パス_171" data-name="パス 171" d="M158.38,357.359l.061-.029a4.7,4.7,0,0,1,.625-1.424,2.8,2.8,0,0,1,1.162-.963,4.456,4.456,0,0,1,1.755-.445,4.191,4.191,0,0,1,1.685.285,4.472,4.472,0,0,1,1.472.949,5.461,5.461,0,0,1,1.6,3.417,4.407,4.407,0,0,1-.218,1.729,4.185,4.185,0,0,1-.869,1.465,4.555,4.555,0,0,1-1.454,1.063,3.679,3.679,0,0,1-1.395.369,3.5,3.5,0,0,1-1.45-.263l1.059,2.244a7,7,0,0,0,.526.955,1.188,1.188,0,0,0,.514.452,1.1,1.1,0,0,0,.661.026,5.637,5.637,0,0,0,.958-.339l.254.536-4.733,2.239-.254-.537a3.747,3.747,0,0,0,.7-.445.93.93,0,0,0,.316-.488,1.32,1.32,0,0,0-.035-.651,5.958,5.958,0,0,0-.363-.929l-2.713-5.75q-.42-.891-.712-1.449a4.254,4.254,0,0,0-.455-.744.725.725,0,0,0-.589-.332,3.076,3.076,0,0,0-1.106.362l-.247-.522,2.675-1.98Zm.671.229a2.538,2.538,0,0,0,.045.871,5.45,5.45,0,0,0,.418,1.146l.566,1.2c.131.276.251.51.361.7a4.606,4.606,0,0,0,.312.481,1.916,1.916,0,0,0,.3.325,1.626,1.626,0,0,0,.353.23,2.772,2.772,0,0,0,1.2.361,2.339,2.339,0,0,0,1.156-.218,2.247,2.247,0,0,0,1.293-1.7,4.618,4.618,0,0,0-.529-2.814,6.213,6.213,0,0,0-.862-1.369,4.022,4.022,0,0,0-1.029-.886,2.636,2.636,0,0,0-1.121-.363,2.166,2.166,0,0,0-1.13.215,2.323,2.323,0,0,0-.9.736A2.39,2.39,0,0,0,159.051,357.588Z"/>
      <path id="パス_172" data-name="パス 172" d="M176.9,356.684a4.474,4.474,0,0,1-2.843,2.8,4.754,4.754,0,0,1-1.829.267,4.054,4.054,0,0,1-1.627-.439,4.174,4.174,0,0,1-1.322-1.08,5.152,5.152,0,0,1-.9-1.661,5.292,5.292,0,0,1-.289-1.929,4.333,4.333,0,0,1,.428-1.74,4.465,4.465,0,0,1,1.087-1.407,4.844,4.844,0,0,1,1.667-.938,3.125,3.125,0,0,1,4.37,2.17c.051.152.052.251,0,.3a1.133,1.133,0,0,1-.395.187l-5.3,1.784a2.059,2.059,0,0,0,.058.33,4.3,4.3,0,0,0,.122.416,5.628,5.628,0,0,0,.713,1.456,3.687,3.687,0,0,0,.972.974,2.849,2.849,0,0,0,1.154.445,2.689,2.689,0,0,0,1.258-.127,2.876,2.876,0,0,0,1.157-.722,4.6,4.6,0,0,0,.864-1.377Zm-4.122-3.456c.215-.073.385-.135.51-.19a.842.842,0,0,0,.269-.162.258.258,0,0,0,.083-.18.771.771,0,0,0-.046-.245,1.627,1.627,0,0,0-.874-1.024,1.925,1.925,0,0,0-1.445-.007q-1.74.586-1.461,2.807Z"/>
      <path id="パス_173" data-name="パス 173" d="M186.431,354.636a4.079,4.079,0,0,1-1.289,1.481,5.271,5.271,0,0,1-1.949.863,4.1,4.1,0,0,1-1.691.039,3.8,3.8,0,0,1-1.473-.629,4.217,4.217,0,0,1-1.139-1.236,5.668,5.668,0,0,1-.7-1.776,5.388,5.388,0,0,1-.1-1.99,4.271,4.271,0,0,1,.611-1.67,4.166,4.166,0,0,1,1.251-1.254,5.4,5.4,0,0,1,1.811-.746,6.18,6.18,0,0,1,1.2-.156,3.938,3.938,0,0,1,.988.094,1.76,1.76,0,0,1,.709.329.956.956,0,0,1,.348.541.657.657,0,0,1-.1.563.923.923,0,0,1-.557.315.975.975,0,0,1-.526-.012,2.359,2.359,0,0,1-.639-.442,2.273,2.273,0,0,0-.759-.4,1.75,1.75,0,0,0-.823.018,2.051,2.051,0,0,0-1.579,1.311,5,5,0,0,0,0,2.822,5.272,5.272,0,0,0,1.32,2.745,2.285,2.285,0,0,0,2.187.548,3.288,3.288,0,0,0,1.25-.567,4.555,4.555,0,0,0,1.046-1.165Z"/>
      <path id="パス_174" data-name="パス 174" d="M190.957,352.728a7.669,7.669,0,0,0,.2,1.044,1.4,1.4,0,0,0,.313.591.86.86,0,0,0,.515.248,3.568,3.568,0,0,0,.823-.009l.08.589-4.834.659-.081-.589a3.418,3.418,0,0,0,.811-.223.991.991,0,0,0,.455-.371,1.2,1.2,0,0,0,.155-.621,6.67,6.67,0,0,0-.074-.977l-.3-2.155q-.135-.977-.247-1.6a4.435,4.435,0,0,0-.211-.856.718.718,0,0,0-.461-.476,3.056,3.056,0,0,0-1.164.011l-.081-.589,3.213-1.089Zm-3.288-9.573a1.048,1.048,0,1,1,.4.7A1.018,1.018,0,0,1,187.669,343.155Z"/>
      <path id="パス_175" data-name="パス 175" d="M199.07,349l-.035-.7q-.108-2.072-1.873-1.984a2.059,2.059,0,0,0-.49.076.806.806,0,0,0-.331.187,1.1,1.1,0,0,0-.228.352,3.649,3.649,0,0,0-.185.554,1.761,1.761,0,0,1-.331.67.739.739,0,0,1-.51.189.753.753,0,0,1-.892-.807,1.389,1.389,0,0,1,.8-1.309,5.456,5.456,0,0,1,2.439-.572,3.769,3.769,0,0,1,2.442.483,2.558,2.558,0,0,1,.819,2.009l.194,3.8q.1,1.935.864,1.9a1.8,1.8,0,0,0,.455-.082.642.642,0,0,0,.358-.333l.259.395a1.568,1.568,0,0,1-.714.691,2.594,2.594,0,0,1-1.124.321,1.323,1.323,0,0,1-1.137-.42,2.173,2.173,0,0,1-.434-1.323l-.085,0a3.357,3.357,0,0,1-1.154,1.377,3.238,3.238,0,0,1-1.707.572,2.45,2.45,0,0,1-1.709-.46,1.86,1.86,0,0,1-.686-1.43,2.135,2.135,0,0,1,.1-.788,2.18,2.18,0,0,1,.43-.737,4.4,4.4,0,0,1,.815-.712,10.1,10.1,0,0,1,1.256-.736Zm.037.73a15.1,15.1,0,0,0-1.6.811,5.76,5.76,0,0,0-1.042.768,2.423,2.423,0,0,0-.549.741,1.626,1.626,0,0,0-.14.74,1.213,1.213,0,0,0,.42.9,1.368,1.368,0,0,0,1,.306,1.588,1.588,0,0,0,.812-.261,2.264,2.264,0,0,0,.641-.635,3.1,3.1,0,0,0,.411-.923,3.481,3.481,0,0,0,.114-1.105Z"/>
      <path id="パス_176" data-name="パス 176" d="M206.727,352.129a8.262,8.262,0,0,0,.017,1.037,1.309,1.309,0,0,0,.192.62.817.817,0,0,0,.449.32,3.239,3.239,0,0,0,.787.128l-.02.6-4.689-.156.019-.6a3.236,3.236,0,0,0,.82-.083,1.025,1.025,0,0,0,.494-.281,1.127,1.127,0,0,0,.256-.561,6.3,6.3,0,0,0,.091-.959l.24-7.323q.03-.916.025-1.538a5.45,5.45,0,0,0-.049-.844.692.692,0,0,0-.382-.54,3.267,3.267,0,0,0-1.126-.174l.019-.578,3.232-.52Z"/>
      <path id="パス_177" data-name="パス 177" d="M224.558,343.7a7.279,7.279,0,0,1,2.619,1.088,7.017,7.017,0,0,1,1.9,1.875,6.7,6.7,0,0,1,1.017,2.42,6.608,6.608,0,0,1-.023,2.739,6.138,6.138,0,0,1-1.075,2.415,6.656,6.656,0,0,1-1.906,1.745,7.123,7.123,0,0,1-2.489.919,7.654,7.654,0,0,1-5.423-1.138,7.1,7.1,0,0,1-1.9-1.841,6.62,6.62,0,0,1-1.038-2.363,6.114,6.114,0,0,1-.007-2.642,6.61,6.61,0,0,1,1.088-2.517,6.748,6.748,0,0,1,1.91-1.805,7.041,7.041,0,0,1,2.495-.953A7.313,7.313,0,0,1,224.558,343.7Zm-2.584,12.225a4.986,4.986,0,0,0,2.053.031,4.334,4.334,0,0,0,1.729-.783,5.051,5.051,0,0,0,1.324-1.538,7.541,7.541,0,0,0,.816-2.216,8.284,8.284,0,0,0,.175-2.474,5.536,5.536,0,0,0-.561-2.029,4.26,4.26,0,0,0-1.252-1.479,5.137,5.137,0,0,0-3.96-.832,4.278,4.278,0,0,0-1.743.851,5.537,5.537,0,0,0-1.335,1.632,8.269,8.269,0,0,0-.841,2.332,7.56,7.56,0,0,0-.15,2.358,5.105,5.105,0,0,0,.58,1.937,4.175,4.175,0,0,0,1.267,1.412A5.03,5.03,0,0,0,221.974,355.928Z"/>
      <path id="パス_178" data-name="パス 178" d="M232.835,350.472l1.815.629.4-1.157a4.292,4.292,0,0,1,1.973-2.547,3.831,3.831,0,0,1,3.131-.076,3.949,3.949,0,0,1,1.516.867.96.96,0,0,1,.354,1,.814.814,0,0,1-.388.469.7.7,0,0,1-.581.041.9.9,0,0,1-.368-.263,4.475,4.475,0,0,1-.428-.607,3.428,3.428,0,0,0-.474-.658,1.308,1.308,0,0,0-.493-.287,1.508,1.508,0,0,0-1.722.5,2.838,2.838,0,0,0-.473.717,11.687,11.687,0,0,0-.5,1.266l-.435,1.252,2.587.9-.262.754-2.587-.9-1.705,4.915a5.769,5.769,0,0,0-.267,1.005,1.465,1.465,0,0,0,.042.707.989.989,0,0,0,.4.5,3.8,3.8,0,0,0,.8.394l-.2.561-4.562-1.579.194-.563a3.591,3.591,0,0,0,.754.164.773.773,0,0,0,.513-.129,1.309,1.309,0,0,0,.387-.5,7.936,7.936,0,0,0,.386-.955l1.749-5.043-1.815-.627Z"/>
      <path id="パス_179" data-name="パス 179" d="M240.316,353.132l1.759.769.492-1.121a4.29,4.29,0,0,1,2.166-2.382,3.828,3.828,0,0,1,3.126.173,3.942,3.942,0,0,1,1.444.985.961.961,0,0,1,.273,1.029.807.807,0,0,1-.424.435.7.7,0,0,1-.582,0,.912.912,0,0,1-.347-.291,4.611,4.611,0,0,1-.378-.639,3.378,3.378,0,0,0-.42-.694,1.323,1.323,0,0,0-.469-.328,1.509,1.509,0,0,0-1.755.364,2.889,2.889,0,0,0-.53.677,12.562,12.562,0,0,0-.6,1.222l-.532,1.214,2.507,1.1-.321.732-2.507-1.1-2.087,4.765a5.737,5.737,0,0,0-.346.981,1.459,1.459,0,0,0-.014.708,1,1,0,0,0,.354.527,3.844,3.844,0,0,0,.766.456l-.239.545-4.423-1.938.239-.545a3.514,3.514,0,0,0,.738.222.759.759,0,0,0,.521-.088,1.319,1.319,0,0,0,.426-.463,8,8,0,0,0,.459-.922l2.143-4.889-1.76-.771Z"/>
      <path id="パス_180" data-name="パス 180" d="M251.612,366.753a4.468,4.468,0,0,1-3.985-.211,4.822,4.822,0,0,1-1.43-1.172,4.1,4.1,0,0,1-.773-1.5,4.216,4.216,0,0,1-.094-1.7,5.126,5.126,0,0,1,.621-1.786,5.274,5.274,0,0,1,1.229-1.515,4.319,4.319,0,0,1,1.573-.855,4.441,4.441,0,0,1,1.771-.146,4.84,4.84,0,0,1,1.815.6,3.127,3.127,0,0,1,1.344,4.693c-.077.138-.152.207-.222.207a1.093,1.093,0,0,1-.4-.166l-4.889-2.716a2.083,2.083,0,0,0-.206.267c-.073.106-.148.231-.225.37a5.639,5.639,0,0,0-.593,1.509,3.633,3.633,0,0,0-.063,1.374,2.837,2.837,0,0,0,.449,1.154,2.687,2.687,0,0,0,.942.843,2.873,2.873,0,0,0,1.311.369,4.541,4.541,0,0,0,1.6-.289Zm-.226-5.376c.2.109.358.193.483.249a.906.906,0,0,0,.3.09.263.263,0,0,0,.189-.062.752.752,0,0,0,.149-.2,1.633,1.633,0,0,0,.167-1.337,1.925,1.925,0,0,0-.969-1.073q-1.6-.891-3.055.811Z"/>
      <path id="パス_181" data-name="パス 181" d="M256.34,368.592q-.4.574-.6.928a1.29,1.29,0,0,0-.206.612.682.682,0,0,0,.182.469,4.647,4.647,0,0,0,.571.518l-.338.49-3.717-2.575.339-.49a3.591,3.591,0,0,0,.7.369.789.789,0,0,0,.523.021,1.189,1.189,0,0,0,.495-.371,10.249,10.249,0,0,0,.62-.823l1.131-1.635q.657-.95,1-1.5a2.6,2.6,0,0,0,.4-.881.611.611,0,0,0-.162-.557,4.651,4.651,0,0,0-.665-.533l.338-.489,2.813,1.163-1,1.869.056.039a4.241,4.241,0,0,1,.986-.454,3.967,3.967,0,0,1,1-.183,3.432,3.432,0,0,1,.937.081,2.3,2.3,0,0,1,.809.354,1.291,1.291,0,0,1,.556.706.872.872,0,0,1-.143.758.81.81,0,0,1-.572.38,1.058,1.058,0,0,1-.731-.227,1.365,1.365,0,0,1-.339-.319,2.458,2.458,0,0,1-.19-.308c-.05-.1-.1-.188-.141-.274a.593.593,0,0,0-.192-.214,1.235,1.235,0,0,0-1.089-.041,4.249,4.249,0,0,0-1.432.817,7.674,7.674,0,0,0-.808.8,10.376,10.376,0,0,0-.8,1.026Z"/>
    </g>
    <g id="グループ_37" data-name="グループ 37">
      <path id="パス_182" data-name="パス 182" d="M125.805,400.417c0,1.742.012,3.536.012,4.512,0,.364-.285.533-1.053.533-.533,0-.611-.091-.611-.469,0-.26.078-1.664.117-3.5l.039-1.819a19.5,19.5,0,0,1-1.95,1.118c-.065.038-.156-.066-.091-.117a13.7,13.7,0,0,0,3.68-4.576H124.1a11.763,11.763,0,0,0-1.56.09l-.117-.442a14.405,14.405,0,0,0,1.677.091h.156V394.58a10.535,10.535,0,0,0-.065-1.3c1.989.208,2.107.312,2.107.481,0,.117-.066.234-.508.39v1.69h.118c.584-.74.663-.793.753-.793.118,0,.169.026.728.508.5.428.534.493.534.636s-.092.2-.52.351a8.8,8.8,0,0,1-1.56,1.925c.233.077.3.142.3.208,0,.091-.065.155-.337.285v.547l.351.039a13.568,13.568,0,0,0,.793-1.691c.051-.117.1-.286.155-.442,1.275.741,1.352.832,1.352.976s-.1.208-.481.233c-.571.442-.987.741-1.365,1.015.988.247,1.456.844,1.456,1.456a.763.763,0,0,1-.74.8c-.442,0-.611-.22-.7-.727a2.272,2.272,0,0,0-.818-1.495Zm6.487-5.395c.65-.675.7-.714.8-.714.131,0,.183.025.755.519.494.429.507.482.507.585s-.013.13-.377.429c-.039,4.512-.195,6.761-.468,7.762a2.216,2.216,0,0,1-1.977,1.793c-.312,0-.454-.1-.52-.364a1.776,1.776,0,0,0-1.313-1.287c-.077-.025-.077-.142,0-.142a6.909,6.909,0,0,0,1.5.012c.39-.052.663-.233.845-1.118.169-.793.351-2.3.351-7.215h-1.157c0,.13-.079.221-.338.325.012,3.329-.325,5.409-1.236,6.9a6.338,6.338,0,0,1-3.6,2.834c-.078.026-.143-.078-.078-.117a5.935,5.935,0,0,0,2.588-3.29c.52-1.365.767-3.159.689-6.656h-.352a12.9,12.9,0,0,0-1.364.091l-.131-.441a14.2,14.2,0,0,0,1.495.09Z"/>
      <path id="パス_183" data-name="パス 183" d="M140.858,404.239c-.065,0-.1-.025-.1-.064s.013-.052.091-.078a7.9,7.9,0,0,0,3-1.743,3.844,3.844,0,0,0,1.235-2.755,2.333,2.333,0,0,0-2.08-2.418,23.659,23.659,0,0,1-1.833,3.38,4.412,4.412,0,0,0,.39.3.953.953,0,0,1,.468.832.608.608,0,0,1-.65.6,1.616,1.616,0,0,1-1.118-.571,5.921,5.921,0,0,1-.637.624,2.5,2.5,0,0,1-1.547.741c-.611,0-1.183-.4-1.183-1.548a4.626,4.626,0,0,1,1.755-3.392,5.3,5.3,0,0,0-.741-2.224c-.039-.052-.039-.052-.039-.078s.026-.038.078-.038a1.541,1.541,0,0,1,.494.22,1.954,1.954,0,0,1,.65.573,3.221,3.221,0,0,1,.455.948,7.007,7.007,0,0,1,2.262-.728,6.415,6.415,0,0,0,.26-1.573c0-.286-.117-.377-.442-.416-.052-.013-.065-.039-.065-.064s0-.039.039-.066a1.536,1.536,0,0,1,.754-.259c.221,0,.4.078.793.428.43.39.455.612.455.741a.827.827,0,0,1-.065.312c-.117.286-.233.533-.377.858a3.722,3.722,0,0,1,3.459,3.485,3.219,3.219,0,0,1-1.99,2.9,10.606,10.606,0,0,1-3.744,1.079Zm-3-3c0,.429.1.624.429.624.221,0,.585-.1,1.313-.974a7.151,7.151,0,0,1-.793-2.029A3.647,3.647,0,0,0,137.855,401.236Zm3.757-3.952a4.844,4.844,0,0,0-1.9.793,6.907,6.907,0,0,0,.715,1.652A17.083,17.083,0,0,0,141.612,397.284Z"/>
      <path id="パス_184" data-name="パス 184" d="M151.544,398.233a.891.891,0,0,1-.6.26,1.939,1.939,0,0,1-1.1-.676c-.338-.35-.481-.506-.481-.832,0-.22.013-.286.065-.286a.211.211,0,0,1,.117.052,1.16,1.16,0,0,0,.689.247,4.184,4.184,0,0,0,.871-.155c1.794-.521,3.666-1.132,4.914-1.573a3.734,3.734,0,0,0,.872-.4.612.612,0,0,1,.416-.1,4.109,4.109,0,0,1,1.248.454c.325.17.506.339.506.7s-.3.481-.961.481a3.909,3.909,0,0,0-1.846.495,3.376,3.376,0,0,0-2.211,3.21,2.659,2.659,0,0,0,1.768,2.354,7.12,7.12,0,0,0,1.262.363c.689.157,1.144.521,1.144,1.054s-.338.754-.936.754a4.26,4.26,0,0,1-2.549-1.04,3.617,3.617,0,0,1-1.429-2.782,5.943,5.943,0,0,1,1.9-4.1C154.079,397.1,152.676,397.7,151.544,398.233Z"/>
      <path id="パス_185" data-name="パス 185" d="M164.453,402.875a.765.765,0,0,1-.637.363,1.04,1.04,0,0,1-.65-.4,1.427,1.427,0,0,1-.481-.819,1.113,1.113,0,0,1,.079-.338c.025-.052.051-.078.09-.078a.11.11,0,0,1,.078.026.845.845,0,0,0,.481.233,1.549,1.549,0,0,0,.663-.259c.729-.377,1.4-.754,1.989-1.053v-2.276c-.077.027-.156.052-.247.079a8.046,8.046,0,0,1-1.221.259.762.762,0,0,1-.456-.142,3.23,3.23,0,0,1-.961-1.054c-.04-.064-.04-.064-.04-.091s.026-.039.091-.012a1.629,1.629,0,0,0,.65.142,6.643,6.643,0,0,0,1.132-.182c.337-.09.7-.208,1.04-.325,0-.35,0-.715-.014-1.066s-.013-.61-.13-.74a.843.843,0,0,0-.52-.208c-.078-.014-.129-.039-.129-.066s.025-.065.077-.1a1.8,1.8,0,0,1,.871-.455,1.466,1.466,0,0,1,.781.3c.4.248.493.39.493.573a.632.632,0,0,1-.1.324c-.117.222-.131.364-.143,1.079a2.781,2.781,0,0,0,.52-.247c.7-.013,1.079.247,1.079.52,0,.4-.208.52-.624.676-.325.13-.651.247-1,.365-.012.714-.026,1.417-.026,2.131a1.27,1.27,0,0,1,.2-.09,6.036,6.036,0,0,1,2.587-.651c1.742,0,2.834.949,2.834,2.133a2.213,2.213,0,0,1-2.5,2.132,3.473,3.473,0,0,1-2.522-1.209c-.026-.027-.014-.066.013-.066a.078.078,0,0,1,.052.013,3.483,3.483,0,0,0,1.534.274c1.287,0,2.08-.664,2.08-1.613,0-.793-.585-1.182-1.534-1.182a5.1,5.1,0,0,0-2.328.949,3.844,3.844,0,0,0-.428.286c0,.272,0,.793.012,1.065s.014.429.014.612a3.842,3.842,0,0,1-.026.533c-.105.9-.494,1.3-.963,1.3-.247,0-.39-.091-.571-.624a2.519,2.519,0,0,0-1.067-1.106Zm.273-.234a3.593,3.593,0,0,0,.95.181c.194,0,.338-.064.35-.546,0-.22.013-.441.013-.663C165.584,401.938,165.156,402.289,164.726,402.641Zm5.89-4.72c-.052,0-.079-.025-.079-.065s0-.039.039-.065c.82-.532,1.119-.857,1.119-1.065,0-.365-.663-.989-1.482-.989h-.169c-.066,0-.1-.026-.1-.065s.026-.052.1-.091a2.515,2.515,0,0,1,1.079-.221c1.131,0,2.288.715,2.288,1.638,0,.572-.286.741-.689.741a2.979,2.979,0,0,1-.325-.026c-.131-.013-.273-.025-.39-.025a7.235,7.235,0,0,0-1.366.233Z"/>
      <path id="パス_186" data-name="パス 186" d="M184.877,395.737c.65-.8.7-.832.845-.832s.208.013.845.52c.6.481.637.547.637.689s-.013.169-.377.443v.987c0,2.38.065,3.562.065,3.875,0,.363-.429.507-1.2.507-.507,0-.585-.1-.585-.443v-.442H182.8c.026,2.366.065,3.6.065,3.861,0,.377-.351.546-1.183.546-.573,0-.689-.052-.689-.468,0-.272.065-1.585.09-3.939H178.9v.364c0,.507-.351.676-1.04.676-.481,0-.6-.077-.6-.48,0-.208.051-1.43.051-3.9,0-1.248,0-1.728-.051-2.5,1.338.286,1.741.4,1.859.533h1.976a24.642,24.642,0,0,0-.079-2.5c2.094.182,2.249.312,2.249.494,0,.143-.129.234-.48.429v1.573Zm-3.783.26h-1.963a.786.786,0,0,1-.235.195v2.029h2.2Zm-.014,4.784c.014-.688.014-1.456.014-2.3h-2.2v2.3Zm1.7-4.784v2.224h2.327V396Zm2.327,4.784v-2.3h-2.327c0,.859,0,1.625.013,2.3Z"/>
      <path id="パス_187" data-name="パス 187" d="M192.365,394.112a2.419,2.419,0,0,1,1,.429c.494.325.7.585.7.819a.716.716,0,0,1-.208.443.855.855,0,0,0-.157.48c-.233,2.821-.324,4.486-.324,5.7s.273,1.546,1.339,1.546a7.116,7.116,0,0,0,2.508-.416,10.42,10.42,0,0,0,2.445-1.182.119.119,0,0,1,.091-.027.06.06,0,0,1,.065.052c0,.027,0,.027-.026.066a7.372,7.372,0,0,1-2.444,1.989,6.048,6.048,0,0,1-2.7.741c-1.9,0-2.639-.586-2.639-3.029,0-1.613.129-4.082.182-5.9.012-.351.012-.442.012-.494,0-.3-.039-.416-.182-.533a1.55,1.55,0,0,0-.572-.26.07.07,0,0,1-.065-.078.088.088,0,0,1,.052-.078A2.161,2.161,0,0,1,192.365,394.112Z"/>
      <path id="パス_188" data-name="パス 188" d="M209.421,394.308c.689-.781.74-.832.884-.832s.3.09.715.416.494.428.494.558-.105.221-1.183.521a6.568,6.568,0,0,0,1.183,3.691,9.084,9.084,0,0,0,3.172,2.809c.065.039.065.13-.013.142a3,3,0,0,0-1.612,1.054c-.117.143-.234.26-.351.26a.553.553,0,0,1-.325-.183,7.219,7.219,0,0,1-1.755-2.873,11.922,11.922,0,0,1-.351-1.351,9.4,9.4,0,0,1-3.927,4.5,1.711,1.711,0,0,0,.573.325,9.359,9.359,0,0,0,2.561.194,48.032,48.032,0,0,0,5.408-.324c.078-.014.1.091.039.142a1.816,1.816,0,0,0-.767,1.2c-.039.3-.13.441-.4.455-.338.039-.923.064-2.86.064-2.965,0-3.6-.169-4.264-.715a2.814,2.814,0,0,1-.937-1.507,17.258,17.258,0,0,1-1.819,1.82c-.143.351-.235.455-.378.455s-.351-.208-1.078-1.781a6.6,6.6,0,0,0,.779-.235,10.063,10.063,0,0,0,1.131-.494v-3.666h-.559a5.947,5.947,0,0,0-1.157.091l-.117-.441a7.789,7.789,0,0,0,1.274.09h.4c.65-.767.715-.844.845-.844s.221.025.663.416c.585.507.637.571.637.74,0,.1-.064.183-.416.455v3.1a3.922,3.922,0,0,0,.273.325,11.2,11.2,0,0,0,2.73-5.968,7.938,7.938,0,0,0,.131-1.118c.324.117.676.222.962.338-.026-.494-.053-1.026-.053-1.572l-1.26.038a7.44,7.44,0,0,0-1.379.131l-.155-.443a12.03,12.03,0,0,0,1.521.052Zm-5.928-.716c1.638.182,2.4.949,2.4,1.781a.893.893,0,0,1-.988.976c-.52,0-.728-.338-.767-.976a2.193,2.193,0,0,0-.753-1.65C203.324,393.67,203.414,393.579,203.493,393.592Z"/>
      <path id="パス_189" data-name="パス 189" d="M225.151,398.806a.575.575,0,0,0-.455-.6c-.039-.013-.065-.039-.065-.064s.013-.052.078-.079a2.471,2.471,0,0,1,.611-.143c.194,0,.416.1.884.494.338.325.416.455.416.689a5.393,5.393,0,0,1-.377,1.275,8.68,8.68,0,0,1,1.131.649,1.136,1.136,0,0,1,.585.884.612.612,0,0,1-.676.663c-.273,0-.455-.052-.884-.4-.234-.2-.455-.364-.715-.546a6.336,6.336,0,0,1-2.587,2.587,9.355,9.355,0,0,1-2.548.832c-.039,0-.065,0-.065-.026s.012-.04.038-.052a8.113,8.113,0,0,0,2.471-1.716,7.039,7.039,0,0,0,1.508-2.263,9.6,9.6,0,0,0-2.912-.832,10.813,10.813,0,0,1-1.833,2.457,2.219,2.219,0,0,1-1.391.6c-.456,0-.885-.377-.885-1.223a2.327,2.327,0,0,1,.989-2.014,5.275,5.275,0,0,1,2.274-.742c.585-1.221,1.105-2.43,1.443-3.25a.431.431,0,0,0,.039-.169.1.1,0,0,0-.116-.117,6.887,6.887,0,0,0-1.274.507,1.23,1.23,0,0,1-.559.2c-.235,0-.39-.143-.689-.624a1.474,1.474,0,0,1-.286-.689.647.647,0,0,1,.051-.247c.039-.091.053-.1.078-.1s.04,0,.1.065a1.184,1.184,0,0,0,.715.325,2.792,2.792,0,0,0,.624-.064,4.687,4.687,0,0,0,1.4-.469c.247-.234.338-.351.467-.351.2,0,.365.078.832.443s.534.506.534.675a.52.52,0,0,1-.169.4,3.022,3.022,0,0,0-.3.4c-.727,1.3-1.209,2.21-1.637,3.1a12.338,12.338,0,0,1,2.925.6A3.793,3.793,0,0,0,225.151,398.806Zm-6.215,3.172a8.528,8.528,0,0,0,1.391-1.912,4.071,4.071,0,0,0-1.807.338c-.273.183-.4.429-.4.962s.233.78.4.78A.541.541,0,0,0,218.936,401.978Z"/>
      <path id="パス_190" data-name="パス 190" d="M235.472,403.979a.066.066,0,0,1,.053-.064,7.975,7.975,0,0,0,3.419-2.028,4.276,4.276,0,0,0,1.118-2.809,3.226,3.226,0,0,0-.767-2.3,3.092,3.092,0,0,0-2.445-1.013,5.532,5.532,0,0,0-.636.025,2.294,2.294,0,0,1,.689,1.625,7.925,7.925,0,0,1-2.795,4.967,1.513,1.513,0,0,1-.885.338c-.441,0-.9-.443-1.183-.949a3.783,3.783,0,0,1-.467-1.755,4.494,4.494,0,0,1,2.066-3.666,6.2,6.2,0,0,1,3.354-1,4.961,4.961,0,0,1,3.446,1.325,4.007,4.007,0,0,1,1.3,2.887,3.793,3.793,0,0,1-1.625,3.015,9.246,9.246,0,0,1-4.577,1.47C235.486,404.045,235.472,404.019,235.472,403.979Zm-2.963-4.432a2.257,2.257,0,0,0,.234,1.092.7.7,0,0,0,.571.4c.182,0,.39-.064.7-.416a7.366,7.366,0,0,0,2.029-4.1,1.545,1.545,0,0,0-.13-.676C234.5,396.063,232.509,397.675,232.509,399.547Z"/>
      <path id="パス_191" data-name="パス 191" d="M253.478,395.607c.975-1.169,1.027-1.222,1.17-1.222s.208.013,1.014.741c.468.416.507.494.507.6a.147.147,0,0,1-.156.142h-5.486c-.013.13-.091.274-.364.39-.039.638-.1,1.248-.195,1.82h2.392c.7-.845.78-.91.923-.91s.221.014.988.689c.429.377.468.456.468.6s-.026.208-.455.56c-.169,3.081-.4,3.847-.7,4.562a2.349,2.349,0,0,1-2.34,1.5c-.442,0-.533-.051-.6-.338-.17-.754-.624-1.065-1.495-1.312-.078-.026-.078-.169,0-.169a12.3,12.3,0,0,0,2.106-.026c.351-.039.559-.221.728-.663a14.88,14.88,0,0,0,.572-4.226h-2.626c-.676,3.628-2.64,5.851-5.955,6.773-.078.027-.117-.09-.051-.13,2.249-1.1,4.251-3.861,4.433-8.1a9.015,9.015,0,0,0,0-1.014h-2.093c-.468,0-1.066.027-1.782.091l-.116-.441a14.836,14.836,0,0,0,1.9.09h2.912v-1.43a7.144,7.144,0,0,0-.078-.988c2.2.156,2.353.26,2.353.495,0,.129-.065.233-.533.416v1.507Z"/>
      <path id="パス_192" data-name="パス 192" d="M261.3,394.125c.48-.649.532-.663.649-.663s.2.014.832.572c.468.4.507.494.507.624s-.039.169-.532.416c-.677.871-1.158,1.495-1.574,1.989a.176.176,0,0,0,.065.3,3.118,3.118,0,0,1,1.794,2.614,2.185,2.185,0,0,1-.572,1.625,1.9,1.9,0,0,1-1.157.585c-.143,0-.247-.118-.3-.351a1.047,1.047,0,0,0-.585-.846c.013,2.873.026,3.575.026,3.927s-.39.532-1.014.532c-.494,0-.585-.1-.585-.428,0-.365.091-1.339.091-6.15,0-3.7.013-4.432-.091-5.355,1.3.3,1.717.467,1.833.61Zm-.872,6.67a1.078,1.078,0,0,0,1.209-1.223,3.223,3.223,0,0,0-.741-2.053.481.481,0,0,1-.1-.5c.208-.793.4-1.56.637-2.639h-.767a1.006,1.006,0,0,1-.234.182Zm5.941-2.042a6.031,6.031,0,0,0,1.132,2.613c.338-.507.663-1.026.975-1.586a5.3,5.3,0,0,0,.312-.663c1.612,1.054,1.7,1.145,1.7,1.314s-.13.259-.69.233c-.779.4-1.352.7-2.041,1.04.092.092.169.169.248.261a9.179,9.179,0,0,0,2.86,1.95c.078.025.065.116-.013.13a2.181,2.181,0,0,0-1.262.935c-.181.248-.233.3-.35.3-.156,0-.221-.025-.468-.194a5.893,5.893,0,0,1-1.69-1.977c-1.4.754-2.769,1.4-3.927,1.9-.065.233-.194.429-.337.429-.208,0-.3-.143-.936-2.029.286-.012.584-.025.857-.052.234-.026.52-.051.819-.09V396.5a24.834,24.834,0,0,0-.091-2.847,5.353,5.353,0,0,1,1.912.482h2.288c.585-.638.636-.677.779-.677s.2.026.872.559c.441.351.48.429.48.546s-.025.157-.389.442v.858c0,.976.091,2.418.091,2.692,0,.364-.377.533-1.1.533-.4,0-.573-.066-.6-.339Zm-.936-4.355a.818.818,0,0,1-.3.221v1.625h2.652V394.4Zm-.3,2.106v1.989h2.652V396.5Zm0,6.579c.61-.092,1.234-.17,1.793-.261a11.624,11.624,0,0,1-.818-4.069h-.975Z"/>
      <path id="パス_193" data-name="パス 193" d="M279.308,403.238a10.655,10.655,0,0,0,1.691.117,24.144,24.144,0,0,0,3.523-.208c.078-.012.091.105.026.144a1.923,1.923,0,0,0-.95,1.481.38.38,0,0,1-.363.338,16.661,16.661,0,0,1-1.976.039c-2.2,0-3.2-.467-4.017-1.234a4.633,4.633,0,0,1-1.3-2.574,7.007,7.007,0,0,1-3.458,4.043c-.065.025-.143-.052-.078-.105,1.067-.871,1.963-2.846,2.146-5.668.025-.311.025-.533.025-.8,1.833.416,2.12.507,2.12.715,0,.117-.092.208-.416.325a6.137,6.137,0,0,1-.222,1.1,3.541,3.541,0,0,0,1.027,1.431,2.456,2.456,0,0,0,.559.377v-3.511c0-.48,0-.871-.039-1.326h-1.637c-.3,0-.859.026-1.47.092l-.13-.443c.637.066,1.223.091,1.6.091h4.276c.807-1.026.832-1.053.936-1.053s.157.013.742.585c.4.39.481.482.481.585s-.091.143-.2.143H279.6c-.026.078-.091.143-.287.247v2.366h.962c.82-1.092.859-1.131.989-1.131s.169.013.883.69c.351.324.469.455.469.571a.117.117,0,0,1-.13.131h-3.173Zm-4.654-7.643a2.672,2.672,0,0,1,.13.8,1.235,1.235,0,0,1-1.248,1.288.786.786,0,0,1-.845-.82,1.05,1.05,0,0,1,.546-.91,1.322,1.322,0,0,0,.651-1.391c0-.078.09-.09.142-.026a3.514,3.514,0,0,1,.521.793h3v-1.026a7.18,7.18,0,0,0-.079-1.079c2.08.129,2.328.272,2.328.467,0,.157-.065.221-.534.429v1.209h2.64c.688-.741.754-.779.9-.779.157,0,.313.077.937.662.507.481.663.689.663.9,0,.235-.143.365-.611.377a2.809,2.809,0,0,0-.949.13c-.287.105-.507.183-.976.377-.077.026-.116.014-.09-.064.208-.6.3-.911.429-1.339Z"/>
    </g>
    <g id="グループ_38" data-name="グループ 38">
      <path id="パス_194" data-name="パス 194" d="M162.423,463.874c4.843,0,5.736-.828,7.775-6.564a.583.583,0,0,1,.636-.445c.51,0,.765.191.765.637-.637,3.313-2.612,10.578-3.759,14.018-4.652-.127-8.794-.127-13.636-.127-5.035,0-9.495,0-13.956.127-.509,0-.764-.063-.764-1.147a2.969,2.969,0,0,1,.383-1.783c2.93-5.99,5.479-9.942,11.66-16.822,7.264-8.157,8.73-11.28,8.73-16.632,0-6.564-3.122-9.622-7.391-9.622-2.932,0-5.927,2.039-5.927,4.334,0,.636.128.828,1.02,1.4a4.437,4.437,0,0,1-2.421,8.284,4.684,4.684,0,0,1-4.971-4.844c0-5.416,6.882-10.895,14.784-10.895,8.793,0,14.337,4.778,14.337,11.215s-2.1,10.132-13.828,18.223c-8.283,5.736-10.131,7.775-11.852,10.642Z"/>
      <path id="パス_195" data-name="パス 195" d="M208.426,447.88c0,15.8-7.2,24.788-16.248,24.788-8.985,0-15.994-8.412-15.994-24.215s7.2-24.659,16.185-24.659S208.426,432.077,208.426,447.88Zm-22.748.319c0,18.861,1.848,23.13,6.564,23.13s6.69-4.269,6.69-23.13-1.976-23.067-6.627-23.067S185.678,429.338,185.678,448.2Z"/>
      <path id="パス_196" data-name="パス 196" d="M236.906,437.748c0,8.476-5.288,14.338-11.852,14.338-6.5,0-11.788-5.481-11.788-13.955,0-8.411,5.416-14.337,11.916-14.337S236.906,429.4,236.906,437.748Zm-16.44.191c0,9.3,1.147,13.063,4.652,13.063s4.588-3.759,4.588-13.063c0-9.239-1.147-13.062-4.588-13.062C221.613,424.877,220.466,428.7,220.466,437.939Zm2.231,36.194,32.242-52.57,1.721,1.083-32.243,52.571Zm43.521-15.8c0,8.475-5.289,14.338-11.852,14.338-6.5,0-11.788-5.481-11.788-13.955,0-8.411,5.416-14.338,11.915-14.338S266.218,449.982,266.218,458.33Zm-16.44.191c0,9.3,1.147,13.063,4.651,13.063s4.588-3.76,4.588-13.063c0-9.239-1.146-13.062-4.588-13.062C250.925,445.459,249.778,449.282,249.778,458.521Z"/>
      <path id="パス_197" data-name="パス 197" d="M191.361,503.06c0,9.942-7.221,16.866-15.675,16.866s-15.59-6.542-15.59-16.483,7.264-16.822,15.675-16.822S191.361,493.121,191.361,503.06Zm-24.086.213c0,10.451,3.271,15.676,8.453,15.676s8.454-5.225,8.454-15.676-3.313-15.675-8.454-15.675S167.275,492.823,167.275,503.273Z"/>
      <path id="パス_198" data-name="パス 198" d="M204.272,514.488c0,3.016.213,3.7,4.291,3.908.382,0,.425.085.425.425,0,.3-.043.34-.425.34-2.039-.085-4.97-.128-7.307-.128-2.294,0-5.1.043-6.924.128-.382,0-.425-.042-.425-.34,0-.34.043-.382.425-.425,3.483-.212,3.993-.892,3.993-3.908V492.016c0-3.016-.467-3.653-4.29-3.909-.383-.042-.425-.084-.425-.381,0-.34.042-.382.425-.382,3.483.084,7.774.127,11.6.127,3.95,0,8.283-.043,11.979-.127.255,2.209.765,6.159,1.062,8.368,0,.34-.212.468-.594.468-.17,0-.255-.128-.34-.34a11.963,11.963,0,0,0-3.569-5.141c-1.529-1.316-3.483-2.082-6.669-2.082-3.016,0-3.229.426-3.229,3.357v9.983c.638.042,1.1.042,1.742.042,2.719,0,4.333-.552,5.183-1.189a4.866,4.866,0,0,0,1.954-3.229c.085-.425.127-.468.51-.468s.424.043.424.468c-.042,1.487-.042,3.483-.042,5.013,0,1.572,0,3.7.042,5.267,0,.383-.042.425-.424.425s-.425-.042-.51-.425a6.013,6.013,0,0,0-2-3.611c-.807-.637-2.464-1.1-5.14-1.1-.637,0-1.1,0-1.742.042Z"/>
      <path id="パス_199" data-name="パス 199" d="M231.33,514.488c0,3.016.212,3.7,4.291,3.908.382,0,.424.085.424.425,0,.3-.042.34-.424.34-2.04-.085-4.971-.128-7.307-.128-2.294,0-5.1.043-6.924.128-.383,0-.425-.042-.425-.34,0-.34.042-.382.425-.425,3.483-.212,3.993-.892,3.993-3.908V492.016c0-3.016-.468-3.653-4.291-3.909-.382-.042-.425-.084-.425-.381,0-.34.043-.382.425-.382,3.484.084,7.774.127,11.6.127,3.951,0,8.284-.043,11.98-.127.255,2.209.765,6.159,1.062,8.368,0,.34-.213.468-.6.468-.17,0-.255-.128-.34-.34a11.961,11.961,0,0,0-3.568-5.141c-1.529-1.316-3.483-2.082-6.669-2.082-3.017,0-3.229.426-3.229,3.357v9.983c.637.042,1.1.042,1.742.042,2.718,0,4.333-.552,5.182-1.189a4.859,4.859,0,0,0,1.954-3.229c.085-.425.128-.468.51-.468s.425.043.425.468c-.042,1.487-.042,3.483-.042,5.013,0,1.572,0,3.7.042,5.267,0,.383-.042.425-.425.425s-.425-.042-.51-.425a6.008,6.008,0,0,0-2-3.611c-.807-.637-2.464-1.1-5.14-1.1-.637,0-1.105,0-1.742.042Z"/>
    </g>
  </g>
</svg>
