<svg xmlns="http://www.w3.org/2000/svg" width="364" height="80" viewBox="0 0 364 80">
  <g id="グループ_48" data-name="グループ 48" transform="translate(-295.523 -465.259)">
    <rect id="長方形_3" data-name="長方形 3" width="364" height="80" rx="38.944" transform="translate(295.523 465.259)" fill="#fff" opacity="0.6"/>
    <path id="パス_234" data-name="パス 234" d="M534.45,472.759h86.292c16.968,0,30.724,14.512,30.724,32.412v.177c0,17.9-13.756,32.411-30.724,32.411H334.3c-16.968,0-30.724-14.511-30.724-32.411v-.177c0-17.9,13.756-32.412,30.724-32.412H420.6" fill="none" stroke="#1a1311" stroke-miterlimit="10" stroke-width="0.929"/>
    <g id="グループ_44" data-name="グループ 44">
      <path id="パス_235" data-name="パス 235" d="M425.585,476.531h.536a3.6,3.6,0,0,0,.385,1.174,3.022,3.022,0,0,0,.71.885,3.094,3.094,0,0,0,.986.558,3.648,3.648,0,0,0,1.211.2,2.615,2.615,0,0,0,1.7-.507,1.685,1.685,0,0,0,.623-1.378,1.767,1.767,0,0,0-.123-.667,1.74,1.74,0,0,0-.413-.587,3.838,3.838,0,0,0-.776-.559,13.252,13.252,0,0,0-1.225-.594,13.618,13.618,0,0,1-1.509-.754,4.329,4.329,0,0,1-.971-.754,2.361,2.361,0,0,1-.515-.834,3.1,3.1,0,0,1-.152-1.008,3.139,3.139,0,0,1,.239-1.232,2.91,2.91,0,0,1,.674-.979,3.049,3.049,0,0,1,1.03-.638,3.656,3.656,0,0,1,1.3-.224,3.421,3.421,0,0,1,1.189.2,4.1,4.1,0,0,1,1.116.653l.377-.653h.334l.16,2.886h-.537a3.667,3.667,0,0,0-1.008-1.769,2.321,2.321,0,0,0-1.587-.58,2.129,2.129,0,0,0-1.407.435,1.448,1.448,0,0,0-.522,1.174,1.649,1.649,0,0,0,.116.631,1.58,1.58,0,0,0,.377.536,3.742,3.742,0,0,0,.681.508,9.544,9.544,0,0,0,1.045.53,18.983,18.983,0,0,1,1.783.891,5.736,5.736,0,0,1,1.131.826,2.485,2.485,0,0,1,.6.87,2.859,2.859,0,0,1,.173,1.023,3.032,3.032,0,0,1-1.1,2.378,3.766,3.766,0,0,1-1.246.674,5.054,5.054,0,0,1-1.6.239,4.458,4.458,0,0,1-1.487-.232,4.563,4.563,0,0,1-1.341-.783l-.406.711H425.8Z" fill="#1a1311"/>
      <path id="パス_236" data-name="パス 236" d="M437.722,473.3h.058a3.97,3.97,0,0,1,1-.87,2.393,2.393,0,0,1,1.247-.32,3.8,3.8,0,0,1,1.515.3,3.6,3.6,0,0,1,1.2.834,3.862,3.862,0,0,1,.79,1.269,4.42,4.42,0,0,1,.282,1.6,4.36,4.36,0,0,1-.289,1.617,3.76,3.76,0,0,1-.8,1.254,3.569,3.569,0,0,1-1.2.813,3.907,3.907,0,0,1-1.508.289,3.118,3.118,0,0,1-1.211-.225,2.963,2.963,0,0,1-1.022-.731v2.116a5.873,5.873,0,0,0,.058.929,1.018,1.018,0,0,0,.232.536.932.932,0,0,0,.5.261,4.77,4.77,0,0,0,.863.087v.507h-4.466v-.507a3.227,3.227,0,0,0,.7-.087.784.784,0,0,0,.42-.261,1.118,1.118,0,0,0,.211-.515,5.084,5.084,0,0,0,.058-.848v-5.423q0-.842-.022-1.377a3.674,3.674,0,0,0-.08-.74.619.619,0,0,0-.333-.471,2.638,2.638,0,0,0-.986-.123v-.493l2.784-.552Zm.435.42a2.144,2.144,0,0,0-.283.688,4.653,4.653,0,0,0-.094,1.037v1.131c0,.262.007.486.021.675a3.759,3.759,0,0,0,.066.485,1.737,1.737,0,0,0,.116.363,1.429,1.429,0,0,0,.188.3,2.376,2.376,0,0,0,.8.718,2,2,0,0,0,.971.254,1.913,1.913,0,0,0,1.617-.841,3.936,3.936,0,0,0,.616-2.363,5.213,5.213,0,0,0-.167-1.371,3.453,3.453,0,0,0-.471-1.059,2.267,2.267,0,0,0-.732-.688,1.874,1.874,0,0,0-.95-.246,1.985,1.985,0,0,0-.964.239A2.025,2.025,0,0,0,438.157,473.718Z" fill="#1a1311"/>
      <path id="パス_237" data-name="パス 237" d="M452.671,478.59a3.815,3.815,0,0,1-3.06,1.493,4.1,4.1,0,0,1-1.551-.282,3.454,3.454,0,0,1-1.2-.8,3.569,3.569,0,0,1-.776-1.233,4.384,4.384,0,0,1-.276-1.587,4.531,4.531,0,0,1,.29-1.638,3.708,3.708,0,0,1,.82-1.291,3.784,3.784,0,0,1,1.261-.841,4.132,4.132,0,0,1,1.6-.3,2.668,2.668,0,0,1,2.943,2.944c0,.135-.027.217-.08.247a.976.976,0,0,1-.369.043h-4.771a1.947,1.947,0,0,0-.044.283c-.01.111-.014.234-.014.369a4.834,4.834,0,0,0,.181,1.37,3.114,3.114,0,0,0,.522,1.052,2.4,2.4,0,0,0,.812.674,2.283,2.283,0,0,0,1.051.239,2.433,2.433,0,0,0,1.131-.268,3.911,3.911,0,0,0,1.074-.877Zm-2.393-3.915c.194,0,.348,0,.465-.015a.71.71,0,0,0,.26-.058.226.226,0,0,0,.117-.123.64.64,0,0,0,.028-.211,1.387,1.387,0,0,0-.427-1.065,1.646,1.646,0,0,0-1.167-.4q-1.566,0-1.944,1.87Z" fill="#1a1311"/>
      <path id="パス_238" data-name="パス 238" d="M461.328,478.735a3.5,3.5,0,0,1-1.349.993,4.466,4.466,0,0,1-1.783.355,3.49,3.49,0,0,1-1.414-.282,3.194,3.194,0,0,1-1.109-.8,3.59,3.59,0,0,1-.718-1.239,4.856,4.856,0,0,1-.254-1.61,4.6,4.6,0,0,1,.29-1.675,3.646,3.646,0,0,1,.819-1.276,3.564,3.564,0,0,1,1.276-.811,4.606,4.606,0,0,1,1.646-.284,5.181,5.181,0,0,1,1.03.1,3.314,3.314,0,0,1,.8.261,1.5,1.5,0,0,1,.53.406.818.818,0,0,1,.188.515.559.559,0,0,1-.188.449.787.787,0,0,1-.522.159.811.811,0,0,1-.435-.108,1.971,1.971,0,0,1-.45-.486,1.978,1.978,0,0,0-.558-.471,1.5,1.5,0,0,0-.689-.138,1.752,1.752,0,0,0-1.559.8,4.262,4.262,0,0,0-.529,2.348,4.507,4.507,0,0,0,.587,2.531,1.949,1.949,0,0,0,1.719.862,2.771,2.771,0,0,0,1.145-.239,3.819,3.819,0,0,0,1.087-.776Z" fill="#1a1311"/>
      <path id="パス_239" data-name="パス 239" d="M465.648,477.633a6.389,6.389,0,0,0,.051.906,1.186,1.186,0,0,0,.2.537.728.728,0,0,0,.406.268,3.039,3.039,0,0,0,.7.087v.507h-4.161v-.507a2.96,2.96,0,0,0,.711-.094.859.859,0,0,0,.428-.261,1.036,1.036,0,0,0,.2-.508,5.724,5.724,0,0,0,.05-.834v-1.855q0-.842-.022-1.385a3.753,3.753,0,0,0-.079-.747.613.613,0,0,0-.334-.457,2.638,2.638,0,0,0-.986-.123v-.508l2.842-.551Zm-1.667-8.468a.891.891,0,1,1,.261.638A.868.868,0,0,1,463.981,469.165Z" fill="#1a1311"/>
      <path id="パス_240" data-name="パス 240" d="M472.927,475.023v-.594q0-1.77-1.508-1.77a1.767,1.767,0,0,0-.421.044.69.69,0,0,0-.29.145.957.957,0,0,0-.21.29,3.278,3.278,0,0,0-.181.463,1.492,1.492,0,0,1-.312.559.737.737,0,0,1-1.167-.587,1.183,1.183,0,0,1,.74-1.08,4.632,4.632,0,0,1,2.1-.385,3.212,3.212,0,0,1,2.059.515,2.181,2.181,0,0,1,.609,1.747v3.248q0,1.654.652,1.653a1.494,1.494,0,0,0,.392-.05.548.548,0,0,0,.319-.269l.2.349a1.339,1.339,0,0,1-.638.557,2.184,2.184,0,0,1-.971.225,1.122,1.122,0,0,1-.95-.4,1.847,1.847,0,0,1-.312-1.146h-.072a2.89,2.89,0,0,1-1.044,1.123,2.742,2.742,0,0,1-1.479.414,2.083,2.083,0,0,1-1.436-.465,1.581,1.581,0,0,1-.522-1.246,1.835,1.835,0,0,1,.123-.667,1.866,1.866,0,0,1,.4-.609,3.749,3.749,0,0,1,.725-.573,8.853,8.853,0,0,1,1.1-.573Zm0,.623a13.244,13.244,0,0,0-1.4.623,4.939,4.939,0,0,0-.921.61,2.051,2.051,0,0,0-.5.609,1.374,1.374,0,0,0-.153.623,1.033,1.033,0,0,0,.32.783,1.161,1.161,0,0,0,.841.3,1.39,1.39,0,0,0,.7-.188,1.936,1.936,0,0,0,.573-.515,2.637,2.637,0,0,0,.391-.769,2.967,2.967,0,0,0,.145-.935Z" fill="#1a1311"/>
      <path id="パス_241" data-name="パス 241" d="M479.51,477.677a6.9,6.9,0,0,0,.044.883,1.1,1.1,0,0,0,.181.523.7.7,0,0,0,.391.261,2.882,2.882,0,0,0,.674.087v.507h-4v-.507a2.77,2.77,0,0,0,.7-.094.878.878,0,0,0,.413-.254.958.958,0,0,0,.2-.485,5.417,5.417,0,0,0,.051-.82v-6.25q0-.782-.022-1.312a4.913,4.913,0,0,0-.065-.718.591.591,0,0,0-.341-.449,2.746,2.746,0,0,0-.965-.116v-.493l2.741-.537Z" fill="#1a1311"/>
      <path id="パス_242" data-name="パス 242" d="M493.371,468.629a6.225,6.225,0,0,1,2.378.449,5.974,5.974,0,0,1,1.914,1.232,5.7,5.7,0,0,1,1.276,1.842,5.629,5.629,0,0,1,.465,2.291,5.249,5.249,0,0,1-.471,2.2,5.66,5.66,0,0,1-1.284,1.79,6.064,6.064,0,0,1-1.914,1.2,6.554,6.554,0,0,1-4.727,0,6.064,6.064,0,0,1-1.914-1.2,5.642,5.642,0,0,1-1.283-1.79,5.218,5.218,0,0,1-.471-2.2,5.629,5.629,0,0,1,.464-2.291,5.717,5.717,0,0,1,1.275-1.842,5.99,5.99,0,0,1,1.915-1.232A6.224,6.224,0,0,1,493.371,468.629Zm0,10.657a4.231,4.231,0,0,0,1.719-.334,3.649,3.649,0,0,0,1.3-.957,4.283,4.283,0,0,0,.833-1.515,6.4,6.4,0,0,0,.29-1.994,7.029,7.029,0,0,0-.29-2.094,4.686,4.686,0,0,0-.826-1.6,3.623,3.623,0,0,0-1.305-1.015,4.371,4.371,0,0,0-3.451,0,3.624,3.624,0,0,0-1.3,1.015,4.686,4.686,0,0,0-.826,1.6,7.028,7.028,0,0,0-.291,2.094,6.4,6.4,0,0,0,.291,1.994,4.334,4.334,0,0,0,.826,1.515,3.573,3.573,0,0,0,1.3.957A4.281,4.281,0,0,0,493.371,479.286Z" fill="#1a1311"/>
      <path id="パス_243" data-name="パス 243" d="M501.129,472.485h1.638v-1.044a3.654,3.654,0,0,1,.878-2.6,3.259,3.259,0,0,1,2.5-.936,3.347,3.347,0,0,1,1.464.276c.378.183.566.421.566.711a.685.685,0,0,1-.181.485.6.6,0,0,1-.457.2.763.763,0,0,1-.37-.109,3.725,3.725,0,0,1-.515-.369,2.973,2.973,0,0,0-.565-.4,1.141,1.141,0,0,0-.479-.093,1.284,1.284,0,0,0-1.246.884,2.432,2.432,0,0,0-.182.71,10.2,10.2,0,0,0-.051,1.16v1.131h2.335v.682H504.13V477.6a4.872,4.872,0,0,0,.066.885,1.246,1.246,0,0,0,.232.559.855.855,0,0,0,.457.29,3.282,3.282,0,0,0,.754.094v.507H501.52v-.507a3.053,3.053,0,0,0,.653-.08.645.645,0,0,0,.377-.247,1.114,1.114,0,0,0,.174-.506,6.99,6.99,0,0,0,.043-.878v-4.553h-1.638Z" fill="#1a1311"/>
      <path id="パス_244" data-name="パス 244" d="M507.682,472.485h1.639v-1.044a3.653,3.653,0,0,1,.877-2.6,3.262,3.262,0,0,1,2.5-.936,3.345,3.345,0,0,1,1.464.276c.378.183.566.421.566.711a.685.685,0,0,1-.181.485.6.6,0,0,1-.457.2.756.756,0,0,1-.369-.109,3.726,3.726,0,0,1-.516-.369,2.97,2.97,0,0,0-.565-.4,1.14,1.14,0,0,0-.479-.093,1.284,1.284,0,0,0-1.246.884,2.465,2.465,0,0,0-.182.71,10.436,10.436,0,0,0-.051,1.16v1.131h2.335v.682h-2.335V477.6a4.872,4.872,0,0,0,.066.885,1.257,1.257,0,0,0,.232.559.855.855,0,0,0,.457.29,3.282,3.282,0,0,0,.754.094v.507h-4.118v-.507a3.051,3.051,0,0,0,.652-.08.642.642,0,0,0,.377-.247,1.114,1.114,0,0,0,.174-.506,6.958,6.958,0,0,0,.044-.878v-4.553h-1.639Z" fill="#1a1311"/>
      <path id="パス_245" data-name="パス 245" d="M521.486,478.59a3.815,3.815,0,0,1-3.06,1.493,4.1,4.1,0,0,1-1.551-.282,3.455,3.455,0,0,1-1.2-.8,3.569,3.569,0,0,1-.776-1.233,4.384,4.384,0,0,1-.276-1.587,4.531,4.531,0,0,1,.29-1.638,3.708,3.708,0,0,1,.82-1.291,3.784,3.784,0,0,1,1.261-.841,4.131,4.131,0,0,1,1.6-.3,2.668,2.668,0,0,1,2.944,2.944c0,.135-.027.217-.08.247a.98.98,0,0,1-.369.043h-4.771a1.944,1.944,0,0,0-.044.283c-.01.111-.014.234-.014.369a4.833,4.833,0,0,0,.181,1.37,3.114,3.114,0,0,0,.522,1.052,2.4,2.4,0,0,0,.812.674,2.282,2.282,0,0,0,1.051.239,2.433,2.433,0,0,0,1.131-.268,3.911,3.911,0,0,0,1.074-.877Zm-2.393-3.915c.194,0,.348,0,.465-.015a.71.71,0,0,0,.26-.058.221.221,0,0,0,.116-.123.613.613,0,0,0,.029-.211,1.387,1.387,0,0,0-.427-1.065,1.646,1.646,0,0,0-1.167-.4q-1.566,0-1.944,1.87Z" fill="#1a1311"/>
      <path id="パス_246" data-name="パス 246" d="M526.025,477.633c0,.4.009.711.029.942a1.09,1.09,0,0,0,.152.529.575.575,0,0,0,.355.24,3.9,3.9,0,0,0,.653.087v.507h-3.858v-.507a3.114,3.114,0,0,0,.667-.08.672.672,0,0,0,.378-.239,1.016,1.016,0,0,0,.166-.5,8.393,8.393,0,0,0,.036-.877v-1.7q0-.985-.021-1.537a2.231,2.231,0,0,0-.145-.812.524.524,0,0,0-.384-.312,4.081,4.081,0,0,0-.725-.051v-.507l2.537-.552.2,1.8h.058a3.617,3.617,0,0,1,.472-.8,3.357,3.357,0,0,1,.616-.616,2.972,2.972,0,0,1,.7-.4,1.963,1.963,0,0,1,.739-.146,1.108,1.108,0,0,1,.732.225.746.746,0,0,1,.269.6.691.691,0,0,1-.218.544.9.9,0,0,1-.624.2,1.141,1.141,0,0,1-.391-.059,2.054,2.054,0,0,1-.283-.123l-.232-.123a.5.5,0,0,0-.239-.059,1.057,1.057,0,0,0-.783.5,3.641,3.641,0,0,0-.609,1.269,6.62,6.62,0,0,0-.181.949,9,9,0,0,0-.065,1.11Z" fill="#1a1311"/>
    </g>
    <g id="グループ_45" data-name="グループ 45" transform="translate(0 1)">
      <path id="パス_247" data-name="パス 247" d="M368.634,490.5a.856.856,0,0,1,.418-.11,2.241,2.241,0,0,1,.991.319.456.456,0,0,1,.22.374.32.32,0,0,1-.341.33,3.278,3.278,0,0,1-.561-.077,6.921,6.921,0,0,0-1.123-.1h-.66a6.508,6.508,0,0,1-.737,3.147,4.918,4.918,0,0,1-3.179,2.135,2.2,2.2,0,0,1-.342.054c-.1,0-.142-.021-.142-.088a.087.087,0,0,1,.066-.088,5.251,5.251,0,0,0,2.849-2.431,6.426,6.426,0,0,0,.583-2.717c-.638.022-1.243.076-2.046.176-.011.6,0,1.21-.011,1.815-.011.495-.275.627-.44.627-.33,0-.506-.143-.506-.55s.055-1.023.066-1.8a7.354,7.354,0,0,0-.759.154,1.653,1.653,0,0,0-.473.2.644.644,0,0,1-.4.144,1.035,1.035,0,0,1-.738-.429.965.965,0,0,1-.341-.716c0-.121.034-.186.1-.186.032,0,.076.044.153.1a1.384,1.384,0,0,0,.8.341c.165,0,.451-.011.759-.044.352-.044.528-.077.9-.121v-1.133c0-.231-.011-.363-.11-.462a1.519,1.519,0,0,0-.583-.3c-.077-.023-.111-.044-.111-.088s.067-.111.133-.155a.715.715,0,0,1,.45-.11,2.347,2.347,0,0,1,.969.286c.264.144.352.286.352.407a.512.512,0,0,1-.1.308,1.121,1.121,0,0,0-.088.407c-.011.188-.022.43-.022.76.825-.089,1.32-.133,2.057-.187v-1.2a2.721,2.721,0,0,0-.066-.913.474.474,0,0,0-.275-.242,3.714,3.714,0,0,0-.374-.121c-.1-.022-.121-.044-.121-.088s.044-.109.165-.2a.655.655,0,0,1,.4-.11,2.851,2.851,0,0,1,.88.165c.374.122.55.341.55.517a.525.525,0,0,1-.121.319.579.579,0,0,0-.1.32c-.021.593-.033,1.055-.043,1.517.219-.01.418-.021.626-.044A.973.973,0,0,0,368.634,490.5Z" fill="#1a1311"/>
      <path id="パス_248" data-name="パス 248" d="M380.174,492.612c-.341,0-1.089-.055-1.628-.055-.87,0-2.762.044-4.115.165a3.139,3.139,0,0,0-1.09.209.474.474,0,0,1-.3.088c-.287,0-.539-.264-.88-.759a.9.9,0,0,1-.21-.594c0-.177.067-.265.133-.265.032,0,.087.044.143.1a1.088,1.088,0,0,0,.923.418c.3,0,.507-.011,1.156-.056,1.364-.088,2.816-.153,3.894-.175a2.122,2.122,0,0,0,.859-.154.733.733,0,0,1,.307-.089,1.266,1.266,0,0,1,.495.111c.419.175.705.34.705.616A.418.418,0,0,1,380.174,492.612Z" fill="#1a1311"/>
      <path id="パス_249" data-name="パス 249" d="M384.958,493.7a4.006,4.006,0,0,0,.033.759.454.454,0,0,0,.275.309,2.016,2.016,0,0,0,.9.153,9.085,9.085,0,0,0,2.212-.242,2.073,2.073,0,0,1,.571-.1c.44,0,.76.209.76.528,0,.287-.133.364-.342.452a3.624,3.624,0,0,1-1,.165c-.616.044-1.2.077-1.727.077-1.21,0-1.925-.188-2.211-.562a1.384,1.384,0,0,1-.264-.506,3.689,3.689,0,0,1-.066-.891c.011-.671.011-1.365.011-2.046,0-.606.011-1.21.011-1.772,0-.418-.033-.505-.319-.66a1.779,1.779,0,0,0-.286-.109c-.077-.023-.111-.056-.111-.1,0-.142.364-.286.6-.286a1.934,1.934,0,0,1,.858.309c.385.219.506.384.506.583a.463.463,0,0,1-.165.374c-.088.088-.121.153-.143.516-.033.441-.066.969-.077,1.563a11.88,11.88,0,0,0,1.628-.66,12.215,12.215,0,0,0,1.331-.759c.11-.077.176-.121.176-.2s-.1-.2-.187-.286c-.109-.111-.165-.155-.165-.2s.11-.1.231-.1c.341,0,.506.065.957.472.3.276.452.506.44.694,0,.219-.12.3-.384.352a2.879,2.879,0,0,0-.4.12c-.6.209-1.156.374-1.706.518a18.077,18.077,0,0,1-1.936.395C384.969,492.887,384.958,493.338,384.958,493.7Zm4.6-4.851a.821.821,0,0,1,.408.66.37.37,0,0,1-.363.385.4.4,0,0,1-.374-.253,4.146,4.146,0,0,0-.694-.969c-.044-.044-.121-.1-.121-.143,0-.066.055-.077.133-.077a.98.98,0,0,1,.253.044A2,2,0,0,1,389.556,488.85Zm1.024-.771a.67.67,0,0,1,.4.562.368.368,0,0,1-.341.406.421.421,0,0,1-.407-.241,2.785,2.785,0,0,0-.77-.859c-.044-.033-.133-.088-.133-.132a.086.086,0,0,1,.089-.087,1.49,1.49,0,0,1,.285.032A2.566,2.566,0,0,1,390.58,488.079Z" fill="#1a1311"/>
      <path id="パス_250" data-name="パス 250" d="M399.292,493.052a7,7,0,0,1,1.056.671c.66.506.924.935.924,1.255a.55.55,0,0,1-.506.593.72.72,0,0,1-.682-.374,9.238,9.238,0,0,0-1.277-1.639,6.589,6.589,0,0,0-1.1-.847,12.614,12.614,0,0,1-2.7,2.156,9.707,9.707,0,0,1-1.881.869.673.673,0,0,1-.243.055c-.054,0-.109-.021-.109-.1a.151.151,0,0,1,.077-.121,13.394,13.394,0,0,0,3.443-2.662,16.439,16.439,0,0,0,2.233-2.916.328.328,0,0,0,.066-.132c0-.033-.032-.044-.143-.033-.77.088-1.76.253-2.629.441a1.673,1.673,0,0,0-.506.175.656.656,0,0,1-.385.121c-.209,0-.429-.131-.737-.516a.945.945,0,0,1-.232-.7c0-.209.078-.286.144-.286.033,0,.077.044.154.131.308.341.429.418.759.418.132,0,.407-.022.836-.066.9-.1,1.639-.2,2.42-.308a.82.82,0,0,0,.44-.165.416.416,0,0,1,.319-.121.88.88,0,0,1,.584.3c.329.286.462.462.462.616,0,.111-.034.22-.364.33-.1.034-.165.122-.263.264a18.019,18.019,0,0,1-1.5,1.981A14.284,14.284,0,0,1,399.292,493.052Z" fill="#1a1311"/>
      <path id="パス_251" data-name="パス 251" d="M408.014,488.244H404.89a9.131,9.131,0,0,0-1.012.067l-.121-.408a7.715,7.715,0,0,0,1.144.088h6.282c.6-.737.737-.825.814-.825.1,0,.22.088.8.572.264.22.352.32.352.4s-.033.11-.143.11h-3.917V491.8h1.485c.573-.737.7-.825.782-.825.1,0,.209.088.792.572.253.22.341.318.341.395s-.033.111-.143.111h-3.257v4.137h2.245c.638-.8.77-.892.847-.892.1,0,.22.088.869.616.3.242.385.341.385.418s-.033.11-.143.11h-8.823a9.877,9.877,0,0,0-1.056.067l-.121-.407a8.028,8.028,0,0,0,1.166.088h.7v-4.666a8.966,8.966,0,0,0-.066-1.22c1.353.132,1.463.253,1.463.374,0,.088-.11.186-.33.274v5.238h1.782Z" fill="#1a1311"/>
      <path id="パス_252" data-name="パス 252" d="M421.709,489.675a12.26,12.26,0,0,0,.429,2.981,5.566,5.566,0,0,0,1.364,2.376,1.3,1.3,0,0,0,.606.418c.165,0,.308-.253.726-1.309.022-.055.11-.011.11.045-.088,1.2-.088,1.275-.088,1.55,0,.2.01.232.175.462a.679.679,0,0,1,.122.374.46.46,0,0,1-.484.474,2.269,2.269,0,0,1-1.189-.507,6.493,6.493,0,0,1-2.288-3.377,14.5,14.5,0,0,1-.517-3.487h-4.489a6.447,6.447,0,0,0-.847.065l-.121-.407a5.087,5.087,0,0,0,.924.089h4.522c-.011-.319-.022-.65-.033-1-.011-.374-.011-.682-.066-1.21,1.342.154,1.4.187,1.4.353,0,.1-.077.165-.308.252.011.605.022,1.133.044,1.607h1.441c.517-.616.649-.7.726-.7.1,0,.209.088.683.483.209.188.3.286.3.363s-.032.111-.143.111Zm-4.191,2.2h-.99a5.581,5.581,0,0,0-.793.065l-.121-.406a4.562,4.562,0,0,0,.88.088h2.388c.528-.649.649-.737.726-.737.1,0,.209.077.693.495.22.2.308.308.308.385s-.033.11-.143.11H418.64v2.8a20.252,20.252,0,0,0,2.123-.616c.055-.022.121.122.077.154a16.191,16.191,0,0,1-4.643,2c-.087.351-.132.418-.252.418-.188,0-.331-.341-.606-1.452.407-.023.858-.067,1.31-.132.285-.045.571-.089.869-.144Zm5.918-2.971c-.231,0-.319-.077-.55-.506a2.454,2.454,0,0,0-.726-.825c-.044-.033-.033-.11.022-.11,1.133.1,1.717.407,1.717.925A.525.525,0,0,1,423.436,488.9Z" fill="#1a1311"/>
      <path id="パス_253" data-name="パス 253" d="M428.441,496.76c0,.3-.209.428-.617.428-.319,0-.451-.1-.451-.384,0-.683.066-1.629.066-4.885,0-1.629-.011-3.257-.077-4.885a6.04,6.04,0,0,1,1.167.561h1.925c.374-.429.462-.495.55-.495.11,0,.2.066.594.385.176.143.242.22.242.308s-.077.176-.319.33v.407c0,1.068.022,1.816.022,2.058s-.209.362-.594.362c-.286,0-.4-.088-.4-.318v-.209h-2.112Zm2.112-8.911h-2.112v1h2.112Zm-2.112,2.321h2.112V489.1h-2.112Zm2.992,3.7a3.271,3.271,0,0,1-2.234,3.047c-.054.023-.121-.044-.076-.088a4,4,0,0,0,1.353-2.959H429.9a6.925,6.925,0,0,0-.88.066l-.121-.407a5.521,5.521,0,0,0,.968.088h.627c.011-.319.022-.66.022-1.056v-.484h-.386a4.911,4.911,0,0,0-.736.066l-.121-.408a3.913,3.913,0,0,0,.825.088h3.542c.418-.495.551-.583.627-.583.1,0,.22.088.605.408.165.143.254.242.254.319s-.034.11-.143.11h-1.4v1.54h.275c.484-.572.616-.66.693-.66.1,0,.209.088.638.462.176.165.265.264.265.341s-.034.11-.143.11h-1.728c.011,1,.044,2.156.044,2.541,0,.3-.22.418-.583.418-.308,0-.451-.088-.451-.341,0-.209.044-.88.044-2.167v-.451Zm1.21-.253v-1.54H431.51c0,.517-.011,1.023-.055,1.54Zm.913-3.048c0,.276-.187.4-.561.4-.3,0-.429-.088-.429-.33,0-.386.022-.781.022-2.355,0-.407-.011-.825-.044-1.243a7.208,7.208,0,0,1,1.122.561h2.025c.384-.429.473-.495.561-.495.11,0,.2.066.6.4.187.165.253.242.253.33,0,.111-.066.176-.3.32v1.32c0,6.16.01,6.446.01,6.743a.872.872,0,0,1-.34.77,1.443,1.443,0,0,1-.848.209c-.209,0-.22-.021-.264-.252-.066-.385-.3-.606-1.045-.8-.055-.012-.055-.133,0-.133.627.044.88.056,1.331.056.11,0,.133-.034.133-.155v-5.478h-2.234Zm2.234-2.716h-2.234v1h2.234Zm-2.234,2.321h2.234V489.1h-2.234Z" fill="#1a1311"/>
      <path id="パス_254" data-name="パス 254" d="M439.781,490.016a2.79,2.79,0,0,0-.693.088l-.121-.429a4.03,4.03,0,0,0,.814.088h.385l.077-.4a18.034,18.034,0,0,0,.286-2.255c1.1.176,1.3.243,1.3.408,0,.12-.11.209-.4.3-.1.693-.209,1.331-.319,1.948h.693c.386-.418.474-.485.561-.485.111,0,.188.067.562.408.165.154.231.242.231.33s-.089.165-.341.274a12.342,12.342,0,0,1-.87,3.631c.617.44,1,.924,1,1.343,0,.362-.209.615-.5.615s-.374-.076-.672-.715c-.076-.154-.165-.308-.253-.451a6.237,6.237,0,0,1-2.42,2.223c-.044.021-.143-.078-.1-.111A7.52,7.52,0,0,0,441,494a6.465,6.465,0,0,0-.782-.77c-.055.187-.121.374-.187.561a.444.444,0,0,1-.484.319c-.319,0-.506-.087-.506-.275a1.269,1.269,0,0,1,.11-.44,24.036,24.036,0,0,0,.958-3.377Zm1.276,0a26.712,26.712,0,0,1-.78,3.058,9.711,9.711,0,0,1,.923.4,15.433,15.433,0,0,0,.672-3.454Zm2.7,1.914c-.055.219-.132.319-.231.319-.154,0-.275-.353-.44-1.375.418.022.616.022,1.023.022a15.549,15.549,0,0,0,.792-2.443,9.132,9.132,0,0,0,.22-1.3c1.265.341,1.474.44,1.474.605,0,.121-.121.187-.44.242a10,10,0,0,1-1.628,2.894c1.474-.022,2.354-.055,3.191-.111a4.633,4.633,0,0,0-.958-1.507c-.033-.044.023-.11.077-.088,1.309.55,2.156,1.409,2.156,2.2,0,.418-.231.726-.571.726-.243,0-.352-.133-.452-.517a4.852,4.852,0,0,0-.143-.5A30.943,30.943,0,0,1,443.753,491.93Zm.924,4.533v.329c0,.309-.154.474-.605.474-.352,0-.44-.144-.44-.374s.044-1.145.044-2.6c0-.726-.011-1.122-.044-1.859a8.963,8.963,0,0,1,1.133.55h2.464c.374-.451.463-.517.55-.517.11,0,.2.066.627.418.187.154.253.231.253.319s-.076.187-.308.341v.517c0,1.375.045,2.354.045,2.663,0,.33-.209.472-.606.472-.341,0-.45-.132-.45-.362v-.374Zm2.663-3.224h-2.663v2.97h2.663Z" fill="#1a1311"/>
      <path id="パス_255" data-name="パス 255" d="M457.878,490.2a2.325,2.325,0,0,1,.88.276c.517.263.626.539.626.748s-.142.33-.384.352a3.045,3.045,0,0,0-.617.153,12.461,12.461,0,0,0-1.628.694c-.363.187-.77.385-1.034.539-.011.275-.011.605-.011.836a4.034,4.034,0,0,1-.033.969.433.433,0,0,1-.407.286c-.319,0-.484-.155-.484-.529,0-.2.022-.462.033-1.056-.264.154-.44.275-.572.363-.594.407-.891.748-.891,1.222,0,.516.462.78,1.5.78a9.566,9.566,0,0,0,1.5-.076,3.025,3.025,0,0,0,.649-.188,1.458,1.458,0,0,1,.451-.088,1.05,1.05,0,0,1,.649.187.557.557,0,0,1,.231.407.425.425,0,0,1-.187.33,4.858,4.858,0,0,1-2.145.276,5.134,5.134,0,0,1-2.365-.33,1.279,1.279,0,0,1-.759-1.233,1.94,1.94,0,0,1,.759-1.43,8.308,8.308,0,0,1,1.2-.858c.011-.2.011-.363.011-.518,0-.583-.143-.945-.539-.945a1.786,1.786,0,0,0-1.243.759,11.933,11.933,0,0,0-.781,1.122.708.708,0,0,1-.5.319.448.448,0,0,1-.34-.121.424.424,0,0,1-.122-.352.7.7,0,0,1,.177-.451c.11-.1.263-.243.385-.363a10.789,10.789,0,0,0,1.606-2.178c-.209.022-.528.054-.793.077a1.26,1.26,0,0,1-1.319-.892.653.653,0,0,1-.056-.253c0-.055.022-.1.066-.1a.194.194,0,0,1,.122.1,1.277,1.277,0,0,0,1.1.451,6.084,6.084,0,0,0,1.276-.175,5.167,5.167,0,0,0,.363-.9,1.231,1.231,0,0,0,.055-.3.264.264,0,0,0-.1-.187.835.835,0,0,0-.264-.154,1.412,1.412,0,0,0-.231-.077c-.055-.01-.066-.022-.066-.055,0-.055.044-.088.077-.12a.6.6,0,0,1,.407-.133,2.382,2.382,0,0,1,1.111.286.444.444,0,0,1,.264.407.369.369,0,0,1-.154.275,1.286,1.286,0,0,0-.3.308c-.066.088-.242.341-.33.484a1.961,1.961,0,0,0,.88-.407.662.662,0,0,1,.4-.121c.418,0,.715.165.715.407a.413.413,0,0,1-.308.385,13.021,13.021,0,0,1-2.1.562c-.11.165-.231.33-.385.583a9.719,9.719,0,0,1-.572.858,2.124,2.124,0,0,1,1.2-.463,1.027,1.027,0,0,1,.935.43,1.712,1.712,0,0,1,.2.934c.88-.539,1.353-.825,1.871-1.155.219-.142.4-.241.4-.329a.3.3,0,0,0-.122-.221.694.694,0,0,0-.318-.165c-.034-.01-.045-.033-.045-.088C457.459,490.258,457.657,490.2,457.878,490.2Z" fill="#1a1311"/>
      <path id="パス_256" data-name="パス 256" d="M465.049,489.3c.473-.583.6-.672.682-.672.1,0,.22.089.7.463.22.186.308.274.308.351s-.033.111-.143.111h-3.862a5.055,5.055,0,0,0-.748.065l-.121-.407a4.581,4.581,0,0,0,.881.089Zm-1.661,7.085v.307c0,.286-.2.418-.572.418-.308,0-.462-.1-.462-.363,0-.341.044-.7.044-2.1a14.279,14.279,0,0,0-.066-1.518,10.187,10.187,0,0,1,1.166.55h1.3c.4-.462.484-.528.572-.528.11,0,.2.066.594.385.176.154.242.231.242.319s-.077.2-.33.363v.386c0,1.022.044,1.759.044,1.991,0,.286-.2.407-.583.407-.308,0-.451-.11-.451-.342v-.274Zm1-8.537c.484-.573.616-.661.693-.661.1,0,.22.088.715.462.22.176.308.264.308.341s-.033.111-.143.111h-2.85a3.793,3.793,0,0,0-.648.065l-.122-.407a3.532,3.532,0,0,0,.77.089Zm.187,2.936c.407-.506.539-.594.616-.594.1,0,.22.088.649.418.187.155.275.243.275.32s-.033.11-.143.11h-2.816a4.14,4.14,0,0,0-.671.065l-.122-.407a3.646,3.646,0,0,0,.793.088Zm0,1.42c.407-.528.539-.616.616-.616.1,0,.22.088.66.439.187.144.275.243.275.32s-.033.11-.143.11h-2.805a3.9,3.9,0,0,0-.66.065l-.121-.406a3.6,3.6,0,0,0,.781.088Zm.308,1.727h-1.5v2.2h1.5Zm5.347-5.754h-2.6a3.392,3.392,0,0,0-.814.1l-.121-.44a5.072,5.072,0,0,0,.924.088h2.487c.407-.462.5-.528.583-.528.11,0,.209.055.638.407.2.154.264.242.264.33s-.044.143-.341.363v.562c0,1.462.055,2.519.055,2.849s-.22.45-.6.45c-.319,0-.473-.12-.473-.362v-.451h-2.465V495.4c0,.428.242.516,1.442.516,1.067,0,1.43-.055,1.606-.22s.319-.451.66-1.617c.011-.054.143-.033.143.022-.011.407-.044.958-.044,1.232,0,.209.011.22.2.309a.4.4,0,0,1,.209.362c0,.342-.176.562-.66.693a9.04,9.04,0,0,1-2.156.165c-1.893,0-2.421-.242-2.421-1.375,0-.473.022-1.088.022-2.541,0-1.167-.011-1.463-.066-2.222a9.669,9.669,0,0,1,1.188.572h2.344Z" fill="#1a1311"/>
      <path id="パス_257" data-name="パス 257" d="M473.463,491.654c-.055.023-.11-.109-.066-.132a11.314,11.314,0,0,0,3.422-2.9,5.484,5.484,0,0,0,.957-1.694c1.221.451,1.452.55,1.452.682,0,.1-.121.165-.374.209a8.205,8.205,0,0,0,2.332,1.783,8.809,8.809,0,0,0,2.652.836c.055.01.044.121-.011.131-.352.044-.517.22-.682.771-.055.176-.1.242-.187.242a1.581,1.581,0,0,1-.573-.209,12.141,12.141,0,0,1-1.881-1.243,8.6,8.6,0,0,1-1.837-2.223A10.375,10.375,0,0,1,473.463,491.654Zm1.893,3.169c0,1.012-.408,1.705-1.1,1.705a.548.548,0,0,1-.594-.572c0-.286.132-.429.495-.594.661-.242.88-.572.957-1.364,0-.055.144-.066.154-.011A4.71,4.71,0,0,1,475.356,494.823Zm4.763-3.355c.4-.441.484-.506.572-.506.11,0,.2.065.628.407.2.165.263.241.263.329,0,.133-.1.21-.363.309-.308.583-.572,1.034-.858,1.474a.475.475,0,0,1-.418.22c-.341,0-.737-.209-.737-.385a.5.5,0,0,1,.1-.231,6.465,6.465,0,0,0,.869-1.364H476.2a5.636,5.636,0,0,0-.935.054l-.11-.406a3.939,3.939,0,0,0,1.013.1Zm-2.893,4.345c0,.32.154.352,1.4.352a3.448,3.448,0,0,0,1.353-.143c.374-.165.495-.539.726-1.364.011-.054.132-.022.132.033-.011.287-.033.649-.033.87,0,.274,0,.286.286.418a.369.369,0,0,1,.2.34c0,.253-.165.441-.561.55a8.772,8.772,0,0,1-2.266.188c-1.936,0-2.244-.188-2.244-1.277,0-.165.022-.341.022-1.034,0-.374-.011-.748-.044-1.122,1.21.132,1.364.165,1.364.319,0,.1-.077.165-.33.3Zm1.606-5.578c.385-.472.517-.56.594-.56.1,0,.231.088.638.4.176.144.264.232.264.309s-.033.109-.143.109h-2.827a3.817,3.817,0,0,0-.649.067l-.121-.408a3.268,3.268,0,0,0,.748.088Zm.2,5c-.308,0-.385-.1-.55-.67a2.489,2.489,0,0,0-.748-1.09c-.044-.033,0-.088.055-.077,1.265.242,1.793.594,1.793,1.211A.572.572,0,0,1,479.03,495.23Zm3.576,1.277c-.32,0-.463-.2-.583-.859a3.1,3.1,0,0,0-.716-1.573.068.068,0,0,1,.077-.1c1.21.517,1.8,1.111,1.8,1.815C483.189,496.209,482.958,496.507,482.606,496.507Z" fill="#1a1311"/>
      <path id="パス_258" data-name="パス 258" d="M488.886,489.5a14.239,14.239,0,0,0-.187,1.937c-.088,1.155-.132,2.156-.132,2.849,0,.572.088.891.253,1.045a1.736,1.736,0,0,0,1.056.253,5.407,5.407,0,0,0,2.4-.671,6.393,6.393,0,0,0,1.924-1.485c.067-.077.133-.143.2-.143a.1.1,0,0,1,.11.11,1.007,1.007,0,0,1-.144.308,6.337,6.337,0,0,1-1.914,1.958,4.95,4.95,0,0,1-2.937.892c-1.155,0-1.859-.792-1.826-2.146.044-1.838.121-3.641.165-5.313.01-.407-.066-.584-.418-.727-.308-.11-.342-.121-.342-.187,0-.1.078-.143.187-.2a1.481,1.481,0,0,1,.507-.1,1.7,1.7,0,0,1,1.056.495.771.771,0,0,1,.319.562.539.539,0,0,1-.154.374C488.963,489.377,488.908,489.41,488.886,489.5Z" fill="#1a1311"/>
      <path id="パス_259" data-name="パス 259" d="M501.47,489.74a24.82,24.82,0,0,0-3.2,1.024,1.7,1.7,0,0,0-.418.253.452.452,0,0,1-.32.121c-.219.01-.472-.132-.836-.539a1.356,1.356,0,0,1-.407-.792c0-.176.045-.341.111-.341.044,0,.076-.012.175.109.386.4.474.441.8.43a14.881,14.881,0,0,0,1.837-.363c1.408-.33,2.508-.627,3.344-.87a3.3,3.3,0,0,0,.605-.209.8.8,0,0,1,.419-.1,2.667,2.667,0,0,1,1.012.177c.187.088.351.2.351.428s-.1.385-.406.4c-.231.021-.473,0-1.09.055a3.59,3.59,0,0,0-2.519,1.188,3.018,3.018,0,0,0-.792,2.134,1.949,1.949,0,0,0,.8,1.639,3.455,3.455,0,0,0,1.76.573,2.03,2.03,0,0,1,.847.153.639.639,0,0,1,.43.562c0,.3-.2.528-.716.528a5.3,5.3,0,0,1-2.134-.518,2.869,2.869,0,0,1-1.617-2.53,3.954,3.954,0,0,1,.429-1.849,5.1,5.1,0,0,1,1.529-1.605Z" fill="#1a1311"/>
      <path id="パス_260" data-name="パス 260" d="M506.793,492.491c-.055.022-.121-.077-.077-.11a12.208,12.208,0,0,0,3.466-3.454,7.368,7.368,0,0,0,.935-1.893c1.551.418,1.562.429,1.562.561,0,.1-.088.154-.517.286a7.863,7.863,0,0,0,2.475,2.333,7.51,7.51,0,0,0,2.684.968c.056.01.056.131,0,.131-.439.044-.648.276-.835.936-.044.153-.1.209-.187.209a1.209,1.209,0,0,1-.408-.165,9.329,9.329,0,0,1-1.639-1.155,9.816,9.816,0,0,1-2.211-3.036A10.017,10.017,0,0,1,506.793,492.491Zm6.986.4c.407-.44.495-.506.583-.506.11,0,.187.066.671.506.209.187.275.275.275.363,0,.143-.1.209-.506.352a25.852,25.852,0,0,1-1.87,3.323c-.187.253-.308.318-.528.318-.418,0-.759-.153-.759-.351,0-.078.022-.132.187-.374a17.271,17.271,0,0,0,1.947-3.378h-4.752a4.574,4.574,0,0,0-.826.055l-.1-.407a3.783,3.783,0,0,0,.9.1Zm-1.331-1.728c.363-.483.495-.571.572-.571.1,0,.242.088.693.406.209.144.3.232.3.309s-.033.11-.143.11h-3.3a3.71,3.71,0,0,0-.639.066l-.121-.408a3.55,3.55,0,0,0,.782.088Z" fill="#1a1311"/>
      <path id="パス_261" data-name="パス 261" d="M524.856,489.477c0,.252-.132.4-.462.516-.352.121-.935.253-1.628.418-.616,1.442-1.243,2.86-1.771,3.972a2.083,2.083,0,0,1-.44.693.576.576,0,0,1-.286.088.432.432,0,0,1-.342-.143.445.445,0,0,1-.153-.352,1.855,1.855,0,0,1,.363-.726,23.328,23.328,0,0,0,1.815-3.344c-.264.033-.748.1-1,.1a1.383,1.383,0,0,1-.715-.142,1.461,1.461,0,0,1-.649-.7.442.442,0,0,1-.044-.188c0-.055.055-.065.077-.065s.054.01.12.065a1.274,1.274,0,0,0,.5.265,2.238,2.238,0,0,0,.539.054,8.094,8.094,0,0,0,1.485-.209,4.193,4.193,0,0,0,.363-1.385c0-.265-.077-.33-.66-.551-.055-.022-.088-.055-.088-.1a.192.192,0,0,1,.11-.143.965.965,0,0,1,.484-.11,2.322,2.322,0,0,1,1.1.364.417.417,0,0,1,.242.406.335.335,0,0,1-.143.286c-.154.121-.264.309-.55,1.013a2.858,2.858,0,0,0,.726-.33.931.931,0,0,1,.462-.144C524.658,489.1,524.856,489.322,524.856,489.477Zm.319,1.331a4.02,4.02,0,0,0-.517.01,1.748,1.748,0,0,1-.209.023c-.066,0-.11-.023-.11-.077s.055-.111.132-.144a2.679,2.679,0,0,1,1.144-.22,3.83,3.83,0,0,1,1.86.485.846.846,0,0,1,.506.715c0,.253-.11.428-.385.428a.87.87,0,0,1-.429-.175,1.265,1.265,0,0,0-.858-.385.8.8,0,0,0-.495.142.778.778,0,0,0-.408.771,8.963,8.963,0,0,0,.374,2.046c1.695.572,2.146,1.023,2.146,1.452a.432.432,0,0,1-.429.484.873.873,0,0,1-.638-.307,4.6,4.6,0,0,0-1.035-.771,1.362,1.362,0,0,1-.549,1.21A2.175,2.175,0,0,1,524,496.8a1.984,1.984,0,0,1-1.254-.418,1.082,1.082,0,0,1-.44-.837,1.148,1.148,0,0,1,.462-.913,2.269,2.269,0,0,1,1.32-.4,5.424,5.424,0,0,1,.792.055c-.044-.583-.077-1.166-.077-1.639,0-.946.737-1.353,1.463-1.518A2.267,2.267,0,0,0,525.175,490.808Zm-1.232,3.993a1.847,1.847,0,0,0-.946.177.562.562,0,0,0,0,.967,1.6,1.6,0,0,0,.781.176,1.4,1.4,0,0,0,.924-.264.96.96,0,0,0,.243-.714.723.723,0,0,0-.012-.155A2.9,2.9,0,0,0,523.943,494.8Z" fill="#1a1311"/>
      <path id="パス_262" data-name="パス 262" d="M535.79,491.731a2.5,2.5,0,0,1,1.838.661,1.883,1.883,0,0,1,.528,1.4,2.578,2.578,0,0,1-1.849,2.233,10.621,10.621,0,0,1-3.685.671c-.176.011-.253-.033-.253-.121s.077-.1.231-.121a8.151,8.151,0,0,0,2.981-.978,2.508,2.508,0,0,0,1.442-2.08,1.22,1.22,0,0,0-.386-.957,1.441,1.441,0,0,0-1.078-.352,3.766,3.766,0,0,0-2.464,1.562,2.038,2.038,0,0,0-.583.979c-.066.231-.22.319-.319.319a.745.745,0,0,1-.638-.429,1.388,1.388,0,0,1-.253-.825c0-.407.165-1.541.253-2.168a5.348,5.348,0,0,0,.077-.758v-.341a.848.848,0,0,1,.429-.7,5.573,5.573,0,0,1,1.375-.573,3.586,3.586,0,0,1-.726-.583,1.675,1.675,0,0,1-.462-1.034c0-.154.022-.219.066-.219s.077.054.132.153a2.8,2.8,0,0,0,1.683.9,1.14,1.14,0,0,1,.935.88.451.451,0,0,1-.418.518,1.521,1.521,0,0,1-.374-.034,3.074,3.074,0,0,0-.473-.066,3.133,3.133,0,0,0-1.364.188.475.475,0,0,0-.341.384.847.847,0,0,0,.044.276,2.807,2.807,0,0,1,.187.781,4.441,4.441,0,0,1-.088.571,11.862,11.862,0,0,0-.11,1.4c0,.1.077.1.187.022.088-.066.231-.165.308-.22a11,11,0,0,1,1.177-.737A4.369,4.369,0,0,1,535.79,491.731Z" fill="#1a1311"/>
      <path id="パス_263" data-name="パス 263" d="M540.717,494.581a.1.1,0,0,1,.1-.1,5.461,5.461,0,0,1,1.925.759,1.39,1.39,0,0,1,.7,1.112.639.639,0,0,1-.66.681.657.657,0,0,1-.583-.495,3.765,3.765,0,0,0-1.408-1.848A.139.139,0,0,1,540.717,494.581Z" fill="#1a1311"/>
      <path id="パス_264" data-name="パス 264" d="M551.19,492.105c.209.044.418.1.627.166a6.815,6.815,0,0,0,.55-.979,3.806,3.806,0,0,0,.22-.583c.814.462.979.583.979.726,0,.087-.077.143-.374.131a5.1,5.1,0,0,1-1.111.8c.561.242.847.539.847.913a.489.489,0,0,1-.462.528c-.209,0-.33-.1-.495-.418a2.83,2.83,0,0,0-.781-1.012v1.045c0,1.254.033,2.816.033,3.334,0,.307-.209.451-.561.451s-.495-.11-.495-.407c0-.242.077-.969.077-2.432v-1.837a9.683,9.683,0,0,1-1.64,1.034c-.044.022-.143-.1-.1-.132a10.6,10.6,0,0,0,3.036-3.994H549.55a2.881,2.881,0,0,0-.692.088l-.121-.428a4.012,4.012,0,0,0,.813.087h.661V488.1a6.729,6.729,0,0,0-.078-1.013c1.277.121,1.4.242,1.4.352s-.11.2-.341.308v1.441h.341c.33-.374.418-.44.506-.44.11,0,.187.066.561.451.165.176.231.265.231.353,0,.132-.077.186-.352.286a9.383,9.383,0,0,1-1.287,1.814Zm4.335-3.487a14.7,14.7,0,0,1-.771,5.281,6.3,6.3,0,0,1-2.959,3.235c-.044.021-.132-.121-.088-.155a6.867,6.867,0,0,0,2.178-3.454,17.636,17.636,0,0,0,.539-4.907h-.693a4.031,4.031,0,0,0-.814.088l-.121-.429a4.882,4.882,0,0,0,.913.088H557.2c.418-.462.507-.528.6-.528.11,0,.2.066.638.44.2.176.264.253.264.341s-.033.111-.352.407c-.088,4.379-.154,5.347-.44,6.524a2.053,2.053,0,0,1-.748,1.309,1.519,1.519,0,0,1-.87.22c-.209,0-.275-.055-.318-.286-.088-.483-.374-.671-1.233-.979-.055-.022-.033-.165.022-.154a12.152,12.152,0,0,0,1.519.132c.33,0,.44-.1.527-.451a31.416,31.416,0,0,0,.463-6.722Z" fill="#1a1311"/>
      <path id="パス_265" data-name="パス 265" d="M562.355,496.133v.406c0,.309-.2.451-.639.451-.318,0-.439-.132-.439-.374,0-.89.065-1.771.065-5.357,0-1.277-.011-2.553-.055-3.84a6.512,6.512,0,0,1,1.233.627h6.315c.44-.495.527-.561.615-.561.111,0,.2.066.628.44.187.177.253.253.253.342,0,.109-.088.209-.32.351v1.3c0,3.444.067,5.754.067,6.535,0,.33-.187.5-.672.5-.33,0-.451-.142-.451-.4v-.418Zm6.6-7.834h-6.6v7.58h6.6Zm-4.367,5.237v.363c0,.3-.209.407-.594.407-.308,0-.44-.1-.44-.352,0-.385.044-.77.044-2.321,0-.627-.011-1.254-.055-1.882a6.758,6.758,0,0,1,1.166.562h1.837c.363-.441.451-.506.539-.506.11,0,.2.065.6.395.187.154.254.232.254.319s-.056.166-.309.341v.485c0,1.276.044,2.167.044,2.453,0,.308-.22.418-.594.418-.3,0-.451-.088-.451-.33v-.352Zm2.046-2.971h-2.046v2.718h2.046Z" fill="#1a1311"/>
      <path id="パス_266" data-name="パス 266" d="M573.828,494.691c0,1.133.022,1.54.022,1.958,0,.3-.187.452-.572.452s-.484-.111-.484-.385c0-.451.066-2.025.066-6.107,0-1.914-.012-2.672-.066-3.377.561.231.638.264,1.144.506h1.1c.341-.407.429-.473.517-.473.11,0,.187.066.627.473.187.176.253.264.253.352,0,.121-.088.209-.33.286A14.23,14.23,0,0,1,574.5,490.8c1.177.913,1.529,1.517,1.529,2.6a1.545,1.545,0,0,1-.4,1.122,1.115,1.115,0,0,1-.825.319c-.2,0-.231-.044-.264-.286-.044-.385-.231-.572-.715-.726Zm0-1.056c.4.044.693.077.88.077a.433.433,0,0,0,.22-.055c.11-.077.165-.242.165-.528a3.036,3.036,0,0,0-.814-2.288,14.712,14.712,0,0,0,.814-2.85h-1.265Zm5.016-1.7a6.644,6.644,0,0,0,.88,1.948,9.44,9.44,0,0,0,1.112-1.056,7.95,7.95,0,0,0,.627-.792c.682.506.968.781.968.9s-.077.176-.517.132a12.967,12.967,0,0,1-2.047,1,3.443,3.443,0,0,0,.474.506,5.691,5.691,0,0,0,2.233,1.166c.055.012.044.121-.011.144-.308.1-.429.274-.594.857-.044.2-.077.254-.165.254a1.1,1.1,0,0,1-.429-.231,6.1,6.1,0,0,1-1.617-1.662,7.677,7.677,0,0,1-1.156-3.169h-1.1v3.577a20.329,20.329,0,0,0,2-.485c.054-.022.087.1.044.132a16.615,16.615,0,0,1-3.488,1.65c-.055.276-.121.385-.253.385s-.209-.186-.55-1.364a7.033,7.033,0,0,0,.924-.088c.11-.011.22-.033.33-.044v-4.1c0-1.419-.011-2.838-.044-4.269a10.089,10.089,0,0,1,1.144.572h2.641c.4-.451.484-.517.572-.517.11,0,.2.066.594.4.176.165.242.242.242.33s-.066.176-.3.341V489c.011,1.673.033,2.542.033,2.839,0,.253-.22.4-.583.4-.3,0-.452-.089-.452-.3Zm1.518-3.784H577.5v1.6h2.86Zm0,1.849H577.5v1.683h2.86Z" fill="#1a1311"/>
      <path id="パス_267" data-name="パス 267" d="M588.425,490.785h-2.388a3.948,3.948,0,0,0-.66.067l-.12-.408a3.527,3.527,0,0,0,.78.088h5.017c.484-.616.616-.7.693-.7.1,0,.22.088.748.495.231.188.32.276.32.353s-.034.109-.143.109h-3.224v2.321h1.441c.484-.627.616-.714.693-.714.1,0,.22.087.7.495.221.187.308.286.308.363s-.033.11-.143.11h-3v2.585a9.483,9.483,0,0,0,1.32.077,17.272,17.272,0,0,0,2.938-.231c.054-.011.044.077,0,.11a.869.869,0,0,0-.364.782c0,.165-.055.23-.242.253-.462.054-1.3.077-1.859.077a5.106,5.106,0,0,1-3.619-1.09,4.815,4.815,0,0,1-1.1-1.6,5.408,5.408,0,0,1-2.509,2.685c-.044.033-.132-.088-.088-.121a7.005,7.005,0,0,0,1.969-3.884,8.362,8.362,0,0,0,.111-1.177c1.154.231,1.375.3,1.375.462,0,.1-.066.154-.352.274a10.808,10.808,0,0,1-.386,1.475,3.4,3.4,0,0,0,1.783,1.661Zm3.861-2.112c.43-.484.517-.55.6-.55.111,0,.2,0,.792.562.276.253.33.34.33.428,0,.144-.1.253-.494.264a.735.735,0,0,0-.441.1,3.694,3.694,0,0,1-.737.472c-.043.023-.088-.021-.077-.077a5.4,5.4,0,0,0,.2-.945h-6.986c.033.857-.308,1.452-.88,1.452a.549.549,0,0,1-.561-.583.519.519,0,0,1,.352-.528,1.237,1.237,0,0,0,.8-1.222c.011-.055.11-.066.121-.011a5.229,5.229,0,0,1,.143.638h2.872v-.924c0-.154-.011-.352-.033-.616,1.32.121,1.441.242,1.441.352s-.11.187-.341.253v.935Z" fill="#1a1311"/>
    </g>
    <g id="グループ_46" data-name="グループ 46">
      <path id="パス_268" data-name="パス 268" d="M341.185,510.9c.554-.75.614-.764.75-.764s.224.014.959.66c.541.465.585.569.585.72s-.044.194-.615.479c-.78,1-1.335,1.726-1.815,2.3a.2.2,0,0,0,.075.346,3.6,3.6,0,0,1,2.07,3.014,2.526,2.526,0,0,1-.66,1.875,2.2,2.2,0,0,1-1.335.675c-.164,0-.285-.135-.345-.4a1.208,1.208,0,0,0-.674-.975c.014,3.315.029,4.125.029,4.53s-.45.615-1.17.615c-.569,0-.674-.12-.674-.495,0-.42.105-1.545.105-7.1,0-4.274.014-5.114-.105-6.18,1.5.345,1.979.54,2.114.705Zm-1.005,7.7a1.243,1.243,0,0,0,1.394-1.409,3.717,3.717,0,0,0-.855-2.371.55.55,0,0,1-.119-.57c.239-.915.464-1.8.734-3.045h-.884a1.213,1.213,0,0,1-.27.21Zm6.854-2.355a6.946,6.946,0,0,0,1.3,3.015c.39-.585.765-1.185,1.125-1.83a6.118,6.118,0,0,0,.36-.765c1.86,1.215,1.965,1.321,1.965,1.515s-.15.3-.8.27c-.9.465-1.56.81-2.355,1.2.1.1.2.194.285.3a10.554,10.554,0,0,0,3.3,2.25.076.076,0,0,1-.015.15,2.516,2.516,0,0,0-1.455,1.08c-.21.285-.27.345-.4.345-.18,0-.255-.03-.54-.225a6.807,6.807,0,0,1-1.95-2.28c-1.62.87-3.2,1.62-4.529,2.19-.076.27-.226.495-.391.495-.24,0-.345-.165-1.08-2.34.33-.015.675-.03.99-.06.27-.029.6-.06.945-.1v-7.8a28.651,28.651,0,0,0-.105-3.286,6.2,6.2,0,0,1,2.205.555h2.64c.675-.734.735-.779.9-.779.18,0,.225.029,1.005.644.51.406.555.495.555.63,0,.151-.03.181-.45.511v.989c0,1.125.1,2.79.1,3.106,0,.42-.435.614-1.275.614-.465,0-.66-.074-.69-.39Zm-1.08-5.024a.974.974,0,0,1-.345.255v1.875h3.06v-2.13Zm-.345,2.43v2.294h3.06v-2.294Zm0,7.589c.7-.1,1.425-.195,2.07-.3a13.413,13.413,0,0,1-.945-4.7h-1.125Z" fill="#1a1311"/>
      <path id="パス_269" data-name="パス 269" d="M361.659,521.413a12.294,12.294,0,0,0,1.95.135,27.857,27.857,0,0,0,4.065-.24c.09-.015.1.12.03.165a2.215,2.215,0,0,0-1.1,1.71.442.442,0,0,1-.42.39,19.577,19.577,0,0,1-2.28.045c-2.535,0-3.69-.54-4.635-1.425a5.334,5.334,0,0,1-1.5-2.969,8.081,8.081,0,0,1-3.989,4.664c-.076.03-.165-.06-.091-.12,1.23-1.005,2.265-3.285,2.475-6.539.03-.361.03-.616.03-.931,2.115.48,2.445.585,2.445.825,0,.135-.105.24-.48.375a7.094,7.094,0,0,1-.255,1.275,4.074,4.074,0,0,0,1.185,1.65,2.83,2.83,0,0,0,.645.435v-4.049c0-.556,0-1.005-.045-1.531H357.8c-.345,0-.99.031-1.695.106l-.15-.511c.735.075,1.41.106,1.845.106h4.935c.93-1.186.96-1.215,1.08-1.215s.18.014.855.674c.465.451.555.555.555.675s-.105.165-.225.165h-3.015c-.03.09-.105.165-.33.285v2.73h1.11c.945-1.26.99-1.305,1.14-1.305s.2.015,1.02.8c.405.375.54.526.54.66a.135.135,0,0,1-.15.15h-3.66Zm-5.37-8.819a3.091,3.091,0,0,1,.15.929,1.424,1.424,0,0,1-1.44,1.486.906.906,0,0,1-.975-.946,1.212,1.212,0,0,1,.63-1.049,1.525,1.525,0,0,0,.75-1.606c0-.09.105-.1.165-.029a3.972,3.972,0,0,1,.6.914h3.465v-1.185a8.411,8.411,0,0,0-.09-1.245c2.4.151,2.685.316,2.685.54,0,.181-.075.255-.615.495v1.4h3.045c.8-.855.87-.9,1.035-.9s.36.089,1.08.764c.585.556.765.795.765,1.035,0,.271-.165.42-.7.435a3.237,3.237,0,0,0-1.1.15c-.33.12-.585.21-1.125.435-.09.03-.135.016-.105-.074.24-.691.345-1.05.495-1.545Z" fill="#1a1311"/>
      <path id="パス_270" data-name="パス 270" d="M372.429,518.323a1.448,1.448,0,0,1-1.41-1.41,1.41,1.41,0,1,1,2.82,0A1.448,1.448,0,0,1,372.429,518.323Z" fill="#1a1311"/>
      <path id="パス_271" data-name="パス 271" d="M387.8,516.253c1.14-1.364,1.215-1.425,1.365-1.425s.255.03,1.11.84c.555.525.63.615.63.721s-.075.165-.2.165h-4.335c-.015.149-.09.239-.39.42v4.079c0,.405.12.54,1.08.54,1.17,0,1.395-.045,1.74-.36a6.658,6.658,0,0,0,1.32-2.384.077.077,0,0,1,.15.029c-.06.57-.165,1.47-.18,1.86a1.169,1.169,0,0,0,.21.84,1.155,1.155,0,0,1,.315.81c0,.78-.765,1.185-3.6,1.185-2.52,0-2.97-.42-2.97-1.74,0-.375.06-2.28.06-3.6,0-.78-.015-1.29-.03-1.679h-1.905c1.05.224,1.215.389,1.215.509,0,.18-.06.255-.39.435-.21,3.69-2.265,5.88-6.165,6.39-.09.015-.134-.135-.045-.165,2.445-.75,4.155-2.8,4.155-6.57,0-.179,0-.375-.014-.6h-1.966c-.525,0-1.065.029-1.92.1l-.15-.51c.525.045.931.06,1.261.09a14.274,14.274,0,0,0,1.2-4.53c.031-.314.091-.689.1-1.109,2.13.509,2.625.644,2.625.884,0,.165-.12.3-.69.451a9.34,9.34,0,0,1-.45,1.08h1.935v-.96a17.311,17.311,0,0,0-.105-2.175c2.325.225,2.61.345,2.61.555,0,.165-.105.269-.525.464v2.116h1.575c1.065-1.335,1.14-1.4,1.29-1.4.165,0,.21.045.945.736.6.57.675.66.675.809,0,.106-.045.15-.15.15h-4.335v2.94Zm-7.02-2.94a8.93,8.93,0,0,1-2.34,2.925c.18.015.361.015.525.015h3.915v-2.94Z" fill="#1a1311"/>
      <path id="パス_272" data-name="パス 272" d="M404.3,515.639c.975-1.141,1.005-1.156,1.155-1.156.135,0,.18.015.975.72.48.436.51.481.51.585a.135.135,0,0,1-.15.15H399.64c-.031.135-.15.241-.511.3a8.051,8.051,0,0,1-.779,1.125.748.748,0,0,1,.27.18h4c.72-.81.78-.84.93-.84.165,0,.24.03.96.57.57.42.63.51.63.63s-.06.2-.45.495v.54c0,2.041.075,3.75.075,4.11,0,.435-.525.705-1.305.705-.57,0-.66-.165-.66-.54v-.24H398.35v.225c0,.54-.315.735-1.335.735-.391,0-.511-.165-.511-.495,0-.48.031-1.215.076-2.91l.03-1.32a14.6,14.6,0,0,1-3.825,2.61c-.09.03-.165-.1-.09-.15a14.758,14.758,0,0,0,4.32-5.73h-1.74c-.526,0-1.111.031-1.965.105l-.15-.51c.99.075,1.589.106,2.115.106h3.539v-1.5h-2.145a15.5,15.5,0,0,0-1.634.1l-.15-.51c.779.076,1.32.106,1.784.106h2.145v-.66c0-.255-.015-.556-.029-.825H395.6a15.765,15.765,0,0,0-1.634.1l-.15-.51c.78.075,1.32.106,1.784.106h2.161a.774.774,0,0,1-.255-.556,1.8,1.8,0,0,0-.8-1.425c-.075-.045-.03-.149.059-.149,1.636-.03,2.505.6,2.505,1.3a.9.9,0,0,1-.42.825h1.515a15.559,15.559,0,0,0,.555-1.47,6.422,6.422,0,0,0,.211-.8c1.994.556,2.159.676,2.159.87s-.12.271-.675.391c-.6.479-.915.72-1.335,1.005h2.46c.945-1.1.975-1.111,1.11-1.111.12,0,.15,0,.885.661.51.45.525.495.525.6a.135.135,0,0,1-.15.151H401c0,.1-.09.179-.315.314v1.171h1.71c.945-1.1.975-1.11,1.11-1.11.12,0,.15,0,.885.66.51.45.525.495.525.6a.135.135,0,0,1-.15.151h-4.08v1.5Zm-1.5,3.585v-1.381h-4.215a.651.651,0,0,1-.239.165v1.216ZM398.35,520.9H402.8v-1.38H398.35Zm4.454,1.77V521.2H398.35v1.47Z" fill="#1a1311"/>
      <path id="パス_273" data-name="パス 273" d="M409.539,512.714c-.135,0-.165-.046-.165-.181,0-.059.03-.1.165-.135a27.443,27.443,0,0,0,3.825-1.214c.15,0,.225.059.225.179l-.03,3.555v5.851c0,1.094.09,1.3,1.62,1.379.15,0,.165.015.165.15s-.015.135-.165.135c-.69-.03-1.845-.045-2.64-.045-.825,0-1.875.015-2.58.045-.135,0-.149-.015-.149-.135s.014-.15.149-.15c1.425-.075,1.59-.285,1.59-1.379v-7.545a.577.577,0,0,0-.585-.646,2.372,2.372,0,0,0-.344.016Z" fill="#1a1311"/>
      <path id="パス_274" data-name="パス 274" d="M424.524,516.868c0,3.72-1.695,5.835-3.825,5.835-2.115,0-3.764-1.98-3.764-5.7s1.694-5.8,3.809-5.8S424.524,513.148,424.524,516.868Zm-5.355.075c0,4.44.435,5.445,1.545,5.445s1.575-1.005,1.575-5.445-.465-5.429-1.56-5.429S419.169,512.5,419.169,516.943Z" fill="#1a1311"/>
      <path id="パス_275" data-name="パス 275" d="M433.824,516.868c0,3.72-1.7,5.835-3.825,5.835-2.115,0-3.765-1.98-3.765-5.7s1.695-5.8,3.81-5.8S433.824,513.148,433.824,516.868Zm-5.355.075c0,4.44.435,5.445,1.545,5.445s1.575-1.005,1.575-5.445-.465-5.429-1.56-5.429S428.469,512.5,428.469,516.943Z" fill="#1a1311"/>
      <path id="パス_276" data-name="パス 276" d="M446.243,517.889c.795-.96.855-.976,1.02-.976s.24.016,1.02.615c.54.42.57.495.57.63,0,.12-.03.165-.45.555v1.365c0,1.276.06,2.55.06,2.715,0,.45-.48.66-1.305.66-.63,0-.735-.15-.735-.555v-.48h-5.1V523c0,.45-.434.66-1.2.66-.524,0-.66-.15-.66-.555,0-.18.06-1.32.06-2.775v-1.125a19.426,19.426,0,0,1-3.539,1.275c-.091.015-.135-.12-.06-.15a18.768,18.768,0,0,0,5.834-4.229,1.088,1.088,0,0,1-.435.089c-.45,0-.78-.3-.809-.945a1.862,1.862,0,0,0-.631-1.394,14,14,0,0,1-3.644,2.684c-.075.03-.165-.075-.09-.135a13.054,13.054,0,0,0,3.555-5.46,8.031,8.031,0,0,0,.285-.96c2.474.661,2.639.736,2.639.991,0,.165-.134.3-.75.45a5.749,5.749,0,0,1-.36.54h2.8c.96-1.11,1.035-1.155,1.2-1.155s.285.03,1.275.8c.63.479.7.6.7.78,0,.21-.12.314-.855.644a17.446,17.446,0,0,1-4.8,4.861Zm-4.95-5.625a12.678,12.678,0,0,1-1.065,1.229c1.306.016,2.25.6,2.25,1.561a.87.87,0,0,1-.044.269,14.753,14.753,0,0,0,2.039-3.059Zm5.13,9.854v-3.93H441.5c-.045.045-.1.09-.18.15v3.78Z" fill="#1a1311"/>
      <path id="パス_277" data-name="パス 277" d="M460.958,516.9a.271.271,0,0,1-.2.225,4.894,4.894,0,0,0,1.1,1.981,14.283,14.283,0,0,0,.615-1.366,4.413,4.413,0,0,0,.225-.675c1.605.795,1.725.885,1.725,1.1,0,.151-.075.21-.51.255-.54.33-1.155.691-1.755,1.005a9.307,9.307,0,0,0,3.075,2.04c.09.03.06.18-.03.2a2.7,2.7,0,0,0-1.38,1.005.47.47,0,0,1-.36.24.456.456,0,0,1-.315-.15,6.8,6.8,0,0,1-1.755-2.235,8.491,8.491,0,0,1-.8-3.345l-.06.016.165,2.609c.09,1.425.09,1.89.09,2.43a1.575,1.575,0,0,1-.93,1.6,2.428,2.428,0,0,1-1.05.225c-.254,0-.39-.135-.45-.4-.12-.51-.33-.885-1.275-1.14-.09-.029-.09-.15,0-.15.63-.03,1.08-.075,1.455-.12.435-.06.45-.225.45-.81v-1.485c-.69.63-1.53,1.3-2.61,2.161-.119.329-.179.4-.344.4s-.241-.1-1.065-1.875c.449-.09.75-.165,1.02-.239.6-.165,1.98-.571,3-.976v-.18c0-.7-.015-1.634-.045-2.34h-2.534a1,1,0,0,1-.091.375c1.591.015,2.205.72,2.205,1.35a.854.854,0,0,1-.885.93.718.718,0,0,1-.75-.735,1.728,1.728,0,0,0-.66-1.38.892.892,0,0,1-.735.375c-.375,0-.645-.209-.66-.855a2.233,2.233,0,0,0-.435-1.574v.779c0,5.715.06,6.765.06,7.17s-.465.63-1.2.63c-.57,0-.661-.15-.661-.525,0-.42.091-1.65.121-3.645l.029-1.965a11.23,11.23,0,0,1-1.889,2.731c-.06.059-.2-.031-.15-.106a19.337,19.337,0,0,0,1.784-6.675h-.149a10.223,10.223,0,0,0-1.47.106l-.151-.511a12.127,12.127,0,0,0,1.621.106h.375c0-2.026-.016-2.835-.076-3.616,2.19.181,2.326.3,2.326.571,0,.15-.076.269-.571.479v2.566h.046c.719-1.14.764-1.17.884-1.17s.181.014.706.615c.435.51.479.555.479.675a.169.169,0,0,1-.165.179H454.4v1.395c1.261.15,1.89.705,1.995,1.426h2.49v-1.636h-.75a10.5,10.5,0,0,0-1.47.1l-.15-.509a12.386,12.386,0,0,0,1.62.1h.75v-.854c0-.241-.015-.526-.03-.781h-.915a14.623,14.623,0,0,0-1.574.106l-.151-.511a16.169,16.169,0,0,0,1.725.106h2.115c.225-.736.42-1.441.615-2.281.045-.179.075-.359.12-.644,1.89.54,2.16.675,2.16.915,0,.21-.18.285-.645.389-.57.646-1.02,1.125-1.5,1.621h1.5c.885-1.125.93-1.185,1.035-1.185.135,0,.18.029.78.644.48.48.57.571.57.675a.144.144,0,0,1-.165.165H461c-.03.09-.135.165-.345.285v1.35h.87c.825-1.05.885-1.109.99-1.109s.2.045.735.585c.42.42.525.524.525.644a.17.17,0,0,1-.165.18h-2.955V516.6h1.9c.885-1.156.93-1.17,1.035-1.17s.15.014.78.63c.48.479.57.569.57.674,0,.121-.06.165-.165.165Zm-3.885-6.87c1.575.061,2.475.811,2.475,1.59a1.006,1.006,0,0,1-.989,1.021.761.761,0,0,1-.766-.811,2.184,2.184,0,0,0-.779-1.665C456.938,510.1,456.983,510.028,457.073,510.028Z" fill="#1a1311"/>
    </g>
    <g id="グループ_47" data-name="グループ 47">
      <path id="パス_278" data-name="パス 278" d="M493.789,524.94c2.508,0,2.971-.429,4.027-3.4a.3.3,0,0,1,.329-.231c.265,0,.4.1.4.33-.33,1.716-1.354,5.478-1.947,7.26-2.41-.065-4.555-.065-7.064-.065-2.607,0-4.917,0-7.228.065-.264,0-.4-.032-.4-.593a1.541,1.541,0,0,1,.2-.924,33.353,33.353,0,0,1,6.04-8.714c3.763-4.225,4.522-5.842,4.522-8.614,0-3.4-1.617-4.984-3.829-4.984-1.518,0-3.069,1.057-3.069,2.244,0,.331.066.43.528.727a2.3,2.3,0,0,1-1.254,4.29,2.426,2.426,0,0,1-2.575-2.508c0-2.8,3.565-5.643,7.657-5.643,4.555,0,7.427,2.474,7.427,5.808s-1.09,5.248-7.162,9.44c-4.291,2.969-5.248,4.026-6.139,5.511Z" fill="#1a1311"/>
      <path id="パス_279" data-name="パス 279" d="M517.615,516.656c0,8.185-3.729,12.839-8.416,12.839-4.654,0-8.284-4.356-8.284-12.542s3.729-12.772,8.383-12.772S517.615,508.471,517.615,516.656Zm-11.783.165c0,9.77.958,11.981,3.4,11.981s3.466-2.211,3.466-11.981-1.023-11.948-3.433-11.948S505.832,507.052,505.832,516.821Z" fill="#1a1311"/>
      <path id="パス_280" data-name="パス 280" d="M532.365,511.408c0,4.39-2.739,7.426-6.138,7.426-3.367,0-6.106-2.838-6.106-7.228,0-4.356,2.805-7.425,6.171-7.425S532.365,507.085,532.365,511.408Zm-8.515.1c0,4.819.594,6.766,2.41,6.766s2.376-1.947,2.376-6.766c0-4.785-.594-6.766-2.376-6.766C524.444,504.741,523.85,506.722,523.85,511.507Zm1.155,18.747,16.7-27.229.891.561-16.7,27.229Zm22.543-8.186c0,4.39-2.74,7.427-6.139,7.427-3.367,0-6.106-2.839-6.106-7.228,0-4.357,2.8-7.426,6.172-7.426S547.548,517.745,547.548,522.068Zm-8.516.1c0,4.818.594,6.766,2.41,6.766s2.376-1.948,2.376-6.766c0-4.786-.594-6.766-2.376-6.766C539.626,515.4,539.032,517.382,539.032,522.168Z" fill="#1a1311"/>
      <path id="パス_281" data-name="パス 281" d="M574.442,516.392c0,7.723-5.611,13.1-12.178,13.1s-12.113-5.083-12.113-12.806,5.643-13.07,12.179-13.07S574.442,508.669,574.442,516.392Zm-18.714.165c0,8.119,2.542,12.178,6.568,12.178s6.568-4.059,6.568-12.178-2.574-12.179-6.568-12.179S555.728,508.438,555.728,516.557Z" fill="#1a1311"/>
      <path id="パス_282" data-name="パス 282" d="M584.472,525.271c0,2.342.165,2.871,3.333,3.036.3,0,.33.066.33.33,0,.231-.033.263-.33.263-1.584-.065-3.862-.1-5.677-.1-1.782,0-3.961.033-5.38.1-.3,0-.33-.032-.33-.263,0-.264.033-.3.33-.33,2.707-.165,3.1-.694,3.1-3.036v-17.46c0-2.343-.363-2.838-3.333-3.037-.3-.033-.331-.066-.331-.3,0-.265.033-.3.331-.3,2.706.065,6.039.1,9.01.1,3.069,0,6.436-.033,9.307-.1.2,1.715.594,4.785.825,6.5,0,.263-.165.362-.462.362-.132,0-.2-.1-.264-.264a9.3,9.3,0,0,0-2.772-3.993,7.368,7.368,0,0,0-5.182-1.618c-2.343,0-2.508.33-2.508,2.607v7.757c.495.033.858.033,1.353.033a6.825,6.825,0,0,0,4.027-.924,3.781,3.781,0,0,0,1.518-2.508c.065-.33.1-.364.4-.364s.33.034.33.364c-.034,1.155-.034,2.706-.034,3.894,0,1.221,0,2.871.034,4.092,0,.3-.034.33-.33.33s-.331-.032-.4-.33a4.671,4.671,0,0,0-1.552-2.8c-.627-.495-1.914-.858-3.993-.858-.495,0-.858,0-1.353.033Z" fill="#1a1311"/>
      <path id="パス_283" data-name="パス 283" d="M605.493,525.271c0,2.342.165,2.871,3.333,3.036.3,0,.33.066.33.33,0,.231-.033.263-.33.263-1.584-.065-3.862-.1-5.677-.1-1.782,0-3.961.033-5.38.1-.3,0-.33-.032-.33-.263,0-.264.033-.3.33-.33,2.707-.165,3.1-.694,3.1-3.036v-17.46c0-2.343-.363-2.838-3.333-3.037-.3-.033-.331-.066-.331-.3,0-.265.033-.3.331-.3,2.706.065,6.039.1,9.01.1,3.069,0,6.436-.033,9.307-.1.2,1.715.594,4.785.825,6.5,0,.263-.165.362-.462.362-.132,0-.2-.1-.264-.264a9.3,9.3,0,0,0-2.772-3.993A7.368,7.368,0,0,0,608,505.17c-2.343,0-2.508.33-2.508,2.607v7.757c.495.033.858.033,1.353.033a6.819,6.819,0,0,0,4.026-.924,3.778,3.778,0,0,0,1.519-2.508c.065-.33.1-.364.4-.364s.33.034.33.364c-.034,1.155-.034,2.706-.034,3.894,0,1.221,0,2.871.034,4.092,0,.3-.034.33-.33.33s-.331-.032-.4-.33a4.666,4.666,0,0,0-1.552-2.8c-.627-.495-1.914-.858-3.993-.858-.495,0-.858,0-1.353.033Z" fill="#1a1311"/>
    </g>
  </g>
</svg>
