<svg xmlns="http://www.w3.org/2000/svg" width="364" height="80" viewBox="0 0 364 80">
  <g id="グループ_969" data-name="グループ 969" transform="translate(-410.103 -441.804)">
    <rect id="長方形_3" data-name="長方形 3" width="364" height="80" rx="38.944" transform="translate(410.103 441.804)" fill="#fff" opacity="0.601"/>
    <path id="パス_200" data-name="パス 200" d="M649.031,449.3h86.291c16.969,0,30.724,14.511,30.724,32.411v.177c0,17.9-13.755,32.412-30.724,32.412H448.884c-16.968,0-30.723-14.512-30.723-32.412v-.177c0-17.9,13.755-32.411,30.723-32.411h86.292" fill="none" stroke="#000" stroke-miterlimit="10" stroke-width="0.929"/>
    <g id="グループ_40" data-name="グループ 40">
      <path id="パス_201" data-name="パス 201" d="M540.165,453.075h.537a3.6,3.6,0,0,0,.384,1.174,3.042,3.042,0,0,0,.711.885,3.084,3.084,0,0,0,.986.559,3.668,3.668,0,0,0,1.21.2,2.613,2.613,0,0,0,1.7-.507,1.683,1.683,0,0,0,.623-1.378,1.768,1.768,0,0,0-.123-.667,1.737,1.737,0,0,0-.413-.587,3.8,3.8,0,0,0-.776-.558,12.838,12.838,0,0,0-1.225-.6,13.6,13.6,0,0,1-1.508-.754,4.307,4.307,0,0,1-.971-.754,2.347,2.347,0,0,1-.515-.834,3.349,3.349,0,0,1,.087-2.24,2.881,2.881,0,0,1,.674-.979,3.021,3.021,0,0,1,1.03-.637,3.634,3.634,0,0,1,1.3-.225,3.424,3.424,0,0,1,1.189.2,4.121,4.121,0,0,1,1.116.653l.377-.653h.333l.16,2.886h-.537a3.658,3.658,0,0,0-1.007-1.769,2.328,2.328,0,0,0-1.588-.58,2.131,2.131,0,0,0-1.407.435,1.448,1.448,0,0,0-.521,1.175,1.629,1.629,0,0,0,.116.63,1.578,1.578,0,0,0,.377.537,3.738,3.738,0,0,0,.681.507,9.437,9.437,0,0,0,1.044.53,18.861,18.861,0,0,1,1.783.891,5.7,5.7,0,0,1,1.131.827,2.441,2.441,0,0,1,.595.87,2.849,2.849,0,0,1,.174,1.022,3.032,3.032,0,0,1-1.1,2.378,3.763,3.763,0,0,1-1.247.674,5.054,5.054,0,0,1-1.595.239,4.479,4.479,0,0,1-1.486-.231,4.584,4.584,0,0,1-1.342-.784l-.405.711h-.334Z"/>
      <path id="パス_202" data-name="パス 202" d="M552.3,449.842h.058a3.974,3.974,0,0,1,1-.87,2.388,2.388,0,0,1,1.247-.32,3.8,3.8,0,0,1,1.515.3,3.6,3.6,0,0,1,1.2.834,3.838,3.838,0,0,1,.79,1.269,4.667,4.667,0,0,1-.007,3.22,3.762,3.762,0,0,1-.8,1.254,3.6,3.6,0,0,1-1.2.812,3.9,3.9,0,0,1-1.508.289,3.113,3.113,0,0,1-1.21-.225,2.967,2.967,0,0,1-1.023-.731v2.116a5.863,5.863,0,0,0,.058.929,1.025,1.025,0,0,0,.232.536.939.939,0,0,0,.5.261,4.7,4.7,0,0,0,.863.087v.508h-4.466V459.6a3.158,3.158,0,0,0,.7-.087.79.79,0,0,0,.421-.261,1.118,1.118,0,0,0,.21-.515,4.977,4.977,0,0,0,.058-.848v-5.423q0-.842-.022-1.377a3.715,3.715,0,0,0-.079-.74.622.622,0,0,0-.334-.471,2.639,2.639,0,0,0-.986-.123v-.493l2.784-.552Zm.435.42a2.19,2.19,0,0,0-.283.688,4.659,4.659,0,0,0-.094,1.037v1.131c0,.262.008.487.022.675a3.579,3.579,0,0,0,.065.485,1.737,1.737,0,0,0,.116.363,1.434,1.434,0,0,0,.189.3,2.383,2.383,0,0,0,.8.718,2,2,0,0,0,.972.254,1.915,1.915,0,0,0,1.617-.841,3.942,3.942,0,0,0,.616-2.363,5.254,5.254,0,0,0-.167-1.371,3.453,3.453,0,0,0-.471-1.059,2.288,2.288,0,0,0-.732-.688,1.875,1.875,0,0,0-.951-.246,1.984,1.984,0,0,0-.963.239A2.036,2.036,0,0,0,552.737,450.262Z"/>
      <path id="パス_203" data-name="パス 203" d="M567.251,455.134a3.812,3.812,0,0,1-3.059,1.493,4.1,4.1,0,0,1-1.552-.282,3.474,3.474,0,0,1-1.2-.8,3.6,3.6,0,0,1-.776-1.232,4.414,4.414,0,0,1-.275-1.588,4.531,4.531,0,0,1,.29-1.638,3.691,3.691,0,0,1,.819-1.291,3.8,3.8,0,0,1,1.262-.841,4.131,4.131,0,0,1,1.6-.3,2.667,2.667,0,0,1,2.943,2.944c0,.136-.026.218-.079.247a.982.982,0,0,1-.37.043h-4.77a1.819,1.819,0,0,0-.044.283c-.01.111-.014.234-.014.369a4.833,4.833,0,0,0,.181,1.37,3.1,3.1,0,0,0,.522,1.052,2.393,2.393,0,0,0,.812.674,2.28,2.28,0,0,0,1.051.239,2.447,2.447,0,0,0,1.131-.267,3.931,3.931,0,0,0,1.073-.878Zm-2.392-3.915c.193,0,.348-.005.464-.015a.735.735,0,0,0,.261-.057.227.227,0,0,0,.116-.123.642.642,0,0,0,.029-.211,1.388,1.388,0,0,0-.428-1.066,1.647,1.647,0,0,0-1.167-.4q-1.566,0-1.943,1.87Z"/>
      <path id="パス_204" data-name="パス 204" d="M575.908,455.279a3.5,3.5,0,0,1-1.349.994,4.476,4.476,0,0,1-1.783.354,3.494,3.494,0,0,1-1.414-.282,3.2,3.2,0,0,1-1.109-.8,3.606,3.606,0,0,1-.718-1.239,4.857,4.857,0,0,1-.253-1.61,4.575,4.575,0,0,1,.29-1.674,3.651,3.651,0,0,1,.819-1.277,3.555,3.555,0,0,1,1.276-.811,4.6,4.6,0,0,1,1.646-.284,5.161,5.161,0,0,1,1.029.1,3.367,3.367,0,0,1,.8.261,1.482,1.482,0,0,1,.529.406.814.814,0,0,1,.189.515.555.555,0,0,1-.189.449.779.779,0,0,1-.522.159.811.811,0,0,1-.435-.108,1.963,1.963,0,0,1-.449-.485,1.972,1.972,0,0,0-.559-.472,1.5,1.5,0,0,0-.688-.138,1.751,1.751,0,0,0-1.559.8,4.264,4.264,0,0,0-.53,2.349,4.5,4.5,0,0,0,.588,2.53,1.946,1.946,0,0,0,1.718.862,2.776,2.776,0,0,0,1.146-.239,3.834,3.834,0,0,0,1.087-.775Z"/>
      <path id="パス_205" data-name="パス 205" d="M580.229,454.177a6.228,6.228,0,0,0,.051.906,1.174,1.174,0,0,0,.195.537.732.732,0,0,0,.406.268,3,3,0,0,0,.7.087v.508h-4.161v-.508a2.952,2.952,0,0,0,.71-.094.855.855,0,0,0,.428-.261,1.017,1.017,0,0,0,.2-.508,5.586,5.586,0,0,0,.05-.834v-1.855c0-.561-.006-1.022-.021-1.385a3.809,3.809,0,0,0-.08-.747.611.611,0,0,0-.333-.457,2.638,2.638,0,0,0-.986-.123V449.2l2.842-.551Zm-1.668-8.468a.893.893,0,1,1,.261.638A.868.868,0,0,1,578.561,445.709Z"/>
      <path id="パス_206" data-name="パス 206" d="M587.508,451.568v-.6q0-1.77-1.508-1.77a1.754,1.754,0,0,0-.421.044.7.7,0,0,0-.29.145.94.94,0,0,0-.21.29,3.133,3.133,0,0,0-.181.464,1.523,1.523,0,0,1-.312.558.737.737,0,0,1-1.167-.587,1.184,1.184,0,0,1,.739-1.08,4.637,4.637,0,0,1,2.1-.385,3.214,3.214,0,0,1,2.059.515,2.185,2.185,0,0,1,.609,1.747v3.248q0,1.655.652,1.654a1.5,1.5,0,0,0,.392-.051.548.548,0,0,0,.319-.269l.2.349a1.327,1.327,0,0,1-.637.557,2.191,2.191,0,0,1-.972.225,1.124,1.124,0,0,1-.95-.405,1.846,1.846,0,0,1-.312-1.146h-.072a2.875,2.875,0,0,1-1.044,1.123,2.742,2.742,0,0,1-1.479.414,2.085,2.085,0,0,1-1.435-.464,1.581,1.581,0,0,1-.522-1.247,1.827,1.827,0,0,1,.123-.666,1.854,1.854,0,0,1,.4-.61,3.717,3.717,0,0,1,.725-.573,8.662,8.662,0,0,1,1.1-.572Zm0,.623a12.79,12.79,0,0,0-1.4.623,4.882,4.882,0,0,0-.92.609,2.056,2.056,0,0,0-.5.609,1.392,1.392,0,0,0-.152.623,1.034,1.034,0,0,0,.319.784,1.168,1.168,0,0,0,.841.3,1.387,1.387,0,0,0,.7-.188,1.937,1.937,0,0,0,.573-.515,2.609,2.609,0,0,0,.392-.768,3.006,3.006,0,0,0,.145-.936Z"/>
      <path id="パス_207" data-name="パス 207" d="M594.09,454.221a7.123,7.123,0,0,0,.044.884,1.127,1.127,0,0,0,.181.522.7.7,0,0,0,.392.261,2.821,2.821,0,0,0,.674.087v.508h-4v-.508a2.756,2.756,0,0,0,.7-.094.868.868,0,0,0,.413-.254.95.95,0,0,0,.2-.485,5.292,5.292,0,0,0,.051-.82v-6.25q0-.781-.022-1.312a4.764,4.764,0,0,0-.065-.718.589.589,0,0,0-.341-.449,2.74,2.74,0,0,0-.964-.116v-.492l2.74-.538Z"/>
      <path id="パス_208" data-name="パス 208" d="M607.952,445.173a6.225,6.225,0,0,1,2.378.449,5.971,5.971,0,0,1,1.914,1.233,5.673,5.673,0,0,1,1.74,4.132,5.241,5.241,0,0,1-.471,2.2,5.664,5.664,0,0,1-1.283,1.79,6.1,6.1,0,0,1-1.914,1.2,6.554,6.554,0,0,1-4.727,0,6.079,6.079,0,0,1-1.914-1.2,5.651,5.651,0,0,1-1.284-1.79,5.242,5.242,0,0,1-.471-2.2,5.673,5.673,0,0,1,1.74-4.132,5.972,5.972,0,0,1,1.914-1.233A6.225,6.225,0,0,1,607.952,445.173Zm0,10.657a4.226,4.226,0,0,0,1.718-.334,3.63,3.63,0,0,0,1.3-.957,4.272,4.272,0,0,0,.834-1.514,6.441,6.441,0,0,0,.29-1.995,7.062,7.062,0,0,0-.29-2.094,4.712,4.712,0,0,0-.826-1.6,3.645,3.645,0,0,0-1.3-1.015,4.373,4.373,0,0,0-3.452,0,3.633,3.633,0,0,0-1.3,1.015,4.7,4.7,0,0,0-.827,1.6,7.062,7.062,0,0,0-.29,2.094,6.441,6.441,0,0,0,.29,1.995,4.342,4.342,0,0,0,.827,1.514,3.55,3.55,0,0,0,1.3.957A4.286,4.286,0,0,0,607.952,455.83Z"/>
      <path id="パス_209" data-name="パス 209" d="M615.709,449.029h1.639v-1.043a3.654,3.654,0,0,1,.877-2.6,3.262,3.262,0,0,1,2.5-.936,3.349,3.349,0,0,1,1.465.276c.377.183.566.421.566.711a.686.686,0,0,1-.182.485.6.6,0,0,1-.457.2.756.756,0,0,1-.369-.109,3.728,3.728,0,0,1-.515-.369,2.97,2.97,0,0,0-.566-.4,1.139,1.139,0,0,0-.478-.093,1.286,1.286,0,0,0-1.247.884,2.433,2.433,0,0,0-.181.71,10.208,10.208,0,0,0-.051,1.161v1.13h2.334v.682h-2.334v4.437a4.97,4.97,0,0,0,.065.884,1.268,1.268,0,0,0,.232.559.85.85,0,0,0,.457.29,3.291,3.291,0,0,0,.754.094v.508H616.1v-.508a3.06,3.06,0,0,0,.652-.079.657.657,0,0,0,.378-.247,1.129,1.129,0,0,0,.174-.507,7.182,7.182,0,0,0,.043-.878v-4.553h-1.639Z"/>
      <path id="パス_210" data-name="パス 210" d="M622.263,449.029H623.9v-1.043a3.654,3.654,0,0,1,.878-2.6,3.259,3.259,0,0,1,2.5-.936,3.347,3.347,0,0,1,1.464.276c.377.183.566.421.566.711a.685.685,0,0,1-.182.485.593.593,0,0,1-.456.2.76.76,0,0,1-.37-.109,3.731,3.731,0,0,1-.515-.369,3,3,0,0,0-.565-.4,1.143,1.143,0,0,0-.479-.093,1.286,1.286,0,0,0-1.247.884,2.435,2.435,0,0,0-.181.71,10.208,10.208,0,0,0-.051,1.161v1.13H627.6v.682h-2.334v4.437a4.976,4.976,0,0,0,.065.884,1.269,1.269,0,0,0,.232.559.857.857,0,0,0,.457.29,3.291,3.291,0,0,0,.754.094v.508h-4.118v-.508a3.051,3.051,0,0,0,.652-.079.654.654,0,0,0,.378-.247,1.13,1.13,0,0,0,.174-.507,6.977,6.977,0,0,0,.043-.878v-4.553h-1.638Z"/>
      <path id="パス_211" data-name="パス 211" d="M636.066,455.134a3.813,3.813,0,0,1-3.059,1.493,4.1,4.1,0,0,1-1.552-.282,3.474,3.474,0,0,1-1.2-.8,3.606,3.606,0,0,1-.776-1.232,4.416,4.416,0,0,1-.275-1.588,4.531,4.531,0,0,1,.29-1.638,3.691,3.691,0,0,1,.819-1.291,3.809,3.809,0,0,1,1.261-.841,4.139,4.139,0,0,1,1.6-.3,2.667,2.667,0,0,1,2.943,2.944c0,.136-.026.218-.079.247a.982.982,0,0,1-.37.043h-4.77a1.7,1.7,0,0,0-.044.283c-.01.111-.014.234-.014.369a4.833,4.833,0,0,0,.181,1.37,3.1,3.1,0,0,0,.522,1.052,2.393,2.393,0,0,0,.812.674,2.28,2.28,0,0,0,1.051.239,2.448,2.448,0,0,0,1.131-.267,3.931,3.931,0,0,0,1.073-.878Zm-2.392-3.915c.193,0,.348-.005.464-.015a.735.735,0,0,0,.261-.057.231.231,0,0,0,.116-.123.642.642,0,0,0,.029-.211,1.388,1.388,0,0,0-.428-1.066,1.647,1.647,0,0,0-1.167-.4q-1.566,0-1.943,1.87Z"/>
      <path id="パス_212" data-name="パス 212" d="M640.6,454.177c0,.4.01.711.029.942a1.109,1.109,0,0,0,.152.53.58.58,0,0,0,.355.239,3.914,3.914,0,0,0,.653.087v.508h-3.857v-.508a3.133,3.133,0,0,0,.667-.079.67.67,0,0,0,.377-.24,1.027,1.027,0,0,0,.167-.5,8.367,8.367,0,0,0,.036-.877v-1.7q0-.986-.022-1.537a2.2,2.2,0,0,0-.145-.811.52.52,0,0,0-.384-.313,4.085,4.085,0,0,0-.725-.051v-.507l2.538-.551.2,1.8h.057a3.611,3.611,0,0,1,.472-.8,3.4,3.4,0,0,1,.616-.617,2.97,2.97,0,0,1,.7-.4,1.97,1.97,0,0,1,.739-.146,1.111,1.111,0,0,1,.733.225.748.748,0,0,1,.268.6.694.694,0,0,1-.217.544.9.9,0,0,1-.624.2,1.147,1.147,0,0,1-.392-.059,2.084,2.084,0,0,1-.282-.123l-.232-.123a.5.5,0,0,0-.24-.058,1.057,1.057,0,0,0-.782.5,3.636,3.636,0,0,0-.61,1.268,6.766,6.766,0,0,0-.181.949,9.211,9.211,0,0,0-.065,1.11Z"/>
    </g>
    <g id="グループ_43" data-name="グループ 43">
      <g id="グループ_41" data-name="グループ 41">
        <path id="パス_213" data-name="パス 213" d="M442.064,484.6c0,1.742.013,3.536.013,4.511,0,.365-.285.534-1.053.534-.533,0-.611-.091-.611-.469,0-.26.078-1.664.117-3.5l.039-1.82a19.5,19.5,0,0,1-1.95,1.119c-.065.038-.156-.066-.091-.118a13.684,13.684,0,0,0,3.68-4.576h-1.847a11.776,11.776,0,0,0-1.56.091l-.117-.442a14.372,14.372,0,0,0,1.677.09h.156v-1.26a10.519,10.519,0,0,0-.065-1.3c1.989.208,2.106.311,2.106.48,0,.118-.065.235-.507.391v1.689h.117c.585-.74.664-.793.754-.793.118,0,.169.027.728.508.495.429.534.493.534.637s-.092.2-.52.351a8.773,8.773,0,0,1-1.56,1.924c.233.078.3.143.3.208,0,.091-.065.156-.338.286v.546l.352.04a13.709,13.709,0,0,0,.793-1.691c.051-.117.1-.286.155-.442,1.274.741,1.352.832,1.352.975s-.1.208-.481.234c-.571.442-.987.741-1.364,1.014.987.247,1.456.845,1.456,1.456a.766.766,0,0,1-.742.806c-.441,0-.611-.221-.7-.727a2.269,2.269,0,0,0-.819-1.5Zm6.488-5.4c.65-.676.7-.715.8-.715.131,0,.183.026.755.52.493.428.507.481.507.585s-.014.13-.377.428c-.039,4.512-.2,6.761-.469,7.762a2.216,2.216,0,0,1-1.976,1.794c-.312,0-.455-.1-.52-.364a1.78,1.78,0,0,0-1.313-1.287c-.078-.026-.078-.143,0-.143a6.856,6.856,0,0,0,1.5.013c.391-.052.664-.234.846-1.118.169-.793.351-2.3.351-7.215H447.5c0,.13-.079.221-.338.325.012,3.328-.326,5.408-1.236,6.9a6.338,6.338,0,0,1-3.6,2.834c-.077.027-.143-.078-.077-.117a5.933,5.933,0,0,0,2.587-3.289c.52-1.365.767-3.159.688-6.656h-.351a12.648,12.648,0,0,0-1.365.091l-.13-.442a13.97,13.97,0,0,0,1.495.091Z"/>
        <path id="パス_214" data-name="パス 214" d="M456.6,488.418c-.065,0-.1-.026-.1-.065s.013-.051.09-.078a7.891,7.891,0,0,0,3-1.742,3.846,3.846,0,0,0,1.235-2.756,2.335,2.335,0,0,0-2.08-2.418,23.605,23.605,0,0,1-1.833,3.38,4.421,4.421,0,0,0,.39.3.953.953,0,0,1,.468.832.609.609,0,0,1-.65.6A1.614,1.614,0,0,1,456,485.9a5.914,5.914,0,0,1-.637.624,2.5,2.5,0,0,1-1.548.742c-.61,0-1.183-.4-1.183-1.548a4.626,4.626,0,0,1,1.756-3.393,5.285,5.285,0,0,0-.742-2.223c-.039-.052-.039-.052-.039-.079s.026-.038.079-.038a1.537,1.537,0,0,1,.494.221,1.954,1.954,0,0,1,.65.572,3.229,3.229,0,0,1,.455.949,6.96,6.96,0,0,1,2.262-.728,6.414,6.414,0,0,0,.26-1.573c0-.286-.117-.377-.442-.416-.053-.013-.065-.039-.065-.065s0-.039.039-.065a1.538,1.538,0,0,1,.754-.26c.221,0,.4.078.793.429.429.389.455.611.455.741a.83.83,0,0,1-.065.312c-.117.286-.235.533-.377.858a3.721,3.721,0,0,1,3.458,3.484,3.218,3.218,0,0,1-1.989,2.9,10.605,10.605,0,0,1-3.744,1.079Zm-3-3c0,.429.1.624.428.624.222,0,.585-.1,1.313-.975a7.216,7.216,0,0,1-.793-2.028A3.651,3.651,0,0,0,453.6,485.415Zm3.757-3.952a4.823,4.823,0,0,0-1.9.793,6.938,6.938,0,0,0,.714,1.651A16.918,16.918,0,0,0,457.353,481.463Z"/>
        <path id="パス_215" data-name="パス 215" d="M467.024,482.412a.9.9,0,0,1-.6.26,1.948,1.948,0,0,1-1.1-.676c-.338-.351-.481-.507-.481-.832,0-.221.014-.286.065-.286a.209.209,0,0,1,.117.052,1.16,1.16,0,0,0,.689.247,4.148,4.148,0,0,0,.872-.156c1.793-.52,3.666-1.131,4.914-1.573a3.75,3.75,0,0,0,.871-.4.615.615,0,0,1,.416-.1,4.128,4.128,0,0,1,1.248.454c.325.17.507.339.507.7s-.3.481-.962.481a3.918,3.918,0,0,0-1.846.494,3.375,3.375,0,0,0-2.21,3.211,2.66,2.66,0,0,0,1.768,2.354,7.085,7.085,0,0,0,1.261.363c.689.156,1.144.52,1.144,1.054s-.338.754-.936.754a4.259,4.259,0,0,1-2.549-1.041,3.619,3.619,0,0,1-1.429-2.782,5.943,5.943,0,0,1,1.9-4.1C469.56,481.281,468.156,481.879,467.024,482.412Z"/>
        <path id="パス_216" data-name="パス 216" d="M479.673,487.054a.77.77,0,0,1-.637.363,1.037,1.037,0,0,1-.65-.4,1.421,1.421,0,0,1-.481-.82,1.148,1.148,0,0,1,.078-.338c.026-.051.052-.078.091-.078a.107.107,0,0,1,.078.027.852.852,0,0,0,.481.233,1.542,1.542,0,0,0,.663-.26c.728-.377,1.4-.754,1.989-1.053v-2.275c-.077.026-.156.052-.246.078a8.088,8.088,0,0,1-1.223.26.754.754,0,0,1-.455-.143,3.236,3.236,0,0,1-.962-1.053c-.039-.065-.039-.065-.039-.091s.026-.039.091-.013a1.634,1.634,0,0,0,.65.143,6.6,6.6,0,0,0,1.131-.182c.338-.091.7-.208,1.04-.325,0-.351,0-.715-.013-1.066s-.012-.611-.13-.741a.849.849,0,0,0-.52-.208c-.078-.013-.129-.039-.129-.065s.025-.066.077-.1a1.812,1.812,0,0,1,.871-.455,1.47,1.47,0,0,1,.781.3c.4.247.494.39.494.572a.63.63,0,0,1-.105.325c-.117.221-.13.364-.142,1.079a2.842,2.842,0,0,0,.52-.247c.7-.013,1.078.247,1.078.52,0,.4-.208.52-.624.676-.325.13-.65.247-1,.364-.012.715-.026,1.417-.026,2.132a1.42,1.42,0,0,1,.195-.091,6.059,6.059,0,0,1,2.588-.65c1.742,0,2.834.949,2.834,2.133a2.213,2.213,0,0,1-2.5,2.131A3.472,3.472,0,0,1,483,486.52c-.025-.026-.013-.065.013-.065a.076.076,0,0,1,.052.013,3.49,3.49,0,0,0,1.535.273c1.287,0,2.08-.663,2.08-1.612,0-.793-.585-1.183-1.534-1.183a5.1,5.1,0,0,0-2.328.949,4.108,4.108,0,0,0-.429.287c0,.272,0,.793.013,1.065s.014.429.014.611a3.724,3.724,0,0,1-.027.534c-.1.9-.493,1.3-.962,1.3-.247,0-.389-.09-.572-.624a2.522,2.522,0,0,0-1.065-1.1Zm.273-.235a3.594,3.594,0,0,0,.95.182c.194,0,.337-.065.351-.546,0-.221.012-.441.012-.663C480.8,486.117,480.376,486.468,479.946,486.819Zm5.889-4.719c-.051,0-.078-.026-.078-.065s0-.039.039-.065c.82-.533,1.119-.858,1.119-1.066,0-.364-.664-.988-1.482-.988h-.169c-.065,0-.1-.026-.1-.065s.026-.052.1-.091a2.514,2.514,0,0,1,1.078-.221c1.132,0,2.288.715,2.288,1.638,0,.572-.285.741-.689.741a3.227,3.227,0,0,1-.324-.026c-.13-.013-.273-.026-.39-.026a7.263,7.263,0,0,0-1.366.234Z"/>
        <path id="パス_217" data-name="パス 217" d="M500.1,479.916c.65-.806.7-.832.844-.832s.208.013.846.519c.6.482.637.547.637.69s-.013.169-.378.442v.988c0,2.379.066,3.562.066,3.875,0,.363-.429.506-1.2.506-.507,0-.585-.1-.585-.442v-.442h-2.314c.025,2.366.065,3.6.065,3.861,0,.377-.352.546-1.184.546-.571,0-.689-.052-.689-.468,0-.272.065-1.586.091-3.939h-2.184v.364c0,.507-.351.676-1.04.676-.481,0-.6-.077-.6-.481,0-.208.052-1.429.052-3.9,0-1.248,0-1.729-.052-2.5,1.339.286,1.742.4,1.859.533h1.976a24.442,24.442,0,0,0-.078-2.5c2.094.181,2.249.311,2.249.494,0,.143-.129.233-.481.429v1.573Zm-3.784.26H494.35a.767.767,0,0,1-.234.2V482.4h2.2Zm-.013,4.784c.013-.689.013-1.456.013-2.3h-2.2v2.3Zm1.7-4.784V482.4h2.328v-2.223Zm2.328,4.784v-2.3H498c0,.858,0,1.625.014,2.3Z"/>
        <path id="パス_218" data-name="パス 218" d="M507.064,478.291a2.413,2.413,0,0,1,1,.429c.495.325.7.585.7.819a.714.714,0,0,1-.208.442.851.851,0,0,0-.157.481c-.234,2.821-.324,4.485-.324,5.694s.273,1.547,1.338,1.547a7.143,7.143,0,0,0,2.509-.416,10.42,10.42,0,0,0,2.445-1.183.121.121,0,0,1,.09-.026.06.06,0,0,1,.066.052c0,.026,0,.026-.026.065a7.381,7.381,0,0,1-2.444,1.989,6.04,6.04,0,0,1-2.7.742c-1.9,0-2.64-.586-2.64-3.03,0-1.612.13-4.082.183-5.9.012-.352.012-.442.012-.494,0-.3-.039-.416-.182-.533a1.55,1.55,0,0,0-.572-.26c-.052-.013-.065-.039-.065-.078a.087.087,0,0,1,.052-.078A2.161,2.161,0,0,1,507.064,478.291Z"/>
        <path id="パス_219" data-name="パス 219" d="M524.38,478.486c.689-.78.741-.832.884-.832s.3.091.716.416.493.429.493.559-.1.221-1.182.52a6.57,6.57,0,0,0,1.182,3.692,9.1,9.1,0,0,0,3.173,2.808c.064.039.064.13-.014.143a2.993,2.993,0,0,0-1.611,1.054c-.118.142-.234.259-.352.259a.559.559,0,0,1-.325-.182,7.244,7.244,0,0,1-1.755-2.873,11.889,11.889,0,0,1-.351-1.352,9.383,9.383,0,0,1-3.926,4.5,1.7,1.7,0,0,0,.572.325,9.3,9.3,0,0,0,2.561.2,48.05,48.05,0,0,0,5.409-.324c.078-.014.1.09.039.142a1.811,1.811,0,0,0-.767,1.2c-.04.3-.13.442-.4.455-.338.04-.923.065-2.86.065-2.964,0-3.6-.169-4.264-.715a2.82,2.82,0,0,1-.936-1.508,17.273,17.273,0,0,1-1.82,1.821c-.143.35-.234.455-.377.455s-.351-.208-1.079-1.782a6.675,6.675,0,0,0,.78-.234,10.321,10.321,0,0,0,1.131-.494v-3.666h-.559a5.943,5.943,0,0,0-1.157.091l-.117-.442a7.8,7.8,0,0,0,1.274.091h.4c.65-.767.715-.845.845-.845s.221.026.663.416c.585.507.637.572.637.741,0,.1-.065.182-.416.455v3.094a3.6,3.6,0,0,0,.273.326,11.218,11.218,0,0,0,2.73-5.968,7.954,7.954,0,0,0,.13-1.118c.325.117.676.221.962.338-.026-.495-.052-1.027-.052-1.573l-1.261.038a7.516,7.516,0,0,0-1.378.131l-.156-.442a12.222,12.222,0,0,0,1.521.052Zm-5.928-.716c1.638.183,2.4.95,2.4,1.782a.893.893,0,0,1-.988.975c-.52,0-.728-.338-.767-.975a2.193,2.193,0,0,0-.754-1.651C518.283,477.849,518.374,477.758,518.452,477.77Z"/>
        <path id="パス_220" data-name="パス 220" d="M540.11,482.984a.574.574,0,0,0-.455-.6c-.039-.013-.065-.039-.065-.065s.014-.052.078-.078a2.471,2.471,0,0,1,.611-.143c.2,0,.416.1.885.494.337.325.416.455.416.689a5.458,5.458,0,0,1-.377,1.275,8.815,8.815,0,0,1,1.131.649,1.133,1.133,0,0,1,.584.884.611.611,0,0,1-.675.663c-.274,0-.455-.052-.885-.4-.233-.2-.455-.364-.714-.545a6.328,6.328,0,0,1-2.588,2.586,9.364,9.364,0,0,1-2.548.833c-.039,0-.065,0-.065-.027s.013-.039.039-.052a8.111,8.111,0,0,0,2.47-1.715,7.023,7.023,0,0,0,1.508-2.263,9.6,9.6,0,0,0-2.912-.832,10.782,10.782,0,0,1-1.833,2.457,2.215,2.215,0,0,1-1.391.6c-.455,0-.884-.377-.884-1.223a2.332,2.332,0,0,1,.988-2.015,5.284,5.284,0,0,1,2.275-.741c.585-1.222,1.1-2.431,1.443-3.25a.449.449,0,0,0,.039-.169.1.1,0,0,0-.117-.117,6.913,6.913,0,0,0-1.274.507,1.254,1.254,0,0,1-.559.2c-.234,0-.39-.144-.689-.624a1.482,1.482,0,0,1-.286-.689.655.655,0,0,1,.052-.248c.039-.09.052-.1.078-.1s.039,0,.1.064a1.186,1.186,0,0,0,.715.326,2.787,2.787,0,0,0,.624-.065,4.629,4.629,0,0,0,1.4-.469c.247-.233.338-.35.468-.35.2,0,.364.078.832.442s.533.507.533.676a.519.519,0,0,1-.169.4,3.107,3.107,0,0,0-.3.4c-.727,1.3-1.209,2.21-1.638,3.094a12.339,12.339,0,0,1,2.925.6A3.791,3.791,0,0,0,540.11,482.984Zm-6.214,3.172a8.585,8.585,0,0,0,1.391-1.911,4.057,4.057,0,0,0-1.807.338.99.99,0,0,0-.4.962c0,.546.234.78.4.78A.54.54,0,0,0,533.9,486.156Z"/>
        <path id="パス_221" data-name="パス 221" d="M550.172,488.158a.066.066,0,0,1,.053-.064,7.985,7.985,0,0,0,3.419-2.029,4.271,4.271,0,0,0,1.118-2.808,3.224,3.224,0,0,0-.767-2.3,3.093,3.093,0,0,0-2.445-1.014,5.31,5.31,0,0,0-.636.026,2.293,2.293,0,0,1,.689,1.625,7.92,7.92,0,0,1-2.8,4.966,1.513,1.513,0,0,1-.885.338c-.442,0-.9-.442-1.183-.949a3.778,3.778,0,0,1-.468-1.755,4.5,4.5,0,0,1,2.067-3.666,6.2,6.2,0,0,1,3.354-1,4.964,4.964,0,0,1,3.446,1.325,4.007,4.007,0,0,1,1.3,2.887,3.794,3.794,0,0,1-1.626,3.016,9.249,9.249,0,0,1-4.576,1.47C550.186,488.224,550.172,488.2,550.172,488.158Zm-2.963-4.432a2.266,2.266,0,0,0,.233,1.091.7.7,0,0,0,.572.4c.182,0,.39-.065.7-.416a7.369,7.369,0,0,0,2.029-4.095,1.56,1.56,0,0,0-.13-.676C549.2,480.241,547.209,481.853,547.209,483.726Z"/>
        <path id="パス_222" data-name="パス 222" d="M567.917,479.786c.976-1.17,1.027-1.223,1.17-1.223s.208.014,1.015.742c.467.416.506.494.506.6a.147.147,0,0,1-.155.143h-5.487c-.013.13-.09.273-.364.389-.039.638-.1,1.249-.2,1.821H566.8c.7-.845.781-.91.923-.91s.221.013.988.689c.43.377.468.455.468.6s-.026.208-.454.559c-.17,3.081-.4,3.848-.7,4.563a2.351,2.351,0,0,1-2.341,1.495c-.442,0-.533-.052-.6-.338-.169-.754-.625-1.065-1.5-1.312-.078-.027-.078-.169,0-.169a12.256,12.256,0,0,0,2.106-.027c.351-.039.559-.22.728-.663a14.885,14.885,0,0,0,.573-4.225h-2.627c-.676,3.627-2.639,5.85-5.954,6.773-.078.026-.117-.091-.052-.13,2.249-1.1,4.251-3.861,4.433-8.1a8.765,8.765,0,0,0,0-1.013H560.7c-.468,0-1.066.026-1.781.091l-.117-.442a14.681,14.681,0,0,0,1.9.091h2.912v-1.431a6.964,6.964,0,0,0-.078-.987c2.2.155,2.353.26,2.353.494,0,.13-.065.234-.533.416v1.508Z"/>
        <path id="パス_223" data-name="パス 223" d="M575.744,478.3c.481-.65.532-.663.65-.663s.194.013.832.572c.467.4.506.494.506.624s-.039.169-.532.416c-.677.871-1.158,1.495-1.574,1.989a.176.176,0,0,0,.065.3,3.117,3.117,0,0,1,1.794,2.613,2.187,2.187,0,0,1-.571,1.625,1.9,1.9,0,0,1-1.158.585c-.143,0-.247-.117-.3-.35a1.046,1.046,0,0,0-.585-.846c.012,2.873.025,3.575.025,3.927s-.39.532-1.014.532c-.494,0-.585-.1-.585-.429,0-.364.091-1.339.091-6.149,0-3.705.013-4.433-.091-5.356,1.3.3,1.717.468,1.833.611Zm-.871,6.67a1.079,1.079,0,0,0,1.209-1.223,3.227,3.227,0,0,0-.742-2.054.481.481,0,0,1-.1-.494c.208-.793.4-1.561.638-2.64h-.768a1.015,1.015,0,0,1-.233.183Zm5.94-2.042a6.037,6.037,0,0,0,1.132,2.613c.338-.507.663-1.027.975-1.586a5.367,5.367,0,0,0,.312-.663c1.612,1.054,1.7,1.144,1.7,1.313s-.13.26-.689.234c-.78.4-1.352.7-2.041,1.04.091.092.169.169.247.26a9.181,9.181,0,0,0,2.86,1.951c.078.025.065.116-.013.13a2.175,2.175,0,0,0-1.261.935c-.182.247-.234.3-.351.3-.156,0-.221-.025-.468-.194a5.893,5.893,0,0,1-1.69-1.977c-1.4.754-2.769,1.4-3.926,1.9-.065.234-.2.429-.338.429-.208,0-.3-.142-.936-2.028.286-.013.585-.026.858-.052.233-.026.52-.052.818-.091v-6.76a25.084,25.084,0,0,0-.09-2.847,5.357,5.357,0,0,1,1.911.481h2.288c.585-.637.637-.676.78-.676s.2.026.871.559c.442.351.481.429.481.546s-.026.156-.39.441v.859c0,.975.091,2.418.091,2.691,0,.364-.377.533-1.105.533-.4,0-.572-.065-.6-.338Zm-.936-4.355a.83.83,0,0,1-.3.221v1.625h2.652v-1.846Zm-.3,2.106v1.989h2.652v-1.989Zm0,6.579c.61-.092,1.234-.17,1.794-.261a11.594,11.594,0,0,1-.819-4.069h-.975Z"/>
        <path id="パス_224" data-name="パス 224" d="M593.488,487.417a10.651,10.651,0,0,0,1.69.117,24.16,24.16,0,0,0,3.524-.208c.078-.013.09.105.026.144a1.914,1.914,0,0,0-.949,1.481.382.382,0,0,1-.364.338,16.982,16.982,0,0,1-1.977.039c-2.2,0-3.2-.468-4.017-1.234a4.635,4.635,0,0,1-1.3-2.575,7,7,0,0,1-3.458,4.043c-.065.026-.143-.051-.078-.1,1.066-.871,1.963-2.847,2.145-5.668.026-.312.026-.533.026-.806,1.833.416,2.12.507,2.12.715,0,.117-.092.208-.417.325a6.161,6.161,0,0,1-.221,1.105,3.531,3.531,0,0,0,1.027,1.43,2.456,2.456,0,0,0,.559.377v-3.51c0-.481,0-.871-.039-1.326h-1.638c-.3,0-.858.026-1.469.091l-.13-.442c.637.065,1.222.091,1.6.091h4.277c.806-1.027.832-1.053.936-1.053s.157.013.742.585c.4.39.481.481.481.585s-.091.143-.2.143h-2.614c-.025.078-.09.143-.286.247v2.366h.963c.819-1.092.858-1.131.987-1.131s.169.013.885.689c.35.325.468.455.468.572a.118.118,0,0,1-.13.131h-3.173Zm-4.654-7.644a2.679,2.679,0,0,1,.13.806,1.234,1.234,0,0,1-1.248,1.287.785.785,0,0,1-.845-.819,1.05,1.05,0,0,1,.546-.91,1.32,1.32,0,0,0,.65-1.391c0-.078.091-.091.143-.026a3.455,3.455,0,0,1,.52.793h3v-1.027a7.281,7.281,0,0,0-.078-1.079c2.08.13,2.327.273,2.327.468,0,.156-.065.221-.533.429v1.209h2.639c.689-.742.754-.78.9-.78s.312.077.936.662c.508.482.663.69.663.9,0,.234-.143.364-.61.377a2.794,2.794,0,0,0-.95.13c-.285.1-.506.182-.975.377-.077.026-.116.013-.09-.065.208-.6.3-.91.429-1.339Z"/>
      </g>
      <g id="グループ_42" data-name="グループ 42">
        <path id="パス_225" data-name="パス 225" d="M624.584,492.251c2.736,0,3.24-.468,4.392-3.708a.331.331,0,0,1,.36-.252c.288,0,.432.109.432.361-.36,1.871-1.476,5.974-2.124,7.919-2.628-.073-4.968-.073-7.7-.073-2.844,0-5.364,0-7.883.073-.288,0-.432-.036-.432-.649a1.683,1.683,0,0,1,.216-1.008,36.4,36.4,0,0,1,6.587-9.5c4.1-4.608,4.932-6.372,4.932-9.395,0-3.708-1.764-5.436-4.176-5.436-1.656,0-3.347,1.153-3.347,2.449,0,.359.071.467.575.792a2.505,2.505,0,0,1-1.367,4.678,2.646,2.646,0,0,1-2.808-2.735c0-3.06,3.887-6.155,8.351-6.155,4.967,0,8.1,2.7,8.1,6.335s-1.188,5.723-7.811,10.295c-4.68,3.239-5.724,4.391-6.7,6.011Z"/>
        <path id="パス_226" data-name="パス 226" d="M650.575,483.216c0,8.927-4.068,14-9.179,14-5.075,0-9.035-4.751-9.035-13.678s4.068-13.93,9.143-13.93S650.575,474.289,650.575,483.216Zm-12.85.18c0,10.655,1.044,13.066,3.707,13.066s3.78-2.411,3.78-13.066-1.116-13.03-3.744-13.03S637.725,472.742,637.725,483.4Z"/>
        <path id="パス_227" data-name="パス 227" d="M666.667,477.493c0,4.788-2.988,8.1-6.7,8.1-3.672,0-6.659-3.1-6.659-7.884,0-4.751,3.059-8.1,6.731-8.1S666.667,472.778,666.667,477.493Zm-9.287.108c0,5.255.648,7.379,2.628,7.379s2.591-2.124,2.591-7.379c0-5.22-.647-7.379-2.591-7.379C658.028,470.222,657.38,472.381,657.38,477.6Zm1.26,20.445,18.214-29.7.971.612-18.213,29.7Zm24.585-8.926c0,4.787-2.988,8.1-6.695,8.1-3.672,0-6.659-3.1-6.659-7.883,0-4.751,3.059-8.1,6.731-8.1S683.225,484.4,683.225,489.12Zm-9.287.107c0,5.256.648,7.38,2.628,7.38s2.591-2.124,2.591-7.38c0-5.219-.648-7.379-2.591-7.379C674.586,481.848,673.938,484.008,673.938,489.227Z"/>
        <path id="パス_228" data-name="パス 228" d="M708.582,485c0,6.788-4.931,11.516-10.7,11.516s-10.646-4.467-10.646-11.255,4.961-11.486,10.7-11.486S708.582,478.213,708.582,485Zm-16.447.146c0,7.136,2.234,10.7,5.773,10.7s5.772-3.567,5.772-10.7-2.262-10.7-5.772-10.7S692.135,478.01,692.135,485.146Z"/>
        <path id="パス_229" data-name="パス 229" d="M717.4,492.8c0,2.06.145,2.524,2.929,2.669.262,0,.29.058.29.29,0,.2-.028.233-.29.233-1.392-.059-3.393-.088-4.989-.088-1.566,0-3.48.029-4.728.088-.261,0-.29-.03-.29-.233,0-.232.029-.261.29-.29,2.379-.145,2.727-.609,2.727-2.669V477.458c0-2.059-.319-2.494-2.93-2.668-.261-.029-.29-.058-.29-.261,0-.232.029-.261.29-.261,2.379.058,5.309.087,7.919.087,2.7,0,5.656-.029,8.18-.087.174,1.508.522,4.206.725,5.714,0,.232-.145.319-.406.319-.116,0-.174-.087-.232-.231a8.17,8.17,0,0,0-2.437-3.511,6.479,6.479,0,0,0-4.554-1.421c-2.059,0-2.2.29-2.2,2.292v6.817c.435.028.754.028,1.189.028a5.994,5.994,0,0,0,3.539-.812,3.317,3.317,0,0,0,1.334-2.205c.058-.29.087-.318.348-.318s.29.028.29.318c-.028,1.016-.028,2.379-.028,3.423,0,1.073,0,2.524.028,3.6,0,.26-.028.29-.29.29s-.29-.03-.348-.29a4.1,4.1,0,0,0-1.363-2.466,5.972,5.972,0,0,0-3.51-.755c-.435,0-.754,0-1.189.029Z"/>
        <path id="パス_230" data-name="パス 230" d="M735.867,492.8c0,2.06.145,2.524,2.93,2.669.261,0,.29.058.29.29,0,.2-.029.233-.29.233-1.392-.059-3.394-.088-4.989-.088-1.567,0-3.481.029-4.728.088-.261,0-.29-.03-.29-.233,0-.232.029-.261.29-.29,2.378-.145,2.726-.609,2.726-2.669V477.458c0-2.059-.319-2.494-2.929-2.668-.261-.029-.29-.058-.29-.261,0-.232.029-.261.29-.261,2.379.058,5.308.087,7.919.087,2.7,0,5.656-.029,8.18-.087.174,1.508.522,4.206.725,5.714,0,.232-.145.319-.406.319-.116,0-.174-.087-.232-.231a8.177,8.177,0,0,0-2.437-3.511,6.479,6.479,0,0,0-4.554-1.421c-2.06,0-2.205.29-2.205,2.292v6.817c.435.028.755.028,1.19.028a5.992,5.992,0,0,0,3.538-.812,3.315,3.315,0,0,0,1.335-2.205c.058-.29.087-.318.348-.318s.29.028.29.318c-.029,1.016-.029,2.379-.029,3.423,0,1.073,0,2.524.029,3.6,0,.26-.029.29-.29.29s-.29-.03-.348-.29a4.1,4.1,0,0,0-1.363-2.466,5.974,5.974,0,0,0-3.51-.755c-.435,0-.755,0-1.19.029Z"/>
      </g>
    </g>
  </g>
</svg>
