<svg xmlns="http://www.w3.org/2000/svg" width="220" height="220" viewBox="0 0 220 220">
  <g id="グループ_43" data-name="グループ 43" transform="translate(-54.475 -351.582)">
    <circle id="楕円形_53" data-name="楕円形 53" cx="110" cy="110" r="110" transform="translate(54.475 351.582)" fill="#fff" opacity="0.598"/>
    <g id="グループ_39" data-name="グループ 39">
      <path id="パス_184" data-name="パス 184" d="M108.766,516.484c1.007-.2,1.067-.163,1.176-.062s.172.179.288,1.248c.092.779.05.9-.061,1.019s-.182.124-.856-.068c-1.379.234-2.365.405-3.178.511-.185.031-.262.139-.2.336a3.957,3.957,0,0,1-.563,3.983,2.777,2.777,0,0,1-1.93,1.029,2.419,2.419,0,0,1-1.584-.445c-.133-.123-.131-.321.022-.585a1.33,1.33,0,0,0,.178-1.292c-2.454,2.7-3.044,3.366-3.345,3.7s-.822.164-1.406-.372c-.462-.423-.458-.6-.179-.9.312-.341,1.234-1.175,5.361-5.674a67.8,67.8,0,0,0,4.51-5.089c.96,1.4,1.2,1.911,1.191,2.145Zm.772,8.679a7.636,7.636,0,0,0-1.184,3.415c.751-.184,1.5-.391,2.272-.646a6.912,6.912,0,0,0,.861-.353c.605,2.368.612,2.531.467,2.69s-.345.13-.846-.373c-1.075-.292-1.867-.5-2.8-.779.007.163.013.3.008.455a11.64,11.64,0,0,0,1,4.279c.051.091-.04.165-.124.11a2.77,2.77,0,0,0-1.982-.206c-.382.075-.476.079-.585-.022-.146-.133-.185-.213-.271-.584a7.5,7.5,0,0,1,.115-3.3c-1.961-.5-3.795-1.063-5.3-1.593-.261.163-.55.234-.684.111-.194-.179-.157-.39.865-2.7.278.233.569.477.847.687.241.177.531.4.844.618l5.8-6.324a31.349,31.349,0,0,0,2.358-2.741A6.811,6.811,0,0,1,112.573,520l2.14,1.964c1.094-.095,1.176-.086,1.31.036s.16.192.335,1.271c.113.708.082.814-.018.923s-.158.123-.744.079l-.737.8c-.836.912-1.989,2.341-2.223,2.6-.313.341-.81.176-1.491-.449-.377-.346-.479-.552-.27-.829Zm-7.309-3.187a1.368,1.368,0,0,0,2.179-.107,4.094,4.094,0,0,0,1.07-2.556.606.606,0,0,1,.326-.552c.875-.564,1.716-1.114,2.86-1.922l-.717-.658a1.35,1.35,0,0,1-.376-.031Zm2.439,6.177c.649.44,1.3.9,1.9,1.3a14.784,14.784,0,0,1,2.725-4.509l-.912-.836ZM110.312,522l-1.707,1.86,2.481,2.276,1.707-1.861Zm2.086-1.714a1.073,1.073,0,0,1-.469-.05l-1.394,1.521,2.481,2.275,1.584-1.726Z" fill="#1a1311"/>
      <path id="パス_185" data-name="パス 185" d="M119.546,539.221a13.55,13.55,0,0,0,1.767,1.224,30.616,30.616,0,0,0,3.977,2.06c.093.036.031.173-.065.173a2.435,2.435,0,0,0-2,1,.486.486,0,0,1-.616.132,21.61,21.61,0,0,1-2.18-1.24c-2.4-1.426-3.183-2.586-3.579-3.954a5.867,5.867,0,0,1,.253-3.65,8.886,8.886,0,0,1-6.4,2.164c-.087-.015-.122-.151-.017-.164,1.728-.258,3.989-1.831,6.018-4.789.231-.323.374-.564.552-.862,1.728,1.644,1.981,1.928,1.846,2.156-.076.127-.234.167-.665.084a7.78,7.78,0,0,1-.958,1.061,4.473,4.473,0,0,0,.192,2.226,3.1,3.1,0,0,0,.364.774l2.279-3.828c.312-.524.565-.949.818-1.471l-1.786-1.063c-.326-.193-.953-.528-1.661-.855l.145-.565c.653.483,1.274.892,1.685,1.137l4.664,2.776c1.545-.6,1.59-.608,1.7-.541s.161.115.428,1.119c.186.687.212.837.145.95s-.193.1-.306.03l-2.849-1.7c-.079.069-.192.1-.472.084l-1.536,2.58,1.049.624c1.6-.659,1.67-.676,1.812-.591s.175.124.516,1.325c.172.582.215.8.139.927a.147.147,0,0,1-.226.057l-3.459-2.058Zm-.113-11.357a3.413,3.413,0,0,1-.382.964,1.566,1.566,0,0,1-2.2.593,1,1,0,0,1-.39-1.442,1.334,1.334,0,0,1,1.186-.637,1.675,1.675,0,0,0,1.612-1.095c.05-.085.158-.04.173.065a4.423,4.423,0,0,1,.052,1.2l3.275,1.949.666-1.12a9.19,9.19,0,0,0,.615-1.228c2.184,1.492,2.361,1.809,2.234,2.022-.1.17-.214.2-.86.121l-.784,1.318,2.877,1.713c1.233-.36,1.329-.36,1.485-.268s.289.288.59,1.331c.241.853.276,1.181.141,1.408-.152.256-.393.3-.911.014a3.536,3.536,0,0,0-1.119-.473c-.38-.072-.671-.131-1.308-.223-.1-.021-.136-.061-.057-.13.615-.516.917-.8,1.336-1.181Z" fill="#1a1311"/>
      <path id="パス_186" data-name="パス 186" d="M132.354,541.685a1.594,1.594,0,0,1-.862-2.019,1.552,1.552,0,0,1,2.88,1.156A1.6,1.6,0,0,1,132.354,541.685Z" fill="#1a1311"/>
      <path id="パス_187" data-name="パス 187" d="M149.471,544.366c1.564-1.176,1.66-1.22,1.821-1.183s.265.1.978,1.178c.462.7.52.818.493.93s-.121.158-.25.128l-4.643-1.089c-.055.156-.157.234-.524.352l-1.025,4.37c-.1.434-.007.609,1.021.849,1.253.295,1.506.3,1.954.052a7.3,7.3,0,0,0,2.014-2.223.085.085,0,0,1,.153.07c-.208.6-.546,1.533-.66,1.947a1.291,1.291,0,0,0,.013.953,1.266,1.266,0,0,1,.134.946c-.2.836-1.117,1.078-4.154.366-2.7-.634-3.075-1.2-2.744-2.611.094-.4.637-2.426.969-3.84.2-.836.308-1.386.39-1.808l-2.04-.479c1.067.505,1.2.723,1.173.852-.045.193-.128.258-.527.368-1.152,3.9-3.9,5.73-8.209,5.3-.1-.007-.111-.179-.007-.188,2.807-.189,5.155-1.961,6.1-5.994.045-.193.1-.4.135-.646l-2.1-.494c-.562-.132-1.148-.236-2.083-.37l-.033-.584c.552.18.982.3,1.328.413a15.709,15.709,0,0,0,2.423-4.551c.112-.33.27-.717.391-1.162,2.154,1.081,2.65,1.35,2.59,1.607-.042.177-.2.291-.852.309a10.253,10.253,0,0,1-.754,1.044l2.073.486.241-1.028a19.112,19.112,0,0,0,.434-2.357c2.435.826,2.709,1.026,2.657,1.25-.042.177-.18.263-.68.367l-.531,2.265,1.687.4c1.476-1.162,1.572-1.208,1.733-1.17s.213.1.827,1.024c.5.762.557.877.519,1.037a.14.14,0,0,1-.2.123l-4.643-1.088-.739,3.149Zm-6.781-4.913A9.838,9.838,0,0,1,139.449,542c.189.061.382.106.558.147l4.194.984.739-3.149Z" fill="#1a1311"/>
      <path id="パス_188" data-name="パス 188" d="M167.055,545c1.1-1.227,1.137-1.242,1.3-1.238.148,0,.2.021,1.052.818.516.491.548.542.545.657a.148.148,0,0,1-.169.161l-7.868-.2c-.037.148-.172.26-.569.316a8.791,8.791,0,0,1-.889,1.215.822.822,0,0,1,.292.205l4.4.111c.814-.871.881-.9,1.046-.9.181.005.263.04,1.04.654.615.477.679.578.676.71s-.072.213-.509.532l-.015.594c-.056,2.243-.02,4.126-.03,4.521-.012.479-.6.761-1.455.739-.626-.015-.721-.2-.711-.611l.007-.265-4.9-.122-.006.247c-.015.594-.367.8-1.488.773-.429-.011-.557-.2-.547-.559.013-.528.066-1.336.162-3.2l.069-1.45a16.037,16.037,0,0,1-4.278,2.764c-.1.031-.178-.12-.094-.166a16.245,16.245,0,0,0,4.907-6.183l-1.913-.048c-.577-.015-1.221,0-2.164.062l-.151-.566c1.087.11,1.746.159,2.323.174l3.893.1.041-1.65-2.359-.059a17,17,0,0,0-1.8.07l-.15-.565c.855.1,1.448.152,1.959.165l2.359.059.018-.725c.007-.282,0-.612-.01-.909l-3.5-.088a17.1,17.1,0,0,0-1.8.072l-.151-.566c.856.1,1.449.152,1.96.164l2.376.06a.853.853,0,0,1-.265-.617,1.975,1.975,0,0,0-.836-1.589c-.081-.052-.028-.166.071-.163,1.8.012,2.738.728,2.718,1.5a.985.985,0,0,1-.484.9l1.666.042a17.174,17.174,0,0,0,.65-1.6,6.924,6.924,0,0,0,.253-.869c2.179.666,2.357.8,2.351,1.016s-.139.294-.753.41c-.672.512-1.025.767-1.495,1.069l2.705.068c1.069-1.179,1.1-1.194,1.251-1.19.132,0,.165,0,.956.75.548.508.563.558.56.673a.149.149,0,0,1-.169.162l-5.624-.141c0,.115-.1.2-.356.338l-.032,1.286,1.881.048c1.069-1.179,1.1-1.2,1.251-1.191.132,0,.165,0,.955.75.548.509.563.559.56.674a.147.147,0,0,1-.169.161l-4.486-.112-.041,1.649Zm-1.843,7.7.04-1.617-4.9-.122-.041,1.616Zm-4.85-2.069,4.9.122.038-1.517-4.9-.123Zm4.945-1.725.038-1.517-4.635-.116a.71.71,0,0,1-.269.174l-.033,1.336Z" fill="#1a1311"/>
      <path id="パス_189" data-name="パス 189" d="M172.652,541.339c-.147.02-.187-.025-.207-.171-.009-.065.016-.119.159-.173a30.231,30.231,0,0,0,3.981-1.907q.246-.035.273.162l.51,3.877.893,6.374c.167,1.192.3,1.408,1.975,1.256.163-.023.182-.009.2.139.018.13,0,.149-.159.171-.757.074-2.017.233-2.884.354-.9.126-2.04.3-2.8.443-.148.021-.166.007-.184-.124-.021-.147-.007-.166.14-.186,1.541-.3,1.689-.554,1.522-1.746l-1.152-8.221a.633.633,0,0,0-.735-.613,2.8,2.8,0,0,0-.374.069Z" fill="#1a1311"/>
      <path id="パス_190" data-name="パス 190" d="M189.562,542.592c1.014,3.966-.216,6.682-2.487,7.262-2.255.578-4.554-1.083-5.568-5.049s.224-6.652,2.479-7.228S188.548,538.626,189.562,542.592Zm-5.688,1.539c1.21,4.733,1.948,5.686,3.131,5.384s1.4-1.5.195-6.235-1.976-5.662-3.144-5.363S182.663,539.4,183.874,544.131Z" fill="#1a1311"/>
      <path id="パス_191" data-name="パス 191" d="M199.294,538.91c1.495,3.812.608,6.659-1.574,7.515-2.166.849-4.652-.516-6.147-4.326s-.6-6.628,1.571-7.478S197.8,535.1,199.294,538.91Zm-5.456,2.229c1.785,4.549,2.634,5.4,3.771,4.957s1.209-1.662-.574-6.21-2.659-5.376-3.78-4.936S192.055,536.591,193.838,541.139Z" fill="#1a1311"/>
      <path id="パス_192" data-name="パス 192" d="M212,533.13c.2-1.357.249-1.405.4-1.5s.234-.122,1.31,0c.747.087.818.141.9.267s.066.173-.107.779l.777,1.285c.727,1.2,1.51,2.365,1.6,2.52.256.423-.076.9-.852,1.365-.593.358-.778.277-1.008-.1l-.274-.452-4.8,2.9.333.551c.256.424-.034.869-.753,1.3-.494.3-.707.234-.938-.147-.1-.169-.695-1.276-1.524-2.645l-.641-1.059a21.408,21.408,0,0,1-2.6,3.217c-.077.065-.2-.036-.142-.107a20.633,20.633,0,0,0,3.08-7.3,1.184,1.184,0,0,1-.358.332c-.423.257-.9.162-1.3-.428a2.047,2.047,0,0,0-1.388-.953,15.391,15.391,0,0,1-1.9,4.6c-.053.071-.2.023-.162-.077a14.353,14.353,0,0,0,.235-7.162,8.717,8.717,0,0,0-.279-1.066c2.7-.788,2.9-.812,3.049-.572.094.155.044.359-.45.85a6.025,6.025,0,0,1-.031.714l2.639-1.6c.271-1.591.316-1.676.472-1.77s.285-.135,1.652.021c.867.093,1.006.164,1.108.332.12.2.067.366-.437,1.094a19.167,19.167,0,0,1-1.748,7.308Zm-7.862-2.474a14.241,14.241,0,0,1-.3,1.765c1.236-.73,2.459-.718,3.006.185a.937.937,0,0,1,.111.281,16.131,16.131,0,0,0,.176-4.042Zm10.442,6.351-2.239-3.7-4.63,2.8a2.394,2.394,0,0,1-.084.243l2.154,3.557Z" fill="#1a1311"/>
      <path id="パス_193" data-name="パス 193" d="M224.157,521.788a.3.3,0,0,1,.01.327,5.351,5.351,0,0,0,2.359.792,15.844,15.844,0,0,0-.516-1.564,4.818,4.818,0,0,0-.32-.715c1.893-.549,2.057-.565,2.213-.4.112.121.1.226-.224.586-.192.669-.423,1.418-.675,2.12a10.259,10.259,0,0,0,4.01-.632c.095-.043.182.1.121.179a2.968,2.968,0,0,0-.372,1.842.515.515,0,0,1-.113.462.5.5,0,0,1-.367.112,7.481,7.481,0,0,1-3.085-.506,9.345,9.345,0,0,1-3.132-2.122l-.038.058,2.075,1.993c1.133,1.088,1.479,1.465,1.88,1.9a1.73,1.73,0,0,1,.439,1.992,2.663,2.663,0,0,1-.683.964.474.474,0,0,1-.666.005c-.477-.324-.926-.471-1.882.025-.1.042-.184-.055-.111-.122.488-.493.819-.864,1.09-1.18.308-.372.2-.517-.237-.991l-1.1-1.2c-.091,1.024-.27,2.2-.51,3.692.148.357.156.462.022.585s-.273.094-2.258-.728c.3-.408.485-.692.648-.954.364-.579,1.182-1.933,1.708-3.02l-.134-.147c-.524-.571-1.228-1.314-1.777-1.863l-2.055,1.885a1.081,1.081,0,0,1,.206.371c1.3-1.17,2.323-1.056,2.792-.545a.94.94,0,0,1-.026,1.412.79.79,0,0,1-1.155-.038,1.9,1.9,0,0,0-1.561-.629.988.988,0,0,1-.317.851c-.3.279-.679.309-1.171-.2-.582-.586-1.056-.956-1.524-.953l.58.631c4.25,4.634,5.079,5.441,5.38,5.769s.092.856-.5,1.4c-.462.424-.647.369-.925.066-.313-.341-1.155-1.406-2.614-3.045l-1.437-1.615a12.279,12.279,0,0,1,.5,3.619c0,.092-.18.12-.2.026a21.306,21.306,0,0,0-3.517-6.739l-.122.111a11.382,11.382,0,0,0-1.113,1.179l-.5-.3a13.336,13.336,0,0,0,1.391-1.119l.3-.278c-1.5-1.643-2.12-2.288-2.749-2.876,1.91-1.483,2.108-1.486,2.309-1.267.112.122.14.275-.1.814l1.907,2.079.037-.034c-.264-1.46-.25-1.517-.152-1.606s.156-.122,1.028-.026c.732.09.8.093.892.19a.189.189,0,0,1,0,.269l-1.582,1.45,1.038,1.131c1.133-.815,2.056-.833,2.677-.328l2.019-1.852-1.216-1.325-.608.557a11.376,11.376,0,0,0-1.114,1.179l-.5-.3a13.359,13.359,0,0,0,1.392-1.119l.608-.557-.636-.694c-.179-.194-.4-.414-.6-.61l-.742.681a16.121,16.121,0,0,0-1.2,1.256l-.5-.3a17.661,17.661,0,0,0,1.477-1.2l1.715-1.572c-.365-.764-.731-1.48-1.2-2.306-.1-.179-.207-.348-.382-.612,1.933-.968,2.252-1.059,2.431-.865.156.171.066.365-.233.8.017.947.01,1.671-.011,2.429l1.216-1.116c-.119-1.57-.128-1.652-.042-1.73.109-.1.168-.11,1.112-.057.746.032.885.038.964.123a.159.159,0,0,1-.011.257l-2.858,2.621c.042.1.013.235-.068.487l1,1.095.705-.646c-.112-1.465-.108-1.559-.022-1.637s.191-.108,1.03-.072c.653.028.816.035.906.133a.187.187,0,0,1,0,.268l-2.4,2.2,1.216,1.327,1.544-1.417c-.141-1.595-.116-1.64-.03-1.718s.132-.1,1.1-.07c.746.033.886.039.965.124a.159.159,0,0,1-.012.256Zm-8.258-2.681c1.321-1.123,2.609-1.183,3.189-.551a1.105,1.105,0,0,1-.045,1.563.835.835,0,0,1-1.222-.088,2.4,2.4,0,0,0-1.87-.769C215.845,519.269,215.826,519.174,215.9,519.107Z" fill="#1a1311"/>
    </g>
    <path id="パス_194" data-name="パス 194" d="M237.149,389.455a102.39,102.39,0,1,1-145.5.154" fill="none" stroke="#1a1311" stroke-miterlimit="10" stroke-width="1"/>
    <g id="グループ_40" data-name="グループ 40">
      <path id="パス_195" data-name="パス 195" d="M109.526,383.047l.531-.335a4.2,4.2,0,0,0,1.117.923,3.521,3.521,0,0,0,2.584.367,4.244,4.244,0,0,0,1.321-.565,3.074,3.074,0,0,0,1.364-1.567,1.982,1.982,0,0,0-.245-1.757,2.094,2.094,0,0,0-.54-.584,2.035,2.035,0,0,0-.777-.322,4.418,4.418,0,0,0-1.118-.067,14.59,14.59,0,0,0-1.586.179,16.178,16.178,0,0,1-1.967.2,4.979,4.979,0,0,1-1.434-.139,2.756,2.756,0,0,1-1.032-.5,3.606,3.606,0,0,1-.782-.9,3.659,3.659,0,0,1-.535-1.371,3.388,3.388,0,0,1,.055-1.394,3.587,3.587,0,0,1,.62-1.277,4.287,4.287,0,0,1,1.152-1.041,4.006,4.006,0,0,1,1.305-.545,4.783,4.783,0,0,1,1.515-.052l-.036-.885.331-.209,1.965,2.761-.532.336a4.3,4.3,0,0,0-2.105-1.122,2.72,2.72,0,0,0-1.936.421,2.5,2.5,0,0,0-1.122,1.314,1.7,1.7,0,0,0,.219,1.491,1.928,1.928,0,0,0,.51.552,1.886,1.886,0,0,0,.709.3,4.525,4.525,0,0,0,.993.076,10.929,10.929,0,0,0,1.365-.131,21.859,21.859,0,0,1,2.326-.234,6.606,6.606,0,0,1,1.638.11,2.907,2.907,0,0,1,1.134.488,3.363,3.363,0,0,1,.812.9,3.558,3.558,0,0,1,.4,3.047,4.422,4.422,0,0,1-.813,1.452,5.917,5.917,0,0,1-1.43,1.236,5.232,5.232,0,0,1-1.618.7,5.328,5.328,0,0,1-1.819.064l.043.959-.33.209Z" fill="#1a1311"/>
      <path id="パス_196" data-name="パス 196" d="M120,372.494l.061-.03a4.679,4.679,0,0,1,.625-1.423,2.79,2.79,0,0,1,1.162-.963,4.441,4.441,0,0,1,1.755-.446,4.209,4.209,0,0,1,1.685.286,4.456,4.456,0,0,1,1.472.949,5.179,5.179,0,0,1,1.1,1.556,5.109,5.109,0,0,1,.5,1.861,4.405,4.405,0,0,1-.218,1.728,4.176,4.176,0,0,1-.869,1.465,4.564,4.564,0,0,1-1.453,1.064,3.726,3.726,0,0,1-1.4.369,3.522,3.522,0,0,1-1.45-.264l1.059,2.244a6.936,6.936,0,0,0,.526.955,1.188,1.188,0,0,0,.514.452,1.1,1.1,0,0,0,.661.027,5.745,5.745,0,0,0,.958-.34l.254.536-4.733,2.239-.254-.537a3.7,3.7,0,0,0,.7-.445.931.931,0,0,0,.316-.487,1.324,1.324,0,0,0-.035-.652,5.951,5.951,0,0,0-.363-.928l-2.713-5.75q-.42-.891-.712-1.45a4.254,4.254,0,0,0-.455-.744.727.727,0,0,0-.589-.332,3.076,3.076,0,0,0-1.106.362l-.246-.522,2.674-1.979Zm.671.228a2.56,2.56,0,0,0,.045.871,5.389,5.389,0,0,0,.419,1.147l.565,1.2q.2.414.361.7a4.527,4.527,0,0,0,.312.482,2,2,0,0,0,.3.325,1.61,1.61,0,0,0,.353.229,2.787,2.787,0,0,0,1.2.362,2.347,2.347,0,0,0,1.156-.218,2.249,2.249,0,0,0,1.293-1.7,4.62,4.62,0,0,0-.529-2.815,6.176,6.176,0,0,0-.862-1.369,4,4,0,0,0-1.029-.886,2.636,2.636,0,0,0-1.121-.363,2.176,2.176,0,0,0-1.13.215,2.341,2.341,0,0,0-.9.736A2.394,2.394,0,0,0,120.675,372.722Z" fill="#1a1311"/>
      <path id="パス_197" data-name="パス 197" d="M138.526,371.818a4.476,4.476,0,0,1-2.843,2.8,4.772,4.772,0,0,1-1.829.266,4.054,4.054,0,0,1-1.627-.438,4.188,4.188,0,0,1-1.322-1.08,5.181,5.181,0,0,1-.9-1.661,5.3,5.3,0,0,1-.289-1.93,4.323,4.323,0,0,1,.428-1.739,4.468,4.468,0,0,1,1.087-1.408,4.86,4.86,0,0,1,1.667-.938,3.125,3.125,0,0,1,4.37,2.171c.051.151.052.251,0,.3a1.138,1.138,0,0,1-.4.186l-5.3,1.784a2.056,2.056,0,0,0,.058.33,4.311,4.311,0,0,0,.122.416,5.66,5.66,0,0,0,.713,1.456,3.657,3.657,0,0,0,.972.974,2.835,2.835,0,0,0,1.154.445,2.689,2.689,0,0,0,1.258-.127,2.874,2.874,0,0,0,1.157-.721,4.6,4.6,0,0,0,.864-1.377Zm-4.122-3.455c.215-.073.385-.136.51-.191a.825.825,0,0,0,.269-.162.252.252,0,0,0,.083-.179.762.762,0,0,0-.046-.245,1.629,1.629,0,0,0-.874-1.025,1.935,1.935,0,0,0-1.445-.007q-1.74.587-1.461,2.807Z" fill="#1a1311"/>
      <path id="パス_198" data-name="パス 198" d="M148.055,369.77a4.09,4.09,0,0,1-1.289,1.482,5.272,5.272,0,0,1-1.949.863,4.1,4.1,0,0,1-1.691.038,3.794,3.794,0,0,1-1.473-.629,4.2,4.2,0,0,1-1.138-1.235,5.661,5.661,0,0,1-.7-1.777,5.387,5.387,0,0,1-.1-1.99,4.271,4.271,0,0,1,.611-1.67,4.158,4.158,0,0,1,1.252-1.254,5.4,5.4,0,0,1,1.81-.746,6.174,6.174,0,0,1,1.2-.155,3.849,3.849,0,0,1,.988.094,1.734,1.734,0,0,1,.709.329.953.953,0,0,1,.348.541.656.656,0,0,1-.1.562.924.924,0,0,1-.557.316.961.961,0,0,1-.525-.013,2.336,2.336,0,0,1-.64-.441,2.268,2.268,0,0,0-.759-.4,1.739,1.739,0,0,0-.823.019,2.048,2.048,0,0,0-1.579,1.31,5,5,0,0,0,0,2.822,5.283,5.283,0,0,0,1.32,2.746,2.285,2.285,0,0,0,2.187.547,3.281,3.281,0,0,0,1.25-.567,4.539,4.539,0,0,0,1.046-1.165Z" fill="#1a1311"/>
      <path id="パス_199" data-name="パス 199" d="M152.581,367.862a7.547,7.547,0,0,0,.2,1.045,1.385,1.385,0,0,0,.313.591.865.865,0,0,0,.514.248,3.637,3.637,0,0,0,.823-.01l.08.59-4.833.658-.082-.589a3.418,3.418,0,0,0,.811-.223.979.979,0,0,0,.455-.371,1.2,1.2,0,0,0,.155-.621,6.647,6.647,0,0,0-.074-.976l-.3-2.156q-.135-.977-.247-1.6a4.454,4.454,0,0,0-.211-.856.717.717,0,0,0-.461-.476,3.063,3.063,0,0,0-1.164.012l-.081-.589,3.213-1.09Zm-3.288-9.572a1.043,1.043,0,0,1,.9-1.187,1.054,1.054,0,1,1,.287,2.089,1.046,1.046,0,0,1-1.188-.9Z" fill="#1a1311"/>
      <path id="パス_200" data-name="パス 200" d="M160.694,364.132l-.035-.7q-.108-2.072-1.873-1.983a2.063,2.063,0,0,0-.49.075.806.806,0,0,0-.331.187,1.116,1.116,0,0,0-.228.352,3.627,3.627,0,0,0-.185.555,1.769,1.769,0,0,1-.331.67.738.738,0,0,1-.51.188.752.752,0,0,1-.892-.807,1.386,1.386,0,0,1,.8-1.308,5.446,5.446,0,0,1,2.439-.572,3.763,3.763,0,0,1,2.442.482,2.561,2.561,0,0,1,.819,2.01l.2,3.8q.1,1.935.863,1.9a1.751,1.751,0,0,0,.455-.082.638.638,0,0,0,.358-.333l.259.395a1.575,1.575,0,0,1-.714.692,2.592,2.592,0,0,1-1.124.32,1.32,1.32,0,0,1-1.137-.42,2.171,2.171,0,0,1-.434-1.323l-.085,0a3.37,3.37,0,0,1-1.154,1.377,3.246,3.246,0,0,1-1.707.571,2.45,2.45,0,0,1-1.709-.46,1.858,1.858,0,0,1-.686-1.43,2.135,2.135,0,0,1,.1-.788,2.18,2.18,0,0,1,.43-.737,4.431,4.431,0,0,1,.815-.712,10.178,10.178,0,0,1,1.256-.735Zm.037.73a15.391,15.391,0,0,0-1.6.811,5.8,5.8,0,0,0-1.042.768,2.422,2.422,0,0,0-.549.741,1.626,1.626,0,0,0-.14.74,1.213,1.213,0,0,0,.42.9,1.369,1.369,0,0,0,1,.307,1.6,1.6,0,0,0,.812-.261,2.255,2.255,0,0,0,.641-.636,3.089,3.089,0,0,0,.411-.923,3.476,3.476,0,0,0,.114-1.1Z" fill="#1a1311"/>
      <path id="パス_201" data-name="パス 201" d="M168.351,367.263a8.26,8.26,0,0,0,.017,1.037,1.309,1.309,0,0,0,.192.62.823.823,0,0,0,.449.321,3.34,3.34,0,0,0,.787.128l-.02.594-4.689-.156.019-.6a3.235,3.235,0,0,0,.82-.083,1.017,1.017,0,0,0,.494-.281,1.127,1.127,0,0,0,.256-.56,6.2,6.2,0,0,0,.091-.959l.24-7.324q.03-.916.025-1.538a5.426,5.426,0,0,0-.049-.843.689.689,0,0,0-.382-.54,3.217,3.217,0,0,0-1.126-.174l.019-.578,3.232-.521Z" fill="#1a1311"/>
      <path id="パス_202" data-name="パス 202" d="M186.182,358.837a7.314,7.314,0,0,1,2.619,1.088,7.031,7.031,0,0,1,1.9,1.875,6.706,6.706,0,0,1,1.017,2.42,6.613,6.613,0,0,1-.023,2.74,6.145,6.145,0,0,1-1.075,2.415,6.67,6.67,0,0,1-1.906,1.745,7.138,7.138,0,0,1-2.488.919A7.662,7.662,0,0,1,180.8,370.9a7.1,7.1,0,0,1-1.9-1.841,6.62,6.62,0,0,1-1.038-2.363,6.114,6.114,0,0,1-.007-2.642,6.6,6.6,0,0,1,1.088-2.516,6.753,6.753,0,0,1,1.91-1.806,7.039,7.039,0,0,1,2.495-.952A7.312,7.312,0,0,1,186.182,358.837ZM183.6,371.062a4.986,4.986,0,0,0,2.053.031,4.307,4.307,0,0,0,1.729-.783,5.04,5.04,0,0,0,1.324-1.538,7.541,7.541,0,0,0,.816-2.216,8.277,8.277,0,0,0,.175-2.473,5.537,5.537,0,0,0-.561-2.03,4.248,4.248,0,0,0-1.252-1.478,5.137,5.137,0,0,0-3.96-.832,4.264,4.264,0,0,0-1.743.85,5.537,5.537,0,0,0-1.335,1.632,8.269,8.269,0,0,0-.841,2.332,7.564,7.564,0,0,0-.15,2.359,5.118,5.118,0,0,0,.58,1.936,4.177,4.177,0,0,0,1.267,1.412A5.014,5.014,0,0,0,183.6,371.062Z" fill="#1a1311"/>
      <path id="パス_203" data-name="パス 203" d="M194.459,365.606l1.815.629.4-1.156a4.289,4.289,0,0,1,1.973-2.547,3.827,3.827,0,0,1,3.131-.076,3.924,3.924,0,0,1,1.516.867.959.959,0,0,1,.354,1,.809.809,0,0,1-.388.468.7.7,0,0,1-.581.041.885.885,0,0,1-.368-.262,4.5,4.5,0,0,1-.428-.608,3.479,3.479,0,0,0-.473-.658,1.313,1.313,0,0,0-.494-.287,1.508,1.508,0,0,0-1.722.5,2.845,2.845,0,0,0-.473.718,11.748,11.748,0,0,0-.5,1.265l-.434,1.252,2.586.9-.262.755-2.587-.9-1.705,4.915a5.813,5.813,0,0,0-.267,1.005,1.464,1.464,0,0,0,.042.707.989.989,0,0,0,.4.5,3.824,3.824,0,0,0,.8.394l-.195.561-4.562-1.579.195-.562a3.561,3.561,0,0,0,.753.163.762.762,0,0,0,.513-.129,1.312,1.312,0,0,0,.387-.495,8.076,8.076,0,0,0,.386-.955l1.749-5.043-1.815-.628Z" fill="#1a1311"/>
      <path id="パス_204" data-name="パス 204" d="M201.94,368.266l1.759.77.492-1.121a4.284,4.284,0,0,1,2.166-2.382,3.821,3.821,0,0,1,3.126.173,3.941,3.941,0,0,1,1.444.984.962.962,0,0,1,.273,1.029.809.809,0,0,1-.424.436.7.7,0,0,1-.582,0,.894.894,0,0,1-.346-.291,4.5,4.5,0,0,1-.379-.639,3.407,3.407,0,0,0-.42-.694,1.32,1.32,0,0,0-.469-.327,1.507,1.507,0,0,0-1.755.363,2.9,2.9,0,0,0-.53.678,12.406,12.406,0,0,0-.6,1.221l-.532,1.214,2.507,1.1-.321.732-2.507-1.1-2.087,4.764a5.713,5.713,0,0,0-.346.982,1.459,1.459,0,0,0-.014.708.994.994,0,0,0,.354.526,3.827,3.827,0,0,0,.766.456l-.239.545-4.423-1.937.239-.545a3.562,3.562,0,0,0,.738.221.759.759,0,0,0,.521-.087,1.327,1.327,0,0,0,.426-.463,8.17,8.17,0,0,0,.459-.922l2.143-4.89-1.76-.77Z" fill="#1a1311"/>
      <path id="パス_205" data-name="パス 205" d="M213.236,381.887a4.465,4.465,0,0,1-3.985-.211,4.807,4.807,0,0,1-1.43-1.172,4.1,4.1,0,0,1-.773-1.5,4.215,4.215,0,0,1-.094-1.7,5.134,5.134,0,0,1,.621-1.786A5.283,5.283,0,0,1,208.8,374a4.306,4.306,0,0,1,1.573-.856,4.422,4.422,0,0,1,1.771-.145,4.81,4.81,0,0,1,1.815.6,3.128,3.128,0,0,1,1.344,4.694c-.077.137-.152.207-.222.207a1.112,1.112,0,0,1-.4-.166l-4.889-2.716a2,2,0,0,0-.206.266c-.073.107-.148.232-.225.37a5.639,5.639,0,0,0-.593,1.509,3.633,3.633,0,0,0-.063,1.374,2.841,2.841,0,0,0,.449,1.155,2.684,2.684,0,0,0,.942.842,2.848,2.848,0,0,0,1.311.369,4.541,4.541,0,0,0,1.6-.289Zm-.226-5.376c.2.11.359.194.484.249a.9.9,0,0,0,.3.09.262.262,0,0,0,.189-.061.76.76,0,0,0,.149-.2,1.633,1.633,0,0,0,.167-1.337,1.928,1.928,0,0,0-.969-1.073q-1.605-.891-3.055.812Z" fill="#1a1311"/>
      <path id="パス_206" data-name="パス 206" d="M217.964,383.726q-.4.574-.6.929a1.284,1.284,0,0,0-.206.611.682.682,0,0,0,.182.469,4.565,4.565,0,0,0,.571.518l-.338.491-3.717-2.575.339-.491a3.62,3.62,0,0,0,.695.369.777.777,0,0,0,.523.021,1.2,1.2,0,0,0,.5-.37q.252-.293.62-.823l1.131-1.635q.657-.951,1-1.5a2.612,2.612,0,0,0,.4-.881.613.613,0,0,0-.162-.558,4.721,4.721,0,0,0-.665-.533l.338-.488,2.813,1.163-1,1.868.056.039a4.283,4.283,0,0,1,.986-.454,4.011,4.011,0,0,1,1.005-.183,3.468,3.468,0,0,1,.936.081,2.316,2.316,0,0,1,.809.354,1.29,1.29,0,0,1,.556.706.873.873,0,0,1-.143.759.816.816,0,0,1-.572.38,1.059,1.059,0,0,1-.731-.228,1.363,1.363,0,0,1-.339-.318,2.469,2.469,0,0,1-.19-.309c-.05-.1-.1-.187-.141-.273a.585.585,0,0,0-.192-.214,1.229,1.229,0,0,0-1.089-.041,4.245,4.245,0,0,0-1.432.816,7.769,7.769,0,0,0-.808.8,10.5,10.5,0,0,0-.8,1.027Z" fill="#1a1311"/>
    </g>
    <g id="グループ_41" data-name="グループ 41">
      <path id="パス_207" data-name="パス 207" d="M118.618,396.663a.95.95,0,0,1,.456-.119,2.452,2.452,0,0,1,1.079.348.5.5,0,0,1,.24.407.349.349,0,0,1-.372.36,3.594,3.594,0,0,1-.611-.084,7.552,7.552,0,0,0-1.223-.108h-.72a7.09,7.09,0,0,1-.8,3.43,5.36,5.36,0,0,1-3.466,2.327,2.453,2.453,0,0,1-.372.06c-.108,0-.156-.024-.156-.1a.1.1,0,0,1,.072-.1,5.729,5.729,0,0,0,3.107-2.651,7.017,7.017,0,0,0,.635-2.962c-.695.024-1.355.084-2.231.192-.011.659,0,1.319-.011,1.978-.012.54-.3.684-.48.684-.36,0-.552-.155-.552-.6s.06-1.115.072-1.966a8.022,8.022,0,0,0-.827.168,1.862,1.862,0,0,0-.516.215.7.7,0,0,1-.432.157,1.12,1.12,0,0,1-.8-.468,1.052,1.052,0,0,1-.372-.779c0-.132.036-.2.107-.2.037,0,.084.048.168.108a1.517,1.517,0,0,0,.876.372c.18,0,.492-.012.828-.048.383-.048.575-.084.983-.132V395.92c0-.252-.012-.4-.12-.5a1.673,1.673,0,0,0-.635-.324c-.084-.024-.121-.048-.121-.1s.073-.12.145-.168a.776.776,0,0,1,.491-.12,2.563,2.563,0,0,1,1.056.313c.287.155.384.311.384.443a.561.561,0,0,1-.109.336,1.206,1.206,0,0,0-.1.443c-.013.2-.024.468-.024.828.9-.1,1.439-.143,2.242-.2V395.56a3.008,3.008,0,0,0-.071-1,.522.522,0,0,0-.3-.263,4.052,4.052,0,0,0-.408-.132c-.108-.024-.132-.048-.132-.1s.048-.12.18-.216a.707.707,0,0,1,.432-.12,3.11,3.11,0,0,1,.959.18c.408.132.6.372.6.563a.572.572,0,0,1-.132.348.625.625,0,0,0-.108.348c-.024.648-.036,1.151-.048,1.655.24-.012.456-.023.684-.048A1.051,1.051,0,0,0,118.618,396.663Z" fill="#1a1311"/>
      <path id="パス_208" data-name="パス 208" d="M131.445,398.966c-.371,0-1.187-.06-1.775-.06-.947,0-3.01.048-4.485.18a3.434,3.434,0,0,0-1.187.227.516.516,0,0,1-.324.1c-.312,0-.588-.288-.96-.828a.972.972,0,0,1-.228-.647c0-.192.072-.289.144-.289.036,0,.1.049.156.109a1.185,1.185,0,0,0,1.007.456c.324,0,.552-.013,1.26-.061,1.487-.1,3.07-.168,4.245-.191a2.307,2.307,0,0,0,.936-.168.786.786,0,0,1,.336-.1,1.375,1.375,0,0,1,.539.119c.456.193.768.373.768.672A.456.456,0,0,1,131.445,398.966Z" fill="#1a1311"/>
      <path id="パス_209" data-name="パス 209" d="M136.909,400.153a4.366,4.366,0,0,0,.036.828.49.49,0,0,0,.3.335,2.166,2.166,0,0,0,.984.168,9.952,9.952,0,0,0,2.41-.263,2.267,2.267,0,0,1,.624-.108c.479,0,.827.228.827.575,0,.312-.144.4-.372.493a3.918,3.918,0,0,1-1.091.179c-.671.048-1.307.084-1.883.084-1.319,0-2.1-.2-2.411-.611a1.533,1.533,0,0,1-.288-.552,4.03,4.03,0,0,1-.071-.971c.011-.732.011-1.488.011-2.231,0-.66.013-1.319.013-1.932,0-.455-.037-.551-.348-.719a1.948,1.948,0,0,0-.312-.119c-.084-.025-.12-.061-.12-.109,0-.156.4-.311.648-.311a2.119,2.119,0,0,1,.935.336c.42.239.552.419.552.634a.5.5,0,0,1-.18.409c-.1.1-.132.168-.156.563-.036.481-.072,1.056-.084,1.7a12.636,12.636,0,0,0,1.775-.72,13.14,13.14,0,0,0,1.451-.827c.12-.084.192-.132.192-.216s-.108-.215-.2-.311c-.12-.12-.18-.168-.18-.217s.12-.107.252-.107c.372,0,.552.072,1.044.515.323.3.491.552.479.756,0,.239-.132.323-.419.384a2.98,2.98,0,0,0-.432.132c-.648.227-1.26.407-1.859.563a19.493,19.493,0,0,1-2.111.432C136.921,399.266,136.909,399.758,136.909,400.153Zm5.013-5.289a.9.9,0,0,1,.444.72.4.4,0,0,1-.4.42.43.43,0,0,1-.408-.276,4.433,4.433,0,0,0-.755-1.055c-.048-.048-.132-.109-.132-.156,0-.073.06-.084.144-.084a1.1,1.1,0,0,1,.276.047A2.216,2.216,0,0,1,141.922,394.864Zm1.116-.84a.732.732,0,0,1,.431.613.4.4,0,0,1-.371.443.459.459,0,0,1-.444-.264,3.041,3.041,0,0,0-.84-.935c-.047-.036-.144-.1-.144-.144a.1.1,0,0,1,.1-.1,1.658,1.658,0,0,1,.311.036A2.821,2.821,0,0,1,143.038,394.024Z" fill="#1a1311"/>
      <path id="パス_210" data-name="パス 210" d="M152.783,399.446a7.7,7.7,0,0,1,1.151.732c.719.551,1.007,1.019,1.007,1.367a.6.6,0,0,1-.551.647.786.786,0,0,1-.744-.408A10.088,10.088,0,0,0,152.255,400a7.172,7.172,0,0,0-1.2-.924,13.807,13.807,0,0,1-2.939,2.351,10.549,10.549,0,0,1-2.051.947.76.76,0,0,1-.264.061.1.1,0,0,1-.119-.109.162.162,0,0,1,.084-.132,14.588,14.588,0,0,0,3.754-2.9,17.947,17.947,0,0,0,2.434-3.179.363.363,0,0,0,.072-.143c0-.036-.036-.048-.156-.036-.839.1-1.919.276-2.867.479a1.78,1.78,0,0,0-.551.193.731.731,0,0,1-.42.131c-.228,0-.468-.143-.8-.563a1.03,1.03,0,0,1-.251-.768c0-.228.084-.312.156-.312.035,0,.084.049.168.144.335.372.468.456.827.456.144,0,.444-.024.912-.072.983-.108,1.787-.216,2.638-.336a.894.894,0,0,0,.48-.18.455.455,0,0,1,.348-.131.956.956,0,0,1,.636.323c.359.312.5.5.5.672,0,.12-.036.24-.4.359-.107.036-.18.133-.288.288a19.505,19.505,0,0,1-1.63,2.159A15.654,15.654,0,0,1,152.783,399.446Z" fill="#1a1311"/>
      <path id="パス_211" data-name="パス 211" d="M162.54,394.2h-3.406a10.14,10.14,0,0,0-1.1.071l-.132-.443a8.4,8.4,0,0,0,1.247.1h6.848c.66-.8.8-.9.888-.9.108,0,.24.1.875.624.288.24.384.348.384.432s-.036.12-.156.12h-4.27v3.874h1.619c.624-.8.768-.9.852-.9.108,0,.228.1.864.624.276.24.371.347.371.431s-.036.12-.155.12h-3.551v4.51h2.447c.7-.876.839-.971.923-.971.109,0,.241.1.948.671.324.264.42.372.42.456s-.036.12-.156.12h-9.619a10.736,10.736,0,0,0-1.151.072l-.132-.444a8.608,8.608,0,0,0,1.272.1h.767v-5.086a9.8,9.8,0,0,0-.072-1.331c1.475.145,1.6.277,1.6.408,0,.1-.12.2-.36.3v5.709h1.943Z" fill="#1a1311"/>
      <path id="パス_212" data-name="パス 212" d="M177.719,395.764a13.356,13.356,0,0,0,.468,3.25,6.053,6.053,0,0,0,1.487,2.59,1.417,1.417,0,0,0,.659.457c.18,0,.336-.277.792-1.428.024-.06.12-.012.12.049-.1,1.306-.1,1.39-.1,1.69,0,.216.012.252.192.5a.748.748,0,0,1,.132.408.5.5,0,0,1-.528.516,2.464,2.464,0,0,1-1.3-.552,7.089,7.089,0,0,1-2.495-3.683,15.783,15.783,0,0,1-.564-3.8H171.7a7.022,7.022,0,0,0-.923.072l-.132-.443a5.613,5.613,0,0,0,1.007.1h4.93c-.013-.347-.024-.708-.037-1.092-.011-.407-.011-.743-.071-1.319,1.463.168,1.523.2,1.523.384,0,.108-.084.18-.336.276.012.659.024,1.236.048,1.751h1.571c.564-.672.708-.767.792-.767.108,0,.227.1.743.527.228.2.324.312.324.4s-.036.12-.156.12Zm-4.57,2.4H172.07a6.233,6.233,0,0,0-.863.072l-.132-.443a5.04,5.04,0,0,0,.959.1h2.6c.575-.708.707-.8.791-.8.108,0,.228.084.756.54.24.216.336.336.336.42s-.037.119-.156.119h-1.991v3.059a22.067,22.067,0,0,0,2.314-.672c.061-.024.132.133.084.168a17.65,17.65,0,0,1-5.061,2.183c-.1.384-.144.455-.275.455-.205,0-.36-.371-.66-1.583.443-.023.935-.072,1.427-.143.312-.048.624-.1.947-.156Zm6.453-3.237c-.252,0-.348-.084-.6-.552a2.656,2.656,0,0,0-.792-.9c-.047-.036-.035-.12.025-.12,1.235.107,1.87.443,1.87,1.006A.573.573,0,0,1,179.6,394.925Z" fill="#1a1311"/>
      <path id="パス_213" data-name="パス 213" d="M185.066,403.487c0,.325-.228.468-.671.468-.348,0-.492-.107-.492-.42,0-.743.072-1.774.072-5.324,0-1.775-.012-3.551-.084-5.325a6.453,6.453,0,0,1,1.271.611h2.1c.408-.468.5-.54.6-.54.12,0,.216.072.647.42.192.156.264.24.264.336s-.084.192-.348.36v.444c0,1.163.024,1.978.024,2.243s-.227.395-.647.395c-.312,0-.432-.1-.432-.347v-.229h-2.3Zm2.3-9.714h-2.3v1.091h2.3Zm-2.3,2.531h2.3v-1.163h-2.3Zm3.263,4.029a3.566,3.566,0,0,1-2.435,3.322c-.06.025-.132-.048-.084-.1a4.364,4.364,0,0,0,1.475-3.227h-.623a7.554,7.554,0,0,0-.96.072l-.132-.443a6.114,6.114,0,0,0,1.055.1h.684c.012-.348.024-.72.024-1.152v-.527h-.42a5.331,5.331,0,0,0-.8.071l-.132-.443a4.333,4.333,0,0,0,.9.1h3.862c.456-.54.6-.636.684-.636.108,0,.24.1.66.444.179.155.275.264.275.348s-.036.12-.155.12h-1.524v1.679h.3c.528-.624.672-.72.756-.72.108,0,.227.1.695.5.192.179.288.288.288.372s-.036.119-.156.119h-1.883c.012,1.092.048,2.352.048,2.771,0,.324-.24.456-.636.456-.335,0-.491-.1-.491-.372,0-.228.048-.959.048-2.363v-.492Zm1.319-.275v-1.679h-1.235c0,.563-.013,1.115-.06,1.679Zm1-3.323c0,.3-.2.432-.611.432-.324,0-.468-.1-.468-.359,0-.42.024-.852.024-2.567,0-.444-.012-.9-.048-1.355a7.8,7.8,0,0,1,1.223.611h2.207c.42-.468.516-.54.612-.54.12,0,.215.072.659.433.2.179.276.263.276.359,0,.12-.072.191-.324.348v1.439c0,6.716.012,7.028.012,7.352a.955.955,0,0,1-.372.84,1.565,1.565,0,0,1-.923.227c-.228,0-.24-.023-.288-.275-.072-.42-.324-.66-1.139-.876-.06-.012-.06-.144,0-.144.684.048.959.06,1.451.06.12,0,.144-.035.144-.168v-5.973h-2.435Zm2.435-2.962h-2.435v1.091h2.435Zm-2.435,2.531h2.435v-1.163h-2.435Z" fill="#1a1311"/>
      <path id="パス_214" data-name="パス 214" d="M197.678,396.136a3.139,3.139,0,0,0-.755.1l-.132-.467a4.309,4.309,0,0,0,.887.1h.42l.084-.431a19.65,19.65,0,0,0,.312-2.458c1.2.191,1.415.263,1.415.443,0,.132-.12.228-.431.324-.108.755-.228,1.451-.349,2.122h.756c.42-.455.516-.527.612-.527.12,0,.2.072.611.444.181.167.252.264.252.36s-.1.179-.371.3a13.5,13.5,0,0,1-.948,3.958c.672.479,1.091,1.006,1.091,1.462,0,.4-.227.672-.539.672s-.408-.084-.732-.779c-.084-.168-.18-.336-.276-.492a6.793,6.793,0,0,1-2.638,2.423c-.048.023-.156-.084-.108-.12a8.2,8.2,0,0,0,2.171-3.082,6.9,6.9,0,0,0-.852-.84c-.06.2-.132.408-.2.611a.485.485,0,0,1-.528.349c-.347,0-.551-.1-.551-.3a1.393,1.393,0,0,1,.12-.481,26.13,26.13,0,0,0,1.043-3.681Zm1.392,0a28.88,28.88,0,0,1-.852,3.334,10.6,10.6,0,0,1,1.008.431,16.8,16.8,0,0,0,.731-3.765Zm2.938,2.087c-.06.24-.144.347-.252.347-.168,0-.3-.383-.48-1.5.456.024.672.024,1.116.024a16.82,16.82,0,0,0,.863-2.662,9.973,9.973,0,0,0,.24-1.415c1.38.372,1.607.479,1.607.659,0,.132-.132.2-.479.263a10.906,10.906,0,0,1-1.775,3.155c1.607-.024,2.566-.06,3.478-.119a5.012,5.012,0,0,0-1.044-1.644c-.036-.048.024-.12.084-.1,1.427.6,2.351,1.535,2.351,2.4,0,.456-.252.792-.624.792-.264,0-.384-.145-.491-.565-.049-.191-.1-.371-.157-.539A33.714,33.714,0,0,1,202.008,398.223Zm1.008,4.941v.359c0,.336-.168.516-.66.516-.384,0-.48-.155-.48-.407s.048-1.248.048-2.831c0-.791-.012-1.223-.048-2.027a9.832,9.832,0,0,1,1.235.6H205.8c.408-.492.5-.563.6-.563.121,0,.216.071.684.455.2.168.276.252.276.348s-.084.2-.336.371v.564c0,1.5.048,2.567.048,2.9,0,.36-.228.516-.659.516-.372,0-.492-.145-.492-.4v-.407Zm2.9-3.515h-2.9v3.239h2.9Z" fill="#1a1311"/>
      <path id="パス_215" data-name="パス 215" d="M217.654,396.34a2.526,2.526,0,0,1,.96.3c.563.288.683.588.683.815s-.155.359-.42.384a3.2,3.2,0,0,0-.671.168,13.165,13.165,0,0,0-1.775.756c-.4.2-.84.419-1.127.587-.012.3-.012.66-.012.912a4.34,4.34,0,0,1-.037,1.054.468.468,0,0,1-.443.313c-.348,0-.528-.168-.528-.576,0-.216.024-.5.036-1.152-.288.168-.48.3-.624.4-.647.443-.971.815-.971,1.331,0,.563.5.851,1.631.851a10.27,10.27,0,0,0,1.631-.084,3.181,3.181,0,0,0,.708-.2,1.569,1.569,0,0,1,.492-.1,1.141,1.141,0,0,1,.707.2.6.6,0,0,1,.252.443.465.465,0,0,1-.2.36,5.344,5.344,0,0,1-2.338.3,5.6,5.6,0,0,1-2.579-.359,1.393,1.393,0,0,1-.828-1.344,2.115,2.115,0,0,1,.828-1.558,9.042,9.042,0,0,1,1.307-.936c.012-.216.012-.395.012-.563,0-.636-.156-1.032-.588-1.032a1.945,1.945,0,0,0-1.355.827,13.16,13.16,0,0,0-.852,1.224.772.772,0,0,1-.539.348.49.49,0,0,1-.372-.132.463.463,0,0,1-.132-.384A.768.768,0,0,1,210.7,399c.12-.107.288-.264.42-.4a11.658,11.658,0,0,0,1.751-2.375c-.228.025-.576.061-.864.084a1.375,1.375,0,0,1-1.439-.971.708.708,0,0,1-.06-.276c0-.059.024-.108.072-.108s.1.049.132.108a1.39,1.39,0,0,0,1.2.492,6.583,6.583,0,0,0,1.392-.192,5.611,5.611,0,0,0,.4-.983,1.343,1.343,0,0,0,.06-.324.288.288,0,0,0-.108-.2.889.889,0,0,0-.288-.168,1.535,1.535,0,0,0-.251-.084c-.06-.012-.072-.024-.072-.06,0-.06.047-.1.084-.132a.661.661,0,0,1,.443-.143,2.61,2.61,0,0,1,1.212.311.483.483,0,0,1,.287.443.4.4,0,0,1-.167.3,1.44,1.44,0,0,0-.324.336c-.072.1-.264.372-.36.528a2.153,2.153,0,0,0,.959-.444.734.734,0,0,1,.433-.132c.455,0,.779.18.779.445a.451.451,0,0,1-.336.419,14.1,14.1,0,0,1-2.291.612c-.12.18-.252.359-.42.636a10.175,10.175,0,0,1-.623.935,2.312,2.312,0,0,1,1.307-.5,1.122,1.122,0,0,1,1.02.468,1.857,1.857,0,0,1,.215,1.02c.96-.588,1.476-.9,2.039-1.26.24-.155.432-.264.432-.36a.328.328,0,0,0-.132-.24.755.755,0,0,0-.347-.179c-.037-.012-.049-.037-.049-.1C217.2,396.4,217.415,396.34,217.654,396.34Z" fill="#1a1311"/>
      <path id="パス_216" data-name="パス 216" d="M94.8,413.356c.516-.635.66-.731.744-.731.108,0,.24.1.768.5.239.2.335.3.335.384s-.036.12-.155.12h-4.21a5.5,5.5,0,0,0-.816.072l-.132-.444a4.978,4.978,0,0,0,.96.1ZM92.99,421.08v.336c0,.312-.216.455-.623.455-.336,0-.5-.107-.5-.395,0-.372.048-.768.048-2.291a15.259,15.259,0,0,0-.072-1.655,10.77,10.77,0,0,1,1.271.6h1.415c.433-.5.528-.576.624-.576.12,0,.216.072.648.42.192.168.264.252.264.347s-.084.216-.36.4v.42c0,1.115.048,1.919.048,2.171,0,.311-.216.444-.636.444-.336,0-.491-.12-.491-.372v-.3Zm1.092-9.307c.527-.624.671-.719.755-.719.108,0,.24.1.78.5.24.192.336.288.336.372s-.036.12-.156.12H92.69a4.151,4.151,0,0,0-.707.072l-.132-.444a3.828,3.828,0,0,0,.839.1Zm.2,3.2c.443-.552.588-.649.672-.649.107,0,.239.1.707.456.2.168.3.264.3.348s-.036.12-.156.12h-3.07a4.4,4.4,0,0,0-.732.072l-.132-.444a4.04,4.04,0,0,0,.864.1Zm0,1.546c.443-.576.588-.671.672-.671.107,0,.239.1.719.479.2.156.3.265.3.349s-.036.119-.156.119H92.763a4.279,4.279,0,0,0-.72.072l-.132-.443a3.986,3.986,0,0,0,.852.1Zm.336,1.883H92.99v2.4h1.632Zm5.828-6.272H97.62a3.7,3.7,0,0,0-.888.108l-.131-.48a5.515,5.515,0,0,0,1.007.1h2.71c.444-.5.54-.576.636-.576.12,0,.228.06.7.444.216.168.287.264.287.36s-.047.156-.371.4v.612c0,1.6.059,2.747.059,3.106s-.239.492-.659.492c-.348,0-.516-.131-.516-.395V415.8H97.764V420c0,.468.264.564,1.571.564,1.164,0,1.559-.06,1.751-.24s.348-.491.72-1.762c.011-.061.155-.037.155.023-.011.444-.047,1.044-.047,1.344,0,.227.011.239.215.336a.442.442,0,0,1,.228.395c0,.372-.191.611-.719.756a9.851,9.851,0,0,1-2.351.18c-2.063,0-2.639-.264-2.639-1.5,0-.516.024-1.188.024-2.771,0-1.271-.011-1.6-.071-2.423a10.764,10.764,0,0,1,1.3.624h2.554Z" fill="#1a1311"/>
      <path id="パス_217" data-name="パス 217" d="M104.223,415.923c-.059.023-.119-.12-.072-.145a12.271,12.271,0,0,0,3.73-3.166,5.975,5.975,0,0,0,1.044-1.846c1.331.491,1.583.6,1.583.743,0,.108-.132.18-.408.228a8.9,8.9,0,0,0,2.543,1.943,9.562,9.562,0,0,0,2.89.912c.06.012.048.132-.012.143-.384.048-.563.241-.744.84-.059.192-.108.264-.2.264a1.729,1.729,0,0,1-.624-.228,13.225,13.225,0,0,1-2.051-1.355,9.382,9.382,0,0,1-2-2.423A11.317,11.317,0,0,1,104.223,415.923Zm2.063,3.454c0,1.1-.444,1.858-1.2,1.858a.6.6,0,0,1-.648-.623c0-.311.144-.467.54-.647.72-.265.959-.624,1.043-1.487,0-.061.156-.073.168-.013A5.131,5.131,0,0,1,106.286,419.377Zm5.193-3.658c.432-.48.528-.552.624-.552.12,0,.216.072.684.444.215.18.288.264.288.36,0,.143-.109.227-.4.336-.336.635-.624,1.127-.936,1.607a.519.519,0,0,1-.455.239c-.372,0-.8-.227-.8-.42a.557.557,0,0,1,.108-.252,7.116,7.116,0,0,0,.948-1.486h-4.331a6.112,6.112,0,0,0-1.019.06l-.12-.444a4.241,4.241,0,0,0,1.1.108Zm-3.154,4.737c0,.348.168.384,1.523.384a3.779,3.779,0,0,0,1.475-.155c.408-.181.54-.588.792-1.488.012-.06.144-.024.144.035-.012.313-.036.708-.036.949,0,.3,0,.311.312.455a.405.405,0,0,1,.215.372c0,.276-.179.479-.611.6a9.566,9.566,0,0,1-2.471.205c-2.11,0-2.446-.205-2.446-1.392,0-.18.024-.371.024-1.127,0-.408-.012-.815-.048-1.224,1.319.145,1.487.18,1.487.348,0,.108-.084.181-.36.324Zm1.751-6.08c.42-.517.564-.612.648-.612.108,0,.252.1.695.431.192.157.288.252.288.336s-.036.12-.156.12h-3.082a4.164,4.164,0,0,0-.708.073l-.132-.445a3.584,3.584,0,0,0,.816.1Zm.216,5.444c-.336,0-.42-.107-.6-.731a2.727,2.727,0,0,0-.815-1.188c-.048-.036,0-.1.06-.084,1.379.264,1.955.648,1.955,1.32A.624.624,0,0,1,110.292,419.82Zm3.9,1.392c-.348,0-.5-.216-.636-.936a3.363,3.363,0,0,0-.78-1.714c-.035-.048.025-.132.084-.109,1.32.564,1.968,1.212,1.968,1.98C114.826,420.888,114.574,421.212,114.19,421.212Z" fill="#1a1311"/>
      <path id="パス_218" data-name="パス 218" d="M121.285,413.572a15.5,15.5,0,0,0-.2,2.111c-.1,1.259-.144,2.35-.144,3.106,0,.624.1.972.276,1.14a1.893,1.893,0,0,0,1.151.275,5.894,5.894,0,0,0,2.615-.731,6.986,6.986,0,0,0,2.1-1.619c.072-.084.144-.157.216-.157a.113.113,0,0,1,.12.12,1.106,1.106,0,0,1-.156.336,6.943,6.943,0,0,1-2.087,2.135,5.4,5.4,0,0,1-3.2.972c-1.26,0-2.027-.864-1.991-2.339.048-2,.132-3.97.18-5.793.011-.443-.073-.636-.456-.791-.336-.12-.372-.132-.372-.2,0-.109.084-.156.2-.216a1.6,1.6,0,0,1,.551-.108,1.856,1.856,0,0,1,1.152.54.839.839,0,0,1,.348.611.588.588,0,0,1-.168.408C121.369,413.44,121.309,413.476,121.285,413.572Z" fill="#1a1311"/>
      <path id="パス_219" data-name="パス 219" d="M135.252,413.836a27.163,27.163,0,0,0-3.49,1.115,1.827,1.827,0,0,0-.456.277.491.491,0,0,1-.348.131c-.239.012-.515-.144-.911-.588a1.467,1.467,0,0,1-.444-.863c0-.192.048-.372.12-.372.048,0,.084-.012.192.12.42.432.516.48.876.468a15.989,15.989,0,0,0,2-.4c1.536-.36,2.735-.684,3.646-.948a3.725,3.725,0,0,0,.66-.227.864.864,0,0,1,.456-.109,2.922,2.922,0,0,1,1.1.193c.2.1.384.216.384.467s-.108.42-.444.432c-.252.024-.515,0-1.187.06a3.915,3.915,0,0,0-2.746,1.3,3.289,3.289,0,0,0-.864,2.326,2.126,2.126,0,0,0,.875,1.787,3.757,3.757,0,0,0,1.919.624,2.215,2.215,0,0,1,.924.168.7.7,0,0,1,.468.611c0,.324-.216.576-.78.576a5.766,5.766,0,0,1-2.327-.564,3.13,3.13,0,0,1-1.763-2.758,4.309,4.309,0,0,1,.468-2.016,5.562,5.562,0,0,1,1.667-1.75Z" fill="#1a1311"/>
      <path id="パス_220" data-name="パス 220" d="M141.3,416.834c-.06.024-.132-.084-.084-.12A13.285,13.285,0,0,0,145,412.948a8.032,8.032,0,0,0,1.019-2.062c1.691.455,1.7.468,1.7.611,0,.108-.1.168-.564.312a8.578,8.578,0,0,0,2.7,2.543,8.182,8.182,0,0,0,2.926,1.055c.06.012.06.144,0,.144-.479.048-.707.3-.911,1.019-.048.168-.108.228-.2.228a1.3,1.3,0,0,1-.444-.18,10.217,10.217,0,0,1-1.787-1.259,10.685,10.685,0,0,1-2.411-3.31A10.919,10.919,0,0,1,141.3,416.834Zm7.615.432c.444-.48.54-.552.636-.552.12,0,.2.072.732.552.228.2.3.3.3.4,0,.155-.107.228-.551.384A28.285,28.285,0,0,1,148,421.668c-.2.275-.336.348-.576.348-.456,0-.827-.168-.827-.384,0-.084.024-.145.2-.408a18.739,18.739,0,0,0,2.123-3.682h-5.181a4.965,4.965,0,0,0-.9.06l-.108-.444a4.108,4.108,0,0,0,.983.108Zm-1.451-1.883c.4-.528.54-.623.624-.623.108,0,.264.1.756.443.227.156.323.252.323.336s-.036.12-.156.12h-3.6a4.105,4.105,0,0,0-.7.071l-.132-.443a3.92,3.92,0,0,0,.851.1Z" fill="#1a1311"/>
      <path id="パス_221" data-name="パス 221" d="M161.244,413.548c0,.276-.144.431-.5.563-.384.132-1.02.277-1.775.456-.672,1.572-1.356,3.119-1.931,4.33a2.266,2.266,0,0,1-.48.755.621.621,0,0,1-.312.1.467.467,0,0,1-.371-.156.479.479,0,0,1-.168-.384,2.01,2.01,0,0,1,.4-.792,25.361,25.361,0,0,0,1.978-3.646c-.287.037-.815.108-1.091.108a1.5,1.5,0,0,1-.779-.155,1.594,1.594,0,0,1-.708-.768.5.5,0,0,1-.048-.2c0-.06.06-.072.084-.072s.06.012.132.072a1.4,1.4,0,0,0,.54.288,2.387,2.387,0,0,0,.587.06,8.9,8.9,0,0,0,1.619-.228,4.561,4.561,0,0,0,.4-1.512c0-.287-.084-.359-.72-.6-.06-.024-.1-.06-.1-.108a.212.212,0,0,1,.12-.156,1.041,1.041,0,0,1,.528-.12,2.537,2.537,0,0,1,1.2.4.456.456,0,0,1,.264.444.364.364,0,0,1-.156.311c-.168.132-.287.336-.6,1.1a3.126,3.126,0,0,0,.791-.36,1.023,1.023,0,0,1,.5-.156C161.028,413.141,161.244,413.38,161.244,413.548Zm.347,1.451a4.163,4.163,0,0,0-.563.012,2.11,2.11,0,0,1-.228.024c-.072,0-.12-.024-.12-.084s.06-.12.144-.156a2.932,2.932,0,0,1,1.247-.239,4.18,4.18,0,0,1,2.027.527.924.924,0,0,1,.552.779c0,.277-.12.468-.42.468a.949.949,0,0,1-.468-.191,1.376,1.376,0,0,0-.935-.42.872.872,0,0,0-.54.156.846.846,0,0,0-.444.839,9.763,9.763,0,0,0,.408,2.231c1.847.623,2.339,1.116,2.339,1.583a.472.472,0,0,1-.468.528.955.955,0,0,1-.7-.336,5.031,5.031,0,0,0-1.127-.839,1.489,1.489,0,0,1-.6,1.319,2.372,2.372,0,0,1-1.391.335,2.161,2.161,0,0,1-1.367-.455,1.178,1.178,0,0,1-.48-.912,1.25,1.25,0,0,1,.5-.995,2.462,2.462,0,0,1,1.439-.432,5.918,5.918,0,0,1,.864.06c-.048-.636-.084-1.271-.084-1.787,0-1.032.8-1.475,1.6-1.655A2.481,2.481,0,0,0,161.591,415Zm-1.343,4.354a2.013,2.013,0,0,0-1.031.192.614.614,0,0,0,0,1.056,1.76,1.76,0,0,0,.851.191,1.528,1.528,0,0,0,1.008-.288,1.043,1.043,0,0,0,.263-.779.92.92,0,0,0-.011-.168A3.139,3.139,0,0,0,160.248,419.353Z" fill="#1a1311"/>
      <path id="パス_222" data-name="パス 222" d="M173.892,416.007a2.721,2.721,0,0,1,2,.72,2.053,2.053,0,0,1,.575,1.522,2.814,2.814,0,0,1-2.015,2.436,11.666,11.666,0,0,1-4.018.731c-.191.012-.275-.036-.275-.132s.084-.108.252-.133a8.831,8.831,0,0,0,3.25-1.067,2.729,2.729,0,0,0,1.571-2.267,1.334,1.334,0,0,0-.42-1.043,1.571,1.571,0,0,0-1.175-.383,4.106,4.106,0,0,0-2.687,1.7,2.216,2.216,0,0,0-.636,1.067c-.071.252-.239.348-.347.348a.813.813,0,0,1-.7-.468,1.513,1.513,0,0,1-.275-.9c0-.445.179-1.679.275-2.364a5.822,5.822,0,0,0,.084-.827v-.372a.925.925,0,0,1,.468-.767,6.056,6.056,0,0,1,1.5-.624,3.95,3.95,0,0,1-.791-.635,1.83,1.83,0,0,1-.5-1.128c0-.168.024-.239.072-.239s.084.059.144.168a3.072,3.072,0,0,0,1.835.983,1.241,1.241,0,0,1,1.019.959.49.49,0,0,1-.456.563,1.759,1.759,0,0,1-.408-.035,3.08,3.08,0,0,0-.515-.072,3.419,3.419,0,0,0-1.488.2.52.52,0,0,0-.371.42.923.923,0,0,0,.048.3,3.054,3.054,0,0,1,.2.851,4.84,4.84,0,0,1-.1.623,12.919,12.919,0,0,0-.12,1.524c0,.107.084.107.2.023.1-.071.252-.179.335-.239a12.1,12.1,0,0,1,1.284-.8A4.769,4.769,0,0,1,173.892,416.007Z" fill="#1a1311"/>
      <path id="パス_223" data-name="パス 223" d="M179.511,419.113a.108.108,0,0,1,.108-.108,5.953,5.953,0,0,1,2.1.828,1.516,1.516,0,0,1,.768,1.211.7.7,0,0,1-.72.743.716.716,0,0,1-.636-.539,4.106,4.106,0,0,0-1.535-2.016A.149.149,0,0,1,179.511,419.113Z" fill="#1a1311"/>
      <path id="パス_224" data-name="パス 224" d="M191.414,416.414c.228.049.456.108.684.181a7.633,7.633,0,0,0,.6-1.068,4.191,4.191,0,0,0,.24-.635c.888.5,1.067.635,1.067.791,0,.1-.084.156-.407.144a5.578,5.578,0,0,1-1.212.875c.612.264.924.588.924.995a.534.534,0,0,1-.5.576c-.228,0-.36-.108-.54-.456a3.093,3.093,0,0,0-.851-1.1v1.14c0,1.367.036,3.07.036,3.633,0,.336-.228.492-.612.492s-.54-.12-.54-.444c0-.264.084-1.055.084-2.65v-2a10.54,10.54,0,0,1-1.787,1.128c-.048.023-.156-.109-.108-.145a11.531,11.531,0,0,0,3.31-4.353h-2.17a3.1,3.1,0,0,0-.756.1l-.132-.467a4.38,4.38,0,0,0,.888.1h.719v-1.187a7.513,7.513,0,0,0-.084-1.1c1.392.132,1.524.264,1.524.384s-.12.216-.372.336v1.571h.372c.36-.408.455-.479.551-.479.12,0,.2.071.612.491.18.192.252.288.252.384,0,.144-.084.2-.384.311a10.287,10.287,0,0,1-1.4,1.98Zm4.725-3.8a16.014,16.014,0,0,1-.839,5.757,6.864,6.864,0,0,1-3.227,3.527c-.048.023-.143-.132-.1-.168a7.5,7.5,0,0,0,2.374-3.766,19.224,19.224,0,0,0,.588-5.35h-.756a4.381,4.381,0,0,0-.887.1l-.132-.467a5.315,5.315,0,0,0,1,.1h3.8c.456-.5.552-.576.648-.576.12,0,.216.072.7.48.215.192.287.276.287.371s-.036.12-.384.445c-.1,4.773-.167,5.828-.479,7.111a2.24,2.24,0,0,1-.816,1.428,1.657,1.657,0,0,1-.947.24c-.228,0-.3-.061-.348-.313-.1-.527-.408-.731-1.343-1.067-.06-.023-.036-.18.024-.168a13.507,13.507,0,0,0,1.655.145c.359,0,.48-.109.575-.493a34.323,34.323,0,0,0,.5-7.328Z" fill="#1a1311"/>
      <path id="パス_225" data-name="パス 225" d="M203.834,420.8v.444c0,.336-.215.491-.695.491-.348,0-.48-.143-.48-.407,0-.972.072-1.932.072-5.841,0-1.391-.012-2.783-.06-4.185a6.994,6.994,0,0,1,1.343.683H210.9c.48-.54.576-.612.672-.612.12,0,.216.072.684.48.2.192.276.276.276.372,0,.12-.1.228-.348.383v1.415c0,3.754.072,6.274.072,7.124,0,.361-.2.54-.732.54-.359,0-.492-.156-.492-.431V420.8Zm7.2-8.539h-7.2v8.263h7.2Zm-4.761,5.709v.395c0,.324-.228.444-.647.444-.336,0-.48-.108-.48-.383,0-.42.048-.84.048-2.532,0-.683-.012-1.367-.06-2.05a7.318,7.318,0,0,1,1.271.612h2c.4-.481.492-.552.588-.552.119,0,.216.071.659.432.2.168.276.252.276.348s-.06.179-.336.372v.527c0,1.392.048,2.362.048,2.675,0,.336-.24.455-.647.455-.324,0-.492-.1-.492-.36v-.383Zm2.231-3.239h-2.231V417.7H208.5Z" fill="#1a1311"/>
      <path id="パス_226" data-name="パス 226" d="M216.59,419.232c0,1.236.025,1.68.025,2.136,0,.323-.2.491-.624.491s-.528-.12-.528-.42c0-.491.072-2.207.072-6.656,0-2.087-.012-2.914-.072-3.681.612.252.7.288,1.247.551h1.2c.372-.444.467-.515.564-.515.119,0,.2.071.683.515.2.192.276.287.276.384,0,.132-.1.228-.36.312a15.455,15.455,0,0,1-1.751,2.638c1.283.995,1.667,1.656,1.667,2.83a1.686,1.686,0,0,1-.431,1.224,1.221,1.221,0,0,1-.9.348c-.216,0-.252-.048-.288-.312-.048-.42-.252-.624-.78-.792Zm0-1.151c.432.049.756.084.96.084a.463.463,0,0,0,.24-.06c.12-.084.18-.263.18-.575a3.31,3.31,0,0,0-.888-2.495,16.02,16.02,0,0,0,.888-3.106h-1.38Zm5.47-1.847a7.182,7.182,0,0,0,.959,2.123,10.191,10.191,0,0,0,1.211-1.151,8.78,8.78,0,0,0,.684-.863c.744.552,1.055.851,1.055.983s-.084.192-.563.144a14.211,14.211,0,0,1-2.231,1.092,3.79,3.79,0,0,0,.515.551,6.224,6.224,0,0,0,2.435,1.271c.06.012.048.133-.012.156-.336.108-.467.3-.647.936-.049.215-.084.276-.18.276a1.2,1.2,0,0,1-.468-.252,6.668,6.668,0,0,1-1.763-1.812,8.378,8.378,0,0,1-1.26-3.454h-1.2v3.9a21.674,21.674,0,0,0,2.183-.529c.06-.023.1.109.048.145a18.255,18.255,0,0,1-3.8,1.8c-.06.3-.132.42-.275.42s-.229-.2-.6-1.488a7.857,7.857,0,0,0,1.007-.1c.12-.012.24-.035.36-.048v-4.474c0-1.547-.012-3.093-.048-4.653a11.154,11.154,0,0,1,1.247.624H223.6c.431-.492.528-.563.623-.563.12,0,.216.071.648.431.192.18.264.264.264.36s-.072.192-.324.372v.6c.012,1.823.036,2.771.036,3.1,0,.275-.24.432-.635.432-.325,0-.493-.1-.493-.325Zm1.654-4.126H220.6v1.74h3.118Zm0,2.016H220.6v1.835h3.118Z" fill="#1a1311"/>
      <path id="パス_227" data-name="パス 227" d="M232.753,414.976h-2.6a4.247,4.247,0,0,0-.719.071l-.132-.443a3.908,3.908,0,0,0,.851.1h5.469c.528-.672.672-.767.756-.767.108,0,.24.1.815.54.252.2.348.3.348.383s-.036.121-.156.121h-3.514v2.53h1.571c.528-.684.672-.779.756-.779.108,0,.24.1.767.539.24.2.336.312.336.4s-.036.119-.156.119h-3.274v2.82a10.5,10.5,0,0,0,1.439.084,19.028,19.028,0,0,0,3.2-.252c.059-.013.048.084,0,.119a.948.948,0,0,0-.4.851c0,.181-.06.252-.264.277-.5.059-1.415.084-2.027.084a5.577,5.577,0,0,1-3.946-1.188,5.233,5.233,0,0,1-1.2-1.739,5.891,5.891,0,0,1-2.735,2.927c-.047.036-.144-.1-.1-.132a7.631,7.631,0,0,0,2.147-4.235,9.079,9.079,0,0,0,.12-1.283c1.26.252,1.5.324,1.5.5,0,.109-.071.168-.384.3a11.784,11.784,0,0,1-.419,1.607,3.709,3.709,0,0,0,1.943,1.811Zm4.209-2.3c.468-.528.564-.6.66-.6.12,0,.216,0,.863.612.3.275.36.372.36.467,0,.157-.108.276-.539.288a.793.793,0,0,0-.48.108,3.984,3.984,0,0,1-.8.515c-.047.025-.1-.023-.084-.084a5.885,5.885,0,0,0,.216-1.031h-7.615c.036.936-.336,1.583-.96,1.583a.6.6,0,0,1-.612-.635.568.568,0,0,1,.384-.576,1.347,1.347,0,0,0,.876-1.331c.012-.06.12-.072.131-.012a5.507,5.507,0,0,1,.157.7h3.13v-1.008c0-.168-.012-.384-.036-.672,1.439.132,1.571.264,1.571.384s-.12.2-.372.276v1.02Z" fill="#1a1311"/>
    </g>
    <g id="グループ_42" data-name="グループ 42">
      <path id="パス_228" data-name="パス 228" d="M130.772,473.12c4.1,0,4.86-.7,6.588-5.562a.5.5,0,0,1,.54-.378c.432,0,.648.162.648.54-.54,2.808-2.214,8.964-3.186,11.88-3.942-.108-7.452-.108-11.556-.108-4.266,0-8.046,0-11.827.108-.431,0-.647-.054-.647-.972a2.522,2.522,0,0,1,.324-1.512c2.484-5.076,4.644-8.425,9.882-14.257,6.156-6.912,7.4-9.557,7.4-14.093,0-5.563-2.646-8.155-6.264-8.155-2.484,0-5.022,1.729-5.022,3.672,0,.54.108.7.864,1.189a3.759,3.759,0,0,1-2.052,7.019,3.969,3.969,0,0,1-4.212-4.1c0-4.59,5.832-9.235,12.528-9.235,7.452,0,12.15,4.05,12.15,9.5s-1.782,8.587-11.718,15.445c-7.02,4.86-8.586,6.587-10.044,9.018Z" fill="#1a1311"/>
      <path id="パス_229" data-name="パス 229" d="M169.759,459.565c0,13.393-6.1,21.007-13.77,21.007-7.614,0-13.554-7.128-13.554-20.52s6.1-20.9,13.716-20.9S169.759,446.174,169.759,459.565Zm-19.278.271c0,15.984,1.566,19.6,5.562,19.6s5.67-3.618,5.67-19.6-1.673-19.549-5.616-19.549S150.481,443.852,150.481,459.836Z" fill="#1a1311"/>
      <path id="パス_230" data-name="パス 230" d="M193.9,450.979c0,7.183-4.481,12.151-10.043,12.151-5.509,0-9.991-4.645-9.991-11.826,0-7.128,4.591-12.151,10.1-12.151S193.9,443.9,193.9,450.979Zm-13.932.163c0,7.883.973,11.07,3.943,11.07s3.887-3.187,3.887-11.07c0-7.83-.971-11.071-3.887-11.071C180.937,440.071,179.964,443.312,179.964,451.142Zm1.89,30.672,27.325-44.55,1.458.918-27.325,44.55Zm36.883-13.392c0,7.182-4.482,12.15-10.044,12.15-5.508,0-9.99-4.644-9.99-11.826,0-7.128,4.59-12.15,10.1-12.15S218.737,461.348,218.737,468.422Zm-13.932.162c0,7.884.972,11.07,3.942,11.07s3.888-3.186,3.888-11.07c0-7.83-.972-11.07-3.888-11.07C205.777,457.514,204.8,460.754,204.8,468.584Z" fill="#1a1311"/>
      <path id="パス_231" data-name="パス 231" d="M155.293,506.334c0,8.423-6.119,14.29-13.282,14.29S128.8,515.081,128.8,506.658s6.156-14.255,13.283-14.255S155.293,497.911,155.293,506.334Zm-20.41.18c0,8.855,2.772,13.282,7.163,13.282s7.163-4.427,7.163-13.282-2.807-13.283-7.163-13.283S134.883,497.659,134.883,506.514Z" fill="#1a1311"/>
      <path id="パス_232" data-name="パス 232" d="M166.239,516.017c0,2.555.18,3.131,3.636,3.311.324,0,.36.072.36.36,0,.252-.036.289-.36.289-1.728-.073-4.212-.109-6.191-.109-1.944,0-4.32.036-5.868.109-.324,0-.36-.037-.36-.289,0-.288.036-.324.36-.36,2.952-.18,3.384-.756,3.384-3.311V496.976c0-2.556-.4-3.1-3.636-3.313-.324-.035-.36-.071-.36-.323,0-.288.036-.324.36-.324,2.952.072,6.587.108,9.827.108,3.348,0,7.019-.036,10.151-.108.216,1.872.647,5.219.9,7.09,0,.289-.179.4-.5.4-.144,0-.215-.108-.287-.288a10.141,10.141,0,0,0-3.024-4.356,8.034,8.034,0,0,0-5.651-1.763c-2.556,0-2.736.359-2.736,2.843V505.4c.54.037.936.037,1.476.037a7.431,7.431,0,0,0,4.391-1.009,4.118,4.118,0,0,0,1.656-2.736c.072-.359.108-.395.432-.395s.36.036.36.395c-.036,1.26-.036,2.953-.036,4.248,0,1.332,0,3.131.036,4.463,0,.325-.036.361-.36.361s-.36-.036-.432-.361a5.09,5.09,0,0,0-1.692-3.059c-.683-.54-2.087-.936-4.355-.936-.54,0-.936,0-1.476.036Z" fill="#1a1311"/>
      <path id="パス_233" data-name="パス 233" d="M189.171,516.017c0,2.555.18,3.131,3.635,3.311.324,0,.361.072.361.36,0,.252-.037.289-.361.289-1.727-.073-4.211-.109-6.191-.109-1.944,0-4.32.036-5.867.109-.324,0-.36-.037-.36-.289,0-.288.036-.324.36-.36,2.952-.18,3.383-.756,3.383-3.311V496.976c0-2.556-.4-3.1-3.635-3.313-.324-.035-.36-.071-.36-.323,0-.288.036-.324.36-.324,2.951.072,6.587.108,9.827.108,3.347,0,7.019-.036,10.15-.108.216,1.872.648,5.219.9,7.09,0,.289-.18.4-.5.4-.144,0-.216-.108-.287-.288a10.141,10.141,0,0,0-3.024-4.356,8.035,8.035,0,0,0-5.652-1.763c-2.555,0-2.735.359-2.735,2.843V505.4c.54.037.935.037,1.475.037a7.437,7.437,0,0,0,4.392-1.009,4.118,4.118,0,0,0,1.656-2.736c.072-.359.108-.395.432-.395s.36.036.36.395c-.036,1.26-.036,2.953-.036,4.248,0,1.332,0,3.131.036,4.463,0,.325-.036.361-.36.361s-.36-.036-.432-.361A5.09,5.09,0,0,0,195,507.342c-.684-.54-2.087-.936-4.356-.936-.54,0-.935,0-1.475.036Z" fill="#1a1311"/>
    </g>
  </g>
</svg>
