<svg xmlns="http://www.w3.org/2000/svg" width="502.465" height="115" viewBox="0 0 502.465 115">
  <g id="グループ_794" data-name="グループ 794" transform="translate(-264.704 -347.019)">
    <path id="パス_3" data-name="パス 3" d="M463.695,383.359c-4.433.691-7.757,5.143-13.324,4.972,1.476-3.717,1.715-4.113,3.4-5.773,1.476-1.453,2.937-2.783,5.349-2.14.516.139,1.584-.633,1.923-1.245a2.075,2.075,0,0,0-.831-2.674,3.211,3.211,0,0,0-1.863-.643,5.269,5.269,0,0,0-2.416.66,19.864,19.864,0,0,0-7.857,8.513,8.491,8.491,0,0,0-.676,2.452c-.36,2.4,1.08,4.138,3.507,3.8a29.54,29.54,0,0,0,5.8-1.8c1.182-.427,2.3-1.039,4.425-2.023-.83,1.509-1.072,2.092-1.436,2.585-1.727,2.323-3.569,4.564-5.212,6.945a7.876,7.876,0,0,1-5.457,3.305c-17.437,3.293-34.431,8.267-51.267,13.784-5.174,1.7-10.236,3.753-15.285,5.8a23.989,23.989,0,0,0-5.32,3.008c-2.891,2.167-2.523,4.852.951,6.115a21.908,21.908,0,0,0,6.993,1.263,93.467,93.467,0,0,0,45.237-10.825,78.819,78.819,0,0,0,19.052-13.676,8.108,8.108,0,0,1,6.3-2.7,14.311,14.311,0,0,0,3.049-.262,1.779,1.779,0,0,0,.8-2.885,18.68,18.68,0,0,0-2.666-1.771c1.409-1.927,2.891-3.778,4.173-5.757s2.445-4.081,3.534-6.192A1.965,1.965,0,0,0,463.695,383.359Zm-21.44,25.783c-14.047,10.35-29.654,16.686-47.16,17.92-3.559.252-7.151.083-10.727.019-1.738-.031-1.763-.133-4.371-1.63a11.25,11.25,0,0,1,1.958-1.526c2.627-1.222,5.251-2.481,7.967-3.48a404.269,404.269,0,0,1,51.97-15.277c1.463-.325,2.941-.574,4.41-.857.187.3.373.589.558.885C445.329,406.517,443.879,407.947,442.255,409.142Z" transform="translate(120.885 31.744)"/>
    <path id="パス_4" data-name="パス 4" d="M354.371,395.556a3.562,3.562,0,0,0,0-4.3c-.716-1.114-1.6-2.119-2.387-3.149,1.174-2.11,3.045-2.964,4.887-3.828a22.025,22.025,0,0,0,2.812-1.153,1.969,1.969,0,0,0,.76-1.692,4.8,4.8,0,0,0-1.578-1.748c-.187-.158-.66-.044-.982.033a15.186,15.186,0,0,0-8.733,5.815c-1.359,1.777-1.27,3.259.114,5.137.689.939,1.517,1.775,2.294,2.67-.679,2.656-2.66,4.083-4.516,5.495-9.422,7.172-19.618,12.883-31.105,16.093a19.964,19.964,0,0,0-2.9.926,1.5,1.5,0,0,0-.8,2.123,2.011,2.011,0,0,0,1.553.978,21.366,21.366,0,0,0,4.4-1.155A134.356,134.356,0,0,0,347.8,401.879a41.564,41.564,0,0,0,4.34-3.559A18.455,18.455,0,0,0,354.371,395.556Z" transform="translate(51.725 35.804)"/>
    <path id="パス_5" data-name="パス 5" d="M388.873,383.186c-.995.643-1.865,1.476-2.8,2.208-1.309,1.02-2.45,2.329-4.1,2.668-1.272-1.107-2.41-2.1-3.38-2.947-2.724.01-4.441,1.432-6.211,2.785-.883.674-1.867,1.22-3.047,1.982a18.1,18.1,0,0,0-.254-2.466c-.56-2.1-1.686-2.818-3.755-2.352a29.659,29.659,0,0,0-3.186,1.147c.51-1.4.885-2.327,1.178-3.278a13.18,13.18,0,0,0,.86-3.44,2.448,2.448,0,0,0-1.2-1.958c-.593-.2-1.542.372-2.2.807-.358.235-.468.88-.641,1.359q-2.772,7.693-5.518,15.391a3.769,3.769,0,0,0-.3,1.488c.037.454.273,1.188.562,1.263a2.326,2.326,0,0,0,1.825-.187,20.3,20.3,0,0,0,1.933-2.362c1.792-2.054,3.592-4.1,5.447-6.1.554-.6,1.24-1.213,2.212-.739a2.418,2.418,0,0,1,.239.425c.481,1.5-.681,3.719,1.6,4.4,1.686.506,2.776-.972,3.975-1.877,1.74-1.315,3.232-3.016,5.7-3.738.552.647,1.068,1.276,1.611,1.881a3.4,3.4,0,0,0,4.2.943,66.088,66.088,0,0,0,7.334-4.579,1.626,1.626,0,0,0,.152-2.312A1.513,1.513,0,0,0,388.873,383.186Z" transform="translate(97.882 33.334)"/>
    <path id="パス_6" data-name="パス 6" d="M411.249,378.668a1.772,1.772,0,0,0,1.5-2.237,2.021,2.021,0,0,0-2.294-1.569,10.679,10.679,0,0,0-2.891.955,39.559,39.559,0,0,0-13.012,11.351,11.051,11.051,0,0,0-1.434,2.693c-.858,2.35.7,4.369,3.084,3.726a56.227,56.227,0,0,0,8.1-3.053c2.006-.891,3.871-2.1,5.94-3.241.612,1.13,1.018,2.019,1.549,2.824a3.617,3.617,0,0,0,3.022,1.671,15.52,15.52,0,0,0,7.393-1.638,1.987,1.987,0,0,0,.755-1.648,1.507,1.507,0,0,0-1.854-1.293,12.212,12.212,0,0,0-1.925.681c-1.58.529-3.166,1.043-4.766,1.567-1.827-1.879-.957-4.523-3.721-5.133-1.563.843-3.345,1.84-5.155,2.774-2.425,1.249-4.86,2.479-7.318,3.657a1.56,1.56,0,0,1-2.323-.676,7.965,7.965,0,0,1,1.07-2.069C400.978,383.774,405.19,379.817,411.249,378.668Z" transform="translate(139.995 30.405)"/>
    <path id="パス_7" data-name="パス 7" d="M445.965,380.493c-1.482.833-2.928,1.727-4.354,2.656a36.662,36.662,0,0,1-11.058,5.153,10.776,10.776,0,0,1-6.03-.112,2.724,2.724,0,0,1-2.106-3.5,13.87,13.87,0,0,1,1.276-2.67c1.195.8,2.1,1.9,3.041,1.94,2.487.1,6.1-3.141,6.664-5.553a2.23,2.23,0,0,0-1.653-2.733,6.865,6.865,0,0,0-2.023-.164c-3.992.441-8.854,4.835-9.78,8.779a4.762,4.762,0,0,0,2.922,5.809,9.554,9.554,0,0,0,3.921.71c7.572-.306,14.024-3.821,20.459-7.339.146-.079.329-.2.37-.333a5.685,5.685,0,0,0,.462-1.871C448.036,380.57,446.7,380.081,445.965,380.493ZM428.9,378.428c.516,1.2-.389,1.24-.793,1.449-.287.15-.774-.087-1.609-.221Z" transform="translate(169.371 31.12)"/>
    <path id="パス_8" data-name="パス 8" d="M355.475,379.367a20.665,20.665,0,0,0-7.576,6.685,3.7,3.7,0,0,0,.348,4.722c.874,1.018,1.834,1.963,2.7,2.878-1.18,2.708-1.1,2.833-2.6,3.8-3.01,1.938-6.059,3.828-9.2,5.542-2.088,1.141-4.375,1.909-6.544,2.906-1.634.749-2.185,1.569-1.921,2.589.329,1.257,1.667,1.64,3.411.631q7.974-4.611,15.814-9.449a12.133,12.133,0,0,0,2.945-2.8c1.524-1.911,1.5-3.626.092-5.609-.753-1.059-1.6-2.058-2.4-3.087a11.454,11.454,0,0,1,3.963-3.617,16.848,16.848,0,0,0,2.937-2.025,3.3,3.3,0,0,0,.643-2.283C358.041,379.467,356.314,378.878,355.475,379.367Z" transform="translate(71.993 35.349)"/>
    <path id="パス_9" data-name="パス 9" d="M361.03,389.738a22.726,22.726,0,0,0-3.463,2.113,16.636,16.636,0,0,1-6.943,3.066c-3.226.462-4.546-1.213-3.345-4.177a18.44,18.44,0,0,1,1.159-2.106c1.971-.089,3.428.187,4.579-.281a13.539,13.539,0,0,0,5.882-4.766,6.026,6.026,0,0,0,.88-2.346,2.216,2.216,0,0,0-2.414-2.562,5.3,5.3,0,0,0-1.471.377,20.593,20.593,0,0,0-10.75,11.1c-1.767,4.217.308,6.914,5,6.912a12.38,12.38,0,0,0,2.529-.233,31.343,31.343,0,0,0,9.378-3.915c.285-.167.662-.431.708-.7.1-.606.256-1.407-.04-1.821A1.909,1.909,0,0,0,361.03,389.738Z" transform="translate(87.154 34.6)"/>
    <path id="パス_10" data-name="パス 10" d="M715.813,384.07c.617-.82,1.349-1.553,1.987-2.361a1.765,1.765,0,0,0-.134-2.348,2.059,2.059,0,0,0-2.769-.391,19.912,19.912,0,0,0-2.73,3.045c-4.311,6.191-8.536,12.441-12.848,18.63-.853,1.224-2.267,3.483-2.267,3.483-1.926-.364-18.217-3.868-22.777-4.638-8.745-1.474-24.467-3.772-28.874-4.519a.513.513,0,0,1-.31-.839c.721-.831,1.677-1.9,2.286-2.545a152.861,152.861,0,0,1,26.529-22.736,104.156,104.156,0,0,1,12.97-7.344,49.52,49.52,0,0,1,10.247-3.24,15.221,15.221,0,0,1,5.572.232,2.6,2.6,0,0,1,2,3.583,22.9,22.9,0,0,1-3.037,5.245,28.576,28.576,0,0,1-8.764,7.07,65.766,65.766,0,0,1-14.3,5.71,12.569,12.569,0,0,0-2.807,1.13,1.5,1.5,0,0,0-.617,1.279c.171.6.606,1.4,1.113,1.566a4.513,4.513,0,0,0,2.464-.059,55.25,55.25,0,0,0,19.029-8.824,45.248,45.248,0,0,0,6.992-6.773,15.546,15.546,0,0,0,2.752-5.155,5.887,5.887,0,0,0-4.1-7.709,17.3,17.3,0,0,0-8.831.128,54.573,54.573,0,0,0-14.708,6.024c-13.256,7.55-24.6,17.449-34.956,28.553-1.282,1.375-2.579,2.738-3.8,4.037-3.648-.594-25.948-3.372-49.443-5-24.116-1.672-49.022-2.47-52.887-1.982,1.874-4.184,4.344-7.476,6.666-10.856a13.8,13.8,0,0,0,1.68-2.551,1.985,1.985,0,0,0-.527-1.758,2.041,2.041,0,0,0-1.843-.368,6.435,6.435,0,0,0-2.142,2.085c-1.636,2.614-3.131,5.318-4.7,7.977-1.117,1.9-2.265,3.776-3.361,5.6-4.118-.193-23.829.471-23.775.716a149.521,149.521,0,0,1,11.725-18.854c.617-.823,1.314-1.595,1.859-2.461a1.548,1.548,0,0,0-.46-2.248,2.586,2.586,0,0,0-2.3-.088,17.084,17.084,0,0,0-3.309,3.878c-3.345,5.586-6.549,11.256-9.816,16.891-.588,1.013-1.221,2-1.769,2.89-1.962.167-3.662.368-5.369.45a613.186,613.186,0,0,0-63.355,6.31c-14.553,2.231-29.046,4.87-43.563,7.34-1.14.195-3.74.525-3.74.525,3.434-7.73,7.09-16.585,10.615-24.375,3.6-7.966,7.316-15.88,10.935-23.837A15.621,15.621,0,0,0,413.5,350.7a2.975,2.975,0,0,0-4.183-3.42A19.182,19.182,0,0,0,404.389,350c-4.472,3.47-8.983,6.915-13.181,10.7a373.691,373.691,0,0,0-45.456,49.684,12.238,12.238,0,0,1-6.98,4.667c-13.888,3.776-27.753,7.65-41.515,11.853-9.174,2.8-18.174,6.181-27.218,9.4a15.455,15.455,0,0,0-4.449,2.47,2.73,2.73,0,0,0,1.019,4.6,4.528,4.528,0,0,0,2.905-.316c2.985-1.3,5.833-2.924,8.847-4.138,18.795-7.579,38.165-13.41,57.673-18.814.7-.193,1.316-.3,1.811.714-1.979,3.039-4.1,6.143-6.059,9.349-2.23,3.656-4.4,7.357-6.411,11.135a11.685,11.685,0,0,0-1.173,4.4,2.594,2.594,0,0,0,1.328,1.976,2.733,2.733,0,0,0,2.357-.285,6.06,6.06,0,0,0,1.753-2.422c3.934-9.019,9.5-17.054,14.927-25.189a7.627,7.627,0,0,1,4.913-3.345c10.5-2.526,20.974-5.113,31.463-7.656.749-.182,3.148-.559,3.148-.559s-1.165,2.729-1.565,3.631c-3.265,7.365-6.572,14.712-9.828,22.081a31.476,31.476,0,0,0-1.786,4.8,2.068,2.068,0,0,0,1.353,2.476,2.159,2.159,0,0,0,2.778-.592c1.594-2.306,2.527-5.216,3.5-7.434,2.836-6.457,5.382-13.243,7.971-20.16,2.679-7.156,1.533-5.919,6.183-6.915,6.7-1.436,13.442-2.656,20.175-3.926a714.5,714.5,0,0,1,88.659-10.951,23.4,23.4,0,0,1,4.014-.134c-.483,1.151-1.14,2.428-1.475,3.194-2.125,4.87-4.392,9.684-6.35,14.622-2.148,5.417-4.045,10.932-5.98,16.43a6.46,6.46,0,0,0-.489,3.673.882.882,0,0,0,1.441.454c2.307-2.087,2.855-5.228,5.133-6.834,3.114,1.861,3.42,1.961,6.1.866a24.911,24.911,0,0,0,12.146-10.689,10.81,10.81,0,0,0,1.234-3.885,3.158,3.158,0,0,0-3.2-3.778,8.014,8.014,0,0,0-4.823,1.5,39.179,39.179,0,0,0-8.77,7.882c-.968,1.095-1.966,2.164-2.951,3.242,2.566-8.521,6.417-16.34,10.3-24.149,1.558-3.133.82-2.987,4.838-3.014,5.137-.036,10.27-.356,15.407-.46,1.324-.027,2.949-.044,4.8.073-.9,1.882-1.924,3.784-2.662,5.266-2.6,5.214-5.354,10.356-7.764,15.658a78.4,78.4,0,0,0-3.112,9.236,2.27,2.27,0,0,0,3.478,2.782,26.7,26.7,0,0,0,7.609-6.972c.379-.791-1-1.348-1.537-1.492a2.5,2.5,0,0,0-1.884.46,15.644,15.644,0,0,0-1.667,1.938c-.661.7-1.391,1.342-2.441,2.34,1.251-6.208,9.374-22.705,14.064-28.9,39-.71,86.7,4.219,100.972,6.089a.774.774,0,0,1,.521,1.235c-.874,1.13-2.023,2.361-2.692,3.263a83.128,83.128,0,0,0-10.079,16.7c-1.615,3.782-3.177,7.619-3.1,11.861.111,6.009,2.893,9.582,8.711,11.172.824.226,1.682.341,2.52.517a40.017,40.017,0,0,0,17.584-.467,211.252,211.252,0,0,0,22.733-6.562c5.124-1.817,2.6-5.632.542-4.873-2.1.67-4,1.666-5.769,2.344-6.758,2.432-12.232,4.7-19.2,6.2a44.7,44.7,0,0,1-12.7,1.35,18.659,18.659,0,0,1-7.44-1.8c-2.97-1.323-4.614-3.713-4.378-6.888a36.219,36.219,0,0,1,1.675-9.046c2.7-7.847,10.391-19.442,15.507-24.019,2.248.23,19.893,2.623,26.7,3.9,6.643,1.321,21.738,3.958,26.243,5.14-2.683,4.439-5.239,8.5-7.283,12.778-2.054,4.305-4.242,8.546-6.225,12.516a20.843,20.843,0,0,0-1.853,5.2c-.586,4.387,1.931,5.212,3.154,4.942a8.923,8.923,0,0,0,5.637-4.115,1.773,1.773,0,0,0-1.627-2.505,26.088,26.088,0,0,0-3.629,1.166c3.493-10.67,8.987-19.848,15.172-28.882A287.721,287.721,0,0,1,733.359,417c-1.813,4.01-3.654,7.667-5.137,11.461-1.928,4.942-3.616,9.98-5.306,15.011a6.283,6.283,0,0,0-.088,3.006c.056.312,1.146.745,1.6.6a3.152,3.152,0,0,0,1.4-1.39c.994-1.6,1.828-3.3,2.851-4.885,3.34-5.149,7.6-9.3,13.34-11.689a12.454,12.454,0,0,1,4.47-.841,2.045,2.045,0,0,1,1.788,3.267,19.011,19.011,0,0,1-3.246,3.918,46.339,46.339,0,0,1-11.75,7.328,18.7,18.7,0,0,0-3.058,1.794,1.442,1.442,0,0,0-.2,1.365,1.539,1.539,0,0,0,1.209.686,4.471,4.471,0,0,0,1.928-.588c3.43-1.953,6.925-3.811,10.209-5.99a61.566,61.566,0,0,0,6.762-5.515,6.919,6.919,0,0,0,2.265-4.5c.28-2.461-.788-3.956-3.183-4.441a12.19,12.19,0,0,0-6.988.952,38.864,38.864,0,0,0-10.839,6.654l-2.652,2.256c1.418-5.283,5.256-13.263,7.565-17.686,1.972.559,4.394,1.3,6.465,2.049,5.478,1.972,10.905,4.084,16.375,6.078a6.462,6.462,0,0,0,3,.483,2.73,2.73,0,0,0,1.83-1.5,3.184,3.184,0,0,0-.473-2.315,3.116,3.116,0,0,0-1.652-1.095c-2.271-.774-4.566-1.482-6.864-2.168-5.415-1.618-11.244-3.38-16.956-5.067,0,0,.611-1,.774-1.281a196.944,196.944,0,0,1,25.425-34.84,30.349,30.349,0,0,0,2.7-3.083,1.6,1.6,0,0,0-.609-2.235c-.471-.327-1.45-.548-1.807-.285a19.978,19.978,0,0,0-3.355,3.1,232.614,232.614,0,0,0-23.518,33.143c-.849,1.457-1.669,3.006-2.65,4.628-11.447-2.989-22.794-5.9-34.425-8.606a25.563,25.563,0,0,1,1.707-2.587ZM385.6,403.763c-5.817,1.846-31.242,7.353-34.118,7.457,6.957-13.682,44.207-51.911,56.2-57.594.04.509.249,1.04.086,1.409C400.587,371.317,392.67,387.8,385.6,403.763Zm123.708,5.909a12.425,12.425,0,0,1,3.246-1.36c.83-.251,1.688.716,1.523,1.553a4.816,4.816,0,0,1-.088.5c-1.537,4.937-7.768,10.047-12.859,10.5a10.574,10.574,0,0,1-2.192-.45C502.176,415.98,505.253,412.351,509.306,409.672Z" transform="translate(0 0)"/>
    <path id="パス_11" data-name="パス 11" d="M496.9,392.7a9.91,9.91,0,0,0-2.562.081c.978-1.261,1.363-1.821,1.813-2.325,1.474-1.648,3.051-3.211,4.414-4.947a2.653,2.653,0,0,0,.36-2.275c-.441-.968-1.436-.549-2.175-.117-1.026.6-2.029,1.251-3.014,1.921-4.358,2.978-8.652,6.052-13.077,8.927-2.7,1.757-5.582,3.249-8.431,4.768-.462.246-1.18.013-2.258-.006.533-1.5.864-2.6,1.313-3.651.537-1.245,1.236-2.421,1.755-3.671a1.953,1.953,0,0,0-1.009-2.558,1.983,1.983,0,0,0-2.587.972c-.9,2.554-1.688,5.149-2.41,7.759a4.387,4.387,0,0,0,.177,2,2.582,2.582,0,0,0,2.949,2.225,13.2,13.2,0,0,0,4.306-1.394c3.7-2.1,7.274-4.408,10.914-6.608.747-.45,1.563-.789,2.645-1.328a35.384,35.384,0,0,0-1.082,3.857,2.032,2.032,0,0,0,1.771,2.148,11.148,11.148,0,0,0,7.4-2.837,2.049,2.049,0,0,0,.266-1.85A2.425,2.425,0,0,0,496.9,392.7Z" transform="translate(223.338 38.958)"/>
  </g>
</svg>
