<svg xmlns="http://www.w3.org/2000/svg" width="364" height="80" viewBox="0 0 364 80">
  <g id="グループ_944" data-name="グループ 944" transform="translate(-271.93 -446.107)">
    <rect id="長方形_1" data-name="長方形 1" width="364" height="80" rx="38.944" transform="translate(271.93 446.107)" fill="#fff" opacity="0.595"/>
    <path id="パス_134" data-name="パス 134" d="M510.857,453.607h86.292c16.968,0,30.724,14.511,30.724,32.412v.176c0,17.9-13.756,32.412-30.724,32.412H310.711c-16.968,0-30.723-14.511-30.723-32.412v-.176c0-17.9,13.755-32.412,30.723-32.412H397" fill="none" stroke="#1a1311" stroke-miterlimit="10" stroke-width="0.929"/>
    <g id="グループ_33" data-name="グループ 33">
      <path id="パス_135" data-name="パス 135" d="M467.448,485.318c-.074.666-.148,1.407-.259,2.221a7.485,7.485,0,0,1,5.957-2.665c5.254,0,9.029,3.22,9.029,8.029,0,5.477-4.033,9.177-9.621,9.177-5.18,0-8.14-2.4-8.14-5.18a2.87,2.87,0,0,1,2.923-2.961,2.664,2.664,0,0,1,2.886,2.739,2.39,2.39,0,0,1-1.036,1.85.7.7,0,0,0-.407.7c0,1.3,1.184,2.073,2.812,2.073,3.072,0,5.07-3.034,5.07-8.326,0-4.588-2.221-6.919-4.922-6.919a5.45,5.45,0,0,0-4.366,2.627c-.148.222-.222.333-.444.333-.518,0-.962-.3-.962-.518,0-.407.148-.3.222-1.036l1.11-12.36a.674.674,0,0,1,.259-.48.7.7,0,0,1,.518-.223c1.591.037,3.885.037,5.772.037,1.962,0,4.811-.037,7.4-.147.259,0,.333.11.333.3L480.1,478.7a.633.633,0,0,1-.481.259c-1.888-.074-2.923-.111-4.552-.111h-6.993Z" fill="#1a1311"/>
      <path id="パス_136" data-name="パス 136" d="M504.3,487.687c0,9.176-4.181,14.393-9.435,14.393-5.218,0-9.288-4.884-9.288-14.06s4.181-14.321,9.4-14.321S504.3,478.51,504.3,487.687Zm-13.21.185c0,10.952,1.074,13.432,3.812,13.432s3.885-2.48,3.885-13.432-1.147-13.4-3.848-13.4S491.09,476.919,491.09,487.872Z" fill="#1a1311"/>
      <path id="パス_137" data-name="パス 137" d="M525.76,487.687c0,9.176-4.181,14.393-9.436,14.393-5.217,0-9.287-4.884-9.287-14.06s4.181-14.321,9.4-14.321S525.76,478.51,525.76,487.687Zm-13.21.185c0,10.952,1.073,13.432,3.811,13.432s3.886-2.48,3.886-13.432-1.147-13.4-3.849-13.4S512.55,476.919,512.55,487.872Z" fill="#1a1311"/>
      <path id="パス_138" data-name="パス 138" d="M555.693,473.922c2.109-2.331,2.22-2.443,2.627-2.443s.666.075,2.331,1.481c1.554,1.3,1.813,1.591,1.813,1.961s-.148.629-1.221,1.369v8.437c0,7.067.222,12.913.222,15.281,0,2.628-.851,3.737-2.627,4.514A7.118,7.118,0,0,1,556.1,505c-.74,0-1-.223-1.222-1.036-.406-1.518-1.109-2.664-4.181-3.442-.221-.037-.221-.37,0-.37a33.27,33.27,0,0,0,4.478-.074c1-.11,1.295-.851,1.295-2.294v-9.213H536.858v14.653c0,1.073-.888,1.776-3.219,1.776-1.332,0-1.591-.186-1.591-1.369,0-1,.259-7.808.259-19.167,0-7.845-.037-10.25-.148-12.248,4.033.813,5.217,1.3,5.55,1.7Zm-18.835,13.913h7.327V476.66c0-.593,0-1.332-.037-2h-6.513a2.337,2.337,0,0,1-.777.481Zm19.612,0V474.662h-6.7c-.074.259-.333.481-.777.776v12.4Z" fill="#1a1311"/>
    </g>
    <g id="グループ_34" data-name="グループ 34">
      <path id="パス_139" data-name="パス 139" d="M327.813,477.15c1.327-.1,1.794-.129,2.458-.208a2.306,2.306,0,0,0,.494-.143,1.376,1.376,0,0,1,.481-.117,2.594,2.594,0,0,1,1.235.351.568.568,0,0,1,.286.507.366.366,0,0,1-.3.39,3.954,3.954,0,0,1-.793-.052,13.406,13.406,0,0,0-1.613-.091c-.441,0-1.169,0-1.754.039.416.286.6.546.6.728a.393.393,0,0,1-.065.208,2.372,2.372,0,0,0-.26.585,8.58,8.58,0,0,1-1.417,2.561,7.956,7.956,0,0,1-2.652,2.2.56.56,0,0,1-.221.079c-.092,0-.13-.039-.13-.13,0-.066.1-.157.324-.352a10.811,10.811,0,0,0,1.911-2.391,9.894,9.894,0,0,0,.962-2.3,3.962,3.962,0,0,0,.118-.689.606.606,0,0,0-.143-.442c-.923.091-1.886.208-2.483.325a1.62,1.62,0,0,0-.612.221.6.6,0,0,1-.389.117c-.235,0-.468-.13-.871-.585a1.154,1.154,0,0,1-.338-.715c0-.2.065-.312.142-.312s.117.078.2.143a1.378,1.378,0,0,0,.883.416c.313,0,.768-.039,1.145-.078C325.89,477.319,326.644,477.241,327.813,477.15Zm.833-2.756a1.412,1.412,0,0,0,.39-.143,1.633,1.633,0,0,1,.494-.143,2.355,2.355,0,0,1,1.117.26.428.428,0,0,1,.208.39.436.436,0,0,1-.48.455c-.286.013-.624.013-1.04.052-.793.065-2.146.169-2.873.234-.247.026-.494.052-.676.052a1.112,1.112,0,0,1-1.04-.468.918.918,0,0,1-.3-.689c0-.117.027-.2.092-.2.039,0,.077.052.169.117a1.4,1.4,0,0,0,1.04.4,13.313,13.313,0,0,0,1.4-.1C327.723,474.55,328.229,474.485,328.646,474.394Z" fill="#1a1311"/>
      <path id="パス_140" data-name="パス 140" d="M343.791,480.01a8.431,8.431,0,0,1,1.248.793c.779.6,1.092,1.1,1.092,1.482a.651.651,0,0,1-.6.7.851.851,0,0,1-.806-.442,11,11,0,0,0-1.508-1.937,7.884,7.884,0,0,0-1.3-1,14.913,14.913,0,0,1-3.186,2.548,11.584,11.584,0,0,1-2.222,1.028.827.827,0,0,1-.286.064c-.066,0-.13-.025-.13-.117a.178.178,0,0,1,.091-.143,15.807,15.807,0,0,0,4.069-3.146,19.554,19.554,0,0,0,2.639-3.445.418.418,0,0,0,.078-.156c0-.039-.039-.052-.169-.039-.91.1-2.08.3-3.108.52a1.916,1.916,0,0,0-.6.208.786.786,0,0,1-.455.143c-.247,0-.507-.156-.872-.611a1.112,1.112,0,0,1-.273-.832c0-.247.092-.338.169-.338.039,0,.092.052.183.156.364.4.506.494.9.494.156,0,.482-.026.988-.078,1.067-.117,1.938-.234,2.861-.364a.962.962,0,0,0,.519-.2.49.49,0,0,1,.377-.143,1.039,1.039,0,0,1,.69.351c.389.338.546.546.546.728,0,.13-.04.26-.429.39-.117.039-.2.143-.313.312a21.257,21.257,0,0,1-1.767,2.34A16.84,16.84,0,0,1,343.791,480.01Z" fill="#1a1311"/>
      <path id="パス_141" data-name="パス 141" d="M356.141,478.2c.78.325,1.209.728,1.209,1.314a.644.644,0,0,1-.559.688.878.878,0,0,1-.716-.377,7.138,7.138,0,0,0-.935-.949,3.843,3.843,0,0,0-1.353-.741V480.4c0,.546.026,1.743.053,3.146,0,.494-.222.611-.482.611a.6.6,0,0,1-.546-.3,2.2,2.2,0,0,1-.286-1.027,1.361,1.361,0,0,1,.066-.377.474.474,0,0,0,.064-.221c.014-.169.039-.533.053-2.912.013-1.235,0-2.34,0-3.562a6.69,6.69,0,0,0-.053-1.105.6.6,0,0,0-.272-.3,1.917,1.917,0,0,0-.455-.208c-.091-.025-.13-.064-.13-.116,0-.078.091-.143.169-.2a.749.749,0,0,1,.363-.117,3.094,3.094,0,0,1,1.314.351c.35.156.52.364.52.611a.556.556,0,0,1-.222.416.406.406,0,0,0-.09.26c-.04.364-.066,1.131-.066,2.34A7.339,7.339,0,0,1,356.141,478.2Z" fill="#1a1311"/>
      <path id="パス_142" data-name="パス 142" d="M363.8,482.818a5.512,5.512,0,0,1-2.288,1.976c-.066.026-.144-.077-.105-.13a5.45,5.45,0,0,0,1.092-1.716,5.111,5.111,0,0,0,.3-1.027c1.078.416,1.4.572,1.4.7S364.083,482.792,363.8,482.818Zm-.521-1.507v.078c0,.3-.259.428-.675.428-.365,0-.495-.117-.495-.377,0-.741.066-2.275.066-5.278,0-1.209,0-1.638-.066-2.848a9.244,9.244,0,0,1,1.288.612h1.39c.352-.494.455-.572.56-.572.13,0,.233.078.676.468.2.182.273.273.273.377s-.065.182-.364.39v1.105c0,2.925.025,4.94.025,5.6,0,.273-.182.442-.637.442-.3,0-.48-.091-.48-.35v-.078Zm1.561-7.086h-1.561v2.015h1.561Zm0,2.314h-1.561v1.976h1.561Zm0,2.275h-1.561v2.2h1.561Zm.468,5.044c-.313,0-.416-.143-.521-.675a2.46,2.46,0,0,0-.546-1.132c-.039-.052.014-.1.078-.077,1.092.363,1.561.727,1.561,1.26A.59.59,0,0,1,365.306,483.858Zm6.149-6.8c.455-.546.559-.624.663-.624.13,0,.234.078.715.494.221.208.3.3.3.4s-.091.2-.429.39a10.664,10.664,0,0,1-1.781,3.913,5.73,5.73,0,0,0,2.834,1.756c.065.012.052.142-.013.169a1.486,1.486,0,0,0-.832.974c-.065.156-.1.221-.208.221a1,1,0,0,1-.377-.194,8.546,8.546,0,0,1-2.055-2.159,9.928,9.928,0,0,1-3.834,2.379c-.066.027-.143-.117-.091-.156a12.368,12.368,0,0,0,3.445-3.055,11.716,11.716,0,0,1-1-4.212h-.352a14.885,14.885,0,0,1-.441,3.576,7.25,7.25,0,0,1-2.38,3.756c-.052.039-.169-.065-.13-.117a9.122,9.122,0,0,0,1.534-3.783,32.029,32.029,0,0,0,.248-5.4c0-.845-.04-1.274-.1-2.067a6.877,6.877,0,0,1,1.364.728H371.4c.651-.754.755-.832.859-.832.13,0,.247.078.9.572.3.234.377.325.377.429s-.053.129-.2.129h-4.875v.482c0,.806,0,1.547-.027,2.223Zm-2.393.3a7.955,7.955,0,0,0,1.223,3.445,10.682,10.682,0,0,0,1.2-3.445Z" fill="#1a1311"/>
      <path id="パス_143" data-name="パス 143" d="M380.411,479.919c-.064,2.977-1.286,4.329-4.745,4.953-.064.014-.116-.169-.052-.194,2.692-1.04,3.511-2.2,3.511-4.953,0-.144,0-.287-.014-.56,1.4.13,1.73.208,1.73.442C380.841,479.737,380.736,479.815,380.411,479.919Zm5.006-1.573c.494-.6.6-.676.7-.676.13,0,.221.078.845.676.273.26.35.364.35.468,0,.234-.077.312-.585.312a.45.45,0,0,0-.363.13,8.393,8.393,0,0,1-1.235.819c-.052.027-.156-.039-.13-.091a5.436,5.436,0,0,0,.546-1.338H377.4c0,1-.456,1.741-1.236,1.741a.552.552,0,0,1-.571-.572c0-.286.13-.481.493-.689a1.692,1.692,0,0,0,1.015-1.573c0-.065.13-.078.142-.013a3.692,3.692,0,0,1,.144.806Zm-3.472-1.651h2.288c.612-.715.768-.819.859-.819.117,0,.26.1.832.572.247.208.35.325.35.416s-.039.13-.169.13h-8.137a6.114,6.114,0,0,0-.885.078l-.143-.481a4.83,4.83,0,0,0,.989.1H380.7v-1.547h-3.874a6.471,6.471,0,0,0-.923.078l-.142-.481a5.139,5.139,0,0,0,1.013.1H380.7V474.3a10.274,10.274,0,0,0-.078-1.274c1.626.143,1.781.285,1.781.429,0,.117-.142.221-.455.325v1.066h3.212c.624-.741.78-.845.87-.845.118,0,.261.1.885.585.286.234.39.338.39.429s-.039.13-.169.13h-5.188Zm1.275,6.331c0,.365.117.468,1.2.468a3.827,3.827,0,0,0,1.273-.117c.391-.116.612-.61,1-1.9.014-.065.157-.065.157,0,0,.468-.039,1.041-.039,1.4,0,.17.026.208.1.247.351.169.442.339.442.559,0,.326-.169.559-.611.7a9.689,9.689,0,0,1-2.471.208c-1.884,0-2.288-.183-2.288-1.158v-2.131c0-.7-.012-1.417-.039-2.133,1.664.234,1.664.234,1.664.429,0,.13-.09.208-.389.326Z" fill="#1a1311"/>
      <path id="パス_144" data-name="パス 144" d="M392.892,479.087c.442-.143.883-.312,1.326-.481.064-.026.117.1.064.143a10.047,10.047,0,0,1-1.39.976c.012,2.339.012,3.952.012,4.64,0,.4-.259.56-.754.56-.389,0-.533-.144-.533-.43,0-.585.027-1.9.039-4.1-.325.169-.676.326-1.04.495-.025.337-.1.467-.26.467-.195,0-.3-.22-.727-1.521a7.783,7.783,0,0,0,1.183-.182c.273-.052.558-.13.858-.208v-.974c0-.7.013-1.4.013-2.107h-.832a7.5,7.5,0,0,1-1.145,2.015c-.039.053-.169.026-.143-.039a15.89,15.89,0,0,0,.559-2.652,10.637,10.637,0,0,0,.131-1.573c.9.208,1.351.377,1.43.533v-.286a11.73,11.73,0,0,0-.052-1.443c1.586.181,1.7.208,1.7.416,0,.117-.131.234-.442.364v2.366h.247c.428-.546.585-.65.675-.65.118,0,.248.1.676.468.169.143.274.26.274.351s-.039.13-.169.13h-1.7Zm-1.209-3.016v-1.3c-.039.065-.144.117-.39.208-.117.4-.222.767-.339,1.092Zm4.875-.689H395.1a4.238,4.238,0,0,0-.742.078l-.142-.481a3.644,3.644,0,0,0,.857.1h1.483v-1.092a9.934,9.934,0,0,0-.052-1.04c1.573.143,1.716.286,1.716.429s-.143.247-.416.35v1.353h1.287c.585-.7.741-.806.832-.806.117,0,.26.1.832.572.26.208.364.312.364.4s-.039.13-.169.13h-3.146V477.4h1.845c.586-.715.742-.819.832-.819.118,0,.261.1.859.572.273.221.377.325.377.416s-.039.13-.169.13h-6.994a4.647,4.647,0,0,0-.781.078l-.142-.481a3.93,3.93,0,0,0,.884.1h2.041Zm2.938,6.045c0,.586.039,1.495.039,2.028a1.161,1.161,0,0,1-.3.976,1.757,1.757,0,0,1-1.26.48c-.182,0-.208-.025-.273-.338-.117-.533-.455-.7-1.417-.949-.065-.013-.065-.155,0-.155.65.038,1.286.052,1.78.052.169,0,.222-.052.222-.208v-3.446h-3.575a4.624,4.624,0,0,0-.768.078l-.142-.481a3.826,3.826,0,0,0,.871.1h3.614v-.546a7.466,7.466,0,0,0-.065-1.04c1.339.13,1.69.2,1.69.39,0,.13-.117.221-.416.364v.832h.416c.468-.637.637-.767.728-.767.117,0,.247.078.728.546.169.17.286.3.286.39s-.039.13-.169.13H399.5Zm-3.211,1.352c-.4,0-.481-.142-.65-.844a2.289,2.289,0,0,0-.754-1.3c-.052-.039,0-.1.064-.091,1.314.208,2.016.754,2.016,1.456C396.961,482.48,396.753,482.779,396.285,482.779Z" fill="#1a1311"/>
      <path id="パス_145" data-name="パス 145" d="M405.541,477.384v.234c0,.416-.208.6-.689.6-.351,0-.521-.13-.521-.363,0-.352.065-.7.065-2.12,0-.819-.012-1.638-.078-2.457a6.937,6.937,0,0,1,1.314.662h2.782c.455-.532.559-.61.663-.61.13,0,.234.078.715.494.221.208.3.3.3.4s-.117.234-.364.377v.494c0,1.313.065,2.21.065,2.509,0,.377-.222.533-.7.533-.377,0-.533-.13-.533-.455v-.3h-1.366c-.012.637-.051,1.274-.117,1.9h1.417c.391-.455.494-.533.6-.533.13,0,.221.078.663.481.194.182.272.287.272.39s-.039.13-.35.364a10.833,10.833,0,0,1-.521,3.77,1.5,1.5,0,0,1-.74.78,1.869,1.869,0,0,1-.832.156c-.222,0-.286-.078-.312-.259-.065-.455-.365-.7-1.222-.95-.066-.012-.039-.168.025-.168.677.051,1.184.09,1.6.09s.546-.142.676-.988a21.883,21.883,0,0,0,.2-2.834h-1.522a6.643,6.643,0,0,1-3.445,5.188c-.052.039-.13-.052-.091-.105,1.847-1.95,2.484-3.8,2.509-7.28Zm3.016-3.146h-3.016v2.847h3.016Zm3.588,1.56c0,2.86.065,4.823.065,5.473,0,.364-.221.534-.7.534-.39,0-.533-.131-.533-.469,0-.39.051-1.56.051-3.9,0-2.016,0-2.588-.051-3.446,1.4.155,1.546.182,1.546.4,0,.117-.1.208-.376.325Zm1.43-1.638a6.352,6.352,0,0,0-.078-1.092c1.573.208,1.612.208,1.612.416,0,.143-.1.246-.338.364v4.732c0,2.782.065,4.108.065,4.823,0,.6-.105.82-.429,1.04a1.65,1.65,0,0,1-.949.312c-.286,0-.377-.065-.416-.324-.052-.508-.416-.754-1.495-1-.066-.014-.066-.2,0-.183.611.066,1.351.1,1.833.1.156,0,.2-.039.2-.169Z" fill="#1a1311"/>
      <path id="パス_146" data-name="パス 146" d="M418.8,478.1a10.967,10.967,0,0,1-1.262,1.482c-.052.052-.169-.064-.13-.117a19.321,19.321,0,0,0,1.847-4.212,13.116,13.116,0,0,0,.468-2.327c1.507.4,1.69.468,1.69.637s-.065.182-.508.325a14.561,14.561,0,0,1-1.417,3.159c.741.117.846.156.846.3,0,.117-.092.2-.352.325v6.617c0,.377-.22.546-.7.546-.416,0-.571-.13-.571-.494,0-.338.091-1.364.091-3.419Zm3.431,6.071c0,.312-.22.442-.714.442-.39,0-.52-.117-.52-.455,0-.65.064-1.3.064-3.926,0-1.209-.012-2.431-.064-3.653a9.739,9.739,0,0,1,1.325.676h.976V474.6H422a5.361,5.361,0,0,0-.846.078l-.142-.481a4.257,4.257,0,0,0,.923.1h5.525c.6-.689.754-.793.845-.793.117,0,.273.1.883.559.274.208.378.312.378.4s-.039.13-.169.13h-2.73v2.652h1.065c.43-.507.534-.585.638-.585.13,0,.247.078.767.494.234.2.312.286.312.39,0,.169-.1.26-.455.468v1.014c0,2.665.052,4.5.052,5.11,0,.325-.221.467-.754.467-.338,0-.481-.1-.481-.4v-.39h-5.578Zm1.067-6.617h-1.067v5.968H423.3Zm2.222-2.951H424.43v2.652h1.091Zm0,8.919v-5.968H424.43v5.968Zm2.289-5.968h-1.144v5.968h1.144Z" fill="#1a1311"/>
      <path id="パス_147" data-name="パス 147" d="M434.569,477.4c1.054.377,1.613.9,1.613,1.534a.6.6,0,0,1-.6.624c-.273,0-.43-.156-.469-.481a2.493,2.493,0,0,0-.546-1.443c0,3.211.066,6.137.066,6.864,0,.286-.274.43-.69.43-.324,0-.507-.1-.507-.378,0-.65.079-3.289.105-5.862a7.461,7.461,0,0,1-1.872,3.132c-.039.052-.156-.026-.13-.078a19.164,19.164,0,0,0,1.768-5.486h-.534a5.828,5.828,0,0,0-.871.078l-.142-.481a4.666,4.666,0,0,0,.962.1h.741v-1.326a16.3,16.3,0,0,0-.066-1.664c1.417.156,1.652.221,1.652.416,0,.142-.144.26-.482.4v2.171h.3c.39-.676.546-.78.637-.78.117,0,.233.1.676.546.169.182.273.312.273.4s-.039.13-.169.13h-1.717Zm2.185,3.016a15.165,15.165,0,0,1-1.534.572c-.066.013-.13-.143-.078-.169a15.474,15.474,0,0,0,4.056-3.042,11.628,11.628,0,0,1-1.171-1.976,8.443,8.443,0,0,1-2.053,2.08c-.052.039-.157-.052-.118-.1a11.619,11.619,0,0,0,1.717-3.12,8.821,8.821,0,0,0,.468-1.807c1.273.351,1.586.494,1.586.689,0,.143-.144.221-.468.26-.156.35-.325.689-.494,1h2.249c.507-.546.611-.624.715-.624.13,0,.234.078.754.507.234.208.312.3.312.4,0,.156-.091.221-.468.351a10.885,10.885,0,0,1-1.781,2.5,8.962,8.962,0,0,0,3.5,1.3c.065.013.052.079,0,.117a1.292,1.292,0,0,0-.7.9c-.026.143-.078.208-.182.208a1.716,1.716,0,0,1-.546-.181,10.521,10.521,0,0,1-2.6-1.717l-.065-.052a10.858,10.858,0,0,1-2.418,1.612,3.737,3.737,0,0,1,.6.377h3.03c.416-.442.52-.52.624-.52.13,0,.234.078.689.442.208.169.286.26.286.364s-.091.182-.338.365v.532c0,1.4.065,2.4.065,2.718s-.247.467-.728.467c-.338,0-.508-.117-.508-.4v-.429h-3.223v.455c0,.3-.247.443-.7.443-.351,0-.507-.131-.507-.364,0-.416.039-.859.039-2.575Zm4.393.377h-3.223v2.939h3.223Zm-2.665-5.694a2.449,2.449,0,0,1-.285.468,6.718,6.718,0,0,0,1.417,1.729,9.5,9.5,0,0,0,1.365-2.2Z" fill="#1a1311"/>
    </g>
    <g id="グループ_35" data-name="グループ 35">
      <path id="パス_148" data-name="パス 148" d="M356.357,501.94c0,.408.181.516.972.516,1.188,0,1.523-.036,1.691-.192a4.64,4.64,0,0,0,.672-1.656c.024-.071.156-.047.156.025-.012.42-.036.983-.036,1.271.012.192.048.228.251.312a.323.323,0,0,1,.216.324c0,.287-.251.5-.695.6a10.183,10.183,0,0,1-2.207.143c-1.5,0-1.931-.275-1.943-1.211,0-.2.024-.528.024-1.5V498.09h-1.691a6.8,6.8,0,0,1-.744,3.131,5,5,0,0,1-3.574,2.266c-.084.024-.143-.156-.072-.192a4.895,4.895,0,0,0,2.987-2.578,7.288,7.288,0,0,0,.48-2.627h-2.327a4.419,4.419,0,0,0-.864.072l-.12-.468a4.5,4.5,0,0,0,.96.1h3.85v-2.435H352a6.3,6.3,0,0,1-1.895,1.883c-.048.036-.144-.059-.108-.107a9,9,0,0,0,1.619-2.723,7.327,7.327,0,0,0,.36-1.379c.959.228,1.259.348,1.259.5,0,.133-.119.2-.444.252a7.69,7.69,0,0,1-.6,1.272h2.147V494.2a14.338,14.338,0,0,0-.048-1.558c1.223.119,1.367.227,1.367.371,0,.1-.084.192-.42.312v1.727h2.147c.528-.636.612-.7.684-.7s.168.06.719.492c.252.228.312.312.312.383s-.048.12-.168.12h-3.694v2.435h3.131c.6-.7.683-.743.767-.743s.156.048.756.54c.275.227.335.311.335.384s-.047.119-.155.119h-3.719Z" fill="#1a1311"/>
      <path id="パス_149" data-name="パス 149" d="M366.283,495.775h-2.519a5.4,5.4,0,0,0-.839.06l-.12-.443a5.6,5.6,0,0,0,.935.084h2.543v-1.127h-3.346a5.4,5.4,0,0,0-.84.059l-.12-.456a4.54,4.54,0,0,0,.948.1h2.146c-.084-.049-.132-.156-.179-.324a2.394,2.394,0,0,0-.672-1.092c-.036-.035.024-.119.072-.108.911.228,1.439.636,1.439,1.079a.5.5,0,0,1-.276.445h2.315a9.014,9.014,0,0,0,.456-.984,3.9,3.9,0,0,0,.18-.66c1.031.384,1.2.468,1.2.624,0,.119-.1.18-.528.192a9.735,9.735,0,0,1-.947.828h2.015c.5-.565.587-.624.659-.624s.192.048.684.468c.24.179.276.263.276.336s-.048.12-.168.12h-4.45v1.127h2.207c.48-.564.564-.612.648-.612s.156.048.647.444c.216.192.264.276.264.347s-.036.12-.156.12h-3.61v1.188h3.466c.48-.564.564-.624.648-.624s.156.06.7.456c.239.2.288.275.288.359s-.036.109-.157.109h-6.872c-.108.324-.228.635-.36.947q.091.054.252.144h4.414c.348-.4.42-.432.492-.432s.144.036.539.36c.168.156.217.216.217.288,0,.108-.049.18-.312.348v1.067c0,1.883.047,2.83.047,3.119s-.192.419-.527.419c-.264,0-.372-.12-.372-.36v-.3h-4.569v.3c0,.252-.192.384-.528.384-.276,0-.372-.108-.372-.323,0-.252.06-.9.06-2.591,0-.5.012-.852.024-1.224a8.993,8.993,0,0,1-2.8,2.9c-.071.047-.192-.084-.132-.144a10.659,10.659,0,0,0,2.987-4.9H362.6a6.9,6.9,0,0,0-.935.072l-.121-.456a5.462,5.462,0,0,0,1.044.084h3.694Zm3.322,2.879h-4.569V499.7h4.569Zm-4.569,2.422h4.569V500h-4.569Zm0,1.487h4.569v-1.187h-4.569Z" fill="#1a1311"/>
      <path id="パス_150" data-name="パス 150" d="M377.7,500.44c-.012.756-.024.9.1,1.176.1.24.48.252.876.288.06,0,.1.024.1.168s-.024.156-.1.156c-.444-.024-1.008-.06-1.452-.06s-1.043.036-1.487.06c-.1,0-.12-.012-.12-.156s.037-.156.12-.168c.312-.036.72-.06.8-.24a2.767,2.767,0,0,0,.155-1.2v-.54h-1.954c-.408,0-.732.013-1.056.013-.108,0-.144-.037-.144-.313a.644.644,0,0,1,.12-.479c1.14-1.956,2.039-3.443,3.239-5.362l.791-.216c.048,0,.084.025.084.12-.024.96-.024,1.919-.048,3.023l-.024,2.759c.408,0,.816-.025,1.236-.061.059,0,.084.025.071.084l-.1.372c-.011.06-.035.073-.108.073-.347-.025-.755-.025-1.1-.025Zm-.983-3.513c.012-.888.024-1.367.059-2.171-.911,1.475-1.846,3.011-2.7,4.546-.072.12-.048.179.1.179h2.518Z" fill="#1a1311"/>
      <path id="パス_151" data-name="パス 151" d="M384.955,498.006c0,2.711-.924,4.426-2.459,4.426-1.571,0-2.482-1.643-2.482-4.354,0-2.746.947-4.449,2.482-4.449C384.007,493.629,384.955,495.344,384.955,498.006Zm-3.766.036c0,2.459.276,4.018,1.307,4.018,1.007,0,1.283-1.559,1.283-4.018S383.516,494,382.5,494,381.189,495.6,381.189,498.042Z" fill="#1a1311"/>
      <path id="パス_152" data-name="パス 152" d="M391.194,498.006c0,2.711-.923,4.426-2.458,4.426-1.571,0-2.483-1.643-2.483-4.354,0-2.746.948-4.449,2.483-4.449C390.247,493.629,391.194,495.344,391.194,498.006Zm-3.765.036c0,2.459.276,4.018,1.307,4.018,1.007,0,1.283-1.559,1.283-4.018S389.755,494,388.736,494,387.429,495.6,387.429,498.042Z" fill="#1a1311"/>
      <path id="パス_153" data-name="パス 153" d="M396.284,499.613a18.833,18.833,0,0,1-3,1.2c-.084.024-.144-.144-.073-.18a14.779,14.779,0,0,0,7.281-6.237h-3.047a8.6,8.6,0,0,1-1.115,1.259c.983.324,1.583.9,1.583,1.476a.534.534,0,0,1-.456.563c-.191,0-.348-.1-.443-.431a2.845,2.845,0,0,0-.852-1.44,11.059,11.059,0,0,1-2.555,1.656c-.071.036-.168-.121-.1-.168a11.152,11.152,0,0,0,3.275-3.443,7.293,7.293,0,0,0,.671-1.427c.912.228,1.2.36,1.2.516,0,.132-.108.191-.468.288-.168.3-.348.588-.528.852h2.783c.408-.456.467-.5.551-.5s.156.048.612.468c.2.191.252.275.252.347,0,.132-.072.18-.48.3a12.287,12.287,0,0,1-4.126,4.342h4.306c.384-.42.444-.48.516-.48s.144.06.564.4c.179.168.215.24.215.311s-.048.157-.324.325v.887c0,1.607.049,2.387.049,2.626,0,.264-.181.4-.564.4-.288,0-.372-.1-.372-.348v-.384h-4.5v.361c0,.263-.168.395-.539.395-.288,0-.4-.107-.4-.359,0-.324.072-.852.072-2.687Zm5.361-.263h-4.5v3.129h4.5Z" fill="#1a1311"/>
      <path id="パス_154" data-name="パス 154" d="M407.516,496.639c.816.372,1.259.912,1.259,1.391a.456.456,0,0,1-.419.5c-.18,0-.276-.108-.312-.372a2.372,2.372,0,0,0-.528-1.259v.167c0,3.5.048,5.53.048,6.165,0,.241-.191.348-.516.348-.263,0-.371-.084-.371-.3,0-.407.06-2.075.1-5.709a9.111,9.111,0,0,1-1.786,3.107c-.049.048-.168-.036-.132-.1a16.39,16.39,0,0,0,1.751-4.966h-.7a4.628,4.628,0,0,0-.755.061l-.12-.445a4.232,4.232,0,0,0,.839.084h.852v-1.3a9.723,9.723,0,0,0-.084-1.535c1.139.12,1.307.18,1.307.336,0,.108-.1.192-.432.336v2.158h.408c.336-.515.42-.575.492-.575s.144.06.563.468c.145.132.2.227.2.288,0,.084-.037.119-.168.119h-1.5Zm4.858-.444h1.439c.432-.5.516-.563.587-.563s.168.059.588.42c.192.179.252.251.252.323s-.036.12-.168.12h-2.7v1.367h2.242c.432-.54.552-.611.624-.611s.156.06.624.468c.216.168.263.252.263.323s-.047.12-.155.12h-3.5a6.915,6.915,0,0,0,.959,1.907,5.474,5.474,0,0,0,.84-1.055,2.835,2.835,0,0,0,.252-.528c.815.432,1.007.576,1.007.7s-.12.168-.5.131a8.528,8.528,0,0,1-1.463.936,4.942,4.942,0,0,0,.336.372,5.984,5.984,0,0,0,2.351,1.463c.06.024.036.12-.024.144a.8.8,0,0,0-.552.54c-.06.179-.1.215-.168.215a.69.69,0,0,1-.4-.191,8.183,8.183,0,0,1-1.643-1.691,8.076,8.076,0,0,1-1.163-2.711c.084,2.842.108,3.778.108,4.21a.831.831,0,0,1-.336.708,1.3,1.3,0,0,1-.768.227c-.108,0-.144-.036-.18-.227-.06-.313-.24-.468-1.223-.684-.072-.013-.06-.168.012-.156.612.059,1.115.072,1.475.072.144,0,.192-.061.192-.24v-1.692a15.074,15.074,0,0,1-2.65,1.524c-.036.372-.084.456-.192.456s-.216-.168-.636-1.128a5.288,5.288,0,0,0,.863-.168,17.366,17.366,0,0,0,2.615-.911v-2.219h-1.619a6.173,6.173,0,0,0-.9.06l-.12-.444a6.079,6.079,0,0,0,1,.084h1.643v-1.367h-1.427a4.665,4.665,0,0,0-.768.06l-.119-.455a4.605,4.605,0,0,0,.875.1h1.439v-1.331h-1.751a5.587,5.587,0,0,0-.731.06l-.133-.444a4.354,4.354,0,0,0,.852.084h2.639a8.708,8.708,0,0,0,.575-1.235,3.851,3.851,0,0,0,.228-.8c.947.384,1.152.48,1.152.623s-.073.181-.468.217a6.86,6.86,0,0,1-1.14,1.2h1.739c.4-.467.48-.528.552-.528.1,0,.192.048.612.4.192.155.24.239.24.311s-.036.12-.156.12h-3.418Zm-2.567,3.67a2.553,2.553,0,0,0-.791-1.211c-.049-.036.035-.12.1-.108.948.288,1.535.792,1.535,1.3a.475.475,0,0,1-.455.5C410,500.345,409.951,500.309,409.807,499.865Zm.732-5.984a2.415,2.415,0,0,0-.648-1.164c-.036-.035.036-.1.084-.084.911.288,1.427.744,1.427,1.2a.521.521,0,0,1-.467.551C410.694,494.384,410.623,494.288,410.539,493.881Z" fill="#1a1311"/>
    </g>
    <g id="グループ_36" data-name="グループ 36">
      <path id="パス_155" data-name="パス 155" d="M401.992,457.379h.537a3.613,3.613,0,0,0,.384,1.174,3.051,3.051,0,0,0,.711.885,3.089,3.089,0,0,0,.985.558,3.648,3.648,0,0,0,1.211.2,2.618,2.618,0,0,0,1.7-.506,1.683,1.683,0,0,0,.623-1.378,1.763,1.763,0,0,0-.123-.667,1.741,1.741,0,0,0-.413-.587,3.8,3.8,0,0,0-.776-.559,13.1,13.1,0,0,0-1.225-.6,13.342,13.342,0,0,1-1.508-.753,4.363,4.363,0,0,1-.971-.754,2.364,2.364,0,0,1-.516-.834,3.361,3.361,0,0,1,.088-2.241,2.868,2.868,0,0,1,.674-.978,3.029,3.029,0,0,1,1.029-.638,3.658,3.658,0,0,1,1.306-.224,3.429,3.429,0,0,1,1.189.2,4.073,4.073,0,0,1,1.116.653l.377-.653h.333l.16,2.885h-.537a3.663,3.663,0,0,0-1.008-1.768,2.319,2.319,0,0,0-1.587-.58,2.128,2.128,0,0,0-1.407.434,1.45,1.45,0,0,0-.522,1.175,1.631,1.631,0,0,0,.117.631,1.586,1.586,0,0,0,.376.536,3.717,3.717,0,0,0,.682.508,9.266,9.266,0,0,0,1.044.529,19.09,19.09,0,0,1,1.783.892,5.7,5.7,0,0,1,1.131.826,2.463,2.463,0,0,1,.6.87,2.859,2.859,0,0,1,.174,1.023,3.032,3.032,0,0,1-1.1,2.378,3.761,3.761,0,0,1-1.247.673,5.026,5.026,0,0,1-1.6.24,4.448,4.448,0,0,1-1.486-.232,4.579,4.579,0,0,1-1.342-.783l-.406.711h-.333Z" fill="#1a1311"/>
      <path id="パス_156" data-name="パス 156" d="M414.129,454.146h.058a3.973,3.973,0,0,1,1-.871,2.4,2.4,0,0,1,1.248-.319,3.806,3.806,0,0,1,1.515.3,3.573,3.573,0,0,1,1.2.834,3.841,3.841,0,0,1,.79,1.268,4.409,4.409,0,0,1,.283,1.6,4.36,4.36,0,0,1-.29,1.617,3.765,3.765,0,0,1-.8,1.254,3.584,3.584,0,0,1-1.2.813,3.907,3.907,0,0,1-1.508.289,3.14,3.14,0,0,1-1.211-.225,2.972,2.972,0,0,1-1.022-.731v2.116a5.873,5.873,0,0,0,.058.929,1.026,1.026,0,0,0,.232.536.932.932,0,0,0,.5.26,4.606,4.606,0,0,0,.863.087v.508h-4.466V463.9a3.109,3.109,0,0,0,.7-.087.783.783,0,0,0,.421-.26,1.129,1.129,0,0,0,.21-.515,4.991,4.991,0,0,0,.058-.849V456.77q0-.841-.022-1.377a3.8,3.8,0,0,0-.079-.741.622.622,0,0,0-.334-.47,2.638,2.638,0,0,0-.986-.123v-.494l2.784-.551Zm.435.419a2.171,2.171,0,0,0-.283.689,4.651,4.651,0,0,0-.094,1.037v1.131c0,.262.007.486.021.675a3.78,3.78,0,0,0,.066.485,1.711,1.711,0,0,0,.116.362,1.4,1.4,0,0,0,.189.3,2.374,2.374,0,0,0,.8.718,2,2,0,0,0,.972.254,1.914,1.914,0,0,0,1.616-.841,3.939,3.939,0,0,0,.617-2.363,5.255,5.255,0,0,0-.167-1.371,3.418,3.418,0,0,0-.472-1.059,2.27,2.27,0,0,0-.732-.689,1.871,1.871,0,0,0-.95-.246,1.98,1.98,0,0,0-.964.24A2.023,2.023,0,0,0,414.564,454.565Z" fill="#1a1311"/>
      <path id="パス_157" data-name="パス 157" d="M429.078,459.438a3.813,3.813,0,0,1-3.059,1.493,4.078,4.078,0,0,1-1.552-.283,3.453,3.453,0,0,1-1.2-.8,3.585,3.585,0,0,1-.776-1.233,4.412,4.412,0,0,1-.275-1.588,4.5,4.5,0,0,1,.29-1.637,3.692,3.692,0,0,1,.819-1.291,3.794,3.794,0,0,1,1.261-.841,4.14,4.14,0,0,1,1.6-.3,2.667,2.667,0,0,1,2.943,2.943c0,.136-.027.218-.079.247a.965.965,0,0,1-.37.043h-4.77a1.722,1.722,0,0,0-.044.284q-.015.167-.015.369a4.8,4.8,0,0,0,.182,1.37,3.078,3.078,0,0,0,.522,1.052,2.4,2.4,0,0,0,.812.674,2.277,2.277,0,0,0,1.051.239,2.436,2.436,0,0,0,1.131-.268,3.914,3.914,0,0,0,1.073-.878Zm-2.392-3.916c.193,0,.348,0,.464-.014a.733.733,0,0,0,.261-.058.224.224,0,0,0,.116-.123.642.642,0,0,0,.029-.211,1.386,1.386,0,0,0-.428-1.065,1.643,1.643,0,0,0-1.167-.4q-1.566,0-1.943,1.87Z" fill="#1a1311"/>
      <path id="パス_158" data-name="パス 158" d="M437.735,459.583a3.491,3.491,0,0,1-1.349.993,4.463,4.463,0,0,1-1.783.355,3.474,3.474,0,0,1-1.414-.283,3.2,3.2,0,0,1-1.109-.8,3.6,3.6,0,0,1-.718-1.24,4.845,4.845,0,0,1-.254-1.609,4.6,4.6,0,0,1,.29-1.675,3.653,3.653,0,0,1,.82-1.276,3.558,3.558,0,0,1,1.276-.812,4.624,4.624,0,0,1,1.646-.283,5.1,5.1,0,0,1,1.029.1,3.281,3.281,0,0,1,.8.261,1.491,1.491,0,0,1,.529.406.818.818,0,0,1,.188.514.559.559,0,0,1-.188.45.786.786,0,0,1-.522.159.8.8,0,0,1-.435-.109,1.944,1.944,0,0,1-.449-.485,1.971,1.971,0,0,0-.559-.472,1.515,1.515,0,0,0-.688-.137,1.748,1.748,0,0,0-1.559.8,4.253,4.253,0,0,0-.53,2.348,4.5,4.5,0,0,0,.588,2.53,1.944,1.944,0,0,0,1.718.863,2.771,2.771,0,0,0,1.145-.239,3.827,3.827,0,0,0,1.088-.776Z" fill="#1a1311"/>
      <path id="パス_159" data-name="パス 159" d="M442.056,458.48a6.429,6.429,0,0,0,.05.907,1.191,1.191,0,0,0,.2.537.722.722,0,0,0,.406.267,2.949,2.949,0,0,0,.7.087v.508h-4.161v-.508a2.958,2.958,0,0,0,.71-.093.855.855,0,0,0,.428-.261,1.027,1.027,0,0,0,.2-.508,5.6,5.6,0,0,0,.05-.834v-1.855q0-.842-.021-1.385a3.8,3.8,0,0,0-.08-.747.612.612,0,0,0-.333-.457,2.645,2.645,0,0,0-.987-.123v-.508l2.843-.551Zm-1.668-8.467a.893.893,0,1,1,.261.637A.868.868,0,0,1,440.388,450.013Z" fill="#1a1311"/>
      <path id="パス_160" data-name="パス 160" d="M449.334,455.871v-.6q0-1.769-1.507-1.769a1.705,1.705,0,0,0-.421.044.688.688,0,0,0-.29.144.952.952,0,0,0-.21.29,3.173,3.173,0,0,0-.181.464,1.529,1.529,0,0,1-.312.559.737.737,0,0,1-1.167-.587,1.184,1.184,0,0,1,.739-1.08,4.636,4.636,0,0,1,2.1-.385,3.21,3.21,0,0,1,2.059.515,2.178,2.178,0,0,1,.609,1.747v3.248q0,1.653.653,1.653a1.446,1.446,0,0,0,.391-.051.548.548,0,0,0,.32-.268l.2.348a1.328,1.328,0,0,1-.637.558,2.205,2.205,0,0,1-.972.225,1.122,1.122,0,0,1-.95-.406,1.841,1.841,0,0,1-.312-1.145h-.072a2.89,2.89,0,0,1-1.044,1.123,2.75,2.75,0,0,1-1.479.414,2.085,2.085,0,0,1-1.436-.465,1.581,1.581,0,0,1-.522-1.246,1.815,1.815,0,0,1,.124-.667,1.862,1.862,0,0,1,.4-.609,3.76,3.76,0,0,1,.726-.574,8.928,8.928,0,0,1,1.1-.572Zm0,.623a13.249,13.249,0,0,0-1.4.623,4.834,4.834,0,0,0-.92.61,2.055,2.055,0,0,0-.5.609,1.386,1.386,0,0,0-.152.623,1.033,1.033,0,0,0,.319.783,1.168,1.168,0,0,0,.841.3,1.388,1.388,0,0,0,.7-.189,1.934,1.934,0,0,0,.573-.514,2.613,2.613,0,0,0,.391-.769,2.971,2.971,0,0,0,.145-.935Z" fill="#1a1311"/>
      <path id="パス_161" data-name="パス 161" d="M455.917,458.524a7.1,7.1,0,0,0,.044.884,1.126,1.126,0,0,0,.181.523.7.7,0,0,0,.392.26,2.774,2.774,0,0,0,.674.087v.508h-4v-.508a2.761,2.761,0,0,0,.7-.093.873.873,0,0,0,.413-.254.958.958,0,0,0,.2-.486,5.279,5.279,0,0,0,.051-.819v-6.25q0-.783-.022-1.313a4.762,4.762,0,0,0-.065-.717.592.592,0,0,0-.341-.45,2.739,2.739,0,0,0-.964-.116v-.492l2.74-.537Z" fill="#1a1311"/>
      <path id="パス_162" data-name="パス 162" d="M469.779,449.477a6.233,6.233,0,0,1,2.378.449,5.986,5.986,0,0,1,1.914,1.232A5.72,5.72,0,0,1,475.347,453a5.645,5.645,0,0,1,.464,2.291,5.237,5.237,0,0,1-.471,2.2,5.668,5.668,0,0,1-1.283,1.79,6.084,6.084,0,0,1-1.914,1.2,6.54,6.54,0,0,1-4.727,0,6.066,6.066,0,0,1-1.915-1.2,5.653,5.653,0,0,1-1.283-1.79,5.237,5.237,0,0,1-.471-2.2,5.629,5.629,0,0,1,.464-2.291,5.7,5.7,0,0,1,1.276-1.842,5.975,5.975,0,0,1,1.914-1.232A6.226,6.226,0,0,1,469.779,449.477Zm0,10.657a4.243,4.243,0,0,0,1.718-.334,3.65,3.65,0,0,0,1.3-.957,4.284,4.284,0,0,0,.834-1.515,6.438,6.438,0,0,0,.29-1.994,7.067,7.067,0,0,0-.29-2.1,4.726,4.726,0,0,0-.826-1.6,3.619,3.619,0,0,0-1.306-1.015,4.36,4.36,0,0,0-3.451,0,3.612,3.612,0,0,0-1.3,1.015,4.691,4.691,0,0,0-.827,1.6,7.068,7.068,0,0,0-.29,2.1,6.439,6.439,0,0,0,.29,1.994,4.336,4.336,0,0,0,.827,1.515,3.561,3.561,0,0,0,1.3.957A4.3,4.3,0,0,0,469.779,460.134Z" fill="#1a1311"/>
      <path id="パス_163" data-name="パス 163" d="M477.536,453.333h1.639v-1.044a3.653,3.653,0,0,1,.877-2.6,3.262,3.262,0,0,1,2.5-.936,3.367,3.367,0,0,1,1.465.275q.565.276.565.711a.686.686,0,0,1-.181.486.6.6,0,0,1-.457.2.757.757,0,0,1-.369-.109,3.779,3.779,0,0,1-.515-.37,2.94,2.94,0,0,0-.566-.4,1.139,1.139,0,0,0-.478-.094,1.285,1.285,0,0,0-1.247.885,2.456,2.456,0,0,0-.182.71,10.467,10.467,0,0,0-.05,1.16v1.131h2.334v.682h-2.334v4.436a4.985,4.985,0,0,0,.065.885,1.262,1.262,0,0,0,.232.559.855.855,0,0,0,.457.29,3.29,3.29,0,0,0,.754.093v.508h-4.118v-.508a3,3,0,0,0,.652-.079.657.657,0,0,0,.378-.247,1.127,1.127,0,0,0,.173-.507,6.938,6.938,0,0,0,.044-.878v-4.552h-1.639Z" fill="#1a1311"/>
      <path id="パス_164" data-name="パス 164" d="M484.089,453.333h1.639v-1.044a3.658,3.658,0,0,1,.877-2.6,3.262,3.262,0,0,1,2.5-.936,3.364,3.364,0,0,1,1.465.275q.565.276.566.711a.686.686,0,0,1-.182.486.594.594,0,0,1-.456.2.757.757,0,0,1-.37-.109,3.839,3.839,0,0,1-.515-.37,2.91,2.91,0,0,0-.566-.4,1.139,1.139,0,0,0-.478-.094,1.285,1.285,0,0,0-1.247.885,2.425,2.425,0,0,0-.181.71,10.19,10.19,0,0,0-.051,1.16v1.131h2.334v.682h-2.334v4.436a4.985,4.985,0,0,0,.065.885,1.274,1.274,0,0,0,.232.559.859.859,0,0,0,.457.29,3.3,3.3,0,0,0,.754.093v.508h-4.118v-.508a3,3,0,0,0,.652-.079.657.657,0,0,0,.378-.247,1.126,1.126,0,0,0,.174-.507,7.16,7.16,0,0,0,.043-.878v-4.552h-1.639Z" fill="#1a1311"/>
      <path id="パス_165" data-name="パス 165" d="M497.893,459.438a3.814,3.814,0,0,1-3.06,1.493,4.077,4.077,0,0,1-1.551-.283,3.453,3.453,0,0,1-1.2-.8,3.585,3.585,0,0,1-.776-1.233,4.39,4.39,0,0,1-.275-1.588,4.5,4.5,0,0,1,.29-1.637,3.691,3.691,0,0,1,.819-1.291,3.794,3.794,0,0,1,1.261-.841,4.14,4.14,0,0,1,1.6-.3,2.667,2.667,0,0,1,2.943,2.943c0,.136-.027.218-.079.247a.965.965,0,0,1-.37.043h-4.771a1.964,1.964,0,0,0-.044.284c-.009.111-.014.234-.014.369a4.834,4.834,0,0,0,.181,1.37,3.114,3.114,0,0,0,.522,1.052,2.424,2.424,0,0,0,.812.674,2.284,2.284,0,0,0,1.052.239,2.436,2.436,0,0,0,1.131-.268,3.914,3.914,0,0,0,1.073-.878Zm-2.393-3.916c.194,0,.349,0,.465-.014a.739.739,0,0,0,.261-.058.224.224,0,0,0,.116-.123.642.642,0,0,0,.029-.211,1.386,1.386,0,0,0-.428-1.065,1.643,1.643,0,0,0-1.167-.4q-1.566,0-1.943,1.87Z" fill="#1a1311"/>
      <path id="パス_166" data-name="パス 166" d="M502.432,458.48c0,.4.009.711.029.943a1.1,1.1,0,0,0,.152.529.577.577,0,0,0,.355.239,3.8,3.8,0,0,0,.653.087v.508h-3.857v-.508a3.07,3.07,0,0,0,.667-.079.674.674,0,0,0,.377-.239,1.026,1.026,0,0,0,.167-.5,8.4,8.4,0,0,0,.036-.877v-1.7q0-.985-.022-1.537a2.205,2.205,0,0,0-.145-.812.518.518,0,0,0-.384-.312,3.991,3.991,0,0,0-.725-.051v-.507l2.537-.552.2,1.8h.057a3.634,3.634,0,0,1,.472-.8,3.356,3.356,0,0,1,.616-.616,2.936,2.936,0,0,1,.7-.4,1.97,1.97,0,0,1,.739-.146,1.106,1.106,0,0,1,.733.225.746.746,0,0,1,.268.6.693.693,0,0,1-.218.544.9.9,0,0,1-.623.2,1.149,1.149,0,0,1-.392-.058,2.086,2.086,0,0,1-.282-.123l-.232-.123a.5.5,0,0,0-.24-.059,1.056,1.056,0,0,0-.782.5,3.624,3.624,0,0,0-.61,1.269,6.739,6.739,0,0,0-.181.949,9.188,9.188,0,0,0-.065,1.109Z" fill="#1a1311"/>
    </g>
  </g>
</svg>
