<svg xmlns="http://www.w3.org/2000/svg" width="220" height="220" viewBox="0 0 220 220">
  <g id="グループ_943" data-name="グループ 943" transform="translate(-33.776 -336.494)">
    <circle id="楕円形_51" data-name="楕円形 51" cx="110" cy="110" r="110" transform="translate(33.776 336.494)" fill="#fff" opacity="0.601"/>
    <path id="パス_101" data-name="パス 101" d="M216.451,374.368a102.391,102.391,0,1,1-145.5.154" fill="none" stroke="#1a1311" stroke-miterlimit="10" stroke-width="1"/>
    <g id="グループ_28" data-name="グループ 28">
      <path id="パス_102" data-name="パス 102" d="M88.828,367.96l.531-.335a4.2,4.2,0,0,0,1.116.923,3.526,3.526,0,0,0,2.584.366,4.255,4.255,0,0,0,1.322-.564,3.073,3.073,0,0,0,1.363-1.568,1.98,1.98,0,0,0-.245-1.757,2.094,2.094,0,0,0-.54-.584,2.06,2.06,0,0,0-.777-.322,4.42,4.42,0,0,0-1.118-.066,14.585,14.585,0,0,0-1.586.178,16.207,16.207,0,0,1-1.966.2,5.053,5.053,0,0,1-1.435-.139,2.75,2.75,0,0,1-1.032-.5,3.6,3.6,0,0,1-.782-.9,3.689,3.689,0,0,1-.535-1.371,3.392,3.392,0,0,1,.055-1.4,3.583,3.583,0,0,1,.62-1.276,4.286,4.286,0,0,1,1.152-1.041,4,4,0,0,1,1.305-.545,4.781,4.781,0,0,1,1.515-.053l-.035-.885.33-.209,1.965,2.761-.531.337A4.288,4.288,0,0,0,90,358.086a2.716,2.716,0,0,0-1.936.421,2.5,2.5,0,0,0-1.122,1.313,1.706,1.706,0,0,0,.219,1.492,1.925,1.925,0,0,0,.51.551,1.866,1.866,0,0,0,.709.3,4.476,4.476,0,0,0,.994.076,10.579,10.579,0,0,0,1.365-.131,22.376,22.376,0,0,1,2.326-.234,6.7,6.7,0,0,1,1.637.11,2.893,2.893,0,0,1,1.134.489,3.332,3.332,0,0,1,.812.9,3.549,3.549,0,0,1,.4,3.047,4.418,4.418,0,0,1-.813,1.451,5.877,5.877,0,0,1-1.43,1.236,5.265,5.265,0,0,1-1.617.7,5.361,5.361,0,0,1-1.82.064l.044.959-.331.209Z" fill="#1a1311"/>
      <path id="パス_103" data-name="パス 103" d="M99.306,357.406l.061-.029a4.684,4.684,0,0,1,.625-1.424,2.8,2.8,0,0,1,1.162-.963,4.434,4.434,0,0,1,1.754-.445,4.2,4.2,0,0,1,1.686.285,4.453,4.453,0,0,1,1.471.949,5.167,5.167,0,0,1,1.1,1.557,5.1,5.1,0,0,1,.5,1.86,4.407,4.407,0,0,1-.217,1.729,4.2,4.2,0,0,1-.87,1.465,4.551,4.551,0,0,1-1.453,1.063,3.679,3.679,0,0,1-1.4.369,3.5,3.5,0,0,1-1.449-.263l1.059,2.244a6.9,6.9,0,0,0,.525.955,1.2,1.2,0,0,0,.515.452,1.1,1.1,0,0,0,.66.026,5.624,5.624,0,0,0,.958-.34l.254.537-4.733,2.239-.254-.537a3.706,3.706,0,0,0,.7-.446.922.922,0,0,0,.315-.487,1.32,1.32,0,0,0-.035-.651,5.762,5.762,0,0,0-.363-.929l-2.712-5.75q-.42-.891-.713-1.449a4.332,4.332,0,0,0-.454-.744.726.726,0,0,0-.59-.332,3.076,3.076,0,0,0-1.106.362l-.246-.522,2.674-1.98Zm.67.229a2.562,2.562,0,0,0,.045.871,5.518,5.518,0,0,0,.419,1.146l.566,1.2c.131.276.251.51.361.7a4.458,4.458,0,0,0,.311.481,2,2,0,0,0,.3.325,1.676,1.676,0,0,0,.353.23,2.776,2.776,0,0,0,1.2.361,2.34,2.34,0,0,0,1.157-.218,2.252,2.252,0,0,0,1.293-1.7,4.618,4.618,0,0,0-.53-2.814,6.117,6.117,0,0,0-.862-1.369,3.989,3.989,0,0,0-1.029-.886,2.627,2.627,0,0,0-1.121-.363,2.171,2.171,0,0,0-1.129.214,2.338,2.338,0,0,0-.9.737A2.4,2.4,0,0,0,99.976,357.635Z" fill="#1a1311"/>
      <path id="パス_104" data-name="パス 104" d="M117.827,356.73a4.472,4.472,0,0,1-2.842,2.8,4.762,4.762,0,0,1-1.83.267,4.054,4.054,0,0,1-1.627-.439,4.188,4.188,0,0,1-1.322-1.08,5.15,5.15,0,0,1-.9-1.661,5.3,5.3,0,0,1-.29-1.93,4.344,4.344,0,0,1,.428-1.739,4.453,4.453,0,0,1,1.088-1.407,4.853,4.853,0,0,1,1.667-.939,3.126,3.126,0,0,1,4.369,2.171c.052.152.052.251,0,.3a1.135,1.135,0,0,1-.394.187l-5.3,1.784a2.176,2.176,0,0,0,.058.33c.031.128.071.267.122.416a5.676,5.676,0,0,0,.713,1.456,3.675,3.675,0,0,0,.973.974,2.845,2.845,0,0,0,1.153.445,2.713,2.713,0,0,0,1.258-.127,2.869,2.869,0,0,0,1.157-.722,4.6,4.6,0,0,0,.865-1.377Zm-4.121-3.455c.215-.073.385-.135.51-.19a.847.847,0,0,0,.268-.162.254.254,0,0,0,.083-.18.719.719,0,0,0-.046-.245,1.627,1.627,0,0,0-.874-1.024,1.925,1.925,0,0,0-1.445-.007q-1.74.585-1.461,2.806Z" fill="#1a1311"/>
      <path id="パス_105" data-name="パス 105" d="M127.356,354.683a4.061,4.061,0,0,1-1.289,1.481,5.257,5.257,0,0,1-1.949.863,4.085,4.085,0,0,1-1.691.038,3.784,3.784,0,0,1-1.473-.628,4.214,4.214,0,0,1-1.138-1.236,5.653,5.653,0,0,1-.7-1.776,5.366,5.366,0,0,1-.1-1.99,4.264,4.264,0,0,1,.61-1.67,4.147,4.147,0,0,1,1.252-1.254,5.4,5.4,0,0,1,1.81-.746,6.187,6.187,0,0,1,1.2-.156,3.93,3.93,0,0,1,.987.094,1.733,1.733,0,0,1,.709.329.963.963,0,0,1,.349.541.661.661,0,0,1-.1.563.923.923,0,0,1-.557.315.961.961,0,0,1-.525-.013,2.311,2.311,0,0,1-.639-.441,2.267,2.267,0,0,0-.76-.4,1.75,1.75,0,0,0-.823.018,2.049,2.049,0,0,0-1.579,1.311,5,5,0,0,0,0,2.822,5.276,5.276,0,0,0,1.321,2.745,2.285,2.285,0,0,0,2.187.548,3.3,3.3,0,0,0,1.249-.567,4.543,4.543,0,0,0,1.046-1.166Z" fill="#1a1311"/>
      <path id="パス_106" data-name="パス 106" d="M131.883,352.774a7.505,7.505,0,0,0,.2,1.045,1.4,1.4,0,0,0,.313.591.857.857,0,0,0,.515.248,3.514,3.514,0,0,0,.822-.01l.081.59-4.834.658-.081-.588a3.423,3.423,0,0,0,.81-.223.986.986,0,0,0,.455-.371,1.186,1.186,0,0,0,.155-.621,6.534,6.534,0,0,0-.074-.977l-.3-2.155q-.135-.977-.246-1.605a4.344,4.344,0,0,0-.212-.855.719.719,0,0,0-.461-.477,3.084,3.084,0,0,0-1.164.012l-.081-.589,3.213-1.09ZM128.6,343.2a1.046,1.046,0,1,1,.4.7A1.013,1.013,0,0,1,128.6,343.2Z" fill="#1a1311"/>
      <path id="パス_107" data-name="パス 107" d="M139.995,349.045l-.035-.7q-.106-2.072-1.873-1.984a2.107,2.107,0,0,0-.489.075.8.8,0,0,0-.331.188,1.1,1.1,0,0,0-.229.351,3.788,3.788,0,0,0-.184.555,1.745,1.745,0,0,1-.332.67.739.739,0,0,1-.51.189.753.753,0,0,1-.892-.807,1.387,1.387,0,0,1,.8-1.309,5.456,5.456,0,0,1,2.439-.572,3.759,3.759,0,0,1,2.441.483,2.553,2.553,0,0,1,.819,2.009l.2,3.8q.1,1.935.864,1.9a1.717,1.717,0,0,0,.455-.082.633.633,0,0,0,.357-.333l.259.4a1.563,1.563,0,0,1-.714.691,2.586,2.586,0,0,1-1.124.321,1.326,1.326,0,0,1-1.137-.42,2.168,2.168,0,0,1-.433-1.324l-.085,0a3.367,3.367,0,0,1-1.155,1.377,3.241,3.241,0,0,1-1.707.572,2.455,2.455,0,0,1-1.709-.46,1.866,1.866,0,0,1-.686-1.43,2.085,2.085,0,0,1,.535-1.525,4.385,4.385,0,0,1,.814-.712,10.048,10.048,0,0,1,1.256-.736Zm.037.729a15.252,15.252,0,0,0-1.6.812,5.759,5.759,0,0,0-1.042.768,2.411,2.411,0,0,0-.549.741,1.614,1.614,0,0,0-.141.74,1.206,1.206,0,0,0,.421.9,1.363,1.363,0,0,0,1,.307,1.6,1.6,0,0,0,.812-.261,2.274,2.274,0,0,0,.64-.635,3.05,3.05,0,0,0,.411-.923,3.511,3.511,0,0,0,.115-1.105Z" fill="#1a1311"/>
      <path id="パス_108" data-name="パス 108" d="M147.652,352.176a8.466,8.466,0,0,0,.017,1.037,1.32,1.32,0,0,0,.192.62.828.828,0,0,0,.45.32,3.24,3.24,0,0,0,.786.128l-.019.6-4.689-.156.019-.6a3.246,3.246,0,0,0,.82-.083,1.021,1.021,0,0,0,.493-.281,1.123,1.123,0,0,0,.257-.561,6.192,6.192,0,0,0,.09-.959l.24-7.323q.03-.916.025-1.538a5.627,5.627,0,0,0-.048-.844.692.692,0,0,0-.383-.54,3.238,3.238,0,0,0-1.126-.174l.02-.578,3.232-.52Z" fill="#1a1311"/>
      <path id="パス_109" data-name="パス 109" d="M165.483,343.75a7.291,7.291,0,0,1,2.62,1.088,7,7,0,0,1,1.9,1.875,6.711,6.711,0,0,1,1.018,2.42,6.625,6.625,0,0,1-.023,2.739,6.14,6.14,0,0,1-1.076,2.415,6.63,6.63,0,0,1-1.906,1.745,7.138,7.138,0,0,1-2.488.919,7.655,7.655,0,0,1-5.424-1.138,7.116,7.116,0,0,1-1.9-1.841,6.617,6.617,0,0,1-1.038-2.364,6.109,6.109,0,0,1-.007-2.641,6.635,6.635,0,0,1,1.088-2.517,6.749,6.749,0,0,1,1.91-1.805,7.039,7.039,0,0,1,2.5-.953A7.308,7.308,0,0,1,165.483,343.75ZM162.9,355.975a4.986,4.986,0,0,0,2.053.031,4.328,4.328,0,0,0,1.729-.783,5.067,5.067,0,0,0,1.325-1.538,7.54,7.54,0,0,0,.815-2.216,8.285,8.285,0,0,0,.176-2.474,5.551,5.551,0,0,0-.562-2.029,4.246,4.246,0,0,0-1.251-1.479,5.139,5.139,0,0,0-3.96-.832,4.276,4.276,0,0,0-1.744.851,5.534,5.534,0,0,0-1.334,1.632,8.208,8.208,0,0,0-.841,2.332,7.532,7.532,0,0,0-.151,2.358,5.124,5.124,0,0,0,.581,1.937A4.183,4.183,0,0,0,161,355.177,5.029,5.029,0,0,0,162.9,355.975Z" fill="#1a1311"/>
      <path id="パス_110" data-name="パス 110" d="M173.761,350.519l1.815.628.4-1.156a4.291,4.291,0,0,1,1.972-2.547,3.831,3.831,0,0,1,3.131-.076,3.934,3.934,0,0,1,1.516.867.957.957,0,0,1,.354,1,.811.811,0,0,1-.388.469.7.7,0,0,1-.581.041.9.9,0,0,1-.368-.263,4.538,4.538,0,0,1-.428-.607,3.48,3.48,0,0,0-.473-.658,1.313,1.313,0,0,0-.494-.287,1.508,1.508,0,0,0-1.722.5,2.848,2.848,0,0,0-.473.717,11.518,11.518,0,0,0-.5,1.266l-.435,1.252,2.586.895-.261.755-2.587-.9-1.705,4.915a5.7,5.7,0,0,0-.268,1.005,1.464,1.464,0,0,0,.043.707.987.987,0,0,0,.394.5,3.815,3.815,0,0,0,.8.393l-.195.562-4.563-1.579.195-.563a3.5,3.5,0,0,0,.753.163.767.767,0,0,0,.513-.128,1.31,1.31,0,0,0,.388-.5,8.126,8.126,0,0,0,.385-.955l1.749-5.043-1.814-.628Z" fill="#1a1311"/>
      <path id="パス_111" data-name="パス 111" d="M181.241,353.179l1.759.769.492-1.121a4.29,4.29,0,0,1,2.166-2.382,3.824,3.824,0,0,1,3.126.173,3.933,3.933,0,0,1,1.444.985.961.961,0,0,1,.273,1.029.8.8,0,0,1-.424.435.7.7,0,0,1-.582,0,.892.892,0,0,1-.346-.291,4.433,4.433,0,0,1-.378-.638,3.516,3.516,0,0,0-.42-.7,1.348,1.348,0,0,0-.47-.327,1.51,1.51,0,0,0-1.755.364,2.86,2.86,0,0,0-.529.677,12.22,12.22,0,0,0-.6,1.222l-.532,1.214,2.506,1.1-.321.732-2.506-1.1-2.088,4.765a5.825,5.825,0,0,0-.346.981,1.472,1.472,0,0,0-.014.708,1,1,0,0,0,.355.527,3.862,3.862,0,0,0,.765.456l-.239.545-4.422-1.938.239-.545a3.5,3.5,0,0,0,.738.222.761.761,0,0,0,.521-.088,1.308,1.308,0,0,0,.425-.463,8.233,8.233,0,0,0,.46-.922l2.142-4.889-1.76-.771Z" fill="#1a1311"/>
      <path id="パス_112" data-name="パス 112" d="M192.538,366.8a4.47,4.47,0,0,1-3.986-.211,4.817,4.817,0,0,1-1.429-1.172,4.068,4.068,0,0,1-.773-1.5,4.2,4.2,0,0,1-.094-1.7,5.138,5.138,0,0,1,.62-1.786,5.29,5.29,0,0,1,1.229-1.515,4.327,4.327,0,0,1,1.573-.855,4.441,4.441,0,0,1,1.771-.146,4.822,4.822,0,0,1,1.816.6,3.128,3.128,0,0,1,1.343,4.693q-.115.207-.222.207a1.119,1.119,0,0,1-.4-.166l-4.889-2.716a2.087,2.087,0,0,0-.205.267,4.047,4.047,0,0,0-.225.37,5.644,5.644,0,0,0-.594,1.509,3.611,3.611,0,0,0-.062,1.374,2.809,2.809,0,0,0,.449,1.154,2.675,2.675,0,0,0,.941.843,2.872,2.872,0,0,0,1.311.369,4.547,4.547,0,0,0,1.6-.289Zm-.227-5.376c.2.109.359.193.484.249a.9.9,0,0,0,.3.09.26.26,0,0,0,.189-.062.752.752,0,0,0,.15-.2,1.637,1.637,0,0,0,.167-1.337,1.928,1.928,0,0,0-.97-1.073q-1.6-.891-3.055.811Z" fill="#1a1311"/>
      <path id="パス_113" data-name="パス 113" d="M197.266,368.639q-.4.573-.6.928a1.3,1.3,0,0,0-.206.612.675.675,0,0,0,.183.468,4.489,4.489,0,0,0,.571.519l-.339.49-3.717-2.575.339-.49a3.594,3.594,0,0,0,.7.369.78.78,0,0,0,.522.02,1.178,1.178,0,0,0,.495-.37,10.25,10.25,0,0,0,.62-.823l1.131-1.635q.657-.949,1-1.5a2.624,2.624,0,0,0,.4-.881.614.614,0,0,0-.162-.557,4.708,4.708,0,0,0-.665-.533l.337-.489,2.813,1.163-1,1.869.056.039a4.243,4.243,0,0,1,.986-.454,3.967,3.967,0,0,1,1.005-.183,3.425,3.425,0,0,1,.936.081,2.319,2.319,0,0,1,.81.353,1.294,1.294,0,0,1,.555.707.871.871,0,0,1-.142.758.812.812,0,0,1-.573.38,1.059,1.059,0,0,1-.731-.227,1.342,1.342,0,0,1-.338-.319,2.358,2.358,0,0,1-.191-.308c-.05-.1-.1-.188-.141-.274a.593.593,0,0,0-.192-.214,1.233,1.233,0,0,0-1.088-.041,4.262,4.262,0,0,0-1.433.817,7.671,7.671,0,0,0-.808.8,10.526,10.526,0,0,0-.8,1.026Z" fill="#1a1311"/>
    </g>
    <g id="グループ_29" data-name="グループ 29">
      <path id="パス_114" data-name="パス 114" d="M80.878,459.506c-.1.9-.2,1.9-.35,3a10.114,10.114,0,0,1,8.05-3.6c7.1,0,12.2,4.35,12.2,10.851,0,7.4-5.45,12.4-13,12.4-7,0-11-3.25-11-7a3.878,3.878,0,0,1,3.951-4,3.6,3.6,0,0,1,3.9,3.7,3.23,3.23,0,0,1-1.4,2.5.949.949,0,0,0-.55.951c0,1.75,1.6,2.8,3.8,2.8,4.15,0,6.851-4.1,6.851-11.251,0-6.2-3-9.35-6.651-9.35a7.365,7.365,0,0,0-5.9,3.55c-.2.3-.3.45-.6.45-.7,0-1.3-.4-1.3-.7,0-.55.2-.4.3-1.4l1.5-16.7a.908.908,0,0,1,.35-.65.943.943,0,0,1,.7-.3c2.15.05,5.25.05,7.8.05,2.65,0,6.5-.05,10-.2.35,0,.45.151.45.4l-2,5.551a.854.854,0,0,1-.65.349c-2.55-.1-3.951-.15-6.151-.15h-9.45Z" fill="#1a1311"/>
      <path id="パス_115" data-name="パス 115" d="M130.679,462.706c0,12.4-5.651,19.451-12.751,19.451-7.051,0-12.551-6.6-12.551-19s5.65-19.351,12.7-19.351S130.679,450.306,130.679,462.706Zm-17.851.25c0,14.8,1.449,18.151,5.15,18.151s5.25-3.35,5.25-18.151-1.55-18.1-5.2-18.1S112.828,448.155,112.828,462.956Z" fill="#1a1311"/>
      <path id="パス_116" data-name="パス 116" d="M159.678,462.706c0,12.4-5.65,19.451-12.751,19.451-7.05,0-12.551-6.6-12.551-19s5.651-19.351,12.7-19.351S159.678,450.306,159.678,462.706Zm-17.851.25c0,14.8,1.45,18.151,5.15,18.151s5.251-3.35,5.251-18.151-1.551-18.1-5.2-18.1S141.827,448.155,141.827,462.956Z" fill="#1a1311"/>
      <path id="パス_117" data-name="パス 117" d="M200.128,444.1c2.851-3.149,3-3.3,3.55-3.3s.9.1,3.151,2c2.1,1.75,2.45,2.15,2.45,2.65s-.2.85-1.651,1.85v11.4c0,9.551.3,17.451.3,20.651,0,3.55-1.151,5.05-3.551,6.1a9.641,9.641,0,0,1-3.7.649c-1,0-1.35-.3-1.65-1.4-.55-2.051-1.5-3.6-5.65-4.65-.3-.051-.3-.5,0-.5a45.079,45.079,0,0,0,6.05-.1c1.35-.149,1.75-1.149,1.75-3.1V463.906h-26.5v19.8c0,1.449-1.2,2.4-4.351,2.4-1.8,0-2.15-.25-2.15-1.849,0-1.351.35-10.551.35-25.9,0-10.6-.05-13.85-.2-16.55,5.45,1.1,7.05,1.75,7.5,2.3Zm-25.451,18.8h9.9V447.8c0-.8,0-1.8-.05-2.7h-8.8a3.173,3.173,0,0,1-1.05.651Zm26.5,0V445.1h-9.051c-.1.351-.449.651-1.049,1.051v16.751Z" fill="#1a1311"/>
    </g>
    <g id="グループ_30" data-name="グループ 30">
      <path id="パス_118" data-name="パス 118" d="M114.884,387.8c1.429-.113,1.933-.141,2.648-.225a2.482,2.482,0,0,0,.532-.154,1.482,1.482,0,0,1,.518-.126,2.794,2.794,0,0,1,1.331.378.614.614,0,0,1,.308.547.394.394,0,0,1-.322.42,4.272,4.272,0,0,1-.855-.056,14.432,14.432,0,0,0-1.736-.1c-.477,0-1.261,0-1.891.042.448.309.644.589.644.785a.423.423,0,0,1-.07.224,2.6,2.6,0,0,0-.281.631,9.234,9.234,0,0,1-1.526,2.759,8.568,8.568,0,0,1-2.858,2.367.6.6,0,0,1-.238.085c-.1,0-.14-.042-.14-.141,0-.07.112-.168.35-.378a11.752,11.752,0,0,0,2.059-2.577,10.661,10.661,0,0,0,1.037-2.479,4.36,4.36,0,0,0,.126-.743.653.653,0,0,0-.154-.476c-.994.1-2.031.224-2.676.35a1.71,1.71,0,0,0-.658.238.648.648,0,0,1-.42.126c-.252,0-.5-.14-.939-.63a1.251,1.251,0,0,1-.364-.771c0-.21.07-.336.154-.336s.126.084.21.155a1.5,1.5,0,0,0,.953.448c.336,0,.826-.043,1.232-.085C112.811,387.985,113.624,387.9,114.884,387.8Zm.9-2.97a1.487,1.487,0,0,0,.42-.154,1.767,1.767,0,0,1,.532-.155,2.548,2.548,0,0,1,1.205.281.463.463,0,0,1,.224.42.47.47,0,0,1-.518.49c-.309.014-.673.014-1.121.056-.855.07-2.311.182-3.1.252-.266.029-.532.056-.728.056a1.2,1.2,0,0,1-1.12-.5.989.989,0,0,1-.323-.742c0-.126.028-.21.1-.21.042,0,.084.056.183.126a1.5,1.5,0,0,0,1.12.434,14.4,14.4,0,0,0,1.513-.112C114.786,385,115.333,384.932,115.781,384.834Z" fill="#1a1311"/>
      <path id="パス_119" data-name="パス 119" d="M132.091,390.885a8.9,8.9,0,0,1,1.345.854c.84.645,1.177,1.191,1.177,1.6a.7.7,0,0,1-.645.757.916.916,0,0,1-.868-.477,11.845,11.845,0,0,0-1.625-2.087,8.391,8.391,0,0,0-1.4-1.078,16.09,16.09,0,0,1-3.431,2.745,12.483,12.483,0,0,1-2.4,1.107.883.883,0,0,1-.308.07c-.07,0-.14-.028-.14-.126a.189.189,0,0,1,.1-.154,17.047,17.047,0,0,0,4.384-3.39,20.978,20.978,0,0,0,2.844-3.712.433.433,0,0,0,.084-.168c0-.043-.042-.056-.182-.043-.981.113-2.241.323-3.348.561a2.073,2.073,0,0,0-.644.224.847.847,0,0,1-.491.155c-.266,0-.546-.169-.938-.659a1.2,1.2,0,0,1-.294-.9c0-.266.1-.364.182-.364.042,0,.1.056.2.169.392.433.546.532.966.532.169,0,.519-.028,1.065-.084,1.149-.127,2.087-.253,3.082-.393a1.035,1.035,0,0,0,.56-.21.528.528,0,0,1,.406-.154,1.119,1.119,0,0,1,.743.378c.42.364.588.589.588.785,0,.14-.042.28-.462.42-.126.042-.21.154-.337.336a22.816,22.816,0,0,1-1.9,2.522A17.8,17.8,0,0,1,132.091,390.885Z" fill="#1a1311"/>
      <path id="パス_120" data-name="パス 120" d="M145.391,388.938c.84.35,1.3.785,1.3,1.415a.7.7,0,0,1-.6.742.943.943,0,0,1-.771-.407,7.764,7.764,0,0,0-1.009-1.022,4.118,4.118,0,0,0-1.456-.8v2.438c0,.588.028,1.877.056,3.389,0,.533-.238.659-.518.659a.649.649,0,0,1-.589-.323,2.376,2.376,0,0,1-.308-1.106,1.449,1.449,0,0,1,.07-.406.52.52,0,0,0,.07-.239c.014-.181.042-.574.056-3.137.014-1.331,0-2.522,0-3.838a7.35,7.35,0,0,0-.056-1.191.642.642,0,0,0-.294-.322,1.994,1.994,0,0,0-.49-.225c-.1-.028-.14-.07-.14-.126,0-.084.1-.154.182-.21a.81.81,0,0,1,.392-.126,3.354,3.354,0,0,1,1.415.378c.378.168.56.393.56.659a.6.6,0,0,1-.238.448.437.437,0,0,0-.1.28c-.042.393-.07,1.219-.07,2.522A7.9,7.9,0,0,1,145.391,388.938Z" fill="#1a1311"/>
      <path id="パス_121" data-name="パス 121" d="M153.634,393.91a5.948,5.948,0,0,1-2.466,2.13c-.069.027-.153-.084-.111-.141a5.857,5.857,0,0,0,1.176-1.848,5.488,5.488,0,0,0,.322-1.107c1.163.449,1.513.617,1.513.756S153.942,393.883,153.634,393.91Zm-.56-1.624v.084c0,.322-.281.462-.729.462-.392,0-.532-.126-.532-.406,0-.8.07-2.451.07-5.688,0-1.3,0-1.764-.07-3.067a9.88,9.88,0,0,1,1.387.658h1.5c.379-.532.49-.616.6-.616.14,0,.252.084.728.5.21.2.294.294.294.406s-.07.2-.392.42v1.19c0,3.152.028,5.324.028,6.037,0,.294-.2.477-.686.477-.322,0-.519-.1-.519-.378v-.084Zm1.68-7.635h-1.68v2.172h1.68Zm0,2.494h-1.68v2.129h1.68Zm0,2.452h-1.68v2.367h1.68Zm.505,5.434c-.337,0-.448-.154-.561-.728a2.655,2.655,0,0,0-.588-1.219c-.042-.056.014-.112.084-.084,1.177.393,1.681.784,1.681,1.358A.636.636,0,0,1,155.259,395.031Zm6.625-7.326c.491-.588.6-.672.715-.672.14,0,.252.084.77.532.238.224.322.323.322.434,0,.126-.1.211-.462.421a11.462,11.462,0,0,1-1.919,4.216,6.165,6.165,0,0,0,3.054,1.891c.07.014.056.154-.014.182a1.6,1.6,0,0,0-.9,1.051c-.07.168-.112.238-.224.238a1.088,1.088,0,0,1-.406-.21,9.227,9.227,0,0,1-2.214-2.326,10.676,10.676,0,0,1-4.131,2.563c-.071.029-.155-.126-.1-.168a13.289,13.289,0,0,0,3.712-3.292,12.667,12.667,0,0,1-1.078-4.538h-.378a16.03,16.03,0,0,1-.477,3.853,7.811,7.811,0,0,1-2.563,4.048c-.056.042-.182-.071-.14-.126a9.881,9.881,0,0,0,1.653-4.076,34.569,34.569,0,0,0,.266-5.814c0-.91-.042-1.373-.112-2.226a7.313,7.313,0,0,1,1.47.784h3.1c.7-.813.813-.9.925-.9.14,0,.266.084.966.616.323.252.406.35.406.462s-.056.141-.209.141h-5.253v.518c0,.869,0,1.667-.028,2.395Zm-2.577.322a8.558,8.558,0,0,0,1.317,3.712,11.491,11.491,0,0,0,1.288-3.712Z" fill="#1a1311"/>
      <path id="パス_122" data-name="パス 122" d="M171.527,390.787c-.069,3.208-1.386,4.664-5.112,5.337-.07.014-.126-.183-.056-.21,2.9-1.121,3.782-2.367,3.782-5.337,0-.154,0-.308-.014-.6,1.513.139,1.863.223,1.863.476C171.99,390.591,171.877,390.675,171.527,390.787Zm5.393-1.695c.533-.645.645-.729.757-.729.14,0,.238.084.91.729.294.28.378.392.378.5,0,.252-.084.336-.63.336a.487.487,0,0,0-.392.139,8.92,8.92,0,0,1-1.331.883c-.056.028-.168-.042-.14-.1a5.893,5.893,0,0,0,.589-1.443h-8.783c0,1.079-.49,1.877-1.331,1.877a.6.6,0,0,1-.616-.616c0-.309.14-.519.532-.742a1.824,1.824,0,0,0,1.093-1.7c0-.069.14-.084.153-.013a3.854,3.854,0,0,1,.155.868Zm-3.74-1.779h2.466c.658-.77.826-.882.924-.882.126,0,.281.112.9.616.266.224.378.35.378.448s-.042.14-.182.14h-8.769a6.326,6.326,0,0,0-.953.085l-.153-.519a5.191,5.191,0,0,0,1.064.112h2.983v-1.667h-4.174a6.944,6.944,0,0,0-.994.084l-.154-.518a5.546,5.546,0,0,0,1.092.112h4.23v-.589a11.082,11.082,0,0,0-.084-1.372c1.751.154,1.919.308,1.919.462,0,.126-.153.238-.49.351v1.148h3.46c.672-.8.84-.911.939-.911.126,0,.28.112.952.631.308.252.421.364.421.462s-.042.14-.182.14h-5.59Zm1.373,6.822c0,.392.126.5,1.289.5a4.127,4.127,0,0,0,1.372-.126c.421-.126.659-.659,1.079-2.045.014-.071.168-.071.168,0,0,.5-.042,1.121-.042,1.512,0,.183.028.225.112.267.379.182.476.364.476.6,0,.35-.182.6-.658.756a10.329,10.329,0,0,1-2.662.225c-2.03,0-2.465-.2-2.465-1.247v-2.3c0-.757-.014-1.527-.042-2.3,1.793.252,1.793.252,1.793.463,0,.14-.1.224-.42.35Z" fill="#1a1311"/>
      <path id="パス_123" data-name="パス 123" d="M107.218,413.981c.68-.219,1.36-.48,2.04-.74.1-.04.18.16.1.22a15.522,15.522,0,0,1-2.14,1.5c.02,3.6.02,6.081.02,7.142,0,.62-.4.859-1.16.859-.6,0-.821-.22-.821-.66,0-.9.04-2.92.06-6.3-.5.26-1.04.5-1.6.76-.04.52-.16.72-.4.72-.3,0-.46-.34-1.12-2.34a11.96,11.96,0,0,0,1.82-.281c.42-.08.86-.2,1.32-.319v-1.5c0-1.08.02-2.16.02-3.24h-1.28a11.532,11.532,0,0,1-1.76,3.1c-.06.08-.26.04-.22-.06a24.47,24.47,0,0,0,.86-4.08,16.581,16.581,0,0,0,.2-2.421c1.38.32,2.08.58,2.2.82v-.44a18.067,18.067,0,0,0-.08-2.221c2.441.28,2.621.32,2.621.641,0,.179-.2.36-.68.559v3.642h.38c.66-.841.9-1,1.04-1,.18,0,.38.16,1.04.721.26.219.42.4.42.54s-.06.2-.26.2h-2.62Zm-1.861-4.64v-2c-.06.1-.22.181-.6.32-.18.62-.34,1.18-.52,1.681Zm7.5-1.061h-2.24a6.507,6.507,0,0,0-1.141.12l-.22-.74a5.619,5.619,0,0,0,1.321.16h2.28v-1.68a15.3,15.3,0,0,0-.08-1.6c2.42.221,2.64.44,2.64.66,0,.2-.22.381-.64.54v2.081h1.981c.9-1.08,1.14-1.24,1.28-1.24.18,0,.4.16,1.28.88.4.32.56.48.56.62s-.06.2-.26.2h-4.841v3.1h2.841c.9-1.1,1.14-1.261,1.28-1.261.18,0,.4.16,1.321.881.42.34.58.5.58.64s-.06.2-.26.2H109.778a7.134,7.134,0,0,0-1.2.12l-.22-.74a6.056,6.056,0,0,0,1.36.16h3.141Zm4.521,9.3c0,.9.06,2.3.06,3.121a1.787,1.787,0,0,1-.46,1.5,2.706,2.706,0,0,1-1.94.74c-.281,0-.321-.04-.421-.52-.18-.819-.7-1.08-2.18-1.46-.1-.02-.1-.24,0-.24,1,.06,1.98.08,2.74.08.26,0,.341-.08.341-.321v-5.3h-5.5a6.919,6.919,0,0,0-1.181.12l-.22-.74a5.9,5.9,0,0,0,1.34.16h5.562v-.84a11.135,11.135,0,0,0-.1-1.6c2.061.2,2.6.3,2.6.6,0,.2-.18.341-.64.56v1.281h.64c.72-.981.98-1.181,1.12-1.181.18,0,.381.12,1.121.841.26.26.44.46.44.6s-.06.2-.261.2h-3.06Zm-4.941,2.081c-.62,0-.74-.221-1-1.3a3.512,3.512,0,0,0-1.16-2c-.08-.06,0-.16.1-.14,2.021.32,3.1,1.16,3.1,2.24C113.479,419.2,113.159,419.663,112.439,419.663Z" fill="#1a1311"/>
      <path id="パス_124" data-name="パス 124" d="M126.677,411.361v.36c0,.64-.32.921-1.06.921-.54,0-.8-.2-.8-.561,0-.54.1-1.08.1-3.261,0-1.26-.02-2.52-.12-3.781a10.676,10.676,0,0,1,2.02,1.021H131.1c.7-.821.86-.941,1.021-.941.2,0,.36.12,1.1.761.34.32.46.46.46.62,0,.18-.18.36-.56.58v.76c0,2.02.1,3.4.1,3.861,0,.58-.34.82-1.08.82-.58,0-.821-.2-.821-.7v-.46h-2.1c-.02.98-.08,1.96-.18,2.92h2.18c.6-.7.761-.82.921-.82.2,0,.34.12,1.02.74.3.28.42.441.42.6,0,.139-.06.2-.54.559-.141,3.421-.36,4.8-.8,5.8a2.311,2.311,0,0,1-1.141,1.2,2.871,2.871,0,0,1-1.28.241c-.34,0-.44-.121-.48-.4-.1-.7-.56-1.08-1.88-1.46-.1-.02-.061-.261.04-.261,1.04.081,1.82.141,2.46.141.66,0,.84-.221,1.04-1.52a33.429,33.429,0,0,0,.3-4.362h-2.34a10.224,10.224,0,0,1-5.3,7.983c-.08.059-.2-.08-.14-.161,2.84-3,3.82-5.841,3.86-11.2Zm4.641-4.841h-4.641v4.38h4.641Zm5.521,2.4c0,4.4.1,7.422.1,8.422,0,.56-.339.82-1.08.82-.6,0-.82-.2-.82-.72,0-.6.08-2.4.08-6,0-3.1,0-3.98-.08-5.3,2.161.24,2.38.28,2.38.62,0,.179-.159.32-.58.5Zm2.2-2.521a9.761,9.761,0,0,0-.12-1.679c2.42.319,2.48.319,2.48.639,0,.221-.16.38-.52.561V413.2c0,4.281.1,6.321.1,7.422,0,.92-.16,1.26-.66,1.6a2.555,2.555,0,0,1-1.46.479c-.44,0-.58-.1-.64-.5-.08-.78-.64-1.16-2.3-1.54-.1-.02-.1-.3,0-.28.94.1,2.081.16,2.821.16.24,0,.3-.061.3-.26Z" fill="#1a1311"/>
      <path id="パス_125" data-name="パス 125" d="M147.077,412.461a16.848,16.848,0,0,1-1.94,2.28c-.08.08-.26-.1-.2-.179a29.73,29.73,0,0,0,2.84-6.482,19.993,19.993,0,0,0,.721-3.581c2.32.62,2.6.721,2.6.98,0,.241-.1.281-.78.5a22.445,22.445,0,0,1-2.181,4.862c1.141.18,1.3.24,1.3.46,0,.179-.139.3-.54.5v10.182c0,.58-.339.84-1.08.84-.64,0-.88-.2-.88-.76,0-.52.14-2.1.14-5.261Zm5.281,9.342c0,.48-.34.68-1.1.68-.6,0-.8-.18-.8-.7,0-1,.1-2,.1-6.041,0-1.86-.02-3.741-.1-5.622a15.28,15.28,0,0,1,2.041,1.041H154V407.08h-2a8.246,8.246,0,0,0-1.3.12l-.22-.74a6.55,6.55,0,0,0,1.42.16h8.5c.92-1.06,1.16-1.221,1.3-1.221.18,0,.421.161,1.361.861.419.32.58.48.58.62s-.06.2-.26.2h-4.2v4.081h1.64c.66-.78.82-.9.98-.9.2,0,.381.12,1.18.76.361.3.481.44.481.6,0,.26-.16.4-.7.72v1.56c0,4.1.079,6.922.079,7.862,0,.5-.34.72-1.16.72-.52,0-.74-.16-.74-.62v-.6h-8.582ZM154,411.621h-1.641V420.8H154Zm3.42-4.541h-1.68v4.081h1.68Zm0,13.723v-9.182h-1.68V420.8Zm3.521-9.182h-1.76V420.8h1.76Z" fill="#1a1311"/>
      <path id="パス_126" data-name="パス 126" d="M171.337,411.381c1.621.58,2.481,1.38,2.481,2.36a.927.927,0,0,1-.921.96c-.419,0-.659-.239-.719-.74a3.852,3.852,0,0,0-.841-2.22c0,4.941.1,9.442.1,10.562,0,.44-.42.66-1.06.66-.5,0-.78-.159-.78-.58,0-1,.12-5.061.16-9.022a11.474,11.474,0,0,1-2.881,4.822c-.06.08-.24-.04-.2-.12a29.473,29.473,0,0,0,2.721-8.443h-.82a8.946,8.946,0,0,0-1.341.12l-.219-.74a7.2,7.2,0,0,0,1.48.16h1.14v-2.04a25.1,25.1,0,0,0-.1-2.56c2.18.24,2.541.339,2.541.639,0,.221-.221.4-.741.62v3.341h.46c.6-1.04.841-1.2.981-1.2.18,0,.36.16,1.04.841.26.279.42.479.42.62s-.06.2-.26.2h-2.641Zm3.361,4.64a22.9,22.9,0,0,1-2.361.881c-.1.02-.2-.22-.119-.26a23.878,23.878,0,0,0,6.241-4.681,17.891,17.891,0,0,1-1.8-3.041,13.02,13.02,0,0,1-3.161,3.2c-.08.06-.24-.08-.18-.16a17.919,17.919,0,0,0,2.64-4.8,13.587,13.587,0,0,0,.721-2.781c1.96.541,2.44.761,2.44,1.06,0,.22-.22.34-.72.4-.24.54-.5,1.059-.76,1.54H181.1c.779-.84.94-.96,1.1-.96.2,0,.36.12,1.16.78.36.321.48.46.48.62,0,.241-.14.34-.72.54a16.687,16.687,0,0,1-2.741,3.841,13.777,13.777,0,0,0,5.381,2c.1.021.08.12,0,.181a1.987,1.987,0,0,0-1.08,1.38c-.04.219-.12.32-.28.32a2.641,2.641,0,0,1-.84-.28,16.148,16.148,0,0,1-4-2.641l-.1-.08a16.745,16.745,0,0,1-3.721,2.481,5.751,5.751,0,0,1,.921.58h4.66c.64-.68.8-.8.961-.8.2,0,.36.12,1.06.679.32.261.44.4.44.561,0,.14-.14.28-.52.56v.82c0,2.161.1,3.7.1,4.182,0,.5-.38.719-1.12.719-.52,0-.781-.179-.781-.62v-.66H176.5v.7c0,.46-.381.68-1.081.68-.54,0-.78-.2-.78-.56,0-.64.06-1.32.06-3.961Zm6.761.581H176.5v4.521h4.96Zm-4.1-8.762a3.863,3.863,0,0,1-.441.721,10.36,10.36,0,0,0,2.181,2.66,14.684,14.684,0,0,0,2.1-3.381Z" fill="#1a1311"/>
    </g>
    <g id="グループ_31" data-name="グループ 31">
      <path id="パス_127" data-name="パス 127" d="M115.215,515.04c0,.442.2.56,1.054.56,1.287,0,1.65-.039,1.833-.208a5.038,5.038,0,0,0,.728-1.794c.025-.078.169-.052.169.025-.013.455-.04,1.066-.04,1.379.014.208.053.246.273.338a.349.349,0,0,1,.235.35c0,.313-.273.546-.754.651a11.034,11.034,0,0,1-2.393.155c-1.625,0-2.092-.3-2.106-1.312,0-.221.026-.573.026-1.625v-2.692h-1.833a7.392,7.392,0,0,1-.805,3.394,5.429,5.429,0,0,1-3.875,2.457c-.091.025-.156-.169-.078-.208a5.317,5.317,0,0,0,3.237-2.795,7.907,7.907,0,0,0,.52-2.848h-2.522a4.7,4.7,0,0,0-.936.078l-.13-.507a4.881,4.881,0,0,0,1.04.1h4.173V507.9H110.5a6.834,6.834,0,0,1-2.054,2.041c-.052.039-.156-.065-.117-.117a9.745,9.745,0,0,0,1.755-2.951,7.85,7.85,0,0,0,.39-1.495c1.04.247,1.365.377,1.365.546,0,.143-.129.221-.481.273a8.42,8.42,0,0,1-.65,1.378h2.327v-.923a15.567,15.567,0,0,0-.052-1.69c1.327.13,1.482.247,1.482.4,0,.1-.09.208-.455.338v1.872h2.327c.573-.688.664-.754.742-.754s.182.066.779.533c.273.247.338.338.338.416s-.051.13-.181.13h-4.005v2.639H117.4c.651-.754.742-.806.832-.806s.169.052.82.585c.3.247.364.338.364.416s-.052.13-.169.13h-4.031Z" fill="#1a1311"/>
      <path id="パス_128" data-name="パス 128" d="M125.966,508.358h-2.73a5.864,5.864,0,0,0-.91.065l-.13-.481a5.969,5.969,0,0,0,1.014.091h2.756v-1.221h-3.627a5.853,5.853,0,0,0-.91.064l-.13-.494a4.912,4.912,0,0,0,1.027.1h2.327c-.091-.051-.143-.169-.195-.351a2.6,2.6,0,0,0-.728-1.183c-.039-.039.026-.13.079-.117.987.247,1.559.689,1.559,1.17a.541.541,0,0,1-.3.481h2.51a9.75,9.75,0,0,0,.493-1.066,4.144,4.144,0,0,0,.2-.715c1.118.416,1.3.507,1.3.676,0,.13-.1.195-.571.208a10.667,10.667,0,0,1-1.027.9h2.183c.547-.611.638-.675.716-.675s.208.051.74.506c.261.2.3.287.3.365s-.053.13-.182.13H126.9v1.221h2.392c.52-.611.612-.663.7-.663s.169.052.7.482c.234.208.285.3.285.377s-.038.129-.169.129H126.9v1.288h3.758c.52-.612.611-.676.7-.676s.169.064.754.493c.259.222.312.3.312.391s-.039.117-.169.117H124.81c-.118.35-.248.688-.391,1.026q.1.059.273.156h4.785c.377-.428.455-.467.533-.467s.156.039.585.389c.181.169.234.235.234.313,0,.116-.053.194-.338.377v1.157c0,2.041.051,3.067.051,3.38s-.208.455-.571.455c-.286,0-.4-.13-.4-.391v-.324h-4.953v.324c0,.274-.208.416-.572.416-.3,0-.4-.116-.4-.35,0-.274.065-.976.065-2.809,0-.546.013-.923.026-1.325a9.746,9.746,0,0,1-3.029,3.145c-.078.052-.208-.09-.143-.156a11.551,11.551,0,0,0,3.237-5.316h-1.82a7.484,7.484,0,0,0-1.014.077l-.13-.493a6,6,0,0,0,1.131.091h4Zm3.6,3.121h-4.953v1.13h4.953Zm-4.953,2.625h4.953v-1.169h-4.953Zm0,1.613h4.953V514.43h-4.953Z" fill="#1a1311"/>
      <path id="パス_129" data-name="パス 129" d="M138.33,513.415c-.014.819-.026.976.1,1.274.1.26.52.274.949.313.065,0,.1.025.1.182s-.026.169-.1.169c-.482-.027-1.092-.066-1.573-.066s-1.131.039-1.613.066c-.1,0-.13-.013-.13-.169s.039-.169.13-.182c.339-.039.781-.065.871-.261a2.994,2.994,0,0,0,.169-1.3v-.585h-2.119c-.442,0-.793.013-1.143.013-.118,0-.157-.039-.157-.338a.7.7,0,0,1,.13-.519c1.236-2.119,2.21-3.732,3.51-5.812l.858-.234c.053,0,.092.026.092.13-.027,1.04-.027,2.08-.053,3.276l-.025,2.99c.441,0,.883-.026,1.338-.064.065,0,.092.025.079.091l-.1.4c-.014.065-.039.078-.118.078-.377-.025-.818-.025-1.195-.025Zm-1.066-3.809c.012-.961.026-1.482.065-2.353-.989,1.6-2,3.264-2.926,4.928-.078.13-.051.194.1.194h2.73Z" fill="#1a1311"/>
      <path id="パス_130" data-name="パス 130" d="M146.194,510.776c0,2.939-1,4.8-2.665,4.8-1.7,0-2.691-1.781-2.691-4.719,0-2.977,1.027-4.823,2.691-4.823C145.167,506.031,146.194,507.891,146.194,510.776Zm-4.082.039c0,2.665.3,4.356,1.417,4.356,1.092,0,1.391-1.691,1.391-4.356s-.286-4.38-1.391-4.38S142.112,508.163,142.112,510.815Z" fill="#1a1311"/>
      <path id="パス_131" data-name="パス 131" d="M152.955,510.776c0,2.939-1,4.8-2.665,4.8-1.7,0-2.691-1.781-2.691-4.719,0-2.977,1.026-4.823,2.691-4.823C151.928,506.031,152.955,507.891,152.955,510.776Zm-4.082.039c0,2.665.3,4.356,1.417,4.356,1.091,0,1.391-1.691,1.391-4.356s-.286-4.38-1.391-4.38S148.873,508.163,148.873,510.815Z" fill="#1a1311"/>
      <path id="パス_132" data-name="パス 132" d="M158.466,512.519a20.389,20.389,0,0,1-3.25,1.3c-.091.027-.156-.156-.078-.2a16,16,0,0,0,7.891-6.76h-3.3a9.28,9.28,0,0,1-1.209,1.366c1.066.35,1.716.974,1.716,1.6a.58.58,0,0,1-.494.611c-.208,0-.377-.1-.481-.467a3.081,3.081,0,0,0-.923-1.561,11.976,11.976,0,0,1-2.769,1.794c-.078.039-.182-.13-.1-.182a12.088,12.088,0,0,0,3.549-3.731,7.882,7.882,0,0,0,.728-1.547c.989.247,1.3.39,1.3.559,0,.143-.117.208-.507.312-.182.325-.377.637-.572.923h3.017c.441-.494.506-.546.6-.546s.169.052.663.507c.221.208.273.3.273.377,0,.144-.077.2-.52.325a13.314,13.314,0,0,1-4.472,4.706h4.668c.416-.455.48-.519.559-.519s.155.064.61.428c.195.182.234.26.234.338s-.051.169-.351.352v.962c0,1.742.053,2.587.053,2.846,0,.287-.2.429-.611.429-.313,0-.4-.1-.4-.377v-.416H159.4v.391c0,.286-.182.429-.585.429-.312,0-.429-.118-.429-.39,0-.352.078-.924.078-2.912Zm5.811-.287H159.4v3.394h4.875Z" fill="#1a1311"/>
      <path id="パス_133" data-name="パス 133" d="M170.634,509.294c.884.4,1.365.988,1.365,1.509a.5.5,0,0,1-.455.546c-.2,0-.3-.118-.338-.4a2.573,2.573,0,0,0-.572-1.365v.183c0,3.8.052,5.993.052,6.681,0,.26-.208.377-.559.377-.286,0-.4-.091-.4-.325,0-.441.065-2.249.1-6.187a9.89,9.89,0,0,1-1.937,3.367c-.052.052-.182-.039-.143-.105a17.759,17.759,0,0,0,1.9-5.382h-.754a5.011,5.011,0,0,0-.819.065l-.13-.481a4.686,4.686,0,0,0,.91.091h.923v-1.4a10.54,10.54,0,0,0-.091-1.664c1.235.13,1.417.2,1.417.364,0,.117-.1.208-.468.364v2.34h.442c.364-.558.455-.624.533-.624s.156.066.611.507c.156.144.221.247.221.313,0,.09-.039.129-.182.129h-1.625Zm5.265-.481h1.56c.468-.545.56-.611.638-.611s.181.066.636.455c.208.2.273.274.273.351s-.039.131-.182.131H175.9v1.481h2.432c.467-.585.6-.663.675-.663s.169.065.677.507c.234.182.286.273.286.351s-.052.13-.17.13H176a7.523,7.523,0,0,0,1.04,2.068,6.02,6.02,0,0,0,.911-1.145,3.1,3.1,0,0,0,.273-.572c.883.469,1.091.624,1.091.755,0,.116-.13.181-.546.142a9.26,9.26,0,0,1-1.585,1.014,4.956,4.956,0,0,0,.363.4A6.477,6.477,0,0,0,180.1,515.2c.065.027.039.13-.027.157a.865.865,0,0,0-.6.585c-.065.2-.1.234-.183.234a.747.747,0,0,1-.429-.208,8.9,8.9,0,0,1-1.78-1.833,8.772,8.772,0,0,1-1.262-2.939c.091,3.081.117,4.1.117,4.564a.9.9,0,0,1-.364.766,1.4,1.4,0,0,1-.832.248c-.117,0-.156-.04-.2-.248-.065-.337-.26-.506-1.326-.741-.078-.012-.065-.181.013-.169a15.981,15.981,0,0,0,1.6.078c.156,0,.209-.064.209-.259V513.6a16.355,16.355,0,0,1-2.874,1.65c-.039.4-.091.494-.208.494s-.234-.181-.689-1.221a6,6,0,0,0,.936-.182,19,19,0,0,0,2.835-.988v-2.406h-1.756a6.559,6.559,0,0,0-.975.066l-.13-.482a6.476,6.476,0,0,0,1.079.091h1.782v-1.481h-1.548a5.042,5.042,0,0,0-.832.064l-.13-.494a4.928,4.928,0,0,0,.949.1h1.561V507.37h-1.9a5.927,5.927,0,0,0-.793.066l-.143-.482a4.643,4.643,0,0,0,.923.091h2.86a9.458,9.458,0,0,0,.624-1.339,4.173,4.173,0,0,0,.247-.871c1.028.416,1.248.52,1.248.676s-.078.2-.506.234a7.448,7.448,0,0,1-1.236,1.3h1.885c.43-.507.52-.571.6-.571.1,0,.208.051.663.428.208.169.259.26.259.338s-.039.13-.169.13H175.9Zm-2.782,3.978a2.76,2.76,0,0,0-.858-1.312c-.052-.04.039-.13.1-.118,1.027.313,1.664.859,1.664,1.4a.516.516,0,0,1-.494.546C173.325,513.312,173.273,513.272,173.117,512.791Zm.793-6.487a2.617,2.617,0,0,0-.7-1.261c-.039-.039.039-.1.091-.091.988.312,1.547.806,1.547,1.3a.567.567,0,0,1-.507.6C174.079,506.851,174,506.746,173.91,506.3Z" fill="#1a1311"/>
    </g>
  </g>
</svg>
