<svg id="コンポーネント_25_1" data-name="コンポーネント 25 – 1" xmlns="http://www.w3.org/2000/svg" width="23.638" height="22.892" viewBox="0 0 23.638 22.892">
  <path id="パス_2" data-name="パス 2" d="M1161.79,717.024c3.156,0,3.53.011,4.776.066a6.729,6.729,0,0,1,2.2.394,3.669,3.669,0,0,1,1.358.856,3.538,3.538,0,0,1,.884,1.315,6.155,6.155,0,0,1,.407,2.126c.057,1.206.068,1.569.068,4.625s-.012,3.418-.068,4.625a6.154,6.154,0,0,1-.407,2.126,3.536,3.536,0,0,1-.884,1.316,3.669,3.669,0,0,1-1.358.856,6.721,6.721,0,0,1-2.2.394c-1.246.055-1.619.066-4.776.066s-3.53-.011-4.776-.066a6.708,6.708,0,0,1-2.194-.394,3.669,3.669,0,0,1-1.359-.856,3.537,3.537,0,0,1-.884-1.316,6.153,6.153,0,0,1-.407-2.126c-.057-1.206-.068-1.569-.068-4.625s.012-3.418.068-4.625a6.155,6.155,0,0,1,.407-2.126,3.538,3.538,0,0,1,.884-1.315,3.669,3.669,0,0,1,1.359-.856,6.716,6.716,0,0,1,2.194-.394c1.246-.055,1.62-.066,4.776-.066m0-2.062c-3.21,0-3.612.013-4.873.069a8.935,8.935,0,0,0-2.869.532,5.822,5.822,0,0,0-2.094,1.321,5.59,5.59,0,0,0-1.363,2.027,8.164,8.164,0,0,0-.55,2.779c-.058,1.22-.071,1.61-.071,4.719s.014,3.5.071,4.719a8.164,8.164,0,0,0,.55,2.779,5.59,5.59,0,0,0,1.363,2.027,5.821,5.821,0,0,0,2.094,1.321,8.939,8.939,0,0,0,2.869.532c1.261.056,1.663.069,4.873.069s3.613-.013,4.874-.069a8.942,8.942,0,0,0,2.869-.532,5.818,5.818,0,0,0,2.093-1.321,5.6,5.6,0,0,0,1.364-2.027,8.2,8.2,0,0,0,.549-2.779c.057-1.22.071-1.61.071-4.719s-.013-3.5-.071-4.719a8.2,8.2,0,0,0-.549-2.779,5.6,5.6,0,0,0-1.364-2.027,5.82,5.82,0,0,0-2.093-1.321,8.939,8.939,0,0,0-2.869-.532c-1.261-.056-1.663-.069-4.874-.069Z" transform="translate(-1149.971 -714.961)" fill="#fff"/>
  <path id="パス_3" data-name="パス 3" d="M1163.337,722.258a5.708,5.708,0,1,0,6.069,5.7A5.892,5.892,0,0,0,1163.337,722.258Zm0,9.393a3.7,3.7,0,1,1,3.94-3.7A3.825,3.825,0,0,1,1163.337,731.651Z" transform="translate(-1151.519 -716.508)" fill="#fff"/>
  <circle id="楕円形_1" data-name="楕円形 1" cx="1.418" cy="1.418" r="1.418" transform="translate(16.71 3.945)" fill="#fff"/>
</svg>
