<svg id="コンポーネント_21_2" data-name="コンポーネント 21 – 2" xmlns="http://www.w3.org/2000/svg" width="136.087" height="20" viewBox="0 0 136.087 20">
  <g id="グループ_9" data-name="グループ 9">
    <path id="パス_168" data-name="パス 168" d="M211.2,231.622a16.574,16.574,0,0,0-4.388-.982,9.2,9.2,0,0,1-2.748-.619,1.484,1.484,0,0,1-.849-1.37,1.682,1.682,0,0,1,.647-1.327,2.721,2.721,0,0,1,1.78-.491,3.357,3.357,0,0,1,1.99.594,2.391,2.391,0,0,1,.8,1.072l4.792-.5a6.523,6.523,0,0,0-1.163-1.86,9.141,9.141,0,0,0-6.158-2.1c-4.33,0-6.2,2.307-6.4,2.57a4.1,4.1,0,0,0-.81,2.568,4.047,4.047,0,0,0,.751,2.422,4.254,4.254,0,0,0,1.873,1.529,25.648,25.648,0,0,0,4.313,1.062,10.438,10.438,0,0,1,2.744.714,1.661,1.661,0,0,1,.932,1.51,1.758,1.758,0,0,1-.7,1.415,3.327,3.327,0,0,1-2.175.657,3.022,3.022,0,0,1-3.138-2.1l-5.148.516a5.3,5.3,0,0,0,2.039,2.917,9.986,9.986,0,0,0,5.913,1.752,9.414,9.414,0,0,0,4.7-1.064,6.7,6.7,0,0,0,2.408-2.243,4.976,4.976,0,0,0,.757-2.579,4.23,4.23,0,0,0-.7-2.374A4.6,4.6,0,0,0,211.2,231.622Z" transform="translate(-198.148 -221.902)" fill="#fff"/>
    <path id="パス_169" data-name="パス 169" d="M235.186,231.5a3.854,3.854,0,0,0-1.71-1.165,7.749,7.749,0,0,0-2.583-.375,8.51,8.51,0,0,0-2.9.509A6.955,6.955,0,0,0,225.508,232l2.013,2.159a5.208,5.208,0,0,1,1.346-.874,3.864,3.864,0,0,1,1.637-.363,2.715,2.715,0,0,1,1.552.425,1.48,1.48,0,0,1,.631,1.322v.194A25.859,25.859,0,0,0,230,235a9.781,9.781,0,0,0-2.51.582,4.691,4.691,0,0,0-1.844,1.237,3.047,3.047,0,0,0-.715,2.11,3.585,3.585,0,0,0,.413,1.795,3.408,3.408,0,0,0,1.055,1.164,4.409,4.409,0,0,0,1.419.631,6.193,6.193,0,0,0,1.5.194,4.966,4.966,0,0,0,2.025-.412,2.994,2.994,0,0,0,1.395-1.165h.073v1.286h3.638v-6.088a11.736,11.736,0,0,0-.3-2.85A4.963,4.963,0,0,0,235.186,231.5Zm-2.377,6.076a2.5,2.5,0,0,1-.643,1.807,2.458,2.458,0,0,1-1.855.667,3.21,3.21,0,0,1-.606-.061,1.687,1.687,0,0,1-.558-.206,1.219,1.219,0,0,1-.4-.388,1.041,1.041,0,0,1-.158-.582,1.144,1.144,0,0,1,.34-.861,2.2,2.2,0,0,1,.861-.5,5.457,5.457,0,0,1,1.189-.23q.667-.06,1.322-.061h.509Z" transform="translate(-208.032 -223.032)" fill="#fff"/>
    <path id="パス_170" data-name="パス 170" d="M260.675,227.274h-4.827l-3.857,5.182h-.073v-11.8h-4v19.4h4v-6.131h.073l3.954,6.131h4.924l-4.851-7Z" transform="translate(-216.518 -220.655)" fill="#fff"/>
    <path id="パス_171" data-name="パス 171" d="M320.583,229.913a6.448,6.448,0,0,0-2.135-1.262,7.907,7.907,0,0,0-5.178,0,6.272,6.272,0,0,0-2.134,1.262,5.78,5.78,0,0,0-.963,1.144,8.853,8.853,0,0,1-1.184.1,2.865,2.865,0,0,1-.552-.047,1.633,1.633,0,0,1-1.11-.564.933.933,0,0,1-.083-.731,5.986,5.986,0,0,0-.068-2.488,2.936,2.936,0,0,0-2.383-2.068,3.319,3.319,0,0,0-.408-.025,2.9,2.9,0,0,0-3.032,2.18,4.747,4.747,0,0,0,1.418,3.974l.023.025a9.127,9.127,0,0,1,.791.929l.016.025v.03a7.474,7.474,0,0,1-1.566,4.935,1.707,1.707,0,0,1-1.18.5,1,1,0,0,1-.161-.012,1.461,1.461,0,0,1-.884-.958,25.092,25.092,0,0,1-.535-3.11l-.02-.156c-.186-1.443-.358-2.91-.523-4.327l-.1-.849a1.223,1.223,0,0,0-1.214-1.08h-1.4a1.223,1.223,0,0,0-.917.415,1.236,1.236,0,0,0-.294.973l0,.029c.023.184.07.512.131.935l.009.063c.276,1.937.79,5.542.77,6.783a1.444,1.444,0,0,1-1.481,1.358c-.039,0-.078,0-.116,0a1.353,1.353,0,0,1-1.344-1.123c-.28-1.074-.527-2.225-.755-3.518-.242-1.373-.461-2.761-.674-4.108l-.124-.779a1.217,1.217,0,0,0-1.207-1.03h-1.543a1.5,1.5,0,0,0-1.509,1.342,2.836,2.836,0,0,1-.869,2.09,4.56,4.56,0,0,1-2.12.484,9.044,9.044,0,0,1-3.953-1.132c-.045-.053-.088-.11-.135-.16a5.335,5.335,0,0,0-1.917-1.3,6.509,6.509,0,0,0-2.45-.449,7.049,7.049,0,0,0-2.571.461,6.167,6.167,0,0,0-2.062,1.3,6.055,6.055,0,0,0-1.382,2.037,6.793,6.793,0,0,0-.51,2.681,6.693,6.693,0,0,0,.522,2.717,5.722,5.722,0,0,0,1.431,2,6.231,6.231,0,0,0,2.122,1.237,7.734,7.734,0,0,0,2.571.425,7.434,7.434,0,0,0,3.238-.667,5.594,5.594,0,0,0,2.243-1.9l-2.765-1.747a3.16,3.16,0,0,1-1.067.91,3.345,3.345,0,0,1-1.6.352,3.209,3.209,0,0,1-1.928-.643,2.613,2.613,0,0,1-.655-.715,2.111,2.111,0,0,1-.3-.922h8.756a4.118,4.118,0,0,0,.025-.461v-.485c0-.327-.02-.638-.05-.943a8.891,8.891,0,0,0,2.385.476,6.446,6.446,0,0,0,3.943-1.223,4.287,4.287,0,0,0,.34-.286l.144-.134.032.194c.074.46.151.92.229,1.376.04.234.079.469.118.707a23.7,23.7,0,0,0,.729,3.388,3.9,3.9,0,0,0,3.769,2.944,4.894,4.894,0,0,0,1.047-.119,6.6,6.6,0,0,0,1.962-.949c.228-.141.485-.3.757-.452l.08-.027.056.056a4.834,4.834,0,0,0,6.893.073,8.946,8.946,0,0,0,2.315-4.231c.067-.24.377-1.3.545-1.866l.034-.117.11.05a4.263,4.263,0,0,0,1.734.339c.141,0,.283-.008.425-.019-.014.186-.023.375-.023.568a6.528,6.528,0,0,0,.534,2.68,6.08,6.08,0,0,0,1.444,2.038,6.477,6.477,0,0,0,2.134,1.3,7.5,7.5,0,0,0,5.178,0,6.666,6.666,0,0,0,2.135-1.3,6.022,6.022,0,0,0,1.455-2.038,6.528,6.528,0,0,0,.534-2.68,6.444,6.444,0,0,0-.534-2.668A5.917,5.917,0,0,0,320.583,229.913ZM272.8,233.26a2.159,2.159,0,0,1,.243-.885,2.466,2.466,0,0,1,.582-.74,2.779,2.779,0,0,1,.849-.5,3.018,3.018,0,0,1,1.067-.182,2.246,2.246,0,0,1,1.783.679,2.389,2.389,0,0,1,.594,1.625Zm32.149-4.112-.011.232-.188-.137a3.4,3.4,0,0,1-.327-.261,1.372,1.372,0,0,1-.394-.621c-.059-.215-.037-.375.059-.428a.433.433,0,0,1,.207-.059c.227,0,.418.237.56.443C304.91,228.4,304.979,228.568,304.952,229.148Zm13.605,6.586a3.1,3.1,0,0,1-.546,1.006,2.683,2.683,0,0,1-.9.716,3,3,0,0,1-2.474,0,2.677,2.677,0,0,1-.9-.716,3.117,3.117,0,0,1-.546-1.006,3.667,3.667,0,0,1,0-2.28,2.959,2.959,0,0,1,.534-.982,2.885,2.885,0,0,1,3.36-.691,2.845,2.845,0,0,1,.9.691,3.023,3.023,0,0,1,.558.982,3.448,3.448,0,0,1,.194,1.14A3.662,3.662,0,0,1,318.557,235.734Z" transform="translate(-224.297 -221.287)" fill="#fff"/>
    <path id="パス_172" data-name="パス 172" d="M364.068,230.036a3.37,3.37,0,0,0-1.965.587,3.929,3.929,0,0,0-1.31,1.514h-.049V230.39h-3.833v12.065h3.978v-6.193a2.987,2.987,0,0,1,.145-.846,2.657,2.657,0,0,1,.473-.9,2.735,2.735,0,0,1,.873-.7,2.839,2.839,0,0,1,1.346-.29q.242,0,.5.024a3.115,3.115,0,0,1,.521.1l.17-3.517a1.856,1.856,0,0,0-.376-.073A4.641,4.641,0,0,0,364.068,230.036Z" transform="translate(-256.748 -223.06)" fill="#fff"/>
    <rect id="長方形_22" data-name="長方形 22" width="4.051" height="19.395" transform="translate(109.818 0)" fill="#fff"/>
    <path id="パス_173" data-name="パス 173" d="M390.685,220.655v7.971h-.049a5.066,5.066,0,0,0-1.431-1.179,4.4,4.4,0,0,0-2.256-.539,5.122,5.122,0,0,0-2.365.539,5.438,5.438,0,0,0-1.795,1.461,6.748,6.748,0,0,0-1.14,2.14,8.118,8.118,0,0,0-.4,2.551,8.446,8.446,0,0,0,.389,2.562,6.681,6.681,0,0,0,1.127,2.166,5.618,5.618,0,0,0,1.807,1.5,5.112,5.112,0,0,0,2.426.564,5.173,5.173,0,0,0,2.292-.525,3.839,3.839,0,0,0,1.662-1.5H391v1.666h3.662V220.655Zm-.037,14.173a3.449,3.449,0,0,1-.582,1.051,2.93,2.93,0,0,1-.91.744,2.557,2.557,0,0,1-1.213.282,2.606,2.606,0,0,1-1.237-.282,2.787,2.787,0,0,1-.9-.744,3.18,3.18,0,0,1-.546-1.063,4.194,4.194,0,0,1-.182-1.217,4.07,4.07,0,0,1,.182-1.2,3.057,3.057,0,0,1,.546-1.038,2.872,2.872,0,0,1,.9-.731,2.606,2.606,0,0,1,1.237-.282,2.558,2.558,0,0,1,1.213.282,2.937,2.937,0,0,1,.91.743,3.456,3.456,0,0,1,.582,1.051,3.619,3.619,0,0,1,0,2.409Z" transform="translate(-265.731 -220.655)" fill="#fff"/>
  </g>
  <g id="グループ_17" data-name="グループ 17" transform="translate(131.539 15.521)">
    <g id="グループ_10" data-name="グループ 10" transform="translate(2.144 1.523)">
      <path id="パス_174" data-name="パス 174" d="M411.857,247.4l-.125-.1-.4-.082-.257-.6.009-.59-.05-.031-.152.006-.044.016-.041.025.039,0,.031.329-.034.254-.267.527-.341.086-.183.143.006.293.033.076.164.06h.029l.629-.036.72.048.03,0,.19-.133Z" transform="translate(-410.042 -245.995)" fill="#fff"/>
    </g>
    <g id="グループ_11" data-name="グループ 11" transform="translate(0 0.019)">
      <path id="パス_175" data-name="パス 175" d="M406.926,246.994l-.015-.214,0-.262,0-.417.037-.415.287-.4.169-.1.285-.249.023-.428-.006-.352.019-.182-.006-.2-.007-.121.056-.027-.549-.009.038.038.086.411-.039.437.011.179-.076.258-.042.01-.149.059v0l-.094-.1,0-.46.032-.373.035-.372.111-.069-.148-.011-.331.312.021.472-.023.471,0,.471.014.47,0,.473-.012.473.007.475-.014.475.285.317-.036-.514Z" transform="translate(-406.643 -243.611)" fill="#fff"/>
    </g>
    <g id="グループ_12" data-name="グループ 12" transform="translate(0.572)">
      <path id="パス_176" data-name="パス 176" d="M411.473,244.025l-.273.034-.435-.009-.152-.032v.012l-.075.023,0,.03.022.065-.036.439.043.134.234.1.123.008.04-.016.013-.058.013-.1.081-.121.125-.06.142.136v.465l-.011.465,0,.466-.017.464-.033.463.012.533-.124.293-.438.1-.065,0-.4.034-.4-.025-.651,0-.387-.3-.051-.684v-.185l0-.555.027-.558,0-.553.025-.423.117-.125.135.047.075.247.01.044.166,0,.14.01.082-.062-.016-.671-.128-.065-.472.027-.18.005-.022-.007-.205-.079v-.081l.224-.114.441-.025.441-.012.443-.007.449.01.449.011h.447l.064.025-.289-.2-.476-.009-.475,0-.478,0-.479.009-.48-.014-.48.031.038,0,.018.1-.008.649.011.148,0,.416-.384.44-.309.282-.118.427.023.448-.048.621.018.4.021.4,0,.074.366.013.012-.027-.032-.256,0-.466-.024-.463.024-.466,0-.467.2-.16.038-.015.2.26.03.188-.007.187-.026.193-.023.176.012.435.009.436.034.427.464.018h.464l.467-.007.467-.007.469-.011.469.018.316-.325.009-.466,0-.465-.007-.465-.011-.464,0-.467.017-.467-.014-.469.016-.469Z" transform="translate(-407.549 -243.582)" fill="#fff"/>
    </g>
    <g id="グループ_13" data-name="グループ 13" transform="translate(2.163 3.572)">
      <path id="パス_177" data-name="パス 177" d="M411.8,249.312l-.08-.038-.5-.026-.5,0-.457.018-.144.06-.046.1.032.14.157.116.069,0,.288.024.5.009.138,0,.225-.027.178-.02.041,0,.154-.02v-.167l-.006-.071Z" transform="translate(-410.071 -249.243)" fill="#fff"/>
    </g>
    <g id="グループ_14" data-name="グループ 14" transform="translate(3.54 1.534)">
      <path id="パス_178" data-name="パス 178" d="M412.688,246.929l.01-.385,0-.385-.19-.14-.207-.006v0l-.05.031v.658l.069.272.209.051h0Z" transform="translate(-412.255 -246.013)" fill="#fff"/>
    </g>
    <g id="グループ_15" data-name="グループ 15" transform="translate(2.15 1.509)">
      <path id="パス_179" data-name="パス 179" d="M410.358,245.974l-.007.043-.091,0-.188.135-.022.708.023.047.106.034h.03l.218-.071.053-.169,0-.046.006-.35v-.215l-.12-.083,0-.037Z" transform="translate(-410.05 -245.974)" fill="#fff"/>
    </g>
    <g id="グループ_16" data-name="グループ 16" transform="translate(2.909 0.44)">
      <path id="パス_180" data-name="パス 180" d="M411.35,245.085l.114,0,.065-.041.013-.728-.06-.033h-.169v0l-.059.022.014.371.013.371Z" transform="translate(-411.253 -244.279)" fill="#fff"/>
    </g>
  </g>
</svg>
