<svg id="コンポーネント_21_3" data-name="コンポーネント 21 – 3" xmlns="http://www.w3.org/2000/svg" width="179.048" height="20" viewBox="0 0 179.048 20">
  <g id="グループ_1204" data-name="グループ 1204" transform="translate(0 0)">
    <path id="パス_1" data-name="パス 1" d="M172.04,169.285a9.986,9.986,0,0,1-5.913-1.752,5.3,5.3,0,0,1-2.039-2.917l5.148-.515a3.022,3.022,0,0,0,3.138,2.1,3.329,3.329,0,0,0,2.176-.657,1.757,1.757,0,0,0,.7-1.415,1.659,1.659,0,0,0-.932-1.509,10.366,10.366,0,0,0-2.744-.714,25.716,25.716,0,0,1-4.313-1.063,4.249,4.249,0,0,1-1.873-1.529,4.045,4.045,0,0,1-.751-2.422,4.1,4.1,0,0,1,.81-2.568c.2-.263,2.065-2.571,6.4-2.571a9.14,9.14,0,0,1,6.158,2.1,6.5,6.5,0,0,1,1.163,1.86l-4.792.5a2.391,2.391,0,0,0-.8-1.072,3.357,3.357,0,0,0-1.99-.594,2.722,2.722,0,0,0-1.78.491,1.684,1.684,0,0,0-.647,1.327,1.484,1.484,0,0,0,.849,1.37,9.2,9.2,0,0,0,2.748.619,16.6,16.6,0,0,1,4.388.982,4.6,4.6,0,0,1,2.061,1.685,4.234,4.234,0,0,1,.7,2.374,4.977,4.977,0,0,1-.756,2.579,6.708,6.708,0,0,1-2.409,2.242,9.412,9.412,0,0,1-4.7,1.064" transform="translate(-164.088 -149.62)" fill="#fff"/>
    <path id="パス_2" data-name="パス 2" d="M191.449,159.716a6.963,6.963,0,0,1,2.486-1.528,8.507,8.507,0,0,1,2.9-.509,7.755,7.755,0,0,1,2.584.375,3.854,3.854,0,0,1,1.71,1.165,4.962,4.962,0,0,1,.958,1.989,11.763,11.763,0,0,1,.3,2.85v6.088H198.75v-1.285h-.073a2.991,2.991,0,0,1-1.394,1.164,4.956,4.956,0,0,1-2.025.413,6.2,6.2,0,0,1-1.5-.194,4.384,4.384,0,0,1-1.419-.631,3.409,3.409,0,0,1-1.055-1.164,3.592,3.592,0,0,1-.412-1.795,3.045,3.045,0,0,1,.715-2.11,4.7,4.7,0,0,1,1.844-1.237,9.755,9.755,0,0,1,2.51-.582,25.7,25.7,0,0,1,2.693-.146v-.194a1.482,1.482,0,0,0-.631-1.322,2.716,2.716,0,0,0-1.552-.425,3.86,3.86,0,0,0-1.638.364,5.2,5.2,0,0,0-1.346.873Zm7.3,5.166h-.51q-.655,0-1.322.061a5.488,5.488,0,0,0-1.189.231,2.2,2.2,0,0,0-.861.5,1.141,1.141,0,0,0-.339.861,1.039,1.039,0,0,0,.158.582,1.225,1.225,0,0,0,.4.389,1.69,1.69,0,0,0,.558.206,3.211,3.211,0,0,0,.606.061,2.457,2.457,0,0,0,1.855-.667,2.494,2.494,0,0,0,.643-1.807Z" transform="translate(-173.972 -150.751)" fill="#fff"/>
    <path id="パス_3" data-name="パス 3" d="M226.811,167.769h-4.924l-3.954-6.131h-.073v6.131h-4v-19.4h4v11.8h.073l3.857-5.182h4.827l-4.657,5.772Z" transform="translate(-182.458 -148.374)" fill="#fff"/>
    <path id="パス_4" data-name="パス 4" d="M312.012,164.058a6.534,6.534,0,0,1-.533,2.68,6.018,6.018,0,0,1-1.455,2.038,6.672,6.672,0,0,1-2.135,1.3,7.509,7.509,0,0,1-5.178,0,6.489,6.489,0,0,1-2.134-1.3,6.074,6.074,0,0,1-1.444-2.038,6.524,6.524,0,0,1-.534-2.68,6.444,6.444,0,0,1,.534-2.668,5.98,5.98,0,0,1,1.444-2.013,6.282,6.282,0,0,1,2.134-1.262,7.907,7.907,0,0,1,5.178,0,6.453,6.453,0,0,1,2.135,1.262,5.925,5.925,0,0,1,1.455,2.013,6.454,6.454,0,0,1,.533,2.668m-3.832,0a3.449,3.449,0,0,0-.194-1.14,3.006,3.006,0,0,0-.558-.982,2.846,2.846,0,0,0-.9-.691,2.787,2.787,0,0,0-3.36.691,2.953,2.953,0,0,0-.533.982,3.655,3.655,0,0,0,0,2.28,3.108,3.108,0,0,0,.545,1.006,2.685,2.685,0,0,0,.9.716,3,3,0,0,0,2.474,0,2.682,2.682,0,0,0,.9-.716A3.1,3.1,0,0,0,308,165.2a3.639,3.639,0,0,0,.182-1.14" transform="translate(-213.736 -150.751)" fill="#fff"/>
    <path id="パス_5" data-name="パス 5" d="M330.69,161.37a3.109,3.109,0,0,0-.522-.1q-.255-.024-.5-.024a2.84,2.84,0,0,0-1.347.29,2.75,2.75,0,0,0-.873.7,2.667,2.667,0,0,0-.473.9,2.989,2.989,0,0,0-.146.846v6.194h-3.978V158.109h3.833v1.747h.048a3.937,3.937,0,0,1,1.31-1.514,3.37,3.37,0,0,1,1.965-.586,4.65,4.65,0,0,1,.474.024,1.849,1.849,0,0,1,.375.073Z" transform="translate(-222.689 -150.779)" fill="#fff"/>
    <rect id="長方形_1" data-name="長方形 1" width="4.051" height="19.395" transform="translate(109.821 0)" fill="#fff"/>
    <path id="パス_6" data-name="パス 6" d="M356.944,167.751v-1.667H356.9a3.838,3.838,0,0,1-1.662,1.5,5.173,5.173,0,0,1-2.292.525,5.12,5.12,0,0,1-2.426-.563,5.626,5.626,0,0,1-1.807-1.5,6.708,6.708,0,0,1-1.128-2.166,8.473,8.473,0,0,1-.388-2.563,8.135,8.135,0,0,1,.4-2.55,6.77,6.77,0,0,1,1.141-2.14,5.45,5.45,0,0,1,1.794-1.461,5.124,5.124,0,0,1,2.365-.538,4.4,4.4,0,0,1,2.256.538,5.067,5.067,0,0,1,1.431,1.179h.049v-7.971h3.978v19.377Zm-.146-6.408a3.618,3.618,0,0,0-.206-1.2,3.452,3.452,0,0,0-.582-1.051,2.939,2.939,0,0,0-.91-.743,2.558,2.558,0,0,0-1.213-.282,2.607,2.607,0,0,0-1.237.282,2.882,2.882,0,0,0-.9.731,3.064,3.064,0,0,0-.546,1.038,4.068,4.068,0,0,0-.182,1.2,4.192,4.192,0,0,0,.182,1.217,3.183,3.183,0,0,0,.546,1.064,2.793,2.793,0,0,0,.9.743,2.606,2.606,0,0,0,1.237.282,2.557,2.557,0,0,0,1.213-.282,2.93,2.93,0,0,0,.91-.743,3.444,3.444,0,0,0,.582-1.051,3.617,3.617,0,0,0,.206-1.2" transform="translate(-231.672 -148.374)" fill="#fff"/>
    <path id="パス_7" data-name="パス 7" d="M264.687,169.006a3.9,3.9,0,0,1-3.77-2.944,23.885,23.885,0,0,1-.729-3.388c-.039-.237-.078-.472-.118-.706q-.117-.685-.229-1.377l-.032-.194-.144.134a4.321,4.321,0,0,1-.341.286,6.446,6.446,0,0,1-3.942,1.223,16.146,16.146,0,0,1-5.289-1.627l-.193-.1,1.182-2.767.368.279a9.074,9.074,0,0,0,3.987,1.151,4.561,4.561,0,0,0,2.12-.484,2.836,2.836,0,0,0,.869-2.09,1.5,1.5,0,0,1,1.509-1.342h1.543a1.218,1.218,0,0,1,1.208,1.03l.124.779c.213,1.348.432,2.735.674,4.108.228,1.293.474,2.444.755,3.518a1.354,1.354,0,0,0,1.345,1.123c.038,0,.076,0,.116,0a1.446,1.446,0,0,0,1.481-1.359c.02-1.24-.494-4.846-.77-6.783l-.009-.063c-.061-.423-.107-.751-.131-.935l0-.029a1.223,1.223,0,0,1,1.211-1.389h1.4a1.223,1.223,0,0,1,1.215,1.08l.1.849c.166,1.418.337,2.884.524,4.327l.02.156a25.116,25.116,0,0,0,.534,3.111,1.463,1.463,0,0,0,.884.958,1.006,1.006,0,0,0,.162.012,1.707,1.707,0,0,0,1.18-.5,7.476,7.476,0,0,0,1.566-4.935v-.03l-.016-.026a9.09,9.09,0,0,0-.791-.929l-.023-.026a4.747,4.747,0,0,1-1.418-3.974,2.9,2.9,0,0,1,3.032-2.18,3.446,3.446,0,0,1,.408.025,2.936,2.936,0,0,1,2.382,2.069,5.99,5.99,0,0,1,.068,2.488.93.93,0,0,0,.083.731,1.636,1.636,0,0,0,1.11.565,2.87,2.87,0,0,0,.552.046,7.922,7.922,0,0,0,1.926-.26l1.1-.3-2.03,3.31-.117.024a5.416,5.416,0,0,1-1.114.117,4.273,4.273,0,0,1-1.734-.339l-.11-.05-.034.116c-.168.568-.478,1.626-.545,1.866a8.946,8.946,0,0,1-2.315,4.231,4.835,4.835,0,0,1-6.894-.073l-.056-.056-.081.027c-.272.151-.529.312-.757.453a6.628,6.628,0,0,1-1.962.949,4.891,4.891,0,0,1-1.047.119m11.076-13.412a.435.435,0,0,0-.208.059c-.1.053-.117.213-.059.428a1.379,1.379,0,0,0,.395.621,3.382,3.382,0,0,0,.327.261l.188.137.011-.232c.027-.58-.042-.752-.1-.83-.141-.206-.332-.443-.559-.443" transform="translate(-195.762 -149.006)" fill="#fff"/>
    <rect id="長方形_2" data-name="長方形 2" width="1.557" height="1.152" transform="translate(52.067 9.123)" fill="#fff"/>
    <path id="パス_8" data-name="パス 8" d="M247.525,164.251v.486a4.278,4.278,0,0,1-.024.461h-8.757a2.115,2.115,0,0,0,.3.922,2.615,2.615,0,0,0,.656.715,3.142,3.142,0,0,0,.9.473,3.174,3.174,0,0,0,1.031.17,3.354,3.354,0,0,0,1.6-.351,3.173,3.173,0,0,0,1.067-.91l2.765,1.746a5.589,5.589,0,0,1-2.243,1.9,7.427,7.427,0,0,1-3.238.667,7.731,7.731,0,0,1-2.571-.424,6.231,6.231,0,0,1-2.122-1.237,5.724,5.724,0,0,1-1.432-2,6.7,6.7,0,0,1-.521-2.717,6.8,6.8,0,0,1,.509-2.681,6.058,6.058,0,0,1,1.383-2.037,6.162,6.162,0,0,1,2.062-1.3,7.047,7.047,0,0,1,2.571-.461,6.523,6.523,0,0,1,2.45.449,5.35,5.35,0,0,1,1.917,1.3,6,6,0,0,1,1.249,2.062,7.938,7.938,0,0,1,.449,2.765m-3.663-1.528a2.386,2.386,0,0,0-.594-1.625,2.245,2.245,0,0,0-1.783-.679,3.017,3.017,0,0,0-1.067.182,2.784,2.784,0,0,0-.849.5,2.479,2.479,0,0,0-.582.74,2.169,2.169,0,0,0-.242.885Z" transform="translate(-190.238 -150.751)" fill="#fff"/>
    <g id="グループ_1" data-name="グループ 1" transform="translate(137.614 2.114)">
      <path id="パス_9" data-name="パス 9" d="M391.823,169.252l-4.536-11.462h-.064l-1.466,11.462h-3.545l2.373-17.528h4.164l4.517,11.438h.064l1.463-11.438h3.545l-2.372,17.528Z" transform="translate(-382.212 -151.724)" fill="#fff"/>
    </g>
    <g id="グループ_2" data-name="グループ 2" transform="translate(153.632 2.114)">
      <path id="パス_10" data-name="パス 10" d="M413.093,155.339l-.49,3.614h5.852l-.473,3.491h-5.852l-.922,6.808H407.6l2.373-17.528h9.952l-.49,3.615Z" transform="translate(-407.6 -151.724)" fill="#fff"/>
    </g>
    <g id="グループ_3" data-name="グループ 3" transform="translate(166.364 2.114)">
      <path id="パス_11" data-name="パス 11" d="M435.7,155.339l-1.883,13.914h-3.652l1.883-13.914h-4.271l.49-3.615h12.195l-.49,3.615Z" transform="translate(-427.781 -151.724)" fill="#fff"/>
    </g>
  </g>
</svg>
