<svg xmlns="http://www.w3.org/2000/svg" width="22.995" height="21.911" viewBox="0 0 22.995 21.911">
  <g id="グループ_1402" data-name="グループ 1402" transform="translate(-853.279 -498.345)">
    <g id="グループ_4" data-name="グループ 4" transform="translate(853.279 498.345)">
      <g id="グループ_2" data-name="グループ 2" transform="translate(0 0)">
        <path id="パス_1" data-name="パス 1" d="M876.274,507.676c0-5.145-5.158-9.331-11.5-9.331s-11.5,4.186-11.5,9.331c0,4.612,4.09,8.475,9.616,9.205.374.081.884.247,1.013.567a2.362,2.362,0,0,1,.037,1.039s-.135.811-.164.984c-.05.291-.231,1.137,1,.62a37.127,37.127,0,0,0,9.034-6.675h0A8.3,8.3,0,0,0,876.274,507.676Z" transform="translate(-853.279 -498.345)" fill="#fff"/>
      </g>
      <g id="グループ_3" data-name="グループ 3" transform="translate(3.772 6.844)">
        <path id="パス_2" data-name="パス 2" d="M1002.6,567.312h-3.23a.219.219,0,0,1-.219-.219v0h0V562.08h0v0a.219.219,0,0,1,.219-.219h3.23a.22.22,0,0,1,.22.219v.815a.22.22,0,0,1-.22.22h-2.2v.847h2.2a.22.22,0,0,1,.22.22v.815a.22.22,0,0,1-.22.219h-2.2v.847h2.2a.22.22,0,0,1,.22.22v.815A.219.219,0,0,1,1002.6,567.312Z" transform="translate(-987.203 -561.855)"/>
        <path id="パス_3" data-name="パス 3" d="M891.728,567.312a.219.219,0,0,0,.22-.219v-.815a.22.22,0,0,0-.22-.22h-2.2v-3.983a.22.22,0,0,0-.219-.219H888.5a.219.219,0,0,0-.219.219v5.014h0v0a.219.219,0,0,0,.219.219h3.23Z" transform="translate(-888.278 -561.855)"/>
        <rect id="長方形_4" data-name="長方形 4" width="1.254" height="5.457" rx="0.627" transform="translate(4.359)"/>
        <path id="パス_4" data-name="パス 4" d="M952.193,561.855h-.815a.219.219,0,0,0-.219.219v2.98l-2.3-3.1a.2.2,0,0,0-.018-.023v0l-.013-.014,0,0-.012-.01-.006,0-.012-.008-.007,0-.012-.007-.007,0-.013-.006-.007,0-.013,0-.008,0-.013,0h-.851a.22.22,0,0,0-.22.219v5.018a.219.219,0,0,0,.22.219h.815a.219.219,0,0,0,.22-.219v-2.979l2.3,3.1a.224.224,0,0,0,.057.055l0,0,.014.008.006,0,.011.005.011,0,.007,0,.015,0h0a.224.224,0,0,0,.057.008h.811a.219.219,0,0,0,.22-.219v-5.018A.22.22,0,0,0,952.193,561.855Z" transform="translate(-941.248 -561.855)"/>
      </g>
    </g>
  </g>
</svg>
