<svg xmlns="http://www.w3.org/2000/svg" width="17" height="16.999" viewBox="0 0 17 16.999">
  <g id="グループ_843" data-name="グループ 843" transform="translate(-311 -2003)">
    <g id="グループ_842" data-name="グループ 842">
      <g id="グループ_841" data-name="グループ 841">
        <g id="グループ_840" data-name="グループ 840">
          <path id="パス_1" data-name="パス 1" d="M235.157,231.37H222.573V218.786h5.609v-1.708h-6.463a.853.853,0,0,0-.854.854v14.292a.854.854,0,0,0,.854.854h14.292a.854.854,0,0,0,.854-.854v-6.463h-1.708Z" transform="translate(90.135 1786.922)" fill="#fff"/>
          <path id="パス_2" data-name="パス 2" d="M237.652,217.078h-5.04v1.643h3.057l-8.346,8.345,1.162,1.162,8.346-8.346v3.057h1.643V217.9A.821.821,0,0,0,237.652,217.078Z" transform="translate(89.526 1785.922)" fill="#fff"/>
        </g>
      </g>
    </g>
  </g>
</svg>
