<svg xmlns="http://www.w3.org/2000/svg" width="17" height="16.999" viewBox="0 0 17 16.999">
  <g id="グループ_936" data-name="グループ 936" transform="translate(-1048 -91)">
    <path id="パス_1" data-name="パス 1" d="M235.157,231.37H222.573V218.786h5.609v-1.708h-6.463a.853.853,0,0,0-.854.854v14.292a.854.854,0,0,0,.854.854h14.292a.854.854,0,0,0,.854-.854v-6.463h-1.708Z" transform="translate(827.135 -125.078)"/>
    <path id="パス_2" data-name="パス 2" d="M237.652,217.078h-5.04v1.643h3.057l-8.346,8.345,1.162,1.162,8.346-8.346v3.057h1.643V217.9A.821.821,0,0,0,237.652,217.078Z" transform="translate(826.526 -126.078)"/>
  </g>
</svg>
