<?xml version="1.0" encoding="utf-8"?>
<!-- Generator: Adobe Illustrator 27.0.0, SVG Export Plug-In . SVG Version: 6.00 Build 0)  -->
<svg version="1.1" id="レイヤー_1" xmlns="http://www.w3.org/2000/svg" xmlns:xlink="http://www.w3.org/1999/xlink" x="0px"
	 y="0px" viewBox="0 0 500 500" style="enable-background:new 0 0 500 500;" xml:space="preserve">
<g id="グループ_3" transform="translate(-300.532 -153.785)">
	<path id="パス_12" d="M550.5209351,159.1405945c-135.13797,0-244.6889343,109.5509644-244.6889343,244.6889038
		s109.5509644,244.6887512,244.6889343,244.6887512s244.6889038-109.5507812,244.6889038-244.6887512
		C795.0629883,268.7524414,685.5978394,159.2875824,550.5209351,159.1405945z M550.5209351,647.0405273
		c-134.3278809,0.0001831-243.2224121-108.894165-243.2224121-243.2220459S416.1927185,160.596283,550.5205688,160.5960999
		C684.8484497,160.595932,793.742981,269.4902954,793.742981,403.8181458v0.0001831
		c-0.1777344,134.2451477-108.9769287,243.0196228-243.2220459,243.1665955V647.0405273z"/>
	<path id="パス_13" d="M550.5320435,153.7850037c-138.0713806,0-250.0000305,111.9288025-250.0000305,250
		s111.9286499,250.0000305,250.0000305,250.0000305s250-111.928833,250-250.0000305l0,0
		C800.3790894,265.7772217,688.5396118,153.9380951,550.5320435,153.7850037z M550.5320435,652.2960815
		C413.276825,652.2838745,302.0195618,541.0067749,302.0317688,403.75177s111.2894897-248.5122681,248.544342-248.500061
		c137.2463379,0.0120392,248.5002441,111.2757263,248.5002441,248.5220947
		C798.9172974,540.9714966,687.7295532,652.1491089,550.5320435,652.2960815z"/>
	<path id="パス_14" d="M510.5429382,184.6959991c4.2341003,0.0089874,7.6741638-3.4161072,7.6829529-7.650238
		c0.0091553-4.2341461-3.4159546-7.673996-7.6500854-7.6829834c-4.2341309-0.0091553-7.6741333,3.4159393-7.6829529,7.6500854
		c-0.0010376,0.4525146,0.0379639,0.9041748,0.1166382,1.3497314
		C503.6469727,182.0245209,506.8258972,184.6970215,510.5429382,184.6959991z M505.4763184,173.4848633
		c1.9612732-2.8069458,5.8265076-3.492569,8.6334229-1.5314789c2.8069458,1.9610901,3.4925537,5.8263245,1.531311,8.633255
		c-1.9609375,2.8069458-5.8261414,3.4927368-8.6330872,1.5314789c-1.3482056-0.941803-2.2667847-2.3805389-2.5539856-3.9998474
		c-0.2953186-1.6174316,0.0688477-3.2858887,1.0111694-4.6332397L505.4763184,173.4848633z"/>
	<path id="パス_15" d="M471.7875366,193.4627533c3.3321838-0.0050812,6.0292664-2.7104645,6.0241699-6.0426483
		c-0.0054016-3.3321838-2.7106323-6.0290833-6.0428162-6.0240021c-3.3321838,0.0050964-6.0292358,2.7104797-6.0238342,6.0426483
		c0.0010376,0.7017365,0.1244507,1.398056,0.3648682,2.0574036
		C466.9739075,191.8853302,469.2467957,193.4732666,471.7875366,193.4627533z M467.6432495,185.4961395
		c0.5079651-1.1020203,1.4363708-1.954483,2.5777283-2.3666382c0.5021973-0.1829376,1.0321655-0.2768555,1.5665588-0.27771
		c2.5214539-0.0527191,4.6085205,1.9485474,4.6610718,4.4701538c0.041687,1.9899139-1.2102051,3.7775574-3.0944824,4.4187775
		c-2.3715515,0.857193-4.989624-0.3648529-5.8556519-2.7333679c-0.4259033-1.1421967-0.3736572-2.4078369,0.1444397-3.5112152
		H467.6432495z"/>
	<path id="パス_16" d="M433.4319458,211.7850494c0.6486816,0.1744537,1.3170166,0.2639771,1.988739,0.2666931
		c4.2402344,0.0096588,7.6856689-3.4201813,7.6951904-7.6604309c0.009491-4.2402344-3.4203491-7.6855011-7.660614-7.6951752
		c-4.2402344-0.009491-7.6853333,3.4201813-7.6948242,7.6604309
		C427.7522888,207.8308258,430.0783997,210.8773193,433.4319458,211.7850494z M429.4321289,202.78508
		c0.8826294-3.3084412,4.2802429-5.2749634,7.5886841-4.392334c3.3084412,0.8826447,5.2748108,4.2802582,4.3921814,7.5887146
		c-0.8826599,3.3084412-4.2799377,5.2749634-7.5883789,4.3923187c-1.5903015-0.4243622-2.946991-1.4634857-3.7702637-2.8886566
		c-0.83078-1.4234772-1.0552368-3.1209259-0.6222229-4.7112427V202.78508z"/>
	<path id="パス_17" d="M401.8763123,235.0293274h0.6778259c4.2280579-0.008316,7.6487122-3.4425507,7.6405945-7.6705933
		c-0.0081482-4.2280426-3.4423828-7.6487274-7.6704407-7.6404114c-1.7937317,0.0033875-3.5291748,0.6366272-4.9034729,1.7888336
		c-3.2433472,2.7125092-3.673645,7.5405579-0.9613037,10.7838898c1.3078308,1.563858,3.1856689,2.5414429,5.2167969,2.7160645
		V235.0293274z M398.5431213,222.6515656c1.1081238-0.9396057,2.5136108-1.4555206,3.9666138-1.4555206h0.5554199
		c3.4111633,0.2995758,5.9332886,3.3076019,5.6338806,6.7186127c-0.2997742,3.411026-3.3077698,5.9334717-6.7186279,5.6338806
		c-3.4111938-0.2995758-5.9336243-3.3075867-5.6338806-6.7186127c0.144104-1.639801,0.9341736-3.1549988,2.1962585-4.2115936
		L398.5431213,222.6515656z"/>
	<path id="パス_18" d="M374.1653137,261.8182983c3.3321838,0,6.0333252-2.7013245,6.0333252-6.0335083
		c-0.0003357-3.3320007-2.7014771-6.0333252-6.0336609-6.0331573c-3.3321838,0-6.0333252,2.7013245-6.0329895,6.0335083
		c0,1.7835846,0.7890625,3.4757843,2.1555481,4.6220551C371.3736267,261.3194885,372.7469177,261.8193054,374.1653137,261.8182983z
		 M370.6652832,252.8515472c1.6235352-1.9299011,4.5043945-2.1782837,6.4344788-0.5545654
		c1.929718,1.623703,2.1782532,4.5043793,0.5543823,6.4342804c-1.6194458,1.9253235-4.4915161,2.1777649-6.4222412,0.5647583
		c-1.9480591-1.6018372-2.2291565-4.4794769-0.6273193-6.4276886c0.0200195-0.0242462,0.0403442-0.0483246,0.0606995-0.0722198
		V252.8515472z"/>
	<path id="パス_19" d="M347.309906,295.2961731c1.1569519,0.6745911,2.4715881,1.0311279,3.8109436,1.0333557
		c0.6754761-0.001709,1.3475342-0.0914001,1.999939-0.2666931c4.0906982-1.0930481,6.5209351-5.2951355,5.4277039-9.3858643
		c-1.092865-4.0906982-5.2951355-6.520752-9.3858337-5.427887c-4.0907288,1.0930481-6.5205994,5.2951355-5.4277344,9.3858643
		c0.5255737,1.9666748,1.8114014,3.6436157,3.574646,4.6612244H347.309906z M345.7765503,285.5627441
		c1.722229-2.9595337,5.5175781-3.9625244,8.4771118-2.2403259s3.9625244,5.5175781,2.2403259,8.4771118
		s-5.5175781,3.9625244-8.4771118,2.2403259c-0.0061035-0.0035706-0.0118713-0.006958-0.0179749-0.0105286
		c-2.9266357-1.7269287-3.9177551-5.4880676-2.2223511-8.4331665V285.5627441z"/>
	<path id="パス_20" d="M331.5653381,332.2183533c3.9740906,1.4433289,8.3659058-0.6083069,9.8090515-4.58255
		c1.4431152-3.9740601-0.6083374-8.3657227-4.5823975-9.8088684c-3.9689941-1.4414368-8.3557129,0.6029053-9.8042908,4.5691833
		C325.5418701,326.3723755,327.5906067,330.76828,331.5653381,332.2183533z M328.3654175,322.8960876
		c1.1712036-3.2177429,4.7288513-4.8768921,7.9464417-3.7058411c3.2178955,1.1710205,4.8770447,4.7288513,3.7058411,7.9464417
		c-1.1708679,3.2177124-4.7288818,4.8768616-7.9464417,3.7058411c-0.0020447-0.0006714-0.0037231-0.0013733-0.0057678-0.0020447
		c-3.2084045-1.1734009-4.8631287-4.7212219-3.7000732-7.9333801V322.8960876z"/>
	<path id="パス_21" d="M322.7431946,369.7405701c3.2819824,0.5716858,6.4076538-1.619812,6.9888611-4.8999329
		c0.5754089-3.2820129-1.6188049-6.4092102-4.9007874-6.9846191c-3.2820129-0.575592-6.4090271,1.6186218-6.9844666,4.9006042
		C317.2713928,366.0370789,319.4632263,369.1631165,322.7431946,369.7405701z M319.2875671,363.0072021
		c0.4425049-2.4829407,2.8140564-4.1369934,5.2971802-3.6944885c2.4827881,0.4425049,4.1371765,2.8140564,3.6943359,5.2969971
		c-0.4411621,2.4765015-2.8022156,4.1296997-5.2802429,3.6975403
		C320.5147095,367.8616943,318.8569336,365.493866,319.2875671,363.0072021z"/>
	<path id="パス_22" d="M331.3431396,442.4295044c-0.733429-4.166687-4.7054749-6.9500427-8.8721313-6.2166138
		c-4.1666565,0.7332764-6.9501953,4.7054749-6.2167664,8.8721313c0.644928,3.6529541,3.8126526,6.3200378,7.5222473,6.3334351
		c0.4509888-0.001709,0.9006042-0.042572,1.3444519-0.1222534
		C329.2852478,450.5622559,332.0691223,446.5953064,331.3431396,442.4295044z M324.8764648,449.862915
		c-3.3664246,0.5916748-6.5751648-1.6576233-7.1668701-5.0240479s1.6577759-6.5751953,5.0242004-7.1669006
		c3.36203-0.5908508,6.5677185,1.6520386,7.164856,5.0132141c0.6005249,3.352356-1.6299744,6.5568542-4.9825134,7.1575317
		c-0.0169373,0.0030518-0.033905,0.0061035-0.0508423,0.0090027L324.8764648,449.862915z"/>
	<path id="パス_23" d="M336.731781,477.0404968c-3.0246277-1.4129639-6.6216431-0.1064758-8.0346069,2.9178162
		c-1.4129639,3.0246277-0.1068115,6.6216431,2.9178162,8.0346069c3.024292,1.4132996,6.6216431,0.1068115,8.0346069-2.9178162
		c0.678833-1.4529724,0.7524414-3.1161804,0.2044678-4.6234131
		C339.309845,478.9437866,338.1857605,477.7156067,336.731781,477.0404968z M338.3207397,484.4403381
		c-1.0765991,2.2806702-3.7980957,3.256897-6.0791016,2.1802979c-2.2807007-1.0765686-3.2569275-3.7980652-2.1803284-6.0787659
		c0.5106506-1.0823364,1.4258423-1.9205627,2.5482178-2.3349304c0.5021973-0.1824036,1.0321655-0.2763367,1.5665588-0.27771
		c2.5282288,0.0118713,4.5681458,2.0708008,4.5566406,4.598999c-0.0030518,0.6564636-0.147522,1.3048096-0.4231873,1.9009094
		L338.3207397,484.4403381z"/>
	<path id="パス_24" d="M353.1207886,511.4849243c-1.9616089-0.5330505-4.0551147-0.2566833-5.8112183,0.7666626
		c-3.6672058,2.1165771-4.92453,6.8051147-2.8079834,10.47229c2.1165771,3.6675415,6.8050842,4.9244995,10.47229,2.8079834
		c3.6675415-2.116272,4.92453-6.8051147,2.8079529-10.47229
		C356.7642517,513.2963257,355.0874634,512.010498,353.1207886,511.4849243z M357.1206055,520.4849243
		c-0.877533,3.3033447-4.2670288,5.2700195-7.5703735,4.3924561c-3.3033752-0.8775024-5.27005-4.2670288-4.3925171-7.5703735
		c0.7198792-2.7092896,3.1707764-4.5966187,5.973999-4.6000366c0.5438843,0.0014038,1.085083,0.0722656,1.6109924,0.2112427
		c3.3026733,0.8890991,5.2619019,4.284668,4.3778992,7.5890503V520.4849243z"/>
	<path id="パス_25" d="M374.8208618,544.1293945c-4.2158203-0.3682251-7.9318542,2.7510376-8.3001099,6.9664917
		c-0.3678894,4.2158203,2.7510071,7.9318848,6.9668274,8.3001099l0,0h0.6778259
		c4.23349-0.0847778,7.5961914-3.5854492,7.5114136-7.8189087c-0.0773315-3.8615112-3.0151367-7.0625-6.855957-7.4700317
		V544.1293945z M378.1540527,556.5073242c-2.6200867,2.2044067-6.5314331,1.8673706-8.7358093-0.7527466
		s-1.8673401-6.5314331,0.7527771-8.7358398c1.1182861-0.9406128,2.532959-1.4563599,3.9940491-1.4556885h0.5554199
		c3.4108582,0.3007812,5.9322815,3.3098145,5.6311951,6.7206421c-0.1441345,1.6347656-0.9304504,3.1456909-2.1867676,4.2015991
		L378.1540527,556.5073242z"/>
	<path id="パス_26" d="M397.9318848,576.25177c-2.1416626,2.5526733-1.8083496,6.3582153,0.7446289,8.4998169
		c2.5526123,2.1416626,6.3581543,1.8083496,8.4998169-0.7446289c2.1413269-2.5526123,1.8083191-6.3577881-0.7442932-8.4994507
		c-2.5180359-2.1447144-6.297821-1.8422241-8.4425049,0.6757812
		C397.9701843,576.2059937,397.9508667,576.2287598,397.9318848,576.25177z M406.0539551,583.0741577
		c-1.6235352,1.9300537-4.5043945,2.1782837-6.4344482,0.5547485c-1.9300842-1.6235352-2.1782837-4.5043945-0.5547485-6.4344482
		c1.619812-1.925354,4.4918518-2.1779785,6.4225769-0.5645752c1.9460144,1.6140137,2.2149048,4.5,0.6008606,6.4459839
		c-0.0149231,0.0179443-0.0298157,0.0359497-0.0450745,0.0535889L406.0539551,583.0741577z"/>
	<path id="パス_27" d="M439.2431946,596.5183716c-3.6621094-2.1135254-8.3438721-0.8579102-10.4570312,2.803833
		c-2.1135254,3.6621094-0.8582153,8.3438721,2.803894,10.4573975c3.6617737,2.1131592,8.3438416,0.8578491,10.4570007-2.8042603
		c1.015564-1.7594604,1.2898865-3.850647,0.7629395-5.812561
		C442.2857971,599.2018433,441.0023499,597.5308228,439.2431946,596.5183716z M440.7765198,606.25177
		c-1.7218628,2.9598389-5.5169067,3.9631958-8.4767761,2.241333c-1.4112549-0.8209229-2.4417419-2.1654053-2.8676147-3.7414551
		c-0.8840027-3.3043823,1.0752258-6.6999512,4.3778992-7.5890503c0.5255737-0.1397095,1.0671082-0.2105713,1.6109924-0.2112427
		c3.4240723,0.0078125,6.1937256,2.7896729,6.1862488,6.2137451c-0.0023804,1.0836792-0.2888794,2.1477051-0.8307495,3.0863037
		V606.25177z"/>
	<path id="パス_28" d="M474.4096985,612.9181519c-3.977478-1.4515991-8.3787842,0.5964355-9.8304138,4.5739136
		c-1.4512634,3.9777832,0.5964661,8.3787842,4.5739136,9.8303833c3.9778137,1.4512939,8.3787842-0.5964355,9.8303833-4.5739136
		c0.6971741-1.9107056,0.6066284-4.0198364-0.2515869-5.8637695
		C477.8781738,615.0387573,476.322113,613.6109009,474.4096985,612.9181519z M477.6096191,622.2402344
		c-1.1925659,3.2097778-4.7614136,4.8448486-7.9711914,3.6522827s-4.8448181-4.7614136-3.6522827-7.9711914
		c0.5672913-1.5272217,1.7134094-2.7699585,3.1901245-3.4589844c3.091095-1.4587402,6.7796326-0.1356201,8.2383728,2.9554443
		C478.1297913,618.9324951,478.1999817,620.6726685,477.6096191,622.2402344z"/>
	<path id="パス_29" d="M511.6098633,624.5515137c-3.28302-0.579834-6.4144592,1.6113281-6.9946289,4.8943481
		c-0.579834,3.2833862,1.6116638,6.4147949,4.8946838,6.9946289c0.3668823,0.0627441,0.7388611,0.0925903,1.1111755,0.0888672
		c3.3321533,0.0010376,6.0339966-2.6997681,6.0350342-6.0316162c0.0006714-2.9348145-2.1104736-5.4443359-5.0018616-5.946228
		H511.6098633z M515.0654297,631.284729c-0.4373779,2.4902344-2.8106689,4.1541138-5.3008728,3.7167358
		c-2.4898987-0.437439-4.1541138-2.8106689-3.7167053-5.3009033c0.4377747-2.4902344,2.8110046-4.1541748,5.3009033-3.7167358
		c0.001709,0.0003662,0.0037231,0.0006714,0.0054321,0.0010376c2.4746094,0.4180908,4.1422729,2.7628174,3.7241821,5.237793
		c-0.0040894,0.0244141-0.0084839,0.0488281-0.0129395,0.0732422V631.284729z"/>
	<path id="パス_30" d="M589.187439,622.9514771c-4.166687,0.7527466-6.9342651,4.7410889-6.1811523,8.9077759
		c0.6557617,3.6298828,3.803833,6.2781372,7.4923706,6.3032227c0.4509888-0.001709,0.9006348-0.0424194,1.3444824-0.1220703
		c4.166687-0.7334595,6.9498901-4.7055054,6.2167969-8.8724976
		C597.3264771,625.0012207,593.354126,622.2180176,589.187439,622.9514771z M591.5874634,636.5958862
		c-3.3752441,0.5950928-6.593811-1.6581421-7.1889038-5.0333862s1.6581421-6.593811,5.0333862-7.1889038l0,0
		c0.3671875-0.0613403,0.7388306-0.0908813,1.111145-0.0888062c3.4240723-0.0010376,6.2008667,2.7740479,6.2018433,6.1981201
		c0.0006714,2.9971313-2.1419678,5.5656738-5.0906372,6.1018066L591.5874634,636.5958862z"/>
	<path id="パス_31" d="M627.2097778,614.4514771c-3.123291,1.1607056-4.7145996,4.633606-3.553894,7.756897
		c1.1603394,3.1236572,4.6335449,4.7146606,7.756897,3.5542603c3.1012573-1.1525269,4.6959229-4.5870972,3.5749512-7.6998901
		c-1.1369629-3.1385498-4.6030884-4.7614136-7.7416382-3.6244507
		C627.2338867,614.442688,627.2219849,614.4470825,627.2097778,614.4514771z M633.4208374,622.0513916
		c-1.0674438,2.2850952-3.7849121,3.272522-6.0699463,2.2050781c-2.2854614-1.0671387-3.272522-3.7848511-2.2054443-6.0699463
		c1.0674438-2.2850952,3.7852173-3.272522,6.0703125-2.2050781c1.0982666,0.5126953,1.9476929,1.4414673,2.3607178,2.5811157
		c0.4150391,1.1372681,0.3590698,2.3932495-0.1556396,3.4891357V622.0513916z"/>
	<path id="パス_32" d="M661.8096313,596.529541c-3.6651611,2.1080933-4.9276123,6.7877808-2.819519,10.4529419
		c1.0159302,1.7666016,2.6947021,3.0551758,4.6637573,3.5803833c0.6524048,0.175293,1.3244629,0.2648315,1.999939,0.2665405
		c4.2280273-0.0125732,7.6453247-3.4505615,7.6324463-7.6785889c-0.0125122-4.2280273-3.4505005-7.6453247-7.6782227-7.6324463
		c-1.3336182,0.0040894-2.6431274,0.3563843-3.7987671,1.0220337L661.8096313,596.529541z M668.7428589,608.5293579
		c-2.9578247,1.7252808-6.7542114,0.725647-8.479126-2.2321777c-1.7252808-2.9578247-0.7259521-6.7538452,2.2318726-8.479126
		c0.9517822-0.5550537,2.0344849-0.8466797,3.1361694-0.8442993c3.4179688-0.0159302,6.2018433,2.7418213,6.2177734,6.15979
		C671.8600464,605.3599854,670.673645,607.4205933,668.7428589,608.5293579z"/>
	<path id="パス_33" d="M693.5985718,574.2739868c-3.2385864,2.7276001-3.6525879,7.5643311-0.9246826,10.8029175
		c1.3031006,1.5472412,3.1650391,2.5166626,5.1802368,2.6970825h0.6777954
		c1.7971802,0.0040283,3.5373535-0.6300659,4.9109497-1.7890625c3.2399902-2.7183838,3.6627808-7.548645,0.9447021-10.7889404
		c-2.7184448-3.2399902-7.5490112-3.6627808-10.7890015-0.9443359l0,0V574.2739868z M702.4873657,584.8849487
		c-2.6228638,2.1918335-6.5256958,1.8425903-8.7175293-0.7799072c-2.1918335-2.6228027-1.8429565-6.5256348,0.7799072-8.7174683
		c2.616333-2.1867676,6.508728-1.8453369,8.7042847,0.763916c2.1986084,2.6194458,1.8659668,6.5236816-0.7443237,8.7334595
		H702.4873657z"/>
	<path id="パス_34" d="M722.2764893,547.8851318c-2.1416626,2.5526123-1.8083496,6.3581543,0.7442627,8.4998169
		c1.0837402,0.9090576,2.4522705,1.4085693,3.8669434,1.4112549h0.5333862
		c3.3195801-0.2888794,5.7762451-3.2141724,5.4877319-6.5334473c-0.2889404-3.3196411-3.2141724-5.7766724-6.5338135-5.487793
		c-1.5950928,0.1387329-3.069397,0.9057007-4.0985107,2.1322021V547.8851318z M730.3985596,554.7074585
		c-1.6235352,1.9301147-4.5043945,2.1782837-6.4344482,0.5547485c-1.9301147-1.6235352-2.1782837-4.5043945-0.5547485-6.4344482
		c1.619812-1.925293,4.4918213-2.1779175,6.4226074-0.5645752c1.9313965,1.6028442,2.1975708,4.4677734,0.5947266,6.399231
		c-0.0095215,0.0111694-0.0186768,0.0223389-0.0281372,0.0335693V554.7074585z"/>
	<path id="パス_35" d="M753.7542725,512.2515869c-3.664856-2.120636-8.3550415-0.8687134-10.475708,2.7960815
		c-2.1206055,3.664856-0.8687134,8.3550415,2.7964478,10.475708c3.6647949,2.1206055,8.3546753,0.8687134,10.4753418-2.7960815
		c1.0189209-1.7608643,1.2963257-3.8547363,0.7706909-5.8200684
		C756.8029785,514.9405518,755.5181885,513.2637939,753.7542725,512.2515869z M755.2875977,521.9849854
		c-1.7110596,2.9660034-5.5023193,3.9835815-8.4683228,2.2728882c-2.9663086-1.7109985-3.9838867-5.5023193-2.2728882-8.4686279
		c0.8236694-1.4275513,2.1817017-2.4688721,3.774353-2.8930664c0.5255737-0.1397095,1.0671387-0.2105713,1.6110229-0.2112427
		c3.4240723,0.0078125,6.1937256,2.7896729,6.1862183,6.2137451c-0.0023804,1.0836792-0.2888794,2.1477661-0.8307495,3.0863037
		H755.2875977z"/>
	<path id="パス_36" d="M769.4987183,475.3184509c-3.9778442-1.4512634-8.3787842,0.5971375-9.8297119,4.5749207
		c-1.4512939,3.9778137,0.5971069,8.3787842,4.574585,9.8297119c3.9777832,1.4512939,8.3787231-0.5971069,9.8300171-4.5749207
		c0.0010376-0.0023499,0.001709-0.0050659,0.0027466-0.0074463
		C775.5221558,481.1642761,773.4734497,476.7683716,769.4987183,475.3184509z M772.6986084,484.640564
		c-1.1712036,3.2175598-4.7288208,4.876709-7.9464111,3.7058411c-3.2178955-1.1711731-4.8770752-4.7288513-3.7058716-7.9464417
		c1.1708984-3.2178955,4.7288818-4.8770447,7.9464722-3.7058411c0.0020142,0.0006714,0.0037231,0.0013733,0.0057373,0.0020447
		C772.208313,477.8744812,773.8623657,481.425354,772.6986084,484.640564z"/>
	<path id="パス_37" d="M778.3098145,437.8070984c-3.28302-0.579834-6.4144897,1.6115112-6.9946289,4.8945007
		c-0.579834,3.28302,1.6116333,6.4146423,4.8946533,6.9944763l0,0c0.3448486,0.0608521,0.694458,0.0905457,1.0443726,0.0888367
		c3.3322144,0.0071106,6.0391235-2.6884155,6.0462036-6.0204468c0.0061035-2.9389954-2.1060181-5.454834-5.0018311-5.9573669
		H778.3098145z M781.7653809,444.5404663c-0.4387817,2.485321-2.8092651,4.1442871-5.2944336,3.7055054
		s-4.1442871-2.8091431-3.7055054-5.2944641s2.8093262-4.1442871,5.2944336-3.7055054
		C780.5450439,439.6847839,782.2041626,442.0551453,781.7653809,444.5404663L781.7653809,444.5404663z"/>
	<path id="パス_38" d="M770.9984741,359.3960571c-2.4241333,3.4717102-1.574707,8.2510986,1.8971558,10.6750488
		c1.28479,0.8970337,2.8137207,1.3788757,4.3806152,1.3805542c0.4469604-0.0032043,0.8931885-0.0440674,1.333313-0.1222229
		c4.1615601-0.7471619,6.9295044-4.7265015,6.1821899-8.8879089c-0.7470093-4.1615906-4.7265015-6.9293518-8.8881226-6.1821899
		c-1.982605,0.3558655-3.744812,1.4789124-4.9051514,3.1256714V359.3960571z M776.1983032,357.684845
		c3.3721924-0.5937195,6.5874023,1.6586304,7.1811523,5.0310059c0.59375,3.3721924-1.6584473,6.5873718-5.0310059,7.1811218
		c-3.3721924,0.59375-6.5874023-1.6586304-7.1811523-5.0310059c-0.2854614-1.6211548,0.0854492-3.2892761,1.031189-4.6366272
		c0.937561-1.3456421,2.3735962-2.2615051,3.9889526-2.5443115L776.1983032,357.684845z"/>
	<path id="パス_39" d="M764.3206787,330.4960632c3.0246582,1.4129639,6.6216431,0.1066589,8.0346069-2.9178162
		s0.1068115-6.6217957-2.9177856-8.0347595c-3.024292-1.4129639-6.6216431-0.1066589-8.0346069,2.9178162
		c-0.678833,1.453125-0.7524414,3.116333-0.2044678,4.6235657
		C761.7436523,328.5921021,762.8673706,329.8197632,764.3206787,330.4960632z M762.7317505,323.0960693
		c1.0674438-2.2917175,3.7909546-3.2842102,6.0825195-2.2166138c2.2918701,1.067627,3.2843628,3.790802,2.2169189,6.0826721
		c-1.0678101,2.2917175-3.7909546,3.2842102-6.0828247,2.2165833c-1.1044312-0.5145569-1.958252-1.4480591-2.3722534-2.593811
		c-0.4136963-1.1374512-0.3573608-2.3927612,0.1560059-3.4888306H762.7317505z"/>
	<path id="パス_40" d="M747.9429932,296.0516357c0.6524048,0.1753235,1.3244629,0.2649841,1.999939,0.2666931
		c4.2402344,0.0033875,7.680603-3.431366,7.684021-7.6716003c0.0033569-4.2404175-3.4315796-7.680603-7.671814-7.6839905
		s-7.680603,3.431366-7.68396,7.6717834C742.2684326,292.1045227,744.5935669,295.144928,747.9429932,296.0516357z
		 M746.8318481,283.2849426c2.951355-1.7237244,6.7416382-0.7285156,8.46521,2.223053
		c1.723938,2.9515381,0.7286987,6.7416687-2.2230225,8.4653931c-2.9510498,1.7235718-6.7402954,0.7288513-8.4645386-2.2218323
		c-1.7337646-2.9244385-0.7683716-6.7005005,2.1558838-8.4340515c0.0186768-0.0110168,0.0369873-0.0218811,0.055603-0.0325623
		H746.8318481z"/>
	<path id="パス_41" d="M726.2207642,263.418396h0.6778564c4.2300415-0.1871948,7.5073242-3.7680969,7.3201294-7.9981537
		c-0.1871948-4.2299042-3.7678833-7.5073242-7.9979858-7.3201599c-4.2300415,0.1871796-7.5073242,3.7680817-7.3201294,7.9979706
		C719.0759277,260.06604,722.2528076,263.2427368,726.2207642,263.418396z M722.8875732,251.0406189
		c2.6234741-2.2006531,6.5341797-1.8578339,8.7348022,0.7654877c2.2003174,2.6234894,1.8578491,6.5341644-0.765625,8.7346344
		c-2.6235352,2.2006531-6.5341797,1.8578491-8.7348022-0.7654724c-0.0003662-0.0005188-0.0006714-0.0008545-0.0010376-0.0013733
		c-2.196228-2.6029663-1.8666382-6.4936218,0.7365112-8.6898651c0.0172729-0.0145874,0.0345459-0.0291595,0.0521851-0.0435791
		L722.8875732,251.0406189z"/>
	<path id="パス_42" d="M698.5651855,233.4515381h0.5333252c3.3226929-0.1473236,5.8970337-2.9602051,5.7495117-6.2830505
		c-0.1471558-3.3226929-2.9602051-5.8968506-6.2828369-5.7495117c-3.3226929,0.1471558-5.8970337,2.9602051-5.7495117,6.2828827
		C692.9536743,230.8183899,695.4486084,233.3133698,698.5651855,233.4515381z M695.0762939,224.4737854
		c0.7772217-0.9285889,1.8931274-1.5085907,3.0999146-1.6111603h0.4001465
		c2.5220947,0.0061035,4.5617065,2.0556946,4.555603,4.5778046c-0.0064697,2.52211-2.0559082,4.5617065-4.5780029,4.5554199
		c-2.5220947-0.0061035-4.5617065-2.0556946-4.555603-4.5778046c0.0027466-1.0687866,0.380127-2.102829,1.0667725-2.9220581
		L695.0762939,224.4737854z"/>
	<path id="パス_43" d="M661.8096313,211.0294037c3.6638184,2.1138611,8.3475342,0.8609467,10.4664917-2.7999878
		c2.1213379-3.6644745,0.8701172-8.3548584-2.7943726-10.4759979c-3.664856-2.1211395-8.3550415-0.8700867-10.4760132,2.7945557
		c-2.1213379,3.6644897-0.8701172,8.3547058,2.7943726,10.4760132
		C661.8031616,211.0256805,661.8065796,211.0275421,661.8096313,211.0294037z M660.2763062,201.2960052
		c1.7130127-2.9647827,5.5053711-3.9794922,8.4702759-2.266449c2.9646606,1.7132263,3.9794922,5.5053711,2.2661133,8.4701538
		c-1.7130737,2.9649506-5.5053711,3.9794922-8.4699707,2.266449c-1.4251709-0.8234711-2.4644775-2.1798096-2.8886719-3.7701111
		C659.2268066,204.4089661,659.4509277,202.7171021,660.2763062,201.2960052z"/>
	<path id="パス_44" d="M626.6542358,194.6182098c3.977417,1.4514465,8.3787231-0.596283,9.8303833-4.5738983
		c1.4512939-3.9776306-0.5964355-8.3787842-4.5739136-9.8303986c-3.9777832-1.4514465-8.3787842,0.5964508-9.8303833,4.5740814
		c-0.6971436,1.9105682-0.6066284,4.0198364,0.2515869,5.8636169
		C623.1898193,192.4945221,624.7445068,193.9213867,626.6542358,194.6182098z M623.4542847,185.2959442
		c0.8955078-2.4490356,3.225708-4.0778351,5.833252-4.0778351c3.4240723-0.0049133,6.2039185,2.7671051,6.2086182,6.1911774
		c0.005127,3.4242401-2.7669067,6.2040558-6.190979,6.2088013c-0.7300415,0.0010071-1.4543457-0.1268158-2.1399536-0.3777466
		c-3.2124634-1.1689911-4.8726196-4.7180176-3.7109375-7.9332123V185.2959442z"/>
	<path id="パス_45" d="M589.4653931,182.9850311c0.3668823,0.0632477,0.7388916,0.0930786,1.1112061,0.0888519
		c3.3440552-0.0413666,6.0214233-2.7859192,5.9801025-6.1301422c-0.0413818-3.3440399-2.7859497-6.0214539-6.1303101-5.9800873
		c-3.3440552,0.0415344-6.0214844,2.786087-5.9797974,6.1301422
		C584.4825439,180.0099182,586.59198,182.4860687,589.4653931,182.9850311z M586.0098267,176.2516785
		c0.4387207-2.485321,2.8092651-4.1442871,5.2944336-3.7055206c2.4851685,0.4387817,4.1442871,2.8091431,3.7055054,5.2944641l0,0
		c-0.4387817,2.485321-2.8093262,4.1442871-5.2944336,3.7055054
		C587.2301636,181.1073608,585.5710449,178.7369843,586.0098267,176.2516785z"/>
	<path id="パス_46" d="M546.0653076,168.129364l9.0332031,14.055542l1.3444824-0.3999481v-16.5556183h-1.4665527v14.0667419
		l-9.0332031-14.055542l-1.3444824,0.3999481v16.22229h1.4665527V168.129364z"/>
	<path id="パス_47" d="M327.2320251,403.7739563c0-3.8230286-3.0992432-6.9222412-6.9224243-6.9222412
		c-3.8228149,0-6.9220581,3.0992126-6.9220581,6.9222412c0,3.822998,3.0992432,6.9222107,6.9223938,6.9222107l0,0
		C324.132782,410.6960144,327.2320251,407.5969543,327.2320251,403.7739563z"/>
	<path id="パス_48" d="M780.7542725,396.8405151c-3.8231812,0.0061035-6.9173584,3.11026-6.9112549,6.9332581
		s3.1104126,6.9173279,6.9332886,6.9112244c3.8143311-0.0061035,6.9050903-3.0968628,6.9111938-6.9112244
		c0.0061035-3.822998-3.0880127-6.9271545-6.9111938-6.9332581
		C780.7688599,396.8405151,780.7617188,396.8405151,780.7542725,396.8405151z"/>
	<path id="パス_49" d="M550.520752,627.0739746c-3.8231201,0.0061035-6.9172974,3.1101074-6.9111938,6.9332886
		s3.1101074,6.9172974,6.9332886,6.9111938c3.8187256-0.0061035,6.9111938-3.1036377,6.9111938-6.9224243
		c0-3.8231812-3.0992432-6.9220581-6.9224243-6.9220581C550.5278931,627.0739746,550.5245361,627.0739746,550.520752,627.0739746z"
		/>
	<path id="パス_50" d="M715.5318604,538.1182861c1.8815918-2.222229,3.6963501-4.5298462,5.4443359-6.9222412
		c70.3545532-94.1645508,51.0528564-227.5336609-43.1115112-297.8883667
		c-94.1646729-70.3545532-227.5339355-51.0528564-297.8884888,43.1116638
		c-27.4855042,36.787262-42.3356934,81.4776917-42.333313,127.3988647c0,3.5778503,0.0888367,7.2333374,0.27771,10.8778076
		c0,0.7110596,0.0888367,1.4111023,0.1556396,2.1221619c0.0444336,0.4816895,0.0817261,0.9631653,0.1112061,1.444519
		l0.066803,1.0333557c0.1332703,2.0555115,0.27771,4.1000366,0.4777832,6.1333313
		c0.0888367,0.888916,0.2112427,1.777832,0.322113,2.6555481c0.0742798,0.5335388,0.1448059,1.0667725,0.2112732,1.5999756
		l0.1668091,1.3888855c0.2000732,1.6555786,0.3889465,3.333374,0.6446228,4.9333496
		c0.1444397,0.9667053,0.322113,1.9110718,0.5001221,2.8555908l0.5445862,3.0776978
		c0.2556763,1.499939,0.5109863,2.9888611,0.8110962,4.4443665c0.2000427,0.9999695,0.4333496,1.9999084,0.6778259,3.000061
		l0.6778259,2.9888611c0.3112793,1.4222717,0.6333923,2.8443909,0.9887695,4.2444763
		c0.26651,1.0443726,0.5554199,2.0667114,0.8554993,3.1000671l0.8222961,2.9000244
		c0.3777161,1.3554993,0.7442932,2.6999512,1.1111755,4.0334167c0.322113,1.0333557,0.666626,2.0555115,1.0223389,3.0888672
		l0.9667358,2.8778076c0.4221497,1.2888794,0.8554993,2.5889282,1.3220825,3.8667603
		c0.3777466,1.0443726,0.789032,2.0777283,1.2000122,3.111084l1.1111755,2.9556274
		c0.3777466,0.9999695,0.7554932,1.999939,1.1776428,3.000061l0.2332764,0.5333862
		c0.5110168,1.2110291,1.0555725,2.4000244,1.5889587,3.5888672l2.4000549,5.3666687l0.3000793,0.6110229
		c0.1668396,0.3445129,0.333313,0.6778564,0.5001526,1.0111694l0.3445129,0.6778259
		c1.1111755,2.2221985,2.2223511,4.4443665,3.4111633,6.6667175c0.4221802,0.7888794,0.8443298,1.5777588,1.2776794,2.3556213
		c1.3556519,2.4778748,2.6665649,4.7444763,3.9998474,6.955658l0.6222229,1.111145
		c1.5000916,2.4555054,3.111084,4.9777832,4.9221497,7.6889038l0.9111023,1.3222656l0.4889526,0.7110596
		c1.3332825,1.9482422,2.6997986,3.8703003,4.099884,5.7666626l0.388916,0.5221558
		c0.3557129,0.4889526,0.7110596,0.9777832,1.1111755,1.4667358c1.9778748,2.6221313,3.8109741,4.9667358,5.6223755,7.1555176
		l0.789032,0.9333496c1.6445618,1.9776611,3.3999939,4,5.222229,6.0333252l1.789032,1.9666748
		c1.6889648,1.833252,3.4111633,3.6333008,5.1221924,5.3666992l1.2888489,1.3222656
		c2.0667419,2.0667114,4.2778931,4.166626,6.5667114,6.2555542l1.0223389,0.9111328l0.6445923,0.5778198
		c1.777832,1.5889282,3.5776978,3.1555176,5.5555725,4.7888794l1.8666687,1.555542
		c2.6445007,2.166748,5.0001221,4.0110474,7.2001038,5.6555786s4.5776367,3.333374,7.4554443,5.3000488l2.1555481,1.444519
		c1.9927979,1.3259888,4.0076294,2.6185913,6.0445251,3.8777466l0.733429,0.4555664l1.1776428,0.722229
		c2.6665649,1.6112061,5.3222656,3.1333008,7.9111633,4.5444336l0.9667358,0.5111694l0.6890259,0.3555298
		c2.2223511,1.111145,4.4443665,2.3110352,6.666748,3.4111938l2.4220581,1.166626
		c2.4888916,1.1777954,4.9665833,2.2999878,7.3666077,3.333374l1.1111755,0.499939
		c2.6445312,1.1112061,5.4667358,2.222229,8.5998535,3.3887939l1.7333984,0.6222534l0.6222229,0.22229
		c2.2223511,0.7888794,4.5223694,1.5777588,6.8444214,2.3222046l0.7110596,0.2332764l1.6889648,0.5333862
		c3.2331848,0.9889526,6.1777954,1.8222046,8.9999695,2.555481l1.2220764,0.2999268
		c2.5556641,0.6444702,5.2554626,1.2666626,8.0444336,1.8556519l2.7001343,0.5443726
		c2.511261,0.5,5.0777893,0.9555664,7.6222839,1.3666992l0.7998657,0.1332397l1.1112061,0.1778564
		c3.055481,0.4555664,6.2333984,0.8666992,9.4556885,1.2000122l1.4777222,0.1444702l0.8666992,0.0778198
		c2.5220947,0.2332764,5.0665894,0.4333496,7.5666504,0.5778198h0.2556763l2.5112915,0.1332397
		c3.7221069,0.166687,6.8331909,0.2445068,9.7998657,0.2445068
		C614.53125,616.7015381,675.1655884,587.836853,715.5318604,538.1182861z M491.5542297,519.4849243
		c1.1399841-0.6222534,2.3478088-1.1106567,3.6000366-1.4555054
		c38.0157776,63.0662231,119.9588318,83.3738403,183.025116,45.3582764
		c63.0662842-38.0157471,83.3740234-119.9588623,45.3582764-183.0251465
		c-24.1329346-40.0356445-67.4699707-64.508728-114.2167969-64.4999084
		c-31.5493774-0.0232239-62.0747681,11.1958923-86.0999146,31.6445312l-1.7998657-3.5110474
		c58.0509033-48.5855103,144.4970093-40.912384,193.0823364,17.1384888
		c40.538208,48.4359741,42.7297363,118.3024292,5.3067017,169.1836853
		c-1.7446289,2.3222046-3.5444336,4.6000366-5.3778687,6.8444214
		c-48.5440063,58.0778198-134.9779053,65.8063965-193.055603,17.2626343
		c-11.8326416-9.8902588-21.9112549-21.706665-29.8112488-34.9514771L491.5542297,519.4849243z M487.3763733,570.0848999
		c-1.9914551-9.3527832-8.4072571-17.15271-17.2000427-20.9111328c-5.4918213-2.1209717-9.4685974-6.9667969-10.4777222-12.7666626
		l21.0222168-12.1444702l0,0c3.3260803-0.3979492,6.4880371-1.666626,9.1668091-3.6777344
		c0.1332397-0.1110229,0.2888794-0.1888428,0.4333496-0.2888794c5.7501831,9.5821533,12.6451111,18.4287109,20.5332336,26.3444214
		L487.3763733,570.0848999z M414.965271,539.8404541c-14.6491089-4.9726562-22.4934998-20.8794556-17.5204773-35.5285339
		c4.9726562-14.6489563,20.8791199-22.4933167,35.5282288-17.5204773
		c14.6491089,4.9726562,22.4934692,20.8792725,17.520813,35.5283813
		c-2.3885193,7.0363159-7.4750977,12.8352051-14.139801,16.1205444c-6.6691284,3.2657471-14.3609009,3.7533569-21.3887634,1.3557129
		V539.8404541z M355.5319519,485.5515747c3.1141357,0.7342834,6.3639221,0.6654358,9.444519-0.2000732
		c7.8328247-1.2752991,15.848114,0.6724243,22.2221985,5.3999329c4.3945312,2.155365,9.1549377,3.4671326,14.0333557,3.8667297
		c-2.1396179,2.5935059-3.8164062,5.5367432-4.955719,8.7000732c-5.7895203-5.9875488-13.2656555-10.0687866-21.4331665-11.6999512
		c-6.4490356-0.2527771-12.7817993-1.7981567-18.6221619-4.5444031c-0.2444763-0.5555725-0.4777832-1.0555725-0.6890259-1.5667419
		V485.5515747z M393.7874146,462.7071228c-5.4161682-4.8929749-8.5757751-11.8024902-8.733429-19.0999451
		c2.6340027,8.6693726,7.5500488,16.4711914,14.2333984,22.5889587c4.9980774,6.5068665,7.9596558,14.3469849,8.5110168,22.5333252
		c-1.9704285,1.2908936-3.7797852,2.8128662-5.3887329,4.5333862l0,0
		c-2.4044495-3.9608459-3.3328552-8.6435852-2.6221313-13.2222595c1.2020264-6.4475098-1.0820312-13.0513306-6.0112915-17.3778687
		L393.7874146,462.7071228z M433.3761902,455.1404724c-1.016571-7.2253723,0.9934998-14.5501099,5.555542-20.2445374
		c-3.5512085,8.3320007-4.7987061,17.4653931-3.6112366,26.444519c-0.3489075,8.184967-3.1131287,16.0836182-7.944397,22.6999817
		c-2.3434143-0.284668-4.7122498-0.284668-7.0556641,0l0,0c0.700531-4.5771179,2.9947815-8.7600708,6.4778442-11.8111572
		c5.0537109-4.156311,7.5517578-10.6626587,6.5782471-17.1332397L433.3761902,455.1404724z M470.7093506,449.9182129
		c0.0298462,6.1589661,0.4638672,12.3091125,1.3000488,18.4111023c-1.8293457,1.6683044-3.4088135,3.5919189-4.6888428,5.7111816
		c-3.1894226,5.1832581-8.8816528,8.2934875-14.9664917,8.1777039c-4.5230713,0.1691895-8.885376,1.7203369-12.5,4.4443665
		c-0.3384094-4.3634949,0.1132507-8.7524414,1.333252-12.9555359c3.6590576-7.4032288,4.1954956-15.9647827,1.4889221-23.7667542
		L470.7093506,449.9182129z M472.1650391,449.184967c-0.0020142-14.2512207,2.2247314-28.414917,6.5999451-41.9777832
		l3.3331909,1.9666748c-4.0795288,12.9411621-6.1520081,26.4311218-6.1445312,40.0000916
		c0.0027161,5.1984863,0.3068542,10.3922424,0.9111023,15.555481c-1.2501831,0.7132568-2.442749,1.5231628-3.5668335,2.4222412
		c-0.7781982-5.9721069-1.16745-11.9884949-1.1661072-18.0111389L472.1650391,449.184967z M430.3983459,345.0404968
		c12.22229-5.9555054,41.4001465-3.2667236,79.3999634,7.7777405
		c-14.3670044,14.8222351-25.2458496,32.6629639-31.8444214,52.2221985
		c-14.5463562-8.3180847-28.1131287-18.2430725-40.4446106-29.5888367c2.4688721-3.0383606,2.0073853-7.5030823-1.0311584-9.9719543
		c-2.1107788-1.7154236-5.0170898-2.0716248-7.4798584-0.9168701c-0.2024231,0.1039124-0.3990784,0.2188721-0.5889893,0.3445129
		c-3.5464783-3.9064331-4.9058533-9.3268738-3.6221008-14.4444885c0.8687439-1.9068298,2.3146057-3.4927368,4.1334534-4.5333862
		l59.999939,34.6333923l0.733429-1.2666626L430.3983459,345.0404968z M540.6759644,328.8294067l-69.7445068-120.799942
		c21.9319763-8.9675903,45.2243652-14.1557617,68.8890381-15.3444214l32.9111328,122.8110504
		c-11.2067261,3.0587158-21.9810791,7.5237732-32.0664673,13.2888794L540.6759644,328.8294067z M539.4091797,329.5626526
		c-6.5778809,3.8472595-12.8285522,8.2287292-18.6889648,13.1000061l-54.166687-105.355484l9.5665894,0.6000061
		l-18.9778442-15.966629l2.6665344,24.666687l4.822113-8.22229l54.3887939,105.777832
		c-2.4556885,2.111145-4.8444824,4.2889099-7.1333313,6.5555115L408.5531921,247.3849335
		c17.9714661-16.3313141,38.6166077-29.4520111,61.0334473-38.7888641L539.4091797,329.5626526z M458.9868774,225.4071808
		l5.4887695,10.3000183l-3.7001038,6.3110352l-1.7998657-16.6666565L458.9868774,225.4071808z M488.9869995,519.4071045
		c-6.9223938,3.8755493-15.1184082,4.7853394-22.7223511,2.5222778c-4.8421326-0.5313721-9.7405396-0.15448-14.4443054,1.111145
		c0-0.1000366,0.0776367-0.2000122,0.1220703-0.2999268c1.037262-3.0819092,1.5553589-6.3147583,1.5333252-9.5665283
		c7.4920654,3.649353,15.9183044,4.9284058,24.1556702,3.666687c7.9044189-2.506897,16.3174133-2.9580078,24.4445801-1.3110962
		c-4.6579895-0.1102295-9.2356262,1.229187-13.0994873,3.8330078L488.9869995,519.4071045z M451.1092834,524.78479
		L451.1092834,524.78479c3.6152954,2.8966064,6.0906067,6.9775391,6.9888611,11.5222778
		c1.0715027,6.4425659,5.4456787,11.8500977,11.5220642,14.2443848c6.7654114,2.746582,12.0992126,8.1609497,14.7444153,14.9666748
		c-5.4450073-7.2443848-12.7360229-12.8930054-21.1110535-16.3555298
		c-6.916626-4.3936768-12.3762207-10.7386475-15.6887512-18.2333984c1.4214478-1.8981934,2.6079102-3.9611816,3.5339355-6.1442261
		L451.1092834,524.78479z M459.2537231,534.9737549c-0.9552002-4.1051025-3.1324463-7.8241577-6.2445679-10.666748
		c4.2419434-1.0916748,8.6459656-1.4078369,13.0001526-0.9332886c3.7448425,0.7559814,7.5571594,1.1282959,11.3776245,1.111145
		L459.2537231,534.9737549z M439.986969,488.5960388L439.986969,488.5960388
		c3.483429-3.0556641,7.9338989-4.7831116,12.566803-4.8777161c6.5355225,0.0617065,12.6230774-3.313385,16.0332642-8.8889465
		c3.8787842-6.1871033,10.1376038-10.5002441,17.3000793-11.9221802
		c-8.0810547,4.1015625-14.9119263,10.2991638-19.777771,17.9444885
		c-5.5311584,6.0496216-12.7302551,10.3258057-20.6888733,12.2889404c-1.6208496-1.7457886-3.4491882-3.2869263-5.4440002-4.5890198
		L439.986969,488.5960388z M467.3425903,481.5959778c4.4457397-6.9768372,10.5892639-12.7114258,17.8554993-16.6666565
		c-3.6054993,2.9030762-6.2249146,6.8500061-7.4998779,11.2999878
		c-1.8110352,8.4999695-10.8998413,13.7332458-15.7779236,16.5444031
		c-4.0585022,2.7235413-7.5710754,6.183197-10.3556213,10.2000122c-1.1949463-3.1419678-2.915802-6.0575867-5.0889893-8.6222534
		c8.0925903-2.0446777,15.368988-6.5102234,20.8564148-12.7998962L467.3425903,481.5959778z M475.2313843,484.3071289
		c2.3461304,8.9937134,5.5959167,17.7269897,9.6998291,26.0665894c-0.8222656,0.1888733-1.6553955,0.4221497-2.500061,0.7110596
		c-5.7545776,1.9054565-12.087677,0.6388245-16.6666565-3.333374c-3.5681763-2.7842102-7.9033813-4.4089355-12.4223633-4.6556091
		c2.5492554-3.5592041,5.7183228-6.6302795,9.3556824-9.0666199c4.7203979-2.4822693,8.9579163-5.7900391,12.5118713-9.7664795
		L475.2313843,484.3071289z M486.4201355,510.0960083c-4.3216248-8.699707-7.7002563-17.8370056-10.0779114-27.2555847
		c1.2047729-1.7337341,2.0924988-3.6673584,2.6221313-5.7112122c2.4129333,11.3101807,6.297821,22.255127,11.5556641,32.555481
		c-1.3777161,0.0132446-2.7520142,0.1359863-4.1103821,0.3668823L486.4201355,510.0960083z M452.1644897,504.629303
		c4.6332703-0.1047974,9.1546021,1.4297485,12.7665405,4.333313c4.9614868,4.252655,11.7923279,5.585907,17.988739,3.5110779
		c6.9471741-2.2432251,14.5114441-1.5237122,20.9109802,1.9888916c-8.8209229-2.0491333-18.0304565-1.6921997-26.6665955,1.0333252
		c-8.1251221,1.0722046-16.3858948-0.2807617-23.7443542-3.8889465c-0.1437683-2.3534241-0.5690002-4.6810608-1.2668152-6.9332581
		L452.1644897,504.629303z M508.4643555,517.3959961l4.3443604,1.8444214l-3.6777344-3.111084
		c-4.906189-3.7480469-10.8069458-5.9699097-16.9667358-6.388855c-5.7854614-11.1697693-9.9317932-23.1146851-12.3111572-35.4666748
		c2.6526794-5.0018311,6.6118164-9.19104,11.4556274-12.1222534l4.5111694-1.388916h-4.8112488l0,0
		c-4.4107971,0.1949768-8.7324524,1.3075256-12.6888733,3.2667542c-0.556427-4.9212952-0.8382263-9.8695679-0.8443298-14.8222351
		c-0.0098267-13.3117676,2.0019531-26.5479126,5.9665222-39.2555847
		c7.1221313,4.0666199,14.6888123,8.1110535,22.5999756,12.0556335
		c-15.0220947,57.039032,19.0392456,115.4561157,76.0783081,130.4782104
		c8.8775635,2.3380127,18.0192261,3.5217285,27.199646,3.5217285c2.7109375,0,5.3778687-0.1332397,8.0332031-0.333313
		c2.8910522,4.9276123,9.229187,6.5786133,14.1567993,3.687561c2.5288696-1.4838257,4.3093872-3.9708252,4.8987427-6.8430786
		c57.0657959-14.8959351,91.2512817-73.2323303,76.3552856-130.2981873
		c-14.8959351-57.0656433-73.2323608-91.2510986-130.2981567-76.3551331
		c-17.5316772,4.5762634-33.6107178,13.5380859-46.7237549,26.0421753l-11.833374-23.0223083
		c55.4555054-47.160675,138.642334-40.4364624,185.8028564,15.0190735
		c47.1608887,55.4555054,40.4364624,138.6423645-15.019043,185.8030396
		c-23.829834,20.265564-54.0906982,31.3954468-85.3725586,31.4000244
		c-45.994751-0.1439209-88.6295166-24.1126099-112.6556702-63.333252c3.8777771-0.7733154,7.8545532-0.9194336,11.7787781-0.4332275
		L508.4643555,517.3959961z M636.6310425,550.9071655c0.0485229-0.5730591,0.0485229-1.1491699,0-1.722229
		c-0.6615601-5.6967773-5.8139038-9.7800293-11.5112305-9.1221924c-0.8693848,0.112915-1.7208252,0.336853-2.5332642,0.666626
		l-36.4668579-70.9111328c5.699707-3.0902405,10.9765015-6.9032593,15.6999512-11.3444214
		c3.8889771,1.0111694,7.7111206,1.9444885,11.444458,2.7778015c-0.3550415,3.0476685,1.8276367,5.8061218,4.8753662,6.1611633
		c2.6824951,0.3126221,5.2015381-1.3495789,5.9692383-3.9389954c9.2810669,1.8031006,18.7021484,2.7920227,28.1555176,2.9556274
		c14.0220947,0,22.7999878-3.1555176,25.4109497-9.3444824c3.0110474-7.1445007-2.7001343-17.4667358-16.4890137-29.8666992
		c1.2488403-1.9120789,1.2007446-4.3936768-0.1220703-6.2555847c-1.7408447-2.5267029-5.2001953-3.1638184-7.7266846-1.4231567
		c-0.2424316,0.1671753-0.4713135,0.3531799-0.6842651,0.5564575c-8.6843262-6.6969299-17.7595215-12.8707886-27.1779785-18.4889221
		c-0.7174683-22.3178406-11.2989502-43.1672668-28.888916-56.9222107
		c57.7266846-7.1006165,110.2792969,33.9399414,117.3800659,91.6666565
		c6.4121094,52.1286011-26.5658569,101.013031-77.3023682,114.5888977L636.6310425,550.9071655z M615.9754028,551.5737915
		c0.1203613,0.9136963,0.3631592,1.8068237,0.722229,2.6555786c-2.444458,0.166626-4.888916,0.2888794-7.3665771,0.2888794
		c-52.6916504-0.0730591-97.2446289-39.0238647-104.3555298-91.2333374
		c22.7542114,17.5228577,53.5386963,20.451355,79.1890259,7.5332642l36.4667969,70.9221802
		c-3.2765503,2.1179199-5.0845337,5.8978882-4.6773071,9.7780151L615.9754028,551.5737915z M585.4310303,468.5071716
		l-8.999939-17.5111694c8.1481934,2.6667175,16.0518799,5.0111694,23.7111206,7.0332947
		c-4.4487915,4.0630798-9.3777466,7.5668335-14.6769409,10.4334412L585.4310303,468.5071716z M625.508728,403.3294067
		c9.0691528,5.4377441,17.8138428,11.3996887,26.1888428,17.8554993c-1.6601562,2.5804443-0.9141846,6.0179138,1.6662598,7.6780701
		c0.6408691,0.4121399,1.359375,0.6881714,2.1115112,0.8109131c1.4685669,0.2656555,2.9822388-0.0707092,4.1998901-0.9333496
		c0.1868286-0.1408691,0.3651733-0.2929688,0.5333862-0.4555359c13.0889893,11.7777405,18.8110352,21.777832,16.1000366,28.1999207
		c-3.7113037,8.8000793-22.611145,10.8000183-51.8778687,5.5555725c0.6137695-3.0098877-1.3288574-5.9473877-4.3389282-6.5609436
		c-3.0097046-0.613739-5.9471436,1.3288574-6.5609131,4.3387451c-3.4223633-0.7666626-6.9332275-1.6221924-10.4777222-2.5332947
		c14.3822632-14.0667419,22.4857178-33.3379211,22.4779053-53.4555969c-0.0657959-0.22229-0.0657959-0.3777466-0.0657959-0.5444031
		L625.508728,403.3294067z M660.5310669,424.862793c-0.3987427,2.2538757-2.5495605,3.7577209-4.8031006,3.3587952
		c-2.2539062-0.3989258-3.7577515-2.549408-3.3590088-4.8033142c0.3499756-1.9765015,2.0657349-3.4183044,4.0731201-3.4221802
		c0.2420654,0.0018616,0.4838257,0.0240479,0.722229,0.0666199c2.2125244,0.4060364,3.7004395,2.499054,3.3565674,4.7222595
		L660.5310669,424.862793z M620.2756958,465.3850403c-2.1514893,0.7807312-4.5288086-0.3305969-5.3093872-2.4822693
		c-0.7809448-2.1516418,0.3305664-4.5288086,2.4820557-5.3095398c2.1467896-0.7788696,4.5189819,0.325531,5.3049927,2.4695435
		c0.7592163,2.144043-0.3513184,4.4992981-2.4882202,5.2776794L620.2756958,465.3850403z M594.5202026,344.9072266
		c32.5130615,24.2424927,39.2177734,70.2519836,14.9752808,102.7650757
		c-2.4430542,3.2763977-5.1553955,6.3432617-8.1085205,9.168335c-8.3665161-2.2221985-17.0332031-4.7666931-25.9223022-7.7223206
		l-21.3110962-41.444397c2.1389771-1.9894104,2.2600098-5.3358154,0.2705688-7.474762
		c-1.2545776-1.348877-3.1209106-1.947876-4.9262085-1.5808105l-13.0554199-25.3777466
		c15.8895264-15.3245544,36.2030029-25.2537842,58.0559692-28.3777771L594.5202026,344.9072266z M547.4868164,399.4960632
		c-2.4020386,1.651001-3.0110474,4.9367371-1.3604126,7.3389587c1.3618164,1.980957,3.8896484,2.791687,6.149292,1.9721375
		l20.1999512,39.2888184c-11.4888306-3.8999634-23.2554321-8.3555298-35.1223145-13.3332825
		c-10.2444458-4.3223267-20.1334839-8.888916-29.5556335-13.5333557
		c4.8451843-17.5342102,14.1465759-33.5155945,26.9999084-46.3889465L547.4868164,399.4960632z M536.7866821,436.0849609
		c12.3887939,5.222229,24.6887207,9.8666687,36.6665649,13.8888855l9.999939,19.5332642
		c-25.6127319,12.8890991-56.3883667,9.6683044-78.777771-8.2444763c-0.4665833-4.0129089-0.7039185-8.0490112-0.7110596-12.0888672
		c-0.0050659-8.9562378,1.1339111-17.8765259,3.3888245-26.5443726c9.3899231,4.6000366,19.2233582,9.1222229,29.4009705,13.4111328
		L536.7866821,436.0849609z M534.0977783,373.4516907c-13.1331177,13.0387878-22.6549072,29.2646484-27.6333618,47.0889587
		c-7.8999634-3.944397-15.4334106-7.9778137-22.5334778-12.0444336
		c7.3130188-22.4480591,20.5033875-42.5286255,38.2008972-58.1556702L534.0977783,373.4516907z M482.6420593,407.7517395
		l-3.3331909-1.9666748c7.8375854-23.3622131,21.8102417-44.1885986,40.4554749-60.3000183l1.8110352,3.5110474
		c-18.0063782,15.7324829-31.462616,36.0075073-38.9655151,58.7110596L482.6420593,407.7517395z M433.9421082,365.6851196
		c2.9269714,1.072876,4.4301453,4.3151855,3.3572693,7.2421875c-1.0728455,2.9269714-4.3151855,4.4299622-7.242157,3.3572693
		c-2.9269714-1.072876-4.4301147-4.3153687-3.3572693-7.242157c0.0030518-0.0079956,0.0057678-0.0159607,0.0088196-0.0239258
		c1.0691223-2.9086609,4.2833252-4.4116516,7.2008057-3.3669434L433.9421082,365.6851196z M423.4420471,349.8295593
		c-1.5258789,5.6099854-0.0986938,11.6107483,3.7889099,15.9333801c-2.900177,2.6297913-3.1195679,7.1129761-0.489624,10.0131836
		c2.0928345,2.3082886,5.4477234,2.979187,8.2675476,1.6535339c0.5259094-0.2573547,1.0186157-0.5783081,1.4665222-0.9555359
		c12.4956055,11.5095215,26.2492065,21.5730286,41.0000305,29.9999695c-0.6591797,2.0295715-1.2702026,4.081543-1.8334045,6.1555481
		L340.9642029,376.540741c3.1131287-24.0780334,10.3841248-47.4322815,21.4888-69.0222778l65.1000977,37.5888367
		c-1.797821,1.135437-3.2318115,2.7626953-4.1324158,4.6888428L423.4420471,349.8295593z M439.8197937,473.1629639
		c-1.3508911,4.6876526-1.8144226,9.5865784-1.3664856,14.444458c-2.9168091-1.6728516-6.1130371-2.8023376-9.4333496-3.3333435
		c4.8845215-6.7492981,7.5975342-14.8261414,7.7779236-23.1555481c-1.0891418-8.2077026-0.0759583-16.5576782,2.9446106-24.2667542
		c-0.8917847,4.5422058-0.3601074,9.2488708,1.5221558,13.4777527c2.6116333,7.4859619,2.0826416,15.7099609-1.4658813,22.7998657
		L439.8197937,473.1629639z M431.941864,455.3851013c0.8894043,6.0224915-1.4729919,12.0661621-6.2109985,15.8888245
		c-3.3576355,3.0307312-5.707489,7.0166626-6.7332153,11.4222107c-3.067688-3.1217651-5.544342-6.7733765-7.3109741-10.7778015
		c-1.9382019-8.1554565-7.1452026-15.1546631-14.399231-19.3555908c-1.5411377-0.6527405-2.9581604-1.5660706-4.1890259-2.6999512
		h38.5443726c-0.1010437,1.8232422-0.0078125,3.6520996,0.2780457,5.4555054L431.941864,455.3851013z M396.7642517,453.9850464
		c6.817627,4.0542603,11.7034912,10.6957092,13.5443726,18.4110718c1.9772034,4.4772644,4.7817688,8.5410156,8.2665405,11.9778137
		c-3.302002,0.6311951-6.473114,1.8183289-9.3777161,3.5110474c-0.5801697-8.3158875-3.6807556-16.2575684-8.8887634-22.7666321
		c-6.1079102-5.5903015-10.6957092-12.6403809-13.3334656-20.4888306c2.2277832,4.0263062,5.6372681,7.2723389,9.7680054,9.2998962
		L396.7642517,453.9850464z M437.0196533,539.7628174l0.388916-0.2110596l0,0
		c0.9074097,4.5477905,0.1793823,9.2698975-2.0555115,13.333313c-3.3230286,5.6245117-3.4495239,12.5805054-0.3333435,18.3222046
		c1.9555054,3.56073,3.0012512,7.5490723,3.0443115,11.611084l-1.8890381-1.2000122
		c-0.8331299-5.4332886-2.5641479-10.6901245-5.1221924-15.555481c-2.4712524-7.8057251-2.5756836-16.168396-0.3001099-24.0332642
		c2.1630249-0.5357666,4.2582397-1.3149414,6.2459412-2.3223877L437.0196533,539.7628174z M439.152832,540.4072266
		c1.8310547,0.934021,3.6044617,1.9765625,5.3110657,3.1223145l-5.4223022,3.1333008
		c0.4493103-2.0806274,0.4801636-4.2299194,0.09021-6.3223877L439.152832,540.4072266z M438.9859924,538.6738281
		c2.8974915-1.7005005,5.47995-3.8880615,7.6334534-6.4666748c3.3945923,7.6033325,9.0264282,13.9909668,16.1445007,18.3110962
		c7.6538086,3.1619263,14.3788452,8.2163086,19.5444641,14.6889648c-3.4871521-3.0446777-7.8294678-4.9382935-12.433197-5.4223022
		c-7.7975769-1.479248-14.6636963-6.0526733-19.0334778-12.6778564c-3.3908386-3.5498657-7.4198303-6.4297485-11.8764343-8.4888306
		L438.9859924,538.6738281z M697.8747559,267.3293457c16.2468872,11.8291321,19.8279419,34.5892944,7.9989624,50.8361816
		c-5.3181763,7.3043823-13.1638794,12.3689575-22.0099487,14.208313
		c-11.918457-7.6365051-24.9413452-13.3928223-38.611145-17.0666199c-1.272583-2.1918335-2.3186646-4.5074463-3.1223145-6.9110413
		c17.9067383,10.5638428,40.9864502,4.6112061,51.550293-13.2953186c4.9438477-8.380127,6.4507446-18.348877,4.2053223-27.8157654
		L697.8747559,267.3293457z M707.8746948,351.7738647l35.2111816-35.1999817
		c6.7165527,14.7189636,11.7055054,30.1662903,14.8668213,46.0333862l-28.8889771,16.6666565
		c-5.9122925-10.0451965-13.0601807-19.3099976-21.2761841-27.5778809L707.8746948,351.7738647z M706.8414917,350.740509
		c-6.5053101-6.4360046-13.628479-12.2156677-21.2666626-17.2554932
		c20.2575684-4.9947205,32.6303711-25.4655457,27.6356812-45.7229614c-0.8592529-3.4847717-2.2105103-6.8291626-4.0134277-9.9326172
		l4.6889038-8.1222534c11.4057617,13.8727722,21.0015259,29.1397095,28.555603,45.4333801L706.8414917,350.740509z
		 M641.2860107,306.1628113l-1.6333618-1.1111755l0.5221558,1.8778381c0.7857056,2.7277527,1.866333,5.3617554,3.2223511,7.8555603
		c-10.8740845-2.7440491-22.0408325-4.1582031-33.2556763-4.2110901V200.99617
		c20.5200195,6.0207825,40.0027466,15.1328278,57.7778931,27.0223083l-21.6444092,80.7888336
		c-1.7636108-0.774292-3.4644165-1.6845703-5.0872803-2.7223206L641.2860107,306.1628113z M747.9527588,449.9516296h8.8887329
		c-2.6716309,11.9876404-6.3893433,23.7177429-11.111084,35.055542l-2.3112183-0.6222229
		c2.9442749-11.2686157,4.453186-22.8642883,4.4904785-34.5111389L747.9527588,449.9516296z M747.9527588,448.4849243
		c-0.0498657-11.6255188-1.5655518-23.1982727-4.5111694-34.444519l18.4000244-4.9333496
		c-0.3136597,13.2392273-1.8724365,26.4195862-4.6556396,39.3666687L747.9527588,448.4849243z M610.0861816,587.8181763
		c11.6251831-0.0527344,23.1977539-1.5684204,34.444519-4.5111694l2.3223877,8.6556396
		c-11.7611084,6.0473633-24.0678711,10.9691772-36.7557373,14.6999512L610.0861816,587.8181763z M645.9307861,582.8960571
		c11.2084351-3.0741577,21.9828491-7.5541382,32.0665283-13.333313l1.111145,1.944458
		c-9.7235718,7.4715576-20.0771484,14.0852051-30.944458,19.7667236L645.9307861,582.8960571z M679.2640991,568.8404541
		c5.3290405-3.1307373,10.4441528-6.6126099,15.3110352-10.4222412c-4.5780029,4.2741699-9.3407593,8.3480835-14.2890015,12.22229
		L679.2640991,568.8404541z M608.6196289,587.8071289v19.2000122c-13.9780273,3.9933472-28.3328247,6.5255127-42.8334351,7.555481
		l8.4110107-31.4110718c11.2205811,2.9708862,22.7722168,4.5089722,34.3790283,4.5777588L608.6196289,587.8071289z
		 M743.0641479,485.796051l2.1555786,0.5777893c-2.6445312,6.2074585-5.5704956,12.2630005-8.7778931,18.166626
		c2.633667-6.1077576,4.8214722-12.3982849,6.5457153-18.8222351L743.0641479,485.796051z M761.953186,407.5849304
		l-18.8890381,5.0555725c-3.0740967-11.2084351-7.5540771-21.9830017-13.3334351-32.0666809l28.4776001-16.4333801
		c2.5143433,13.0877991,3.7865601,26.3839722,3.8001709,39.7111511c-0.0766602,1.166626-0.1542969,2.4110718-0.1766968,3.6556702
		L761.953186,407.5849304z M712.9087524,268.5181885l-4.5223999,7.8333435
		c-2.723877-4.2661743-6.2798462-7.9393005-10.4556274-10.7999878c-0.1516113-0.1018982-0.3116455-0.1910706-0.4777832-0.2666931
		l-0.27771-0.1444702l-1.6333618-1.1111755l0.5221558,1.8778687c5.538269,19.1975708-5.5348511,39.2498474-24.7324219,44.7880859
		c-7.8179321,2.2554321-16.1679077,1.8095398-23.7009888-1.2657776l21.5888062-80.5555725
		c16.2814941,11.1119537,30.9437866,24.4276276,43.5682373,39.5667114L712.9087524,268.5181885z M608.6976318,200.6180878
		V310.618042c-11.6258545,0.0547485-23.1984253,1.5740051-34.444519,4.5221863l-32.8111572-122.4445038
		c3.055542-0.133255,6.1110229-0.2332764,9.2000732-0.2332764c19.5929565-0.0137329,39.0923462,2.7050323,57.9342041,8.0780029
		L608.6976318,200.6180878z M407.5864563,248.3959045l103.1887512,103.1889343
		c-39.7555847-11.6222839-69.3667908-14.1111755-81.6999512-7.3555908l-65.8332214-38.0111694
		c11.2962646-21.7000427,26.2529297-41.2875671,44.2121887-57.899826L407.5864563,248.3959045z M342.6976013,441.729187
		l-0.5445557-3.1000977c-0.1668396-0.9333191-0.3445129-1.8666382-0.4889526-2.8222046
		c-0.2444763-1.6221619-0.4445496-3.2555237-0.6334229-4.888916l-0.1668396-1.3888855
		c-0.0667725-0.5333557-0.1369629-1.0704651-0.2112427-1.611145c-0.1112061-0.8666992-0.2332764-1.7333984-0.322113-2.6111145
		c-0.2000732-2.0111084-0.3333435-4.0556335-0.4777832-6.0889282l-0.066803-1.0333862
		c0-0.4889526-0.0776367-0.9777222-0.1112061-1.4667053c-0.055603-0.6888428-0.1220703-1.3776855-0.1556396-2.0777283
		c-0.1776733-3.6222534-0.27771-7.2555542-0.27771-10.7999878c0.0186462-8.636322,0.5639038-17.2634583,1.6333618-25.833313
		l134.444519,36.0222778c-2.9459839,11.2462158-4.4613342,22.8190002-4.5111694,34.444519h-28.7113037
		c-1.5519714-5.8071594-1.3234253-11.9464722,0.6554565-17.6222229l2.5665283-3.9555969l-3.7000732,3.0776978
		c-5.2873535,4.8531494-8.7239685,11.3927307-9.722229,18.499939h-40.1665649
		c-2.6814575-3.0668335-4.833313-6.559082-6.3666382-10.333252l-0.5777893-4.6888428l-0.8555298,4.7332764
		c-0.4482727,3.4216919-0.331604,6.8937378,0.3445129,10.2778015h-40.277771
		c-0.1776733-0.7778625-0.3665466-1.5445251-0.5221863-2.3222351c-0.3981018-1.5329895-0.6537476-3.0107117-0.9090881-4.4884338
		L342.6976013,441.729187z M353.0976562,479.1069336c-0.400116-1.0221558-0.8110962-2.0333252-1.1888123-3.0666809
		c-0.4554138-1.2666321-0.8778992-2.5444946-1.3000488-3.8333435l-0.9667358-2.8888245
		c-0.3445129-1.0111389-0.6890259-2.0223083-0.9999695-3.0444641c-0.4109497-1.3222656-0.7778625-2.6555481-1.1111755-4
		l-0.8222656-2.9110413c-0.2889099-1.0111694-0.5778198-2.0333252-0.8443298-3.0555115
		c-0.3557129-1.3888855-0.666626-2.7889404-0.9779053-4.2000427l-0.4889832-2.166748h40.2666016
		c1.2542725,5.3887024,4.1646423,10.2494812,8.3221436,13.9000549c4.5515137,4.0386658,6.626709,10.1842346,5.4555359,16.1555176
		c-0.6144409,4.4876099,0.1610413,9.0555725,2.2223511,13.0888062c-4.3582458-0.4262085-8.6035767-1.634552-12.5332336-3.5666504
		c-6.7121887-4.9738464-15.1682434-6.9815674-23.3998718-5.555542c-3.1595764,0.8714294-6.4958191,0.8714294-9.655426,0
		c-0.2444763-0.6334229-0.5001526-1.2556458-0.733429-1.8888855L353.0976562,479.1069336z M357.186676,489.1068726
		c5.602356,2.4361572,11.6072083,3.8148499,17.7110596,4.0666199c8.0101624,1.7707214,15.3171082,5.8726196,21.0001526,11.7889404
		c-0.6832581,2.2572937-1.0898132,4.5891724-1.2112122,6.944458l0,0c-4.3877563-1.4855347-8.1098633-4.4720154-10.511261-8.4333801
		c-3.2107849-5.6876221-9.1708679-9.2731018-15.6999512-9.4444885c-3.4925537-0.06427-6.9318848-0.8709412-10.0887756-2.3666382
		l-1.1111755-2.4888916L357.186676,489.1068726z M387.4309692,509.5180359
		c1.6174316,1.5357056,3.535614,2.7198181,5.6331787,3.4778137c-3.6115723,2.4729614-7.6388855,4.2758789-11.8889465,5.3222656
		c-2.3000183,0.3999634-4.7556763,0.888916-7.2333679,1.5777588c-1.3112183-1.999939-2.5444641-3.9221802-3.6888733-5.777832
		L387.4309692,509.5180359z M365.3976135,505.7625122c-0.4221802-0.7778625-0.8443298-1.555542-1.2668152-2.3444214
		c-1.1112061-2.2221985-2.3000183-4.444397-3.3332214-6.666748L360.453064,496.0513l-0.4889526-0.9889221l-0.6778259-1.4889221
		c2.9208679,1.1747437,6.0302734,1.8110352,9.1776428,1.8778381c6.0872498,0.1734619,11.6285706,3.5548096,14.5667419,8.888916
		c1.0223389,1.3332825,2.0779114,2.6889648,3.2443542,3.944397l-16.7666931,4.444397l-0.0888367-0.1444702
		c-1.4987793-2.2440491-2.8432312-4.4662476-4.1541443-6.9551086L365.3976135,505.7625122z M375.7752686,522.6624756
		l-0.8999329-1.3110962l-0.1000061-0.1444092c2.3667908-0.6334229,4.6556091-1.1112061,6.6667175-1.4333496
		c4.7509155-1.1730347,9.2397156-3.2270508,13.233429-6.055542c0.0342712,3.3601685,0.6429138,6.6896362,1.7998657,9.8444824
		c-6.2723694-0.4313354-12.5711975,0.2611084-18.6001282,2.0444946c-0.5221863-0.7444458-1.1111755-1.4666748-1.5777588-2.222168
		L375.7752686,522.6624756z M380.3420715,529.1069336c-0.5445862-0.7444458-1.1111755-1.5111084-1.6109924-2.222168
		c5.9641418-1.6374512,12.1653137-2.2388306,18.333252-1.777832c0.9280701,2.1693115,2.1101379,4.2207642,3.5220642,6.111145l0,0
		c-4.318573,1.6793213-9.0911865,1.7815552-13.4779053,0.2888794c-1.8914185-0.4533691-3.8103027-0.7836304-5.7444153-0.9889526
		l-0.6334229-0.8666992L380.3420715,529.1069336z M388.1199646,539.1068726l-0.789032-0.9221191
		c-1.5333557-1.8666992-3.1111145-3.8778076-4.76651-6.0445557c1.4112549,0.2111206,2.8110046,0.4777832,4.1890564,0.7888794
		c2.4919128,0.6502075,5.0482788,1.0228882,7.6222534,1.1112061c1.921936,0.0120239,3.8302917-0.322998,5.6332092-0.9889526
		c-1.179657,4.2163696-3.1063538,8.1865234-5.6888123,11.722168l-0.6222229,0.7554321l-0.388916-0.4221191
		c-1.888031-2.1552124-3.6437988-4.1773682-5.2659912-6.1330566L388.1199646,539.1068726z M394.686676,546.6179199
		l0.7554932-0.8999023c2.8852539-3.9564819,5.0035095-8.4186401,6.2445679-13.1556396
		c2.1755676,2.5628052,4.7766724,4.7313843,7.6887207,6.4110718c-4.2836304,3.1612549-8.1088562,6.9005127-11.3667603,11.111084
		c-0.9779358-1.0221558-1.9667053-2.0222778-2.9334412-3.0666504L394.686676,546.6179199z M400.1645813,552.3845825
		l-1.1111755-1.1888428c3.3582764-4.3753662,7.3286133-8.2446899,11.7889404-11.4888916
		c1.20578,0.6196899,2.4532776,1.1542969,3.7333069,1.5999756c0.9521484,0.3197632,1.9198914,0.5903931,2.8998718,0.8110962l0,0
		c-2.2250977,4.0640869-5.8139648,7.2121582-10.1332092,8.888916c-1.8615723,0.928772-3.651947,1.9946899-5.3554993,3.1889648
		l-0.5333862-0.5222168L400.1645813,552.3845825z M408.9756775,560.8179321l-1.0111389-0.8999634
		c-1.7001648-1.555542-3.3331909-3.111084-4.9109497-4.6555786c1.5828247-1.0898438,3.2389221-2.0699463,4.955719-2.9334717
		c4.1920776-1.7005005,7.76297-4.6433716,10.2332153-8.4333496c1.8093567,3.9899902,2.8859558,8.2731323,3.177887,12.6444702
		v0.3999634l-10.1776123,5.8778076c-0.5445557-0.4777222-1.1111755-0.9332886-1.6333618-1.4110718L408.9756775,560.8179321z
		 M416.975708,567.6957397c-0.6222229-0.5-1.2332458-1.0221558-1.9778748-1.6444092
		c-0.7446289-0.6221924-1.7110291-1.4777222-2.5665283-2.222168l9.0111389-5.2000122
		c-0.10849,4.9526367,0.7249756,9.8807373,2.455658,14.5222778c-2.188446-1.6998291-4.4440308-3.5108643-6.9993591-5.5997925
		L416.975708,567.6957397z M431.5312195,578.5845947c-1.8554688-1.2666626-3.4888306-2.4110718-5.0109863-3.5110474
		c-2.811676-5.7493896-4.0608521-12.1373901-3.6221008-18.5223389c-0.3305969-4.8687134-1.5706177-9.6323242-3.6556396-14.0444946
		c1.593689,0.2658081,3.2063599,0.3995972,4.822113,0.3999023c1.737793-0.0147095,3.4708557-0.185791,5.1777954-0.5111694
		c-2.2932129,8.0184937-2.087738,16.5456543,0.5889893,24.444458c2.2657776,4.3215942,3.8584595,8.9639893,4.7221069,13.7666016
		l-0.9999695-0.6555786L431.5312195,578.5845947z M457.6980286,593.8179321
		c-2.2223816-1.1112061-4.444397-2.222168-6.666748-3.3887939l-0.6998596-0.3667603l-0.9443665-0.499939
		c-2.5665283-1.4000854-5.2110291-2.9222412-7.8555603-4.5222168l-1.1111755-0.7110596l-0.733429-0.4667358l0,0
		c0.1071472-4.6322632-1.0162354-9.2102051-3.2555542-13.2666626c-2.8988342-5.3543091-2.746582-11.8430176,0.400116-17.055603
		c0.6445923-1.5667725,1.3000488-3.1555176,1.7998657-4.8001099l7.2445374-4.1778564
		c1.4444885,1.0371094,2.7645569,2.2376709,3.9333801,3.5778809c4.6132202,6.9632568,11.8767395,11.7333374,20.099884,13.2000122
		c6.3520508,1.2051392,12.0958252,4.5595093,16.2665405,9.5l0.2221069,0.4333496l-24.5110474,24.5109863
		c-0.5889893-0.27771-1.1111755-0.5111694-1.7445679-0.7888794L457.6980286,593.8179321z M506.7424927,610.7178955
		c-2.7666016-0.5888062-5.4555359-1.2000122-7.9888306-1.8444824l-1.2112122-0.2888794
		c-2.8001709-0.722229-5.7223816-1.555542-8.8887634-2.5332642l-1.6665955-0.5222168l-0.7222595-0.2332764
		c-2.3111877-0.7444458-4.6000061-1.5111694-6.7999878-2.3000488l-0.6222229-0.222229l-1.7221985-0.6222534
		c-3.111084-1.111145-5.9112549-2.222168-8.5445862-3.333374l-1.1111755-0.499939
		c-1.3444824-0.5778198-2.7554016-1.2444458-4.1442871-1.8778687l23.7779541-23.777771l1.2220459,2.4000244l-0.5333862-3.0888672
		l24.1777344-24.1777344c8.2790527,8.1563721,17.5432129,15.2481079,27.5776978,21.111084l-25.0223389,43.333252
		c-1.7001953-0.2889404-3.4000244-0.5778198-5.0666199-0.8999634L506.7424927,610.7178955z M538.3868408,614.9179688h-0.2665405
		c-2.4776611-0.1444702-5.0001221-0.333313-7.5110474-0.5666504l-0.8778687-0.0778198l-1.4556885-0.1332397
		c-3.1999512-0.333313-6.3554688-0.7332764-9.388916-1.1888428l-1.1112061-0.1778564l-0.8222656-0.1332397l-0.9667358-0.1778564
		l24.7335205-42.8444824c10.0887451,5.7610474,20.8570557,10.2401733,32.0556641,13.333313l-8.5446167,31.9110718
		c-4.5223389,0.2888794-9.0667725,0.4889526-13.666748,0.4889526c-2.9446411,0-6.0333252-0.0778198-9.7334595-0.2445068
		L538.3868408,614.9179688z"/>
	<path id="パス_51" d="M768.6984863,403.7738647c0.0919189-120.4900208-97.5100708-218.2410431-218.0002441-218.3330994
		C430.208374,185.348877,332.4571838,282.9508667,332.3652954,403.44104c0,0.1109009,0,0.2219543,0,0.3328247
		c0,3.5444336,0.0888367,7.2333374,0.27771,10.9554749c0,0.7332764,0.0888367,1.4555054,0.1556396,2.222168
		c0.0444031,0.4815063,0.0816956,0.9667358,0.1112061,1.4555359v0.4555664
		c0.1444397,2.222168,0.2889099,4.4443665,0.5110168,6.6667175c0.0888367,0.9221497,0.2112427,1.8444519,0.322113,2.7555847
		l0.2889099,2.3778076c0.2221069,1.8444519,0.444519,3.6999207,0.7110596,5.5555725
		c0.1556396,1.0333557,0.333313,2.0555115,0.5109863,3.0888672l0.3665466,2.111145
		c0.3001099,1.777832,0.5998535,3.5444641,0.9555359,5.3000488c0.2221069,1.1112061,0.4665833,2.2221985,0.7222595,3.333374
		l0.3665466,1.6555786c0.400116,1.7888489,0.7890625,3.5778503,1.2332458,5.3444824
		c0.3112793,1.2332458,0.6446228,2.444458,0.9779358,3.666687l0.2444763,0.9111328
		c0.5109863,1.8666382,1.0223389,3.72229,1.5777588,5.555542c0.400116,1.3332825,0.8334656,2.6445312,1.2668152,3.9666138
		l0.1888733,0.5777893c0.5889893,1.8000183,1.1888123,3.6000671,1.8222351,5.3888855
		c0.5333862,1.4889221,1.1111755,2.9556274,1.6777954,4.444397c0.1668091,0.4443665,0.333313,0.8777161,0.4889526,1.3222656
		c0.2332764,0.6221924,0.4553833,1.2556152,0.7110596,1.888855l0.9667358,2.2221985
		c0.4591064,1.1036987,0.9260254,2.2147217,1.4000854,3.3333435l1.0443726,2.4555054
		c0.4333496,0.9777222,0.8999329,1.944458,1.3556519,2.8999939l0.9223022,1.9444885
		c0.2000732,0.4333496,0.400116,0.8777161,0.6110229,1.3000488c1.4000854,2.8888245,2.8446045,5.7111816,4.2999268,8.3889465
		l0.5554199,0.9889221l0.3889465,0.6778564c1.2444458,2.222168,2.5220947,4.4443665,3.8109741,6.6667175
		c0.4889526,0.8150024,0.9816284,1.6260986,1.4777222,2.4332886c1.3112488,2.1333618,2.6889343,4.27771,4.0998535,6.388855
		l0.4333496,0.6555786l0.6446228,0.9777832c1.7109985,2.5222778,3.5332336,5.0888062,5.4334717,7.6333008l0.8666992,1.111145
		l0.5221863,0.6888428c1.4818115,1.9332886,2.9852905,3.8445435,4.5111694,5.7334595
		c0.5889893,0.722229,1.1888428,1.4555054,1.789032,2.222168c1.7890015,2.1555786,3.6000366,4.2332764,5.3442993,6.1777954
		l0.8442993,0.9555054c1.988739,2.222168,4.099884,4.444397,6.4555054,6.777771l1.2000122,1.1888428l0.6334229,0.6110229
		c1.6886292,1.6668091,3.4071045,3.303894,5.155426,4.9111328l0.4553833,0.4221802l1.5557251,1.4223022
		c2.5888977,2.333374,4.900116,4.333313,7.1000671,6.1555176c2.1999817,1.8222656,4.5888367,3.6889038,7.3890076,5.8110962
		l1.6777649,1.2444458l0.5110168,0.3776855c1.9185486,1.414856,3.8594666,2.7925415,5.8220825,4.1333008l0.733429,0.5111694
		l1.4000854,0.9555054c2.8110046,1.8778687,5.3999023,3.5444946,7.9111633,5.0778198l1.1111755,0.6221924
		c2.2223511,1.3666992,4.6776733,2.7556152,7.1665649,4.1222534l2.4888611,1.3444824
		c2.111145,1.1112061,4.3111267,2.222168,6.5222778,3.333374l0.8222961,0.4111328l1.2776489,0.6334229
		c2.9110413,1.4000854,5.8220825,2.6999512,8.6334229,3.8999634l1.0223389,0.4221802l0.7666931,0.3110962
		c2.377655,0.9889526,4.8000793,1.944458,7.1889038,2.833374l2.722168,0.999939
		c2.4220886,0.8666992,4.888916,1.7000122,7.3222046,2.4779053l0.7998962,0.2554932l1.1111755,0.3555298
		c2.9666443,0.9221191,6.0777283,1.7999878,9.2332458,2.6221313l1.4112854,0.3444824l0.9111023,0.22229
		c2.4332886,0.6000366,4.900116,1.166626,7.333374,1.6887817l2.8554382,0.5888672
		c2.8554382,0.5665894,5.6776123,1.111145,8.3889771,1.499939l0.5777588,0.1000366l0.7334595,0.1221924
		c3.0334473,0.4667969,6.222168,0.8666992,9.7445679,1.2444458l1.8222656,0.1778564l0.8887329,0.0778198
		c2.500061,0.2332764,5.0333862,0.4221802,7.5222778,0.5665894h0.5997925l2.3223877,0.1333008
		c3.7557373,0.166626,7.0444946,0.2554932,10.0779419,0.2554932
		C670.9625854,621.7489014,768.5394897,524.1820068,768.6984863,403.7738647z M538.2205811,620.0960083h-0.5998535
		c-2.4776611-0.1444092-4.9888916-0.333313-7.4777832-0.5665894l-0.8999634-0.0778198l-1.7998657-0.166687
		c-3.5-0.3666992-6.666687-0.7666626-9.6889648-1.2332153l-1.3000488-0.22229
		c-2.7001343-0.4221802-5.5555725-0.9221191-8.3333435-1.4888916l-2.844574-0.5888672
		c-2.4112244-0.5111694-4.8665466-1.111145-7.277771-1.6777344l-0.9223022-0.22229l-1.3776855-0.3445435
		c-3.1443481-0.8222656-6.2221985-1.6999512-9.1776733-2.611084l-1.1111755-0.3445435l-0.8110962-0.2666626
		c-2.4220581-0.7666626-4.8665161-1.5999756-7.2777405-2.4666748l-2.7001343-0.9889526
		c-2.377655-0.888916-4.77771-1.833252-7.1445007-2.8111572l-0.7778625-0.3110962l-0.9999695-0.4111328
		c-2.7889709-1.1888428-5.6776123-2.4888916-8.5666199-3.8778076l-1.2556152-0.6221924l-0.8334656-0.4111328
		c-2.2223816-1.1112061-4.3887939-2.222229-6.4778748-3.333374l-2.4776917-1.333313
		c-2.4664917-1.3554688-4.8556824-2.7333374-7.1221313-4.0888062l-1.1111755-0.6222534
		c-2.500061-1.5221558-5.0665894-3.166687-7.8555603-5.0333252l-1.3888855-0.944519l-0.733429-0.5111694
		c-1.9480591-1.3407593-3.874054-2.7111816-5.7776794-4.111084l-0.5221863-0.388916l-1.6553955-1.2332764
		c-2.7889709-2.0999146-5.1890259-3.9887695-7.3889771-5.8110352c-2.1999817-1.8222656-4.444397-3.7555542-7.011261-6.0777588
		c-0.5221863-0.4667358-1.0331726-0.9332886-1.5445251-1.4110718l-0.4553833-0.4221802
		c-1.7333984-1.6001587-3.4407043-3.2258911-5.1222229-4.8777466l-0.6333923-0.6221924
		c-0.400116-0.388916-0.7998962-0.777832-1.1888428-1.166626c-2.3332214-2.3555908-4.4443665-4.555603-6.4110718-6.722168
		l-0.8334656-0.944519c-1.7445679-1.9332886-3.5332336-4-5.3110657-6.1333618l-1.777832-2.166748
		c-1.5258789-1.8740845-3.0073242-3.7741699-4.4443665-5.7000122l-0.5333862-0.7000122l-0.8554993-1.1112061
		c-1.8778381-2.5332642-3.7000732-5.0888062-5.3887329-7.5888672l-0.6222229-0.944519l-0.4333496-0.666626
		c-1.4000549-2.0999756-2.766571-4.2332764-4.0666199-6.3556519c-0.5001526-0.8000488-0.9887695-1.611145-1.4777222-2.4222412
		c-1.2776794-2.1443481-2.5556946-4.3555298-3.7889404-6.5888977l-0.388916-0.6888428
		c-0.1777039-0.3223267-0.3665771-0.6444397-0.5445862-0.9667358c-1.4444885-2.666748-2.8778076-5.4667358-4.2666931-8.3333435
		c-0.2000732-0.4221497-0.400116-0.8554993-0.5998535-1.277832l-0.9223022-1.9555054
		c-0.4553833-0.9555359-0.9111023-1.9110718-1.3332825-2.8555908l-1.0331726-2.444458
		c-0.4665833-1.1111755-0.9335022-2.2221985-1.3888855-3.333374l-0.9667358-2.2221985
		c-0.2444763-0.6000061-0.4665833-1.2110291-0.6890259-1.833252s-0.333313-0.8999329-0.5221863-1.4111023
		c-0.5554199-1.4555054-1.1111755-2.9110413-1.6333618-4.4443665c-0.6334229-1.7666321-1.2220764-3.5556335-1.8110657-5.3444824
		l-0.1888733-0.5777893c-0.4333496-1.3110657-0.8554993-2.6111145-1.2556152-3.9333801
		c-0.5554199-1.833252-1.1111755-3.6777039-1.5665588-5.555542l-0.2556763-0.9111328
		c-0.333313-1.2110291-0.6666565-2.4110718-0.9667358-3.6333008c-0.4445496-1.7555847-0.8334656-3.5332336-1.2332458-5.3000488
		l-0.3665466-1.6555786c-0.2444763-1.1111755-0.5001526-2.222168-0.7222595-3.333374
		c-0.3445129-1.7444153-0.6445923-3.5-0.9443359-5.2556152l-0.3665466-2.1333618
		c-0.1777039-1.0111389-0.3557129-2.0222778-0.5110168-3.0444641c-0.26651-1.8222351-0.4889526-3.6554871-0.6998596-5.4889221
		l-0.2889099-2.4000244c-0.1220703-0.8999329-0.2332764-1.8000488-0.322113-2.7111511
		c-0.2221069-2.2221985-0.3665466-4.444397-0.5110168-6.666748v-0.4555664c0-0.4889526-0.0776367-0.9777527-0.1112061-1.4667053
		c-0.055603-0.7110596-0.1112366-1.4222717-0.1444702-2.1443481c-0.1776733-3.6889038-0.27771-7.3555908-0.27771-10.8778381
		c0-119.6616211,97.0048828-216.6666565,216.6666565-216.6666565s216.666687,97.0050354,216.666687,216.6666565
		s-97.0048828,216.666687-216.666687,216.666687c-2.9998779,0-6.277771-0.0888672-9.9998779-0.2554932L538.2205811,620.0960083z"/>
</g>
</svg>
