<?xml version="1.0" encoding="utf-8"?>
<!-- Generator: Adobe Illustrator 27.0.0, SVG Export Plug-In . SVG Version: 6.00 Build 0)  -->
<svg version="1.1" id="レイヤー_1" xmlns="http://www.w3.org/2000/svg" xmlns:xlink="http://www.w3.org/1999/xlink" x="0px"
	 y="0px" viewBox="0 0 500 500" style="enable-background:new 0 0 500 500;" xml:space="preserve">
<style type="text/css">
	.st0{fill:#FFFFFF;}
</style>
<path id="パス_12" class="st0" d="M249.9998016,5.3400168c-135.1257324,0-244.6665497,109.5411148-244.6665497,244.666748
	S114.8742676,494.6734009,250,494.6733093c135.1255188,0,244.6665344-109.5410156,244.6665344-244.6666412
	C494.5011292,114.9494934,385.0569763,5.5052185,249.9998016,5.3400168z M249.9998016,493.2666626
	C115.6656876,493.2665405,6.766561,384.3673096,6.766561,250.0332184S115.6658936,6.7998757,250,6.7999778
	c134.3235168,0.0001016,243.2185974,108.8830566,243.2332458,243.2066956
	c-0.1544189,134.2689972-108.964447,243.0760651-243.2334442,243.2266083V493.2666626z"/>
<path id="パス_13" class="st0" d="M250,0C111.9287109,0,0,111.9288101,0,250s111.9287109,250,250,250s250-111.9288025,250-250
	C499.8421326,111.9943237,388.0057678,0.1579793,250,0z M250,498.5333252
	C112.7388535,498.5333252,1.4666748,387.2611389,1.4666748,250S112.7388535,1.4666748,250,1.4666748
	S498.5333252,112.7388535,498.5333252,250l0,0C498.3752441,387.1956482,387.1956482,498.3753357,250,498.5333252z"/>
<path id="パス_14" class="st0" d="M210.0132294,30.893301c4.230545,0.0023384,7.6619415-3.425293,7.6641846-7.6558437
	c0.0022278-4.2305508-3.425293-7.6618452-7.6558533-7.6641846c-4.230545-0.0022383-7.6619415,3.4253941-7.6641846,7.6558437
	c-0.0001984,0.446167,0.0384521,0.8915195,0.1157684,1.3308716
	C203.1018066,28.2296238,206.2900848,30.9077454,210.0132294,30.893301z M204.9399872,19.6799221
	c1.9622803-2.8017178,5.824173-3.4822598,8.6256866-1.5200806c2.801712,1.9621773,3.482254,5.8240757,1.5201874,8.6257935
	c-1.9622803,2.8017159-5.8241882,3.4822578-8.6259003,1.5200806c-1.3456268-0.9424858-2.2617645-2.3810844-2.5465851-3.9991264
	c-0.279953-1.6096992,0.0917511-3.2645664,1.0331116-4.5999146L204.9399872,19.6799221z"/>
<path id="パス_15" class="st0" d="M171.2398224,39.6800232c3.3321228,0.0038643,6.036377-2.6941948,6.0402527-6.0264091
	c0.0038605-3.3321114-2.6940918-6.036375-6.0262146-6.0402412c-3.3321075-0.0038662-6.0365753,2.6941929-6.0404358,6.0263062
	c-0.000824,0.6953926,0.1186066,1.385601,0.3529816,2.0403023
	C166.4160156,38.0830383,168.6909943,39.6870422,171.2398224,39.6800232z M167.0930939,31.6800442
	c0.5088348-1.0982265,1.4351501-1.9478359,2.5732422-2.3600273c0.5019226-0.1836128,1.0321045-0.2784214,1.5665741-0.2800484
	c2.5258331,0.0085449,4.566452,2.0629883,4.5579071,4.5888271c-0.0065155,1.9124336-1.2023926,3.6189766-2.9978485,4.2778511
	c-2.3728485,0.8587646-4.9930878-0.3634644-5.8599854-2.7333565c-0.4003906-1.1316948-0.335495-2.3759995,0.1802521-3.4599819
	L167.0930939,31.6800442z"/>
<path id="パス_16" class="st0" d="M132.8998871,58.0332947c0.6520538,0.1758842,1.3244629,0.2655029,1.9999084,0.2666206
	c4.2415466,0.0033569,7.6827087-3.432312,7.6861572-7.6738472c0.0034637-4.2415352-3.4324036-7.6828003-7.6739502-7.6861572
	c-4.2415314-0.0033569-7.6826935,3.432312-7.6861496,7.6738472
	C127.2232056,54.0850334,129.549057,57.1266174,132.8998871,58.0332947z M128.8998413,49.0266418
	c0.8845978-3.3041382,4.2803955-5.2655029,7.5844269-4.3807983c3.3040466,0.8846016,5.2655029,4.2802925,4.3807068,7.5844307
	c-0.884613,3.304039-4.2801971,5.2654037-7.5842285,4.3807983c-1.5865173-0.4248047-2.9394531-1.4622993-3.7609863-2.8844185
	c-0.8341522-1.4280205-1.0575409-3.131916-0.6199188-4.7266655V49.0266418z"/>
<path id="パス_17" class="st0" d="M101.3332138,81.2533035c0.2266388,0,0.4599991,0,0.6667023,0
	c4.2305527-0.0044708,7.656456-3.4375992,7.6519775-7.668045c-0.0044708-4.2305527-3.4376984-7.656456-7.668251-7.6519775
	c-1.7987061,0.0019302-3.5394287,0.636795-4.9169922,1.7933121c-3.2415771,2.7184067-3.6655655,7.5499496-0.9470596,10.79142
	c1.3057404,1.5568085,3.1762695,2.5311279,5.2003937,2.7085419L101.3332138,81.2533035z M97.9998779,68.8799515
	c1.1171494-0.9463501,2.5360107-1.4618912,4.0000381-1.4533463c0.1867676,0,0.3666229,0,0.5533905,0
	c3.4114532,0.2958145,5.937088,3.3009872,5.6412735,6.7123413c-0.2958145,3.4114609-3.3009872,5.9370956-6.7124405,5.6412735
	c-3.4112549-0.2957153-5.9370956-3.3009796-5.6412811-6.7123413c0.1422119-1.640213,0.9309921-3.1565323,2.1923828-4.2145767
	L97.9998779,68.8799515z"/>
<path id="パス_18" class="st0" d="M73.6532593,108.0333481c3.3321152-0.0005112,6.0329208-2.7021332,6.0323105-6.0342407
	c-0.000412-3.3322144-2.7020264-6.0329208-6.0341415-6.0324097c-3.3321152,0.0005035-6.0329208,2.7021255-6.0325089,6.0342407
	c0.0004044,1.7857819,0.791626,3.4796143,2.1610489,4.6257477C70.864563,107.538147,72.2366333,108.0363998,73.6532593,108.0333481z
	 M70.1532974,99.0600586c1.6235352-1.9349136,4.5082626-2.187294,6.4430771-0.5637589
	c1.9348145,1.6236343,2.187294,4.508255,0.5637589,6.4430695c-1.6235352,1.9349213-4.508255,2.1873016-6.4430695,0.5637665
	c-0.0012207-0.0010223-0.0024414-0.002037-0.0036621-0.0030518c-1.9394989-1.6064453-2.2094727-4.481102-0.6030273-6.4205933
	c0.0054932-0.0065155,0.0107803-0.0129242,0.0162735-0.0194321H70.1532974z"/>
<path id="パス_19" class="st0" d="M46.7731743,141.5066986c1.1576309,0.6748505,2.4733467,1.0314026,3.8132706,1.0333252
	c0.675457-0.0014191,1.3476562-0.0910339,1.9999199-0.2666168c4.090374-1.09375,6.5197754-5.2964325,5.4260254-9.3869019
	s-5.2964287-6.5197754-9.3870049-5.4260254c-4.0903702,1.09375-6.5197754,5.2964325-5.4260254,9.3869019
	c0.5257187,1.9658356,1.8113213,3.6419678,3.5736084,4.659317H46.7731743z M45.2397652,131.7733307
	c1.7130547-2.9606171,5.501709-3.9720688,8.4623222-2.2591248c2.9606133,1.7129517,3.972168,5.501709,2.2591133,8.462326
	c-1.7112198,2.9577637-5.4945869,3.9706421-8.454792,2.2634888c-2.9587822-1.7128448-3.9725761-5.4974365-2.2664375-8.4599762
	L45.2397652,131.7733307z"/>
<path id="パス_20" class="st0" d="M31.0199986,178.446701c3.975832,1.4456177,8.3707676-0.6055603,9.8164883-4.5813904
	c1.4455147-3.9758301-0.6056709-8.3707733-4.581501-9.816391c-3.9744072-1.4451141-8.3679218,0.6040497-9.8150654,4.5777435
	C24.9958286,172.6029968,27.0453892,176.9976349,31.0199986,178.446701z M27.8199253,169.1134186
	c1.1743164-3.2125854,4.7306309-4.8649139,7.9433193-3.6904907c3.2124825,1.1743164,4.8647041,4.7306213,3.6903877,7.9432068
	c-1.1728897,3.2089233-4.7229004,4.8617554-7.9337559,3.6939545c-3.2084141-1.1735077-4.8628731-4.7212677-3.6999512-7.9334564
	V169.1134186z"/>
<path id="パス_21" class="st0" d="M22.206522,215.9599762c0.3476982,0.0614471,0.7000732,0.0926819,1.0532646,0.0933838
	c3.3138008,0.0006104,6.0005684-2.6851349,6.0011787-5.9988403c0.0006104-3.3136902-2.6851387-6.0004578-5.9987373-6.0011749
	c-3.3138027-0.0006104-6.0005703,2.6851349-6.0011806,5.9988403
	C17.260437,212.9595947,19.3443813,215.4490204,22.206522,215.9599762z M18.7531528,209.2199707
	c0.4364014-2.487793,2.8070068-4.1508026,5.2947998-3.7144012s4.1507988,2.8070068,3.7143974,5.2947998
	s-2.8070068,4.1506958-5.2947998,3.7142944c-0.0026455-0.0003967-0.0050869-0.0009155-0.0077324-0.0013123
	c-2.4770088-0.4500427-4.128418-2.8125-3.6999512-5.2933807H18.7531528z"/>
<path id="パス_22" class="st0" d="M30.7998657,288.6532593c-0.7362881-4.1660461-4.7104893-6.9464111-8.8765469-6.210022
	c-4.1662598,0.7363892-6.9464102,4.7106018-6.2101231,8.8766479c0.6453457,3.65448,3.8155117,6.322113,7.5266514,6.333313
	c0.4471855-0.0015259,0.8931484-0.0415955,1.333416-0.1200256c4.1705322-0.7313232,6.9586182-4.7050171,6.227417-8.8755493
	C30.8004761,288.6562195,30.8000698,288.6546936,30.7998657,288.6532593z M24.3331909,296.0866394
	c-3.3689365,0.5919189-6.5797939-1.6592407-7.1716309-5.0280762c-0.592041-3.3689575,1.6591396-6.5798035,5.0280762-7.1717529
	c3.3656826-0.5913086,6.5743008,1.6549683,7.1702061,5.0198364c0.6048584,3.3516541-1.6217041,6.55896-4.9733467,7.1639099
	c-0.0177002,0.0031433-0.0356045,0.0063171-0.0533047,0.0093689V296.0866394z"/>
<path id="パス_23" class="st0" d="M36.1932373,323.2733154c-3.0224609-1.4115295-6.6168213-0.1055908-8.0283604,2.9168701
	c-1.411541,3.0224609-0.1055908,6.6170349,2.9168701,8.0283508c3.022459,1.4115601,6.6168194,0.1055908,8.0283604-2.9168701
	c0.6785088-1.4526367,0.7513428-3.1152344,0.2030449-4.6217651
	C38.7695312,325.1735535,37.6460762,323.9469299,36.1932373,323.2733154z M37.7866631,330.6799316
	c-1.0644531,2.2906494-3.7841797,3.2845154-6.0746269,2.2202454c-2.2906494-1.0644531-3.2845058-3.7841797-2.2202549-6.0748291
	c0.5128975-1.1035156,1.444294-1.9571838,2.5882969-2.3720093c0.5025215-0.1810913,1.0325127-0.2734375,1.5665703-0.2732544
	c2.5258369,0.0024414,4.5713272,2.052002,4.5688858,4.5778503c-0.0008125,0.6665039-0.1470947,1.3248596-0.4288712,1.9289246
	V330.6799316z"/>
<path id="パス_24" class="st0" d="M52.5865669,357.7199402c-1.9622803-0.5332642-4.0563965-0.256958-5.8133926,0.7666016
	c-3.6631279,2.116272-4.9169922,6.8013306-2.8007011,10.4644775c2.116291,3.6631165,6.8013496,4.9171753,10.4644775,2.8009033
	c3.6631279-2.1163025,4.9169922-6.8015747,2.8007011-10.4646912
	C56.2216187,359.528595,54.548645,358.2454529,52.5865669,357.7199402z M56.5866089,366.7199707
	c-0.8874512,3.3034363-4.284668,5.2618408-7.5880928,4.3743896c-3.3034286-0.8872375-5.2618408-4.284668-4.3743896-7.5878906
	c0.7248917-2.6991882,3.1677246-4.5782471,5.9625244-4.5865784c0.5446358,0.0018311,1.0868301,0.0736389,1.6133614,0.2134094
	c3.3040352,0.8847961,5.2653008,4.2803955,4.3806953,7.5844421c-0.0002022,0.0007935-0.0004044,0.0014038-0.0006104,0.0022278
	H56.5866089z"/>
<path id="パス_25" class="st0" d="M74.2932129,390.3598938c-4.2195663-0.3027344-7.8857422,2.8725281-8.1886826,7.0921021
	c-0.2962189,4.1273804,2.7390594,7.7437134,6.8552704,8.1679077c0.2266388,0,0.4532852,0,0.6667023,0
	c4.2305527,0.0160828,7.6731415-3.4002686,7.689209-7.6306152c0.0152588-3.994751-3.0417862-7.3303223-7.0224991-7.6627502
	V390.3598938z M77.6265488,402.7398682c-2.62146,2.197052-6.52771,1.853241-8.7249756-0.7684326
	c-2.1970673-2.62146-1.8530273-6.52771,0.7684326-8.724762c1.1092072-0.9297791,2.5091553-1.4416504,3.9564972-1.4467468
	c0.1800537,0,0.3666229,0,0.5533905,0c3.4077911,0.2951965,5.9307861,3.2971191,5.6355743,6.7047119
	c-0.1422119,1.6412354-0.9322052,3.1581726-2.1956329,4.2153015L77.6265488,402.7398682z"/>
<path id="パス_26" class="st0" d="M97.3799667,422.4999084c-2.1390839,2.5549316-1.8019638,6.3600464,0.7529678,8.4991455
	c2.5549316,2.1390686,6.3600693,1.8019409,8.4991455-0.7529907c2.1366348-2.552063,1.8029785-6.3521118-0.7454453-8.4928284
	c-2.5254288-2.1455994-6.3118439-1.8375549-8.4574356,0.6878662
	C97.4127197,422.4606323,97.3962402,422.4801636,97.3799667,422.4999084z M105.5065918,429.3199768
	c-1.6235352,1.9348145-4.5082626,2.1872864-6.4430771,0.5637512s-2.187294-4.5082703-0.5637589-6.4430847
	s4.5082626-2.1872864,6.4430771-0.5637512c0.0012207,0.0010071,0.0024414,0.0020447,0.0036621,0.0030518
	c1.9221954,1.6320801,2.1634903,4.5107117,0.5401611,6.440033H105.5065918z"/>
<path id="パス_27" class="st0" d="M138.7132721,442.7601013c-3.6612854-2.1118164-8.3416748-0.8557129-10.4534912,2.805603
	c-2.1120148,3.661499-0.8559113,8.3416748,2.8055878,10.4534912c3.6613007,2.1119995,8.3416748,0.855896,10.4534912-2.805603
	c1.0103302-1.751709,1.2864227-3.8321838,0.7678223-5.7867432
	C141.7662506,445.4566345,140.4796295,443.7763367,138.7132721,442.7601013z M140.2466888,452.4933777
	c-1.7183533,2.9575806-5.5088348,3.9622192-8.4664001,2.243866c-1.4105225-0.8194885-2.4407959-2.1624756-2.8670197-3.7371826
	c-0.8858185-3.303833,1.0742188-6.7002258,4.3778534-7.5860596c0.0008087-0.0002136,0.0014191-0.0003967,0.0022278-0.0006104
	c0.5263367-0.1403809,1.0687256-0.2120056,1.6133728-0.2134094c3.4240723,0.019928,6.18367,2.8118896,6.1637268,6.2359619
	c-0.0061035,1.0760498-0.2923584,2.131958-0.8304749,3.0639648L140.2466888,452.4933777z"/>
<path id="パス_28" class="st0" d="M173.873291,459.1600647c-3.9748077-1.4481812-8.37117,0.5999756-9.8195343,4.5749817
	c-1.4481659,3.974823,0.600174,8.3711853,4.5749817,9.8193359c3.974823,1.4481506,8.3711853-0.5999756,9.8195496-4.5747986
	c0.6955872-1.90979,0.6040344-4.0175171-0.2549286-5.8595581
	C177.3388672,461.276947,175.7836914,459.8513794,173.873291,459.1600647z M177.0733643,468.4933472
	c-1.1720734,3.213501-4.7271729,4.8681641-7.9406738,3.6960754c-3.2133026-1.1720581-4.8681641-4.7271729-3.6960907-7.9404602
	c0.5617371-1.5403137,1.7114258-2.7950134,3.1968231-3.4889832c3.0989532-1.4477539,6.7848663-0.109436,8.2326202,2.989502
	C177.5626678,465.2405701,177.6373291,466.9473267,177.0733643,468.4933472z"/>
<path id="パス_29" class="st0" d="M211.0665894,470.7999573c-3.2824707-0.5780029-6.4119415,1.6141968-6.9899445,4.8966675
	s1.6141663,6.4119263,4.896637,6.9899292c0.3499451,0.0614624,0.7045593,0.0927734,1.0599823,0.0933838
	c3.3355713,0.0301208,6.0642548-2.6495361,6.0943604-5.9852905c0.0268555-2.9785156-2.1217804-5.5318298-5.0610352-6.0146179
	V470.7999573z M214.5199585,477.5398865c-0.4327393,2.4920654-2.8039551,4.1615601-5.2960205,3.7288208
	c-2.4922638-0.4327393-4.1617889-2.8039551-3.7288361-5.2960205c0.4327393-2.4922485,2.8039551-4.1617737,5.2960205-3.7288208
	c0.0050812,0.0007935,0.010376,0.0018311,0.0154572,0.0026245c2.4737549,0.4307251,4.130249,2.7852478,3.6995392,5.2590027
	c-0.0020294,0.0115967-0.0040588,0.0229797-0.0061035,0.0343933H214.5199585z"/>
<path id="パス_30" class="st0" d="M288.6731873,469.1934204c-4.1678772,0.724884-6.9592285,4.6911621-6.234314,8.8590393
	c0.6394348,3.6769714,3.8356323,6.3578491,7.567749,6.3476562c0.4471741-0.0014038,0.8931274-0.041687,1.3334045-0.1200256
	c4.1660461-0.7362976,6.9464111-4.7104797,6.2099304-8.8765564c-0.7362976-4.1662598-4.7105103-6.9464111-8.8765564-6.2101135
	H288.6731873z M291.0798035,482.8400574c-3.3874512,0.4998779-6.5386963-1.8410034-7.0385742-5.2286682
	c-0.4801331-3.2533875,1.6638184-6.3157043,4.8852539-6.9779358c0.3566589-0.0612488,0.7179871-0.0925903,1.0799255-0.0933838
	c3.4204102-0.0193481,6.2088928,2.7380371,6.2280273,6.1584473c0.0170898,3.0352783-2.1683655,5.6357727-5.1613464,6.1415405
	H291.0798035z"/>
<path id="パス_31" class="st0" d="M326.6864929,460.6800232c-3.1347656,1.1407471-4.7509766,4.6067505-3.6102295,7.7415161
	c1.1407471,3.134552,4.6067505,4.7509766,7.7415161,3.6102295c3.134552-1.1409607,4.7509766-4.6067505,3.6102295-7.7415161
	c-0.0006104-0.0012207-0.0010376-0.0024414-0.0014343-0.0036621
	C333.2813416,461.1567078,329.8196411,459.5437622,326.6864929,460.6800232z M332.893158,468.2866516
	c-1.0670776,2.2894287-3.7878418,3.2802124-6.0772705,2.2131348c-2.2892151-1.0668945-3.2802124-3.7878418-2.2131348-6.0772705
	c1.0671082-2.2892456,3.7878418-3.2800293,6.0772705-2.2131348c1.1006775,0.513092,1.9519043,1.4426575,2.3665466,2.5840149
	C333.4638367,465.931488,333.4087219,467.1894226,332.893158,468.2866516z"/>
<path id="パス_32" class="st0" d="M361.2865295,442.7601013c-3.6515503,2.1362305-4.8797607,6.8282166-2.7433472,10.4797363
	c1.0109558,1.7283325,2.6586914,2.9919434,4.5900574,3.5203247c0.6522522,0.1755676,1.3244629,0.2652893,1.9999084,0.2667236
	c4.2305603-0.0050964,7.6558533-3.4389343,7.6505737-7.669281c-0.0050964-4.2305603-3.4387207-7.6558533-7.669281-7.6507568
	c-1.3415527,0.0016174-2.6593018,0.3556213-3.8211975,1.0266113L361.2865295,442.7601013z M368.2131958,454.7600403
	c-2.9640808,1.7071533-6.7507019,0.6884766-8.4578552-2.2756042c-1.7073364-2.9638672-0.6884766-6.7507019,2.2753906-8.4578552
	c0.9356689-0.5389404,1.9960632-0.8239746,3.0757751-0.8265991c3.4204102-0.0085449,6.2001648,2.7573547,6.2088928,6.1777649
	C371.3208923,451.5982056,370.1372375,453.651825,368.2131958,454.7600403z"/>
<path id="パス_33" class="st0" d="M393.0799255,420.4932556c-3.2415771,2.7185059-3.6655579,7.5498657-0.947052,10.7914429
	c1.3057556,1.5567932,3.1762695,2.5311279,5.2004089,2.7085266c0.2266235,0,0.4532776,0,0.666687,0
	c1.7962646,0.0014343,3.5347595-0.6341553,4.9066162-1.7934265c3.2883911-2.6613159,3.796814-7.4847412,1.1354675-10.7731018
	c-2.6615295-3.2885742-7.4847412-3.7969971-10.7733154-1.1354675c-0.0705872,0.0571899-0.1401672,0.1155701-0.2087402,0.1751709
	L393.0799255,420.4932556z M401.9866028,431.1066589c-2.62146,2.1972656-6.52771,1.8534546-8.7249756-0.7680054
	c-2.1972656-2.6212769-1.8534546-6.52771,0.7680054-8.7249756c2.6206665-2.1966553,6.5258789-1.8536377,8.7235718,0.7663879
	c2.2019348,2.6271667,1.8570862,6.541748-0.7698669,8.7436829c-0.0012207,0.0010376-0.0022278,0.0018311-0.0034485,0.0028687
	L401.9866028,431.1066589z"/>
<path id="パス_34" class="st0" d="M421.7532349,394.1133728c-2.1392822,2.5596008-1.7984924,6.3685913,0.7611084,8.5078735
	c1.0809326,0.9033203,2.4434509,1.4005737,3.8521423,1.4054565c0.1800537,0,0.3598938,0,0.5332336,0
	c3.3188782-0.2962341,5.7692566-3.2269287,5.4730225-6.5458374c-0.2964172-3.3190918-3.2271423-5.7692261-6.5460205-5.4730225
	c-1.5875244,0.1416016-3.0544128,0.9057617-4.0804138,2.1254578L421.7532349,394.1133728z M429.8798523,400.9334412
	c-1.6239319,1.929718-4.5047913,2.1775208-6.4345093,0.5535889c-1.9297485-1.6241455-2.1775513-4.5048218-0.5534058-6.4345398
	c1.6217041-1.9270935,4.4976807-2.1773376,6.4278259-0.559082c1.9309387,1.5995178,2.1994934,4.4614563,0.5999756,6.3924255
	c-0.0132141,0.0158691-0.0264587,0.0317383-0.0398865,0.0473938V400.9334412z"/>
<path id="パス_35" class="st0" d="M453.2266235,358.4867249c-3.6612854-2.1195374-8.3475647-0.8695374-10.4669189,2.791748
	c-2.1195374,3.6613159-0.8695374,8.3475952,2.791748,10.4669189c3.6612854,2.1195679,8.3473816,0.8695679,10.4669189-2.791748
	c1.0158386-1.7545471,1.294342-3.840332,0.7749329-5.8001709
	C456.277771,361.1828613,454.992981,359.5015564,453.2266235,358.4867249z M454.7600403,368.2200012
	c-1.7153015,2.959198-5.5049744,3.9677124-8.4641724,2.2524109c-2.9591675-1.7154846-3.9676819-5.5049744-2.2523804-8.4641418
	c0.8209229-1.4162292,2.1689758-2.4497681,3.7497864-2.8749695c0.5263367-0.1403809,1.068512-0.2121887,1.6133728-0.2134094
	c3.4240723,0.019928,6.1836548,2.8118896,6.1637268,6.2359619c-0.0061035,1.0760498-0.2923584,2.131958-0.8304749,3.0639648
	L454.7600403,368.2200012z"/>
<path id="パス_36" class="st0" d="M468.9732971,321.5799866c-3.9758301-1.4457092-8.3707886,0.6054688-9.8164978,4.5812988
	c-1.4455261,3.9758301,0.6054688,8.3707886,4.5815125,9.8164978c3.9743958,1.4450989,8.3679199-0.6040344,9.8150635-4.5778503
	C474.9933777,327.4237061,472.9450378,323.0320129,468.9732971,321.5799866z M472.1733704,330.9132996
	c-1.1743164,3.212677-4.7306519,4.8648987-7.9431152,3.6905823c-3.2127075-1.1743164-4.8649292-4.7306213-3.6906128-7.9431152
	c1.1729126-3.2090149,4.7229004-4.8618469,7.9337769-3.6940613c3.1878662,1.1767578,4.8390503,4.6962585,3.7064514,7.8999939
	L472.1733704,330.9132996z"/>
<path id="パス_37" class="st0" d="M477.7932739,284.0332947c-3.2824707-0.5780029-6.4119568,1.6142883-6.9899597,4.8966675
	c-0.5780029,3.2824707,1.6141968,6.4120483,4.8966675,6.9900513c0.345459,0.062561,0.6958008,0.0937805,1.0467529,0.0933838
	c3.3355713,0.0383301,6.0707397-2.634491,6.1091919-5.9700623c0.0341797-2.9848328-2.1168823-5.5469666-5.062439-6.0299683
	L477.7932739,284.0332947z M481.2466431,290.7733154c-0.4787292,2.47995-2.8771973,4.1023865-5.3572693,3.6236572
	c-2.4228821-0.4677429-4.0378723-2.7734375-3.6494751-5.2103577c0.4786987-2.4799805,2.8771973-4.1023865,5.3572388-3.6236572
	C480.02005,286.0306702,481.6350403,288.3363953,481.2466431,290.7733154z"/>
<path id="パス_38" class="st0" d="M470.473114,205.6199646c-2.4263306,3.470047-1.5803833,8.2500153,1.8896484,10.6763763
	c1.2852173,0.8987427,2.8153687,1.3817291,4.3837585,1.383667c0.446991-0.002655,0.893158-0.0428314,1.3334045-0.1200409
	c4.165863-0.7369995,6.9454041-4.7114105,6.2084961-8.8772583c-0.7368774-4.1658478-4.7114868-6.9454956-8.8771362-6.2084961
	c-1.9976807,0.3533936-3.773407,1.4846802-4.9379578,3.145752H470.473114z M475.6731262,203.9133148
	c0.3564453-0.0628662,0.7179565-0.0940857,1.079895-0.0933838c3.4204102-0.0011139,6.1942749,2.7707977,6.195282,6.1913147
	c0.0010071,3.0079041-2.1592102,5.581665-5.1218567,6.1019897c-3.3689575,0.594574-6.5820312-1.6543579-7.1767273-5.0233002
	c-0.5944824-3.3690338,1.6544495-6.5821381,5.023407-7.176712l0,0V203.9133148z"/>
<path id="パス_39" class="st0" d="M463.833313,176.7267303c3.025116,1.4144897,6.6241455,0.1087494,8.0385437-2.9163513
	c1.4145813-3.0252075,0.1088257-6.6241455-2.9162598-8.0386353c-3.0253296-1.4144897-6.6241455-0.1087494-8.0387573,2.9163513
	c-0.680542,1.4556885-0.7537842,3.1222534-0.2034302,4.631958
	C461.257019,174.8265076,462.3802795,176.0531158,463.833313,176.7267303z M462.2398987,169.3201141
	c1.0670776-2.2893219,3.7878418-3.2801208,6.0772705-2.2131348c2.2892151,1.0671082,3.2802124,3.7879486,2.2131348,6.0772705
	c-1.0671082,2.2893372-3.7880554,3.2801361-6.0772705,2.2131348c-1.1006775-0.5130005-1.9519043-1.4425659-2.3665466-2.5839233
	c-0.4241943-1.1349487-0.3786316-2.3921661,0.1267395-3.4934387L462.2398987,169.3201141z"/>
<path id="パス_40" class="st0" d="M447.4132385,142.2800751c0.6522522,0.1756744,1.3244629,0.2652893,1.9999084,0.2666168
	c4.2415466,0.0033569,7.6827087-3.432312,7.6861572-7.6738434c0.0034485-4.2415466-3.4324036-7.6828079-7.6739502-7.6861649
	s-7.6827087,3.4323196-7.6861572,7.673851C441.7365417,138.3318024,444.0624084,141.3733978,447.4132385,142.2800751z
	 M446.2999573,129.513443c2.9620361-1.7104034,6.7498779-0.695694,8.4602661,2.266449
	c1.7106323,2.9621277,0.6958008,6.7499695-2.2662354,8.4603882c-2.9622192,1.7104034-6.750061,0.695694-8.4604797-2.266449
	c0-0.0000916-0.0002136-0.0003052-0.0002136-0.0003967c-1.7183228-2.9319305-0.734436-6.701767,2.1974792-8.420105
	c0.0229797-0.0135345,0.04599-0.0268555,0.0691833-0.039978V129.513443z"/>
<path id="パス_41" class="st0" d="M425.7066956,109.6333313c0.2266235,0,0.4599915,0,0.666687,0
	c4.2265015-0.1841202,7.503479-3.7595596,7.3193359-7.986145c-0.1841125-4.2264786-3.759552-7.5034561-7.9860229-7.3193359
	c-4.2265015,0.1841202-7.503479,3.7595596-7.3193359,7.9860458
	C418.5600891,106.2825012,421.7381897,109.4605026,425.7066956,109.6333313z M422.3733521,97.2533646
	c2.62146-2.1972656,6.52771-1.8533325,8.7249756,0.7680283c2.1972656,2.62146,1.8534241,6.5278091-0.7680359,8.7249756
	c-2.6208496,2.1966553-6.5258789,1.8536377-8.7235413-0.7662964c-2.1919861-2.6113892-1.8520203-6.5053329,0.7592773-8.6973038
	c0.0091553-0.0076294,0.0180969-0.0152588,0.0272522-0.022789L422.3733521,97.2533646z"/>
<path id="パス_42" class="st0" d="M397.9865417,79.6600342c0.1800537,0,0.3599243,0,0.5332642,0
	c3.3103333-0.1473007,5.8746338-2.9502335,5.7275391-6.2606812c-0.1473083-3.3104477-2.9504395-5.874733-6.2608032-5.7274399
	c-3.3103333,0.1472015-5.8746338,2.9502411-5.7275391,6.2606812
	C392.3971558,77.0367432,394.8822937,79.5219955,397.9865417,79.6600342z M394.4933167,70.6867447
	c0.7788086-0.9308853,1.8973694-1.511734,3.1066895-1.6133575h0.4066772
	c2.5221863,0.0067139,4.5611572,2.056778,4.5544434,4.5788574c-0.0067139,2.5220718-2.0568848,4.5611572-4.5788574,4.5544434
	c-2.5221558-0.0067139-4.5611572-2.0567856-4.5544434-4.5788574c0.0028687-1.0714722,0.3822937-2.1078491,1.0722046-2.9277573
	L394.4933167,70.6867447z"/>
<path id="パス_43" class="st0" d="M361.2865295,57.2332764c1.1600647,0.6743355,2.4782104,1.0286446,3.8199768,1.0267143
	c4.2305603,0.0060005,7.6647949-3.4186821,7.6708984-7.6491318c0.0058899-4.2305489-3.4187927-7.6648941-7.6491394-7.6708984
	c-4.2305298-0.0058975-7.664978,3.4186821-7.6708984,7.649231
	C357.4535217,53.3293648,358.9136658,55.8629341,361.2865295,57.2332764z M359.7531128,47.499897
	c1.7116394-2.9656982,5.5033264-3.982338,8.4690247-2.27071s3.9823608,5.5033379,2.2707214,8.4690361
	s-5.5033264,3.9822388-8.4690247,2.27071c-1.4255981-0.8228569-2.4656372-2.1787529-2.890625-3.7690239
	c-0.4268494-1.5845718-0.2036743-3.2739258,0.6199036-4.6932983V47.499897z"/>
<path id="パス_44" class="st0" d="M326.1333313,40.8400459c3.9764404,1.4438896,8.3705444-0.6091309,9.8144531-4.5855713
	c1.4438782-3.9764404-0.6091309-8.3705635-4.5855713-9.8144512c-3.9764404-1.4438896-8.370575,0.6091309-9.8144531,4.5855713
	c-0.6931763,1.9086704-0.5999756,4.0144863,0.2589722,5.8544903
	C322.6671448,38.7213135,324.2233276,40.1456718,326.1333313,40.8400459z M322.9267273,31.5067539
	c0.8953857-2.4494419,3.2253113-4.0790806,5.8333435-4.0799961c3.4204102-0.0150547,6.2054443,2.7456665,6.2204895,6.1660767
	c0.0150757,3.4205132-2.7457581,6.2054443-6.1661682,6.2205009c-0.7442322,0.0032539-1.4831543-0.1276665-2.1809998-0.3865585
	c-3.1943665-1.1737061-4.8478088-4.7006226-3.7068481-7.9067974L322.9267273,31.5067539z"/>
<path id="パス_45" class="st0" d="M288.933197,29.1999817c0.3499451,0.0617466,0.7045593,0.0929775,1.0599976,0.0933838
	c3.3467407-0.0001011,6.059967-2.713419,6.0597534-6.0601807c-0.0001831-3.3468628-2.7134094-6.0599766-6.0601807-6.0597744
	c-3.3469543,0.000103-6.059967,2.7133179-6.0597534,6.0601807C283.9330139,26.1715183,286.0405579,28.6861668,288.933197,29.1999817
	z M285.4798279,22.4666843c0.5409851-2.4671421,2.9797363-4.0286255,5.4467773-3.4875488
	c2.3240356,0.5096436,3.8690186,2.7160645,3.5532837,5.0742607c-0.3352966,2.503458-2.6365356,4.2610664-5.1399841,3.9257812
	c-2.5034485-0.3352871-4.2610779-2.6365166-3.9257812-5.1398735
	C285.4308167,22.7141819,285.4527893,22.5898743,285.4798279,22.4666843z"/>
<path id="パス_46" class="st0" d="M245.5400543,14.3467207l9.039917,14.0599566l1.3334198-0.3933716V11.4533491h-1.4666748
	v14.0666704l-9.0334015-14.0666704l-1.3334198,0.3933716v16.2199898h1.4666748L245.5400543,14.3467207z"/>
<path id="パス_47" class="st0" d="M26.6866055,250c0-3.8254852-3.1011963-6.9266815-6.9266777-6.9266815
	S12.833252,246.1745148,12.833252,250s3.1011963,6.9266663,6.9266758,6.9266663S26.6866055,253.8254852,26.6866055,250
	L26.6866055,250z"/>
<path id="パス_48" class="st0" d="M480.2397766,243.0733185c-3.8255005,0-6.9266968,3.1011963-6.9266968,6.9266815
	s3.1011963,6.9266663,6.9266968,6.9266663c3.82547,0,6.9266663-3.101181,6.9266663-6.9266663
	S484.0652466,243.0733185,480.2397766,243.0733185L480.2397766,243.0733185z"/>
<path id="パス_49" class="st0" d="M250.0198364,473.313385c-3.8254852,0-6.9266815,3.1011963-6.9266815,6.9266968
	c0,3.82547,3.1011963,6.9266663,6.9266815,6.9266663s6.9266663-3.1011963,6.9266663-6.9266663
	C256.9465027,476.4145813,253.8453217,473.313385,250.0198364,473.313385L250.0198364,473.313385z"/>
<path id="パス_50" class="st0" d="M415.0066223,384.3066406c1.884552-2.2488403,3.6979065-4.5577087,5.4400635-6.9266663
	c70.3656006-94.1608887,51.0758362-227.536026-43.0849304-297.9017334
	c-94.1609802-70.3656998-227.5360107-51.0758438-297.901825,43.085022
	c-27.4961319,36.7943344-42.3512764,81.4966812-42.3465958,127.4300156c0,3.5733032,0.0933838,7.2333679,0.2732353,10.8733215
	c0.0333633,0.7132874,0.0933838,1.4133606,0.1534004,2.1199341c0.040081,0.47995,0.0779228,0.960083,0.1133232,1.440033
	l0.0667305,1.0333252c0.1332588,2.0533142,0.2732353,4.1066589,0.4799385,6.1400452
	c0.0866699,0.8933411,0.206707,1.7733765,0.3200302,2.666626c0.0732422,0.5333252,0.1466866,1.0666809,0.2067032,1.6000366
	l0.166626,1.3865967c0.1932793,1.6533508,0.3932724,3.3333435,0.6667099,4.9400024
	c0.1466866,0.9599609,0.3200264,1.9133301,0.4933662,2.8599854l0.539959,3.0800476
	c0.2532959,1.5000305,0.5133057,2.9933777,0.8133926,4.4733582c0.1999931,1.0066833,0.4333496,2.0000305,0.6667099,3
	l0.6667061,2.9866333c0.3133125,1.4199829,0.6333427,2.8399658,0.9932442,4.2466431
	c0.2667236,1.0400391,0.5601006,2.0666504,0.8532715,3.0933533l0.8199081,2.8999939
	c0.3733292,1.333313,0.7466621,2.6999817,1.1533585,4.0332947c0.3200302,1.0400391,0.6667099,2.0600281,1.0201035,3.0866394
	l0.9665909,2.8733521c0.4266357,1.293335,0.8532715,2.5866699,1.333416,3.8666687
	c0.3800468,1.0466614,0.7867432,2.0799866,1.1999512,3.1066895l1.1466484,2.9532776
	c0.380043,0.9999695,0.753376,2.0000305,1.1732979,3l0.2400703,0.5333252
	c0.5065918,1.2133789,1.0532646,2.4066162,1.5934258,3.5933533l2.3999023,5.3333435l0.3000908,0.6066895
	c0.1599121,0.3399658,0.333252,0.6667175,0.5000801,1.0066833l0.3399658,0.6667175
	c1.0933418,2.2266541,2.2399902,4.4666443,3.4132881,6.6666565c0.4199219,0.7866516,0.8467636,1.5732727,1.2799072,2.353302
	c1.333416,2.4733582,2.6666298,4.7467041,4.000042,6.9600525l0.6199112,1.059967
	c1.5000458,2.460022,3.1066895,4.9733582,4.9267578,7.686676c0.3000946,0.4466858,0.6066895,0.8866272,0.9065781,1.333313
	l0.4933701,0.7132874c1.3332062,1.9467163,2.6999893,3.868927,4.0999298,5.7667236l0.3867645,0.5266113
	c0.3599014,0.4933777,0.713295,0.9800415,1.0799103,1.4666748c1.9999237,2.6200562,3.8132782,4.960022,5.6199188,7.1533203
	l0.7867432,0.9267273c1.6467285,2.0000305,3.4000626,4.0000305,5.2266388,5.9999695
	c0.5912323,0.6577454,1.1889648,1.3244629,1.7934189,2c1.6866074,1.833313,3.4132919,3.6400452,5.1267471,5.3666382
	l1.293335,1.333313c2.0666504,2.0666504,4.2732773,4.1666565,6.5600586,6.2599487l1.0201035,0.9132996l0.6667099,0.5733337
	c1.7732697,1.5867004,3.5734024,3.1533813,5.5399551,4.7866821c0.6134033,0.5200195,1.2333145,1.0400391,1.8599472,1.5533447
	c2.666626,2.1600342,5,4.0000305,7.1999054,5.6599731c2.199913,1.6599731,4.5800781,3.3333435,7.4534073,5.333374
	c0.6667175,0.4599915,1.3334198,0.913269,2.1600342,1.4466248c1.9911804,1.333313,4.0065613,2.6267395,6.0467529,3.8800049
	l0.7332458,0.4599915l1.1800079,0.7266235c2.666626,1.6066589,5.333252,3.1333618,7.9134064,4.5467224l0.9665985,0.5133057
	l0.6667023,0.3600159c2.1732635,1.166687,4.4132538,2.3066101,6.6666718,3.413269
	c0.8066864,0.3933716,1.6066437,0.7866516,2.4200439,1.166687c2.4932861,1.1800232,4.9733429,2.3066406,7.366745,3.3333435
	l1.126709,0.4933777c2.666626,1.1199951,5.4667053,2.2266541,8.6000519,3.3933411l1.7399139,0.6266174l0.6199036,0.2200317
	c2.2133484,0.7933655,4.5200653,1.5733032,6.8534393,2.3200684l0.7133026,0.2266235l1.6865997,0.5333557
	c3.2332306,0.9866333,6.1732941,1.8199768,8.9933319,2.5533142l1.2200928,0.2933655
	c2.553299,0.6667175,5.2600098,1.2666931,8.0466614,1.8533325l2.666626,0.5466614
	c2.5134277,0.4933777,5.0799561,0.9533691,7.6200409,1.333313l0.7999725,0.1333618l1.1132812,0.1799622
	c3.0533752,0.4599915,6.2333069,0.8666992,9.4533234,1.1999512l1.4799042,0.1399841l0.8666992,0.0733337
	c2.5266418,0.2399597,5.0732422,0.4333496,7.5667267,0.5733337h0.2600098
	c0.8333282,0.0466919,1.6666718,0.0999756,2.5067139,0.1399536c3.7200928,0.166626,6.8400116,0.2467041,9.8000031,0.2467041
	C314.0060425,462.8372192,374.6310425,433.9966736,415.0066223,384.3066406z M191.0065765,365.6399536
	c1.1399231-0.6216431,2.3480225-1.109314,3.6000519-1.4533386c38.0192108,63.0641479,119.9635925,83.3670044,183.0277405,45.3476868
	s83.3669128-119.9636841,45.3477173-183.0277557c-24.1333008-40.0306091-67.4662476-64.5006256-114.2088013-64.4933014
	c-31.5527344-0.0214691-62.0804749,11.2007599-86.1067657,31.6533356l-1.7999268-3.5132751
	c58.0359039-48.6036224,144.4840546-40.9573364,193.0877838,17.0785522
	c40.5749512,48.4490967,42.76651,118.3594818,5.3055725,169.2547455c-1.7398987,2.3266602-3.5467529,4.6000366-5.3800354,6.8466187
	c-48.5451355,58.0799561-134.9816895,65.8094482-193.0617371,17.2643127
	c-11.8326874-9.8901367-21.9114227-21.7064514-29.8115997-34.9509583V365.6399536z M186.8331909,416.2399292
	c-1.9927979-9.3511047-8.4082031-17.1491394-17.1999054-20.9066772c-5.4925537-2.1222839-9.4685974-6.971344-10.4734344-12.7733459
	l21.0266113-12.1399841l0,0c3.3278351-0.395813,6.4921112-1.6629028,9.1733856-3.6733093
	c0.1399689-0.1066895,0.2866516-0.1933594,0.4266357-0.2933655c5.7497101,9.5829163,12.6448517,18.4302673,20.5332336,26.3466492
	L186.8331909,416.2399292z M114.4198608,385.9932556c-14.6419296-4.9747925-22.4788437-20.8771973-17.5040665-35.519104
	c4.9747696-14.6419373,20.8772736-22.4788513,35.5192032-17.5040894
	c14.641922,4.9747925,22.4786377,20.8771973,17.5040741,35.519104c-2.3879089,7.0281982-7.4688721,12.8205566-14.1257782,16.1040344
	c-6.6577148,3.2912292-14.3493652,3.8067627-21.3867188,1.4334106L114.4198608,385.9932556z M54.9797554,331.706543
	c3.1125908,0.733429,6.3600693,0.6669006,9.4398994-0.1933899c8.2600937-2.666626,17.333374,2.5733643,22.2200546,5.3999939
	c4.3947372,2.155365,9.1548691,3.4668884,14.0334091,3.8666687c-2.1380615,2.5831299-3.8157196,5.51474-4.9599228,8.666687
	c-5.7910156-5.9889526-13.2700577-10.0703735-21.4400253-11.7000122
	c-6.4508057-0.2528992-12.7850304-1.7990112-18.6267052-4.5467224c-0.2065048-0.4131165-0.4398613-0.9398499-0.65979-1.4597473
	L54.9797554,331.706543z M93.2331314,308.8598633c-5.4176788-4.8947144-8.5772705-11.8069458-8.7333145-19.1066589
	c2.6344833,8.6684265,7.5504532,16.4694214,14.2333984,22.5866699c6.506752,5.8933716,8.2533798,20.1133423,8.5066757,22.5333862
	c-1.9702148,1.2931213-3.7786865,2.8172607-5.3867645,4.539978h-0.0465851
	c-2.4049911-3.9599609-3.3351669-8.6415405-2.6267548-13.2200012c1.1924286-6.4080811-1.05896-12.9725037-5.9332275-17.2998962
	L93.2331314,308.8598633z M132.8264313,301.2932434c-1.0064697-7.2313538,1.0172577-14.5574951,5.5932617-20.2467041
	c-3.5538635,8.3344727-4.8018341,17.4711304-3.6132812,26.4533691c1.1867371,8.666687-6.539917,20.6066895-7.9465714,22.666626
	c-2.3447647-0.2668457-4.7131348-0.2489319-7.053421,0.0532837l-0.0400848-0.039978
	c0.7023163-4.5792542,2.9996796-8.7632141,6.486618-11.8133545c5.0258408-4.1361389,7.5240097-10.5986328,6.5869064-17.0398865
	L132.8264313,301.2932434z M170.1598053,296.0665894c0.0406952,6.1581421,0.4862518,12.3069153,1.3334198,18.4066772
	c-1.821701,1.6706238-3.3933563,3.5948792-4.666748,5.7132874c-3.1884766,5.1844482-8.8812256,8.2958069-14.966629,8.1800537
	c-4.5202637,0.1622314-8.8824463,1.7047119-12.5,4.4199524c-0.3387451-4.3650208,0.112915-8.7554016,1.3334045-12.9599915
	c1.9999237-5.4533081,5.6799316-15.5532837,1.486618-23.7599792H170.1598053z M171.6130524,295.333252
	c-0.0054932-14.2586365,2.2214813-28.4302673,6.5999451-42.0000153c1.115509,0.6577454,2.2444611,1.3243561,3.3866272,2.0000153
	c-4.0802002,12.9410706-6.1531525,26.4309692-6.146637,40c0.0026398,5.206604,0.3076172,10.4087219,0.9132843,15.5800476
	c-1.25,0.7125854-2.442627,1.521698-3.5666962,2.4200439c-0.780838-5.9571533-1.1747131-11.9586182-1.1795959-17.9667358
	L171.6130524,295.333252z M129.8462982,191.1866302c12.2399902-5.9533691,41.4066467-3.2667084,79.4000244,7.7933655
	c-14.3668671,14.8151703-25.2488251,32.6481171-31.853241,52.2000122
	c-14.5497589-8.318985-28.1192932-18.2455444-40.4532776-29.5932922c2.4613342-3.0477905,1.985672-7.5138397-1.0620117-9.9750824
	c-2.1063232-1.700943-4.9971619-2.0545502-7.4513855-0.9115601c-0.2018127,0.1046753-0.3977356,0.2204437-0.5867462,0.3466797
	c-3.5630264-3.9198761-4.9224854-9.3654327-3.6199951-14.5000153c0.8677139-1.9092865,2.3136368-3.4975281,4.1333008-4.5400085
	l60,34.6333923l0.7332306-1.2666931L129.8462982,191.1866302z M240.126236,174.9732513L170.3795319,54.1732788
	c21.9360352-8.9647408,45.2323456-14.1491699,68.8999481-15.3333549l32.9067078,122.8200378
	c-11.2023926,3.07901-21.9700165,7.5634766-32.0463104,13.3466492L240.126236,174.9732513z M238.8595581,175.7065887
	c-6.5706329,3.8504028-12.8137207,8.2340393-18.6665802,13.1066895L166.0195923,83.4799194l9.5666504,0.5933609
	l-18.9799042-15.9999542l2.666626,24.6666412l4.8199463-8.2266235l54.3933105,105.786644
	c-2.4533997,2.1133423-4.8400879,4.2866974-7.1400909,6.5599518L108.0127945,93.5266113
	c17.9718018-16.3304672,38.6167374-29.4503784,61.0333328-38.7866211L238.8595581,175.7065887z M158.4732056,71.5799942
	l5.4933624,10.3067017l-3.6932373,6.3133774l-1.7999268-16.6199722L158.4732056,71.5799942z M188.4732056,365.5799255
	c-6.8534393,5.333374-17.1799774,3.5066833-22.7266388,2.5266724c-4.8594208-0.5183105-9.7729492-0.1225891-14.4866943,1.166687
	c0.0333557-0.1000061,0.0799561-0.1933899,0.1200256-0.2999878c1.040863-3.0836182,1.5612793-6.3188782,1.539917-9.5733643
	c7.4912567,3.6485596,15.9165497,4.9276733,24.153244,3.666687c7.8948975-2.5102844,16.2988281-2.9691772,24.4199677-1.333313
	c-4.6340027-0.0854492-9.1811218,1.2626953-13.0198212,3.8599548V365.5799255z M150.5931549,370.9532776h0.033371
	c3.6177521,2.8970337,6.0947723,6.9798584,6.9934082,11.5266724c1.0691376,6.4450073,5.4425049,11.8560791,11.5199738,14.2533569
	c6.763916,2.7473755,12.0961609,8.161499,14.7399902,14.9666138c-5.443924-7.2429199-12.7333527-12.8908081-21.1065674-16.3533325
	c-8.0932617-3.2999878-14.5733643-15.9533691-15.6866455-18.2266235c1.4028015-1.9015503,2.5712128-3.9653625,3.4798279-6.1466675
	L150.5931549,370.9532776z M158.7332153,381.146637c-0.9560089-4.1053162-3.1339569-7.8244019-6.2467499-10.666687
	c4.241745-1.0916138,8.6458435-1.4077759,13.0000916-0.9333496c3.7449036,0.7634583,7.5579834,1.1431885,11.3800049,1.1333313
	L158.7332153,381.146637z M139.4664459,334.7666321v-0.0466919c3.4816589-3.0543823,7.9294891-4.7825012,12.5600281-4.8799438
	c6.5321808,0.0640869,12.6186066-3.3043518,16.0333252-8.873291c3.8791809-6.1860352,10.1379395-10.4983521,17.3000031-11.9199829
	c-8.0788116,4.1013794-14.9076385,10.2971497-19.7733612,17.9399719
	c-4.666748,7.3999939-18.2733154,11.5933228-20.6667023,12.2866821c-1.6379852-1.7122498-3.4779816-3.2187805-5.4797363-4.4866943
	L139.4664459,334.7666321z M166.7998199,327.7666321c4.4417419-6.9903564,10.5873718-12.73703,17.8599091-16.7000427
	c-3.6053467,2.9032288-6.2249756,6.8501892-7.5,11.3000488c-1.8066406,8.4999695-10.9000702,13.7267151-15.7867432,16.5400085
	c-4.0584259,2.725647-7.5701904,6.1876526-10.3533936,10.2067261c-1.194458-3.1409912-2.9144287-6.0559082-5.0866699-8.6199951
	c8.0826874-2.0186462,15.3588867-6.4508057,20.8603973-12.7067261L166.7998199,327.7666321z M174.6865845,330.47995
	c2.3482208,8.9940186,5.6003876,17.727356,9.7066193,26.0666809c-0.8266144,0.1933899-1.6532288,0.4200134-2.5,0.7066956
	c-5.770462,1.9249268-12.1286926,0.6573486-16.7199707-3.3333435c-3.5660706-2.7878723-7.900589-4.4165039-12.4200439-4.6666565
	c2.5425262-3.5572205,5.703949-6.6282959,9.3332977-9.0666504c4.7428436-2.4503784,9.0081787-5.7312012,12.5933838-9.6867065
	L174.6865845,330.47995z M185.8798218,356.266571c-4.3188477-8.6950684-7.6959229-17.8269348-10.0732422-27.2399902
	c1.2058563-1.7321777,2.0951385-3.6642456,2.6267548-5.706665c2.4116974,11.3116455,6.2957764,22.2581787,11.5533447,32.5599976
	c-1.3798065,0.0265503-2.755127,0.1625671-4.1133728,0.4067078L185.8798218,356.266571z M151.6197662,350.7998657
	c4.6309509-0.103363,9.1497803,1.4312744,12.7600098,4.3332825c4.9656219,4.25354,11.8009491,5.585144,18.0000916,3.5066833
	c6.9492493-2.2406921,14.5147705-1.5171204,20.9132843,2.0000305c-8.8212128-2.0489502-18.0305939-1.6921082-26.6666718,1.0333252
	c-8.3199005,2.666626-21.4599609-2.8733521-23.7400208-3.8866272c-0.1438446-2.3534241-0.5690613-4.6810913-1.2666931-6.9332886
	V350.7998657z M207.9198151,363.5598755l4.3467255,1.8466187l-3.6732941-3.1133118
	c-4.9039764-3.7483521-10.802002-5.9717712-16.9600525-6.3933105c-5.7865295-11.171875-9.9334717-23.1190186-12.3132324-35.4733276
	c2.6529999-5.0004272,6.6107178-9.1886597,11.4532471-12.1199646l4.5200653-1.3866272h-4.8132324l0,0
	c-4.4030762,0.1981812-8.7168427,1.3106384-12.666626,3.2667236c-0.5592804-4.9203491-0.8441162-9.8680725-0.8532715-14.8200684
	c0.0006104-13.3149109,2.0235138-26.5526123,5.9999542-39.2599487c7.1199646,4.0733032,14.666748,8.1066895,22.6066132,12.0600586
	c-15.022171,57.0389709,19.0393066,115.4561157,76.0782776,130.478302
	c8.8781738,2.3382568,18.0208435,3.5219421,27.2017517,3.5217285c2.7066956,0,5.3800354-0.1333618,8.0399475-0.3333435
	c2.8863525,4.9274597,9.2207947,6.5820312,14.1483765,3.6955566c2.5345764-1.4847717,4.3180237-3.977356,4.9049683-6.8555603
	c57.0686951-14.8945007,91.2575378-73.2321167,76.3631287-130.3008118s-73.2322083-91.2576141-130.3009033-76.3631134
	c-17.5335693,4.5761108-33.614502,13.53862-46.7289276,26.0439148l-11.8399963-23.0266418
	c55.4308929-47.197052,138.6275177-40.5221558,185.8245697,14.9088593s40.5220642,138.6274109-14.908844,185.8244934
	c-23.8568115,20.3129883-54.1690979,31.4639282-85.5023193,31.4533386
	c-46.0048523-0.1486206-88.6456299-24.1308594-112.666626-63.3666992c3.8718719-0.7127991,7.83284-0.8028259,11.7332001-0.2667236
	L207.9198151,363.5598755z M336.099762,397.0731506c0.0484009-0.5722961,0.0484009-1.147644,0-1.7199707
	c-0.657959-5.6973267-5.8093262-9.78302-11.5067749-9.1266785c-0.8695374,0.112915-1.7209778,0.3370056-2.5333557,0.6667175
	l-36.4666748-70.9200134c5.6990662-3.0866394,10.9759521-6.8958435,15.7000732-11.333313
	c3.8867188,1.0066833,7.7134094,1.9467163,11.4467468,2.7800598c-0.1550293,3.0852051,2.2202454,5.7119751,5.3053589,5.8670959
	c2.4493408,0.1230774,4.6932068-1.3636169,5.534668-3.6670837c9.2803955,1.8043823,18.7005615,2.7947998,28.1532898,2.9599915
	c14.0000305,0,22.8066101-3.1533813,25.4134216-9.3332825c3.0133057-7.1400146-2.666626-17.4666443-16.4866333-29.8733521
	c1.6811218-2.5960388,0.9393311-6.0633545-1.6568909-7.7443542c-2.1614685-1.3996277-4.9989929-1.1448059-6.8764343,0.6176758
	c-8.6873169-6.696167-17.765686-12.8692627-27.186676-18.4866333c-0.7189941-22.3212738-11.304718-43.1729126-28.8999329-56.9266815
	c57.7573547-6.9490509,110.2124023,34.2394104,117.161438,91.9967804
	c6.2498169,51.9454956-26.5757141,100.6048584-77.0814819,114.2631836L336.099762,397.0731506z M315.4330444,397.7398682
	c0.1184082,0.9173584,0.3605042,1.8143616,0.7200012,2.666626c-2.4399719,0.1733398-4.8933716,0.2866516-7.37323,0.2866516
	c-52.6967468-0.0708923-97.2552643-39.0249634-104.3666687-91.2398071
	c22.754715,17.5197144,53.5365906,20.4481812,79.186615,7.5333557l36.4666748,70.9266052
	c-3.283905,2.1405029-5.0773315,5.9520569-4.6331787,9.8467102L315.4330444,397.7398682z M284.8930969,314.6731567
	l-9.0067749-17.5133362c8.115448,2.666626,16.0198975,5.0089722,23.7133789,7.0266724
	c-4.4539185,4.0906982-9.3928833,7.6193237-14.7064209,10.5068054L284.8930969,314.6731567z M324.9663391,249.493103
	c9.0686035,5.4394531,17.8122864,11.4028931,26.1867065,17.8600159c-1.6434631,2.6156616-0.8552856,6.0684204,1.7604675,7.711792
	c0.6162415,0.387146,1.3022766,0.6504211,2.0194397,0.7748413c0.3257446,0.0576782,0.6559448,0.0866699,0.9867554,0.0866699
	c1.1482544-0.0023499,2.2678528-0.3585815,3.2065735-1.0200195c0.1869812-0.1423035,0.3649902-0.2958984,0.5332336-0.4599915
	c13.0867615,11.7799988,18.8067627,21.7799988,16.1065674,28.1999817
	c-3.7133789,8.8000488-22.6133118,10.8066711-51.8800659,5.5266113c0.3230591-3.0684204-1.9024658-5.8178711-4.9709167-6.1410522
	c-2.6621399-0.2803345-5.1489258,1.3670959-5.9291687,3.9277344c-3.4266968-0.7667236-6.9266663-1.6199951-10.4799194-2.5266724
	c14.3808899-14.0690002,22.4826965-33.3415527,22.4733276-53.4599762c0.0006104-0.1330566-0.0128174-0.2997742-0.0128174-0.4596863
	L324.9663391,249.493103z M359.992981,271.0331116c-0.3975525,2.2553711-2.5482178,3.7612915-4.8036804,3.3637695
	c-2.255249-0.397644-3.7613831-2.5483398-3.3636475-4.8036804c0.3491211-1.9806824,2.0693054-3.425293,4.0806274-3.4267273
	c0.241272-0.0003052,0.4821777,0.0198364,0.7200012,0.0600281c2.2591248,0.3979492,3.7677002,2.5518799,3.369751,4.8110046
	c-0.0010071,0.005188-0.0018311,0.0104675-0.0028381,0.0157471L359.992981,271.0331116z M319.7329712,311.5531311
	c-2.1535339,0.7791138-4.5308533-0.335083-5.3100586-2.4885864c-0.7792053-2.1535339,0.335083-4.5308533,2.4886169-5.3100586
	c2.1443481-0.7757568,4.5129395,0.3255005,5.3015137,2.4653015c0.803009,2.1447754-0.2846375,4.5343933-2.4294128,5.3374329
	c-0.0144348,0.0053711-0.0290833,0.0107727-0.0437317,0.0160522L319.7329712,311.5531311z M293.9728699,191.0664825
	c32.5146484,24.2404175,39.2220154,70.249527,14.9816895,102.7640839c-2.4430237,3.2767639-5.1550293,6.3437805-8.1083069,9.16922
	c-8.3666992-2.1932983-17.0332947-4.7600403-25.9267273-7.7200317l-21.3334045-41.44664
	c2.1392822-1.9924011,2.2584991-5.3417969,0.2663116-7.4811859c-1.2571106-1.3496857-3.1260071-1.9478302-4.9330597-1.5787811
	l-13.0533905-25.3866577c15.9145203-15.3031311,36.2461395-25.2028351,58.1073151-28.2931519L293.9728699,191.0664825z
	 M246.9328766,245.65979c-2.4232941,1.6219025-3.0731201,4.9012299-1.4512024,7.3246307
	c1.3618927,2.0350037,3.9442902,2.8666077,6.237793,2.008667l20.2067108,39.2933197
	c-11.4866333-3.9000549-23.2601013-8.3599854-35.1267548-13.3333435
	c-10.2400818-4.3199768-20.1332703-8.8666687-29.5534363-13.5333252
	c4.8455811-17.5334625,14.1471405-33.5139923,26.9999237-46.3867188L246.9328766,245.65979z M236.2263031,282.2531128
	c12.3933868,5.2266541,24.6667328,9.8666382,36.6666718,13.8866272l10.0400696,19.5332642
	c-25.6089172,12.8838196-56.3757324,9.6733704-78.7731934-8.219696c-1.5279083-12.9425049-0.6235809-26.0565186,2.666626-38.666687
	c9.386795,4.6666565,19.2266846,9.2000427,29.4067383,13.4933472L236.2263031,282.2531128z M233.5596771,219.5864868
	c-13.1359863,13.0393524-22.6603241,29.266861-27.6399841,47.0932922
	c-7.8999786-3.9466248-15.4333496-7.9999695-22.5333557-12.0399933
	c7.3305206-22.464386,20.5493164-42.5526886,38.2800293-58.1733093L233.5596771,219.5864868z M182.0997162,253.8865204
	c-1.1399384-0.6667175-2.2733612-1.333313-3.3799286-2.0000305c7.8385468-23.3648682,21.8125458-44.1936188,40.4600067-60.3067017
	l1.8066406,3.5066833c-18.0059814,15.7791138-31.4430847,36.1051331-38.9064636,58.8535461L182.0997162,253.8865204z
	 M133.3930511,211.81987c2.9264221,1.0670929,4.4337921,4.3043976,3.3666992,7.230835
	c-1.0671082,2.9264221-4.3046112,4.4336853-7.230835,3.3665924c-2.92379-1.0660858-4.4315643-4.2990112-3.3691483-7.2241211
	c1.0888672-2.8994751,4.3100967-4.3806,7.2200546-3.3199005L133.3930511,211.81987z M122.8929672,195.9598846
	c-1.5242538,5.6106567-0.0956268,11.6114197,3.793335,15.9333191c-2.8922577,2.6423187-3.0948944,7.1290131-0.4524765,10.0212708
	c2.0900421,2.287796,5.4233856,2.9541016,8.2324219,1.645401c0.5283661-0.2561493,1.0231476-0.5763702,1.4733887-0.9533691
	c12.4971466,11.4979095,26.2506104,21.5501862,40.9999542,29.966629c-0.6577454,2.0310516-1.2689209,4.0822296-1.8332825,6.1533661
	l-134.666748-36.0866241c3.1154366-24.0773621,10.3877754-47.4308319,21.4933243-69.019989l65.1066132,37.5866699
	c-1.8259659,1.164856-3.2716904,2.8379364-4.1595459,4.813446L122.8929672,195.9598846z M139.2729645,319.2932129
	c-1.3572083,4.6964417-1.8229065,9.6054993-1.373291,14.4733582c-2.9164581-1.6737671-6.1128693-2.8032227-9.4333801-3.333313
	c4.8941956-6.7454224,7.6171875-14.8216858,7.8065948-23.1533813c-1.0925293-8.2095337-0.0807648-16.5621033,2.9400635-24.2733765
	c-0.8931427,4.5426331-0.3623505,9.2502747,1.5199738,13.480011c4.0737,7.7268372,0.4669189,17.5801697-1.4662628,22.8734436
	L139.2729645,319.2932129z M131.3996429,301.4865112c0.8870392,6.0220337-1.4760437,12.0643005-6.2133865,15.8866272
	c-3.357132,3.0303955-5.7067871,7.0153809-6.7333984,11.4199829c-3.0761719-3.1227417-5.5609131-6.7774353-7.333374-10.7866211
	c-1.9999161-5.5133057-5.713295-15.7733154-14.3800812-19.2799988c-1.5378876-0.6427917-2.9539032-1.5447998-4.1866074-2.666626
	h38.5870361c-0.1116943,1.8349304-0.0268555,3.6765442,0.2534943,5.4934692L131.3996429,301.4865112z M96.2195816,300.0931702
	c8.0601044,3.2533875,11.6333008,13.1200256,13.5467529,18.4200134c1.973877,4.4840393,4.776413,8.5552979,8.2600937,12.0000305
	c-3.3026123,0.6295776-6.4744034,1.8152771-9.3800888,3.5066528c-0.5859375-8.317749-3.6928253-16.2593384-8.9066544-22.7666016
	c-6.1077881-5.5895081-10.6955948-12.6387634-13.3333359-20.4866638c2.2210693,4.0659485,5.6437225,7.3465881,9.8002167,9.3934021
	L96.2195816,300.0931702z M136.479599,385.8798218c0.133255-0.0666199,0.2532959-0.146698,0.3867493-0.2133179l0,0
	c0.9084167,4.5475159,0.181076,9.2698059-2.053421,13.3333435c-3.3225555,5.6238708-3.4490967,12.5790405-0.333252,18.3200073
	c1.9541473,3.5617065,2.9984589,7.5509644,3.0399628,11.6133423l-1.8933105-1.1999512
	c-0.8321228-5.4398499-2.5646973-10.7030029-5.1267548-15.5733032c-4.0732803-7.7133179-0.9199982-21.5533447-0.3000946-24.0333252
	c2.1665497-0.4882812,4.2712402-1.219574,6.2738037-2.1799622L136.479599,385.8798218z M138.6129761,386.5465393
	c1.8385773,0.9347534,3.6195831,1.9787598,5.333252,3.1266174l-5.4199219,3.1333313
	c0.4300995-2.048645,0.4551239-4.1616821,0.0736542-6.2198792L138.6129761,386.5465393z M138.4463501,384.8198547
	c2.8955078-1.7030945,5.4756622-3.8929443,7.6267548-6.4732971c3.3929443,7.603363,9.0232239,13.9917908,16.1399231,18.3132935
	c7.6521912,3.1549988,14.3780518,8.2015991,19.5467224,14.6666565c-3.4865417-3.0464783-7.8287811-4.9417114-12.4332733-5.4266357
	c-8.6665802-0.3067017-15.4199219-8.3533936-19.0334015-12.666626c-3.3959961-3.5067749-7.4186249-6.3467407-11.8597412-8.3733215
	L138.4463501,384.8198547z M397.306427,113.4865341c16.2475586,11.8324738,19.8266602,34.5958481,7.9941711,50.8432999
	c-5.3155518,7.298996-13.1546936,12.3613434-21.9942322,14.2033844
	c-11.916687-7.6382446-24.9379272-13.3968048-38.6065674-17.0733643c-1.2742004-2.192276-2.3219604-4.508667-3.1266174-6.9133453
	c17.914032,10.5537872,40.9916077,4.587204,51.5454102-13.326828c4.9247131-8.358963,6.4320984-18.2965012,4.2079773-27.7398605
	L397.306427,113.4865341z M407.306427,197.9064941l35.1668091-35.1931763
	c6.7167358,14.7211761,11.7055359,30.1707916,14.8667603,46.0400391l-28.9266052,16.7000275
	c-5.8772888-10.0226746-12.9836121-19.272049-21.1535645-27.5333557L407.306427,197.9064941z M406.2731018,196.8731689
	c-6.5057373-6.4348297-13.6289673-12.2138519-21.2666931-17.2533112
	c20.2486267-4.9737549,32.6314392-25.420639,27.6576843-45.6693573c-0.8612061-3.5060577-2.2210693-6.8706284-4.0376892-9.9906387
	l4.666748-8.120018c11.4050293,13.8729858,20.9997559,29.1399078,28.5532532,45.4333496L406.2731018,196.8731689z
	 M340.7064819,152.2931976l-1.6265869-1.0666962l0.5267334,1.8799896c0.7853088,2.7268372,1.8650208,5.3601074,3.2200012,7.8532867
	c-10.8754272-2.745163-22.0436401-4.1599579-33.2600708-4.2133636V47.1799736
	c20.5163574,6.0231514,39.9953003,15.1366158,57.7667236,27.0266685l-21.6467285,80.786644
	c-1.739502-0.766098-3.4177856-1.6642303-5.0199585-2.6866608L340.7064819,152.2931976z M447.3865662,296.1199951h8.8999634
	c-2.6676636,11.9888306-6.3818359,23.7203979-11.1000671,35.0600281l-2.3132324-0.6200256
	C445.8190002,319.3152771,447.3355103,307.7440491,447.3865662,296.1199951z M447.3865662,294.6533203
	c-0.0510559-11.624054-1.5675659-23.195282-4.5133362-34.4400024l18.4000549-4.9333649
	c-0.3169556,13.2395477-1.8794556,26.4198761-4.666748,39.3666534L447.3865662,294.6533203z M309.5132446,433.9866028
	c11.6237488-0.0540161,23.1945801-1.5704346,34.4399109-4.5133362l2.3199463,8.666687
	c-11.7626953,6.0476685-24.0708618,10.9695435-36.7600708,14.7000122L309.5132446,433.9866028z M345.3600159,429.0665588
	c11.2084961-3.0739136,21.9830322-7.5540161,32.0666504-13.333313l1.1199951,1.9467163
	c-9.72229,7.4711914-20.0744629,14.0848694-30.9399414,19.7666321L345.3600159,429.0665588z M378.6933289,415.0066223
	c5.336731-3.1292725,10.4589844-6.610321,15.333252-10.4200439c-4.5776367,4.2710571-9.3422241,8.3311157-14.293396,12.1799927
	L378.6933289,415.0066223z M308.0266418,433.9798889v19.2733765c-13.9723816,3.984375-28.3201294,6.5090027-42.813324,7.5333862
	l8.4132996-31.4066772c11.2333069,2.9772034,22.7988586,4.5184326,34.4199524,4.5867004L308.0266418,433.9798889z
	 M442.4732361,331.9466248l2.1533203,0.5800171c-2.6442261,6.222229-5.5688477,12.2777405-8.7733765,18.1667175
	C438.508606,344.6121216,440.7211304,338.3468628,442.4732361,331.9466248z M461.3131714,253.7333221l-18.8399353,5.053299
	c-3.0739136-11.2086029-7.553894-21.9830322-13.333313-32.0666504l28.4732971-16.4400177
	c2.5124207,13.0910187,3.7825623,26.3900757,3.793335,39.7199402
	C461.413269,251.2533569,461.3398132,252.4932861,461.3131714,253.7333221z M412.2598267,114.659935l-4.52005,7.8399658
	c-2.7232056-4.2659531-6.2785034-7.9390488-10.4533081-10.7999725c-0.1525879-0.1017227-0.3128967-0.190834-0.4799194-0.2666168
	c-0.0958252-0.0437469-0.1894226-0.0927734-0.2799683-0.1466904l-1.6265869-1.0599747l0.5267334,1.8733673
	c5.534668,19.1998367-5.5429993,39.2511978-24.7428284,44.7858658c-7.8147278,2.2527161-16.1604919,1.8068542-23.6905823-1.2658691
	l21.5867004-80.5533829c16.3256836,11.1133881,31.0282288,24.4407196,43.6865234,39.6000214L412.2598267,114.659935z
	 M308.0465698,46.786602v110c-11.6221008,0.0550232-23.190918,1.5736847-34.4333801,4.5199585l-32.813324-122.4533081
	c3.0533905-0.1333618,6.1132812-0.2333603,9.2000275-0.2333603
	C269.6347046,38.6246758,289.1726685,41.3734932,308.0465698,46.786602z M106.9198608,94.5665512l103.2000732,103.1999741
	c-39.753418-11.6266937-69.3733673-14.1133728-81.7067413-7.333374l-65.8333435-37.9999847
	c11.335247-21.7074585,26.3358574-41.2932358,44.3400078-57.8931656V94.5665512z M42.0331841,287.8998718l-0.5466728-3.0933533
	c-0.1733398-0.940033-0.3399658-1.8733826-0.4866524-2.8200378c-0.246582-1.6199646-0.4400635-3.2533569-0.6333427-4.89328
	l-0.166626-1.3866272c-0.0667305-0.5333252-0.1332588-1.0733032-0.206707-1.6133423
	c-0.1133194-0.8666992-0.2333565-1.7333069-0.3200264-2.6133423c-0.1999931-2-0.3399658-4.0533447-0.4734306-6.0866089
	l-0.0667305-1.0333252c-0.0333672-0.4866638-0.0732422-0.9800415-0.1133232-1.4666748
	c-0.0600166-0.6667175-0.1200333-1.3800049-0.1534004-2.0733643c-0.1800537-3.6199951-0.2732353-7.2533264-0.2732353-10.7999725
	c0.0183105-8.6362762,0.5637627-17.2634888,1.6333008-25.8333435L174.6931,260.186554
	c-2.9459686,11.2447205-4.4622803,22.815979-4.5133514,34.4400024h-28.706665
	c-1.5478516-5.8074951-1.315506-11.946106,0.6667023-17.6200256l2.5667419-3.9599609l-3.6999512,3.0733337
	c-5.2901306,4.8544312-8.7284393,11.3965759-9.7267761,18.5066528H91.1064682
	c-2.6808701-3.0647583-4.8325653-6.5547485-6.3665771-10.3266296l-0.58004-4.6666565l-0.8599854,4.7333984
	c-0.4496231,3.4222412-0.3346786,6.8950195,0.3399658,10.2800293H43.3598824
	c-0.1800537-0.7733154-0.3666153-1.5466309-0.5200195-2.3266602c-0.3065987-1.4801025-0.5598946-2.960083-0.8066788-4.440094
	V287.8998718z M52.4331665,325.2798462c-0.4066963-1.019989-0.8066826-2.0332947-1.1867256-3.0667114
	c-0.4600029-1.2666931-0.8799248-2.5466919-1.333416-3.8266907l-0.9733086-2.8866577
	c-0.3399658-1.0133057-0.6667061-2.0000305-0.999958-3.039978c-0.4066963-1.333313-0.7800293-2.666626-1.1466484-4.0000305
	l-0.8199043-2.9132996c-0.2933769-1.0133057-0.5800362-2.0000305-0.8467598-3.0532837
	c-0.3533936-1.3866272-0.6667099-2.793396-0.9800224-4.2000427l-0.4933662-2.1600342h40.2667198
	c1.2534637,5.3885803,4.1630096,10.2493286,8.3199081,13.9000549c4.5532227,4.0396118,6.6278076,10.187561,5.4532852,16.1599731
	c-0.6251984,4.4831238,0.1379395,9.050293,2.1866913,13.0866394c-4.3603516-0.4255066-8.6083984-1.6336975-12.5400848-3.5666809
	c-5.0799561-2.9399719-14.5133438-8.4066772-23.4065742-5.5266418c-3.1587715,0.8708801-6.494545,0.8708801-9.6533203,0
	c-0.246582-0.6333313-0.5000801-1.2599792-0.7399483-1.8933105L52.4331665,325.2798462z M56.5198784,335.226532
	c5.6005859,2.4379578,11.6038017,3.8188782,17.706707,4.0733032c8.7666779,0.3333435,19.2333984,10.0866699,20.9932404,11.7866821
	c-0.6815567,2.2583008-1.0868301,4.5908813-1.206665,6.9467163l0,0c-4.3884277-1.4850769-8.1115723-4.4716187-10.5133057-8.4333191
	c-3.2002716-5.6996765-9.1591339-9.299408-15.6933594-9.4799805c-3.4942627-0.0635681-6.9350166-0.8702698-10.09338-2.3666382
	l-1.126709-2.4932861L56.5198784,335.226532z M86.7664566,355.6398621c1.6176376,1.5360413,3.5355682,2.7209473,5.6333466,3.480011
	c-3.6120605,2.4776306-7.6407928,4.2842712-11.8933105,5.3333435c-2.3000107,0.3999939-4.7599335,0.8866577-7.2399902,1.5800171
	c-1.3334198-2.0000305-2.5533066-3.9199829-3.6932373-5.7800293L86.7664566,355.6398621z M64.7331772,351.8865051
	c-0.4266357-0.7800293-0.8467636-1.5533447-1.2666855-2.3399963c-1.166584-2.1799622-2.3067207-4.4066467-3.3866386-6.6199646
	l-0.3466797-0.6667175c-0.166626-0.3266296-0.3267403-0.6667175-0.4866524-0.9866333l-0.6667061-1.4933167
	c2.9219551,1.1734009,6.0321007,1.8080444,9.1800957,1.8733521c6.0837784,0.1711121,11.6239395,3.5458374,14.5666504,8.873291
	c1.0200958,1.333313,2.0733643,2.666626,3.2466583,3.940033l-16.7667618,4.4933167l-0.0866699-0.1399841
	c-1.3332138-2.2398987-2.6332626-4.4999084-3.9866104-6.9599304V351.8865051z M75.1398697,368.7866211
	c-0.300087-0.4399719-0.5999756-0.8733215-0.9000626-1.333313l-0.1000977-0.146698
	c2.3667374-0.666687,4.666748-1.0933228,6.6666641-1.4332886c4.7509766-1.1723022,9.2397079-3.2255249,13.2332382-6.0533752
	c0.034584,3.3608093,0.6433105,6.690979,1.7999268,9.8467102c-6.272377-0.4309082-12.5714111,0.2622375-18.6000595,2.0466919
	c-0.5200195-0.7399292-1.0666885-1.4732666-1.5799942-2.2199402L75.1398697,368.7866211z M79.7065201,375.2266541
	c-0.546669-0.7399597-1.0666885-1.5066528-1.6066437-2.2600403c5.9663849-1.6390076,12.1697998-2.2411194,18.3400421-1.7799988
	c0.9277344,2.167572,2.109375,4.2174377,3.5201035,6.1066895l0,0c-4.3168106,1.6797791-9.0875244,1.7836304-13.4733047,0.2933655
	c-1.8920898-0.4548035-3.8116455-0.7866516-5.746666-0.9933472l-0.6667099-0.8666992L79.7065201,375.2266541z
	 M87.5332642,385.2266541l-0.7867432-0.9267273c-1.5334091-1.8666687-3.1134033-3.8800049-4.7666397-6.0466614
	c1.4066544,0.2067261,2.8133087,0.4800415,4.1865997,0.7866516c2.4936981,0.6488953,5.0514755,1.0201111,7.6267548,1.1066589
	c1.9221954,0.0099792,3.8305664-0.3265381,5.6333389-0.9933472c-1.1783829,4.2177429-3.1046524,8.1896057-5.6866455,11.7266846
	l-0.6266251,0.7533875l-0.3867645-0.4200134c-1.8467178-2.0266724-3.5866241-4.0466309-5.2199249-5.9999695L87.5332642,385.2266541z
	 M94.1065445,392.7333679l0.7533798-0.9066772c2.8859482-3.9555054,5.0048828-8.4170532,6.2467422-13.1533813
	c2.17733,2.5615234,4.7798691,4.7287903,7.6932831,6.4066467c-4.286499,3.1765747-8.1119843,6.932373-11.3665771,11.1599731
	c-0.9800262-1.019989-1.9600449-2.0000305-2.9266357-3.0733337L94.1065445,392.7333679z M99.5864868,398.5066833
	c-0.3733292-0.3866577-0.7533798-0.7999878-1.126709-1.1866455c3.3577499-4.374176,7.3274765-8.2426758,11.786705-11.4866943
	c1.2076797,0.6199951,2.4574738,1.1546631,3.7400284,1.6000366c0.9523544,0.3181763,1.920166,0.5874634,2.8999863,0.8066711l0,0
	c-2.2255478,4.063324-5.814209,7.2103882-10.1332626,8.8866272c-1.854248,0.9312744-3.636879,1.9985962-5.333252,3.1933594
	l-0.5332413-0.5200195L99.5864868,398.5066833z M108.3997574,406.9400024l-1.0066681-0.8999634
	c-1.7000351-1.5533447-3.3333359-3.1066895-4.9133301-4.6666565c1.5842667-1.0899658,3.2415771-2.0700073,4.9599152-2.9333496
	c4.1955566-1.7009277,7.769371-4.6464844,10.2400742-8.440033c1.8125381,3.9967957,2.8898087,8.2876587,3.1799316,12.666626
	v0.3999939l-10.1733398,5.873291c-0.5399551-0.4733276-1.0933456-0.9333191-1.6333008-1.4133606L108.3997574,406.9400024z
	 M116.3998413,413.813385c-0.6266251-0.5067139-1.2400284-1.0200195-1.9999161-1.646637
	c-0.8666992-0.7266235-1.706749-1.480011-2.5600204-2.2199402l9.0132675-5.2000122
	c-0.1068115,4.9520874,0.7279434,9.879364,2.4599152,14.5199585c-2.1331787-1.6134644-4.3998184-3.3867188-6.9464111-5.4734192
	L116.3998413,413.813385z M130.9532623,424.7000122c-1.8534241-1.2666931-3.4867325-2.4066162-5.0134201-3.5132751
	c-2.8120956-5.7507324-4.0606689-12.1404114-3.6199951-18.5267334c-0.3297958-4.8692627-1.5690155-9.633667-3.6533661-14.0466309
	c1.5928192,0.2658081,3.2049561,0.3995972,4.8199463,0.3999939c1.7362518-0.0157776,3.4678192-0.1875916,5.1733475-0.5133057
	c-2.2912674,8.0149231-2.0865936,16.5375671,0.5867462,24.4332886c2.2648163,4.3218994,3.8566132,8.964325,4.720047,13.7666931
	l-0.9999542-0.6667175c-0.7000732-0.4466858-1.373291-0.8933411-2.0399933-1.353363L130.9532623,424.7000122z
	 M157.1198578,439.9399719c-2.2332764-1.0933228-4.4600525-2.2333679-6.6200867-3.3933411l-0.7000732-0.3666077l-0.9466553-0.5
	c-2.5667267-1.4000244-5.2134094-2.9200134-7.8598938-4.5199585l-1.16008-0.7132874l-0.7399445-0.4599915h-0.0400848
	c0.1074219-4.6320801-1.015213-9.2098083-3.2533722-13.2667236c-2.8961182-5.354187-2.7439423-11.8408203,0.3999786-17.0533142
	c0.6667023-1.559967,1.293335-3.1533813,1.7999268-4.8000183l7.2467041-4.1799927
	c1.4471436,1.0372925,2.769165,2.238678,3.9400177,3.5800171c3.7666931,4.4933167,10.7666016,12.8733521,20.1066132,13.1999817
	c6.352951,1.2071838,12.096756,4.5639954,16.2666779,9.5066223l0.2199402,0.4333496l-24.5133514,24.5133667
	c-0.5867462-0.2733459-1.16008-0.5067139-1.7466278-0.7933655c-0.8329163-0.4267273-1.6328888-0.8200989-2.4330597-1.2067566
	L157.1198578,439.9399719z M206.1597748,456.8466187c-2.7667236-0.5866394-5.4532928-1.206665-8.0000916-1.8466187
	l-1.2133789-0.2933655c-2.8000793-0.7266235-5.7200012-1.5533447-8.9333038-2.539978l-1.6666718-0.5266418l-0.7200012-0.2333679
	c-2.3132324-0.7399292-4.6067352-1.5133667-6.8066406-2.3066101l-0.6266327-0.2200317
	c-0.5733185-0.1999817-1.1466522-0.4067078-1.7199707-0.6200256c-3.1134033-1.1533508-5.9132843-2.2600098-8.5400391-3.333313
	l-1.1199951-0.4933777c-1.3334198-0.5800476-2.7532959-1.2400208-4.1400146-1.8733826l23.7799072-23.7866211l1.2266083,2.4000244
	l-0.5332489-3.0866699l24.1733856-24.1733704c8.2820587,8.1430054,17.5467834,15.2220764,27.5799561,21.0733032
	l-25.0199432,43.3333435c-1.7000275-0.293396-3.4000702-0.5733337-5.0732422-0.8999634L206.1597748,456.8466187z
	 M237.8130035,461.0466614h-0.2667236c-2.4800568-0.146698-5.0067139-0.333374-7.5134277-0.5733337l-0.8734131-0.0733337
	l-1.4599609-0.1399841c-3.2000732-0.3399658-6.3600616-0.7399597-9.3933105-1.1933289l-1.0799103-0.1799622l-0.8199005-0.1333618
	l-0.9665985-0.1733398l24.7332764-42.8466797c10.0901337,5.7612,20.8599854,10.240387,32.0599365,13.3333435l-8.5532532,31.9199524
	c-4.5200806,0.2933655-9.0665741,0.4866638-13.66008,0.4866638c-2.9400635,0-6.0333252-0.0799561-9.7399902-0.2467041
	L237.8130035,461.0466614z"/>
<path id="パス_51" class="st0" d="M468.1799316,250c0-120.4975433-97.6824951-218.1800385-218.18013-218.1800385
	C129.5023651,31.8199673,31.8198643,129.5024567,31.8198643,250c0,3.5466461,0.0933838,7.2333679,0.2799473,10.9533691
	c0.0333672,0.7333374,0.0933838,1.4599609,0.1534042,2.186676c0.0400772,0.4866638,0.0799561,0.9667053,0.1133194,1.4533691
	v0.4532776c0.1466904,2.2467041,0.2933769,4.4933167,0.5133057,6.7199707
	c0.0933838,0.9200134,0.206707,1.8399963,0.3267441,2.7532959l0.2933731,2.3799744
	c0.2199326,1.8466187,0.4400635,3.6933289,0.7132988,5.5266113c0.1534004,1.0333252,0.333252,2.0600586,0.5133057,3.0866699
	l0.3666191,2.1133423c0.300087,1.7733765,0.6066895,3.5466309,0.9533691,5.2999878
	c0.2199287,1.1199951,0.4734268,2.2266541,0.7267227,3.333313l0.3666191,1.6533508
	c0.3932686,1.7867126,0.7932549,3.5733032,1.2400322,5.3333435c0.3065987,1.2267151,0.6667061,2.4467163,0.9800186,3.666687
	l0.246582,0.9066772c0.5133057,1.8666687,1.0201035,3.7200012,1.579998,5.5667114
	c0.3999825,1.333313,0.8333321,2.666626,1.2666817,3.9599609l0.1867676,0.5800476
	c0.5932617,1.8000183,1.1867294,3.5999451,1.8200684,5.3866577c0.5332451,1.4867249,1.0933456,2.9532776,1.6733818,4.4866943
	c0.166626,0.4399719,0.333252,0.8800354,0.4933662,1.333313c0.2266464,0.6266174,0.4600029,1.2533569,0.7065849,1.8866882
	l0.9665947,2.2733765c0.4443359,1.1066589,0.9090157,2.2021484,1.3934326,3.2866211l1.0400391,2.460022
	c0.4400635,0.9733276,0.9000626,1.9400024,1.3334122,2.9067078l0.9200058,1.9467163
	c0.1999893,0.4399719,0.3999825,0.8733215,0.6134033,1.333313c1.3999405,2.8866577,2.8466797,5.7066956,4.2999268,8.3933411
	c0.1800537,0.333374,0.3666153,0.6667175,0.5533829,0.9933472l0.3867607,0.6667175
	c1.2400322,2.2467041,2.5266533,4.4733582,3.8132744,6.6333008c0.4844131,0.813385,0.9777832,1.6265869,1.4799004,2.4399719
	c1.3334122,2.1333923,2.666626,4.2799988,4.0999298,6.3933411l0.4266357,0.6667175
	c0.2134247,0.3266296,0.4266357,0.666687,0.6667099,0.9732971c1.706749,2.52005,3.5400391,5.0866699,5.4333496,7.6333618
	c0.2866592,0.3866577,0.5733261,0.7599792,0.8666992,1.1400452l0.5267334,0.666687
	c1.4756241,1.9332886,2.9776993,3.8444214,4.5066299,5.7333374c0.5932617,0.7266235,1.1867294,1.4599609,1.786705,2.1733704
	c1.7934189,2.1533203,3.5933456,4.2266846,5.333252,6.1733093l0.8400497,0.9533691
	c1.9999161,2.186676,4.0999298,4.4000244,6.4599609,6.7799683c0.3932648,0.3999939,0.7999649,0.7933655,1.1999512,1.1866455
	l0.6333389,0.6132812c1.6933212,1.666687,3.4112549,3.3044434,5.1534042,4.9133301l0.4532852,0.4200439
	c0.5133057,0.4800415,1.0333252,0.9533691,1.5533447,1.4266968c2.5933838,2.333374,4.9066162,4.3332825,7.1067276,6.1533508
	c2.200119,1.8200684,4.5933075,3.6933289,7.3933945,5.8066711c0.5533829,0.4200439,1.1132812,0.8266296,1.673378,1.2400513
	l0.5133057,0.3800354c1.9154892,1.413269,3.8555908,2.7933655,5.8199081,4.1400146l0.7332382,0.5066833
	c0.466713,0.3200378,0.9334335,0.6667175,1.4066544,0.9599915c2.8065948,1.8799744,5.3932648,3.5400391,7.9134064,5.0733337
	l1.0666962,0.6266479c2.2733612,1.333313,4.666748,2.7532959,7.166748,4.1199646
	c0.8266144,0.4532776,1.653244,0.8999634,2.4932861,1.333313c2.1132355,1.126709,4.3066406,2.2533264,6.5266876,3.3333435
	l0.8266296,0.4066772c0.4266357,0.2133179,0.8532715,0.4266357,1.2799072,0.6333618
	c2.9134064,1.3933105,5.8199005,2.7066956,8.626709,3.9000244l1.0266113,0.4200439l0.7600861,0.3067017
	c2.3799591,0.9866333,4.7932892,1.9400024,7.1866913,2.8333435c0.8888702,0.337738,1.7978821,0.6711731,2.7266388,0.9999695
	c2.4267578,0.873291,4.8933868,1.7000122,7.333374,2.47995l0.7932587,0.2600098l1.093338,0.353302
	c2.9667206,0.9199829,6.07341,1.8000183,9.2333984,2.6266479l1.406662,0.3466797l0.9065704,0.2200317
	c2.4267578,0.6066895,4.8933868,1.1732788,7.333374,1.6932983c0.9533691,0.2000122,1.9000244,0.3999939,2.8599091,0.5933838
	c2.8533936,0.5667114,5.6734161,1.0666809,8.3866272,1.5000305l0.5800476,0.1000061l0.7267151,0.1200256
	c3.0399628,0.4599915,6.2266083,0.8666992,9.7467041,1.2400208c0.6066895,0.0666504,1.2133789,0.1200562,1.8200684,0.1733398
	l0.8933563,0.0799561c2.5,0.2333679,5.033371,0.4266357,7.5266571,0.5733337l0.5999756,0.0333557
	c0.7733154,0.0466919,1.539917,0.0933838,2.3199463,0.1266479c3.7532501,0.1733398,7.0467072,0.2532959,10.0799561,0.2532959
	C370.4040527,468.0331421,468.0257263,370.4438171,468.1799316,250z M237.6932831,466.333313l-0.5999756-0.0333557
	c-2.480072-0.146698-4.9932861-0.3399658-7.480072-0.5667114l-0.9000549-0.0799561
	c-0.5999756-0.0533142-1.1999512-0.10672-1.7999268-0.166626c-3.4999695-0.3666382-6.6666718-0.7733154-9.6866913-1.2333374
	l-1.3334198-0.2200317c-2.666626-0.4266357-5.5000763-0.9266968-8.3333282-1.4866943
	c-0.9533691-0.1933899-1.8933105-0.3933716-2.8399658-0.5866699c-2.4133301-0.5133057-4.866745-1.0800171-7.2733612-1.6799927
	l-0.9199982-0.2200317l-1.3867188-0.3399658c-3.1400604-0.8200073-6.2266083-1.7000122-9.1733856-2.6066895
	c-0.3598938-0.10672-0.7065735-0.2266541-1.0666809-0.3399658l-0.8066864-0.2666321
	c-2.4200439-0.7666931-4.866745-1.6000366-7.2800751-2.460022c-0.9000549-0.3200378-1.8066406-0.6667175-2.6999817-0.9933472
	c-2.3732605-0.8866272-4.7733612-1.8332825-7.1401062-2.813324l-0.7733154-0.3132935l-0.9999542-0.4133301
	c-2.7933807-1.186615-5.6799316-2.4932861-8.57341-3.873291l-1.259964-0.6199951l-0.8333282-0.4133301
	c-2.2066345-1.0866089-4.3865967-2.206604-6.486618-3.333313c-0.8266144-0.4399719-1.653244-0.8800354-2.4733429-1.333313
	c-2.4666443-1.333313-4.8600311-2.7333679-7.1199646-4.086731l-1.059967-0.6199951
	c-2.5-1.519989-5.0667419-3.1667175-7.8599091-5.039978c-0.4667206-0.313324-0.9199982-0.6333618-1.3867188-0.9466553
	l-0.7399521-0.5133057c-1.951088-1.333313-3.8777618-2.7023315-5.7800293-4.1066589l-0.5200195-0.3866577
	c-0.5533829-0.4067078-1.1065674-0.8132935-1.6532364-1.2267151c-2.7866592-2.1000061-5.1867676-4.0000305-7.3866806-5.8066711
	c-2.1999054-1.8066406-4.4398956-3.7533569-7.0133438-6.0733032c-0.5200195-0.4599915-1.0333252-0.940033-1.539917-1.4133606
	l-0.4599991-0.4200439c-1.7333984-1.6000366-3.4423828-3.2288513-5.1267548-4.8866577l-0.6333389-0.6200256
	c-0.3932724-0.3866577-0.793251-0.7733154-1.1867294-1.166687c-2.3400879-2.3600159-4.4398956-4.5600281-6.4133682-6.7266846
	l-0.8333359-0.9466553c-1.7399063-1.9332886-3.5266113-4.0000305-5.333252-6.1333313
	c-0.5999756-0.7200012-1.1867218-1.4400024-1.7732697-2.1600342c-1.5244598-1.8711243-3.0155487-3.7689209-4.4732666-5.6933594
	l-0.5332489-0.666687c-0.2866592-0.3733521-0.5733185-0.7466736-0.8532715-1.1199951
	c-1.8800812-2.5333862-3.6932373-5.0866699-5.3932648-7.5866699c-0.2134247-0.313324-0.4199219-0.6333618-0.6266327-0.9466553
	l-0.4400635-0.6667175c-1.3999405-2.1000061-2.7667236-4.2333069-4.0732803-6.353363
	c-0.4978409-0.8044434-0.9887695-1.6111145-1.4733887-2.4200439c-1.2799072-2.1399841-2.5533028-4.3600464-3.7866211-6.5933228
	l-0.3867607-0.666687c-0.1800537-0.3200378-0.3666153-0.6667175-0.5399551-0.9667053
	c-1.4400253-2.666626-2.8800468-5.4667053-4.2667656-8.3333435c-0.206707-0.4200134-0.4066963-0.853363-0.6066895-1.2799988
	l-0.920002-1.9600525c-0.453289-0.9533691-0.9065781-1.9066162-1.333416-2.8599854l-1.0400391-2.4467163
	c-0.4667168-1.0866089-0.9334297-2.1733398-1.3867188-3.2800293l-0.960083-2.2666321
	c-0.2400703-0.6066895-0.4600029-1.2133789-0.6667061-1.8266907c-0.166626-0.4532776-0.3267441-0.8999634-0.5267334-1.4133606
	c-0.5533867-1.4599609-1.1132812-2.9132996-1.6400146-4.3933105c-0.6333427-1.7733765-1.2266045-3.559967-1.8066406-5.3333435
	l-0.1932793-0.5733337c-0.4266357-1.333313-0.8532715-2.6133118-1.2599678-3.9333191
	c-0.5533867-1.8266602-1.0599785-3.6732788-1.5665703-5.5266113l-0.2532959-0.9066772
	c-0.333252-1.206665-0.6667061-2.4133301-0.9733086-3.6333313c-0.4400635-1.7533264-0.8333321-3.5267029-1.2333145-5.3333435
	l-0.3666191-1.6533508c-0.246582-1.0933533-0.4933662-2.1932983-0.7200127-3.2999573
	c-0.3466797-1.7466431-0.6667061-3.4999695-0.9466553-5.2600098l-0.3666153-2.1266785
	c-0.1800537-1.0066833-0.3599052-2.0000305-0.5133057-3.0399475c-0.2667236-1.8199768-0.4866562-3.6533813-0.7000732-5.4866638
	l-0.2933769-2.39328c-0.1200371-0.8999634-0.2333565-1.8066406-0.3200264-2.7133179
	c-0.2199326-2.2133484-0.3666191-4.4467163-0.5133057-6.666687v-0.4599915
	c-0.0333672-0.4933777-0.0732422-0.980011-0.1133232-1.4732971c-0.0533028-0.7132874-0.1133232-1.4266968-0.1466866-2.146698
	c-0.1800537-3.6933289-0.2732353-7.333374-0.2732353-10.8800201c0-119.6875,97.0259552-216.7133636,216.7132568-216.7133636
	c119.6875,0,216.7134705,97.0259552,216.7134705,216.7133636s-97.0259705,216.7133636-216.7134705,216.7133636l0,0
	c-3.0065918,0-6.2799072-0.0866699-10-0.2532959L237.6932831,466.333313z"/>
</svg>
