<?xml version="1.0" encoding="UTF-8"?><svg id="_レイヤー_2" xmlns="http://www.w3.org/2000/svg" viewBox="0 0 271.04 47.67"><defs><style>.cls-1{fill:none;}.cls-2{fill:#fff;}.cls-3{fill:#e50012;}</style></defs><g id="WHATNEW内容"><g><g><polygon class="cls-2" points="162.62 .65 126.84 .65 126.84 14.32 137.56 14.32 137.56 47.63 151.24 47.63 151.24 14.32 162.62 14.32 162.62 .65"/><g><rect class="cls-2" x="164.42" y=".65" width="32.03" height="13.68"/><polygon class="cls-2" points="196.47 30.41 196.46 18.49 164.41 18.49 164.41 47.63 196.45 47.63 196.45 35.7 178.09 35.7 178.09 30.41 196.47 30.41"/></g><polygon class="cls-2" points="257.36 .64 257.36 18.48 248.27 18.48 248.27 .64 234.59 .64 234.59 47.63 248.27 47.63 248.27 30.41 257.36 30.41 257.36 47.63 271.04 47.63 271.04 .64 257.36 .64"/><g><rect class="cls-2" x="93.2" y="18.5" width="13.68" height="29.14"/><path class="cls-2" d="M125.82,13.18c0-7.05-6.26-12.53-13.68-12.53-4.19,0-38.39,.01-38.39,.01V47.63h13.68V13.18h21.15c2.14,0,3.56,1.8,3.56,3.95v30.51h13.68V13.18Z"/></g><path class="cls-2" d="M224.63,13.62h7.2V0h-7.2c-14.95,0-25.84,9.86-26.15,23.54h-.02c0,.11,0,.21,0,.32,0,.1,0,.19,0,.29h.01c.14,6.31,2.44,11.87,6.69,16.12,4.78,4.78,11.7,7.42,19.47,7.42h7.2v-13.62h-7.2c-4.13,0-7.63-1.22-9.84-3.43-1.73-1.73-2.64-4.02-2.7-6.79,.06-2.77,.96-5.05,2.7-6.79,2.21-2.21,5.71-3.43,9.84-3.43Z"/><path class="cls-2" d="M0,47.63v-11.7s12.78,0,12.78,0c1.87,0,2.97-1.2,3.56-2.1,.82-1.26,1.68-3.36-.75-6.81-1.31-1.85-3.82-4.82-7.61-7.95C3.99,15.79,2.05,11.28,2.33,7.18,2.61,3.07,3.84,.65,3.84,.65h13.34s-1.44,2.01-1.21,4.29c.17,1.68,1.24,5.09,3.73,8.2,2.93,3.66,9.7,8.49,10.45,15.29,.63,5.74-1.27,10.5-3.83,13.43-2.2,2.51-5.8,5.78-13.1,5.78H0Z"/></g><polygon class="cls-3" points="50.89 20.09 43.56 .68 42.9 .68 36.87 19.42 36.88 19.42 36.87 20.09 50.89 20.09"/><g><polygon class="cls-1" points="56.04 36.24 50.17 20.17 45.01 36.24 56.04 36.24"/><path class="cls-2" d="M73.74,47.63L56.58,.68h-13.68l6.95,18.75h-12.97l-9.06,28.21h45.92Zm-23.57-27.47l5.87,16.07h-11.03l5.16-16.07Z"/></g></g></g></svg>