<svg xmlns="http://www.w3.org/2000/svg" width="115.002" height="118.823" viewBox="0 0 115.002 118.823">
  <g id="グループ_1205" data-name="グループ 1205" transform="translate(-177.521 -296.837)" style="mix-blend-mode: difference;isolation: isolate">
    <g id="グループ_72" data-name="グループ 72" transform="translate(177.521 389.339)">
      <path id="パス_345" data-name="パス 345" d="M308.387,520.632c-1.02.158-1.784,1.183-3.065,1.143a2.767,2.767,0,0,1,.783-1.328,1.208,1.208,0,0,1,1.231-.492c.119.032.364-.146.442-.287a.476.476,0,0,0-.191-.615.738.738,0,0,0-.429-.148,1.218,1.218,0,0,0-.556.152,4.565,4.565,0,0,0-1.807,1.957,1.941,1.941,0,0,0-.156.564.693.693,0,0,0,.806.874,6.783,6.783,0,0,0,1.334-.414c.272-.1.528-.239,1.018-.465-.191.347-.247.481-.331.594-.4.535-.821,1.05-1.2,1.6a1.815,1.815,0,0,1-1.256.76,93.72,93.72,0,0,0-11.791,3.17c-1.19.39-2.354.863-3.516,1.334a5.518,5.518,0,0,0-1.224.692c-.664.5-.58,1.116.219,1.406a5.04,5.04,0,0,0,1.608.291,21.491,21.491,0,0,0,10.4-2.49,18.1,18.1,0,0,0,4.382-3.146,1.868,1.868,0,0,1,1.449-.622,3.286,3.286,0,0,0,.7-.06.409.409,0,0,0,.185-.664,4.237,4.237,0,0,0-.613-.407c.324-.443.665-.869.96-1.324s.562-.939.813-1.424A.452.452,0,0,0,308.387,520.632Zm-4.931,5.93a20.439,20.439,0,0,1-10.847,4.122c-.819.058-1.645.019-2.468,0-.4-.007-.4-.031-1-.375a2.564,2.564,0,0,1,.45-.35c.6-.281,1.208-.571,1.832-.8a92.988,92.988,0,0,1,11.954-3.514c.336-.075.676-.132,1.014-.2l.128.2C304.163,525.958,303.829,526.287,303.456,526.562Z" transform="translate(-235.133 -505.102)"/>
      <path id="パス_346" data-name="パス 346" d="M234.595,526.329a.821.821,0,0,0,0-.989c-.164-.256-.367-.487-.549-.724a2.176,2.176,0,0,1,1.124-.88,5.04,5.04,0,0,0,.646-.266.452.452,0,0,0,.175-.389,1.109,1.109,0,0,0-.363-.4c-.044-.036-.152-.01-.226.007a3.5,3.5,0,0,0-2.009,1.338.857.857,0,0,0,.026,1.182c.159.215.349.408.528.614a2.357,2.357,0,0,1-1.038,1.264,21.241,21.241,0,0,1-7.154,3.7,4.546,4.546,0,0,0-.668.213.346.346,0,0,0-.185.488.464.464,0,0,0,.357.225,4.978,4.978,0,0,0,1.013-.266,30.905,30.905,0,0,0,6.811-3.663,9.437,9.437,0,0,0,1-.819A4.3,4.3,0,0,0,234.595,526.329Z" transform="translate(-202.198 -507.059)"/>
      <path id="パス_347" data-name="パス 347" d="M275.073,521.855c-.228.148-.429.339-.645.508a2.45,2.45,0,0,1-.943.614l-.777-.678a2.264,2.264,0,0,0-1.428.64c-.2.156-.429.281-.7.456a4.086,4.086,0,0,0-.058-.567.634.634,0,0,0-.863-.541,6.915,6.915,0,0,0-.733.264c.117-.323.2-.536.271-.754a3.013,3.013,0,0,0,.2-.791.564.564,0,0,0-.276-.451c-.137-.045-.355.086-.507.186-.082.054-.108.2-.147.313q-.637,1.769-1.269,3.54a.856.856,0,0,0-.069.342c.009.1.063.273.129.291a.539.539,0,0,0,.42-.043,4.632,4.632,0,0,0,.445-.544c.412-.472.826-.944,1.252-1.4.128-.137.285-.279.509-.169a.534.534,0,0,1,.055.1c.111.345-.157.855.368,1.013.388.116.639-.224.914-.432a4.016,4.016,0,0,1,1.312-.859c.126.148.246.293.371.433a.782.782,0,0,0,.965.217,15.068,15.068,0,0,0,1.687-1.054.374.374,0,0,0,.035-.532A.349.349,0,0,0,275.073,521.855Z" transform="translate(-224.23 -505.957)"/>
      <path id="パス_348" data-name="パス 348" d="M309.921,518.759a.408.408,0,0,0,.345-.515.465.465,0,0,0-.528-.361,2.429,2.429,0,0,0-.664.219,9.112,9.112,0,0,0-2.993,2.611,2.561,2.561,0,0,0-.329.62c-.2.54.16,1,.709.857a12.99,12.99,0,0,0,1.863-.7c.461-.2.89-.483,1.366-.745.141.26.234.464.356.649a.83.83,0,0,0,.7.384,3.558,3.558,0,0,0,1.7-.377.453.453,0,0,0,.174-.378.346.346,0,0,0-.427-.3,2.833,2.833,0,0,0-.442.156c-.363.122-.729.24-1.1.361-.42-.432-.22-1.04-.856-1.18-.359.194-.769.423-1.186.638-.557.288-1.117.571-1.683.842a.359.359,0,0,1-.534-.156,1.837,1.837,0,0,1,.247-.476A6.193,6.193,0,0,1,309.921,518.759Z" transform="translate(-244.337 -504.564)"/>
      <path id="パス_349" data-name="パス 349" d="M338.619,519.69c-.341.191-.674.4-1,.611a8.443,8.443,0,0,1-2.543,1.185,2.478,2.478,0,0,1-1.387-.026.626.626,0,0,1-.485-.8,3.222,3.222,0,0,1,.294-.615c.275.184.482.438.7.447a1.966,1.966,0,0,0,1.533-1.277.513.513,0,0,0-.38-.629,1.58,1.58,0,0,0-.465-.038,3.045,3.045,0,0,0-2.249,2.019,1.1,1.1,0,0,0,.672,1.336,2.219,2.219,0,0,0,.9.163,10.786,10.786,0,0,0,4.706-1.688c.033-.018.075-.045.085-.077a1.3,1.3,0,0,0,.106-.43C339.1,519.708,338.789,519.595,338.619,519.69Zm-3.925-.475c.119.275-.089.285-.182.333-.066.034-.178-.02-.37-.051Z" transform="translate(-258.361 -504.911)"/>
      <path id="パス_350" data-name="パス 350" d="M249.154,522.281a4.756,4.756,0,0,0-1.742,1.538.851.851,0,0,0,.08,1.086c.2.234.422.451.621.662-.271.623-.253.651-.6.873-.692.446-1.393.881-2.115,1.275-.48.262-1.006.439-1.506.669-.375.172-.5.361-.441.6.075.289.383.377.785.145q1.834-1.061,3.637-2.174a2.782,2.782,0,0,0,.678-.644.949.949,0,0,0,.021-1.29c-.173-.244-.367-.474-.551-.71a2.633,2.633,0,0,1,.911-.832,3.883,3.883,0,0,0,.675-.466.761.761,0,0,0,.148-.525C249.745,522.3,249.348,522.169,249.154,522.281Z" transform="translate(-211.883 -506.84)"/>
      <path id="パス_351" data-name="パス 351" d="M261.133,524.259a5.227,5.227,0,0,0-.8.485,3.822,3.822,0,0,1-1.6.706c-.742.106-1.046-.279-.77-.961a4.418,4.418,0,0,1,.267-.484,3.742,3.742,0,0,0,1.054-.065,3.123,3.123,0,0,0,1.353-1.1,1.4,1.4,0,0,0,.2-.54.51.51,0,0,0-.555-.589,1.232,1.232,0,0,0-.338.086,4.738,4.738,0,0,0-2.473,2.552c-.406.97.07,1.591,1.149,1.59a2.853,2.853,0,0,0,.582-.053,7.214,7.214,0,0,0,2.157-.9c.066-.039.153-.1.163-.161.024-.139.059-.323-.01-.418A.436.436,0,0,0,261.133,524.259Z" transform="translate(-219.128 -506.564)"/>
      <path id="パス_352" data-name="パス 352" d="M280.768,498.545c.141-.188.308-.356.454-.54a.4.4,0,0,0-.03-.537.472.472,0,0,0-.634-.09,4.585,4.585,0,0,0-.625.7c-.986,1.416-1.954,2.845-2.941,4.261-.195.279-.519.8-.519.8-.44-.083-4.17-.885-5.213-1.061-2-.338-5.6-.863-6.608-1.034a.117.117,0,0,1-.071-.191c.165-.19.383-.434.523-.582a34.919,34.919,0,0,1,6.072-5.2,23.845,23.845,0,0,1,2.968-1.68,11.354,11.354,0,0,1,2.346-.741,3.494,3.494,0,0,1,1.275.054.6.6,0,0,1,.459.819,5.256,5.256,0,0,1-.7,1.2,6.56,6.56,0,0,1-2.006,1.617,15.079,15.079,0,0,1-3.272,1.306,2.867,2.867,0,0,0-.642.258.342.342,0,0,0-.141.292c.039.137.139.32.254.358a1.04,1.04,0,0,0,.564-.013,12.653,12.653,0,0,0,4.355-2.018,10.317,10.317,0,0,0,1.6-1.55,3.561,3.561,0,0,0,.63-1.179,1.346,1.346,0,0,0-.937-1.763,3.963,3.963,0,0,0-2.022.029,12.485,12.485,0,0,0-3.366,1.378,34.087,34.087,0,0,0-8,6.53c-.294.314-.59.626-.871.923-.835-.136-5.939-.771-11.317-1.143-5.519-.382-11.219-.564-12.1-.453a15.509,15.509,0,0,1,1.526-2.483,3.187,3.187,0,0,0,.385-.584.455.455,0,0,0-.121-.4.467.467,0,0,0-.422-.084,1.479,1.479,0,0,0-.49.476c-.374.6-.716,1.216-1.075,1.825-.256.434-.518.864-.769,1.281-.943-.044-5.454.108-5.442.164a34.232,34.232,0,0,1,2.684-4.313c.142-.188.3-.364.426-.563a.354.354,0,0,0-.1-.514.593.593,0,0,0-.527-.02,3.921,3.921,0,0,0-.757.887c-.765,1.278-1.5,2.574-2.247,3.863-.135.232-.28.458-.4.662-.449.038-.838.084-1.229.1a140.548,140.548,0,0,0-14.5,1.443c-3.331.51-6.648,1.114-9.971,1.679-.26.044-.855.12-.855.12.786-1.768,1.622-3.793,2.429-5.575.825-1.822,1.675-3.632,2.5-5.452a3.6,3.6,0,0,0,.287-.89.681.681,0,0,0-.957-.782,4.383,4.383,0,0,0-1.129.623c-1.023.793-2.057,1.582-3.017,2.448a85.543,85.543,0,0,0-10.4,11.363,2.8,2.8,0,0,1-1.6,1.068c-3.178.864-6.352,1.749-9.5,2.711-2.1.641-4.159,1.413-6.229,2.149a3.549,3.549,0,0,0-1.018.565.624.624,0,0,0,.233,1.051,1.031,1.031,0,0,0,.664-.072c.684-.3,1.335-.669,2.025-.947a122.832,122.832,0,0,1,13.2-4.3c.16-.044.3-.068.415.163-.452.7-.939,1.406-1.386,2.139-.511.836-1.007,1.683-1.468,2.547a2.678,2.678,0,0,0-.269,1.005.593.593,0,0,0,.3.452.628.628,0,0,0,.539-.065,1.38,1.38,0,0,0,.4-.554,37.787,37.787,0,0,1,3.417-5.761,1.748,1.748,0,0,1,1.125-.765c2.4-.578,4.8-1.169,7.2-1.751.172-.042.721-.128.721-.128s-.267.624-.359.83c-.747,1.685-1.5,3.365-2.249,5.051a7.187,7.187,0,0,0-.408,1.1.473.473,0,0,0,.31.567.5.5,0,0,0,.636-.135,9.892,9.892,0,0,0,.8-1.7c.65-1.477,1.232-3.029,1.824-4.611.614-1.637.351-1.354,1.416-1.582,1.533-.328,3.076-.608,4.617-.9a163.635,163.635,0,0,1,20.292-2.5,5.307,5.307,0,0,1,.919-.031c-.111.263-.261.555-.337.73-.487,1.114-1.005,2.215-1.453,3.344-.492,1.238-.926,2.5-1.369,3.757a1.481,1.481,0,0,0-.112.84.2.2,0,0,0,.33.1c.528-.477.653-1.2,1.174-1.563.713.426.783.449,1.4.2a5.7,5.7,0,0,0,2.779-2.445,2.488,2.488,0,0,0,.283-.889.723.723,0,0,0-.732-.864,1.841,1.841,0,0,0-1.1.343,8.982,8.982,0,0,0-2.008,1.8c-.222.25-.45.495-.675.742a35.365,35.365,0,0,1,2.358-5.523c.357-.717.188-.683,1.107-.69,1.176-.008,2.351-.081,3.527-.1.3-.006.674-.01,1.1.017-.207.43-.44.865-.609,1.2-.6,1.193-1.225,2.369-1.777,3.582a17.841,17.841,0,0,0-.712,2.112.519.519,0,0,0,.8.636,6.108,6.108,0,0,0,1.742-1.594c.087-.181-.228-.308-.352-.341a.572.572,0,0,0-.432.105,3.583,3.583,0,0,0-.382.443c-.151.161-.318.306-.559.535a25.519,25.519,0,0,1,3.219-6.611,186.043,186.043,0,0,1,23.11,1.392.177.177,0,0,1,.119.282c-.2.259-.463.54-.616.747a18.981,18.981,0,0,0-2.307,3.818,6.6,6.6,0,0,0-.709,2.713,2.43,2.43,0,0,0,1.993,2.556c.189.052.385.078.577.118a9.165,9.165,0,0,0,4.024-.107,48.4,48.4,0,0,0,5.2-1.5c1.173-.415.6-1.288.124-1.115-.48.154-.915.382-1.32.536a32.548,32.548,0,0,1-4.394,1.417,10.222,10.222,0,0,1-2.907.308,4.263,4.263,0,0,1-1.7-.411,1.531,1.531,0,0,1-1-1.576,8.3,8.3,0,0,1,.384-2.069,16.541,16.541,0,0,1,3.549-5.494c.515.053,4.553.6,6.112.892,1.52.3,4.975.9,6.006,1.176-.614,1.015-1.2,1.944-1.666,2.923s-.971,1.954-1.425,2.862a4.767,4.767,0,0,0-.425,1.189c-.134,1,.442,1.192.722,1.131a2.041,2.041,0,0,0,1.29-.942.4.4,0,0,0-.372-.573,5.913,5.913,0,0,0-.831.267,25.938,25.938,0,0,1,3.473-6.606,66.018,66.018,0,0,1,7.935,2.116c-.416.918-.836,1.754-1.176,2.622-.442,1.13-.828,2.283-1.214,3.433a1.434,1.434,0,0,0-.021.687c.013.072.262.171.366.138a.719.719,0,0,0,.319-.318c.227-.366.418-.755.653-1.117a6.722,6.722,0,0,1,3.053-2.674,2.867,2.867,0,0,1,1.023-.192.468.468,0,0,1,.409.747,4.333,4.333,0,0,1-.743.9,10.617,10.617,0,0,1-2.689,1.676,4.192,4.192,0,0,0-.7.41.329.329,0,0,0-.046.312.354.354,0,0,0,.277.158,1.02,1.02,0,0,0,.441-.135c.785-.446,1.585-.872,2.336-1.37a14.08,14.08,0,0,0,1.548-1.261,1.587,1.587,0,0,0,.518-1.03.828.828,0,0,0-.729-1.015,2.787,2.787,0,0,0-1.6.218,8.9,8.9,0,0,0-2.481,1.522l-.606.516a24.433,24.433,0,0,1,1.731-4.045c.451.128,1.006.3,1.48.469,1.254.451,2.5.934,3.748,1.39a1.473,1.473,0,0,0,.685.111.622.622,0,0,0,.419-.344.727.727,0,0,0-.108-.529.713.713,0,0,0-.378-.251c-.519-.177-1.045-.338-1.571-.5-1.239-.37-2.573-.773-3.88-1.159,0,0,.139-.229.177-.293a45.071,45.071,0,0,1,5.819-7.969,6.926,6.926,0,0,0,.618-.7.365.365,0,0,0-.139-.512c-.108-.074-.332-.125-.414-.065a4.531,4.531,0,0,0-.768.709,53.13,53.13,0,0,0-5.383,7.581c-.194.333-.382.688-.607,1.058-2.62-.684-5.217-1.348-7.879-1.968a5.96,5.96,0,0,1,.391-.592Zm-75.578,4.5c-1.332.422-7.151,1.682-7.809,1.706,1.592-3.129,10.117-11.873,12.861-13.173.009.116.057.238.02.322C208.621,495.628,206.809,499.4,205.191,503.049ZM233.5,504.4a2.812,2.812,0,0,1,.743-.311c.19-.057.386.164.348.355a.976.976,0,0,1-.02.114,3.922,3.922,0,0,1-2.943,2.4,2.459,2.459,0,0,1-.5-.1A9.473,9.473,0,0,1,233.5,504.4Z" transform="translate(-177.521 -490.07)"/>
      <path id="パス_353" data-name="パス 353" d="M388.211,528a2.3,2.3,0,0,0-.589.019c.225-.29.313-.419.417-.535.339-.379.7-.739,1.015-1.138a.608.608,0,0,0,.083-.524c-.1-.222-.33-.126-.5-.026-.236.138-.467.287-.693.442-1,.685-1.99,1.392-3.008,2.053-.622.4-1.284.747-1.94,1.1-.106.057-.271,0-.519,0,.123-.346.2-.6.3-.84.123-.286.284-.557.4-.845a.448.448,0,0,0-.232-.588.456.456,0,0,0-.6.224c-.206.587-.388,1.184-.554,1.784a1.017,1.017,0,0,0,.041.461.594.594,0,0,0,.679.512,3.044,3.044,0,0,0,.99-.321c.851-.483,1.674-1.013,2.511-1.519.171-.1.359-.182.608-.305a8.116,8.116,0,0,0-.249.887.467.467,0,0,0,.408.494,2.559,2.559,0,0,0,1.7-.653.469.469,0,0,0,.062-.426A.562.562,0,0,0,388.211,528Z" transform="translate(-284.003 -508.64)"/>
    </g>
    <g id="グループ_88" data-name="グループ 88" transform="translate(194.671 296.837)">
      <g id="グループ_73" data-name="グループ 73">
        <path id="パス_354" data-name="パス 354" d="M255.12,378.571a39.962,39.962,0,1,1,39.962-39.962A40.008,40.008,0,0,1,255.12,378.571Zm0-79.686a39.723,39.723,0,1,0,39.723,39.723A39.768,39.768,0,0,0,255.12,298.885Z" transform="translate(-214.292 -297.78)"/>
        <path id="パス_355" data-name="パス 355" d="M254.177,378.494a40.829,40.829,0,1,1,40.828-40.829A40.875,40.875,0,0,1,254.177,378.494Zm0-81.418a40.589,40.589,0,1,0,40.589,40.589A40.635,40.635,0,0,0,254.177,297.076Z" transform="translate(-213.348 -296.837)"/>
      </g>
      <path id="パス_356" data-name="パス 356" d="M283.635,304.659a1.251,1.251,0,1,1,1.233-1.468h0a1.252,1.252,0,0,1-1.233,1.468Zm0-2.263a1.053,1.053,0,0,0-.176.015,1.012,1.012,0,1,0,1.172.821h0A1.013,1.013,0,0,0,283.636,302.4Z" transform="translate(-249.336 -299.61)"/>
      <path id="パス_357" data-name="パス 357" d="M270.7,308.226a.985.985,0,0,1-.894-1.4.985.985,0,0,1,1.819.079h0a.986.986,0,0,1-.589,1.263A.974.974,0,0,1,270.7,308.226Zm0-1.732a.746.746,0,0,0-.7,1,.745.745,0,1,0,.7-1Z" transform="translate(-242.731 -301.746)"/>
      <path id="パス_358" data-name="パス 358" d="M258,313.991a1.26,1.26,0,0,1-.326-.043,1.243,1.243,0,1,1,.326.043Zm0-2.263a1.011,1.011,0,1,0,.878.506A1.009,1.009,0,0,0,258,311.727Z" transform="translate(-235.973 -304.475)"/>
      <path id="パス_359" data-name="パス 359" d="M246.788,321.843c-.037,0-.074,0-.111,0a1.249,1.249,0,1,1,.111,0Zm0-2.263a1.011,1.011,0,1,0,.09,0C246.844,319.581,246.814,319.58,246.784,319.58Z" transform="translate(-230.127 -308.568)"/>
      <path id="パス_360" data-name="パス 360" d="M237.392,331.549a.986.986,0,1,1,.635-1.741h0a.985.985,0,0,1-.635,1.741Zm0-1.732a.746.746,0,1,0,.48.175h0A.744.744,0,0,0,237.394,329.817Z" transform="translate(-225.369 -313.905)"/>
      <path id="パス_361" data-name="パス 361" d="M229.249,342.741a1.251,1.251,0,1,1,.628-2.335h0a1.252,1.252,0,0,1-.628,2.335Zm0-2.264a1.012,1.012,0,0,0-.508,1.888,1.012,1.012,0,0,0,1.012-1.753h0A1.009,1.009,0,0,0,229.253,340.477Z" transform="translate(-220.986 -319.461)"/>
      <path id="パス_362" data-name="パス 362" d="M223.465,355.15a1.251,1.251,0,1,1,.427-2.428h0a1.252,1.252,0,0,1-.427,2.428Zm0-2.264a1.012,1.012,0,1,0,.345.061h0A1,1,0,0,0,223.465,352.886Z" transform="translate(-217.969 -325.93)"/>
      <path id="パス_363" data-name="パス 363" d="M220.209,368.4a.951.951,0,0,1-.171-.015.986.986,0,1,1,.342-1.942h0a.986.986,0,0,1-.171,1.957Zm0-1.732a.745.745,0,1,0,.13.011A.749.749,0,0,0,220.209,366.666Z" transform="translate(-216.41 -333.113)"/>
      <path id="パス_364" data-name="パス 364" d="M219.918,395.655a1.252,1.252,0,0,1-1.229-1.034,1.253,1.253,0,0,1,1.014-1.45h0a1.251,1.251,0,0,1,.435,2.464A1.273,1.273,0,0,1,219.918,395.655Zm-.173-2.248a1.013,1.013,0,1,0,.756.168,1.014,1.014,0,0,0-.756-.168Z" transform="translate(-216.122 -347.046)"/>
      <path id="パス_365" data-name="パス 365" d="M223.751,408.9a.991.991,0,1,1,.338-.06A.983.983,0,0,1,223.751,408.9Zm0-1.733a.749.749,0,0,0-.677.431.745.745,0,1,0,.677-.431Z" transform="translate(-218.257 -354.228)"/>
      <path id="パス_366" data-name="パス 366" d="M229.253,421.288a1.25,1.25,0,1,1,.623-.167A1.252,1.252,0,0,1,229.253,421.288Zm0-2.263a1.014,1.014,0,1,0,.264.035A1.006,1.006,0,0,0,229.249,419.025Z" transform="translate(-220.986 -360.408)"/>
      <path id="パス_367" data-name="パス 367" d="M237.106,432.5c-.037,0-.074,0-.112,0a1.251,1.251,0,0,1-.7-2.2h0a1.251,1.251,0,1,1,.807,2.21Zm0-2.263a1,1,0,0,0-.649.237h0a1.01,1.01,0,1,0,.738-.233C237.162,430.243,237.132,430.242,237.1,430.242Z" transform="translate(-225.08 -366.255)"/>
      <path id="パス_368" data-name="パス 368" d="M247.073,442.21a.985.985,0,0,1-.754-1.619h0a.986.986,0,1,1,.754,1.619Zm-.571-1.465h0a.747.747,0,1,0,1.052-.092A.747.747,0,0,0,246.5,440.745Z" transform="translate(-230.415 -371.592)"/>
      <path id="パス_369" data-name="パス 369" d="M258,450.039a1.251,1.251,0,1,1,1.086-.625A1.243,1.243,0,0,1,258,450.039Zm0-2.263a1.013,1.013,0,1,0,.5.136A1.008,1.008,0,0,0,258,447.777Z" transform="translate(-235.973 -375.396)"/>
      <path id="パス_370" data-name="パス 370" d="M270.41,455.827a1.252,1.252,0,0,1-1.176-1.68h0a1.25,1.25,0,1,1,1.176,1.68Zm-.952-1.6h0a1.012,1.012,0,1,0,1.3-.6,1.012,1.012,0,0,0-1.3.6Z" transform="translate(-242.441 -378.412)"/>
      <path id="パス_371" data-name="パス 371" d="M283.926,459.394a.986.986,0,0,1-.973-1.158h0a.986.986,0,1,1,.973,1.158Zm0-1.733a.748.748,0,0,0-.735.617h0a.747.747,0,1,0,.865-.606A.706.706,0,0,0,283.924,457.661Z" transform="translate(-249.625 -380.548)"/>
      <path id="パス_372" data-name="パス 372" d="M310.912,459.37a1.253,1.253,0,0,1-1.229-1.034h0a1.251,1.251,0,1,1,1.45,1.015A1.227,1.227,0,0,1,310.912,459.37Zm0-2.263a1.057,1.057,0,0,0-.176.015,1.012,1.012,0,0,0-.821,1.172h0a1.012,1.012,0,1,0,1-1.187Z" transform="translate(-263.557 -380.26)"/>
      <path id="パス_373" data-name="パス 373" d="M324.429,455.851a.99.99,0,0,1-.926-.65h0a.982.982,0,1,1,.926.65Zm-.7-.731a.747.747,0,1,0,.447-.957.748.748,0,0,0-.447.957Z" transform="translate(-270.74 -378.702)"/>
      <path id="パス_374" data-name="パス 374" d="M336.552,450.04a1.264,1.264,0,0,1-.326-.043,1.242,1.242,0,0,1-.76-.583h0a1.25,1.25,0,1,1,1.086.626Zm0-2.263a1.012,1.012,0,0,0-.875,1.517h0a1.012,1.012,0,1,0,.875-1.517Z" transform="translate(-276.92 -375.396)"/>
      <path id="パス_375" data-name="パス 375" d="M347.768,442.187c-.037,0-.074,0-.112,0a1.245,1.245,0,0,1-.849-.442h0a1.25,1.25,0,1,1,.961.447Zm0-2.263a1.011,1.011,0,0,0-.774,1.662h0a1.012,1.012,0,1,0,.774-1.662Z" transform="translate(-282.767 -371.303)"/>
      <path id="パス_376" data-name="パス 376" d="M357.734,432.529a.978.978,0,0,1-.632-.231h0a.985.985,0,1,1,.72.227C357.793,432.528,357.763,432.529,357.734,432.529Zm0-1.732a.746.746,0,0,0-.481,1.318h0a.747.747,0,1,0,.481-1.318Z" transform="translate(-288.102 -366.545)"/>
      <path id="パス_377" data-name="パス 377" d="M365.3,421.289a1.253,1.253,0,1,1,.326-.043A1.242,1.242,0,0,1,365.3,421.289Zm0-2.264a1.012,1.012,0,1,0,.875,1.518,1.012,1.012,0,0,0-.875-1.518Z" transform="translate(-291.908 -360.408)"/>
      <path id="パス_378" data-name="パス 378" d="M371.086,408.88a1.243,1.243,0,0,1-.427-.076h0a1.251,1.251,0,1,1,.427.076Zm-.345-.3a1.012,1.012,0,1,0-.6-1.3,1.015,1.015,0,0,0,.6,1.3Z" transform="translate(-294.924 -353.94)"/>
      <path id="パス_379" data-name="パス 379" d="M374.92,395.678a.95.95,0,0,1-.171-.015h0a.983.983,0,1,1,.171.015Zm-.13-.251a.747.747,0,0,0,.741-1.164.747.747,0,1,0-.741,1.164Z" transform="translate(-297.06 -347.334)"/>
      <path id="パス_380" data-name="パス 380" d="M374.63,368.374a1.252,1.252,0,1,1,.218-.019h0A1.248,1.248,0,0,1,374.63,368.374Zm0-2.263a1.012,1.012,0,1,0,.175,2.008h0a1.012,1.012,0,0,0-.175-2.008Z" transform="translate(-296.771 -332.824)"/>
      <path id="パス_381" data-name="パス 381" d="M371.374,355.173a.988.988,0,1,1,.338-.06h0A.983.983,0,0,1,371.374,355.173Zm0-1.733a.747.747,0,1,0,.7.492A.743.743,0,0,0,371.374,353.44Z" transform="translate(-295.212 -326.219)"/>
      <path id="パス_382" data-name="パス 382" d="M365.3,342.741a1.254,1.254,0,1,1,.624-.168h0A1.243,1.243,0,0,1,365.3,342.741Zm0-2.264a1.011,1.011,0,1,0,.263.034A1.006,1.006,0,0,0,365.3,340.477Z" transform="translate(-291.908 -319.461)"/>
      <path id="パス_383" data-name="パス 383" d="M357.449,331.526c-.037,0-.074,0-.111,0a1.251,1.251,0,1,1,.913-.288h0A1.242,1.242,0,0,1,357.449,331.526Zm0-2.262a1.012,1.012,0,1,0,.651,1.786h0a1.011,1.011,0,0,0-.651-1.786Z" transform="translate(-287.814 -313.616)"/>
      <path id="パス_384" data-name="パス 384" d="M348.053,321.867a.987.987,0,1,1,.757-.352h0a.979.979,0,0,1-.669.348C348.112,321.865,348.082,321.867,348.053,321.867Zm0-1.732-.067,0a.747.747,0,1,0,.637,1.224h0a.747.747,0,0,0-.571-1.226Z" transform="translate(-283.056 -308.857)"/>
      <path id="パス_385" data-name="パス 385" d="M336.547,313.989a1.251,1.251,0,1,1,1.086-.625h0A1.253,1.253,0,0,1,336.547,313.989Zm0-2.263a1.012,1.012,0,1,0,.5.135A1.011,1.011,0,0,0,336.551,311.726Z" transform="translate(-276.92 -304.474)"/>
      <path id="パス_386" data-name="パス 386" d="M324.141,308.2a1.252,1.252,0,1,1,1.175-.824h0a1.253,1.253,0,0,1-1.175.824Zm0-2.263a1.012,1.012,0,1,0,.949,1.358h0a1.011,1.011,0,0,0-.949-1.358Z" transform="translate(-270.451 -301.458)"/>
      <path id="パス_387" data-name="パス 387" d="M311.206,304.683a1.013,1.013,0,0,1-.173-.015.986.986,0,1,1,1.142-.8h0a.986.986,0,0,1-.969.814Zm0-1.732a.746.746,0,0,0-.611,1.174.746.746,0,0,0,1.346-.3.747.747,0,0,0-.605-.865A.714.714,0,0,0,311.2,302.951Z" transform="translate(-263.846 -299.899)"/>
      <rect id="長方形_105" data-name="長方形 105" width="0.239" height="18.188" transform="translate(50.309 7.53)"/>
      <rect id="長方形_106" data-name="長方形 106" width="0.24" height="20.974" transform="matrix(0.966, -0.259, 0.259, 0.966, 39.055, 6.252)"/>
      <rect id="長方形_107" data-name="長方形 107" width="0.239" height="23.04" transform="translate(27.543 8.838) rotate(-30)"/>
      <rect id="長方形_108" data-name="長方形 108" width="0.239" height="24.119" transform="translate(17.366 15.344) rotate(-45)"/>
      <rect id="長方形_109" data-name="長方形 109" width="0.239" height="23.992" transform="translate(9.983 25.024) rotate(-60)"/>
      <rect id="長方形_110" data-name="長方形 110" width="0.24" height="22.998" transform="translate(6.425 36.571) rotate(-75)"/>
      <rect id="長方形_111" data-name="長方形 111" width="11.53" height="0.239" transform="translate(26.268 72.23) rotate(-45)"/>
      <rect id="長方形_112" data-name="長方形 112" width="8.36" height="0.239" transform="matrix(0.5, -0.866, 0.866, 0.5, 34.882, 74.923)"/>
      <rect id="長方形_113" data-name="長方形 113" width="5.593" height="0.24" transform="translate(43.036 75.367) rotate(-75.015)"/>
      <rect id="長方形_114" data-name="長方形 114" width="0.239" height="3.37" transform="translate(50.309 70.757)"/>
      <rect id="長方形_115" data-name="長方形 115" width="0.24" height="1.697" transform="translate(56.143 70.026) rotate(-15.001)"/>
      <rect id="長方形_116" data-name="長方形 116" width="0.239" height="0.6" transform="translate(61.587 67.803) rotate(-30.014)"/>
      <path id="パス_388" data-name="パス 388" d="M364.68,409.933l-.6-.161.062-.231.6.161Z" transform="translate(-291.923 -355.589)"/>
      <rect id="長方形_117" data-name="長方形 117" width="1.732" height="0.239" transform="translate(72.949 48.118)"/>
      <rect id="長方形_118" data-name="長方形 118" width="3.399" height="0.24" transform="translate(72.156 42.293) rotate(-15.039)"/>
      <rect id="長方形_119" data-name="長方形 119" width="5.654" height="0.239" transform="matrix(0.866, -0.5, 0.5, 0.866, 69.875, 36.873)"/>
      <rect id="長方形_120" data-name="長方形 120" width="8.431" height="0.239" transform="translate(66.268 32.229) rotate(-45)"/>
      <rect id="長方形_121" data-name="長方形 121" width="1.781" height="0.239" transform="matrix(0.5, -0.866, 0.866, 0.5, 66.49, 20.178)"/>
      <rect id="長方形_122" data-name="長方形 122" width="13.923" height="0.24" transform="translate(56.405 25.451) rotate(-74.961)"/>
      <g id="グループ_75" data-name="グループ 75" transform="translate(25.574 11.122)">
        <circle id="楕円形_21" data-name="楕円形 21" cx="0.866" cy="0.866" r="0.866" transform="translate(14.388 28.84)"/>
        <circle id="楕円形_22" data-name="楕円形 22" cx="1.696" cy="1.696" r="1.696" transform="translate(25.93 51.947)"/>
        <g id="グループ_74" data-name="グループ 74">
          <rect id="長方形_123" data-name="長方形 123" width="0.359" height="57.648" transform="matrix(0.889, -0.457, 0.457, 0.889, 1.106, 2.457)"/>
          <path id="パス_389" data-name="パス 389" d="M267.208,324.1l-.436-4.028,3.1,2.608-1.769-.11Zm-.134-3.461.294,2.714.6-1.031,1.192.074Z" transform="translate(-266.772 -320.071)"/>
          <path id="パス_390" data-name="パス 390" d="M267.088,320.664l1.114,2.091,1.481.092Z" transform="translate(-266.937 -320.38)"/>
        </g>
      </g>
      <path id="パス_391" data-name="パス 391" d="M298.331,303.512l-1.476-2.3v2.241h-.239v-2.649l.22-.065,1.476,2.3v-2.3h.239v2.7Z" transform="translate(-256.755 -298.873)"/>
      <circle id="楕円形_23" data-name="楕円形 23" cx="1.131" cy="1.131" r="1.131" transform="translate(2.096 39.697)"/>
      <circle id="楕円形_24" data-name="楕円形 24" cx="1.131" cy="1.131" r="1.131" transform="translate(77.299 39.697)"/>
      <path id="パス_392" data-name="パス 392" d="M290.275,383.649a12.272,12.272,0,0,1-7.679-2.707l.15-.186a12.007,12.007,0,1,0,14.669-19.007l.142-.192a12.246,12.246,0,0,1-7.282,22.092Z" transform="translate(-249.446 -330.575)"/>
      <g id="グループ_76" data-name="グループ 76" transform="translate(19.94 30.483)">
        <path id="パス_393" data-name="パス 393" d="M255.808,364.736a2.865,2.865,0,0,1-.677-2.692c.9-2.145,6.4-2.026,14.348.31l-.068.229c-7.7-2.263-13.219-2.44-14.06-.446A2.655,2.655,0,0,0,256,364.6Z" transform="translate(-255.002 -360.515)"/>
        <path id="パス_394" data-name="パス 394" d="M288.657,386.412a74.517,74.517,0,0,1-12.642-4.143c-7.123-3-13.276-6.672-16.461-9.811l.168-.171c3.164,3.119,9.289,6.768,16.386,9.761a74.213,74.213,0,0,0,12.6,4.13Z" transform="translate(-257.375 -366.651)"/>
        <path id="パス_395" data-name="パス 395" d="M328.242,396.422a26.656,26.656,0,0,1-4.677-.5l.043-.236c4.833.883,7.953.56,8.564-.887.448-1.062-.516-2.724-2.713-4.681l.159-.179c2.313,2.059,3.272,3.772,2.774,4.953C331.966,395.908,330.532,396.422,328.242,396.422Z" transform="translate(-290.744 -375.856)"/>
        <path id="パス_396" data-name="パス 396" d="M328.386,384.6a44.73,44.73,0,0,0-4.546-3.1l.123-.205a44.949,44.949,0,0,1,4.571,3.113Z" transform="translate(-290.887 -371.35)"/>
        <path id="パス_397" data-name="パス 397" d="M333.774,388.981a.917.917,0,1,1,.524-.166A.914.914,0,0,1,333.774,388.981Zm0-1.594a.677.677,0,0,0-.117,1.344h0a.669.669,0,0,0,.506-.112.677.677,0,0,0-.271-1.222A.661.661,0,0,0,333.772,387.387Z" transform="translate(-295.587 -374.398)"/>
        <path id="パス_398" data-name="パス 398" d="M256.93,370.825a1.167,1.167,0,0,1-.4-.07h0a1.156,1.156,0,1,1,.4.07Zm-.316-.3a.921.921,0,1,0-.55-1.181.923.923,0,0,0,.55,1.181Z" transform="translate(-255.402 -364.678)"/>
        <path id="パス_399" data-name="パス 399" d="M320.947,401.721a.918.918,0,0,1-.863-.6h0a.917.917,0,1,1,1.175.548A.906.906,0,0,1,320.947,401.721Zm-.638-.685a.678.678,0,1,0,.4-.868.678.678,0,0,0-.4.868Z" transform="translate(-288.901 -381.039)"/>
      </g>
      <path id="パス_400" data-name="パス 400" d="M336.26,345.84l-.048-.235a5.945,5.945,0,0,0,2.314-10.63,6.149,6.149,0,0,1-9.105,6.707,6.1,6.1,0,0,0,.528,1.161l-.206.122a6.38,6.38,0,0,1-.645-1.52l-.086-.306.267.174a5.912,5.912,0,0,0,8.942-6.567l-.086-.305.266.173a.344.344,0,0,0,.046.024.65.65,0,0,1,.079.045,6.184,6.184,0,0,1-2.265,11.158Z" transform="translate(-273.643 -316.44)"/>
      <circle id="楕円形_25" data-name="楕円形 25" cx="1.131" cy="1.131" r="1.131" transform="translate(39.697 77.299)"/>
      <path id="パス_401" data-name="パス 401" d="M299.7,396.052A17.443,17.443,0,1,1,317.14,378.61,17.462,17.462,0,0,1,299.7,396.052Zm0-34.646a17.2,17.2,0,1,0,17.2,17.2A17.223,17.223,0,0,0,299.7,361.406Z" transform="translate(-249.269 -330.372)"/>
      <path id="パス_402" data-name="パス 402" d="M260.78,379.033c-.484,0-.992-.013-1.6-.041-.136-.006-.273-.014-.409-.022l-.043,0c-.407-.023-.822-.055-1.235-.093l-.142-.013c-.081-.007-.161-.014-.242-.022-.527-.055-1.046-.121-1.545-.2l-.181-.03-.131-.022c-.416-.067-.834-.141-1.245-.222l-.441-.09c-.454-.1-.9-.2-1.313-.3l-.2-.048c-.461-.119-.942-.256-1.469-.417l-.276-.088-.116-.037c-.381-.122-.757-.249-1.119-.379l-.1-.036c-.095-.034-.19-.067-.284-.1-.513-.19-.972-.371-1.4-.554l-.184-.081c-.392-.169-.8-.351-1.2-.544q-.2-.095-.395-.191c-.368-.18-.734-.368-1.089-.558l-.112-.059c-.053-.027-.106-.055-.158-.084-.422-.23-.857-.48-1.292-.743-.065-.039-.128-.078-.192-.119l-.12-.075q-.5-.308-.988-.633c-.131-.087-.242-.16-.352-.236-.47-.321-.857-.6-1.218-.866s-.743-.571-1.176-.924c-.1-.083-.2-.168-.3-.253-.32-.268-.614-.523-.9-.783l-.1-.093c-.056-.05-.112-.1-.167-.15-.373-.341-.734-.685-1.072-1.022l-.211-.216c-.279-.283-.561-.578-.836-.877q-.147-.159-.292-.321c-.3-.332-.585-.663-.854-.986l-.129-.151c-.295-.358-.6-.74-.918-1.168q-.089-.119-.177-.239l-.063-.086q-.342-.465-.67-.941l-.08-.117c-.05-.072-.1-.144-.148-.217-.3-.442-.56-.853-.8-1.255l-.1-.173c-.217-.361-.431-.732-.653-1.136-.07-.128-.139-.256-.208-.385-.191-.358-.379-.724-.557-1.088l-.056-.111c-.028-.055-.056-.11-.082-.165l-.049-.1-.392-.876c-.089-.195-.177-.39-.26-.587l-.039-.087c-.068-.164-.13-.327-.192-.491l-.187-.482c-.067-.168-.133-.337-.2-.508-.076-.209-.146-.421-.216-.632l-.157-.469c-.057-.167-.114-.335-.166-.5-.068-.218-.128-.438-.189-.659l-.133-.474c-.048-.168-.1-.336-.14-.506-.058-.229-.11-.461-.162-.694l-.111-.487c-.038-.162-.077-.325-.11-.49-.049-.242-.09-.486-.132-.731l-.089-.5c-.029-.155-.057-.311-.081-.467-.041-.267-.072-.537-.1-.807l-.027-.226c-.011-.087-.022-.174-.034-.26-.019-.144-.038-.289-.053-.434-.034-.332-.056-.667-.078-1l-.012-.168c-.005-.079-.012-.158-.019-.236-.01-.115-.019-.231-.025-.347-.03-.6-.045-1.193-.045-1.776a34.766,34.766,0,1,1,34.766,34.766Zm-18.117-5.374.121.075.189.117c.432.26.864.509,1.283.738l.154.081.114.06c.353.189.717.375,1.081.554l.393.19c.4.192.806.373,1.2.54l.183.081c.429.18.886.36,1.395.55.093.034.187.068.28.1l.1.036c.359.129.733.255,1.111.376l.117.038c.09.029.181.058.272.086.524.161,1,.3,1.459.415l.2.048c.414.1.853.205,1.3.3.146.031.292.06.438.089.408.08.823.155,1.237.221l.134.022.176.029c.5.074,1.012.14,1.534.195l.238.022.144.013c.409.038.822.07,1.227.093l.043,0c.135.008.27.016.406.022.6.027,1.11.04,1.59.04a34.526,34.526,0,1,0-34.526-34.526c0,.58.015,1.173.045,1.764.006.114.015.226.025.339.007.08.013.159.019.239l.012.169c.022.332.044.664.077.994.015.143.034.285.053.426.011.088.023.175.034.263l.027.227c.032.267.064.534.1.8.023.155.052.307.08.46l.089.506c.041.242.082.484.131.723.033.162.071.322.109.483l.112.49c.051.229.1.459.16.686.043.168.09.333.138.5l.134.476c.06.218.12.437.187.652.052.167.108.332.164.5l.158.471c.069.21.138.419.213.626.062.168.127.335.193.5l.189.486c.061.161.122.322.188.481l.039.087c.083.2.171.391.259.583l.439.971c.026.055.053.107.079.161l.057.113c.177.361.363.725.553,1.08q.1.192.207.383c.221.4.433.77.649,1.129l.1.171c.243.4.5.806.8,1.246.048.072.1.143.146.214l.081.118q.325.473.665.935l.063.087c.058.079.116.158.175.236.321.426.619.805.911,1.16l.128.151c.267.32.552.649.848.979l.29.319c.274.3.553.59.831.871l.21.215c.336.334.694.675,1.065,1.014.054.05.109.1.164.147l.106.095q.432.387.877.759c.122.1.222.186.323.269.43.351.811.651,1.167.917s.743.541,1.211.86c.109.075.22.148.329.221.344.228.671.438,1,.642Z" transform="translate(-219.951 -303.439)"/>
      <path id="パス_403" data-name="パス 403" d="M259.837,378.956c-.495,0-1.033-.013-1.645-.042-.127-.005-.253-.013-.379-.021l-.1-.006c-.407-.024-.821-.056-1.229-.093l-.146-.013c-.1-.009-.2-.018-.3-.028-.575-.061-1.1-.127-1.592-.2l-.119-.02-.1-.016c-.443-.07-.9-.152-1.37-.245-.157-.031-.312-.064-.467-.1-.4-.085-.8-.178-1.2-.277l-.148-.036-.23-.057c-.516-.134-1.023-.279-1.508-.428l-.179-.058-.13-.042c-.4-.127-.8-.263-1.2-.405q-.223-.08-.445-.163c-.39-.146-.785-.3-1.174-.462l-.124-.051-.168-.069c-.459-.2-.933-.41-1.409-.637l-.209-.1-.135-.067c-.362-.178-.721-.362-1.066-.546-.136-.073-.272-.146-.407-.22-.405-.224-.8-.45-1.17-.673l-.174-.1c-.411-.25-.833-.521-1.292-.828-.077-.051-.153-.1-.229-.157l-.12-.083q-.481-.331-.95-.676l-.085-.062c-.091-.067-.183-.134-.273-.2-.457-.345-.852-.656-1.207-.949s-.736-.624-1.16-1c-.085-.077-.17-.155-.254-.233l-.075-.069q-.427-.394-.842-.8l-.1-.1c-.066-.064-.131-.128-.2-.193-.385-.387-.73-.749-1.055-1.106l-.137-.156c-.286-.318-.58-.657-.874-1.009q-.147-.177-.292-.356-.376-.462-.736-.936l-.086-.113q-.072-.092-.142-.186c-.309-.416-.607-.836-.887-1.247q-.053-.079-.1-.159l-.07-.107c-.23-.345-.455-.7-.67-1.045q-.122-.2-.242-.4c-.211-.352-.42-.717-.623-1.083l-.062-.111q-.046-.08-.09-.162c-.237-.438-.473-.9-.7-1.37-.034-.071-.067-.142-.1-.213l-.15-.317c-.075-.158-.15-.315-.222-.474l-.17-.4q-.116-.266-.227-.537l-.157-.372c-.042-.1-.079-.206-.116-.308-.026-.072-.053-.145-.08-.216-.1-.25-.187-.49-.273-.733-.1-.291-.2-.585-.3-.88l-.031-.094c-.071-.215-.141-.43-.207-.647-.091-.3-.175-.605-.258-.909l-.041-.148c-.055-.2-.11-.4-.16-.6-.072-.289-.137-.581-.2-.873l-.06-.27c-.041-.181-.081-.361-.118-.544-.057-.287-.107-.576-.156-.866l-.06-.346c-.03-.167-.059-.335-.084-.5-.045-.3-.08-.6-.116-.9l-.048-.389c-.019-.15-.038-.3-.053-.45-.036-.363-.06-.73-.085-1.1l0-.074c-.005-.079-.011-.158-.018-.237-.009-.119-.019-.238-.024-.358-.03-.607-.045-1.209-.045-1.789a35.632,35.632,0,1,1,35.632,35.632Zm0-71.024a35.432,35.432,0,0,0-35.392,35.392c0,.576.015,1.174.045,1.777.006.117.015.234.024.35.007.08.013.16.018.24l0,.075c.024.364.048.729.084,1.09.015.148.034.3.052.443l.048.391c.035.3.071.6.115.9.025.167.054.332.083.5l.06.348c.048.287.1.574.154.859.036.181.077.359.117.539l.06.27c.065.29.129.579.2.866.05.2.1.4.159.593l.041.148c.083.3.166.6.257.9.065.215.135.429.205.642l.031.094c.1.292.192.585.3.874.086.241.177.479.268.717.032.084.058.157.085.231.036.1.073.2.113.3l.157.371c.074.18.15.358.227.535l.169.4c.07.156.145.311.219.467l.151.32c.032.07.065.14.1.209.227.468.462.926.7,1.361.029.053.058.105.088.158l.064.113c.2.364.409.727.619,1.077q.118.2.24.4c.213.346.437.695.665,1.037l.071.109c.034.052.068.1.1.155.277.408.573.825.881,1.239q.068.092.139.182l.087.114q.358.471.731.93c.1.118.192.236.29.353.292.349.584.686.868,1l.136.155c.323.354.665.713,1.047,1.1l.193.191.1.1q.411.4.836.8l.075.069q.125.116.251.231c.421.379.8.7,1.146.992s.752.605,1.206.948c.09.068.18.134.27.2l.085.062q.467.343.944.672l.121.083.226.155c.456.305.876.574,1.283.823l.173.1c.369.221.759.446,1.162.668.135.074.269.146.4.218.342.183.7.365,1.059.542l.136.068.2.1c.473.226.944.438,1.4.633l.163.066.127.052c.386.16.778.315,1.166.46q.22.082.442.162c.394.141.794.276,1.189.4l.133.043.174.056c.481.149.986.292,1.5.426.075.02.151.038.226.056l.15.036c.394.1.794.191,1.189.274.155.033.309.066.464.1.463.092.921.174,1.361.243l.213.036c.493.075,1.01.14,1.581.2l.294.028.147.013c.405.038.816.069,1.221.093l.1.006c.125.008.25.015.375.021.609.028,1.144.041,1.635.041a35.392,35.392,0,0,0,0-70.784Z" transform="translate(-219.008 -302.496)"/>
      <g id="グループ_86" data-name="グループ 86" transform="translate(8.755 44.594)">
        <path id="パス_404" data-name="パス 404" d="M250.221,419.058a4.823,4.823,0,1,1,2.125-.5A4.831,4.831,0,0,1,250.221,419.058Zm0-9.393a4.575,4.575,0,1,0,1.468.243A4.582,4.582,0,0,0,250.22,409.666Z" transform="translate(-238.812 -400.123)"/>
        <g id="グループ_77" data-name="グループ 77" transform="translate(10.553)">
          <path id="パス_405" data-name="パス 405" d="M255.249,399.524l-.2-.138c.015-.022,1.549-2.218,1.336-3.764a8.256,8.256,0,0,1,.59-4.32,4.328,4.328,0,0,0-.913,3.307,3.036,3.036,0,0,1-1.074,2.793,3.1,3.1,0,0,0-1.074,2.075l-.239-.009a3.329,3.329,0,0,1,1.137-2.227,2.808,2.808,0,0,0,1.014-2.595,4.82,4.82,0,0,1,1.567-4.152l.6-.5-.428.659a7.875,7.875,0,0,0-.948,4.938C256.852,397.23,255.315,399.432,255.249,399.524Z" transform="translate(-253.68 -389.992)"/>
          <path id="パス_406" data-name="パス 406" d="M260.388,400.752a6.871,6.871,0,0,1,.2-2.595c.316-.864.9-2.473.238-3.726a4.8,4.8,0,0,1,.007-3.281l.226.079a4.649,4.649,0,0,0-.021,3.089c.717,1.348.1,3.022-.225,3.921a6.774,6.774,0,0,0-.191,2.486Z" transform="translate(-257.155 -390.596)"/>
        </g>
        <g id="グループ_78" data-name="グループ 78" transform="translate(4.803 1.072)">
          <path id="パス_407" data-name="パス 407" d="M244.635,402.269a3.331,3.331,0,0,1-.561-2.437,2.807,2.807,0,0,0-.891-2.639,4.819,4.819,0,0,1-1.468-4.188l.14-.773.1.78A7.873,7.873,0,0,0,244.4,397.4c1.226,1.112,1.464,3.787,1.473,3.9l-.238.02c0-.027-.239-2.695-1.4-3.743a8.257,8.257,0,0,1-2.325-3.688,4.325,4.325,0,0,0,1.426,3.12,3.037,3.037,0,0,1,.972,2.831,3.1,3.1,0,0,0,.511,2.279Z" transform="translate(-241.67 -392.232)"/>
          <path id="パス_408" data-name="パス 408" d="M247.6,401.531a6.869,6.869,0,0,1-1.511-2.119c-.314-.865-.9-2.476-2.213-3.008a4.8,4.8,0,0,1-2.1-2.518L242,393.8a4.648,4.648,0,0,0,1.97,2.38c1.415.572,2.022,2.248,2.348,3.148a6.75,6.75,0,0,0,1.451,2.027Z" transform="translate(-241.725 -393.051)"/>
        </g>
        <g id="グループ_79" data-name="グループ 79" transform="translate(0 9.191)">
          <path id="パス_409" data-name="パス 409" d="M238.889,415.634a3.332,3.332,0,0,1-2-1.506,2.806,2.806,0,0,0-2.379-1.449,4.27,4.27,0,0,1-1.788-.428l.1-.215a4.036,4.036,0,0,0,1.688.4,3.036,3.036,0,0,1,2.564,1.543,3.1,3.1,0,0,0,1.856,1.418Z" transform="translate(-232.204 -410.674)"/>
          <path id="パス_410" data-name="パス 410" d="M238.688,413.464c-.019-.019-1.915-1.91-3.474-1.969a8.117,8.117,0,0,1-3.177-.783l.1-.216a7.872,7.872,0,0,0,3.083.76c1.654.063,3.556,1.959,3.636,2.04Z" transform="translate(-231.844 -409.871)"/>
          <path id="パス_411" data-name="パス 411" d="M239.552,411.086a6.873,6.873,0,0,1-2.52-.652c-.8-.461-2.28-1.319-3.629-.881a3.249,3.249,0,0,1-1.768-.011l.057-.233a3.005,3.005,0,0,0,1.637.016c1.452-.471,2.994.422,3.822.9a6.758,6.758,0,0,0,2.415.62Z" transform="translate(-231.636 -409.192)"/>
        </g>
        <g id="グループ_80" data-name="グループ 80" transform="translate(3.123 13.844)">
          <path id="パス_412" data-name="パス 412" d="M242.912,425.883a5.72,5.72,0,0,1-1.246-.181,6.638,6.638,0,0,0-.98-.167l.016-.239a6.776,6.776,0,0,1,1.017.172,3.1,3.1,0,0,0,2.334-.107l.112.212A2.6,2.6,0,0,1,242.912,425.883Z" transform="translate(-239.476 -422.24)"/>
          <path id="パス_413" data-name="パス 413" d="M239.573,423.521l-.084-.224a8.77,8.77,0,0,1,3.315-.352l-.022.238A8.7,8.7,0,0,0,239.573,423.521Z" transform="translate(-238.852 -420.999)"/>
          <path id="パス_414" data-name="パス 414" d="M238.226,420.5l-.067-.229a11.467,11.467,0,0,1,1.27-.28,6.761,6.761,0,0,0,2.249-1.078l.142.193a6.886,6.886,0,0,1-2.35,1.12A11.419,11.419,0,0,0,238.226,420.5Z" transform="translate(-238.159 -418.912)"/>
        </g>
        <g id="グループ_81" data-name="グループ 81" transform="translate(6.358 16.97)">
          <path id="パス_415" data-name="パス 415" d="M247.82,431.393l-.15-.187a6.018,6.018,0,0,1,1-.607,3.1,3.1,0,0,0,1.719-1.582l.222.09a3.33,3.33,0,0,1-1.83,1.7A5.757,5.757,0,0,0,247.82,431.393Z" transform="translate(-246.352 -427.306)"/>
          <path id="パス_416" data-name="パス 416" d="M246.643,430.13l-.2-.137a9.459,9.459,0,0,1,2.072-2.019l.136.2A9.419,9.419,0,0,0,246.643,430.13Z" transform="translate(-245.715 -426.761)"/>
          <path id="パス_417" data-name="パス 417" d="M245.1,428.094l-.185-.152.192-.23a6.771,6.771,0,0,0,1.03-2.271l.233.057a6.873,6.873,0,0,1-1.079,2.368C245.231,427.939,245.167,428.015,245.1,428.094Z" transform="translate(-244.917 -425.442)"/>
        </g>
        <g id="グループ_82" data-name="グループ 82" transform="translate(10.308 18.189)">
          <path id="パス_418" data-name="パス 418" d="M259.565,435.493l-.239-.008a4.055,4.055,0,0,0-.5-2.115,3.035,3.035,0,0,1,.054-2.992,3.1,3.1,0,0,0,.3-2.317l.227-.073a3.332,3.332,0,0,1-.306,2.482,2.808,2.808,0,0,0-.066,2.785A4.285,4.285,0,0,1,259.565,435.493Z" transform="translate(-255.919 -427.988)"/>
          <path id="パス_419" data-name="パス 419" d="M257.858,435.675a7.854,7.854,0,0,0-.821-2.508c-.773-1.464-.081-4.059-.051-4.169l.231.063c-.007.026-.7,2.614.032,3.994a8.092,8.092,0,0,1,.845,2.585Z" transform="translate(-254.995 -428.514)"/>
          <path id="パス_420" data-name="パス 420" d="M254.477,434.642a6.118,6.118,0,0,1-.638-3.173,6.761,6.761,0,0,0-.671-2.4l.215-.106a6.877,6.877,0,0,1,.7,2.508,5.918,5.918,0,0,0,.6,3.045Z" transform="translate(-253.168 -428.496)"/>
        </g>
        <g id="グループ_83" data-name="グループ 83" transform="translate(13.549 15.702)">
          <path id="パス_421" data-name="パス 421" d="M269.884,431.273l-.357-.7a7.871,7.871,0,0,0-3.8-3.29c-1.533-.625-2.671-3.058-2.719-3.161l.217-.1c.011.024,1.146,2.45,2.592,3.039a8.256,8.256,0,0,1,3.446,2.671,4.33,4.33,0,0,0-2.407-2.444,3.037,3.037,0,0,1-1.882-2.327,3.1,3.1,0,0,0-1.259-1.967l.127-.2a3.331,3.331,0,0,1,1.361,2.1,2.806,2.806,0,0,0,1.74,2.175,4.82,4.82,0,0,1,2.812,3.433Z" transform="translate(-261.538 -422.792)"/>
          <path id="パス_422" data-name="パス 422" d="M267.944,433.275a4.645,4.645,0,0,0-2.664-1.562c-1.525-.054-2.669-1.421-3.283-2.155a6.778,6.778,0,0,0-2.057-1.409l.1-.219a6.875,6.875,0,0,1,2.145,1.474c.591.706,1.69,2.02,3.108,2.069a4.8,4.8,0,0,1,2.838,1.646Z" transform="translate(-259.939 -425.47)"/>
        </g>
        <g id="グループ_84" data-name="グループ 84" transform="translate(15.719 12.446)">
          <path id="パス_423" data-name="パス 423" d="M274.783,418.63l-.724-.307a7.867,7.867,0,0,0-5.028-.077c-1.576.507-4.012-.625-4.114-.674l.1-.216c.024.011,2.454,1.139,3.939.663a8.254,8.254,0,0,1,4.357-.169,4.331,4.331,0,0,0-3.415-.325,3.034,3.034,0,0,1-2.937-.573,3.1,3.1,0,0,0-2.23-.7l-.033-.237a3.329,3.329,0,0,1,2.391.732,2.807,2.807,0,0,0,2.731.549,4.817,4.817,0,0,1,4.361.822Z" transform="translate(-264.592 -415.992)"/>
          <path id="パス_424" data-name="パス 424" d="M264.54,421.768l-.068-.23a6.879,6.879,0,0,1,2.591-.249c.906.16,2.593.461,3.711-.412a4.8,4.8,0,0,1,3.232-.563l-.039.236a4.646,4.646,0,0,0-3.046.516c-1.2.94-2.958.628-3.9.46A6.733,6.733,0,0,0,264.54,421.768Z" transform="translate(-264.473 -418.21)"/>
        </g>
        <g id="グループ_85" data-name="グループ 85" transform="translate(13.736 5.53)">
          <path id="パス_425" data-name="パス 425" d="M261.495,407.081l-.061-.232c.026-.007,2.612-.7,3.443-2.024a8.26,8.26,0,0,1,3.229-2.93,4.329,4.329,0,0,0-2.825,1.946,3.036,3.036,0,0,1-2.618,1.449,3.1,3.1,0,0,0-2.156.9l-.178-.16a3.333,3.333,0,0,1,2.3-.976,2.806,2.806,0,0,0,2.444-1.335,4.819,4.819,0,0,1,3.869-2.173h0l.786,0-.752.23a7.874,7.874,0,0,0-3.9,3.174C264.2,406.353,261.6,407.052,261.495,407.081Z" transform="translate(-260.329 -401.544)"/>
          <path id="パス_426" data-name="パス 426" d="M264.788,408.778l-.2-.133a6.879,6.879,0,0,1,1.824-1.856c.8-.459,2.283-1.314,2.578-2.7a4.794,4.794,0,0,1,2.114-2.509l.122.206a4.648,4.648,0,0,0-2,2.353c-.317,1.493-1.862,2.382-2.693,2.859A6.779,6.779,0,0,0,264.788,408.778Z" transform="translate(-262.55 -401.562)"/>
        </g>
      </g>
      <rect id="長方形_124" data-name="長方形 124" width="6.822" height="0.239" transform="translate(6.977 48.118)"/>
      <rect id="長方形_125" data-name="長方形 125" width="6.719" height="0.239" transform="translate(14.821 48.118)"/>
      <rect id="長方形_126" data-name="長方形 126" width="4.886" height="0.239" transform="translate(23.023 48.118)"/>
      <rect id="長方形_127" data-name="長方形 127" width="3.133" height="0.24" transform="translate(11.145 58.639) rotate(-14.985)"/>
      <rect id="長方形_128" data-name="長方形 128" width="2.083" height="0.239" transform="matrix(0.866, -0.5, 0.5, 0.866, 17.989, 66.829)"/>
      <rect id="長方形_129" data-name="長方形 129" width="1.491" height="0.239" transform="matrix(0.866, -0.5, 0.5, 0.866, 22.375, 64.297)"/>
      <rect id="長方形_130" data-name="長方形 130" width="4.062" height="0.239" transform="matrix(0.866, -0.5, 0.5, 0.866, 25.792, 62.325)"/>
      <g id="グループ_87" data-name="グループ 87" transform="translate(27.789 25.598)">
        <path id="パス_427" data-name="パス 427" d="M274.521,413.664a22.481,22.481,0,0,1-1.715-4.629l.232-.058a22.252,22.252,0,0,0,1.7,4.58Z" transform="translate(-272.132 -380.893)"/>
        <path id="パス_428" data-name="パス 428" d="M294.038,395.59a22.754,22.754,0,0,1-19.5-11.138l.206-.122a22.336,22.336,0,1,0-2.882-8.229l-.237.034a22.9,22.9,0,0,1-.222-3.184,22.639,22.639,0,1,1,22.639,22.639Z" transform="translate(-271.399 -350.311)"/>
        <path id="パス_429" data-name="パス 429" d="M276.085,412.08a21.628,21.628,0,0,1-2.07-5.952l.235-.044a21.4,21.4,0,0,0,2.047,5.886Z" transform="translate(-272.763 -379.385)"/>
        <path id="パス_430" data-name="パス 430" d="M294.981,395.666a21.9,21.9,0,0,1-18.7-10.607l.2-.122a21.54,21.54,0,1,0-3.043-11.043,21.891,21.891,0,0,0,.154,2.59l-.237.028a22.051,22.051,0,0,1-.156-2.618,21.773,21.773,0,1,1,21.773,21.773Z" transform="translate(-272.342 -351.254)"/>
      </g>
    </g>
  </g>
</svg>
