<?xml version="1.0" encoding="utf-8"?>
<!-- Generator: Adobe Illustrator 27.0.0, SVG Export Plug-In . SVG Version: 6.00 Build 0)  -->
<svg version="1.1" id="_レイヤー_2" xmlns="http://www.w3.org/2000/svg" xmlns:xlink="http://www.w3.org/1999/xlink" x="0px"
	 y="0px" viewBox="0 0 197.7 120" style="enable-background:new 0 0 197.7 120;" xml:space="preserve">
<g id="_信号機">
	<path d="M194.6,15.3h-33.9c-1.7,0-3.1,1.4-3.1,3.1v2.5H139v-0.3c0-0.2-0.2-0.4-0.4-0.4h-0.2V3.4c0.3-0.1,0.5-0.4,0.5-0.8V1.1
		c0-0.8-1-1.1-2.4-1.1c-1.6,0-2.4,0.5-2.4,1.1v1.5c0,0.3,0.2,0.6,0.5,0.8v16.7h-0.2c-0.2,0-0.4,0.2-0.4,0.4v1.7
		c0,0.2,0.2,0.4,0.4,0.4h0.2V30h-0.2c-0.2,0-0.4,0.2-0.4,0.4v1.7c0,0.2,0.2,0.4,0.4,0.4h0.2V119c0,0.5,0.4,0.9,0.9,0.9h2.2
		c0.5,0,0.9-0.4,0.9-0.9V32.6h0.2c0.2,0,0.4-0.2,0.4-0.4v-1.7c0-0.2-0.1-0.3-0.3-0.4c0.1-0.7,0.2-1.5,0.5-2.2
		c0.2-0.6,0.6-1.4,1.3-1.9c0.8-0.6,2-0.8,3-0.9c5.2-0.5,9.9-0.7,14.1-0.8v4.5c0,1.7,1.4,3.1,3.1,3.1h33.9c1.7,0,3.1-1.4,3.1-3.1
		V18.4C197.7,16.6,196.3,15.3,194.6,15.3L194.6,15.3z M157.5,23.2c-4.3,0.1-9,0.3-14.2,0.8c-1.2,0.1-2.5,0.3-3.6,1.1
		c-0.6,0.4-1.1,1-1.4,1.8v-4.2h0.2c0.2,0,0.4-0.2,0.4-0.4V22h18.6V23.2L157.5,23.2z M165.6,28.5c-2.7,0-4.9-2.2-4.9-4.8
		s2.2-4.8,4.9-4.8s4.9,2.2,4.9,4.8S168.3,28.5,165.6,28.5z M177.6,28.5c-2.7,0-4.9-2.2-4.9-4.8s2.2-4.8,4.9-4.8s4.9,2.2,4.9,4.8
		S180.3,28.5,177.6,28.5z M189.6,28.5c-2.7,0-4.9-2.2-4.9-4.8s2.2-4.8,4.9-4.8s4.9,2.2,4.9,4.8S192.2,28.5,189.6,28.5z"/>
</g>
</svg>
