<?xml version="1.0" encoding="utf-8"?>
<!-- Generator: Adobe Illustrator 27.0.0, SVG Export Plug-In . SVG Version: 6.00 Build 0)  -->
<svg version="1.1" id="_レイヤー_2" xmlns="http://www.w3.org/2000/svg" xmlns:xlink="http://www.w3.org/1999/xlink" x="0px"
	 y="0px" viewBox="0 0 110.1 34.9" style="enable-background:new 0 0 110.1 34.9;" xml:space="preserve">
<g id="_信号機">
	<g>
		<path d="M110,19.3c-0.1-1.1-0.6-1.8-1.4-2.3c-0.7-0.4-1.1-1.1-1-2c0.1-0.7,0.3-1.4,0.4-2.1c0.1-1.3,0.5-2.8-0.8-3.6
			c-0.8-0.5-1.8-0.6-2.7-0.7c-2.1-0.2-4.3,0-6.4-0.4c-1.3-0.3-2.6-0.6-3.9-1c-4.8-2.4-9.8-4.5-15-5.7C72.6,0,65.7-0.2,58.9,0.1
			C50.7,0.5,40.7,5.2,31.8,10c-0.1,0-3.4,0.8-5,1c-2.6,0.3-5.3,0.3-7.9,0.6c-1.7,0.2-3.4,0.5-5.1,0.9C11.5,13,9.3,13.7,7,14.3
			c-1.7,0.5-3.4,1-5.1,1.7c-1.3,0.5-1.7,1.6-1.4,3.1c0.2,1,0.4,2.1,0.2,3.1C0.3,24-0.2,25.7,0,27.6c0,0.2-0.2,1.7,0.4,1.9
			c1.2,0.4,2.3,0.6,3.4,0.7c2.3,0.1,4.6,0.1,6.8,0.2c0.4,0,0.7,0,1,0c-0.5-1.2-0.7-2.5-0.7-3.8c0-5.5,4.4-10,9.8-10s9.8,4.5,9.8,10
			c0,1.4-0.3,2.8-0.8,4c0.1,0,0.3,0.1,0.5,0.1c3.7,0,7.3,0,10.9,0h35c0.5,0,0.7,0,0.8-0.1c-0.5-1.2-0.8-2.5-0.8-3.9
			c0-5.5,4.4-10,9.8-10s9.8,4.5,9.8,10c0,0.9-0.1,1.8-0.4,2.7c1.3-0.1,3.7-0.3,4.7-0.4c2.5-0.4,4.7-0.8,7-1.3
			c1.4-0.3,2.7-0.9,2.7-2.6C110.1,23.1,110.1,21.2,110,19.3L110,19.3z M10.5,17.7c-1.6,0.9-3.3,1.1-4.9,1.1c-0.2,0-1.1,0-1.6-0.1
			c0.1-0.1,3.1-2.2,5.4-2.7c1.6-0.3,3.7-0.2,3.9-0.1C12.3,16.7,12,16.9,10.5,17.7L10.5,17.7z M58.2,5.7L56.9,10c0,0-0.2,0.7-0.6,1
			c-0.4,0.2-0.9,0.2-0.9,0.2l-15.5,0.5c6.4-4.2,11-6.5,17.5-7.2c0.4-0.1,0.9,0,1,0.4C58.3,5.2,58.2,5.8,58.2,5.7L58.2,5.7z
			 M75.8,6.4l-0.6,3c0,0-0.2,0.8-0.4,1c-0.3,0.3-1.1,0.3-1.1,0.3L62,11.1c0,0-0.4,0-0.6-0.2c-0.3-0.3-0.1-1-0.1-1l1-4.6
			c0,0,0.1-0.4,0.3-0.7c0.4-0.4,0.7-0.3,1.2-0.3c3.8,0.1,8.4,0.4,11.3,0.9c0.2,0,0.5,0.1,0.7,0.3C76,5.8,75.8,6.4,75.8,6.4L75.8,6.4
			z M80.6,8.5c-0.3,0.8-0.9,1.6-1.7,1.9c-0.4,0.1-1.4,0.2-2,0.2c-0.4,0-0.4,0-0.6-0.2c-0.1-0.2,0-0.8,0-0.8L77,6.5
			c0,0,0.1-0.4,0.3-0.6c0.3-0.2,0.5-0.1,0.8,0c1,0.3,1.9,0.7,2.2,1c0.2,0.2,0.4,0.4,0.5,0.6C80.8,7.9,80.7,8.2,80.6,8.5L80.6,8.5z
			 M106.4,13c0,0.1,0,0.2,0,0.2c-0.3,1.3-0.4,1.4-1.7,1.1c-2-0.5-3.9-1.1-5.7-2.2c-0.2-0.1-0.3-0.2-0.5-0.4
			c-0.4-0.3-0.6-0.5-0.8-0.8c0.4-0.1,1.1-0.1,1.5-0.1c2.6,0,4.1,0.3,6.4,0.5C106.4,11.6,106.6,12.2,106.4,13L106.4,13z"/>
		<path d="M86.2,18.1c-4.6,0-8.3,3.8-8.3,8.4s3.7,8.4,8.3,8.4s8.3-3.8,8.3-8.4S90.8,18.1,86.2,18.1z M86.2,32.1
			c-3,0-5.5-2.5-5.5-5.6s2.5-5.6,5.5-5.6s5.5,2.5,5.5,5.6S89.3,32.1,86.2,32.1z"/>
		<path d="M20.9,18.1c-4.6,0-8.3,3.8-8.3,8.4s3.7,8.4,8.3,8.4s8.3-3.8,8.3-8.4S25.5,18.1,20.9,18.1z M20.9,32.1
			c-3,0-5.5-2.5-5.5-5.6s2.5-5.6,5.5-5.6s5.5,2.5,5.5,5.6S23.9,32.1,20.9,32.1z"/>
	</g>
</g>
</svg>
