<svg id="グループ_1497" data-name="グループ 1497" xmlns="http://www.w3.org/2000/svg" xmlns:xlink="http://www.w3.org/1999/xlink" width="254.872" height="26.965" viewBox="0 0 254.872 26.965">
  <defs>
    <clipPath id="clip-path">
      <rect id="長方形_1480" data-name="長方形 1480" width="254.872" height="26.965" fill="none"/>
    </clipPath>
  </defs>
  <g id="グループ_1496" data-name="グループ 1496" transform="translate(0 0)" clip-path="url(#clip-path)">
    <path id="パス_1405" data-name="パス 1405" d="M11.319,26.831A14.85,14.85,0,0,1,2.9,24.488a7.112,7.112,0,0,1-2.9-3.9l7.327-.69a4.553,4.553,0,0,0,1.548,2.031,5.068,5.068,0,0,0,2.919.773,4.952,4.952,0,0,0,3.1-.879,2.307,2.307,0,0,0,.994-1.892,2.2,2.2,0,0,0-1.326-2.019,15.491,15.491,0,0,0-3.907-.955,38.537,38.537,0,0,1-6.139-1.422A5.989,5.989,0,0,1,1.847,13.49a5.189,5.189,0,0,1-1.07-3.239A5.268,5.268,0,0,1,1.931,6.816c.283-.352,2.939-3.439,9.1-3.439A13.5,13.5,0,0,1,19.8,6.19a8.633,8.633,0,0,1,1.656,2.489l-6.822.672A3.225,3.225,0,0,0,13.5,7.917a5,5,0,0,0-2.833-.795,4.054,4.054,0,0,0-2.534.657,2.205,2.205,0,0,0-.921,1.775,1.969,1.969,0,0,0,1.209,1.834,13.778,13.778,0,0,0,3.911.827,24.938,24.938,0,0,1,6.246,1.314,6.475,6.475,0,0,1,2.934,2.253,5.42,5.42,0,0,1,1,3.176,6.368,6.368,0,0,1-1.077,3.45,9.334,9.334,0,0,1-3.429,3,14.1,14.1,0,0,1-6.688,1.423" transform="translate(0 -0.344)" fill="#1a1311"/>
    <path id="パス_1406" data-name="パス 1406" d="M27.608,12.206a9.918,9.918,0,0,1,3.538-2.177,12.133,12.133,0,0,1,4.126-.724,11.039,11.039,0,0,1,3.678.534A5.5,5.5,0,0,1,41.384,11.5a7.069,7.069,0,0,1,1.363,2.832,16.751,16.751,0,0,1,.432,4.057v8.666H38v-1.83h-.1a4.265,4.265,0,0,1-1.986,1.658,7.068,7.068,0,0,1-2.883.586,8.816,8.816,0,0,1-2.141-.276,6.259,6.259,0,0,1-2.02-.9,4.849,4.849,0,0,1-1.5-1.658,5.107,5.107,0,0,1-.586-2.554,4.333,4.333,0,0,1,1.018-3,6.677,6.677,0,0,1,2.624-1.761A13.886,13.886,0,0,1,34,16.486a36.811,36.811,0,0,1,3.833-.207V16a2.111,2.111,0,0,0-.9-1.882,3.873,3.873,0,0,0-2.209-.6,5.522,5.522,0,0,0-2.331.518,7.445,7.445,0,0,0-1.916,1.243ZM38,19.559h-.725q-.932,0-1.882.086a7.811,7.811,0,0,0-1.692.328,3.137,3.137,0,0,0-1.226.708,1.626,1.626,0,0,0-.483,1.226,1.484,1.484,0,0,0,.225.829,1.741,1.741,0,0,0,.569.552,2.407,2.407,0,0,0,.795.294,4.57,4.57,0,0,0,.863.086,3.5,3.5,0,0,0,2.641-.949A3.552,3.552,0,0,0,38,20.146Z" transform="translate(-2.729 -0.949)" fill="#1a1311"/>
    <path id="パス_1407" data-name="パス 1407" d="M68.208,26.1H61.2L55.57,17.851h-.1V26.1h-5.7V0h5.7V15.883h.1l5.491-6.974h6.87L61.3,16.678Z" transform="translate(-5.073 0)" fill="#1a1311"/>
    <path id="パス_1408" data-name="パス 1408" d="M153.6,18.385a9.3,9.3,0,0,1-.76,3.815,8.562,8.562,0,0,1-2.072,2.9,9.492,9.492,0,0,1-3.038,1.847,10.688,10.688,0,0,1-7.371,0,9.241,9.241,0,0,1-3.039-1.847,8.681,8.681,0,0,1-2.055-2.9,9.29,9.29,0,0,1-.76-3.815,9.173,9.173,0,0,1,.76-3.8,8.541,8.541,0,0,1,2.055-2.867,8.944,8.944,0,0,1,3.039-1.8,11.24,11.24,0,0,1,7.371,0,9.178,9.178,0,0,1,3.038,1.8,8.425,8.425,0,0,1,2.072,2.867,9.187,9.187,0,0,1,.76,3.8m-5.456,0a4.933,4.933,0,0,0-.276-1.623,4.29,4.29,0,0,0-.795-1.4,4.047,4.047,0,0,0-1.277-.984,4.272,4.272,0,0,0-3.522,0,3.841,3.841,0,0,0-1.26.984,4.2,4.2,0,0,0-.76,1.4,5.22,5.22,0,0,0,0,3.246,4.436,4.436,0,0,0,.777,1.432,3.819,3.819,0,0,0,1.277,1.019,4.272,4.272,0,0,0,3.522,0,3.823,3.823,0,0,0,1.278-1.019,4.453,4.453,0,0,0,.777-1.432,5.207,5.207,0,0,0,.259-1.623" transform="translate(-13.71 -0.949)" fill="#1a1311"/>
    <path id="パス_1409" data-name="パス 1409" d="M169.92,14.526a4.426,4.426,0,0,0-.743-.138q-.362-.034-.708-.034a4.041,4.041,0,0,0-1.917.413,3.916,3.916,0,0,0-1.243,1,3.8,3.8,0,0,0-.673,1.274,4.255,4.255,0,0,0-.207,1.2v8.816h-5.663V9.885h5.457v2.487h.068a5.6,5.6,0,0,1,1.864-2.155,4.8,4.8,0,0,1,2.8-.834,6.622,6.622,0,0,1,.674.034,2.646,2.646,0,0,1,.534.1Z" transform="translate(-16.182 -0.957)" fill="#1a1311"/>
    <rect id="長方形_1478" data-name="長方形 1478" width="5.767" height="26.103" transform="translate(156.328)" fill="#1a1311"/>
    <path id="パス_1410" data-name="パス 1410" d="M196.985,26.1V23.86h-.068a5.375,5.375,0,0,1-2.366,2.02,7.714,7.714,0,0,1-3.263.708,7.627,7.627,0,0,1-3.453-.76,7.9,7.9,0,0,1-2.572-2.02,8.862,8.862,0,0,1-1.606-2.918,10.845,10.845,0,0,1-.552-3.453A10.4,10.4,0,0,1,183.674,14a8.967,8.967,0,0,1,1.623-2.884,7.568,7.568,0,0,1,5.922-2.692,6.565,6.565,0,0,1,3.212.725,7.139,7.139,0,0,1,2.037,1.589h.069V0H202.2V26.1Zm-.207-8.632a4.667,4.667,0,0,0-.294-1.623,4.6,4.6,0,0,0-.828-1.416,4.139,4.139,0,0,0-1.3-1,3.812,3.812,0,0,0-1.727-.38,3.887,3.887,0,0,0-1.761.38,3.966,3.966,0,0,0-2.054,2.383,5.177,5.177,0,0,0-.26,1.622,5.344,5.344,0,0,0,.26,1.641,4.2,4.2,0,0,0,.777,1.432,3.817,3.817,0,0,0,3.038,1.381,3.8,3.8,0,0,0,1.727-.38,4.115,4.115,0,0,0,1.3-1,4.58,4.58,0,0,0,.828-1.415,4.664,4.664,0,0,0,.294-1.623" transform="translate(-18.663 0)" fill="#1a1311"/>
    <path id="パス_1411" data-name="パス 1411" d="M106.86,27.431a5.559,5.559,0,0,1-5.366-4.191,33.979,33.979,0,0,1-1.037-4.823c-.056-.338-.111-.672-.168-1q-.167-.975-.325-1.959l-.046-.277-.2.191c-.154.143-.313.276-.484.407a9.18,9.18,0,0,1-5.612,1.74c-2.195,0-6.328-1.679-7.529-2.316l-.275-.147L87.5,11.113l.524.4A12.933,12.933,0,0,0,93.7,13.149a6.492,6.492,0,0,0,3.018-.689,4.033,4.033,0,0,0,1.238-2.974A2.14,2.14,0,0,1,100.1,7.576h2.2a1.733,1.733,0,0,1,1.719,1.467l.176,1.11c.3,1.917.614,3.892.959,5.847.324,1.841.675,3.479,1.074,5.008a1.927,1.927,0,0,0,1.915,1.6c.054,0,.109,0,.165-.005a2.058,2.058,0,0,0,2.109-1.934c.029-1.767-.7-6.9-1.1-9.656l-.013-.09c-.086-.6-.152-1.07-.186-1.33l0-.042a1.739,1.739,0,0,1,1.723-1.976h2a1.74,1.74,0,0,1,1.729,1.537l.141,1.208c.236,2.018.48,4.105.745,6.16l.029.223a35.768,35.768,0,0,0,.761,4.428,2.086,2.086,0,0,0,1.259,1.364,1.535,1.535,0,0,0,.23.017,2.429,2.429,0,0,0,1.679-.708,10.647,10.647,0,0,0,2.229-7.026v-.042l-.022-.036a12.911,12.911,0,0,0-1.126-1.323l-.033-.037c-1.628-1.794-2.4-3.962-2.019-5.656a4.135,4.135,0,0,1,4.317-3.1,4.723,4.723,0,0,1,.58.036,4.177,4.177,0,0,1,3.391,2.945,8.521,8.521,0,0,1,.1,3.541,1.324,1.324,0,0,0,.119,1.04,2.328,2.328,0,0,0,1.58.8,4.086,4.086,0,0,0,.786.066,11.278,11.278,0,0,0,2.742-.37l1.569-.428-2.89,4.711-.166.034a7.711,7.711,0,0,1-1.586.166,6.083,6.083,0,0,1-2.468-.482l-.157-.072-.048.165c-.239.809-.681,2.315-.776,2.657a12.742,12.742,0,0,1-3.3,6.023,6.884,6.884,0,0,1-9.813-.105l-.079-.08-.115.039c-.387.216-.753.444-1.077.645a9.428,9.428,0,0,1-2.794,1.351,6.956,6.956,0,0,1-1.49.169M122.627,8.339a.619.619,0,0,0-.3.084c-.136.075-.166.3-.084.609a1.963,1.963,0,0,0,.562.885,4.675,4.675,0,0,0,.465.371l.268.195.016-.33c.039-.826-.059-1.07-.137-1.182-.2-.293-.472-.63-.8-.63" transform="translate(-8.747 -0.467)" fill="#1a1311"/>
    <path id="パス_1412" data-name="パス 1412" d="M88.768,18.661v.691a6.088,6.088,0,0,1-.035.656H76.268A3,3,0,0,0,76.7,21.32a3.722,3.722,0,0,0,.933,1.018,4.584,4.584,0,0,0,2.745.915,4.763,4.763,0,0,0,2.279-.5,4.507,4.507,0,0,0,1.519-1.3l3.936,2.486a7.964,7.964,0,0,1-3.194,2.711,10.585,10.585,0,0,1-4.61.949,11.014,11.014,0,0,1-3.661-.6,8.878,8.878,0,0,1-3.021-1.761A8.141,8.141,0,0,1,71.59,22.39a9.536,9.536,0,0,1-.743-3.867,9.682,9.682,0,0,1,.726-3.815,8.624,8.624,0,0,1,1.968-2.9A8.78,8.78,0,0,1,76.475,9.96,10.059,10.059,0,0,1,80.136,9.3a9.286,9.286,0,0,1,3.487.639A7.6,7.6,0,0,1,86.35,11.79a8.537,8.537,0,0,1,1.778,2.936,11.293,11.293,0,0,1,.639,3.935m-5.214-2.175a3.4,3.4,0,0,0-.846-2.313,3.2,3.2,0,0,0-2.538-.966,4.284,4.284,0,0,0-1.52.26,3.931,3.931,0,0,0-1.208.707,3.515,3.515,0,0,0-.829,1.053,3.1,3.1,0,0,0-.346,1.26Z" transform="translate(-7.221 -0.949)" fill="#1a1311"/>
    <path id="パス_1413" data-name="パス 1413" d="M231.8,26.8l-6.455-15.332h-.092L223.17,26.8h-5.046L221.5,3.35h5.927l6.43,15.3h.092l2.082-15.3h5.047L237.7,26.8Z" transform="translate(-22.232 -0.342)" fill="#1a1311"/>
    <path id="パス_1414" data-name="パス 1414" d="M251.33,8.185l-.7,4.835h8.33l-.673,4.669h-8.33L248.649,26.8h-5.138l3.378-23.445h14.166l-.7,4.834Z" transform="translate(-24.82 -0.342)" fill="#1a1311"/>
    <path id="パス_1415" data-name="パス 1415" d="M274.972,8.185,272.291,26.8h-5.2l2.682-18.611h-6.081l.7-4.834h17.359l-.7,4.834Z" transform="translate(-26.877 -0.342)" fill="#1a1311"/>
  </g>
</svg>
