<svg id="グループ_1495" data-name="グループ 1495" xmlns="http://www.w3.org/2000/svg" xmlns:xlink="http://www.w3.org/1999/xlink" width="193.718" height="26.965" viewBox="0 0 193.718 26.965">
  <defs>
    <clipPath id="clip-path">
      <rect id="長方形_1477" data-name="長方形 1477" width="193.718" height="26.965" fill="none"/>
    </clipPath>
  </defs>
  <g id="グループ_1494" data-name="グループ 1494" transform="translate(0 0)" clip-path="url(#clip-path)">
    <path id="パス_1392" data-name="パス 1392" d="M18.579,13.529a24.9,24.9,0,0,0-6.246-1.314,13.778,13.778,0,0,1-3.911-.827A1.971,1.971,0,0,1,7.213,9.554a2.207,2.207,0,0,1,.921-1.775,4.053,4.053,0,0,1,2.534-.656,5,5,0,0,1,2.833.795,3.227,3.227,0,0,1,1.134,1.432l6.822-.672A8.646,8.646,0,0,0,19.8,6.19a13.5,13.5,0,0,0-8.765-2.812c-6.165,0-8.822,3.086-9.1,3.438A5.266,5.266,0,0,0,.778,10.251a5.2,5.2,0,0,0,1.07,3.239,6,6,0,0,0,2.666,2.045,38.563,38.563,0,0,0,6.139,1.421,15.539,15.539,0,0,1,3.907.955,2.2,2.2,0,0,1,1.327,2.02,2.308,2.308,0,0,1-1,1.892,4.956,4.956,0,0,1-3.1.879,5.07,5.07,0,0,1-2.919-.773A4.559,4.559,0,0,1,7.327,19.9L0,20.587a7.11,7.11,0,0,0,2.9,3.9,14.843,14.843,0,0,0,8.417,2.343,14.1,14.1,0,0,0,6.688-1.423,9.336,9.336,0,0,0,3.429-3,6.364,6.364,0,0,0,1.077-3.45,5.416,5.416,0,0,0-1-3.176,6.466,6.466,0,0,0-2.933-2.252" transform="translate(0 -0.344)" fill="#1a1311"/>
    <path id="パス_1393" data-name="パス 1393" d="M41.383,11.5a5.492,5.492,0,0,0-2.435-1.657A11.032,11.032,0,0,0,35.272,9.3a12.135,12.135,0,0,0-4.127.725A9.926,9.926,0,0,0,27.607,12.2l2.866,3.073a7.422,7.422,0,0,1,1.916-1.243,5.5,5.5,0,0,1,2.331-.518,3.873,3.873,0,0,1,2.209.6,2.111,2.111,0,0,1,.9,1.881v.277a36.571,36.571,0,0,0-3.833.207,13.886,13.886,0,0,0-3.573.828A6.687,6.687,0,0,0,27.8,19.075a4.339,4.339,0,0,0-1.018,3,5.113,5.113,0,0,0,.586,2.555,4.854,4.854,0,0,0,1.5,1.657,6.248,6.248,0,0,0,2.02.9,8.819,8.819,0,0,0,2.141.277,7.069,7.069,0,0,0,2.883-.587A4.269,4.269,0,0,0,37.9,25.221H38v1.829h5.179V18.384a16.748,16.748,0,0,0-.432-4.057A7.063,7.063,0,0,0,41.383,11.5M38,20.146a3.55,3.55,0,0,1-.915,2.572,3.5,3.5,0,0,1-2.641.95,4.5,4.5,0,0,1-.863-.087,2.414,2.414,0,0,1-.795-.293,1.744,1.744,0,0,1-.569-.553,1.479,1.479,0,0,1-.225-.828,1.625,1.625,0,0,1,.483-1.226,3.126,3.126,0,0,1,1.226-.708,7.757,7.757,0,0,1,1.692-.328q.95-.086,1.882-.086H38Z" transform="translate(-2.729 -0.948)" fill="#1a1311"/>
    <path id="パス_1394" data-name="パス 1394" d="M67.93,8.908H61.059l-5.49,6.974h-.1V0h-5.7V26.1h5.7V17.851h.1L61.2,26.1h7.009L61.3,16.677Z" transform="translate(-5.073 0)" fill="#1a1311"/>
    <path id="パス_1395" data-name="パス 1395" d="M144.281,11.24a9.165,9.165,0,0,0-3.038-1.8,11.255,11.255,0,0,0-7.371,0,8.932,8.932,0,0,0-3.039,1.8,8.253,8.253,0,0,0-1.37,1.629,12.608,12.608,0,0,1-1.686.14,4.072,4.072,0,0,1-.786-.066,2.329,2.329,0,0,1-1.581-.8,1.332,1.332,0,0,1-.119-1.04,8.506,8.506,0,0,0-.1-3.542A4.177,4.177,0,0,0,121.8,4.614a4.737,4.737,0,0,0-.581-.036,4.134,4.134,0,0,0-4.316,3.1c-.383,1.694.391,3.861,2.019,5.656l.033.037a13.228,13.228,0,0,1,1.126,1.322l.022.037v.042a10.643,10.643,0,0,1-2.229,7.025,2.43,2.43,0,0,1-1.68.708,1.421,1.421,0,0,1-.229-.017,2.084,2.084,0,0,1-1.259-1.364,35.877,35.877,0,0,1-.761-4.428l-.029-.222c-.265-2.055-.509-4.142-.745-6.16l-.141-1.208a1.741,1.741,0,0,0-1.728-1.538h-2a1.742,1.742,0,0,0-1.723,1.977l.005.041c.033.261.1.728.185,1.331l.013.09c.392,2.757,1.124,7.89,1.1,9.655a2.056,2.056,0,0,1-2.109,1.934c-.056,0-.11.006-.165.006a1.927,1.927,0,0,1-1.914-1.6c-.4-1.529-.751-3.167-1.074-5.008-.345-1.955-.657-3.93-.96-5.847l-.176-1.11a1.732,1.732,0,0,0-1.718-1.467h-2.2a2.141,2.141,0,0,0-2.149,1.91,4.037,4.037,0,0,1-1.237,2.974,6.492,6.492,0,0,1-3.018.689,12.871,12.871,0,0,1-5.627-1.612c-.066-.075-.125-.156-.193-.228a7.591,7.591,0,0,0-2.727-1.847,9.268,9.268,0,0,0-3.487-.639,10.031,10.031,0,0,0-3.66.656,8.78,8.78,0,0,0-2.935,1.847,8.622,8.622,0,0,0-1.969,2.9,9.686,9.686,0,0,0-.725,3.816,9.524,9.524,0,0,0,.743,3.867,8.135,8.135,0,0,0,2.037,2.848,8.869,8.869,0,0,0,3.021,1.761,10.982,10.982,0,0,0,3.66.6,10.582,10.582,0,0,0,4.61-.949,7.969,7.969,0,0,0,3.194-2.71l-3.936-2.486a4.514,4.514,0,0,1-1.519,1.294,4.763,4.763,0,0,1-2.279.5,4.568,4.568,0,0,1-2.745-.915,3.736,3.736,0,0,1-.933-1.018,3,3,0,0,1-.431-1.312H88.731a6.09,6.09,0,0,0,.035-.656v-.691c0-.465-.03-.908-.072-1.342a12.649,12.649,0,0,0,3.4.678A9.17,9.17,0,0,0,97.7,15.774a6.113,6.113,0,0,0,.485-.407l.2-.19.045.276c.106.655.215,1.309.326,1.96.057.333.111.666.167,1a34.006,34.006,0,0,0,1.037,4.823,5.56,5.56,0,0,0,5.366,4.191,6.958,6.958,0,0,0,1.49-.17,9.406,9.406,0,0,0,2.794-1.351c.323-.2.691-.428,1.077-.644l.115-.039.08.08a6.882,6.882,0,0,0,9.812.1A12.734,12.734,0,0,0,124,19.39c.1-.342.537-1.847.775-2.657l.049-.166.157.072a6.068,6.068,0,0,0,2.468.482c.2,0,.4-.011.605-.026-.02.264-.032.533-.032.808a9.29,9.29,0,0,0,.76,3.815,8.667,8.667,0,0,0,2.054,2.9,9.224,9.224,0,0,0,3.039,1.846,10.674,10.674,0,0,0,7.371,0,9.474,9.474,0,0,0,3.038-1.846,8.562,8.562,0,0,0,2.072-2.9,9.3,9.3,0,0,0,.76-3.815,9.187,9.187,0,0,0-.76-3.8,8.413,8.413,0,0,0-2.072-2.866M76.267,16a3.087,3.087,0,0,1,.345-1.26,3.529,3.529,0,0,1,.829-1.053,3.974,3.974,0,0,1,1.209-.708,4.3,4.3,0,0,1,1.519-.259,3.2,3.2,0,0,1,2.538.966A3.4,3.4,0,0,1,83.552,16Zm45.764-5.853-.016.33-.268-.195a4.676,4.676,0,0,1-.465-.371,1.963,1.963,0,0,1-.562-.885c-.083-.306-.052-.533.084-.609a.622.622,0,0,1,.3-.084c.323,0,.6.337.8.63.077.112.175.356.137,1.182M141.4,19.526a4.436,4.436,0,0,1-.777,1.432,3.822,3.822,0,0,1-1.278,1.019,4.27,4.27,0,0,1-3.521,0,3.823,3.823,0,0,1-1.278-1.019,4.453,4.453,0,0,1-.777-1.432,5.22,5.22,0,0,1,0-3.246,4.222,4.222,0,0,1,.76-1.4,3.841,3.841,0,0,1,1.26-.984,4.272,4.272,0,0,1,3.522,0,4.047,4.047,0,0,1,1.277.984,4.3,4.3,0,0,1,.795,1.4,4.933,4.933,0,0,1,.276,1.623,5.211,5.211,0,0,1-.259,1.623" transform="translate(-7.221 -0.466)" fill="#1a1311"/>
    <path id="パス_1396" data-name="パス 1396" d="M168.95,9.381a4.8,4.8,0,0,0-2.8.834,5.6,5.6,0,0,0-1.864,2.155h-.069V9.885h-5.456V27.06h5.663V18.244a4.251,4.251,0,0,1,.207-1.205,3.791,3.791,0,0,1,.674-1.274,3.906,3.906,0,0,1,1.243-1,4.051,4.051,0,0,1,1.916-.413q.345,0,.708.035a4.339,4.339,0,0,1,.742.137l.242-5.006a2.636,2.636,0,0,0-.535-.1,6.6,6.6,0,0,0-.674-.034" transform="translate(-16.182 -0.956)" fill="#1a1311"/>
    <rect id="長方形_1476" data-name="長方形 1476" width="5.767" height="26.103" transform="translate(156.324)" fill="#1a1311"/>
    <path id="パス_1397" data-name="パス 1397" d="M196.533,0V10.738h-.069a7.131,7.131,0,0,0-2.038-1.589,6.559,6.559,0,0,0-3.211-.725,7.565,7.565,0,0,0-5.922,2.693A8.952,8.952,0,0,0,183.67,14a10.4,10.4,0,0,0-.569,3.436,10.843,10.843,0,0,0,.552,3.452,8.871,8.871,0,0,0,1.606,2.918,7.916,7.916,0,0,0,2.572,2.02,7.627,7.627,0,0,0,3.453.76,7.727,7.727,0,0,0,3.263-.708,5.371,5.371,0,0,0,2.366-2.021h.068V26.1h5.214V0Zm-.052,19.094a4.583,4.583,0,0,1-.829,1.415,4.128,4.128,0,0,1-1.294,1,3.815,3.815,0,0,1-1.727.38,3.817,3.817,0,0,1-3.038-1.381,4.2,4.2,0,0,1-.777-1.432,5.369,5.369,0,0,1-.259-1.64,5.2,5.2,0,0,1,.259-1.623,3.966,3.966,0,0,1,2.054-2.383,3.887,3.887,0,0,1,1.761-.38,3.815,3.815,0,0,1,1.727.38,4.115,4.115,0,0,1,1.294,1,4.583,4.583,0,0,1,.829,1.415,4.63,4.63,0,0,1,0,3.246" transform="translate(-18.663 0)" fill="#1a1311"/>
    <path id="パス_1398" data-name="パス 1398" d="M214.478,27.336,214.3,27.2l-.568-.117-.366-.858.013-.84-.071-.044-.216.008-.064.023-.057.036.055.007.044.469-.049.361-.379.75-.486.123-.26.2.008.417.048.109.234.085h.042l.9-.05,1.025.067.042-.005.27-.189Z" transform="translate(-21.597 -2.582)" fill="#b61918"/>
    <path id="パス_1399" data-name="パス 1399" d="M208.9,27.771l-.021-.3-.007-.373,0-.594.053-.592.409-.574.242-.148.405-.354.033-.609-.009-.5.028-.259-.008-.285-.011-.172.08-.039-.781-.013.054.055.122.585-.056.621.015.254-.109.368-.059.013-.213.084V24.93l-.133-.139-.005-.655.045-.531.05-.53.158-.1-.21-.015-.471.444.03.672-.031.671,0,.671.021.669.006.674-.016.674.01.676-.02.675.406.451-.051-.731Z" transform="translate(-21.251 -2.339)" fill="#b61918"/>
    <path id="パス_1400" data-name="パス 1400" d="M214.987,23.558l-.389.048-.62-.013-.216-.045,0,.018-.107.032,0,.042.031.092-.051.626.061.189.333.147.175.011.057-.023.018-.082.019-.136.116-.172.178-.085.2.193,0,.662-.015.662,0,.664-.023.662-.047.658.017.76-.177.416-.623.142-.092.006-.575.048-.576-.036-.927,0-.551-.427-.073-.973,0-.263.006-.79.038-.795,0-.788.035-.6.167-.178.192.067.108.351.013.062.237.006.2.013.117-.088-.022-.956-.182-.092-.672.039-.257.007-.031-.01-.293-.113v-.116l.318-.162.628-.036.629-.017.63-.011.639.014.639.015h.637l.091.036-.411-.288-.677-.013-.677,0-.68,0-.682.013-.683-.02-.683.044.054.005.025.137-.011.923.016.21,0,.592-.546.626-.44.4-.169.608.033.638-.067.884.025.571.031.569,0,.105.52.018.017-.039-.046-.365,0-.663-.034-.659.034-.664,0-.665.282-.229.054-.022.28.37.042.268-.01.267-.038.275-.033.251.017.619.013.62.048.608.659.026h.661l.665-.01.665-.009.666-.015.667.024.45-.463.013-.663,0-.663-.009-.662-.016-.661.007-.664.024-.665-.02-.667.023-.667Z" transform="translate(-21.343 -2.336)" fill="#b61918"/>
    <path id="パス_1401" data-name="パス 1401" d="M214.383,28.685l-.114-.055-.712-.037-.713-.005-.65.026-.206.086-.065.148.046.2.224.165.1-.007.41.035.7.013.2,0,.32-.039.254-.029.058-.005.218-.029v-.237l-.008-.1Z" transform="translate(-21.6 -2.914)" fill="#b61918"/>
    <path id="パス_1402" data-name="パス 1402" d="M214.724,26.662l.014-.548.005-.549-.27-.2-.3-.009v0l-.071.044v.936l.1.387.3.073h0Z" transform="translate(-21.823 -2.584)" fill="#b61918"/>
    <path id="パス_1403" data-name="パス 1403" d="M212.341,25.319l-.01.061-.128.006-.269.192-.031,1.009.032.066.15.048h.043l.311-.1.075-.241,0-.065.009-.5V25.49l-.171-.118,0-.052Z" transform="translate(-21.598 -2.58)" fill="#b61918"/>
    <path id="パス_1404" data-name="パス 1404" d="M213.243,24.771l.163,0,.093-.058.019-1.035-.086-.048h-.241l0,0-.084.031.021.528.019.529Z" transform="translate(-21.721 -2.408)" fill="#b61918"/>
  </g>
</svg>
