<svg id="グループ_1499" data-name="グループ 1499" xmlns="http://www.w3.org/2000/svg" xmlns:xlink="http://www.w3.org/1999/xlink" width="211.989" height="51.19" viewBox="0 0 211.989 51.19">
  <defs>
    <clipPath id="clip-path">
      <rect id="長方形_1501" data-name="長方形 1501" width="211.989" height="51.19" fill="none"/>
    </clipPath>
  </defs>
  <g id="グループ_1498" data-name="グループ 1498" transform="translate(0 0)" clip-path="url(#clip-path)">
    <path id="パス_1416" data-name="パス 1416" d="M80.995,24.495c-1.27.2-2.221,1.472-3.813,1.423a3.449,3.449,0,0,1,.976-1.654c.423-.416.84-.8,1.53-.611.148.039.454-.182.55-.357A.6.6,0,0,0,80,22.531a.915.915,0,0,0-.534-.184,1.507,1.507,0,0,0-.692.189,5.661,5.661,0,0,0-2.244,2.436,2.381,2.381,0,0,0-.194.7.861.861,0,0,0,1,1.088A8.417,8.417,0,0,0,79,26.246c.338-.122.657-.3,1.265-.579-.237.431-.308.6-.411.739-.494.665-1.021,1.306-1.492,1.988a2.25,2.25,0,0,1-1.559.946,116.613,116.613,0,0,0-14.661,3.945c-1.481.485-2.927,1.075-4.372,1.661a6.862,6.862,0,0,0-1.523.86c-.826.621-.722,1.389.273,1.751a6.264,6.264,0,0,0,2,.363,26.71,26.71,0,0,0,12.938-3.1A22.559,22.559,0,0,0,76.9,30.906a2.319,2.319,0,0,1,1.8-.774,4,4,0,0,0,.872-.076.508.508,0,0,0,.229-.826,5.306,5.306,0,0,0-.761-.507c.4-.552.826-1.081,1.193-1.648a20.15,20.15,0,0,0,1.01-1.772.562.562,0,0,0-.253-.81m-6.132,7.38A25.4,25.4,0,0,1,61.376,37c-1.018.073-2.047.024-3.069,0-.5-.008-.5-.038-1.251-.465a3.346,3.346,0,0,1,.561-.437c.751-.35,1.5-.71,2.279-1a115.589,115.589,0,0,1,14.863-4.373c.418-.093.841-.164,1.262-.246l.158.253c-.437.378-.853.788-1.316,1.13" transform="translate(10.092 4.05)" fill="#1a1311"/>
    <path id="パス_1417" data-name="パス 1417" d="M35.96,28.8a1.021,1.021,0,0,0,0-1.231c-.2-.318-.457-.606-.682-.9a2.7,2.7,0,0,1,1.4-1.095,6.124,6.124,0,0,0,.8-.331.563.563,0,0,0,.217-.484,1.385,1.385,0,0,0-.45-.5c-.054-.046-.189-.013-.282.009a4.337,4.337,0,0,0-2.5,1.664,1.067,1.067,0,0,0,.033,1.471c.2.268.434.508.656.764a2.932,2.932,0,0,1-1.291,1.573,26.444,26.444,0,0,1-8.9,4.606,5.664,5.664,0,0,0-.83.265.431.431,0,0,0-.229.608.575.575,0,0,0,.443.28,6.134,6.134,0,0,0,1.26-.331,38.4,38.4,0,0,0,8.468-4.558A11.925,11.925,0,0,0,35.321,29.6a5.4,5.4,0,0,0,.639-.791" transform="translate(4.323 4.393)" fill="#1a1311"/>
    <path id="パス_1418" data-name="パス 1418" d="M55.038,24.8c-.285.184-.534.423-.8.632a3.044,3.044,0,0,1-1.172.764l-.966-.843a2.812,2.812,0,0,0-1.777.8c-.253.194-.534.35-.872.568a5.207,5.207,0,0,0-.072-.706A.788.788,0,0,0,48.3,25.34a8.359,8.359,0,0,0-.912.328c.145-.4.254-.666.337-.938a3.767,3.767,0,0,0,.247-.985.7.7,0,0,0-.345-.56c-.17-.057-.441.106-.63.23-.1.067-.135.252-.183.39q-.794,2.2-1.578,4.4a1.092,1.092,0,0,0-.086.426c.011.13.079.34.162.36a.661.661,0,0,0,.522-.053,5.874,5.874,0,0,0,.553-.676c.513-.588,1.026-1.174,1.557-1.746.159-.171.356-.347.633-.211a.738.738,0,0,1,.069.122c.138.43-.195,1.064.457,1.26.482.144.795-.278,1.138-.537a4.993,4.993,0,0,1,1.63-1.069c.158.184.306.365.461.539a.975.975,0,0,0,1.2.269,19.031,19.031,0,0,0,2.1-1.311.466.466,0,0,0,.043-.661.432.432,0,0,0-.638-.119" transform="translate(8.182 4.2)" fill="#1a1311"/>
    <path id="パス_1419" data-name="パス 1419" d="M69.843,22.927a.508.508,0,0,0,.429-.64.577.577,0,0,0-.656-.449,3.056,3.056,0,0,0-.828.272,11.357,11.357,0,0,0-3.721,3.25,3.141,3.141,0,0,0-.41.771c-.245.672.2,1.251.881,1.067a15.985,15.985,0,0,0,2.316-.874c.574-.255,1.107-.6,1.7-.927.175.324.291.578.443.808a1.031,1.031,0,0,0,.865.478,4.439,4.439,0,0,0,2.114-.469.568.568,0,0,0,.216-.471.431.431,0,0,0-.532-.37,3.623,3.623,0,0,0-.549.194c-.452.152-.906.3-1.364.45-.522-.539-.273-1.295-1.064-1.469-.446.241-.956.526-1.474.794-.693.358-1.389.71-2.092,1.047a.447.447,0,0,1-.665-.194,2.278,2.278,0,0,1,.306-.592,7.694,7.694,0,0,1,4.086-2.674" transform="translate(11.704 3.955)" fill="#1a1311"/>
    <path id="パス_1420" data-name="パス 1420" d="M85.634,23.594c-.424.239-.839.495-1.245.761a10.532,10.532,0,0,1-3.163,1.475A3.09,3.09,0,0,1,79.5,25.8a.779.779,0,0,1-.6-1,4.056,4.056,0,0,1,.365-.764c.343.229.6.546.871.555A2.446,2.446,0,0,0,82.04,23a.639.639,0,0,0-.472-.783,1.958,1.958,0,0,0-.579-.046,3.788,3.788,0,0,0-2.8,2.512,1.364,1.364,0,0,0,.836,1.663,2.743,2.743,0,0,0,1.121.2A13.394,13.394,0,0,0,86,24.445c.041-.022.093-.056.105-.094a1.661,1.661,0,0,0,.132-.536c-.012-.2-.393-.339-.6-.221M80.753,23c.148.343-.111.354-.227.415-.081.043-.221-.025-.459-.063L80.753,23" transform="translate(14.161 4.016)" fill="#1a1311"/>
    <path id="パス_1421" data-name="パス 1421" d="M40.324,24.079a5.913,5.913,0,0,0-2.168,1.915,1.06,1.06,0,0,0,.1,1.351c.25.291.524.561.771.823-.337.775-.314.81-.743,1.087-.86.555-1.733,1.1-2.629,1.586-.6.326-1.252.547-1.872.832-.467.215-.625.449-.549.742.093.359.477.469.976.18q2.28-1.32,4.522-2.7a3.477,3.477,0,0,0,.843-.8,1.182,1.182,0,0,0,.025-1.606c-.215-.3-.455-.588-.685-.882a3.276,3.276,0,0,1,1.133-1.036,4.728,4.728,0,0,0,.84-.58.948.948,0,0,0,.184-.653c-.014-.223-.508-.391-.748-.252" transform="translate(6.019 4.354)" fill="#1a1311"/>
    <path id="パス_1422" data-name="パス 1422" d="M44.941,26.932a6.447,6.447,0,0,0-.991.6,4.754,4.754,0,0,1-1.984.878c-.923.131-1.3-.347-.957-1.2a5.429,5.429,0,0,1,.331-.6,4.575,4.575,0,0,0,1.31-.08,3.865,3.865,0,0,0,1.682-1.364,1.742,1.742,0,0,0,.253-.671.636.636,0,0,0-.691-.734,1.5,1.5,0,0,0-.421.107A5.893,5.893,0,0,0,40.4,27.051c-.506,1.207.089,1.98,1.428,1.979a3.538,3.538,0,0,0,.724-.066,8.979,8.979,0,0,0,2.681-1.121c.082-.047.189-.123.2-.2.028-.172.073-.4-.012-.521a.546.546,0,0,0-.482-.188" transform="translate(7.288 4.306)" fill="#1a1311"/>
    <path id="パス_1423" data-name="パス 1423" d="M128.38,18.349c.175-.234.383-.442.565-.672a.5.5,0,0,0-.038-.667.584.584,0,0,0-.788-.112,5.69,5.69,0,0,0-.777.867c-1.227,1.761-2.429,3.541-3.657,5.3-.242.348-.645.99-.645.99-.548-.1-5.184-1.1-6.481-1.319-2.489-.421-6.963-1.074-8.218-1.286a.147.147,0,0,1-.089-.24c.206-.236.478-.54.651-.724a43.56,43.56,0,0,1,7.55-6.472,29.954,29.954,0,0,1,3.69-2.091A14.127,14.127,0,0,1,123.06,11a4.371,4.371,0,0,1,1.586.066.74.74,0,0,1,.569,1.019,6.541,6.541,0,0,1-.863,1.493,8.151,8.151,0,0,1-2.495,2.013,18.793,18.793,0,0,1-4.069,1.625,3.579,3.579,0,0,0-.8.322.424.424,0,0,0-.176.364c.048.17.174.4.317.444a1.279,1.279,0,0,0,.7-.017,15.72,15.72,0,0,0,5.415-2.511,12.8,12.8,0,0,0,1.99-1.928,4.473,4.473,0,0,0,.784-1.467,1.676,1.676,0,0,0-1.166-2.194,4.926,4.926,0,0,0-2.514.035,15.54,15.54,0,0,0-4.185,1.715,42.379,42.379,0,0,0-9.948,8.127c-.366.392-.735.778-1.083,1.149-1.038-.17-7.385-.96-14.071-1.422-6.863-.476-13.951-.7-15.051-.566a19.405,19.405,0,0,1,1.9-3.089,3.885,3.885,0,0,0,.478-.725.565.565,0,0,0-.149-.5.585.585,0,0,0-.524-.106,1.846,1.846,0,0,0-.611.594c-.465.744-.891,1.514-1.336,2.27-.318.54-.645,1.075-.957,1.595-1.173-.054-6.781.135-6.766.2a42.423,42.423,0,0,1,3.337-5.366c.176-.235.373-.454.529-.7a.441.441,0,0,0-.131-.64.73.73,0,0,0-.654-.025,4.856,4.856,0,0,0-.941,1.1c-.952,1.59-1.864,3.206-2.794,4.808-.168.288-.347.569-.5.823-.559.048-1.043.1-1.528.128a174.677,174.677,0,0,0-18.03,1.8c-4.141.634-8.266,1.387-12.4,2.09-.325.054-1.064.149-1.064.149.977-2.2,2.018-4.72,3.02-6.938,1.025-2.267,2.082-4.519,3.111-6.784a4.512,4.512,0,0,0,.357-1.108.847.847,0,0,0-1.191-.972,5.393,5.393,0,0,0-1.4.775C38.479,9.64,37.2,10.62,36,11.7A106.422,106.422,0,0,0,23.066,25.84a3.5,3.5,0,0,1-1.987,1.329c-3.952,1.075-7.9,2.176-11.816,3.372-2.61.8-5.171,1.759-7.745,2.675a4.408,4.408,0,0,0-1.266.7.777.777,0,0,0,.291,1.308,1.275,1.275,0,0,0,.826-.09c.85-.369,1.661-.832,2.518-1.178A152.718,152.718,0,0,1,20.3,28.605c.2-.054.374-.085.516.2-.563.863-1.168,1.747-1.725,2.66-.635,1.041-1.252,2.093-1.825,3.169a3.362,3.362,0,0,0-.334,1.251.739.739,0,0,0,.379.562.778.778,0,0,0,.671-.082,1.73,1.73,0,0,0,.5-.69,47.032,47.032,0,0,1,4.248-7.169,2.177,2.177,0,0,1,1.4-.952c2.986-.718,5.969-1.455,8.955-2.179.213-.051.9-.159.9-.159s-.332.777-.445,1.034c-.93,2.1-1.871,4.189-2.8,6.285a9.02,9.02,0,0,0-.508,1.367.588.588,0,0,0,.385.705.615.615,0,0,0,.79-.169,12.371,12.371,0,0,0,1-2.117c.808-1.838,1.532-3.767,2.269-5.737.762-2.036.436-1.686,1.76-1.969,1.905-.409,3.825-.756,5.741-1.117A203.353,203.353,0,0,1,67.4,20.385a6.436,6.436,0,0,1,1.142-.037c-.137.327-.324.69-.419.908-.6,1.386-1.25,2.758-1.806,4.161-.612,1.541-1.152,3.112-1.7,4.676a1.831,1.831,0,0,0-.139,1.045.25.25,0,0,0,.41.129c.656-.593.813-1.487,1.461-1.944.886.53.973.56,1.735.248a7.106,7.106,0,0,0,3.456-3.044,3.086,3.086,0,0,0,.351-1.106.9.9,0,0,0-.911-1.076,2.3,2.3,0,0,0-1.373.428,11.2,11.2,0,0,0-2.5,2.243c-.275.312-.56.615-.84.923A44,44,0,0,1,69.2,21.068c.443-.892.233-.85,1.376-.859,1.462-.011,2.922-.1,4.385-.131.377-.007.839-.012,1.367.021-.256.536-.547,1.077-.757,1.5-.739,1.485-1.524,2.948-2.21,4.458a22.3,22.3,0,0,0-.885,2.628.645.645,0,0,0,.989.791,7.6,7.6,0,0,0,2.166-1.983c.107-.226-.285-.384-.438-.425a.713.713,0,0,0-.536.131,4.3,4.3,0,0,0-.474.552c-.189.2-.4.382-.695.666a31.775,31.775,0,0,1,4-8.227,231.343,231.343,0,0,1,28.735,1.733.22.22,0,0,1,.149.351c-.249.322-.576.673-.767.93a23.641,23.641,0,0,0-2.868,4.751,8.23,8.23,0,0,0-.882,3.377,3.024,3.024,0,0,0,2.479,3.18c.234.065.478.1.717.148a11.4,11.4,0,0,0,5-.133,59.949,59.949,0,0,0,6.471-1.867c1.458-.517.739-1.6.154-1.387-.6.19-1.138.475-1.642.667a40.577,40.577,0,0,1-5.463,1.764,12.744,12.744,0,0,1-3.615.384,5.3,5.3,0,0,1-2.117-.511,1.907,1.907,0,0,1-1.247-1.961,10.369,10.369,0,0,1,.477-2.575,20.581,20.581,0,0,1,4.413-6.834c.64.064,5.662.747,7.6,1.109,1.89.376,6.187,1.126,7.469,1.462-.764,1.264-1.492,2.42-2.073,3.638s-1.207,2.431-1.771,3.561a5.953,5.953,0,0,0-.528,1.479c-.167,1.25.549,1.485.9,1.407a2.538,2.538,0,0,0,1.6-1.171.5.5,0,0,0-.463-.713,7.408,7.408,0,0,0-1.032.332,32.252,32.252,0,0,1,4.317-8.22,82.026,82.026,0,0,1,9.867,2.633c-.516,1.143-1.041,2.183-1.462,3.263-.549,1.407-1.029,2.841-1.51,4.274a1.772,1.772,0,0,0-.025.855c.015.089.325.213.454.171a.9.9,0,0,0,.4-.4c.282-.456.52-.94.811-1.39a8.364,8.364,0,0,1,3.8-3.327,3.546,3.546,0,0,1,1.272-.239.582.582,0,0,1,.509.93,5.372,5.372,0,0,1-.925,1.115,13.2,13.2,0,0,1-3.343,2.086,5.3,5.3,0,0,0-.871.51.409.409,0,0,0-.057.389.438.438,0,0,0,.344.195,1.272,1.272,0,0,0,.549-.168c.976-.555,1.97-1.084,2.9-1.7a17.425,17.425,0,0,0,1.924-1.569,1.975,1.975,0,0,0,.645-1.283,1.029,1.029,0,0,0-.9-1.264,3.463,3.463,0,0,0-1.989.272,11.055,11.055,0,0,0-3.085,1.893l-.754.641a30.4,30.4,0,0,1,2.152-5.033c.561.159,1.251.371,1.84.584,1.558.561,3.1,1.162,4.66,1.729a1.839,1.839,0,0,0,.852.138.775.775,0,0,0,.521-.428.9.9,0,0,0-.135-.658.877.877,0,0,0-.47-.312c-.646-.221-1.3-.423-1.954-.618-1.54-.461-3.2-.962-4.825-1.441,0,0,.175-.287.22-.365a56.125,56.125,0,0,1,7.236-9.917,8.69,8.69,0,0,0,.769-.876.455.455,0,0,0-.174-.637.588.588,0,0,0-.514-.082,5.634,5.634,0,0,0-.954.882,66.141,66.141,0,0,0-6.693,9.434c-.242.413-.476.855-.755,1.316-3.257-.85-6.487-1.677-9.8-2.449a7.466,7.466,0,0,1,.487-.737Zm-93.975,5.6c-1.656.526-8.892,2.093-9.71,2.124,1.979-3.9,12.58-14.777,15.992-16.393.011.145.071.3.024.4-2.042,4.636-4.295,9.327-6.306,13.87m35.2,1.682a3.506,3.506,0,0,1,.924-.386c.236-.072.48.2.434.443-.009.046-.011.094-.025.141a4.878,4.878,0,0,1-3.661,2.99,3.092,3.092,0,0,1-.622-.128,11.772,11.772,0,0,1,2.951-3.059" transform="translate(0 1.414)" fill="#1a1311"/>
    <path id="パス_1424" data-name="パス 1424" d="M110.922,28.647a2.832,2.832,0,0,0-.732.024c.28-.361.39-.521.519-.665.422-.472.873-.92,1.263-1.416a.766.766,0,0,0,.1-.652c-.126-.276-.411-.157-.623-.033-.293.172-.58.358-.861.55-1.247.852-2.475,1.733-3.741,2.555-.773.5-1.6.93-2.411,1.364-.132.071-.338,0-.646,0,.154-.43.247-.745.376-1.045.154-.356.353-.692.5-1.051a.559.559,0,0,0-.288-.731.568.568,0,0,0-.741.278c-.256.731-.482,1.474-.69,2.221a1.265,1.265,0,0,0,.052.573.738.738,0,0,0,.843.638,3.8,3.8,0,0,0,1.231-.4c1.057-.6,2.081-1.262,3.122-1.891.214-.13.446-.227.756-.38a10.037,10.037,0,0,0-.309,1.1.58.58,0,0,0,.507.613,3.178,3.178,0,0,0,2.117-.811.582.582,0,0,0,.077-.529.7.7,0,0,0-.424-.313" transform="translate(18.653 4.67)" fill="#1a1311"/>
    <path id="パス_1425" data-name="パス 1425" d="M161.657,50.565a25.052,25.052,0,1,1,25.031-25.052,25.07,25.07,0,0,1-25.031,25.052m0-49.955a24.9,24.9,0,1,0,24.881,24.9A24.919,24.919,0,0,0,161.657.61" transform="translate(24.758 0.083)" fill="#1a1311"/>
    <path id="パス_1426" data-name="パス 1426" d="M161.74,51.19a25.6,25.6,0,1,1,25.573-25.6,25.613,25.613,0,0,1-25.573,25.6m0-51.04a25.445,25.445,0,1,0,25.423,25.445A25.463,25.463,0,0,0,161.74.15" transform="translate(24.675 0)" fill="#1a1311"/>
    <path id="パス_1427" data-name="パス 1427" d="M154.474,2.921a.785.785,0,1,1,.771-.92.786.786,0,0,1-.636.908.892.892,0,0,1-.136.012m0-1.419a.688.688,0,0,0-.11.008.641.641,0,1,0,.11-.008" transform="translate(27.851 0.245)" fill="#1a1311"/>
    <path id="パス_1428" data-name="パス 1428" d="M151.092,3.629a.617.617,0,0,1-.211-1.2.6.6,0,0,1,.471.02.618.618,0,0,1-.048,1.141.627.627,0,0,1-.211.037m0-1.086a.468.468,0,1,0,.159.907.468.468,0,0,0-.159-.907" transform="translate(27.268 0.434)" fill="#1a1311"/>
    <path id="パス_1429" data-name="パス 1429" d="M147.968,5.291a.753.753,0,0,1-.2-.027.777.777,0,1,1,.2.027m0-1.419a.634.634,0,0,0-.611.47.632.632,0,0,0,.448.776.622.622,0,0,0,.481-.063.634.634,0,0,0-.318-1.184" transform="translate(26.672 0.675)" fill="#1a1311"/>
    <path id="パス_1430" data-name="パス 1430" d="M145.121,7.286l-.07,0a.784.784,0,0,1-.435-1.382.768.768,0,0,1,.572-.181.784.784,0,0,1-.067,1.565m0-1.419a.627.627,0,0,0-.406.149.633.633,0,1,0,.463-.146l-.057,0" transform="translate(26.156 1.036)" fill="#1a1311"/>
    <path id="パス_1431" data-name="パス 1431" d="M142.638,9.554a.619.619,0,1,1,.472-.221.616.616,0,0,1-.472.221m0-1.086a.468.468,0,1,0,.3.11.466.466,0,0,0-.3-.11" transform="translate(25.736 1.507)" fill="#1a1311"/>
    <path id="パス_1432" data-name="パス 1432" d="M140.668,12.595a.785.785,0,1,1,.2-.027.753.753,0,0,1-.2.027m0-1.419a.635.635,0,0,0-.318,1.185.622.622,0,0,0,.481.061.615.615,0,0,0,.384-.3.634.634,0,0,0-.547-.951" transform="translate(25.349 1.998)" fill="#1a1311"/>
    <path id="パス_1433" data-name="パス 1433" d="M139.2,15.749a.786.786,0,0,1-.737-1.054.784.784,0,1,1,1.068.979.8.8,0,0,1-.331.074m0-1.42a.636.636,0,1,0,.216.039.6.6,0,0,0-.216-.039" transform="translate(25.083 2.57)" fill="#1a1311"/>
    <path id="パス_1434" data-name="パス 1434" d="M138.276,18.916a.559.559,0,0,1-.107-.009.618.618,0,1,1,.107.009m0-1.086a.468.468,0,1,0,.081.007.475.475,0,0,0-.081-.007" transform="translate(24.945 3.204)" fill="#1a1311"/>
    <path id="パス_1435" data-name="パス 1435" d="M138.3,26.039a.784.784,0,0,1-.77-.648.784.784,0,1,1,.907.637.893.893,0,0,1-.137.012m-.109-1.409a.635.635,0,0,0-.253,1.145.621.621,0,0,0,.472.1.634.634,0,1,0-.22-1.249" transform="translate(24.92 4.434)" fill="#1a1311"/>
    <path id="パス_1436" data-name="パス 1436" d="M139.175,29.207a.619.619,0,0,1-.58-.408.617.617,0,1,1,.791.37.629.629,0,0,1-.211.038m0-1.087a.47.47,0,0,0-.161.028.468.468,0,0,0-.037.863.451.451,0,0,0,.357.015.456.456,0,0,0,.263-.241.467.467,0,0,0-.423-.666" transform="translate(25.108 5.069)" fill="#1a1311"/>
    <path id="パス_1437" data-name="パス 1437" d="M140.67,32.551a.784.784,0,1,1,.391-.105.769.769,0,0,1-.391.105m0-1.419a.623.623,0,0,0-.315.085.634.634,0,1,0,.633,1.1.634.634,0,0,0-.152-1.161.607.607,0,0,0-.165-.022" transform="translate(25.349 5.614)" fill="#1a1311"/>
    <path id="パス_1438" data-name="パス 1438" d="M142.664,35.4l-.07,0a.784.784,0,1,1,.669-1.286.784.784,0,0,1-.6,1.289m0-1.419a.627.627,0,0,0-.406.149.634.634,0,1,0,.893.078.628.628,0,0,0-.431-.224l-.055,0" transform="translate(25.71 6.131)" fill="#1a1311"/>
    <path id="パス_1439" data-name="パス 1439" d="M145.095,37.669a.618.618,0,1,1,.4-1.091.618.618,0,0,1-.4,1.091m-.358-.919h0a.468.468,0,1,0,.659-.058.469.469,0,0,0-.659.058" transform="translate(26.181 6.602)" fill="#1a1311"/>
    <path id="パス_1440" data-name="パス 1440" d="M147.966,39.856a.772.772,0,0,1-.391-.105.784.784,0,1,1,.391.105m0-1.419a.613.613,0,0,0-.165.022.625.625,0,1,0,.165-.022" transform="translate(26.672 6.938)" fill="#1a1311"/>
    <path id="パス_1441" data-name="パス 1441" d="M151.118,41.326a.784.784,0,1,1,.71-1.116.786.786,0,0,1-.71,1.116m-.6-1h0a.634.634,0,1,0,1.191.434.621.621,0,0,0-.021-.484.633.633,0,0,0-1.169.051" transform="translate(27.242 7.204)" fill="#1a1311"/>
    <path id="パス_1442" data-name="パス 1442" d="M154.45,42.035a.687.687,0,0,1-.109-.009.618.618,0,1,1,.716-.5.619.619,0,0,1-.607.511m0-1.087a.468.468,0,0,0-.383.737.468.468,0,0,0,.843-.188.468.468,0,0,0-.379-.542.475.475,0,0,0-.082-.007" transform="translate(27.876 7.393)" fill="#1a1311"/>
    <path id="パス_1443" data-name="パス 1443" d="M161.4,42.226a.784.784,0,0,1-.771-.648.784.784,0,1,1,.908.637.776.776,0,0,1-.137.012m0-1.419a.717.717,0,0,0-.111.009.635.635,0,1,0,.111-.009" transform="translate(29.106 7.368)" fill="#1a1311"/>
    <path id="パス_1444" data-name="パス 1444" d="M164.731,41.134a.621.621,0,1,1,.211-.038.629.629,0,0,1-.211.038m-.439-.458a.468.468,0,1,0,.28-.6.47.47,0,0,0-.28.6" transform="translate(29.74 7.23)" fill="#1a1311"/>
    <path id="パス_1445" data-name="パス 1445" d="M167.907,39.856a.753.753,0,0,1-.2-.027.78.78,0,1,1,.2.027m0-1.419a.634.634,0,1,0,.318,1.184.635.635,0,0,0-.318-1.184" transform="translate(30.285 6.938)" fill="#1a1311"/>
    <path id="パス_1446" data-name="パス 1446" d="M170.754,37.861c-.022,0-.046,0-.07,0a.768.768,0,1,1,.07,0m0-1.419a.634.634,0,1,0,.486.227.629.629,0,0,0-.486-.227" transform="translate(30.801 6.577)" fill="#1a1311"/>
    <path id="パス_1447" data-name="パス 1447" d="M173.183,35.209a.618.618,0,1,1,.055,0l-.055,0m0-1.086a.467.467,0,1,0,.358.769.471.471,0,0,0-.058-.66.465.465,0,0,0-.3-.109" transform="translate(31.272 6.156)" fill="#1a1311"/>
    <path id="パス_1448" data-name="パス 1448" d="M175.2,32.552a.772.772,0,0,1-.391-.106.786.786,0,0,1-.286-1.071.773.773,0,0,1,.475-.365.785.785,0,0,1,.406,1.515.8.8,0,0,1-.2.027m0-1.42a.606.606,0,0,0-.165.022.627.627,0,0,0-.384.3.635.635,0,0,0,.232.866.634.634,0,1,0,.318-1.184" transform="translate(31.607 5.614)" fill="#1a1311"/>
    <path id="パス_1449" data-name="パス 1449" d="M176.673,29.4a.777.777,0,0,1-.267-.048.779.779,0,1,1,.267.048m-.216-.189a.634.634,0,1,0-.379-.813.637.637,0,0,0,.379.813" transform="translate(31.874 5.043)" fill="#1a1311"/>
    <path id="パス_1450" data-name="パス 1450" d="M177.548,25.847a.673.673,0,0,1-.107-.009.618.618,0,0,1-.5-.716.618.618,0,0,1,.715-.5.618.618,0,0,1-.106,1.227m-.082-.157a.468.468,0,0,0,.464-.73.468.468,0,0,0-.843.188.468.468,0,0,0,.379.542" transform="translate(32.062 4.46)" fill="#1a1311"/>
    <path id="パス_1451" data-name="パス 1451" d="M177.572,19.108a.783.783,0,1,1,.137-.012.767.767,0,0,1-.137.012m0-1.419a.717.717,0,0,0-.111.009.635.635,0,1,0,.111-.009" transform="translate(32.036 3.178)" fill="#1a1311"/>
    <path id="パス_1452" data-name="パス 1452" d="M176.648,15.557a.621.621,0,1,1,.211-.038.619.619,0,0,1-.211.038m0-1.087a.468.468,0,0,0-.159.028.47.47,0,0,0-.28.6.469.469,0,0,0,.6.279.468.468,0,0,0,.28-.6.47.47,0,0,0-.441-.308" transform="translate(31.899 2.595)" fill="#1a1311"/>
    <path id="パス_1453" data-name="パス 1453" d="M175.205,12.6a.8.8,0,0,1-.2-.027.785.785,0,0,1-.188-1.438.784.784,0,1,1,.392,1.465m0-1.42a.623.623,0,0,0-.315.085.634.634,0,0,0,.152,1.162.634.634,0,0,0,.712-.93.633.633,0,0,0-.384-.3.655.655,0,0,0-.165-.021" transform="translate(31.607 1.998)" fill="#1a1311"/>
    <path id="パス_1454" data-name="パス 1454" d="M173.211,9.746c-.022,0-.046,0-.07,0a.768.768,0,1,1,.07,0m0-1.419a.634.634,0,0,0-.054,1.266.634.634,0,0,0,.54-1.039.628.628,0,0,0-.485-.227" transform="translate(31.246 1.482)" fill="#1a1311"/>
    <path id="パス_1455" data-name="パス 1455" d="M170.727,7.094a.612.612,0,0,1-.4-.144.618.618,0,1,1,1.012-.527.617.617,0,0,1-.561.669.436.436,0,0,1-.055,0m0-1.086-.041,0a.463.463,0,0,0-.318.165.469.469,0,0,0,.058.659.476.476,0,0,0,.341.107.468.468,0,0,0,.424-.507.466.466,0,0,0-.164-.318.461.461,0,0,0-.3-.11" transform="translate(30.826 1.062)" fill="#1a1311"/>
    <path id="パス_1456" data-name="パス 1456" d="M167.9,5.291a.761.761,0,0,1-.39-.105.784.784,0,0,1,.188-1.436.784.784,0,1,1,.2,1.541m0-1.419a.655.655,0,0,0-.165.021.637.637,0,0,0-.448.777.626.626,0,0,0,.3.385.634.634,0,1,0,.633-1.1.623.623,0,0,0-.315-.085" transform="translate(30.285 0.675)" fill="#1a1311"/>
    <path id="パス_1457" data-name="パス 1457" d="M164.757,3.821a.784.784,0,0,1-.737-1.052.784.784,0,1,1,1.068.979.8.8,0,0,1-.331.073m0-1.419a.635.635,0,1,0,.574.366.629.629,0,0,0-.358-.327.6.6,0,0,0-.216-.039" transform="translate(29.714 0.408)" fill="#1a1311"/>
    <path id="パス_1458" data-name="パス 1458" d="M161.376,2.728a.575.575,0,0,1-.11-.009.6.6,0,0,1-.4-.254.609.609,0,0,1-.1-.462.617.617,0,1,1,.961.614.607.607,0,0,1-.352.111m0-1.086a.468.468,0,0,0-.383.737.468.468,0,0,0,.843-.188.468.468,0,0,0-.379-.542.475.475,0,0,0-.082-.007" transform="translate(29.131 0.27)" fill="#1a1311"/>
    <rect id="長方形_1481" data-name="長方形 1481" width="0.15" height="11.402" transform="translate(192.353 4.72)" fill="#1a1311"/>
    <rect id="長方形_1482" data-name="長方形 1482" width="0.15" height="13.148" transform="translate(185.304 3.919) rotate(-14.985)" fill="#1a1311"/>
    <path id="パス_1459" data-name="パス 1459" d="M157.988,17.211,150.771,4.7l.13-.074,7.216,12.508Z" transform="translate(27.322 0.839)" fill="#1a1311"/>
    <rect id="長方形_1483" data-name="長方形 1483" width="0.15" height="15.114" transform="matrix(0.707, -0.707, 0.707, 0.707, 171.718, 9.619)" fill="#1a1311"/>
    <rect id="長方形_1484" data-name="長方形 1484" width="0.15" height="15.032" transform="translate(167.094 15.687) rotate(-59.978)" fill="#1a1311"/>
    <rect id="長方形_1485" data-name="長方形 1485" width="0.15" height="14.406" transform="translate(164.866 22.926) rotate(-74.988)" fill="#1a1311"/>
    <rect id="長方形_1486" data-name="長方形 1486" width="7.225" height="0.15" transform="translate(177.293 45.279) rotate(-44.999)" fill="#1a1311"/>
    <path id="パス_1460" data-name="パス 1460" d="M154.794,40.535l-.13-.076,2.619-4.538.129.076Z" transform="translate(28.027 6.509)" fill="#1a1311"/>
    <rect id="長方形_1487" data-name="長方形 1487" width="3.506" height="0.15" transform="translate(187.796 47.246) rotate(-74.982)" fill="#1a1311"/>
    <rect id="長方形_1488" data-name="長方形 1488" width="0.15" height="2.112" transform="translate(192.353 44.358)" fill="#1a1311"/>
    <rect id="長方形_1489" data-name="長方形 1489" width="0.15" height="1.064" transform="matrix(0.966, -0.259, 0.259, 0.966, 196.007, 43.899)" fill="#1a1311"/>
    <rect id="長方形_1490" data-name="長方形 1490" width="0.15" height="0.376" transform="translate(199.417 42.505) rotate(-29.945)" fill="#1a1311"/>
    <rect id="長方形_1491" data-name="長方形 1491" width="0.15" height="0.39" transform="translate(206.037 33.967) rotate(-74.912)" fill="#1a1311"/>
    <rect id="長方形_1492" data-name="長方形 1492" width="1.086" height="0.15" transform="translate(206.534 30.165)" fill="#1a1311"/>
    <rect id="長方形_1493" data-name="長方形 1493" width="2.129" height="0.15" transform="translate(206.037 26.512) rotate(-15.021)" fill="#1a1311"/>
    <path id="パス_1461" data-name="パス 1461" d="M173.294,19.97l-.076-.13,3.068-1.772.076.13Z" transform="translate(31.389 3.274)" fill="#1a1311"/>
    <rect id="長方形_1494" data-name="長方形 1494" width="5.283" height="0.15" transform="translate(202.348 20.204) rotate(-44.999)" fill="#1a1311"/>
    <path id="パス_1462" data-name="パス 1462" d="M171.554,10.932l-.13-.076.559-.966.129.076Z" transform="translate(31.064 1.792)" fill="#1a1311"/>
    <rect id="長方形_1495" data-name="長方形 1495" width="8.727" height="0.15" transform="matrix(0.259, -0.966, 0.966, 0.259, 196.172, 15.955)" fill="#1a1311"/>
    <path id="パス_1463" data-name="パス 1463" d="M158.443,21.751a.543.543,0,1,1-.542-.543.543.543,0,0,1,.542.543" transform="translate(28.515 3.843)" fill="#1a1311"/>
    <path id="パス_1464" data-name="パス 1464" d="M163.484,34.657a1.062,1.062,0,1,1,1.178.934,1.063,1.063,0,0,1-1.178-.934" transform="translate(29.624 6.066)" fill="#1a1311"/>
    <rect id="長方形_1496" data-name="長方形 1496" width="0.225" height="36.133" transform="translate(177.553 8.513) rotate(-27.191)" fill="#1a1311"/>
    <path id="パス_1465" data-name="パス 1465" d="M150,8.428,149.728,5.9l1.942,1.635-1.108-.069Zm-.084-2.17.184,1.7.378-.646.747.047Z" transform="translate(27.133 1.07)" fill="#1a1311"/>
    <path id="パス_1466" data-name="パス 1466" d="M149.808,6.053l.7,1.31.927.058Z" transform="translate(27.147 1.097)" fill="#1a1311"/>
    <path id="パス_1467" data-name="パス 1467" d="M158.378,2.728l-.925-1.439v1.4H157.3V1.033l.137-.04.925,1.439V.992h.15v1.7Z" transform="translate(28.506 0.18)" fill="#1a1311"/>
    <path id="パス_1468" data-name="パス 1468" d="M137.987,21.068a.709.709,0,1,1-.709.709.709.709,0,0,1,.709-.709" transform="translate(24.877 3.818)" fill="#1a1311"/>
    <path id="パス_1469" data-name="パス 1469" d="M177.865,22.487a.709.709,0,1,1,.709-.709.709.709,0,0,1-.709.709" transform="translate(32.103 3.818)" fill="#1a1311"/>
    <path id="パス_1470" data-name="パス 1470" d="M158.555,30.292a7.679,7.679,0,0,1-4.81-1.7l.093-.116a7.525,7.525,0,1,0,9.189-11.916l.089-.12a7.678,7.678,0,0,1-4.561,13.85" transform="translate(27.861 2.98)" fill="#1a1311"/>
    <path id="パス_1471" data-name="パス 1471" d="M147.244,18.824a1.794,1.794,0,0,1-.424-1.687c.567-1.344,4.01-1.271,8.987.194l-.041.144c-4.824-1.42-8.28-1.53-8.807-.28a1.665,1.665,0,0,0,.409,1.543Z" transform="translate(26.591 2.932)" fill="#1a1311"/>
    <path id="パス_1472" data-name="パス 1472" d="M166.124,28.023a46.579,46.579,0,0,1-7.919-2.6c-4.461-1.883-8.316-4.183-10.31-6.151l.1-.106c1.982,1.955,5.82,4.242,10.265,6.119a46.521,46.521,0,0,0,7.893,2.589Z" transform="translate(26.801 3.474)" fill="#1a1311"/>
    <path id="パス_1473" data-name="パス 1473" d="M167.073,27.716a16.685,16.685,0,0,1-2.929-.311l.027-.148c3.026.554,4.981.351,5.364-.556.28-.665-.322-1.708-1.7-2.935l.1-.111c1.448,1.291,2.049,2.365,1.738,3.1-.268.634-1.166.957-2.6.957" transform="translate(29.745 4.287)" fill="#1a1311"/>
    <path id="パス_1474" data-name="パス 1474" d="M167.062,23.527a28.044,28.044,0,0,0-2.847-1.941l.077-.129a27.946,27.946,0,0,1,2.862,1.951Z" transform="translate(29.758 3.889)" fill="#1a1311"/>
    <path id="パス_1475" data-name="パス 1475" d="M167.078,24.093a.613.613,0,0,1-.1-.008.575.575,0,0,1,.2-1.133.577.577,0,0,1,.467.666.579.579,0,0,1-.235.371.567.567,0,0,1-.328.1m0-1a.424.424,0,0,0-.073.842.411.411,0,0,0,.317-.07.419.419,0,0,0,.175-.274.425.425,0,0,0-.344-.491.4.4,0,0,0-.074-.007" transform="translate(30.172 4.158)" fill="#1a1311"/>
    <path id="パス_1476" data-name="パス 1476" d="M147.662,19.663a.719.719,0,0,1-.248-.045.727.727,0,0,1-.059-1.343.719.719,0,0,1,.555-.025.729.729,0,0,1,.059,1.344.736.736,0,0,1-.307.069m-.2-.185a.578.578,0,1,0-.345-.741.578.578,0,0,0,.345.741" transform="translate(26.626 3.299)" fill="#1a1311"/>
    <path id="パス_1477" data-name="パス 1477" d="M163.821,27.329a.573.573,0,1,1,.2-.034.575.575,0,0,1-.2.034m-.4-.429a.424.424,0,1,0,.254-.545.425.425,0,0,0-.254.545" transform="translate(29.582 4.744)" fill="#1a1311"/>
    <path id="パス_1478" data-name="パス 1478" d="M170.066,16.7l-.028-.146a3.729,3.729,0,0,0,1.448-6.664,3.853,3.853,0,0,1-5.7,4.2,3.981,3.981,0,0,0,.331.729l-.128.076a3.931,3.931,0,0,1-.405-.952l-.053-.193.168.109a3.7,3.7,0,0,0,5.6-4.117l-.053-.191.168.109a.188.188,0,0,0,.026.015.346.346,0,0,1,.051.027,3.878,3.878,0,0,1-1.42,7" transform="translate(29.996 1.731)" fill="#1a1311"/>
    <path id="パス_1479" data-name="パス 1479" d="M157.217,41.733a.709.709,0,1,1,.709.709.709.709,0,0,1-.709-.709" transform="translate(28.49 7.434)" fill="#1a1311"/>
    <path id="パス_1480" data-name="パス 1480" d="M164.583,38.212a10.934,10.934,0,1,1,10.925-10.934,10.942,10.942,0,0,1-10.925,10.934m0-21.719a10.784,10.784,0,1,0,10.775,10.784,10.792,10.792,0,0,0-10.775-10.784" transform="translate(27.845 2.962)" fill="#1a1311"/>
    <path id="パス_1481" data-name="パス 1481" d="M161.158,46.806c-.3,0-.622-.007-1-.025-.086,0-.171-.009-.256-.014h-.027c-.255-.015-.515-.034-.774-.059l-.089-.008c-.051,0-.1-.008-.151-.014-.33-.034-.656-.076-.967-.123l-.113-.019-.083-.013c-.26-.043-.522-.09-.78-.139-.092-.019-.184-.037-.276-.057-.285-.06-.561-.124-.822-.19l-.125-.03c-.288-.074-.589-.161-.92-.261L154.6,45.8l-.072-.024c-.24-.076-.475-.156-.7-.237l-.063-.022-.178-.064c-.321-.119-.608-.233-.88-.347l-.116-.051c-.245-.105-.5-.22-.754-.341l-.247-.119c-.23-.113-.459-.23-.683-.35l-.07-.037-.1-.053c-.265-.144-.537-.3-.809-.465l-.12-.074-.076-.047c-.208-.129-.415-.261-.618-.4-.083-.054-.152-.1-.221-.148-.3-.2-.536-.374-.763-.543s-.465-.358-.736-.579c-.065-.052-.128-.105-.191-.159-.2-.168-.384-.327-.566-.49l-.066-.058-.1-.095c-.235-.214-.461-.429-.672-.64l-.132-.136c-.175-.177-.351-.363-.523-.55-.063-.066-.123-.133-.184-.2-.185-.208-.366-.416-.534-.618l-.081-.095c-.184-.224-.372-.464-.574-.732-.038-.05-.074-.1-.111-.15l-.04-.054q-.214-.291-.418-.591l-.051-.072c-.032-.045-.063-.091-.093-.136-.185-.278-.35-.535-.5-.787l-.064-.109c-.136-.227-.271-.459-.409-.713-.045-.079-.087-.159-.131-.24-.12-.224-.237-.455-.35-.683l-.034-.07c-.018-.034-.034-.069-.051-.1l-.032-.063-.244-.548c-.056-.123-.111-.245-.163-.369l-.025-.054c-.043-.1-.081-.206-.12-.307l-.117-.3c-.041-.106-.084-.211-.123-.319-.047-.131-.091-.263-.135-.4l-.1-.293c-.035-.105-.072-.21-.1-.317-.043-.137-.08-.274-.119-.413l-.083-.3c-.031-.105-.06-.21-.087-.317-.037-.144-.07-.289-.1-.435l-.07-.306c-.025-.1-.048-.2-.069-.307-.031-.152-.058-.3-.084-.458l-.055-.314c-.018-.1-.035-.2-.05-.294-.026-.167-.046-.335-.066-.506l-.017-.142-.021-.163c-.012-.091-.024-.181-.033-.272-.021-.209-.035-.419-.05-.628l-.006-.106c0-.048-.008-.1-.012-.146-.007-.073-.013-.145-.017-.217-.018-.373-.028-.748-.028-1.114a21.776,21.776,0,1,1,21.777,21.793M149.81,43.437l.076.047c.039.025.079.05.119.073.271.164.541.319.8.463l.1.051.071.038c.221.118.449.235.677.347l.247.119c.253.119.5.234.748.338l.116.051c.268.113.554.226.873.345l.176.063.064.024c.226.08.46.159.7.235l.073.024.17.054c.328.1.627.185.914.26l.124.03c.259.065.534.129.817.189l.274.056c.255.051.515.1.774.138l.084.014.111.019c.309.046.633.087.96.122l.149.014.09.007c.256.025.515.045.769.059h.027c.084,0,.169.011.253.014.379.018.7.025,1,.025a21.644,21.644,0,1,0-21.626-21.643c0,.363.008.736.027,1.106,0,.071.009.142.015.213,0,.05.008.1.012.15l.007.105c.014.209.028.417.048.624.008.09.021.178.033.267l.021.165.017.143c.02.167.039.334.065.5.014.1.032.193.05.288l.056.318c.026.151.052.3.083.452.02.1.044.2.067.3l.07.307c.033.144.065.288.1.43.027.105.057.209.087.313l.084.3c.038.137.076.274.117.41.032.105.067.208.1.311l.1.3c.044.131.086.262.132.391.039.106.08.21.122.315l.118.3c.039.1.077.2.118.3l.024.056c.052.124.107.245.162.365l.275.608.05.1.035.071c.111.227.228.455.347.677.043.08.085.161.129.24.139.252.272.483.408.709l.063.106c.152.25.315.506.5.782.03.045.06.09.091.133l.052.074c.135.2.274.392.416.586l.039.054.11.148c.2.267.387.506.572.728l.079.095c.167.2.346.406.532.613.06.067.12.133.182.2.171.187.346.371.52.547l.132.135c.21.21.434.423.666.635q.051.048.1.092l.067.06c.18.161.363.32.549.476.076.064.138.117.2.169.269.22.508.408.731.574s.465.34.757.54c.068.047.138.092.207.138.215.143.421.274.627.4" transform="translate(25.258 0.583)" fill="#1a1311"/>
    <path id="パス_1482" data-name="パス 1482" d="M161.241,47.431c-.309,0-.646-.008-1.031-.025l-.236-.013-.061,0c-.255-.014-.514-.034-.77-.058l-.091-.008c-.063-.006-.125-.011-.187-.018-.36-.038-.686-.079-1-.128l-.074-.012-.06-.009c-.278-.045-.567-.1-.859-.154l-.292-.061c-.249-.053-.5-.111-.75-.174l-.092-.021-.145-.037c-.322-.084-.64-.175-.945-.268l-.111-.037-.081-.026c-.249-.08-.5-.165-.749-.254l-.279-.1c-.245-.091-.493-.189-.736-.289l-.078-.032-.105-.044c-.287-.122-.585-.256-.882-.4l-.131-.064-.084-.043c-.228-.112-.452-.227-.667-.343-.086-.045-.171-.091-.255-.137-.254-.141-.5-.282-.734-.422l-.109-.065c-.258-.156-.522-.326-.809-.519-.048-.033-.1-.066-.144-.1l-.074-.053c-.2-.137-.4-.279-.6-.423l-.053-.039-.171-.126c-.286-.217-.534-.412-.756-.6s-.462-.391-.726-.631c-.054-.047-.106-.1-.159-.145l-.046-.044c-.18-.164-.354-.332-.528-.5l-.064-.063c-.041-.04-.083-.08-.123-.122-.242-.242-.457-.47-.661-.693l-.086-.1c-.18-.2-.363-.411-.547-.632-.061-.073-.122-.148-.183-.222q-.236-.291-.461-.587l-.054-.071-.089-.117c-.193-.26-.38-.524-.555-.782l-.066-.1-.044-.067c-.143-.216-.285-.436-.419-.654-.051-.083-.1-.165-.151-.249-.132-.221-.263-.45-.39-.68l-.039-.069c-.02-.034-.039-.067-.057-.1-.149-.275-.3-.565-.441-.86-.021-.044-.043-.089-.063-.133l-.093-.2c-.047-.1-.094-.2-.139-.3l-.106-.252c-.048-.111-.1-.223-.143-.337l-.1-.233c-.026-.065-.05-.13-.073-.194l-.05-.136c-.06-.157-.118-.307-.171-.459-.065-.182-.126-.366-.187-.552l-.019-.059c-.045-.135-.089-.269-.131-.405q-.083-.283-.161-.571l-.026-.092c-.034-.125-.069-.249-.1-.376-.045-.181-.086-.364-.126-.547l-.038-.169c-.025-.113-.051-.227-.073-.341-.037-.18-.067-.36-.1-.542l-.038-.217c-.018-.1-.037-.209-.052-.315-.028-.188-.051-.377-.073-.566l-.03-.245c-.012-.093-.024-.187-.033-.282-.022-.227-.038-.457-.053-.687l0-.046c0-.051-.007-.1-.011-.149-.006-.074-.012-.15-.015-.224-.02-.38-.028-.758-.028-1.122a22.318,22.318,0,1,1,22.318,22.337m0-44.523a22.2,22.2,0,0,0-22.168,22.187c0,.361.009.737.028,1.115q.005.11.014.22c0,.05.008.1.012.15l0,.047c.015.228.031.457.053.683.009.093.021.185.033.279l.03.245c.022.188.045.376.072.561.015.105.034.208.052.312l.038.217c.031.181.061.36.1.54.022.112.047.224.073.337l.038.17c.04.182.08.363.125.542.032.125.066.248.1.372l.025.093c.052.189.1.378.161.566.041.135.085.269.129.4l.019.059c.06.183.12.366.185.547.054.151.111.3.168.45.02.052.037.1.054.144.022.064.045.126.07.188l.1.233.142.335.106.25c.044.1.091.2.137.293l.095.2.061.131c.143.293.289.58.437.853.018.034.037.066.056.1l.04.071c.125.228.256.455.386.674.051.083.1.167.151.248.133.217.274.436.417.651l.045.069.064.1c.174.256.359.517.552.776.028.039.058.077.087.115l.054.072q.225.294.458.584c.06.073.12.148.182.221.182.219.365.43.543.628l.085.1c.2.222.417.447.657.689.039.04.08.08.12.119l.065.064c.171.169.347.337.524.5l.046.044c.052.048.105.1.158.144.263.237.5.441.717.622s.471.379.756.594l.169.126.053.039q.292.214.592.421l.076.052c.047.033.093.065.142.1.285.191.548.36.8.516l.109.064c.23.138.475.28.728.418.084.047.169.092.253.137.215.115.438.229.664.34l.085.043.129.064c.3.141.591.274.876.4.034.015.069.028.1.043l.079.032c.242.1.487.2.73.288l.276.1c.247.089.5.174.745.252l.083.027c.035.012.072.025.109.035.3.093.618.183.938.267l.142.035.095.022c.247.063.5.119.744.172l.291.06c.291.058.578.109.853.152l.133.022c.308.047.633.087.99.126l.184.017.092.008c.254.024.511.044.764.059l.061,0,.235.013c.382.017.717.026,1.024.026a22.187,22.187,0,0,0,0-44.375" transform="translate(25.175 0.5)" fill="#1a1311"/>
    <path id="パス_1483" data-name="パス 1483" d="M147.322,34.642a3.019,3.019,0,1,1,2.853-2.049,3.024,3.024,0,0,1-2.853,2.049m0-5.888a2.867,2.867,0,1,0,.919.152,2.871,2.871,0,0,0-.919-.152" transform="translate(26.15 5.184)" fill="#1a1311"/>
    <path id="パス_1484" data-name="パス 1484" d="M147.387,29.643l-.123-.086a4.4,4.4,0,0,0,.837-2.36,5.182,5.182,0,0,1,.37-2.709,2.711,2.711,0,0,0-.572,2.073,1.905,1.905,0,0,1-.673,1.752,1.942,1.942,0,0,0-.672,1.3l-.15-.006a2.083,2.083,0,0,1,.712-1.4,1.765,1.765,0,0,0,.635-1.627,3.014,3.014,0,0,1,.982-2.6l.378-.315-.268.413a4.937,4.937,0,0,0-.593,3.1,4.446,4.446,0,0,1-.863,2.466" transform="translate(26.53 4.289)" fill="#1a1311"/>
    <path id="パス_1485" data-name="パス 1485" d="M148.122,29.98a4.353,4.353,0,0,1,.129-1.627,3.013,3.013,0,0,0,.15-2.336,3,3,0,0,1,0-2.056l.142.05a2.908,2.908,0,0,0-.014,1.937,3.124,3.124,0,0,1-.141,2.458,4.214,4.214,0,0,0-.119,1.558Z" transform="translate(26.837 4.342)" fill="#1a1311"/>
    <path id="パス_1486" data-name="パス 1486" d="M145.213,30.528A2.086,2.086,0,0,1,144.862,29a1.762,1.762,0,0,0-.559-1.655,3.021,3.021,0,0,1-.919-2.626l.087-.484.06.489a4.938,4.938,0,0,0,1.533,2.753,4.449,4.449,0,0,1,.924,2.445l-.149.013a4.407,4.407,0,0,0-.875-2.347,5.184,5.184,0,0,1-1.456-2.312,2.71,2.71,0,0,0,.894,1.955,1.906,1.906,0,0,1,.608,1.774,1.948,1.948,0,0,0,.32,1.429Z" transform="translate(25.978 4.392)" fill="#1a1311"/>
    <path id="パス_1487" data-name="パス 1487" d="M147.033,29.48a4.3,4.3,0,0,1-.946-1.329,3.007,3.007,0,0,0-1.387-1.885,3.014,3.014,0,0,1-1.318-1.578l.141-.052a2.919,2.919,0,0,0,1.234,1.491,3.128,3.128,0,0,1,1.471,1.974,4.207,4.207,0,0,0,.91,1.271Z" transform="translate(25.983 4.464)" fill="#1a1311"/>
    <path id="パス_1488" data-name="パス 1488" d="M144.945,31.523a2.087,2.087,0,0,1-1.251-.945,1.759,1.759,0,0,0-1.49-.908,2.667,2.667,0,0,1-1.12-.267l.066-.136a2.521,2.521,0,0,0,1.057.254,1.9,1.9,0,0,1,1.605.966,1.943,1.943,0,0,0,1.163.889Z" transform="translate(25.566 5.304)" fill="#1a1311"/>
    <path id="パス_1489" data-name="パス 1489" d="M145.077,30.738A4.385,4.385,0,0,0,142.9,29.5a5.071,5.071,0,0,1-1.988-.491l.063-.136a4.927,4.927,0,0,0,1.932.476,4.454,4.454,0,0,1,2.276,1.279Z" transform="translate(25.535 5.233)" fill="#1a1311"/>
    <path id="パス_1490" data-name="パス 1490" d="M145.768,29.732a4.3,4.3,0,0,1-1.578-.409,3.007,3.007,0,0,0-2.273-.553,2.024,2.024,0,0,1-1.108-.007l.035-.145a1.88,1.88,0,0,0,1.026.009,3.124,3.124,0,0,1,2.393.566,4.222,4.222,0,0,0,1.512.389Z" transform="translate(25.516 5.173)" fill="#1a1311"/>
    <path id="パス_1491" data-name="パス 1491" d="M144.5,33a3.547,3.547,0,0,1-.78-.113,4.215,4.215,0,0,0-.615-.105l.011-.15a4.216,4.216,0,0,1,.637.109,1.942,1.942,0,0,0,1.462-.067l.07.132A1.636,1.636,0,0,1,144.5,33" transform="translate(25.932 5.914)" fill="#1a1311"/>
    <path id="パス_1492" data-name="パス 1492" d="M142.855,32.41l-.053-.141a5.5,5.5,0,0,1,2.077-.221l-.013.15a5.44,5.44,0,0,0-2.01.211" transform="translate(25.878 5.804)" fill="#1a1311"/>
    <path id="パス_1493" data-name="パス 1493" d="M142.507,32.009l-.043-.144a7.614,7.614,0,0,1,.8-.176,4.214,4.214,0,0,0,1.408-.674l.089.12a4.308,4.308,0,0,1-1.471.7,7.009,7.009,0,0,0-.78.171" transform="translate(25.816 5.62)" fill="#1a1311"/>
    <path id="パス_1494" data-name="パス 1494" d="M144.972,35.071l-.094-.117a3.772,3.772,0,0,1,.628-.38,1.944,1.944,0,0,0,1.076-.992l.138.057a2.09,2.09,0,0,1-1.146,1.069,3.6,3.6,0,0,0-.6.364" transform="translate(26.254 6.085)" fill="#1a1311"/>
    <path id="パス_1495" data-name="パス 1495" d="M144.691,34.668l-.123-.086a5.982,5.982,0,0,1,1.3-1.266l.086.124a5.865,5.865,0,0,0-1.26,1.228" transform="translate(26.198 6.037)" fill="#1a1311"/>
    <path id="パス_1496" data-name="パス 1496" d="M144.3,34.336l-.116-.1.12-.144a4.22,4.22,0,0,0,.644-1.423l.146.035a4.331,4.331,0,0,1-.676,1.485c-.039.045-.078.093-.119.143" transform="translate(26.127 5.921)" fill="#1a1311"/>
    <path id="パス_1497" data-name="パス 1497" d="M148.316,38.025l-.15,0a2.532,2.532,0,0,0-.315-1.325,1.906,1.906,0,0,1,.034-1.876,1.951,1.951,0,0,0,.188-1.453l.142-.046a2.094,2.094,0,0,1-.191,1.557,1.763,1.763,0,0,0-.041,1.745,2.7,2.7,0,0,1,.334,1.4" transform="translate(26.75 6.038)" fill="#1a1311"/>
    <path id="パス_1498" data-name="パス 1498" d="M147.906,37.762a4.9,4.9,0,0,0-.514-1.572,4.448,4.448,0,0,1-.032-2.614l.144.039a4.413,4.413,0,0,0,.02,2.5,5.073,5.073,0,0,1,.529,1.621Z" transform="translate(26.668 6.085)" fill="#1a1311"/>
    <path id="パス_1499" data-name="パス 1499" d="M147.095,37.128a3.848,3.848,0,0,1-.4-1.989,4.23,4.23,0,0,0-.419-1.5l.135-.066a4.324,4.324,0,0,1,.436,1.571,3.716,3.716,0,0,0,.376,1.91Z" transform="translate(26.507 6.083)" fill="#1a1311"/>
    <path id="パス_1500" data-name="パス 1500" d="M153.08,37.317l-.223-.439a4.942,4.942,0,0,0-2.383-2.062c-.96-.391-1.673-1.916-1.7-1.981l.137-.064c.006.017.717,1.537,1.623,1.906a5.18,5.18,0,0,1,2.159,1.675,2.715,2.715,0,0,0-1.508-1.532A1.9,1.9,0,0,1,150,33.36a1.939,1.939,0,0,0-.789-1.232l.08-.128a2.088,2.088,0,0,1,.852,1.315,1.76,1.76,0,0,0,1.089,1.364A3.022,3.022,0,0,1,153,36.831Z" transform="translate(26.959 5.799)" fill="#1a1311"/>
    <path id="パス_1501" data-name="パス 1501" d="M153.007,36.656a2.913,2.913,0,0,0-1.669-.979,3.124,3.124,0,0,1-2.056-1.351,4.251,4.251,0,0,0-1.289-.884l.06-.137a4.314,4.314,0,0,1,1.343.924,3.01,3.01,0,0,0,1.948,1.3,3,3,0,0,1,1.777,1.031Z" transform="translate(26.818 6.035)" fill="#1a1311"/>
    <path id="パス_1502" data-name="パス 1502" d="M155.517,31.927l-.454-.193a4.92,4.92,0,0,0-3.149-.047,4.437,4.437,0,0,1-2.577-.423l.064-.136a4.4,4.4,0,0,0,2.468.416,5.181,5.181,0,0,1,2.729-.106,2.708,2.708,0,0,0-2.138-.2,1.9,1.9,0,0,1-1.84-.359,1.935,1.935,0,0,0-1.4-.437l-.02-.149a2.075,2.075,0,0,1,1.5.459,1.761,1.761,0,0,0,1.712.344,3.015,3.015,0,0,1,2.731.515Z" transform="translate(27.037 5.486)" fill="#1a1311"/>
    <path id="パス_1503" data-name="パス 1503" d="M149.187,32.307l-.043-.144a4.331,4.331,0,0,1,1.623-.156,3,3,0,0,0,2.325-.259,3,3,0,0,1,2.025-.353l-.025.148a2.913,2.913,0,0,0-1.908.324,3.118,3.118,0,0,1-2.443.288,4.2,4.2,0,0,0-1.554.152" transform="translate(27.027 5.682)" fill="#1a1311"/>
    <path id="パス_1504" data-name="パス 1504" d="M148.822,30.072l-.039-.145a4.381,4.381,0,0,0,2.157-1.27,5.171,5.171,0,0,1,2.023-1.836,2.71,2.71,0,0,0-1.769,1.22,1.9,1.9,0,0,1-1.64.908,1.941,1.941,0,0,0-1.351.563l-.111-.1a2.088,2.088,0,0,1,1.442-.611,1.76,1.76,0,0,0,1.531-.837,3.018,3.018,0,0,1,2.424-1.362l.493,0-.471.144a4.935,4.935,0,0,0-2.443,1.989,4.441,4.441,0,0,1-2.245,1.335" transform="translate(26.836 4.821)" fill="#1a1311"/>
    <path id="パス_1505" data-name="パス 1505" d="M149.3,31.123l-.124-.083a4.267,4.267,0,0,1,1.142-1.163c.5-.288,1.429-.824,1.615-1.694a3,3,0,0,1,1.324-1.573l.076.13a2.905,2.905,0,0,0-1.253,1.474c-.2.936-1.167,1.493-1.687,1.793a4.237,4.237,0,0,0-1.093,1.116" transform="translate(27.032 4.822)" fill="#1a1311"/>
    <rect id="長方形_1497" data-name="長方形 1497" width="4.274" height="0.15" transform="translate(165.212 30.165)" fill="#1a1311"/>
    <rect id="長方形_1498" data-name="長方形 1498" width="4.209" height="0.15" transform="translate(170.125 30.165)" fill="#1a1311"/>
    <rect id="長方形_1499" data-name="長方形 1499" width="3.061" height="0.15" transform="translate(175.262 30.165)" fill="#1a1311"/>
    <rect id="長方形_1500" data-name="長方形 1500" width="1.962" height="0.15" transform="translate(167.822 36.761) rotate(-15.02)" fill="#1a1311"/>
    <path id="パス_1506" data-name="パス 1506" d="M145.78,35.7l-.076-.13,1.13-.652.076.129Z" transform="translate(26.404 6.327)" fill="#1a1311"/>
    <path id="パス_1507" data-name="パス 1507" d="M148.106,34.325l-.076-.13.809-.468.076.13Z" transform="translate(26.825 6.112)" fill="#1a1311"/>
    <path id="パス_1508" data-name="パス 1508" d="M149.918,33.4l-.076-.13,2.2-1.273.076.13Z" transform="translate(27.153 5.799)" fill="#1a1311"/>
    <path id="パス_1509" data-name="パス 1509" d="M152.334,31.429a14.141,14.141,0,0,1-1.075-2.9l.146-.035a14.016,14.016,0,0,0,1.062,2.87Z" transform="translate(27.41 5.163)" fill="#1a1311"/>
    <path id="パス_1510" data-name="パス 1510" d="M165.082,41.971a14.247,14.247,0,0,1-12.216-6.982l.129-.077a14.025,14.025,0,1,0-1.8-5.158l-.149.021a14.409,14.409,0,0,1-.139-2,14.18,14.18,0,1,1,14.18,14.192" transform="translate(27.345 2.462)" fill="#1a1311"/>
    <path id="パス_1511" data-name="パス 1511" d="M152.863,31.514a13.593,13.593,0,0,1-1.3-3.731l.148-.028A13.425,13.425,0,0,0,153,31.444Z" transform="translate(27.466 5.03)" fill="#1a1311"/>
    <path id="パス_1512" data-name="パス 1512" d="M165,41.344a13.717,13.717,0,0,1-11.711-6.649l.129-.077a13.505,13.505,0,1,0-1.906-6.923,13.761,13.761,0,0,0,.1,1.623l-.149.018a13.8,13.8,0,0,1-.1-1.641A13.638,13.638,0,1,1,165,41.344" transform="translate(27.429 2.545)" fill="#1a1311"/>
  </g>
</svg>
