<svg xmlns="http://www.w3.org/2000/svg" xmlns:xlink="http://www.w3.org/1999/xlink" width="551.377" height="553.459" viewBox="0 0 551.377 553.459">
  <defs>
    <clipPath id="clip-path">
      <rect id="長方形_1390" data-name="長方形 1390" width="551.377" height="553.459" fill="#f7f3e9"/>
    </clipPath>
  </defs>
  <g id="グループ_1325" data-name="グループ 1325" transform="translate(0 0)">
    <g id="グループ_1324" data-name="グループ 1324" transform="translate(0 0)" clip-path="url(#clip-path)">
      <path id="パス_993" data-name="パス 993" d="M551.377,292.171l-11.611-9.847c-.377-.319-38.223-31.767-84.471-15.926-23.6,8.077-37.826-1.009-52.9-10.622-11.435-7.3-23.235-14.819-39.284-14.709,5.962-7.869,17.507-21.744,29.593-28.7,16.075-9.255,46.007-26.469,52.151-55.379,5.259-24.758,36.186-44,38.536-45.428l14.286-4.38-15.223-.078h-.007c-.872,0-49.8.4-74.937,42.1-12.886,21.347-29.626,23.541-47.348,25.864-13.453,1.757-27.309,3.586-39.551,14-.495-9.86-.566-27.921,4.224-41.009,6.365-17.423,18.23-49.854,4.348-75.945-11.9-22.389-.514-57.091.325-59.59L337.631,0,325.923,9.723c-.377.319-37.911,32.125-30.355,80.417,3.859,24.64-7.556,37.078-19.642,50.251-9.17,9.99-18.607,20.286-21.3,36.121-6.7-7.2-18.353-20.924-23.131-34.11-6.307-17.436-18.067-49.9-45.473-60.976-23.488-9.489-37.078-43.332-38.054-45.844l-1.829-14.813-2.72,14.976c-.085.482-8.4,48.981,28.435,81.113,18.8,16.388,18.048,33.257,17.253,51.116-.6,13.576-1.2,27.569,6.97,41.451-9.788-1.217-27.608-4.282-39.688-11.279-16.049-9.3-45.923-26.606-74.032-17.481-24.113,7.842-56.31-9.391-58.627-10.661L12.808,159.831l7.543,13.218c.247.43,25.05,42.916,73.928,43.859,24.933.482,35.2,13.882,46.072,28.07,8.253,10.771,16.759,21.861,31.9,27.257-8.292,5.363-23.9,14.461-37.631,16.843-18.275,3.2-52.281,9.131-67.947,34.208-13.44,21.5-49.17,28.988-51.767,29.509L0,352.021,14.279,357.3c.462.169,46.782,16.778,84.823-13.921,19.414-15.665,35.887-11.988,53.336-8.116,13.251,2.948,26.905,5.981,41.952.384-2.909,9.437-9.021,26.424-18,37.084-11.943,14.2-34.182,40.612-30.062,69.88,3.521,25.063-18.959,53.719-20.677,55.867l-11.923,9,14.325-5.135h.013c.814-.3,46.645-17.41,56.017-65.181,4.8-24.471,19.779-32.262,35.646-40.5,12.04-6.254,24.439-12.711,32.379-26.684,3.833,9.1,10.081,26.046,10.055,39.98-.026,18.549-.078,53.082,21.887,72.854,18.835,16.967,20.013,53.466,20.078,56.108l-3.352,14.546,7.673-13.147c.247-.43,24.64-43.157,1.022-85.949-12.053-21.829-5.578-37.429,1.269-53.934,5.207-12.535,10.556-25.441,7.66-41.25,8.78,4.5,24.452,13.459,33.407,24.159,11.891,14.227,34.045,40.709,63.586,41.744,25.317.885,49.658,28.044,51.442,30.068l6.782,13.3-2.564-15c-.085-.488-8.864-48.9-54.461-66.5-23.267-8.968-28.337-25.076-33.7-42.128-4.074-12.971-8.3-26.326-20.742-36.583,9.613-2.2,27.445-5.434,41.191-2.974,18.262,3.254,52.249,9.307,75.548-8.9,19.98-15.607,56.128-10.426,58.737-10.029ZM399.909,259.681c15.327,9.782,31.168,19.909,56.889,11.1,27.38-9.365,51.708-1.2,66.144,6.287-18.087-4.191-49.418-7.973-84.387,3.274-26.326,8.454-67.888-9.092-75.106-12.294a93.44,93.44,0,0,0-4.016-21.92l.1-.156c16.538-1.341,28.161,5.923,40.371,13.713M354.318,301.94a88.634,88.634,0,1,1-55.418-112.4,88.038,88.038,0,0,1,55.418,112.4m86-145.91c-5.714,26.886-34.474,43.43-49.925,52.32-14.3,8.226-27.38,24.881-32.756,32.281a93.645,93.645,0,0,0-16.082-27.27c11.865-3.547,51.266-16.811,66.014-40.247a154.523,154.523,0,0,1,56.479-52.828c-9.769,8.676-20.625,21.145-23.729,35.744m-79.551,23.632c18.028-2.363,36.674-4.8,50.706-28.064,14.956-24.784,38.842-34.156,54.715-37.7-16.551,8.415-42.981,25.662-62.538,56.752-14.741,23.41-57.826,36.668-65.434,38.855a92.956,92.956,0,0,0-17.175-14.247l-.013-.15c11.793-11.656,25.376-13.563,39.74-15.444M325.09,74.286c12.906,24.269,1.516,55.431-4.614,72.177-5.662,15.49-4.972,36.661-4.335,45.779A87.626,87.626,0,0,0,286.3,181.673c6.821-10.368,28.454-45.831,24.692-73.251a154.587,154.587,0,0,1,9.3-76.772c-1.907,12.925-2.206,29.457,4.8,42.636m-45.747,69.235c12.294-13.4,25.011-27.25,20.807-54.1-4.478-28.6,7.8-51.129,17.683-64.042A159.9,159.9,0,0,0,306.4,109.053c3.762,27.387-20.677,65.187-25.129,71.8a92.633,92.633,0,0,0-22.31.169l-.13-.124c1.542-16.518,10.719-26.71,20.514-37.377m-95.06-57.794c25.493,10.3,36.785,41.5,42.857,58.256,5.656,15.613,19.85,31.39,26.137,37.885a93.8,93.8,0,0,0-29.684,11.084c-1.432-12.3-7.654-53.414-28.168-72.008A154.507,154.507,0,0,1,153.2,56.154c6.847,11.123,17.247,23.983,31.084,29.574m9.457,82.454c.807-18.171,1.64-36.961-18.835-54.819-21.816-19.03-26.892-44.185-27.621-60.43a159.872,159.872,0,0,0,45.024,71.448c20.573,18.64,26.111,63.625,26.912,71.272a93.279,93.279,0,0,0-17.1,14.416h-.02c-9.483-13.667-9-27.4-8.357-41.887m-109.951,16.9c26.144-8.493,54.852,8.142,70.277,17.084,14.273,8.266,35.229,11.259,44.322,12.216a92.643,92.643,0,0,0-15.646,27.491c-9.105-8.578-40.189-35.919-67.784-36.967a154.606,154.606,0,0,1-74-22.5c12.4,4.12,28.63,7.289,42.831,2.675m60.247,57.078c-11.064-14.429-22.5-29.359-49.671-29.88-28.942-.56-48.994-16.564-60-28.532a159.9,159.9,0,0,0,80.417,25.786c27.673,1.054,60.735,31.806,66.385,37.253a92.974,92.974,0,0,0-3.82,22.024l-.065.046c-16-4.387-24.439-15.2-33.244-26.7M70.6,325.74c14.566-23.313,47.27-29.014,64.816-32.092C151.7,290.8,169.7,279.59,177.26,274.494a93.232,93.232,0,0,0,5.714,31.149c-12.418-.722-53.915-1.718-75.757,15.249A154.506,154.506,0,0,1,36.062,351.22C48.213,346.4,62.688,338.4,70.6,325.74m82.844,5c-17.755-3.944-36.1-8.044-57.254,9.034-22.532,18.165-48.181,18.815-64.309,16.713,18.432-2.245,49.164-9.4,78.178-31.936,21.946-17.026,67.341-14.65,74.9-14.123A94.109,94.109,0,0,0,196.1,329.717l-.026.1c-15.073,6.918-28.493,4.068-42.623.918m-2.525,111.22c-3.827-27.211,17.54-52.6,29.021-66.235,10.674-12.685,17.28-32.939,19.772-41.66a92.593,92.593,0,0,0,24.367,20.273c-9.977,7.432-42.4,33.336-48.227,60.371a154.55,154.55,0,0,1-35,68.955c6.209-11.494,12.144-26.925,10.068-41.705m66.671-49.411c-16.134,8.389-32.821,17.058-38.048,43.716-5.578,28.4-24.816,45.382-38.523,54.143,12.678-13.57,31.611-38.815,39.362-74.722,5.864-27.166,42.128-54.487,48.292-58.959a84.385,84.385,0,0,0,20.911,7.569l.072.15c-7.1,14.989-19.213,21.425-32.066,28.1m49.216,17.423c.026-16.5-7.862-36.154-11.578-44.5a87.381,87.381,0,0,0,31.669-.351c-2.851,11.988-11.11,52.828,1.835,77.358a154.513,154.513,0,0,1,17.514,75.321c-2.629-12.8-8-28.435-19.089-38.425-20.43-18.392-20.384-51.572-20.351-69.4m39.662-11.311c-6.97,16.8-14.182,34.162-1.054,57.95,13.993,25.343,10.166,50.719,5.291,66.228a159.922,159.922,0,0,0-17.872-82.532c-12.925-24.491-2.831-68.48-.931-76.115a93.7,93.7,0,0,0,19.74-7.107c.4-.2.755-.436,1.152-.638l.169.078c4.2,16.043-.944,28.76-6.5,42.135m48.9-18.282c-10.628-12.711-29.424-22.727-37.585-26.7a92.454,92.454,0,0,0,24.185-20.488c5.584,11.11,25.473,47.543,51.084,57.989a154.531,154.531,0,0,1,61.835,46.443c-10.238-8.109-24.406-16.642-39.323-17.162-27.478-.957-48.76-26.411-60.2-40.078m23.111-34.162c5.454,17.345,11.1,35.288,36.446,45.063,27.009,10.426,40.384,32.327,46.625,47.341A159.848,159.848,0,0,0,394.8,386.886c-25.649-10.465-46.2-50.674-49.639-57.722a92.878,92.878,0,0,0,11.064-19.447l.059-.013c13.6,9.6,17.839,22.668,22.193,36.512m97.566-53.5c-21.666,16.922-54.338,11.1-71.884,7.986-16.245-2.883-36.954,1.464-45.825,3.677.111-.325.26-.625.371-.95a92.7,92.7,0,0,0,4.868-30.264c11.422,4.92,50.075,20.052,76.4,11.585a154.5,154.5,0,0,1,77.241-4.165c-13.062.364-29.4,2.942-41.172,12.131" transform="translate(0 -0.003)" fill="#f7f3e9"/>
    </g>
  </g>
</svg>
