<svg xmlns="http://www.w3.org/2000/svg" xmlns:xlink="http://www.w3.org/1999/xlink" width="603.091" height="138.03" viewBox="0 0 603.091 138.03">
  <defs>
    <clipPath id="clip-path">
      <rect id="長方形_1389" data-name="長方形 1389" width="603.091" height="138.03" fill="#f7f3e9"/>
    </clipPath>
  </defs>
  <g id="グループ_1323" data-name="グループ 1323" transform="translate(0 0)">
    <g id="グループ_1322" data-name="グループ 1322" transform="translate(0 0)" clip-path="url(#clip-path)">
      <path id="パス_984" data-name="パス 984" d="M241.318,44.171c-5.347.835-9.356,6.2-16.071,6,1.781-4.483,2.069-4.959,4.106-6.965,1.783-1.752,3.545-3.356,6.454-2.579.623.167,1.911-.763,2.319-1.5a2.5,2.5,0,0,0-1-3.226,3.868,3.868,0,0,0-2.249-.775,6.366,6.366,0,0,0-2.914.8,23.949,23.949,0,0,0-9.475,10.267,10.2,10.2,0,0,0-.816,2.958c-.435,2.894,1.3,4.992,4.23,4.584a35.861,35.861,0,0,0,7-2.173c1.424-.515,2.77-1.255,5.336-2.44-1,1.818-1.292,2.523-1.734,3.117-2.084,2.8-4.306,5.505-6.285,8.379a9.518,9.518,0,0,1-6.583,3.986C202.6,68.565,182.1,74.565,161.8,81.22c-6.241,2.047-12.347,4.526-18.437,7a28.926,28.926,0,0,0-6.416,3.628c-3.488,2.616-3.044,5.854,1.146,7.377a26.4,26.4,0,0,0,8.434,1.523,112.723,112.723,0,0,0,54.564-13.058,95.047,95.047,0,0,0,22.982-16.5,9.788,9.788,0,0,1,7.6-3.261,17.261,17.261,0,0,0,3.679-.315,2.146,2.146,0,0,0,.967-3.481A22.406,22.406,0,0,0,233.094,62c1.7-2.323,3.488-4.555,5.035-6.944s2.95-4.922,4.263-7.468a2.374,2.374,0,0,0-1.074-3.415m-25.858,31.1C198.517,87.757,179.692,95.4,158.578,96.888c-4.293.3-8.628.1-12.942.021-2.094-.037-2.123-.161-5.27-1.966a13.576,13.576,0,0,1,2.362-1.841c3.168-1.474,6.334-2.993,9.609-4.2a487.81,487.81,0,0,1,62.687-18.427c1.762-.392,3.545-.693,5.32-1.035.225.357.447.713.672,1.068-1.847,1.593-3.6,3.319-5.555,4.761" transform="translate(142.841 37.269)" fill="#f7f3e9"/>
      <path id="パス_985" data-name="パス 985" d="M108.712,58.928a4.3,4.3,0,0,0,0-5.184c-.864-1.342-1.927-2.556-2.879-3.8,1.416-2.546,3.671-3.574,5.893-4.615a26.2,26.2,0,0,0,3.391-1.393,2.374,2.374,0,0,0,.919-2.039,5.833,5.833,0,0,0-1.9-2.111c-.229-.19-.8-.052-1.187.039a18.337,18.337,0,0,0-10.535,7.016c-1.637,2.144-1.529,3.931.138,6.2.833,1.132,1.83,2.14,2.768,3.222-.82,3.2-3.209,4.924-5.448,6.627C88.5,71.539,76.2,78.427,62.35,82.3a23.781,23.781,0,0,0-3.5,1.117,1.814,1.814,0,0,0-.971,2.56,2.43,2.43,0,0,0,1.874,1.179,25.784,25.784,0,0,0,5.312-1.391,162.14,162.14,0,0,0,35.718-19.208,49.716,49.716,0,0,0,5.235-4.293,22.627,22.627,0,0,0,2.694-3.333" transform="translate(61.184 42.122)" fill="#f7f3e9"/>
      <path id="パス_986" data-name="パス 986" d="M150.824,43.982c-1.2.777-2.251,1.779-3.382,2.663-1.579,1.233-2.954,2.809-4.943,3.22l-4.077-3.553c-3.286.012-5.355,1.725-7.488,3.356-1.068.816-2.253,1.474-3.677,2.393a21.678,21.678,0,0,0-.307-2.976c-.676-2.531-2.032-3.4-4.526-2.836a36.3,36.3,0,0,0-3.846,1.383c.614-1.694,1.07-2.807,1.422-3.953a15.806,15.806,0,0,0,1.037-4.149,2.96,2.96,0,0,0-1.451-2.362c-.717-.237-1.861.449-2.659.973-.431.284-.565,1.062-.773,1.639q-3.342,9.278-6.656,18.565a4.5,4.5,0,0,0-.359,1.8c.045.546.33,1.433.678,1.523a2.8,2.8,0,0,0,2.2-.227,24.373,24.373,0,0,0,2.333-2.849c2.162-2.478,4.331-4.949,6.569-7.356.668-.719,1.494-1.463,2.667-.89a2.913,2.913,0,0,1,.289.513c.581,1.81-.82,4.485,1.931,5.31,2.032.61,3.349-1.171,4.794-2.263,2.1-1.587,3.9-3.636,6.878-4.508.664.779,1.288,1.54,1.942,2.269a4.1,4.1,0,0,0,5.062,1.138,79.783,79.783,0,0,0,8.849-5.524,1.962,1.962,0,0,0,.183-2.789,1.825,1.825,0,0,0-2.692-.5" transform="translate(115.81 39.389)" fill="#f7f3e9"/>
      <path id="パス_987" data-name="パス 987" d="M178.268,38.5a2.139,2.139,0,0,0,1.808-2.7,2.437,2.437,0,0,0-2.766-1.892,12.8,12.8,0,0,0-3.488,1.152,47.758,47.758,0,0,0-15.7,13.693A13.367,13.367,0,0,0,156.4,52c-1.033,2.834.843,5.268,3.72,4.493a67.941,67.941,0,0,0,9.766-3.683c2.42-1.074,4.671-2.529,7.165-3.908.738,1.362,1.226,2.434,1.867,3.405a4.353,4.353,0,0,0,3.644,2.016,18.688,18.688,0,0,0,8.919-1.975,2.391,2.391,0,0,0,.911-1.987,1.818,1.818,0,0,0-2.238-1.56,14.887,14.887,0,0,0-2.319.82c-1.907.639-3.819,1.257-5.751,1.892-2.2-2.267-1.154-5.456-4.489-6.192-1.886,1.018-4.034,2.218-6.219,3.345-2.923,1.507-5.86,2.991-8.826,4.413a1.883,1.883,0,0,1-2.8-.816,9.6,9.6,0,0,1,1.29-2.5c4.844-5.11,9.923-9.883,17.232-11.269" transform="translate(165.663 35.935)" fill="#f7f3e9"/>
      <path id="パス_988" data-name="パス 988" d="M220.457,40.711c-1.787,1-3.533,2.084-5.25,3.2a44.311,44.311,0,0,1-13.34,6.217,12.978,12.978,0,0,1-7.272-.138c-2.078-.653-3.053-2.115-2.541-4.219a16.925,16.925,0,0,1,1.54-3.222c1.441.967,2.529,2.3,3.667,2.342,3,.113,7.352-3.788,8.039-6.7a2.691,2.691,0,0,0-1.993-3.3,8.358,8.358,0,0,0-2.44-.2c-4.815.532-10.679,5.833-11.794,10.59a5.737,5.737,0,0,0,3.523,7,11.563,11.563,0,0,0,4.73.857c9.131-.369,16.914-4.611,24.679-8.853.173-.095.394-.237.445-.4a6.829,6.829,0,0,0,.557-2.255c-.049-.839-1.659-1.43-2.548-.932m-20.583-2.49c.62,1.443-.468,1.494-.956,1.746-.346.179-.934-.1-1.94-.266l2.9-1.48" transform="translate(200.432 36.794)" fill="#f7f3e9"/>
      <path id="パス_989" data-name="パス 989" d="M110.261,39.4c-3.572,2.078-6.9,4.477-9.139,8.065a4.465,4.465,0,0,0,.421,5.7c1.055,1.226,2.214,2.366,3.255,3.471-1.424,3.267-1.327,3.415-3.133,4.578-3.628,2.337-7.307,4.617-11.093,6.684-2.519,1.375-5.277,2.3-7.894,3.506-1.97.9-2.636,1.892-2.315,3.123.394,1.517,2.008,1.979,4.114.761q9.615-5.559,19.072-11.4A14.579,14.579,0,0,0,107.1,60.5c1.839-2.3,1.81-4.374.109-6.765-.909-1.278-1.923-2.482-2.894-3.723a13.813,13.813,0,0,1,4.778-4.364,20.4,20.4,0,0,0,3.543-2.443,3.97,3.97,0,0,0,.775-2.754c-.056-.94-2.14-1.651-3.152-1.062" transform="translate(85.198 41.578)" fill="#f7f3e9"/>
      <path id="パス_990" data-name="パス 990" d="M117.125,51.9a27.409,27.409,0,0,0-4.178,2.548,20.048,20.048,0,0,1-8.373,3.7c-3.892.557-5.483-1.463-4.036-5.04a22.652,22.652,0,0,1,1.4-2.539c2.379-.109,4.135.227,5.524-.338a16.355,16.355,0,0,0,7.093-5.749,7.259,7.259,0,0,0,1.062-2.83,2.671,2.671,0,0,0-2.91-3.09,6.422,6.422,0,0,0-1.775.453A24.838,24.838,0,0,0,97.964,52.4c-2.131,5.085.371,8.342,6.025,8.338a14.966,14.966,0,0,0,3.051-.28,37.861,37.861,0,0,0,11.312-4.722c.342-.2.8-.521.853-.845.126-.73.309-1.7-.049-2.2a2.288,2.288,0,0,0-2.03-.794" transform="translate(103.159 40.895)" fill="#f7f3e9"/>
      <path id="パス_991" data-name="パス 991" d="M541.449,44.44c.742-.983,1.618-1.863,2.383-2.83a2.114,2.114,0,0,0-.159-2.818,2.472,2.472,0,0,0-3.325-.47,24.016,24.016,0,0,0-3.275,3.652C531.9,49.4,526.827,56.9,521.651,64.32c-1.022,1.468-2.723,4.176-2.723,4.176-2.311-.435-21.865-4.64-27.338-5.561-10.5-1.768-29.366-4.524-34.655-5.421a.614.614,0,0,1-.371-1.006c.864-1,2.012-2.278,2.744-3.053A183.193,183.193,0,0,1,491.15,26.184a124.963,124.963,0,0,1,15.566-8.81,59.654,59.654,0,0,1,12.3-3.887,18.362,18.362,0,0,1,6.687.28,3.12,3.12,0,0,1,2.4,4.3,27.532,27.532,0,0,1-3.646,6.293,34.359,34.359,0,0,1-10.518,8.48,79.12,79.12,0,0,1-17.162,6.849,15.112,15.112,0,0,0-3.368,1.354,1.793,1.793,0,0,0-.74,1.536c.2.719.728,1.678,1.334,1.876a5.436,5.436,0,0,0,2.958-.07c8.2-2.249,16.026-5.437,22.838-10.584a54.222,54.222,0,0,0,8.393-8.125,18.615,18.615,0,0,0,3.3-6.182,7.059,7.059,0,0,0-4.914-9.244,20.74,20.74,0,0,0-10.6.153,65.466,65.466,0,0,0-17.652,7.224c-15.912,9.057-29.527,20.929-41.958,34.247-1.54,1.649-3.094,3.283-4.565,4.842-4.378-.713-31.145-4.042-59.346-5.994-28.943-2-58.837-2.962-63.479-2.379,2.251-5.017,5.215-8.964,8-13.019A16.6,16.6,0,0,0,339,32.258a2.379,2.379,0,0,0-.633-2.109,2.455,2.455,0,0,0-2.212-.441,7.741,7.741,0,0,0-2.57,2.5c-1.964,3.137-3.758,6.379-5.639,9.568-1.34,2.273-2.717,4.528-4.034,6.717-4.943-.231-28.6.567-28.535.86a179.457,179.457,0,0,1,14.072-22.615c.742-.987,1.579-1.913,2.232-2.952a1.857,1.857,0,0,0-.55-2.7c-.756-.408-2.247-.565-2.76-.105a20.586,20.586,0,0,0-3.972,4.652c-4.015,6.7-7.861,13.5-11.782,20.257-.7,1.216-1.468,2.4-2.123,3.469-2.354.2-4.4.441-6.443.54a736.09,736.09,0,0,0-76.044,7.567c-17.469,2.675-34.863,5.841-52.288,8.805-1.367.233-4.487.631-4.487.631,4.122-9.273,8.509-19.893,12.738-29.238,4.324-9.554,8.783-19.045,13.124-28.591a18.829,18.829,0,0,0,1.5-4.669c.509-3.125-2-5.233-5.021-4.1a22.936,22.936,0,0,0-5.92,3.269c-5.367,4.162-10.784,8.294-15.822,12.835A448.522,448.522,0,0,0,97.28,76.005a14.7,14.7,0,0,1-8.379,5.6C72.232,86.134,55.588,90.78,39.072,95.821,28.061,99.183,17.258,103.234,6.4,107.092a18.563,18.563,0,0,0-5.338,2.962,3.274,3.274,0,0,0,1.22,5.514,5.435,5.435,0,0,0,3.488-.379c3.584-1.554,7-3.506,10.619-4.963,22.56-9.09,45.808-16.086,69.221-22.564.839-.233,1.579-.357,2.175.853-2.372,3.646-4.922,7.369-7.27,11.215-2.68,4.386-5.281,8.824-7.7,13.357a14.008,14.008,0,0,0-1.408,5.273,3.1,3.1,0,0,0,1.593,2.368,3.292,3.292,0,0,0,2.83-.34,7.249,7.249,0,0,0,2.1-2.906c4.722-10.817,11.407-20.455,17.918-30.211a9.162,9.162,0,0,1,5.9-4.013c12.6-3.03,25.173-6.132,37.763-9.183.9-.218,3.78-.67,3.78-.67s-1.4,3.271-1.88,4.353c-3.918,8.836-7.888,17.648-11.8,26.486A37.7,37.7,0,0,0,127.481,110a2.481,2.481,0,0,0,1.624,2.972,2.6,2.6,0,0,0,3.333-.711c1.911-2.766,3.032-6.256,4.2-8.917,3.405-7.744,6.46-15.884,9.568-24.18,3.215-8.585,1.841-7.1,7.42-8.3,8.041-1.721,16.135-3.187,24.215-4.71A858.222,858.222,0,0,1,284.257,53.023a28.083,28.083,0,0,1,4.817-.161c-.579,1.381-1.367,2.915-1.769,3.832-2.552,5.841-5.27,11.617-7.62,17.539-2.579,6.495-4.856,13.111-7.179,19.705a7.775,7.775,0,0,0-.587,4.407,1.059,1.059,0,0,0,1.731.544c2.766-2.5,3.426-6.27,6.159-8.2,3.739,2.23,4.1,2.352,7.319,1.039a29.9,29.9,0,0,0,14.577-12.821,13.013,13.013,0,0,0,1.482-4.66c.388-2.6-1.251-4.341-3.842-4.53a9.63,9.63,0,0,0-5.788,1.8c-4.1,2.492-7.379,5.9-10.529,9.457-1.163,1.313-2.36,2.593-3.541,3.889,3.082-10.221,7.7-19.6,12.363-28.966,1.87-3.76.983-3.582,5.806-3.617,6.165-.043,12.326-.425,18.491-.55,1.589-.033,3.539-.054,5.765.089-1.084,2.255-2.306,4.537-3.193,6.313-3.121,6.256-6.427,12.425-9.321,18.782a94.024,94.024,0,0,0-3.735,11.079c-.363,1.171-.476,2.467.713,3.378a2.833,2.833,0,0,0,3.461-.043c3.376-2.29,6.662-4.714,9.133-8.36.455-.95-1.2-1.616-1.845-1.791a3.01,3.01,0,0,0-2.263.552,18.6,18.6,0,0,0-2,2.325c-.794.843-1.67,1.608-2.931,2.807,1.5-7.447,11.252-27.235,16.881-34.669,46.814-.849,104.059,5.06,121.194,7.3a.927.927,0,0,1,.625,1.48c-1.049,1.356-2.428,2.832-3.23,3.914-4.671,6.3-9.011,12.8-12.1,20.025-1.937,4.539-3.813,9.141-3.72,14.228.134,7.206,3.471,11.491,10.454,13.4.991.27,2.02.406,3.028.62a48.1,48.1,0,0,0,21.1-.561,253.791,253.791,0,0,0,27.286-7.872c6.151-2.177,3.123-6.755.651-5.843-2.517.8-4.8,2-6.924,2.809-8.113,2.921-14.684,5.639-23.044,7.435a53.726,53.726,0,0,1-15.245,1.616,22.4,22.4,0,0,1-8.929-2.154c-3.566-1.587-5.539-4.454-5.256-8.263a43.33,43.33,0,0,1,2.014-10.848c3.244-9.413,12.47-23.32,18.611-28.811,2.7.276,23.877,3.145,32.05,4.681,7.971,1.583,26.09,4.745,31.5,6.165-3.222,5.322-6.289,10.2-8.742,15.327-2.465,5.161-5.091,10.248-7.47,15.01a25,25,0,0,0-2.226,6.233c-.7,5.264,2.319,6.252,3.786,5.928A10.694,10.694,0,0,0,509,109.077a2.124,2.124,0,0,0-1.952-3,30.906,30.906,0,0,0-4.355,1.4c4.193-12.8,10.786-23.807,18.211-34.642a345.96,345.96,0,0,1,41.609,11.1c-2.177,4.813-4.384,9.2-6.163,13.748-2.317,5.928-4.343,11.971-6.371,18.007a7.541,7.541,0,0,0-.105,3.6c.068.375,1.375.895,1.919.723a3.79,3.79,0,0,0,1.676-1.667c1.191-1.921,2.193-3.964,3.424-5.858,4.007-6.177,9.127-11.157,16.009-14.022a15,15,0,0,1,5.365-1.008,2.452,2.452,0,0,1,2.146,3.918,22.788,22.788,0,0,1-3.9,4.7c-4.145,3.788-9.059,6.4-14.1,8.789a22.317,22.317,0,0,0-3.671,2.152,1.724,1.724,0,0,0-.239,1.635,1.842,1.842,0,0,0,1.451.824,5.306,5.306,0,0,0,2.315-.7c4.118-2.341,8.313-4.572,12.254-7.185a74.113,74.113,0,0,0,8.117-6.612,8.323,8.323,0,0,0,2.719-5.4c.336-2.952-.948-4.745-3.821-5.326a14.622,14.622,0,0,0-8.387,1.142,46.671,46.671,0,0,0-13.01,7.981c-.958.816-1.977,1.68-3.183,2.7,1.7-6.334,6.309-15.908,9.08-21.212,2.366.67,5.277,1.564,7.76,2.457,6.575,2.366,13.089,4.9,19.654,7.29a7.756,7.756,0,0,0,3.595.581,3.272,3.272,0,0,0,2.2-1.8,3.826,3.826,0,0,0-.567-2.776,3.76,3.76,0,0,0-1.985-1.313c-2.725-.93-5.479-1.777-8.239-2.6-6.5-1.938-13.495-4.052-20.35-6.076,0,0,.732-1.2.928-1.536a236.215,236.215,0,0,1,30.516-41.791,36.091,36.091,0,0,0,3.242-3.7,1.918,1.918,0,0,0-.732-2.684c-.563-.39-1.74-.658-2.168-.34a24.076,24.076,0,0,0-4.025,3.718A278.815,278.815,0,0,0,567.63,74.045c-1.018,1.748-2,3.607-3.18,5.551-13.74-3.584-27.36-7.07-41.319-10.322a30.625,30.625,0,0,1,2.049-3.1ZM145.106,68.061c-6.983,2.214-37.5,8.82-40.95,8.944C112.5,60.6,157.215,14.74,171.6,7.926c.047.612.3,1.247.1,1.688-8.614,19.53-18.116,39.3-26.6,58.447m148.48,7.086a14.807,14.807,0,0,1,3.9-1.632c1-.3,2.024.859,1.826,1.865a5.9,5.9,0,0,1-.105.6c-1.845,5.92-9.325,12.048-15.436,12.6a12.884,12.884,0,0,1-2.628-.54c3.889-5.322,7.581-9.677,12.445-12.889" transform="translate(0 -0.001)" fill="#f7f3e9"/>
      <path id="パス_992" data-name="パス 992" d="M282.477,55.514a11.949,11.949,0,0,0-3.09.1c1.181-1.523,1.645-2.2,2.187-2.805,1.779-1.989,3.681-3.875,5.324-5.967a3.2,3.2,0,0,0,.435-2.746c-.532-1.167-1.734-.664-2.624-.14-1.239.728-2.449,1.509-3.634,2.319-5.256,3.591-10.436,7.3-15.772,10.766-3.261,2.119-6.734,3.918-10.172,5.751-.557.3-1.422.016-2.725-.006.645-1.812,1.043-3.139,1.587-4.4.645-1.5,1.488-2.921,2.115-4.432a2.352,2.352,0,0,0-1.216-3.084,2.394,2.394,0,0,0-3.123,1.173c-1.082,3.081-2.034,6.21-2.906,9.358a5.293,5.293,0,0,0,.212,2.416,3.115,3.115,0,0,0,3.56,2.684,15.959,15.959,0,0,0,5.192-1.682c4.461-2.533,8.774-5.316,13.167-7.971.9-.542,1.882-.95,3.189-1.6a42.213,42.213,0,0,0-1.3,4.65,2.446,2.446,0,0,0,2.138,2.589,13.434,13.434,0,0,0,8.929-3.422,2.474,2.474,0,0,0,.322-2.232,2.943,2.943,0,0,0-1.789-1.317" transform="translate(264.009 46.041)" fill="#f7f3e9"/>
    </g>
  </g>
</svg>
