<svg id="グループ_1327" data-name="グループ 1327" xmlns="http://www.w3.org/2000/svg" xmlns:xlink="http://www.w3.org/1999/xlink" width="289.368" height="271.792" viewBox="0 0 289.368 271.792">
  <defs>
    <clipPath id="clip-path">
      <rect id="長方形_1391" data-name="長方形 1391" width="289.368" height="271.792" fill="#f7f3e9"/>
    </clipPath>
  </defs>
  <g id="グループ_1326" data-name="グループ 1326" transform="translate(0 0)" clip-path="url(#clip-path)">
    <path id="パス_994" data-name="パス 994" d="M36.034,28.774c-.56.523-1.12,1.04-1.691,1.553.571-.512,1.131-1.03,1.691-1.553" transform="translate(148.899 124.754)" fill="#f7f3e9"/>
    <path id="パス_995" data-name="パス 995" d="M39.459,24.771c-.5.667-.992,1.329-1.5,1.99q.752-.992,1.5-1.99" transform="translate(164.581 107.398)" fill="#f7f3e9"/>
    <path id="パス_996" data-name="パス 996" d="M37.762,26.877q-.76.848-1.526,1.681.768-.832,1.526-1.681" transform="translate(157.106 116.529)" fill="#f7f3e9"/>
    <path id="パス_997" data-name="パス 997" d="M29.068,33.3c-.352.181-.7.357-1.051.534.352-.176.7-.352,1.051-.534" transform="translate(121.472 144.364)" fill="#f7f3e9"/>
    <path id="パス_998" data-name="パス 998" d="M34.35,30.458c-.683.528-1.366,1.051-2.06,1.569q1.032-.776,2.06-1.569" transform="translate(139.998 132.055)" fill="#f7f3e9"/>
    <path id="パス_999" data-name="パス 999" d="M26.744,34.36c-.352.144-.7.283-1.056.422.352-.139.7-.277,1.056-.422" transform="translate(111.374 148.973)" fill="#f7f3e9"/>
    <path id="パス_1000" data-name="パス 1000" d="M107.47,267.689a147.337,147.337,0,0,0,106.921-14.908,146.515,146.515,0,0,0,49.323-45.033c44.926-65.431,29.3-156.665-34.826-203.373L222.864,0l1.681,7.246c9.321,40.578,1.419,83.151-21.679,116.8C158.538,188.583,74.1,207.54,6.451,168.142L0,164.38l2.417,7.059c16.6,48.442,55.875,84.42,105.053,96.25m-96.9-90.93A153.083,153.083,0,0,0,118.19,189.677,151.209,151.209,0,0,0,167.619,167.3,155.577,155.577,0,0,0,207.45,127.2a149.989,149.989,0,0,0,23.119-54.141,154.628,154.628,0,0,0,.966-59.322l-.064-.352.277.224c1.526,1.249,2.908,2.63,4.375,3.932.438.39.875.779,1.307,1.174q4.41,4.018,8.441,8.382c.288.309.576.619.864.934q4.194,4.626,7.955,9.588c.1.139.208.272.309.411a142.044,142.044,0,0,1,22.975,46.207c.059.187.112.373.165.555q1.617,5.706,2.769,11.568c.107.55.213,1.094.315,1.643.347,1.873.8,3.708,1.078,5.6A141.8,141.8,0,0,1,49.259,231.663a144.1,144.1,0,0,1-38.87-54.738l-.139-.331Z" transform="translate(0 0)" fill="#f7f3e9"/>
    <path id="パス_1001" data-name="パス 1001" d="M24.765,35.192c-.507.155-1.019.3-1.526.454.507-.149,1.019-.3,1.526-.454" transform="translate(100.756 152.58)" fill="#f7f3e9"/>
    <path id="パス_1002" data-name="パス 1002" d="M31.614,32c-.464.293-.928.587-1.393.875.464-.288.928-.582,1.393-.875" transform="translate(131.027 138.74)" fill="#f7f3e9"/>
  </g>
</svg>
