<svg xmlns="http://www.w3.org/2000/svg" xmlns:xlink="http://www.w3.org/1999/xlink" width="457.297" height="104.662" viewBox="0 0 457.297 104.662">
  <defs>
    <clipPath id="clip-path">
      <rect id="長方形_1389" data-name="長方形 1389" width="457.297" height="104.662" fill="#f7f3e9"/>
    </clipPath>
  </defs>
  <g id="グループ_2736" data-name="グループ 2736" transform="translate(0 0)">
    <g id="グループ_1322" data-name="グループ 1322" transform="translate(0 0)" clip-path="url(#clip-path)">
      <path id="パス_984" data-name="パス 984" d="M215.52,41.983c-4.054.633-7.094,4.7-12.186,4.548,1.35-3.4,1.569-3.76,3.113-5.281,1.352-1.328,2.688-2.544,4.893-1.955.472.127,1.449-.578,1.758-1.139a1.9,1.9,0,0,0-.758-2.446,2.933,2.933,0,0,0-1.705-.588,4.827,4.827,0,0,0-2.21.6,18.159,18.159,0,0,0-7.185,7.785,7.731,7.731,0,0,0-.619,2.243c-.33,2.194.986,3.785,3.207,3.476a27.192,27.192,0,0,0,5.3-1.647c1.08-.391,2.1-.952,4.046-1.85-.76,1.378-.98,1.913-1.314,2.363-1.58,2.124-3.265,4.175-4.765,6.353a7.217,7.217,0,0,1-4.992,3.023c-15.948,3.01-31.491,7.56-46.887,12.606-4.732,1.552-9.362,3.432-13.98,5.3a21.933,21.933,0,0,0-4.865,2.751c-2.644,1.983-2.308,4.439.869,5.594a20.017,20.017,0,0,0,6.4,1.155,85.473,85.473,0,0,0,41.373-9.9A72.07,72.07,0,0,0,202.44,62.471,7.422,7.422,0,0,1,208.2,60a13.088,13.088,0,0,0,2.79-.239,1.627,1.627,0,0,0,.733-2.64,16.991,16.991,0,0,0-2.438-1.619c1.289-1.761,2.644-3.454,3.818-5.265s2.237-3.732,3.232-5.662a1.8,1.8,0,0,0-.814-2.59M195.914,65.565c-12.847,9.467-27.121,15.259-43.132,16.39-3.256.23-6.542.073-9.814.016-1.588-.028-1.61-.122-4-1.491a10.294,10.294,0,0,1,1.791-1.4c2.4-1.117,4.8-2.269,7.286-3.182A369.884,369.884,0,0,1,195.582,61.93c1.336-.3,2.688-.525,4.034-.785.17.27.339.541.51.81-1.4,1.208-2.727,2.516-4.212,3.61" transform="translate(75.77 19.769)" fill="#f7f3e9"/>
      <path id="パス_985" data-name="パス 985" d="M96.369,54.278a3.261,3.261,0,0,0,0-3.931c-.655-1.017-1.461-1.938-2.183-2.88,1.074-1.93,2.784-2.71,4.468-3.5a19.864,19.864,0,0,0,2.571-1.057,1.8,1.8,0,0,0,.7-1.546,4.423,4.423,0,0,0-1.443-1.6c-.173-.144-.6-.039-.9.03a13.9,13.9,0,0,0-7.988,5.32c-1.241,1.625-1.16,2.98.1,4.7.631.858,1.388,1.622,2.1,2.443-.622,2.429-2.433,3.734-4.131,5.025C81.045,63.84,71.719,69.063,61.215,72a18.034,18.034,0,0,0-2.654.847,1.375,1.375,0,0,0-.736,1.941,1.842,1.842,0,0,0,1.421.894,19.55,19.55,0,0,0,4.028-1.055A122.943,122.943,0,0,0,90.357,60.061a37.7,37.7,0,0,0,3.97-3.256,17.157,17.157,0,0,0,2.043-2.527" transform="translate(32.455 22.343)" fill="#f7f3e9"/>
      <path id="パス_986" data-name="パス 986" d="M140.745,42.323c-.91.589-1.707,1.349-2.565,2.019-1.2.935-2.24,2.13-3.748,2.441l-3.091-2.694c-2.491.009-4.06,1.308-5.678,2.544-.81.619-1.708,1.117-2.788,1.815a16.436,16.436,0,0,0-.233-2.257c-.513-1.919-1.541-2.577-3.432-2.151a27.527,27.527,0,0,0-2.916,1.049c.466-1.285.811-2.129,1.078-3a11.985,11.985,0,0,0,.786-3.146,2.244,2.244,0,0,0-1.1-1.791c-.544-.18-1.411.341-2.016.738-.327.216-.428.8-.586,1.243q-2.534,7.035-5.047,14.077a3.409,3.409,0,0,0-.272,1.361c.034.414.25,1.086.514,1.155a2.127,2.127,0,0,0,1.669-.172,18.481,18.481,0,0,0,1.769-2.16c1.639-1.879,3.284-3.753,4.981-5.578.506-.545,1.133-1.11,2.022-.675a2.209,2.209,0,0,1,.219.389c.441,1.372-.622,3.4,1.464,4.026,1.541.463,2.54-.888,3.635-1.716,1.593-1.2,2.957-2.757,5.215-3.418.5.591.977,1.167,1.472,1.721a3.112,3.112,0,0,0,3.839.863,60.5,60.5,0,0,0,6.71-4.189,1.488,1.488,0,0,0,.139-2.115,1.384,1.384,0,0,0-2.041-.381" transform="translate(61.431 20.894)" fill="#f7f3e9"/>
      <path id="パス_987" data-name="パス 987" d="M172.911,37.381a1.622,1.622,0,0,0,1.371-2.047,1.848,1.848,0,0,0-2.1-1.435,9.7,9.7,0,0,0-2.644.874,36.213,36.213,0,0,0-11.9,10.382,10.135,10.135,0,0,0-1.311,2.463c-.783,2.149.639,3.995,2.821,3.407a51.516,51.516,0,0,0,7.405-2.793c1.835-.814,3.542-1.918,5.433-2.963.56,1.033.93,1.846,1.416,2.582a3.3,3.3,0,0,0,2.763,1.529,14.17,14.17,0,0,0,6.763-1.5,1.813,1.813,0,0,0,.691-1.507,1.379,1.379,0,0,0-1.7-1.183,11.288,11.288,0,0,0-1.758.622c-1.446.485-2.9.953-4.361,1.435-1.671-1.719-.875-4.137-3.4-4.695-1.43.772-3.059,1.682-4.715,2.537-2.216,1.142-4.443,2.268-6.692,3.346a1.428,1.428,0,0,1-2.124-.619,7.278,7.278,0,0,1,.978-1.893c3.673-3.874,7.524-7.494,13.066-8.544" transform="translate(87.876 19.061)" fill="#f7f3e9"/>
      <path id="パス_988" data-name="パス 988" d="M212.822,39.251c-1.355.76-2.679,1.58-3.981,2.429a33.6,33.6,0,0,1-10.115,4.714,9.84,9.84,0,0,1-5.514-.1,2.489,2.489,0,0,1-1.927-3.2,12.834,12.834,0,0,1,1.167-2.443c1.093.733,1.918,1.743,2.78,1.775,2.274.086,5.575-2.873,6.1-5.079a2.04,2.04,0,0,0-1.511-2.5,6.338,6.338,0,0,0-1.85-.15c-3.651.4-8.1,4.423-8.943,8.03a4.35,4.35,0,0,0,2.671,5.311,8.768,8.768,0,0,0,3.587.65c6.924-.28,12.825-3.5,18.713-6.713.131-.072.3-.18.338-.3a5.178,5.178,0,0,0,.422-1.71c-.038-.636-1.258-1.085-1.932-.706m-15.607-1.888c.47,1.094-.355,1.133-.725,1.324-.263.136-.708-.078-1.471-.2l2.2-1.122" transform="translate(106.319 19.517)" fill="#f7f3e9"/>
      <path id="パス_989" data-name="パス 989" d="M103.015,39.344a18.921,18.921,0,0,0-6.93,6.116,3.386,3.386,0,0,0,.319,4.32c.8.93,1.679,1.794,2.468,2.632-1.08,2.477-1.007,2.59-2.376,3.471-2.751,1.772-5.541,3.5-8.412,5.069-1.91,1.042-4,1.747-5.986,2.659-1.494.686-2,1.435-1.755,2.368.3,1.15,1.522,1.5,3.12.577q7.291-4.215,14.462-8.643a11.055,11.055,0,0,0,2.694-2.562,3.772,3.772,0,0,0,.083-5.129c-.689-.969-1.458-1.882-2.194-2.823a10.474,10.474,0,0,1,3.623-3.309,15.466,15.466,0,0,0,2.687-1.852,3.01,3.01,0,0,0,.588-2.088c-.042-.713-1.622-1.252-2.39-.8" transform="translate(45.193 22.055)" fill="#f7f3e9"/>
      <path id="パス_990" data-name="パス 990" d="M112.311,48.669a20.783,20.783,0,0,0-3.168,1.932,15.2,15.2,0,0,1-6.349,2.8c-2.951.422-4.157-1.11-3.06-3.821a17.175,17.175,0,0,1,1.061-1.926c1.8-.083,3.135.172,4.189-.256a12.4,12.4,0,0,0,5.378-4.359,5.5,5.5,0,0,0,.8-2.146,2.025,2.025,0,0,0-2.207-2.343,4.87,4.87,0,0,0-1.346.344,18.833,18.833,0,0,0-9.832,10.15c-1.616,3.856.281,6.325,4.568,6.322a11.348,11.348,0,0,0,2.313-.213,28.708,28.708,0,0,0,8.577-3.581c.259-.153.6-.4.647-.641.1-.553.234-1.286-.037-1.665a1.735,1.735,0,0,0-1.539-.6" transform="translate(54.721 21.693)" fill="#f7f3e9"/>
      <path id="パス_991" data-name="パス 991" d="M410.556,33.7c.563-.746,1.227-1.413,1.807-2.146a1.6,1.6,0,0,0-.12-2.137,1.875,1.875,0,0,0-2.521-.356,18.211,18.211,0,0,0-2.483,2.769c-3.923,5.631-7.769,11.315-11.694,16.944-.775,1.113-2.065,3.166-2.065,3.166-1.752-.33-16.579-3.518-20.729-4.217-7.958-1.341-22.267-3.431-26.277-4.11a.466.466,0,0,1-.281-.763c.655-.756,1.526-1.727,2.08-2.315a138.907,138.907,0,0,1,24.144-20.679,94.753,94.753,0,0,1,11.8-6.68,45.233,45.233,0,0,1,9.327-2.948,13.923,13.923,0,0,1,5.07.213,2.366,2.366,0,0,1,1.822,3.259,20.874,20.874,0,0,1-2.765,4.772A26.053,26.053,0,0,1,389.7,24.9a59.993,59.993,0,0,1-13.013,5.194,11.459,11.459,0,0,0-2.554,1.027,1.359,1.359,0,0,0-.561,1.164c.155.545.552,1.272,1.011,1.422a4.122,4.122,0,0,0,2.243-.053,50.278,50.278,0,0,0,17.317-8.026,41.113,41.113,0,0,0,6.364-6.161,14.115,14.115,0,0,0,2.505-4.687,5.353,5.353,0,0,0-3.726-7.01,15.726,15.726,0,0,0-8.038.116,49.64,49.64,0,0,0-13.385,5.478c-12.066,6.867-22.389,15.87-31.815,25.968-1.167,1.25-2.346,2.49-3.462,3.671-3.32-.541-23.616-3.065-45-4.545-21.946-1.519-44.613-2.246-48.133-1.8a61.537,61.537,0,0,1,6.067-9.871,12.588,12.588,0,0,0,1.529-2.322,1.8,1.8,0,0,0-.48-1.6,1.862,1.862,0,0,0-1.677-.334,5.869,5.869,0,0,0-1.949,1.9c-1.489,2.379-2.849,4.837-4.276,7.255-1.016,1.724-2.06,3.434-3.059,5.094-3.748-.175-21.687.43-21.637.652a136.077,136.077,0,0,1,10.67-17.148c.563-.749,1.2-1.45,1.693-2.238a1.408,1.408,0,0,0-.417-2.044,2.358,2.358,0,0,0-2.093-.08,15.609,15.609,0,0,0-3.012,3.527c-3.045,5.081-5.961,10.237-8.934,15.36-.535.922-1.113,1.819-1.61,2.63-1.785.152-3.334.334-4.886.409a558.142,558.142,0,0,0-57.66,5.737c-13.246,2.029-26.435,4.429-39.648,6.677-1.036.177-3.4.478-3.4.478,3.126-7.032,6.452-15.084,9.659-22.17,3.279-7.244,6.66-14.441,9.951-21.679a14.278,14.278,0,0,0,1.141-3.54A2.707,2.707,0,0,0,131.617.235a17.391,17.391,0,0,0-4.489,2.479c-4.07,3.156-8.177,6.289-12,9.732A340.094,340.094,0,0,0,73.763,57.631a11.143,11.143,0,0,1-6.353,4.246c-12.639,3.434-25.26,6.957-37.783,10.779-8.349,2.549-16.54,5.62-24.771,8.546A14.076,14.076,0,0,0,.808,83.449a2.483,2.483,0,0,0,.925,4.181,4.121,4.121,0,0,0,2.644-.288c2.718-1.178,5.309-2.659,8.052-3.764,17.106-6.892,34.734-12.2,52.487-17.109.636-.177,1.2-.27,1.649.647-1.8,2.765-3.732,5.587-5.512,8.5-2.032,3.326-4,6.691-5.836,10.128a10.622,10.622,0,0,0-1.067,4,2.353,2.353,0,0,0,1.208,1.8,2.5,2.5,0,0,0,2.146-.258,5.5,5.5,0,0,0,1.594-2.2c3.581-8.2,8.649-15.51,13.586-22.908a6.947,6.947,0,0,1,4.471-3.043c9.551-2.3,19.088-4.65,28.634-6.963.683-.166,2.866-.508,2.866-.508s-1.061,2.48-1.425,3.3c-2.971,6.7-5.981,13.382-8.945,20.083a28.585,28.585,0,0,0-1.624,4.364,1.881,1.881,0,0,0,1.232,2.254,1.967,1.967,0,0,0,2.527-.539,39.246,39.246,0,0,0,3.185-6.761c2.582-5.872,4.9-12.044,7.255-18.334,2.438-6.51,1.4-5.384,5.626-6.291,6.1-1.305,12.234-2.416,18.361-3.571a650.751,650.751,0,0,1,80.69-9.959,21.294,21.294,0,0,1,3.653-.122c-.439,1.047-1.036,2.21-1.341,2.905-1.935,4.429-4,8.809-5.778,13.3-1.955,4.925-3.682,9.942-5.444,14.941a5.9,5.9,0,0,0-.445,3.341.8.8,0,0,0,1.313.413c2.1-1.9,2.6-4.754,4.67-6.214,2.835,1.691,3.112,1.783,5.55.788a22.674,22.674,0,0,0,11.053-9.721,9.867,9.867,0,0,0,1.124-3.534,2.874,2.874,0,0,0-2.913-3.435,7.3,7.3,0,0,0-4.389,1.361,35.667,35.667,0,0,0-7.983,7.171c-.881,1-1.79,1.966-2.685,2.949,2.337-7.75,5.841-14.862,9.374-21.964,1.418-2.851.745-2.716,4.4-2.743,4.675-.033,9.346-.322,14.021-.417,1.2-.025,2.684-.041,4.371.067-.822,1.71-1.749,3.44-2.421,4.787C239.3,48.821,236.8,53.5,234.6,58.319a71.292,71.292,0,0,0-2.832,8.4,2.065,2.065,0,0,0,3.165,2.529,24.271,24.271,0,0,0,6.925-6.339c.345-.721-.907-1.225-1.4-1.358a2.282,2.282,0,0,0-1.716.419,14.1,14.1,0,0,0-1.516,1.763c-.6.639-1.266,1.219-2.222,2.129,1.139-5.647,8.532-20.651,12.8-26.288,35.5-.644,78.9,3.837,91.9,5.537a.7.7,0,0,1,.474,1.122c-.8,1.028-1.841,2.147-2.449,2.968a75.589,75.589,0,0,0-9.174,15.184c-1.469,3.442-2.891,6.931-2.821,10.789.1,5.464,2.632,8.713,7.927,10.162.752.2,1.532.308,2.3.47a36.474,36.474,0,0,0,16-.425,192.435,192.435,0,0,0,20.69-5.969c4.664-1.65,2.368-5.122.494-4.431-1.908.61-3.64,1.514-5.25,2.13-6.152,2.215-11.134,4.276-17.473,5.637a40.738,40.738,0,0,1-11.559,1.225,16.982,16.982,0,0,1-6.771-1.633,6.09,6.09,0,0,1-3.985-6.266,32.854,32.854,0,0,1,1.527-8.226c2.46-7.138,9.456-17.683,14.112-21.846,2.046.209,18.1,2.385,24.3,3.549,6.044,1.2,19.783,3.6,23.883,4.675-2.443,4.035-4.769,7.732-6.628,11.622-1.869,3.914-3.86,7.771-5.664,11.381a18.957,18.957,0,0,0-1.688,4.726c-.531,3.992,1.758,4.74,2.871,4.495a8.109,8.109,0,0,0,5.13-3.743,1.61,1.61,0,0,0-1.48-2.277,23.433,23.433,0,0,0-3.3,1.061c3.179-9.7,8.179-18.052,13.808-26.268a262.326,262.326,0,0,1,31.551,8.416c-1.651,3.649-3.324,6.974-4.673,10.425-1.757,4.495-3.293,9.077-4.831,13.654a5.718,5.718,0,0,0-.08,2.732c.052.284,1.043.678,1.455.549a2.874,2.874,0,0,0,1.271-1.264c.9-1.457,1.663-3.005,2.6-4.442A26.723,26.723,0,0,1,434.4,74.661a11.374,11.374,0,0,1,4.068-.764,1.86,1.86,0,0,1,1.627,2.971,17.28,17.28,0,0,1-2.954,3.563A42.156,42.156,0,0,1,426.449,87.1a16.922,16.922,0,0,0-2.783,1.632,1.307,1.307,0,0,0-.181,1.239,1.4,1.4,0,0,0,1.1.625,4.024,4.024,0,0,0,1.755-.535c3.123-1.775,6.3-3.466,9.291-5.448a56.2,56.2,0,0,0,6.155-5.014,6.311,6.311,0,0,0,2.061-4.1,3.29,3.29,0,0,0-2.9-4.039,11.088,11.088,0,0,0-6.359.866,35.388,35.388,0,0,0-9.865,6.052c-.727.619-1.5,1.274-2.413,2.051,1.291-4.8,4.784-12.063,6.885-16.084,1.794.508,4,1.186,5.884,1.863,4.986,1.794,9.924,3.715,14.9,5.528a5.881,5.881,0,0,0,2.726.441,2.481,2.481,0,0,0,1.666-1.366,2.9,2.9,0,0,0-.43-2.105,2.851,2.851,0,0,0-1.505-1c-2.066-.7-4.154-1.347-6.247-1.972-4.926-1.469-10.232-3.073-15.431-4.607,0,0,.555-.913.7-1.164a179.112,179.112,0,0,1,23.139-31.688,27.361,27.361,0,0,0,2.458-2.8,1.455,1.455,0,0,0-.555-2.035c-.427-.3-1.319-.5-1.644-.258A18.253,18.253,0,0,0,451.812,26a211.412,211.412,0,0,0-21.4,30.144c-.772,1.325-1.519,2.735-2.412,4.209-10.418-2.718-20.746-5.361-31.33-7.827a23.22,23.22,0,0,1,1.554-2.354ZM110.027,51.608c-5.3,1.679-28.434,6.688-31.05,6.781,6.33-12.442,40.232-47.212,51.143-52.379.036.464.225.946.078,1.28-6.531,14.809-13.736,29.8-20.171,44.318m112.586,5.373a11.227,11.227,0,0,1,2.955-1.238c.755-.228,1.535.652,1.385,1.414a4.468,4.468,0,0,1-.08.455c-1.4,4.489-7.071,9.135-11.7,9.551a9.769,9.769,0,0,1-1.993-.409c2.949-4.035,5.748-7.338,9.437-9.773" transform="translate(0 -0.001)" fill="#f7f3e9"/>
      <path id="パス_992" data-name="パス 992" d="M274.332,52.582a9.06,9.06,0,0,0-2.343.077c.9-1.155,1.247-1.668,1.658-2.127,1.349-1.508,2.791-2.938,4.037-4.525a2.427,2.427,0,0,0,.33-2.082c-.4-.885-1.314-.5-1.99-.106-.939.552-1.857,1.144-2.755,1.758-3.985,2.723-7.913,5.534-11.959,8.163-2.473,1.607-5.106,2.971-7.713,4.361-.422.225-1.078.012-2.066,0,.489-1.374.791-2.38,1.2-3.338.489-1.139,1.128-2.215,1.6-3.36a1.784,1.784,0,0,0-.922-2.338,1.815,1.815,0,0,0-2.368.889c-.821,2.337-1.543,4.709-2.2,7.1a4.014,4.014,0,0,0,.161,1.832,2.362,2.362,0,0,0,2.7,2.035,12.1,12.1,0,0,0,3.937-1.275c3.382-1.921,6.653-4.031,9.984-6.044.681-.411,1.427-.721,2.418-1.213a32,32,0,0,0-.989,3.526,1.855,1.855,0,0,0,1.621,1.963,10.186,10.186,0,0,0,6.771-2.594,1.876,1.876,0,0,0,.244-1.693,2.231,2.231,0,0,0-1.357-1" transform="translate(140.044 24.422)" fill="#f7f3e9"/>
    </g>
  </g>
</svg>
