<svg id="グループ_1541" data-name="グループ 1541" xmlns="http://www.w3.org/2000/svg" xmlns:xlink="http://www.w3.org/1999/xlink" width="967.5" height="171.578" viewBox="0 0 967.5 171.578">
  <defs>
    <clipPath id="clip-path">
      <rect id="長方形_1522" data-name="長方形 1522" width="967.5" height="171.578" fill="none"/>
    </clipPath>
  </defs>
  <g id="グループ_1540" data-name="グループ 1540" clip-path="url(#clip-path)">
    <path id="パス_1622" data-name="パス 1622" d="M966.75,85.789A85.039,85.039,0,1,1,881.711.75,85.039,85.039,0,0,1,966.75,85.789" fill="#f7f3e9"/>
    <path id="パス_1623" data-name="パス 1623" d="M851.351,48.9c-14.973,0-23.911,13.85-23.911,37.048,0,17.76,6.282,36.738,23.911,36.738,11.559,0,23.911-9.651,23.911-36.738,0-17.91-6.282-37.048-23.911-37.048m0,73.239c-9.457,0-14.055-11.838-14.055-36.191,0-24.632,4.6-36.606,14.055-36.606,9.257,0,13.951,12.316,13.951,36.606,0,24.014-4.694,36.191-13.951,36.191" fill="#fff"/>
    <path id="パス_1624" data-name="パス 1624" d="M908.862,122.682c16.728,0,27.119-8.686,27.119-22.669,0-13.289-9.168-20.911-25.153-20.911a42.475,42.475,0,0,0-12.562,1.793l-2.273.683,1.616-23.345H933.5V50.551H896.631l-2.3,31.847,1.42.734a35.77,35.77,0,0,1,11.454-1.621c11.232,0,17.674,7.309,17.674,20.053,0,12.689-6.97,20.571-18.191,20.571a20.047,20.047,0,0,1-6.624-1.015l-.905-.3-1.943-9.831c-.974-5.949-2.975-6.437-5.115-6.437a4.593,4.593,0,0,0-4.421,2.713c1.417,9.948,8.921,15.419,21.179,15.419" fill="#fff"/>
    <path id="パス_1625" data-name="パス 1625" d="M849.567,88.238a10,10,0,0,1-1.793,1.329v2.1c1.553-.289,2.113-.416,3.521-.785v.865a54.8,54.8,0,0,1-5.714,1.184c-.3.049-.48.08-.848.16l-.24-.992a13.941,13.941,0,0,0,2.3-.256V90.1a16.727,16.727,0,0,1-3.745,1.313,2.379,2.379,0,0,0-.528-.849,13.461,13.461,0,0,0,5.842-2.321H844.38a11.379,11.379,0,0,0-1.728.08v-.992a13.44,13.44,0,0,0,1.745.08h5.073v-.288a5.037,5.037,0,0,0-.048-.737h1.073a5.478,5.478,0,0,0-.064.737v.288h4.786a12.6,12.6,0,0,0,1.729-.08v.992a11.144,11.144,0,0,0-1.713-.08h-4.562a5.038,5.038,0,0,0,1.665,1.809,7.63,7.63,0,0,0,2.113-1.585l.848.56a11.174,11.174,0,0,1-2.241,1.5,15.315,15.315,0,0,0,4.033,1.521,3.2,3.2,0,0,0-.576.929,14.36,14.36,0,0,1-4.866-2.37,6.338,6.338,0,0,1-1.936-2.369Zm-5.25-7.683a7.166,7.166,0,0,1-.736.912,2.733,2.733,0,0,0-.769-.48,5.246,5.246,0,0,0,1.473-2.32l.88.271c-.192.433-.256.577-.4.865H846.4a6.4,6.4,0,0,0-.08-1.233h1.057a6,6,0,0,0-.08,1.233h1.792a7.807,7.807,0,0,0,1.377-.08v.9a10.859,10.859,0,0,0-1.377-.064h-1.792v1.056h2a7.983,7.983,0,0,0,1.424-.079v.9a11.293,11.293,0,0,0-1.392-.064h-2.033v.992h1.537a11.8,11.8,0,0,0,1.344-.048,6.255,6.255,0,0,0-.048.817v1.264c0,.688-.272.9-1.136.9-.193,0-.576-.016-.945-.049a2.54,2.54,0,0,0-.16-.736,6.2,6.2,0,0,0,1.056.128c.289,0,.368-.08.368-.336V84.077h-2.016v1.44a9.129,9.129,0,0,0,.064,1.233h-1.024a9.366,9.366,0,0,0,.063-1.217V84.077h-1.872v1.36a5.447,5.447,0,0,0,.063,1.008h-1.007a7.122,7.122,0,0,0,.063-1.04V84.3a9.39,9.39,0,0,0-.048-.993c.3.032.769.048,1.233.048H846.4v-.992h-2.08a8.493,8.493,0,0,0-1.329.1v-.913a8.947,8.947,0,0,0,1.232.064H846.4V80.555Zm7.2,3.986a6,6,0,0,0,.08-1.1v-2.85a5.93,5.93,0,0,0-.08-1.136h1.121a5.153,5.153,0,0,0-.08,1.136v2.85a6.08,6.08,0,0,0,.08,1.1Zm4.338.688c0,.913-.352,1.185-1.521,1.185-.3,0-1.087-.049-1.616-.081a3.51,3.51,0,0,0-.24-.976,10.563,10.563,0,0,0,1.744.192c.609,0,.656-.032.656-.464v-4.93a8.636,8.636,0,0,0-.1-1.393h1.169a7.179,7.179,0,0,0-.1,1.425Z" fill="#404040"/>
    <path id="パス_1626" data-name="パス 1626" d="M859.324,85a6.568,6.568,0,0,0,1.232.08h.833a7.47,7.47,0,0,0,1.232-.08,12.225,12.225,0,0,0-.08,1.7v3.138a2.418,2.418,0,0,0,1.425,1.456,8.739,8.739,0,0,0,3.6.464,46.513,46.513,0,0,0,6.434-.32,4.06,4.06,0,0,0-.368,1.169c-1.681.08-3.52.111-5.41.111-2.721,0-3.617-.111-4.577-.56a3.706,3.706,0,0,1-1.65-1.5,14.166,14.166,0,0,1-1.92,1.681,7.368,7.368,0,0,0-.576.5l-.528-1.056a10.771,10.771,0,0,0,2.577-1.937V85.981h-1.057a6.064,6.064,0,0,0-1.168.08Zm1.024-6.067a19.9,19.9,0,0,1,2.594,2.849l-.817.72a14.529,14.529,0,0,0-2.529-2.929Zm5.059,2.785a11.008,11.008,0,0,1-1.089,1.6,2.455,2.455,0,0,0-.849-.545,8.866,8.866,0,0,0,1.873-3.073,4.369,4.369,0,0,0,.208-.816l1.025.3a.659.659,0,0,1-.064.145,6.465,6.465,0,0,0-.288.656,8.661,8.661,0,0,1-.368.848h2.112v-.56a9.84,9.84,0,0,0-.1-1.649h1.153a7.967,7.967,0,0,0-.1,1.649v.56h2.3a7.286,7.286,0,0,0,1.52-.1v1.04a12.823,12.823,0,0,0-1.505-.064h-2.32v2.145h2.993a8.144,8.144,0,0,0,1.456-.08v1.04a14.532,14.532,0,0,0-1.456-.079H864.83a13.167,13.167,0,0,0-1.424.079v-1.04a8.255,8.255,0,0,0,1.456.08h3.1V81.723Zm.879,8.548a11.44,11.44,0,0,0-1.6.08,10.12,10.12,0,0,0,.064-1.537V87.469a9.529,9.529,0,0,0-.064-1.44,11.947,11.947,0,0,0,1.7.08h4.193a12.479,12.479,0,0,0,1.713-.08,8.7,8.7,0,0,0-.064,1.553V88.8a8.713,8.713,0,0,0,.064,1.553,12.544,12.544,0,0,0-1.68-.08Zm-.576-.9h5.522V87H865.71Z" fill="#404040"/>
    <path id="パス_1627" data-name="パス 1627" d="M882.479,85.805a1.313,1.313,0,1,1-1.312-1.312,1.318,1.318,0,0,1,1.312,1.312" fill="#404040"/>
    <path id="パス_1628" data-name="パス 1628" d="M890.156,85.5a3.989,3.989,0,0,0,.625.049c.111,0,.191,0,.559-.016.145-.177.145-.177.5-.641.144-.176.288-.368.625-.832a21.722,21.722,0,0,0-2.194-2.593l.609-.721c.288.321.416.449.576.641a11.087,11.087,0,0,0,1.52-2.929l.977.4a5.858,5.858,0,0,0-.368.608,25.725,25.725,0,0,1-1.553,2.609c.513.608.656.784.961,1.185a15.98,15.98,0,0,0,1.728-3.026l.928.529a5.434,5.434,0,0,0-.432.64c-.752,1.216-2.081,3.105-2.849,4.082,1.024-.065,1.665-.113,2.577-.241a10.339,10.339,0,0,0-.672-1.424l.736-.384a19.346,19.346,0,0,1,1.313,3.2l-.8.384c-.143-.5-.191-.672-.288-.976-.448.08-.928.128-1.456.192v5.25a11.139,11.139,0,0,0,.1,1.6h-1.12a11.457,11.457,0,0,0,.095-1.6v-5.17c-.56.048-.848.064-1.216.1a8.74,8.74,0,0,0-1.329.128Zm1.793,1.953a17.178,17.178,0,0,1-.8,4.562l-.881-.432a12.45,12.45,0,0,0,.784-4.306Zm3.281-.256a24.577,24.577,0,0,1,.736,3.73l-.9.272a15.854,15.854,0,0,0-.656-3.762Zm7.587-5.746a12.664,12.664,0,0,0,1.505-.064A15.971,15.971,0,0,0,904.258,83v8.564c0,.961-.337,1.217-1.585,1.217-.512,0-1.056-.017-1.552-.065a3.27,3.27,0,0,0-.224-1.056,11.1,11.1,0,0,0,1.712.16c.513,0,.688-.1.688-.4V88.205a3.027,3.027,0,0,0-.64.849,8.935,8.935,0,0,1-1.441-2.129,8.585,8.585,0,0,1-.832-2.8,8.394,8.394,0,0,1-.816,3.073,7.921,7.921,0,0,1-1.265,1.921,2.709,2.709,0,0,0-.7-.816,5.676,5.676,0,0,0,1.377-1.937,9.286,9.286,0,0,0,.9-4.018h-2.322v8.948a15.377,15.377,0,0,0,.064,1.744h-1.088a13.2,13.2,0,0,0,.08-1.792V82.972a15.822,15.822,0,0,0-.064-1.585,12.992,12.992,0,0,0,1.5.064h1.841V80.283a10.969,10.969,0,0,0-.095-1.537h1.12a10.12,10.12,0,0,0-.1,1.52v1.185Zm-2,.9a9.088,9.088,0,0,0,1.312,4.354A5.9,5.9,0,0,0,903.3,88.19V82.347Z" fill="#404040"/>
    <path id="パス_1629" data-name="パス 1629" d="M907.468,87.582a15.152,15.152,0,0,0-.064-1.553,13.1,13.1,0,0,0,1.472.064H911.9c.512,0,.881-.016,1.3-.048a13.622,13.622,0,0,0-.049,1.5v3.7a12.349,12.349,0,0,0,.064,1.569h-1.04v-.705H908.46V93.12h-1.072a10.928,10.928,0,0,0,.08-1.665Zm.992,3.633h3.714V86.989H908.46Zm1.313-10.8a10.92,10.92,0,0,0-.065-1.345,13.232,13.232,0,0,0,1.793.08h5.235a12.2,12.2,0,0,0,1.808-.08,10.548,10.548,0,0,0-.063,1.329V83.1a11.269,11.269,0,0,0,.063,1.408,15.427,15.427,0,0,0-1.68-.064h-5.458a15.8,15.8,0,0,0-1.7.064,11.915,11.915,0,0,0,.065-1.392Zm1.009,3.121h6.675V80.059h-6.675Zm3.953,3.89a10.006,10.006,0,0,0-.048-1.377c.4.032.752.048,1.3.048h3.521a10.691,10.691,0,0,0,1.376-.064,13.914,13.914,0,0,0-.063,1.569v3.857a10.191,10.191,0,0,0,.08,1.665h-1.089V92.111h-4.1V93.12h-1.04a13.172,13.172,0,0,0,.064-1.569Zm.976,3.793h4.113V86.989h-4.113Z" fill="#404040"/>
    <path id="パス_1630" data-name="パス 1630" d="M767.77,85.789A85.04,85.04,0,1,1,682.731.75,85.039,85.039,0,0,1,767.77,85.789" fill="#f7f3e9"/>
    <path id="パス_1631" data-name="パス 1631" d="M648.835,48.9c-14.973,0-23.912,13.85-23.912,37.048,0,17.761,6.282,36.738,23.912,36.738,11.56,0,23.911-9.651,23.911-36.738,0-17.91-6.282-37.048-23.911-37.048m0,73.239c-9.457,0-14.055-11.838-14.055-36.191,0-24.631,4.6-36.6,14.055-36.6,9.257,0,13.951,12.315,13.951,36.6,0,24.014-4.694,36.191-13.951,36.191" fill="#fff"/>
    <path id="パス_1632" data-name="パス 1632" d="M735.222,95.757h-11.69V50.035h-6.92l-32.52,46.357v5.189H714.5v19.446h9.029V101.581h11.69Zm-20.719,0H684.976L714.5,53.873Z" fill="#fff"/>
    <path id="パス_1633" data-name="パス 1633" d="M616.692,76.393c-.193.031-.257.048-.481.1a28.347,28.347,0,0,1-2.834.48v2.769a11.347,11.347,0,0,1,3.442-.576,5.427,5.427,0,0,1,2.834.672,3.293,3.293,0,0,1-1.617,6.146,2.361,2.361,0,0,1-2.465-1.809,5.8,5.8,0,0,1-.192-1.808,3.458,3.458,0,0,0,1.056-.416,4.754,4.754,0,0,0-.032.624c0,1.665.48,2.353,1.648,2.353a2.125,2.125,0,0,0,2.146-2.257c0-1.569-1.329-2.544-3.425-2.544a10.784,10.784,0,0,0-3.395.624v4c0,.865-.383,1.281-1.168,1.281A4.227,4.227,0,0,1,609.569,85a1.931,1.931,0,0,1-.737-1.5,2.9,2.9,0,0,1,1.264-2.129,8.6,8.6,0,0,1,2.258-1.313V77.033c-.145.016-.145.016-.641.048-.288.016-.56.016-1.024.016-.24,0-.673,0-.849-.016h-.656V76.025a9.182,9.182,0,0,0,1.633.111c.431,0,1.056-.015,1.537-.048V74.5a10.787,10.787,0,0,0-.08-1.52h1.183a9.283,9.283,0,0,0-.08,1.489v1.536a16.041,16.041,0,0,0,3.266-.688Zm-4.338,4.722c-1.585.767-2.482,1.633-2.482,2.4,0,.337.224.656.689.961a2.988,2.988,0,0,0,1.424.464c.32,0,.369-.1.369-.784Zm8.787-3.01a13.077,13.077,0,0,0-3.233-3.137l.833-.624a13.449,13.449,0,0,1,3.232,3.041Z" fill="#404040"/>
    <path id="パス_1634" data-name="パス 1634" d="M624.752,76.664a15.955,15.955,0,0,1,2.736,2.066l-.607.864a11.971,11.971,0,0,0-2.738-2.16Zm2.849,5.188a23.42,23.42,0,0,1-1.473,3.328c-.192.337-.3.545-.608,1.009-.112.192-.128.239-.288.5l-.9-.849a13.519,13.519,0,0,0,2.481-4.642Zm-2.1-9.061a14.508,14.508,0,0,1,2.545,2.177l-.689.785a10.911,10.911,0,0,0-2.528-2.242Zm4.162,1.394a13.826,13.826,0,0,0-1.553.079V73.175a8.236,8.236,0,0,0,1.569.1h7.459a11.065,11.065,0,0,0,1.584-.1v1.089a13.922,13.922,0,0,0-1.569-.079h-2.193V76.2h1.649a11.563,11.563,0,0,0,1.521-.065c-.032.32-.048.7-.048,1.618v7.281a15.639,15.639,0,0,0,.1,1.906h-1.056V86h-7.459v.945h-1.057a14.881,14.881,0,0,0,.1-1.809V77.721a11.67,11.67,0,0,0-.064-1.585,12.722,12.722,0,0,0,1.585.065h1.392V74.185Zm0,2.88v5.474h7.459V80.73c-.417.016-.673.016-.881.016a4.345,4.345,0,0,1-1.76-.176c-.337-.144-.449-.383-.449-.848V77.065h-1.5a7.628,7.628,0,0,1-.4,2.449,4.839,4.839,0,0,1-1.553,2.13,2.413,2.413,0,0,0-.8-.656,3.641,3.641,0,0,0,1.569-2.066,6.747,6.747,0,0,0,.256-1.857Zm0,8.036h7.459V83.4h-7.459Zm2.881-8.9h1.488V74.184h-1.488Zm2.416,3.265c0,.385.145.432,1.186.432.271,0,.271,0,.976-.016V77.065h-2.162Z" fill="#404040"/>
    <path id="パス_1635" data-name="パス 1635" d="M644.4,79.786a1.313,1.313,0,1,1-1.312-1.312,1.317,1.317,0,0,1,1.312,1.312" fill="#404040"/>
    <path id="パス_1636" data-name="パス 1636" d="M649.456,77.466a11.513,11.513,0,0,0,1.872.1h8.212a2.67,2.67,0,0,0,1.04-.113l.593.689a4.582,4.582,0,0,0-.448,1.009c-1.362,3.729-3.57,5.778-7.715,7.17a3.5,3.5,0,0,0-.689-1.1,10.976,10.976,0,0,0,4.754-2.434,9.857,9.857,0,0,0,2.593-4.193h-8.356a14.738,14.738,0,0,0-1.856.08Zm1.376-3.714a7.363,7.363,0,0,0,1.682.112h5.345a7.347,7.347,0,0,0,1.681-.112v1.232a10.8,10.8,0,0,0-1.665-.08H652.5a10.806,10.806,0,0,0-1.665.08Z" fill="#404040"/>
    <path id="パス_1637" data-name="パス 1637" d="M664.127,80.81c.4-.176,1.441-1.344,3.266-3.682.9-1.215,1.312-1.52,2.033-1.52.64,0,.912.192,2.064,1.473a40.384,40.384,0,0,0,6.8,6.194l-.608,1.313c-.144-.129-.273-.24-.3-.272-.08-.08-.5-.416-1.121-.961a63.236,63.236,0,0,1-5.426-5.3c-1.057-1.137-1.12-1.184-1.441-1.184s-.4.08-1.1,1.024c-.7.929-2.145,2.7-2.9,3.554-.114.128-.257.3-.45.56Zm10.244-6.258a12.044,12.044,0,0,1,1.648,2.481l-.815.48a12.254,12.254,0,0,0-1.633-2.545Zm1.793-.865a12.265,12.265,0,0,1,1.665,2.481l-.8.464A12.97,12.97,0,0,0,675.4,74.12Z" fill="#404040"/>
    <path id="パス_1638" data-name="パス 1638" d="M685.2,73.752a7.917,7.917,0,0,0-.095,1.377c-.129,4.338-.256,5.521-.866,7.138a9.776,9.776,0,0,1-2.768,3.954,2.98,2.98,0,0,0-.96-.865,7.922,7.922,0,0,0,2.7-3.681,21.842,21.842,0,0,0,.721-6.867,7.217,7.217,0,0,0-.065-1.136Zm3.969-.176a6.206,6.206,0,0,0-.1,1.408l-.095,9.668a7.406,7.406,0,0,0,2.976-1.856,7.9,7.9,0,0,0,1.889-3.2,4.548,4.548,0,0,0,.9.927,9.093,9.093,0,0,1-3.216,4.115,10.608,10.608,0,0,1-2.29,1.168c-.287.112-.287.112-.511.192a2.682,2.682,0,0,0-.369.176l-.639-.737a2.7,2.7,0,0,0,.111-1.088l.1-9.364a6.435,6.435,0,0,0-.064-1.425Z" fill="#404040"/>
    <path id="パス_1639" data-name="パス 1639" d="M704.692,78.889c-.194,4.147-1.537,6.1-5.155,7.508a2.814,2.814,0,0,0-.752-1.041c3.313-1.1,4.561-2.816,4.69-6.467h-4.338a12.754,12.754,0,0,0-1.842.08V77.785a10.623,10.623,0,0,0,1.858.1h9.363a10.478,10.478,0,0,0,1.857-.1v1.184a12.72,12.72,0,0,0-1.84-.08Zm-5.78-5.073a8.349,8.349,0,0,0,1.842.111h4.834a14.285,14.285,0,0,0,1.84-.08V75q-.31-.025-1.824-.049h-4.867a11.179,11.179,0,0,0-1.825.08Zm9.381-1.345A12.5,12.5,0,0,1,709.862,75l-.817.447a12.266,12.266,0,0,0-1.553-2.593Zm1.969-.608a13.38,13.38,0,0,1,1.568,2.529l-.816.449a12.523,12.523,0,0,0-1.553-2.578Z" fill="#404040"/>
    <path id="パス_1640" data-name="パス 1640" d="M722.18,76.584V75.016a10.977,10.977,0,0,0-.049-1.633h1.248a12.376,12.376,0,0,0-.062,1.521v1.68h1.377a10.95,10.95,0,0,0,1.871-.1v1.216a12.831,12.831,0,0,0-1.856-.08H723.3c-.018,3.089-.193,4.274-.785,5.426a7.449,7.449,0,0,1-4.467,3.458,2.846,2.846,0,0,0-.719-1.009,6.1,6.1,0,0,0,4.354-3.393,13.088,13.088,0,0,0,.48-4.482H717.3V80.3a8.23,8.23,0,0,0,.065,1.3h-1.3a7.584,7.584,0,0,0,.064-1.344V77.625h-1.344a12.839,12.839,0,0,0-1.857.08V76.489a10.97,10.97,0,0,0,1.873.1h1.328V74.728a7.719,7.719,0,0,0-.064-1.345h1.3a8.375,8.375,0,0,0-.065,1.3v1.9Zm2.656-4.21A12.6,12.6,0,0,1,725.973,75l-.848.288a12.415,12.415,0,0,0-1.136-2.673Zm1.842-.527a12.51,12.51,0,0,1,1.137,2.608l-.834.288a12.871,12.871,0,0,0-1.119-2.625Z" fill="#404040"/>
    <path id="パス_1641" data-name="パス 1641" d="M740.885,73.944a3.6,3.6,0,0,0-.7.672,28.349,28.349,0,0,1-3.746,3.218v6.818a10.5,10.5,0,0,0,.08,1.7h-1.393a8.338,8.338,0,0,0,.1-1.664V78.6a24.991,24.991,0,0,1-6.178,2.8,3.658,3.658,0,0,0-.625-1.072,22.511,22.511,0,0,0,8.307-4.147,13.429,13.429,0,0,0,3.058-3.024Z" fill="#404040"/>
    <path id="パス_1642" data-name="パス 1642" d="M744.465,84.477a13.952,13.952,0,0,0,4.658-1.233,12.1,12.1,0,0,0,6.529-7.123,3.235,3.235,0,0,0,.977.945,14.042,14.042,0,0,1-4.881,6.114,16.172,16.172,0,0,1-5.971,2.385,8.275,8.275,0,0,0-.961.257Zm1.023-9.924a20.777,20.777,0,0,1,3.857,3.009l-.832.992a17.673,17.673,0,0,0-3.808-3.137Z" fill="#404040"/>
    <path id="パス_1643" data-name="パス 1643" d="M665.315,105.611c-.929,2.113-1.873,3.073-3.026,3.073-1.521,0-2.657-1.665-2.657-3.9a6.5,6.5,0,0,1,6.851-6.547,6.2,6.2,0,0,1,4.4,1.585,5.361,5.361,0,0,1,1.553,3.9,5.83,5.83,0,0,1-3.666,5.523,12.449,12.449,0,0,1-2.434.736,2.553,2.553,0,0,0-.559-1.072,9.6,9.6,0,0,0,2.672-.753,4.832,4.832,0,0,0,2.834-4.482,4.219,4.219,0,0,0-2.545-4.017,4.622,4.622,0,0,0-1.857-.4,24.046,24.046,0,0,1-1.568,6.355m-1.969-5.586a5.535,5.535,0,0,0-2.609,4.77c0,1.537.672,2.721,1.537,2.721.672,0,1.312-.753,2-2.321a22.037,22.037,0,0,0,1.457-5.923,5.054,5.054,0,0,0-2.385.753" fill="#404040"/>
    <path id="パス_1644" data-name="パス 1644" d="M675.711,100.7a15.054,15.054,0,0,1,2.785,2.081l-.623.9a12.836,12.836,0,0,0-2.769-2.224Zm2.882,5.186a26.412,26.412,0,0,1-2.1,4.354,4.731,4.731,0,0,0-.336.576l-.928-.849a13.668,13.668,0,0,0,2.528-4.706Zm-2.081-9.059a14.109,14.109,0,0,1,2.674,2.224l-.657.833a12.023,12.023,0,0,0-2.673-2.337Zm7.795,7.715a9.571,9.571,0,0,0,5.283,5.378,3.931,3.931,0,0,0-.641,1.041,10.846,10.846,0,0,1-5.314-5.923A9.112,9.112,0,0,1,682.1,108.4a10.01,10.01,0,0,1-3.3,2.673,2.994,2.994,0,0,0-.7-.9,8.055,8.055,0,0,0,3.441-2.656,7.743,7.743,0,0,0,1.2-2.977H680.8a11.909,11.909,0,0,0-1.681.1v-1.12a11.639,11.639,0,0,0,1.664.1H682.9a27.514,27.514,0,0,0,.224-3.409H681.4a10.178,10.178,0,0,0-1.553.08V99.192a10.44,10.44,0,0,0,1.553.08h1.728V98.136a9.127,9.127,0,0,0-.113-1.569h1.217a8.424,8.424,0,0,0-.112,1.569v1.136h2.61a9.9,9.9,0,0,0,1.424-.063,9.361,9.361,0,0,0-.065,1.344v3.057h.16a9,9,0,0,0,1.377-.1v1.12a11.546,11.546,0,0,0-1.617-.1Zm2.785-.929V100.2H684.1a26.659,26.659,0,0,1-.209,3.409Z" fill="#404040"/>
    <path id="パス_1645" data-name="パス 1645" d="M698.242,102.186h-2.834a10.911,10.911,0,0,0-1.584.1v-1.1a10.307,10.307,0,0,0,1.584.1h6.627a10.281,10.281,0,0,0,1.584-.1v1.1a10.425,10.425,0,0,0-1.584-.1h-2.8v2.609h3.09a9.721,9.721,0,0,0,1.535-.1v1.088a8.513,8.513,0,0,0-1.535-.1h-3.09v3.554a14.367,14.367,0,0,0,2.61.176c1.3,0,2.4-.048,3.744-.161a3.009,3.009,0,0,0-.352,1.122c-1.392.031-1.5.031-1.935.031a21.712,21.712,0,0,1-3.506-.128c-2.5-.352-4.066-1.313-4.914-3.009a10.808,10.808,0,0,1-2.434,3.633,2.955,2.955,0,0,0-.832-.752,8.5,8.5,0,0,0,2.16-2.85,10.1,10.1,0,0,0,.977-3.649V103.5l1.121.223c-.049.208-.049.208-.191.832-.08.385-.321,1.313-.434,1.7a4.885,4.885,0,0,0,1.266,1.76,5.367,5.367,0,0,0,1.728.977Zm-.24-4.53a5.437,5.437,0,0,0-.1-1.009h1.248a4.205,4.205,0,0,0-.111.993v.785h4.674c.623,0,1.088-.017,1.6-.065a7.531,7.531,0,0,0-.064,1.089v1.008a7.95,7.95,0,0,0,.064,1.137h-1.041V99.352H693.1v2.242h-1.057a7.534,7.534,0,0,0,.064-1.137V99.449a7.126,7.126,0,0,0-.064-1.089c.512.048.976.065,1.617.065H698Z" fill="#404040"/>
    <path id="パス_1646" data-name="パス 1646" d="M568.789,85.789A85.039,85.039,0,1,1,483.75.75a85.039,85.039,0,0,1,85.039,85.039" fill="#f7f3e9"/>
    <path id="パス_1647" data-name="パス 1647" d="M453.649,48.9c-14.972,0-23.911,13.85-23.911,37.048,0,17.76,6.282,36.738,23.911,36.738,11.559,0,23.911-9.651,23.911-36.738,0-17.91-6.282-37.048-23.911-37.048m0,73.239c-9.457,0-14.055-11.838-14.055-36.191,0-24.632,4.6-36.606,14.055-36.606,9.257,0,13.951,12.316,13.951,36.606,0,24.014-4.694,36.191-13.951,36.191" fill="#fff"/>
    <path id="パス_1648" data-name="パス 1648" d="M496.989,65.373c2.049,0,4.5-.609,5.312-5.359l.025-.119,2.39-9.669c-6.643,2.114-10.772,6.666-11.526,13.047a4.259,4.259,0,0,0,3.8,2.1" fill="#fff"/>
    <path id="パス_1649" data-name="パス 1649" d="M502,121.2l-2.069-9.884c-1.062-6.259-3.04-6.763-5.326-6.763a4.526,4.526,0,0,0-4.212,2.733c1.1,8,5.914,12.025,11.607,13.914" fill="#fff"/>
    <path id="パス_1650" data-name="パス 1650" d="M537.762,103.014c0-9.874-6.179-15.638-18.889-17.622l-8.419-1.314,8.3-1.906c11.1-2.547,16.727-8.2,16.727-16.813,0-10.309-7.971-16.463-21.323-16.463a32.768,32.768,0,0,0-7.941.9,22.945,22.945,0,0,1,4.318-.461c9.393,0,14.781,5.952,14.781,16.329,0,11.327-6.57,18.09-17.574,18.09h-2.187v.855h2.913c11.932,0,18.5,6.644,18.5,18.709,0,12.132-6.57,18.814-18.5,18.814a22.141,22.141,0,0,1-5.469-.67l-.769-.192a33.766,33.766,0,0,0,10.167,1.408c15.406,0,25.361-7.72,25.361-19.668" fill="#fff"/>
    <path id="パス_1651" data-name="パス 1651" d="M454.383,82.34c-.192.031-.256.047-.48.1a28.2,28.2,0,0,1-2.833.481v2.769a11.31,11.31,0,0,1,3.441-.576,5.418,5.418,0,0,1,2.833.672,3.293,3.293,0,0,1-1.616,6.146,2.36,2.36,0,0,1-2.465-1.809,5.837,5.837,0,0,1-.192-1.808,3.468,3.468,0,0,0,1.056-.416,4.75,4.75,0,0,0-.032.624c0,1.664.48,2.353,1.649,2.353a2.125,2.125,0,0,0,2.145-2.257c0-1.569-1.329-2.545-3.426-2.545a10.806,10.806,0,0,0-3.393.624v4c0,.864-.384,1.28-1.169,1.28a4.231,4.231,0,0,1-2.641-1.024,1.931,1.931,0,0,1-.736-1.5,2.9,2.9,0,0,1,1.265-2.129A8.559,8.559,0,0,1,450.045,86V82.98c-.144.016-.144.016-.64.048-.288.016-.56.016-1.024.016-.24,0-.673,0-.848-.016h-.657V81.971a9.074,9.074,0,0,0,1.633.112c.432,0,1.056-.016,1.536-.048V80.45a10.629,10.629,0,0,0-.08-1.52h1.185a9.158,9.158,0,0,0-.08,1.489v1.536a16.181,16.181,0,0,0,3.265-.688Zm-4.338,4.721c-1.584.768-2.481,1.633-2.481,2.4,0,.337.225.656.689.961a2.988,2.988,0,0,0,1.424.464c.321,0,.368-.1.368-.785Zm8.788-3.009a13.1,13.1,0,0,0-3.233-3.137l.832-.624a13.439,13.439,0,0,1,3.234,3.041Z" fill="#404040"/>
    <path id="パス_1652" data-name="パス 1652" d="M465.245,88.342c-.9,0-1.312.016-1.808.048a12.391,12.391,0,0,0,.08-1.68V81.283a21.173,21.173,0,0,0-.08-2.129,13.645,13.645,0,0,0,1.712.081h6.691a17.1,17.1,0,0,0,1.713-.081,20.793,20.793,0,0,0-.08,2.129V86.71a11.95,11.95,0,0,0,.08,1.68c-.448-.032-.929-.048-1.793-.048h-1.393v2.9c0,.5.16.544,1.793.544,1.521,0,1.889-.064,2.113-.4a5.347,5.347,0,0,0,.384-2.1,4.822,4.822,0,0,0,1.009.432c-.369,2.865-.545,3.009-3.586,3.009a5.637,5.637,0,0,1-2.353-.272c-.288-.176-.384-.385-.384-.9V88.342H467.39a4.708,4.708,0,0,1-1.408,2.914,7.839,7.839,0,0,1-4.1,1.888,3.216,3.216,0,0,0-.56-.96,9.516,9.516,0,0,0,2.449-.673A4,4,0,0,0,466,89.446a3.785,3.785,0,0,0,.288-1.1Zm-.736-6.419h7.971V80.178h-7.971Zm0,2.738h7.971V82.82h-7.971Zm0,2.8h7.971v-1.9h-7.971Z" fill="#404040"/>
    <path id="パス_1653" data-name="パス 1653" d="M482.765,83.508a9,9,0,0,0-1.057-.048h-.463a6.987,6.987,0,0,0,1.728,2.913,3.158,3.158,0,0,0-.56.769,7.788,7.788,0,0,1-1.281-2.465c.049.768.08,1.761.08,2.417v4.049a12.434,12.434,0,0,0,.1,1.842h-1.136a12.951,12.951,0,0,0,.1-1.826v-3.6c0-.753.032-1.777.1-2.641a10.917,10.917,0,0,1-2.065,4.4,3.138,3.138,0,0,0-.608-.832,11.556,11.556,0,0,0,2.449-5.027h-.769a7.927,7.927,0,0,0-1.36.08V82.5a8.116,8.116,0,0,0,1.393.08h.864V80.211a16.285,16.285,0,0,1-1.889.416,2.036,2.036,0,0,0-.416-.832,12.389,12.389,0,0,0,3.73-.993,2.378,2.378,0,0,0,.656-.368l.592.833a3.489,3.489,0,0,0-.384.159,14.034,14.034,0,0,1-1.345.513V82.58h.512a7.028,7.028,0,0,0,1.121-.064v.576a9.759,9.759,0,0,0,1.393.064H486.8V82.132h-1.906a7.3,7.3,0,0,0-1.344.08v-.9a7.337,7.337,0,0,0,1.329.079H486.8v-.944h-2.322a7.614,7.614,0,0,0-1.344.08V79.6a7.893,7.893,0,0,0,1.392.08H486.8a6.481,6.481,0,0,0-.1-1.2h1.12a6.156,6.156,0,0,0-.1,1.2H490.4a10.058,10.058,0,0,0,1.441-.1v.944a8.44,8.44,0,0,0-1.409-.08h-2.705v.944H489.9a7.989,7.989,0,0,0,1.441-.079v.9a8,8,0,0,0-1.409-.08h-2.209v1.024h3.041a9.52,9.52,0,0,0,1.489-.1v.976a8.216,8.216,0,0,0-1.489-.1h-6.53a9.884,9.884,0,0,0-1.473.1Zm3.441,7.795a10.012,10.012,0,0,1-3.633,1.793,3.055,3.055,0,0,0-.608-.832,8.8,8.8,0,0,0,3.537-1.553Zm-1.232-.768q-1.154.024-1.441.048a11.207,11.207,0,0,0,.065-1.472V86.149a9.49,9.49,0,0,0-.065-1.44c.368.032.753.048,1.409.048h4.865c.689,0,1.009-.016,1.425-.048a9.816,9.816,0,0,0-.063,1.472v2.882a10.61,10.61,0,0,0,.063,1.52c-.48-.032-.832-.048-1.376-.048Zm-.449-4.1h5.715v-.913h-5.715Zm0,1.616h5.715v-.912h-5.715Zm0,1.713h5.715V88.759h-5.715Zm4.6.928a12.077,12.077,0,0,0,3.569,1.5,3.656,3.656,0,0,0-.592.88,11.991,11.991,0,0,1-3.6-1.76Z" fill="#404040"/>
    <path id="パス_1654" data-name="パス 1654" d="M495.915,85.349a10.652,10.652,0,0,0,2.865.641c.08-.785.24-2.034.368-2.882a21.26,21.26,0,0,1-2.384-.432c-.208-.048-.273-.064-.5-.112l.143-1.056a10.342,10.342,0,0,0,2.882.624,25.191,25.191,0,0,0,.384-3.01V79l1.28.144a8.228,8.228,0,0,0-.256,1.072c-.015.144-.015.144-.16,1.025-.048.352-.08.512-.16.96.448.016.673.016.929.016a12.977,12.977,0,0,0,2.928-.272l-.048,1.1c-.32.032-.32.032-1.12.1-.5.047-.976.063-1.44.063-.256,0-.528,0-1.409-.032-.256,1.841-.272,2-.368,2.9.608.015.833.015,1.056.015a13.934,13.934,0,0,0,2.945-.256l-.032,1.073c-.16.016-.208.016-.431.032a18.49,18.49,0,0,1-2.257.128c-.4,0-.657,0-1.377-.032a2.906,2.906,0,0,1-.016.32c-.032.384-.064.913-.064,1.185a2.362,2.362,0,0,0,.736,1.92,3.367,3.367,0,0,0,2.257.688c2.145,0,3.538-1.1,3.538-2.8a3.651,3.651,0,0,0-1.522-2.785,3.161,3.161,0,0,0,1.169-.32,4.272,4.272,0,0,1,1.5,3.185c0,2.258-1.888,3.778-4.69,3.778a3.98,3.98,0,0,1-3.585-1.6,4.339,4.339,0,0,1-.5-2.208,8.451,8.451,0,0,1,.063-1.057c.017-.24.017-.24.033-.384a16.858,16.858,0,0,1-2.417-.4,1.707,1.707,0,0,0-.5-.1Z" fill="#404040"/>
    <path id="パス_1655" data-name="パス 1655" d="M514,78.978a9.087,9.087,0,0,0-.368,1.649c-.256,1.617-.48,3.361-.528,4.178l.064.016c.032-.129.032-.129.112-.465a7.12,7.12,0,0,1,.977-2.384,3.814,3.814,0,0,1,3.2-2.065,3.014,3.014,0,0,1,2.561,1.424,7.545,7.545,0,0,1-2.738,10.18,12.094,12.094,0,0,1-2.848.945,3.309,3.309,0,0,0-.641-1.089,8.465,8.465,0,0,0,3.25-1.008c1.872-1.072,2.753-2.753,2.753-5.314,0-2.577-.9-4.066-2.434-4.066-1.215,0-2.24.913-3.153,2.785a8.358,8.358,0,0,0-.864,3.569c0,.064,0,.145.016.385l-1.152.048V87.59l-.017-.288-.032-1.665v-.368a40.514,40.514,0,0,1,.545-5.907,3.209,3.209,0,0,0,.048-.512Z" fill="#404040"/>
    <path id="パス_1656" data-name="パス 1656" d="M369.809,85.789A85.039,85.039,0,1,1,284.77.75a85.039,85.039,0,0,1,85.039,85.039" fill="#f7f3e9"/>
    <path id="パス_1657" data-name="パス 1657" d="M254.716,48.9c-14.972,0-23.91,13.849-23.91,37.047,0,17.761,6.281,36.738,23.91,36.738,11.559,0,23.91-9.651,23.91-36.738,0-17.91-6.281-37.047-23.91-37.047m0,73.24c-9.457,0-14.055-11.839-14.055-36.193,0-24.632,4.6-36.606,14.055-36.606,9.257,0,13.95,12.317,13.95,36.606,0,24.016-4.693,36.193-13.95,36.193" fill="#fff"/>
    <path id="パス_1658" data-name="パス 1658" d="M315.235,48.9a35.494,35.494,0,0,0-6.115.511c.561-.046,1.118-.07,1.667-.07,9.1,0,14.987,6.816,14.987,17.365,0,10.086-4.24,17.916-16.8,31.032-5.169,5.275-11.046,11.468-16.613,17.5v5.788h46.375v-7.685H294.248l6.2-5.318c3.985-3.427,7.75-6.663,10.467-8.786,19.021-14.689,25.438-22.767,25.438-32.019,0-11.815-7.5-18.323-21.118-18.323" fill="#fff"/>
    <path id="パス_1659" data-name="パス 1659" d="M292.1,64.742a4.884,4.884,0,0,0,4.414,2.6c1.761,0,4.228-.676,5.318-6.523l.025-.113,2.631-10.087C297.55,53.092,292.994,58.1,292.1,64.742" fill="#fff"/>
    <path id="パス_1660" data-name="パス 1660" d="M245.594,82.46c-.192.031-.256.048-.48.1a28.432,28.432,0,0,1-2.833.48v2.769a11.341,11.341,0,0,1,3.441-.576,5.418,5.418,0,0,1,2.833.672,3.293,3.293,0,0,1-1.616,6.146,2.36,2.36,0,0,1-2.465-1.809,5.835,5.835,0,0,1-.192-1.808,3.468,3.468,0,0,0,1.056-.416,4.752,4.752,0,0,0-.032.624c0,1.665.48,2.353,1.649,2.353a2.125,2.125,0,0,0,2.145-2.257c0-1.569-1.329-2.544-3.426-2.544a10.777,10.777,0,0,0-3.393.624v4c0,.865-.384,1.281-1.169,1.281a4.232,4.232,0,0,1-2.641-1.025,1.93,1.93,0,0,1-.736-1.5A2.894,2.894,0,0,1,239,87.438a8.586,8.586,0,0,1,2.256-1.313V83.1c-.144.016-.144.016-.64.048-.288.016-.56.016-1.024.016-.24,0-.673,0-.848-.016h-.657V82.092a9.182,9.182,0,0,0,1.633.111c.432,0,1.056-.015,1.536-.048V80.57a10.635,10.635,0,0,0-.08-1.52h1.185a9.165,9.165,0,0,0-.08,1.489v1.536a16.044,16.044,0,0,0,3.265-.688Zm-4.338,4.722c-1.584.767-2.481,1.633-2.481,2.4,0,.337.225.656.689.961a2.988,2.988,0,0,0,1.424.464c.321,0,.368-.1.368-.784Zm8.788-3.01a13.1,13.1,0,0,0-3.233-3.137l.832-.624a13.459,13.459,0,0,1,3.234,3.041Z" fill="#404040"/>
    <path id="パス_1661" data-name="パス 1661" d="M255.768,80.219a12.023,12.023,0,0,0-.112-1.617h1.264a12.306,12.306,0,0,0-.1,1.6V81.82h1.2a7.1,7.1,0,0,0,1.2-.081v1.073a11.494,11.494,0,0,0-1.345-.08h-1.056v3.217a24.581,24.581,0,0,0,2.4-.784l.031.96c-1.12.4-1.568.544-2.432.817v4.849c0,.513-.177.849-.512.961a4.492,4.492,0,0,1-1.345.16c-.336,0-.8-.016-1.153-.032a3,3,0,0,0-.24-1.072,9.578,9.578,0,0,0,1.489.143c.576,0,.7-.08.7-.431V87.245c-.688.193-1.024.273-1.584.416-.369.1-.673.177-.881.257l-.24-1.152a11.52,11.52,0,0,0,2.705-.528V82.732h-1.152a9.354,9.354,0,0,0-1.345.08V81.724a7.64,7.64,0,0,0,1.3.1h1.2Zm4.818.624a12.143,12.143,0,0,0-1.665.1V79.8a11.442,11.442,0,0,0,1.681.1h5.362a11.739,11.739,0,0,0,1.681-.1v1.136a12.8,12.8,0,0,0-1.7-.1h-1.072V91.52c0,1.04-.384,1.28-2,1.28-.672,0-1.376-.032-2.209-.112a4.932,4.932,0,0,0-.24-1.137,15.257,15.257,0,0,0,2.545.272c.688,0,.832-.064.832-.432V80.843Z" fill="#404040"/>
    <path id="パス_1662" data-name="パス 1662" d="M269.96,81.547a14.632,14.632,0,0,0,3.457.272,12.419,12.419,0,0,0,.512-2.865l1.281.128a8.1,8.1,0,0,0-.256,1.025c-.224.928-.272,1.12-.432,1.7a27.118,27.118,0,0,0,6.306-.688l.08,1.153c-.272.032-.368.032-.7.08a53.506,53.506,0,0,1-5.938.464,21.669,21.669,0,0,1-1.6,4.113l.016.032a8.212,8.212,0,0,1,4.658-1.345c2.529,0,4.145,1.154,4.145,2.946,0,2.177-2.128,3.6-5.362,3.6a11.952,11.952,0,0,1-3.954-.624,1.665,1.665,0,0,0,.017-.256v-.1c0-.08-.032-.368-.08-.88a9.765,9.765,0,0,0,4,.8c2.529,0,4.194-1.008,4.194-2.545,0-1.216-1.152-1.952-3.073-1.952a8.707,8.707,0,0,0-3.714.864,3.434,3.434,0,0,0-1.345,1.024l-1.152-.465a24.059,24.059,0,0,0,2.145-5.217c-1.024-.016-1.729-.048-2.657-.113-.208-.015-.352-.015-.448-.015h-.128Z" fill="#404040"/>
    <path id="パス_1663" data-name="パス 1663" d="M292.571,78.667a11,11,0,0,0,2.641,2.9,16.776,16.776,0,0,0,4.386,2.625,4.164,4.164,0,0,0-.641,1.008,22.383,22.383,0,0,1-4.514-2.945,13.484,13.484,0,0,1-2.465-2.689,14.9,14.9,0,0,1-3.361,3.5,18.458,18.458,0,0,1-3.393,2.081,2.781,2.781,0,0,0-.672-.912,16.7,16.7,0,0,0,4.353-2.785,11.646,11.646,0,0,0,2.465-2.785Zm-5.587,14.309a11.442,11.442,0,0,0,.1-1.568V87.871A10.212,10.212,0,0,0,287,86.4a8.48,8.48,0,0,0,1.248.064h7.507a8.495,8.495,0,0,0,1.249-.064,9.549,9.549,0,0,0-.08,1.473v3.537a11.289,11.289,0,0,0,.1,1.568h-1.152v-.928h-7.731v.928Zm1.153-1.873h7.731V87.438h-7.731Zm.112-7.57a8.222,8.222,0,0,0,1.265.063h4.962a9.585,9.585,0,0,0,1.344-.063v1.088a9.848,9.848,0,0,0-1.344-.064H289.5a9.207,9.207,0,0,0-1.249.064Z" fill="#404040"/>
    <path id="パス_1664" data-name="パス 1664" d="M301.879,88.414a11.888,11.888,0,0,0,1.376-1.185c.545-.512.545-.512,1.089-1.008.256-.241.256-.241.464-.416.032-1.329.032-1.473.08-2.833-.224.015-.224.015-.817.047a14.107,14.107,0,0,0-1.76.193l-.08-1.1c.224.016.32.016.448.016.24,0,.912-.031,2.225-.128.048-.992.064-1.6.064-2.225a2.88,2.88,0,0,0-.048-.624h1.265a9.862,9.862,0,0,0-.16,1.857c-.017.544-.017.544-.033.912a.929.929,0,0,0,.368-.1l.416.529a4.718,4.718,0,0,0-.847,1.04c-.049,1.041-.08,1.585-.08,1.617h.031l.049-.049a8.473,8.473,0,0,1,.928-.815,6.228,6.228,0,0,1,4.049-1.585,4.047,4.047,0,0,1,4.306,4.161,4.55,4.55,0,0,1-4.834,4.818,8.08,8.08,0,0,1-2.721-.48,2.09,2.09,0,0,0,.016-.272,3.948,3.948,0,0,0-.128-.929,7,7,0,0,0,2.833.624,3.563,3.563,0,0,0,3.2-1.808,4.034,4.034,0,0,0,.448-1.921,2.936,2.936,0,0,0-3.056-3.137c-1.57,0-3.01.752-5.107,2.641,0,4.818.016,5.618.1,6.354H304.7a17.092,17.092,0,0,0,.08-3.025c.017-1.952.017-2.08.049-2.465h-.032a4.479,4.479,0,0,1-.833.881,13.733,13.733,0,0,0-1.44,1.52Z" fill="#404040"/>
    <path id="パス_1665" data-name="パス 1665" d="M322.265,79.754a18.342,18.342,0,0,0-.145,3.346c2.593-.144,3.234-.176,5.235-.256V82.4c.015-.176.015-.353.015-.544a15.4,15.4,0,0,0-.1-2.434h1.232a8.671,8.671,0,0,0-.064,1.232v.673l-.016,1.04V82.8c1.568-.032,2.817-.08,3.346-.145l.031,1.137c-.432-.032-.527-.032-1.2-.032-.144,0-.561,0-1.088.017-.257,0-.608.015-1.121.015a15.216,15.216,0,0,1-.288,3.121,1.6,1.6,0,0,1-1.616,1.408,4.606,4.606,0,0,1-2.226-.735c.017-.24.032-.32.032-.48,0-.177-.015-.336-.032-.657a4.537,4.537,0,0,0,2.1.88c.448,0,.639-.256.784-1.04a14.471,14.471,0,0,0,.191-2.465c-1.936.064-3.089.128-5.218.272v1.441a24.367,24.367,0,0,0,.161,4.034,1.376,1.376,0,0,0,1.072,1.04,8.9,8.9,0,0,0,2.5.272,14.515,14.515,0,0,0,4.45-.592l.128,1.233c-.225.015-.256.031-.641.08a27.334,27.334,0,0,1-4.049.336c-2.849,0-4.066-.545-4.482-1.986a16.888,16.888,0,0,1-.208-3.793v-2c-1.585.113-2.481.208-3.218.336l-.1-1.12a3.413,3.413,0,0,0,.352.016c.288,0,1.281-.064,2.961-.208V82.14a16.871,16.871,0,0,0-.08-2.386Z" fill="#404040"/>
    <path id="パス_1666" data-name="パス 1666" d="M170.829,85.789A85.039,85.039,0,1,1,85.79.75a85.039,85.039,0,0,1,85.039,85.039" fill="#f7f3e9"/>
    <path id="パス_1667" data-name="パス 1667" d="M56.981,48.9c-14.972,0-23.911,13.85-23.911,37.048,0,17.76,6.283,36.738,23.911,36.738,11.559,0,23.912-9.651,23.912-36.738,0-17.91-6.283-37.048-23.912-37.048m0,73.239c-9.457,0-14.055-11.838-14.055-36.191,0-24.632,4.6-36.606,14.055-36.606,9.257,0,13.951,12.316,13.951,36.606,0,24.014-4.694,36.191-13.951,36.191" fill="#fff"/>
    <path id="パス_1668" data-name="パス 1668" d="M123.8,49.588l-.179-.14L99.583,55.172v.719l13.448-1.346V98.359c0,6.4-.1,12.887-.312,19.293l-.045,1.4-15.263,1.857v.114h41.1v-.121l-14.747-1.856-.045-1.4c-.207-6.378-.311-12.869-.311-19.293V65.46Z" fill="#fff"/>
    <path id="パス_1669" data-name="パス 1669" d="M46.551,82.4c-.193.031-.257.047-.481.095a28.154,28.154,0,0,1-2.833.481v2.769a11.316,11.316,0,0,1,3.442-.576,5.423,5.423,0,0,1,2.833.672A3.293,3.293,0,0,1,47.9,91.983a2.361,2.361,0,0,1-2.466-1.809,5.838,5.838,0,0,1-.192-1.808,3.457,3.457,0,0,0,1.056-.416,4.9,4.9,0,0,0-.031.624c0,1.664.479,2.353,1.648,2.353a2.125,2.125,0,0,0,2.145-2.257c0-1.569-1.328-2.545-3.425-2.545a10.807,10.807,0,0,0-3.394.624v4c0,.864-.384,1.28-1.169,1.28a4.226,4.226,0,0,1-2.64-1.024,1.933,1.933,0,0,1-.737-1.505,2.9,2.9,0,0,1,1.265-2.129,8.55,8.55,0,0,1,2.257-1.312V83.036c-.145.016-.145.016-.641.048-.288.016-.559.016-1.024.016-.24,0-.672,0-.848-.016h-.656V82.027a9.062,9.062,0,0,0,1.632.112c.432,0,1.056-.016,1.537-.048V80.506a10.777,10.777,0,0,0-.08-1.52h1.184a9.156,9.156,0,0,0-.08,1.489v1.536a16.208,16.208,0,0,0,3.266-.688Zm-4.338,4.721c-1.585.768-2.482,1.633-2.482,2.4,0,.337.225.656.689.961a3,3,0,0,0,1.425.464c.32,0,.368-.1.368-.785ZM51,84.108a13.077,13.077,0,0,0-3.233-3.137l.833-.624a13.453,13.453,0,0,1,3.233,3.041Z" fill="#404040"/>
    <path id="パス_1670" data-name="パス 1670" d="M56.035,91.183a11.108,11.108,0,0,0,.1,1.793H54.947a12.113,12.113,0,0,0,.1-1.793V80.795c0-.784-.016-1.249-.064-1.761a14.629,14.629,0,0,0,1.665.065h2.289a13.99,13.99,0,0,0,1.632-.065c-.032.481-.047.9-.047,1.521V82.7c0,.64.015,1.088.047,1.472-.352-.031-.96-.048-1.616-.048H56.035Zm0-9.988H59.6V79.883h-3.57Zm0,2.129H59.6V81.979h-3.57Zm8.228,5.8a8.16,8.16,0,0,0,.048.96,9.252,9.252,0,0,0-1.008-.048H59.461v1.264h-1.04a10.033,10.033,0,0,0,.08-1.488v-3.2a9.894,9.894,0,0,0-.049-1.008,11.017,11.017,0,0,0,1.1.048h3.586a11.51,11.51,0,0,0,1.168-.048,9.053,9.053,0,0,0-.048.976Zm-4.8.064h3.857V86.494H59.461Zm8.419,2.24c0,1.041-.3,1.328-1.408,1.328-.624,0-1.2-.015-1.9-.063a3.048,3.048,0,0,0-.288-1.025,17.953,17.953,0,0,0,2.033.161c.464,0,.576-.1.576-.465V84.124h-3.2c-.671,0-1.28.017-1.632.048.032-.464.048-.88.048-1.472V80.555c0-.56-.016-1.04-.048-1.521a13.99,13.99,0,0,0,1.632.065h2.593a14.949,14.949,0,0,0,1.681-.065,15,15,0,0,0-.08,1.761ZM63.03,81.195h3.857V79.883H63.03Zm0,2.129h3.857V81.979H63.03Z" fill="#404040"/>
    <path id="パス_1671" data-name="パス 1671" d="M73.269,80.539a11.472,11.472,0,0,0-.113,1.9,27.432,27.432,0,0,0,.416,4.978c.353,1.632,1.009,2.736,1.617,2.736.289,0,.56-.271.8-.8a11.506,11.506,0,0,0,.832-2.737,5.152,5.152,0,0,0,.945.912c-.785,2.8-1.521,3.874-2.657,3.874-.9,0-1.729-.9-2.273-2.433-.561-1.521-.784-3.569-.864-7.507a8.657,8.657,0,0,0-.048-.944Zm7.73.848a13.871,13.871,0,0,1,2.289,3.649,15.378,15.378,0,0,1,1.2,4.274l-1.136.465a14.149,14.149,0,0,0-3.33-7.892Z" fill="#404040"/>
    <path id="パス_1672" data-name="パス 1672" d="M94.294,78.6a10.982,10.982,0,0,0,2.641,2.9,16.776,16.776,0,0,0,4.386,2.625,4.151,4.151,0,0,0-.641,1.009,22.388,22.388,0,0,1-4.514-2.946A13.484,13.484,0,0,1,93.7,79.5,14.921,14.921,0,0,1,90.34,83a18.567,18.567,0,0,1-3.393,2.081,2.784,2.784,0,0,0-.672-.913,16.7,16.7,0,0,0,4.353-2.785A11.627,11.627,0,0,0,93.093,78.6ZM88.707,92.911a11.432,11.432,0,0,0,.1-1.568V87.806a10.218,10.218,0,0,0-.08-1.473,8.48,8.48,0,0,0,1.248.064h7.507a8.495,8.495,0,0,0,1.249-.064,9.55,9.55,0,0,0-.08,1.473v3.537a11.278,11.278,0,0,0,.095,1.568H97.591v-.928H89.86v.928Zm1.153-1.872h7.731V87.373H89.86Zm.112-7.571a8.193,8.193,0,0,0,1.265.064H96.2a9.555,9.555,0,0,0,1.344-.064v1.088a10.015,10.015,0,0,0-1.344-.064H91.221a9.375,9.375,0,0,0-1.249.064Z" fill="#404040"/>
    <path id="パス_1673" data-name="パス 1673" d="M103.283,88.35a11.782,11.782,0,0,0,1.376-1.185c.545-.512.545-.512,1.089-1.008.256-.24.256-.24.464-.416.032-1.329.032-1.473.08-2.833-.224.016-.224.016-.817.048a13.975,13.975,0,0,0-1.76.192l-.08-1.105c.224.016.32.016.448.016.24,0,.912-.031,2.225-.127.048-.993.064-1.6.064-2.226a2.883,2.883,0,0,0-.048-.624h1.265a9.861,9.861,0,0,0-.16,1.857c-.017.544-.017.544-.033.912a.93.93,0,0,0,.368-.1l.416.529a4.717,4.717,0,0,0-.847,1.04c-.049,1.041-.08,1.585-.08,1.617h.031l.049-.049a8.58,8.58,0,0,1,.928-.815,6.228,6.228,0,0,1,4.049-1.585,4.047,4.047,0,0,1,4.306,4.161,4.549,4.549,0,0,1-4.834,4.818,8.08,8.08,0,0,1-2.721-.48,2.088,2.088,0,0,0,.016-.272,3.947,3.947,0,0,0-.128-.929,7,7,0,0,0,2.833.625,3.564,3.564,0,0,0,3.2-1.809,4.034,4.034,0,0,0,.448-1.921,2.936,2.936,0,0,0-3.056-3.137c-1.57,0-3.01.752-5.107,2.641,0,4.818.016,5.619.1,6.354H106.1a17.071,17.071,0,0,0,.08-3.025c.017-1.952.017-2.08.049-2.464H106.2a4.488,4.488,0,0,1-.833.88,13.827,13.827,0,0,0-1.44,1.52Z" fill="#404040"/>
    <path id="パス_1674" data-name="パス 1674" d="M123.349,79.69a18.323,18.323,0,0,0-.145,3.346c2.593-.144,3.234-.177,5.235-.257v-.448c.015-.176.015-.352.015-.544a15.4,15.4,0,0,0-.1-2.433h1.232a8.657,8.657,0,0,0-.064,1.232v.673l-.016,1.04v.433c1.568-.033,2.817-.081,3.346-.145l.031,1.137c-.432-.032-.527-.032-1.2-.032-.144,0-.561,0-1.088.016-.257,0-.608.016-1.121.016a15.217,15.217,0,0,1-.288,3.121,1.6,1.6,0,0,1-1.616,1.408,4.606,4.606,0,0,1-2.226-.735c.017-.241.032-.321.032-.481,0-.176-.015-.336-.032-.656a4.549,4.549,0,0,0,2.1.88c.448,0,.639-.256.784-1.04a14.479,14.479,0,0,0,.191-2.465c-1.936.064-3.089.128-5.218.272v1.441a24.353,24.353,0,0,0,.161,4.033,1.376,1.376,0,0,0,1.072,1.041,8.9,8.9,0,0,0,2.5.272,14.515,14.515,0,0,0,4.45-.592l.128,1.232c-.225.016-.256.032-.641.08a27.2,27.2,0,0,1-4.049.336c-2.849,0-4.066-.544-4.482-1.985a16.889,16.889,0,0,1-.208-3.793v-2a32.3,32.3,0,0,0-3.218.336l-.1-1.12a3.412,3.412,0,0,0,.352.016c.288,0,1.281-.064,2.961-.208V82.075a16.865,16.865,0,0,0-.08-2.385Z" fill="#404040"/>
    <path id="パス_1675" data-name="パス 1675" d="M881.71,0a85.885,85.885,0,0,0-85.789,85.789c0,.837.039,1.665.063,2.5a173.473,173.473,0,0,1-21.228-.4l-.231-.015q-4.428-.288-6.047-.434c.01-.551.042-1.1.042-1.651A85.784,85.784,0,0,0,597.039,81.9,90.5,90.5,0,0,0,581.3,83.007c-3.872.649-7.84,1.472-11.769,2.328a85.785,85.785,0,0,0-171.568.454c0,.468.028.93.036,1.4-1.267.088-2.531.173-3.8.265q-3.383.246-6.758.482c-.348.023-4.724.211-5.945.222-2.7.024-5.341-.117-7.888-.253l-1.774-.092c-.44-.022-.881-.054-1.323-.083.015-.646.05-1.288.05-1.938a85.789,85.789,0,0,0-171.579,0c0,1.6.052,3.186.139,4.763a105.5,105.5,0,0,1-27.648-.522c.069-1.4.108-2.819.108-4.241a86.132,86.132,0,1,0-.223,5.861c1.878.345,3.762.66,5.659.895a99.592,99.592,0,0,0,22.231-.332A85.769,85.769,0,0,0,370.463,89.57l1.727.152c1.961.17,3.92.34,5.87.526.584.017,11.95-.418,19.994-.77a85.769,85.769,0,0,0,171.441-1.935A141.006,141.006,0,0,1,596.988,83.9c-.013.629-.048,1.253-.048,1.885a85.786,85.786,0,0,0,171.477,4.036c.513.074.868.121,1.011.132,6.328.487,13.9,1,22.016,1.154,1.5.028,3.068-.006,4.654-.06A85.782,85.782,0,1,0,881.71,0M85.789,170.078a84.289,84.289,0,1,1,84.29-84.289,84.385,84.385,0,0,1-84.29,84.289m198.981,0a84.289,84.289,0,1,1,84.289-84.289,84.385,84.385,0,0,1-84.289,84.289m198.98,0a84.289,84.289,0,1,1,84.289-84.289,84.385,84.385,0,0,1-84.289,84.289m198.98,0a84.289,84.289,0,1,1,84.29-84.289,84.385,84.385,0,0,1-84.29,84.289m198.98,0A84.289,84.289,0,1,1,966,85.789a84.384,84.384,0,0,1-84.29,84.289" fill="#404040"/>
  </g>
</svg>
