<?xml version="1.0" encoding="UTF-8"?>
<svg id="_レイヤー_2" data-name="レイヤー_2" xmlns="http://www.w3.org/2000/svg" viewBox="0 0 967.50049 171.57812">
  <defs>
    <style>
      .cls-1 {
        fill: #231815;
      }

      .cls-2 {
        fill: #f6f2e7;
      }

      .cls-3 {
        fill: #fff;
      }
    </style>
  </defs>
  <g id="_レイヤー_1-2" data-name="レイヤー_1">
    <g>
      <g>
        <circle class="cls-2" cx="881.71075" cy="85.78907" r="85.03937"/>
        <g>
          <path class="cls-3" d="M851.35139,48.89608c-14.97254,0-23.91083,13.8501-23.91083,37.04865,0,17.75986,6.28143,36.73737,23.91083,36.73737,11.55945,0,23.91083-9.65103,23.91083-36.73737,0-17.91046-6.28143-37.04865-23.91083-37.04865ZM851.35139,122.13553c-9.4574,0-14.05518-11.83823-14.05518-36.1908,0-24.63227,4.59778-36.60599,14.05518-36.60599,9.2569,0,13.95081,12.31613,13.95081,36.60599,0,24.01429-4.69391,36.1908-13.95081,36.1908Z"/>
          <path class="cls-3" d="M908.86208,122.6821c16.7276,0,27.11884-8.68607,27.11884-22.66892,0-13.28888-9.16809-20.91065-25.1532-20.91065-4.49616,0-8.48786.56992-12.56195,1.79306l-2.27234.68207,1.61591-23.34412h35.88685v-7.68265h-36.86554l-2.29614,31.84754,1.41998.7338c3.43048-1.11877,6.99829-1.62094,11.45325-1.62094,11.23261,0,17.67426,7.30911,17.67426,20.0528,0,12.68875-6.96991,20.57144-18.19062,20.57144-2.48016,0-4.52362-.31311-6.62476-1.01578l-.90454-.30212-1.94275-9.83048c-.97412-5.94864-2.97546-6.43662-5.11505-6.43662-1.22223,0-3.36823.36255-4.42108,2.71271,1.41724,9.94766,8.9209,15.41886,21.1789,15.41886Z"/>
        </g>
        <circle class="cls-2" cx="682.73039" cy="85.78907" r="85.03937"/>
        <g>
          <path class="cls-3" d="M648.83511,48.89652c-14.97254,0-23.91175,13.84918-23.91175,37.04773,0,17.76032,6.28143,36.73737,23.91175,36.73737,11.55945,0,23.91083-9.65058,23.91083-36.73737,0-17.91046-6.28143-37.04773-23.91083-37.04773ZM648.83511,122.13505c-9.4574,0-14.05518-11.83777-14.05518-36.1908,0-24.63135,4.59778-36.60553,14.05518-36.60553,9.2569,0,13.95081,12.31568,13.95081,36.60553,0,24.01429-4.69391,36.1908-13.95081,36.1908Z"/>
          <path class="cls-3" d="M735.22245,95.75687h-11.69037v-45.72236h-6.91956l-32.52045,46.35773v5.18829h30.41108v19.44672h9.02893v-19.44672h11.69037v-5.82367ZM714.50315,95.75687h-29.52668l29.52668-41.88447v41.88447Z"/>
        </g>
        <circle class="cls-2" cx="483.75009" cy="85.78907" r="85.03937"/>
        <g>
          <path class="cls-3" d="M453.64916,48.89608c-14.97208,0-23.91083,13.8501-23.91083,37.04865,0,17.75986,6.28143,36.73737,23.91083,36.73737,11.55945,0,23.91083-9.65103,23.91083-36.73737,0-17.91046-6.28143-37.04865-23.91083-37.04865ZM453.64916,122.13553c-9.4574,0-14.05472-11.83823-14.05472-36.1908,0-24.63227,4.59732-36.60599,14.05472-36.60599,9.2569,0,13.95081,12.31613,13.95081,36.60599,0,24.01429-4.69391,36.1908-13.95081,36.1908Z"/>
          <g>
            <path class="cls-3" d="M496.98886,65.37328c2.04895,0,4.50348-.60928,5.31189-5.35904l.02472-.11856,2.39044-9.66934c-6.64307,2.11441-10.7721,6.66596-11.52558,13.04672.79285,1.34079,2.15515,2.10022,3.79852,2.10022Z"/>
            <path class="cls-3" d="M502.0032,121.19803l-2.06909-9.88449c-1.06201-6.25855-3.03955-6.763-5.32562-6.763-.90454,0-3.06152.27512-4.21234,2.73331,1.09497,7.99622,5.91431,12.025,11.60706,13.91419Z"/>
            <path class="cls-3" d="M537.76187,103.01382c0-9.87351-6.17889-15.63767-18.88916-17.62162l-8.41919-1.31424,8.30475-1.90567c11.09894-2.54746,16.72669-8.20404,16.72669-16.8132,0-10.30884-7.9715-16.46302-21.32263-16.46302-2.9068,0-5.56458.30899-7.94129.90363,1.68915-.31815,3.03589-.46097,4.31763-.46097,9.39331,0,14.78119,5.95184,14.78119,16.32889,0,11.32736-6.56983,18.08991-17.57355,18.08991h-2.1872v.8551h2.91321c11.93115,0,18.50189,6.64444,18.50189,18.70926,0,12.13211-6.57074,18.81363-18.50189,18.81363-1.88599,0-3.67584-.21881-5.46936-.66925l-.76904-.19272c3.29407,1.0556,6.86554,1.40854,10.16693,1.40854,15.4065,0,25.36103-7.72019,25.36103-19.66828Z"/>
          </g>
        </g>
        <circle class="cls-2" cx="284.76979" cy="85.78907" r="85.03937"/>
        <g>
          <path class="cls-3" d="M254.716,48.89652c-14.97208,0-23.91037,13.84918-23.91037,37.04773,0,17.76032,6.28143,36.73737,23.91037,36.73737,11.55899,0,23.91037-9.65058,23.91037-36.73737,0-17.91046-6.28143-37.04773-23.91037-37.04773ZM254.716,122.13688c-9.4574,0-14.05472-11.83869-14.05472-36.19263,0-24.63227,4.59732-36.60645,14.05472-36.60645,9.2569,0,13.95035,12.31659,13.95035,36.60645,0,24.01612-4.69345,36.19263-13.95035,36.19263Z"/>
          <g>
            <path class="cls-3" d="M315.23511,48.89652c-2.15149,0-4.1954.17487-6.11481.51086.56122-.04578,1.1174-.06958,1.66718-.06958,9.10401,0,14.98627,6.8161,14.98627,17.36481,0,10.08545-4.23981,17.91596-16.80176,31.0318-5.16907,5.27527-11.0463,11.4679-16.6127,17.50489v5.78796h46.37467v-7.68494h-44.48594l6.19995-5.3183c3.98529-3.42682,7.74994-6.66229,10.46723-8.7854,19.021-14.68872,25.43839-22.76734,25.43839-32.01874,0-11.8158-7.5-18.32337-21.11847-18.32337Z"/>
            <path class="cls-3" d="M292.09836,64.74247c.95123,1.67908,2.50351,2.59735,4.41376,2.59735,1.76102,0,4.22836-.67657,5.31784-6.52313l.02518-.11353,2.63123-10.08637c-6.93558,2.47559-11.49216,7.48444-12.388,14.12567Z"/>
          </g>
        </g>
        <circle class="cls-2" cx="85.78949" cy="85.78907" r="85.03937"/>
        <g>
          <path class="cls-3" d="M56.98154,48.89608c-14.97208,0-23.91083,13.8501-23.91083,37.04865,0,17.75986,6.28143,36.73737,23.91083,36.73737,11.55945,0,23.91083-9.65103,23.91083-36.73737,0-17.91046-6.28143-37.04865-23.91083-37.04865ZM56.98154,122.13553c-9.4574,0-14.05472-11.83823-14.05472-36.1908,0-24.63227,4.59732-36.60599,14.05472-36.60599,9.2569,0,13.95081,12.31613,13.95081,36.60599,0,24.01429-4.69391,36.1908-13.95081,36.1908Z"/>
          <path class="cls-3" d="M123.79902,49.58776l-.17899-.14008-24.03717,5.72434v.71869l13.44864-1.34583v43.81394c0,6.39587-.10483,12.88696-.31219,19.29245l-.04532,1.40579-15.26322,1.85623v.11398h41.09757v-.12039l-14.74732-1.85577-.04532-1.39984c-.20645-6.37756-.31082-12.8682-.31082-19.29245v-32.89856l.39413-15.8725Z"/>
        </g>
        <path class="cls-1" d="M881.71045,0c-47.30469,0-85.78906,38.48438-85.78906,85.78906,0,.83734.03943,1.66528.06335,2.49695-7.07452.29449-14.16339.17657-21.22815-.39734l-.2312-.01465c-2.95203-.19183-4.96503-.33618-6.04724-.43378.0105-.55127.04187-1.09747.04187-1.65118,0-47.30469-38.48535-85.78906-85.79004-85.78906-46.00092,0-83.64948,36.39514-85.69043,81.90131-5.13892-.0379-10.37756.20673-15.74243,1.10626-3.87195.64856-7.83954,1.4718-11.7691,2.32745-.24664-47.09546-38.6261-85.33502-85.77802-85.33502-47.3042,0-85.78906,38.48438-85.78906,85.78906,0,.46844.02795.93018.03546,1.39685-1.26654.08856-2.53137.17352-3.79919.26569-2.25482.16327-4.50739.32361-6.75769.48108-.34802.02362-4.72412.21149-5.94537.22229-2.70123.02429-5.34027-.11688-7.888-.25293l-1.77325-.09216c-.44073-.02203-.8819-.05377-1.323-.08258.01447-.64661.04919-1.28827.04919-1.93823,0-47.30469-38.48486-85.78906-85.78906-85.78906s-85.78955,38.48438-85.78955,85.78906c0,1.599.05212,3.18567.13892,4.76337-8.66919,1.06458-18.76508.84363-27.64789-.52185.06879-1.40564.1076-2.81909.1076-4.24152C171.5791,38.48438,133.09424,0,85.78955,0S0,38.48438,0,85.78906s38.48486,85.78906,85.78955,85.78906c45.33282,0,82.54169-35.34955,85.56689-79.92828,1.87817.34576,3.76233.65997,5.65942.8949,5.95264.72229,14.65558.62506,22.23016-.33209,3.29944,44.31268,40.38232,79.36548,85.52399,79.36548,46.03625,0,83.70612-36.45233,85.69318-82.00806.57697.05096,1.15533.10223,1.72729.15192,1.96069.17029,3.9198.33972,5.87042.52655.58325.01636,11.95001-.41846,19.99359-.77032,1.94055,45.59845,39.62848,82.09991,85.6955,82.09991,46.71613,0,84.80457-37.53992,85.74506-84.03546,9.18756-2.14594,18.62323-3.37207,27.49365-3.63855-.01367.62891-.04779,1.25281-.04779,1.88495,0,47.30469,38.48438,85.78906,85.78906,85.78906,45.95105,0,83.57166-36.31555,85.68762-81.75262.51251.07385.86798.12097,1.01074.13196,6.328.48663,13.89508,1.00232,22.01575,1.1535,1.50067.02777,3.06818-.00574,4.65424-.0603,2.72961,44.86176,40.07568,80.52747,85.61212,80.52747,47.30469,0,85.79004-38.48438,85.79004-85.78906S929.01514,0,881.71045,0ZM85.78955,170.07812C39.31201,170.07812,1.5,132.2666,1.5,85.78906S39.31201,1.5,85.78955,1.5s84.28955,37.81152,84.28955,84.28906-37.81201,84.28906-84.28955,84.28906ZM284.77002,170.07812c-46.47754,0-84.28955-37.81152-84.28955-84.28906S238.29248,1.5,284.77002,1.5s84.28906,37.81152,84.28906,84.28906-37.81201,84.28906-84.28906,84.28906ZM483.75,170.07812c-46.47705,0-84.28906-37.81152-84.28906-84.28906S437.27295,1.5,483.75,1.5s84.28955,37.81152,84.28955,84.28906-37.8125,84.28906-84.28955,84.28906ZM682.72998,170.07812c-46.47754,0-84.28906-37.81152-84.28906-84.28906S636.25244,1.5,682.72998,1.5s84.29004,37.81152,84.29004,84.28906-37.8125,84.28906-84.29004,84.28906ZM881.71045,170.07812c-46.47754,0-84.28906-37.81152-84.28906-84.28906S835.23291,1.5,881.71045,1.5s84.29004,37.81152,84.29004,84.28906-37.8125,84.28906-84.29004,84.28906Z"/>
      </g>
      <g>
        <path class="cls-1" d="M60.88074,93.96279c-1.02441-.01562-1.84082-.11133-2.48145-.28809-.62402-.19141-1.18359-.5918-1.68066-1.16797-.20801-.27246-.41602-.40039-.60742-.40039-.38477,0-1.00879.73633-1.88965,2.20898l-.86426-.78418c.84863-1.34473,1.60059-2.16113,2.25684-2.44922v-4.86621h-2.28809v-1.05566h3.36133v5.98633c.12793.0957.25586.22363.38379.36816.38379.46387.78418.7998,1.23242,1.00781.48047.22461,1.2002.35254,2.12891.38477.83203.01562,1.87305.03125,3.10547.03125.75195,0,1.52051-.01562,2.30469-.03125.76855-.0166,1.37695-.03223,1.79297-.06445l-.27246,1.15234h-3.66504c-.86426,0-1.80859-.01562-2.81738-.03223ZM57.11902,82.34267l-.83203.81641c-.64062-.78418-1.53711-1.63281-2.67285-2.54492l.78418-.75293c1.07227.83301,1.98438,1.64941,2.7207,2.48145ZM60.11218,82.13467v-2.54492h1.10449v2.54492h2.5293v-2.5293h1.12012v2.5293h2.0332v1.07227h-2.0332v3.18555h2.54492v1.08789h-2.54492v4.59375h-1.12012v-4.59375h-2.84961c-.41602,1.9209-1.24805,3.3457-2.48047,4.27441l-.68848-.92871c1.00879-.7207,1.69629-1.84082,2.04883-3.3457h-2.11328v-1.08789h2.32129c.08008-.6084.12793-1.24902.12793-1.9209v-1.26465h-1.88867v-1.07227h1.88867ZM61.21667,84.21572c0,.76758-.04785,1.50391-.12793,2.17676h2.65723v-3.18555h-2.5293v1.00879Z"/>
        <path class="cls-1" d="M74.62292,80.22939c-.89551,1.77734-2.33691,3.3457-4.32129,4.70605l-.33594-1.15234c1.66406-1.18457,2.86523-2.5293,3.61719-4.0332l1.04004.47949ZM75.37585,83.87881c-.46484.89648-1.04102,1.76074-1.74512,2.56152v7.84277h-1.13672v-6.6748c-.63965.57617-1.32812,1.13672-2.09668,1.66504l-.33594-1.15234c1.95312-1.37695,3.37793-2.94531,4.27344-4.72168l1.04102.47949ZM84.48328,84.69521v1.13672h-2.59277v6.99512c0,.92773-.52832,1.3916-1.55273,1.3916h-2.35352l-.23926-1.13574c.76758.04785,1.48828.08008,2.19238.08008.5127,0,.78418-.20801.78418-.62402v-6.70703h-5.04199v-1.13672h8.80371ZM83.77917,80.62978v1.13672h-7.66699v-1.13672h7.66699Z"/>
        <path class="cls-1" d="M91.66394,84.51943c-1.16895,1.4248-2.38574,2.60938-3.64941,3.55371l-.75293-.84863c1.29688-.95996,2.46484-2.08105,3.52148-3.36133l.88086.65625ZM91.13562,82.03799l-.80078.78516c-.65625-.67285-1.56836-1.37695-2.7373-2.11328l.76855-.75195c1.08887.6875,2.0166,1.37598,2.76953,2.08008ZM99.53894,94.29873h-1.12109v-.76758h-8.22656v.76758h-1.12109v-5.80957h10.46875v5.80957ZM98.41785,92.44228v-2.86523h-8.22656v2.86523h8.22656ZM96.89734,82.66299c-.06348.39941-.12793.78418-.22363,1.13574.67188,1.56934,2.32129,2.65723,4.94629,3.28223l-.56055.99219c-2.38477-.64062-4.00195-1.68066-4.84961-3.10547-.24023.43262-.52832.83203-.86523,1.18457-.76758.76855-2.1123,1.39258-4.0332,1.84082l-.43164-1.00879c1.66406-.35156,2.84863-.86426,3.56934-1.53613.73633-.68848,1.2002-1.64941,1.36035-2.89746l1.08789.1123ZM92.24011,84.42373l-.7041-.91309c1.12012-1.08789,1.87207-2.40039,2.25684-3.96875l1.15234.14355c-.12793.46387-.25684.89648-.40039,1.29688h6.14648v.92773c-.46387,1.05664-.97656,1.95312-1.53711,2.68945l-.86426-.67188c.43262-.52832.81641-1.15332,1.16895-1.85742h-5.42676c-.47949.88086-1.08789,1.66504-1.79199,2.35352Z"/>
        <path class="cls-1" d="M107.35925,84.50381v7.09082c.51172-.44824,1.05664-.97656,1.64844-1.56934l.32031,1.2168c-.92871.92871-1.9209,1.74512-2.97754,2.46484l-.44824-1.02441c.22461-.20801.35254-.44824.35254-.7041v-6.37012h-2.35352v-1.10449h3.45801ZM108.52722,82.23037l-.78418.80078c-.67188-.78418-1.56836-1.61719-2.7207-2.48145l.7998-.78418c1.05664.81641,1.96875,1.63281,2.70508,2.46484ZM112.20886,79.71767c-.14355.56055-.32031,1.08789-.51172,1.60059h6.30664c0,5.8418-.08008,9.45996-.22461,10.83594-.16016,1.3291-.92871,2.00098-2.27246,2.00098-.28809,0-.80078-.01562-1.52148-.04785l-.27148-1.04004c.63965.03125,1.18457.06348,1.64844.06348.73633,0,1.16895-.48047,1.29688-1.4248.11133-1.00781.17578-4.11328.20801-9.2998h-5.66602c-.56055,1.07324-1.26465,2.0332-2.12891,2.86523l-.7207-.92773c1.34473-1.3125,2.24121-2.89746,2.70508-4.78613l1.15234.16016ZM114.89832,84.2792v7.33105h-4.89844v-7.33105h4.89844ZM113.80945,87.43252v-2.16113h-2.68848v2.16113h2.68848ZM113.80945,88.39346h-2.68848v2.22461h2.68848v-2.22461Z"/>
      </g>
      <g>
        <path class="cls-1" d="M256.77234,85.62392c.47949-.88086.94434-1.74512,1.37598-2.60938l1.18457.35254c-.41602.7998-.81641,1.55273-1.2002,2.25684h8.27539v1.12012h-3.15332c-.65625,1.69727-1.40918,3.02539-2.25684,4.01758,1.64844.70508,3.3291,1.53711,5.02539,2.49707l-.76758,1.00879c-1.69727-.99219-3.39355-1.88867-5.09082-2.65723-1.79199,1.60059-4.16113,2.43262-7.13867,2.5293l-.67188-1.07227c2.7207-.0166,4.94531-.67285,6.64258-1.96875-1.50488-.64062-2.99316-1.20117-4.48242-1.68066.57715-.89648,1.12109-1.79297,1.63281-2.67383h-3.85742v-1.12012h4.48242ZM265.97546,84.61514h-1.18457v-2.32031h-10.93262v2.30469h-1.18359v-3.42578h6.08203c-.22363-.54395-.46387-1.02441-.73633-1.47266l1.28027-.22363c.25684.51172.49609,1.07227.7207,1.69629h5.9541v3.44141ZM256.16394,88.95303c1.21582.35254,2.44824.80078,3.71289,1.3291.86426-.94434,1.56934-2.12891,2.11328-3.53809h-4.48145c-.48047.83301-.92871,1.56934-1.34473,2.20898Z"/>
        <path class="cls-1" d="M269.29773,94.13955l-.25586-1.12109c.46387.03223.91211.06445,1.3291.06445.44727,0,.6875-.19238.6875-.57617v-3.8252c-.57617.22363-1.16797.44824-1.76074.63965l-.27148-1.16797c.68848-.17676,1.36035-.38477,2.03223-.64062v-3.72949h-1.72852v-1.10449h1.72852v-3.02539h1.12109v3.02539h1.42383v1.10449h-1.42383v3.26562c.52832-.25684,1.04004-.5127,1.55273-.80078v1.18457c-.5127.27246-1.02441.52832-1.55273.76855v4.59375c0,.89648-.48047,1.34473-1.40918,1.34473h-1.47266ZM277.71765,79.62099v14.66211h-1.10449v-3.52148h-3.15332v-1.05566h3.15332v-2.76953h-2.25684v-1.05664h2.25684v-2.65723h-2.5127v-1.04004h2.5127v-2.56152h1.10449ZM280.74304,79.62099v2.56152h2.73633v1.04004h-2.73633v2.65723h2.40039v1.05664h-2.40039v2.76953h2.84863v1.05566h-2.84863v3.52148h-1.12109v-14.66211h1.12109Z"/>
        <path class="cls-1" d="M293.66882,79.60537c2.0332,2.27344,4.37012,4.06543,7.01172,5.37793l-.625,1.10449c-2.65723-1.39258-4.91406-3.2168-6.80273-5.45801-1.72852,2.11328-4.01758,3.9375-6.86621,5.47461l-.6084-1.10449c2.81738-1.44043,5.16992-3.2334,7.05859-5.39453h.83203ZM299.70398,87.73721v1.12012h-7.53906c-.76855,1.50488-1.69727,2.81738-2.78516,3.95312,2.6084-.16016,5.08984-.38379,7.45898-.7041-.54395-.7041-1.13672-1.44043-1.79297-2.17676l.89648-.57617c1.45605,1.63281,2.57715,3.04102,3.36133,4.24121l-.95996.67285c-.27246-.43262-.56055-.86426-.88086-1.3125-2.49707.39941-5.65039.71973-9.47559.94434l-.32031-1.00879c.28809-.08008.48047-.17578.6084-.30371,1.02441-1.18457,1.88867-2.41699,2.57715-3.72949h-4.01758v-1.12012h12.86914ZM297.20691,84.51943v1.08887h-7.85938v-1.08887h7.85938Z"/>
        <path class="cls-1" d="M306.38757,84.50381v6.91406c.51172-.44824,1.04004-.94434,1.61621-1.52051l.30469,1.23242c-.91211.89648-1.88867,1.71289-2.94531,2.44922l-.44824-1.05664c.24023-.19141.36816-.41602.36816-.67188v-6.24219h-2.35254v-1.10449h3.45703ZM307.53992,82.23037l-.78418.80078c-.65625-.80078-1.55273-1.63281-2.68945-2.51367l.80078-.75195c1.05664.83203,1.93652,1.64844,2.67285,2.46484ZM316.64734,80.56631c-.52832,3.77734-1.61621,6.85059-3.24902,9.21973,1.23242,1.48828,2.68945,2.65625,4.35352,3.52051l-.67188,1.00879c-1.66504-.91211-3.12109-2.1123-4.37012-3.61719-1.28027,1.56836-2.84863,2.76855-4.70605,3.61719l-.62402-.97656c1.8252-.83203,3.36133-2.03223,4.59375-3.58496-1.56836-2.14551-2.78516-4.77051-3.68164-7.875l.99316-.54492c.7998,2.97754,1.9209,5.47461,3.36133,7.49121,1.47266-2.24121,2.43262-5.05762,2.91309-8.4834l1.08789.22461ZM313.65417,83.079l-.91211.62402c-.6084-1.12012-1.37695-2.28906-2.30469-3.53711l.86426-.62402c1.02441,1.34375,1.80859,2.5127,2.35254,3.53711Z"/>
      </g>
      <g>
        <path class="cls-1" d="M451.51062,94.13955l-.24023-1.12109c.44824.03223.86426.06445,1.28027.06445.38477,0,.59277-.20801.59277-.6084v-3.90527c-.6084.24023-1.23242.46387-1.85645.65625l-.27246-1.15234c.7207-.17676,1.4248-.40039,2.12891-.67285v-3.61719h-1.93652v-1.10449h1.93652v-3.02539h1.18457v3.02539h1.61621v1.10449h-1.61621v3.12109c.46387-.22363.92773-.44824,1.37598-.7041v1.16895c-.44824.23926-.91211.46387-1.37598.6875v4.72266c0,.89551-.46484,1.36035-1.37695,1.36035h-1.44043ZM465.22839,86.84072v1.02441h-4.00195v1.80859h3.3457v1.04004h-3.3457v2.06543c.64062.0957,1.39258.14355,2.27344.14355.83203,0,1.55273-.03223,2.14453-.08008l-.32031,1.12012c-.63965,0-1.23242-.01562-1.74414-.01562-2.11328-.0166-3.55371-.22461-4.32227-.6084-.6084-.32031-1.16797-.92773-1.64844-1.82422-.38379.99219-.91211,1.9043-1.60059,2.73633l-.84863-.73633c1.2168-1.47168,1.88867-3.13672,2.0166-4.96191l1.02441.1123c-.03125.57617-.11133,1.12109-.24023,1.66504.5127,1.07227,1.10449,1.76074,1.77734,2.06445.1123.04785.24023.09668.38379.14453v-4.67383h-4.0498v-1.02441h9.15625ZM464.17175,80.16592v5.55371h-6.97852v-5.55371h6.97852ZM463.05164,82.50283v-1.39258h-4.73828v1.39258h4.73828ZM463.05164,83.39931h-4.73828v1.37598h4.73828v-1.37598Z"/>
        <path class="cls-1" d="M468.15027,87.36904l-.38379-1.2168c1.74414-1.95312,3.00879-4.17773,3.80957-6.6748l1.08789.49609c-.41602,1.24902-.94434,2.43262-1.58398,3.53711v10.77246h-1.18457v-8.96289c-.52832.7041-1.10449,1.39258-1.74512,2.04883ZM474.80945,83.01455v-3.34473h1.18457v3.34473h2.86523v-3.34473h1.16797v3.34473h2.12891v1.12109h-2.12891v3.74512h2.57715v1.10449h-10.30859v-1.10449h2.51367v-3.74512h-2.06543v-1.12109h2.06543ZM476.34558,90.18545c-.83203,1.56934-1.82422,2.92969-2.96094,4.08203l-.99219-.7207c1.12012-1.07227,2.09668-2.35254,2.89648-3.85742l1.05664.49609ZM478.85925,87.88076v-3.74512h-2.86523v3.74512h2.86523ZM482.42859,93.53115l-1.02441.7041c-.73633-1.2168-1.74512-2.57715-3.00977-4.08105l.94434-.57715c1.34473,1.50488,2.36914,2.83398,3.08984,3.9541Z"/>
        <path class="cls-1" d="M490.42468,87.17666c-.6084.30371-1.2168.5918-1.84082.84863v4.76953c0,.95996-.46387,1.44043-1.39258,1.44043h-1.48828l-.25586-1.10449c.46387.04785.91211.08008,1.34473.08008.43164,0,.65625-.24023.65625-.68848v-4.0332c-.73633.27246-1.50488.52832-2.27344.76855l-.28809-1.13672c.87988-.20801,1.72852-.46387,2.56152-.75195v-3.71387h-2.32129v-1.10449h2.32129v-2.89746h1.13574v2.89746h1.79297v1.10449h-1.79297v3.26562c.62402-.27246,1.23242-.56055,1.84082-.88086v1.13672ZM492.39343,94.2831h-1.08789v-14.02148h7.02637c0,1.77637-.0957,2.96094-.27246,3.55371-.19141.57617-.7998.87988-1.82422.87988h-1.15234l-.32031-1.00781c.25586,0,.56055.01562.94434.01562s.68848-.03223.88086-.06348c.17578-.06445.31934-.17676.43164-.36816.1123-.30469.17578-.96094.20801-1.95312h-4.83398v4.67383h6.08301v.99219c-.32031,1.69727-.88086,3.15332-1.71289,4.35352.76855.73633,1.71289,1.40918,2.83301,2.0332l-.76855.87988c-1.05664-.67188-1.96875-1.36035-2.70508-2.09668-.76855.88086-1.71289,1.60059-2.80078,2.14453l-.56055-1.00781c1.02441-.51172,1.88867-1.16797,2.59277-1.96875-1.10352-1.3125-1.77637-2.7373-2.03223-4.27344h-.92871v7.23438ZM495.97937,90.49014c.63965-.97656,1.10449-2.12891,1.39258-3.44141h-3.00977c.22461,1.24805.75293,2.40039,1.61719,3.44141Z"/>
        <path class="cls-1" d="M502.16687,87.30459l-.38477-1.2168c1.56934-1.88867,2.72168-4.0498,3.42578-6.48242l1.08887.49609c-.33691,1.07227-.75293,2.09668-1.24902,3.07324v11.06055h-1.18457v-9.0752c-.51172.75195-1.08789,1.47266-1.69629,2.14453ZM511.4823,79.68545c.99219,2.14453,2.72168,4.01758,5.1543,5.63477l-.65625.97559c-2.24121-1.48828-3.92188-3.3291-5.02637-5.50586-1.28027,2.44922-2.88086,4.33789-4.81738,5.68262l-.64062-.97656c2.14453-1.48828,3.79395-3.42578,4.94629-5.81055h1.04004ZM509.51355,85.25576v2.41699c-.03223,3.02539-.81641,5.23438-2.35254,6.64258l-.86426-.75293c1.37598-1.21582,2.08008-3.18457,2.1123-5.88965v-2.41699h1.10449ZM513.64343,85.20791v8.93164h-1.12012v-8.93164h1.12012Z"/>
      </g>
      <g>
        <path class="cls-1" d="M616.06921,80.50185v1.12012h-2.41699c-.20801,1.29688-.51172,2.51367-.89551,3.63379h2.91309v7.2832h-2.80176v1.21582h-1.08789v-6.27441c-.27246.49609-.56055.96094-.84863,1.40918l-.67188-1.07324c1.15234-1.80859,1.9043-3.87305,2.27246-6.19434h-1.80859v-1.12012h5.3457ZM614.61316,91.49795v-5.18555h-1.74512v5.18555h1.74512ZM616.56531,94.23525l-.83203-.75195c.80078-1.15234,1.2002-2.625,1.23242-4.38574v-5.25c-.24023.22363-.47949.44824-.7041.63965l-.7207-.84766c1.26465-1.04102,2.30566-2.40137,3.12207-4.06641l1.10449.24023c-.16016.33594-.33691.65625-.49609.97656h3.85742v.81641c-.48047.7041-.96094,1.3125-1.44141,1.79297h2.68945v9.58789c0,.71973-.41602,1.08789-1.23242,1.08789h-1.18457l-.27246-1.04004c.40039.03223.76855.06348,1.12109.06348.32031,0,.48047-.17578.48047-.49609v-2.14453h-2.14551v3.53711h-1.04004v-3.53711h-2.16113c-.19238,1.50488-.64062,2.75293-1.37695,3.77734ZM621.79968,81.7665h-3.12109c-.40039.5918-.83203,1.13672-1.28027,1.63281h3.04102c.46387-.48047.91211-1.02441,1.36035-1.63281ZM618.03796,89.0331c0,.12793-.01562.27246-.01562.41602h2.08105v-2.04883h-2.06543v1.63281ZM618.03796,84.42373v1.95215h2.06543v-1.95215h-2.06543ZM623.28894,84.42373h-2.14551v1.95215h2.14551v-1.95215ZM623.28894,87.40029h-2.14551v2.04883h2.14551v-2.04883Z"/>
        <path class="cls-1" d="M639.33582,84.35928v1.08887h-4.06543v2.81641h4.76953v1.08887h-4.76953v3.31348c1.12012.16016,2.46484.25586,4.06543.27148.81641,0,1.64941-.03125,2.51367-.0957l-.20801,1.15234h-1.79297c-3.2334,0-5.53809-.30371-6.94727-.89648-1.05664-.49609-1.9209-1.26367-2.57715-2.30469-.62402,1.37695-1.39258,2.5293-2.30469,3.45703l-.73633-.91211c1.53711-1.63281,2.56152-3.8252,3.10547-6.57812l1.12012.19141c-.19141.99316-.44824,1.90527-.73633,2.7373.76855,1.37695,1.72852,2.24121,2.88184,2.60938.14355.04785.30371.0957.46387.12793v-6.97852h-4.19336v-1.08887h9.41113ZM641.16101,84.64736h-1.12109v-2.35254h-10.85156v2.43262h-1.12109v-3.48926h6.11523c-.24023-.57617-.5127-1.10449-.80078-1.58496l1.23242-.19141c.25586.52734.5127,1.12012.73633,1.77637h5.81055v3.40918Z"/>
        <path class="cls-1" d="M647.78015,86.03994l-.81543.81641c-.67285-.73633-1.58496-1.53613-2.75391-2.36914l.81641-.7998c1.10449.78418,2.01758,1.56836,2.75293,2.35254ZM647.92468,88.28115c-.73633,2.08105-1.55273,4.01758-2.46484,5.82617l-1.07227-.46484c.97559-1.8877,1.82422-3.79297,2.52832-5.74609l1.00879.38477ZM648.21277,82.16689l-.81641.83203c-.67188-.73633-1.60059-1.52051-2.78516-2.35352l.81641-.78418c1.10449.76855,2.0332,1.53711,2.78516,2.30566ZM658.79285,80.27822v1.08789h-3.26465v1.9209h2.81641v10.94824h-1.08789v-.7207h-7.1709v.76855h-1.08887v-10.99609h2.68945v-1.9209h-3.12109v-1.08789h10.22754ZM650.08582,84.32705v5.49023h7.1709v-1.56836h-1.53711c-.83203,0-1.24805-.41602-1.24805-1.23242v-2.68945h-1.71289v.94434c-.03223,1.63281-.64062,2.81738-1.8252,3.56934l-.76758-.65625c1.05566-.60742,1.60059-1.56836,1.61621-2.91309v-.94434h-1.69629ZM657.25671,92.45889v-1.60059h-7.1709v1.60059h7.1709ZM654.43933,83.28701v-1.9209h-1.66504v1.9209h1.66504ZM657.25671,84.32705h-1.8252v2.46484c0,.33691.17578.5127.52832.5127h1.29688v-2.97754Z"/>
        <path class="cls-1" d="M667.62195,94.04287h-1.12109v-.81543h-3.37695v.81543h-1.13672v-6.94629h5.63477v6.94629ZM666.50085,92.13857v-3.9375h-3.37695v3.9375h3.37695ZM672.93542,80.27822v5.2334h-8.81934v-5.2334h8.81934ZM671.78308,81.36611h-6.51465v3.05762h6.51465v-3.05762ZM675.06433,94.04287h-1.15234v-.81543h-3.50488v.81543h-1.13672v-6.94629h5.79395v6.94629ZM673.91199,92.13857v-3.9375h-3.50488v3.9375h3.50488Z"/>
        <path class="cls-1" d="M681.42859,84.00771v-2.30566c-.80078.12793-1.61719.22461-2.44922.28809l-.36816-1.02441c2.38477-.19141,4.37012-.5918,5.9707-1.2002l.54395.95996c-.83203.30469-1.68066.56055-2.57715.75293v2.5293h2.7373v1.07227h-2.7373v.7998c.92871.81641,1.85645,1.74512,2.80176,2.80176l-.67285.99219c-.83203-1.13672-1.53613-2.04883-2.12891-2.72168v7.21875h-1.12012v-7.10645c-.68848,1.52051-1.60059,2.89746-2.7373,4.12988l-.48047-1.24902c1.48926-1.4082,2.56152-2.99316,3.21777-4.75391v-.11133h-2.80176v-1.07227h2.80176ZM692.05652,93.64248h-1.12012v-1.26367h-3.88965v1.42383h-1.10449v-13.1084h6.11426v12.94824ZM690.9364,91.28994v-9.52344h-3.88965v9.52344h3.88965Z"/>
        <path class="cls-1" d="M698.64441,79.65322v3.02539h1.85742v1.10449h-1.85742v1.23242c.78418.80078,1.56934,1.69727,2.35352,2.67285l-.65625.97656c-.65625-1.00781-1.2168-1.80859-1.69727-2.41699v8.01953h-1.13574v-7.97168c-.5127,1.50488-1.16895,2.88184-1.96875,4.12988l-.49707-1.24805c1.15332-1.56934,1.96973-3.37793,2.46582-5.39453h-1.95312v-1.10449h1.95312v-3.02539h1.13574ZM703.28699,87.12881c-.5127,2.24023-1.26465,4.16113-2.22559,5.79395l-.99219-.64062c.99219-1.61621,1.71289-3.40918,2.16113-5.39355l1.05664.24023ZM702.80652,94.10732l-.22461-1.07227c.5127.03223.99316.06348,1.45703.06348.43262,0,.65625-.23926.65625-.7041v-6.83496h-3.90527v-1.10449h8.97949v1.10449h-3.92188v7.12305c0,.94434-.48047,1.4248-1.4082,1.4248h-1.63281ZM708.93738,80.56631v1.08789h-7.2998v-1.08789h7.2998ZM709.75281,92.60244l-1.04004.46484c-.52832-2.22559-1.10449-4.19434-1.72852-5.92285l1.04004-.33594c.67285,1.80859,1.24902,3.74512,1.72852,5.79395Z"/>
        <path class="cls-1" d="M719.7821,83.59072c1.98535,1.45703,4.29004,2.60938,6.89941,3.44141l-.56055.99316c-2.625-.89648-4.84961-2.04883-6.70703-3.49023-1.69629,1.34473-3.9375,2.49707-6.72266,3.47363l-.54395-.99219c2.75293-.92871,5.05762-2.06445,6.89844-3.42578h.73633ZM713.2196,84.21572l-.99219-.625c.99219-1.21582,1.71289-2.56055,2.16113-4.0332l1.12012.24023c-.12793.41602-.27246.7998-.41602,1.18457h4.20996v1.02441h-2.30566c.25684.55957.48047,1.08789.64062,1.56836l-1.05664.38379c-.20801-.67188-.44824-1.32812-.73633-1.95215h-1.21582c-.41699.7998-.88086,1.53613-1.40918,2.20898ZM724.28015,89.08096c-.41602,1.3291-.92871,2.5293-1.53613,3.58594h3.44141v1.07227h-13.50977v-1.07227h8.83496c.625-1.08887,1.16895-2.38477,1.64941-3.88965l1.12012.30371ZM716.75671,91.96279l-1.04004.27148c-.32031-1.02441-.73633-2.00098-1.24805-2.92871l1.04004-.33594c.46387.86426.87988,1.87207,1.24805,2.99316ZM723.57605,87.11221v1.02441h-8.30762v-1.02441h8.30762ZM720.19812,91.83486l-1.02441.27148c-.27148-1.08789-.60742-2.12891-1.02441-3.12109l1.05664-.33594c.36816.92773.7041,1.98438.99219,3.18555ZM720.43835,83.5751l-.97656-.62402c.75293-1.02441,1.29688-2.14551,1.63281-3.39355l1.10449.24023c-.12793.41602-.25586.7998-.38379,1.18457h4.67383v1.02441h-2.54492c.35156.6084.62402,1.16797.83203,1.71191l-1.05664.38477c-.28809-.7207-.60742-1.4248-.95996-2.09668h-1.39258c-.28809.55957-.5918,1.08789-.92871,1.56836Z"/>
        <path class="cls-1" d="M732.4364,84.53506v7.10742c.57617-.48047,1.20117-1.02441,1.85742-1.64844l.31934,1.21582c-1.00781.94434-2.08008,1.77734-3.20117,2.5127l-.44824-1.02344c.22461-.22461.35254-.46484.35254-.7207v-6.33887h-2.22461v-1.10449h3.34473ZM733.49304,82.27822l-.78418.80078c-.62402-.76855-1.47266-1.56836-2.56152-2.41699l.80078-.75195c1.00781.7998,1.85645,1.58398,2.54492,2.36816ZM742.39246,86.4081v1.05664c-.51172,1.50488-1.34473,2.80078-2.5127,3.88965,1.08789.75195,2.41699,1.4082,3.98535,1.98438l-.62402.99219c-1.66504-.67188-3.07324-1.42383-4.19336-2.28809-1.28125.95996-2.86523,1.71191-4.73828,2.28809l-.64062-.97656c1.77734-.52734,3.26562-1.21582,4.46582-2.06445-1.21582-1.12012-2.03223-2.36914-2.48047-3.76172h-.88086v-1.12012h7.61914ZM741.38464,80.22939v3.45801c0,.39941.20801.6084.62402.6084h1.47266v1.05566h-1.76074c-.99219,0-1.47266-.47949-1.47266-1.42383v-2.60938h-3.10547v.56055c0,1.69629-.83203,3.00879-2.46484,3.9375l-.76855-.88086c1.39258-.68848,2.09668-1.66406,2.09668-2.92871v-1.77734h5.37891ZM738.95105,90.63369c1.02441-.89648,1.79297-1.9209,2.30469-3.10547h-4.51367c.41602,1.15332,1.15234,2.19336,2.20898,3.10547Z"/>
        <path class="cls-1" d="M749.50867,84.50381v7.12207c.57617-.47949,1.2168-1.02441,1.88867-1.66406l.28809,1.18457c-.99219.95996-2.06445,1.80859-3.20117,2.56055l-.44824-1.04004c.24023-.19238.36816-.41602.36816-.67285v-6.38574h-2.35254v-1.10449h3.45703ZM750.66101,82.23037l-.78418.80078c-.67188-.78418-1.60059-1.61719-2.75293-2.48145l.7998-.78418c1.08887.81641,2.00098,1.63281,2.7373,2.46484ZM755.39929,84.40713v-4.81738h1.18457v4.81738h4.11328v1.15234h-4.11328v8.75586h-1.18457v-8.75586h-4.33789v-1.15234h4.33789Z"/>
      </g>
      <g>
        <path class="cls-1" d="M841.20007,87.36904l-.73633-.94434c1.50391-1.56934,2.52832-3.69824,3.05664-6.37109l1.16797.20801c-.17578.83203-.38379,1.60059-.62305,2.32129h3.4248v-2.84961h1.16895v2.84961h5.26562v1.12012h-5.26562v3.69727h4.94531v1.12109h-4.94531v4.06543h6.29004v1.15234h-14.10156v-1.15234h6.64258v-4.06543h-4.70605v-1.12109h4.70605v-3.69727h-3.8418c-.63965,1.45703-1.45605,2.67285-2.44824,3.66602Z"/>
        <path class="cls-1" d="M865.53796,81.25381h5.61914v1.10449h-2.78516c-.19238.84863-.44922,1.66504-.78516,2.43359h3.90625v1.10449h-11.49219v2.36816c-.06445,2.49707-.64062,4.49805-1.74609,6.00293l-.87988-.78418c.92871-1.24902,1.4248-2.99316,1.45703-5.21875v-3.47266h3.28125l-.67285-2.43359h-2.92871v-1.10449h5.8584c-.22461-.6084-.49609-1.15234-.78418-1.64844l1.2002-.20801c.25586.54395.51172,1.16895.75195,1.85645ZM866.48328,84.79189c.35156-.76855.62305-1.58496.7832-2.43359h-4.68945l.67188,2.43359h3.23438Z"/>
        <path class="cls-1" d="M883.55554,89.14541v1.10449h-9.04492v-1.10449h9.04492ZM878.46472,79.6376l-.22363,2.14453h9.69922v1.10449h-9.81152l-.27246,2.60938h8.99609c0,4.35352-.30469,6.86621-.91211,7.55469-.59375.65625-1.87305.99219-3.82617.99219-.51172,0-1.04102-.03223-1.58398-.06348l-.30469-1.05664c.78418.06445,1.32812.1123,1.64844.1123,1.80859,0,2.89648-.30469,3.25-.91211.36719-.65625.56055-2.51367.56055-5.55469h-9.1084l.75293-7.02637,1.13574.0957Z"/>
        <path class="cls-1" d="M902.42078,86.55264c-.76953,1.47266-1.69727,2.73633-2.80273,3.80957,1.73047,1.24805,3.82617,2.17676,6.32422,2.81641l-.7207,1.07227c-2.59375-.73633-4.75391-1.75977-6.48242-3.10449-1.79297,1.44043-3.9707,2.49609-6.53125,3.16895l-.70508-1.05664c2.5293-.63965,4.62695-1.60059,6.30664-2.88086-1.16797-1.05664-2.12891-2.27246-2.88086-3.61719l.99219-.56055c.70508,1.3125,1.63281,2.44922,2.76953,3.42578,1.08789-1.02441,1.98438-2.19336,2.67383-3.53809l1.05664.46484ZM898.20984,81.51064c-.28711-.65625-.60742-1.24902-.95898-1.79297l1.2793-.22461c.32031.6084.64062,1.28125.92773,2.01758h6.30664v1.10449h-14.16406v-1.10449h6.60938ZM896.88171,83.84756c-1.2168,1.58398-2.7207,2.97656-4.51367,4.16113l-.73633-.97656c1.74414-1.12012,3.2168-2.41699,4.41797-3.9209l.83203.73633ZM905.66882,87.30459l-.84766.84863c-1.05664-1.34473-2.5293-2.76953-4.40234-4.30566l.78516-.75293c1.77539,1.40918,3.26562,2.80176,4.46484,4.20996Z"/>
        <path class="cls-1" d="M912.94617,79.97353c-.35352,1.12012-.80078,2.16113-1.3125,3.15332v11.18848h-1.15234v-9.2832c-.57812.84766-1.23438,1.64844-1.95312,2.41699l-.35352-1.20117c1.69727-1.96875,2.92969-4.22559,3.69922-6.78613l1.07227.51172ZM919.41296,83.079v-3.44141h1.15234v3.44141h2.30469v1.12012h-2.30469v8.35547c0,1.08789-.51367,1.63281-1.50586,1.63281h-2.32031l-.25586-1.13672c.75195.04785,1.47266.08008,2.17578.08008.49609,0,.75391-.28809.75391-.86426v-8.06738h-6.13086v-1.12012h6.13086ZM917.57117,89.72158l-.97656.68848c-.6875-1.16895-1.61719-2.46484-2.78516-3.88965l.94531-.57617c1.2168,1.44043,2.16016,2.70508,2.81641,3.77734Z"/>
      </g>
    </g>
  </g>
</svg>