<?xml version="1.0" encoding="UTF-8"?>
<svg id="_レイヤー_2" data-name="レイヤー_2" xmlns="http://www.w3.org/2000/svg" viewBox="0 0 362.33008 70.03125">
  <defs>
    <style>
      .cls-1 {
        fill: #231815;
      }

      .cls-2 {
        fill: #f6f2e7;
      }

      .cls-3 {
        fill: #fff;
      }
    </style>
  </defs>
  <g id="_レイヤー_1-2" data-name="レイヤー_1">
    <g>
      <g>
        <path class="cls-1" d="M327.31445,0c-19.30762,0-35.01562,15.70801-35.01562,35.01562,0,.67371.02368,1.3418.06152,2.00623l-.29102-.03308c-.95215-.10693-1.90405-.23877-2.85376-.38525.02368-.52686.04028-1.05542.04028-1.58789,0-19.30762-15.70801-35.01562-35.01562-35.01562-18.78833,0-34.16211,14.87427-34.97729,33.46436-1.04211.15991-2.07104.33154-3.10864.50903-.55469-18.82617-16.03125-33.97339-34.98926-33.97339-18.62012,0-33.88696,14.6106-34.95105,32.96851-.64709-.01562-1.27759-.03357-1.5802-.04944-.54346-.02856-1.07373-.07935-1.6062-.12598C141.87622,14.51794,126.65027,0,108.08984,0c-19.25012,0-34.91821,15.61548-35.01123,34.84424-1.01587.13745-2.03296.26392-3.05249.37219.00049-.06726.00513-.13342.00513-.20081C70.03125,15.70801,54.32324,0,35.01562,0S0,15.70801,0,35.01562s15.70801,35.01562,35.01562,35.01562c18.72705,0,34.06592-14.77783,34.97168-33.28418,1.01892-.09302,2.06519-.19763,3.12305-.31104.74866,18.65088,16.14819,33.59521,34.97949,33.59521,19.30762,0,35.01562-15.70801,35.01562-35.01562,0-.32056-.01562-.63721-.02417-.95557.63293.01978,1.74084.04858,3.09033.08105-.0072.29163-.02222.5813-.02222.87451,0,19.30762,15.70801,35.01562,35.01562,35.01562,19.29761,0,34.99854-15.69189,35.01489-34.9856,1.01318-.18945,2.03345-.35425,3.05566-.5-.0022.1571-.01196.31226-.01196.46997,0,19.30762,15.70801,35.01562,35.0166,35.01562,18.41504,0,33.54443-14.29199,34.90503-32.36499,1.02356.16064,2.0498.32031,3.06055.47192.08081.01221.16162.0249.24243.03699,1.60327,17.83179,16.62415,31.85608,34.86621,31.85608,19.30762,0,35.01562-15.70801,35.01562-35.01562S346.62207,0,327.31445,0Z"/>
        <circle class="cls-2" cx="327.31457" cy="35.01594" r="34.01575"/>
        <g>
          <path class="cls-3" d="M315.17082,20.25874c-5.98901,0-9.56433,5.54004-9.56433,14.81946,0,7.10394,2.51257,14.69495,9.56433,14.69495,4.62378,0,9.56433-3.86041,9.56433-14.69495,0-7.16419-2.51257-14.81946-9.56433-14.81946ZM315.17082,49.55452c-3.78296,0-5.62207-4.73529-5.62207-14.47632,0-9.85291,1.83911-14.6424,5.62207-14.6424,3.70276,0,5.58032,4.92645,5.58032,14.6424,0,9.60571-1.87756,14.47632-5.58032,14.47632Z"/>
          <path class="cls-3" d="M338.1751,49.77315c6.69104,0,10.84754-3.47443,10.84754-9.06757,0-5.31555-3.66724-8.36426-10.06128-8.36426-1.79846,0-3.39514.22797-5.02478.71722l-.90894.27283.64636-9.33765h14.35474v-3.07306h-14.74622l-.91846,12.73902.56799.29352c1.37219-.44751,2.79932-.64838,4.5813-.64838,4.49304,0,7.0697,2.92365,7.0697,8.02112,0,5.0755-2.78796,8.22858-7.27625,8.22858-.99207,0-1.80945-.12524-2.6499-.40631l-.36182-.12085-.7771-3.93219c-.38965-2.37946-1.19019-2.57465-2.04602-2.57465-.48889,0-1.34729.14502-1.76843,1.08508.56689,3.97907,3.56836,6.16754,8.47156,6.16754Z"/>
        </g>
        <circle class="cls-2" cx="254.23977" cy="35.01594" r="34.01575"/>
        <g>
          <path class="cls-3" d="M240.68165,20.25892c-5.98901,0-9.5647,5.53967-9.5647,14.81909,0,7.10413,2.51257,14.69495,9.5647,14.69495,4.62378,0,9.56433-3.86023,9.56433-14.69495,0-7.16419-2.51257-14.81909-9.56433-14.81909ZM240.68165,49.55433c-3.78296,0-5.62207-4.73511-5.62207-14.47632,0-9.85254,1.83911-14.64221,5.62207-14.64221,3.70276,0,5.58032,4.92627,5.58032,14.64221,0,9.60571-1.87756,14.47632-5.58032,14.47632Z"/>
          <path class="cls-3" d="M275.23659,39.00306h-4.67615v-18.28894h-2.76782l-13.00818,18.54309v2.07532h12.16443v7.77869h3.61157v-7.77869h4.67615v-2.32947ZM266.94887,39.00306h-11.81067l11.81067-16.75379v16.75379Z"/>
        </g>
        <circle class="cls-2" cx="181.16496" cy="35.01594" r="34.01575"/>
        <g>
          <path class="cls-3" d="M169.12459,20.25874c-5.98883,0-9.56433,5.54004-9.56433,14.81946,0,7.10394,2.51257,14.69495,9.56433,14.69495,4.62378,0,9.56433-3.86041,9.56433-14.69495,0-7.16419-2.51257-14.81946-9.56433-14.81946ZM169.12459,49.55452c-3.78296,0-5.62189-4.73529-5.62189-14.47632,0-9.85291,1.83893-14.6424,5.62189-14.6424,3.70276,0,5.58032,4.92645,5.58032,14.6424,0,9.60571-1.87756,14.47632-5.58032,14.47632Z"/>
          <g>
            <path class="cls-3" d="M186.46047,26.84962c.81958,0,1.80139-.24371,2.12476-2.14362l.00989-.04742.95618-3.86774c-2.65723.84576-4.30884,2.66638-4.61023,5.21869.31714.53632.86206.84009,1.51941.84009Z"/>
            <path class="cls-3" d="M188.46621,49.17952l-.82764-3.9538c-.4248-2.50342-1.21582-2.7052-2.13025-2.7052-.36182,0-1.22461.11005-1.68494,1.09332.43799,3.19849,2.36572,4.81,4.64282,5.56567Z"/>
            <path class="cls-3" d="M202.76967,41.90584c0-3.9494-2.47156-6.25507-7.55567-7.04865l-3.36768-.5257,3.3219-.76227c4.43958-1.01898,6.69067-3.28162,6.69067-6.72528,0-4.12354-3.1886-6.58521-8.52905-6.58521-1.16272,0-2.22583.1236-3.17651.36145.67566-.12726,1.21436-.18439,1.72705-.18439,3.75732,0,5.91248,2.38074,5.91248,6.53156,0,4.53095-2.62793,7.23596-7.02942,7.23596h-.87488v.34204h1.16528c4.77246,0,7.40076,2.65778,7.40076,7.4837,0,4.85284-2.6283,7.52545-7.40076,7.52545-.75439,0-1.47034-.08752-2.18774-.2677l-.30762-.07709c1.31763.42224,2.74622.56342,4.06677.56342,6.1626,0,10.14441-3.08807,10.14441-7.86731Z"/>
          </g>
        </g>
        <circle class="cls-2" cx="108.09016" cy="35.01594" r="34.01575"/>
        <g>
          <path class="cls-3" d="M96.06864,20.25892c-5.98883,0-9.56415,5.53967-9.56415,14.81909,0,7.10413,2.51257,14.69495,9.56415,14.69495,4.6236,0,9.56415-3.86023,9.56415-14.69495,0-7.16419-2.51257-14.81909-9.56415-14.81909ZM96.06864,49.55506c-3.78296,0-5.62189-4.73547-5.62189-14.47705,0-9.85291,1.83893-14.64258,5.62189-14.64258,3.70276,0,5.58014,4.92664,5.58014,14.64258,0,9.60645-1.87738,14.47705-5.58014,14.47705Z"/>
          <g>
            <path class="cls-3" d="M120.27629,20.25892c-.8606,0-1.67816.06995-2.44592.20435.22449-.01831.44696-.02783.66687-.02783,3.6416,0,5.99451,2.72644,5.99451,6.94592,0,4.03418-1.69592,7.16638-6.7207,12.41272-2.06763,2.11011-4.41852,4.58716-6.64508,7.00195v2.31519h18.54987v-3.07398h-17.79438l2.47998-2.12732c1.59412-1.37073,3.09998-2.66492,4.18689-3.51416,7.6084-5.87549,10.17536-9.10693,10.17536-12.8075,0-4.72632-3-7.32935-8.44739-7.32935Z"/>
            <path class="cls-3" d="M111.02159,26.5973c.38049.67163,1.0014,1.03894,1.7655,1.03894.70441,0,1.69135-.27063,2.12714-2.60925l.01007-.04541,1.05249-4.03455c-2.77423.99023-4.59686,2.99377-4.9552,5.65027Z"/>
          </g>
        </g>
        <circle class="cls-2" cx="35.01536" cy="35.01594" r="34.01575"/>
        <g>
          <path class="cls-3" d="M23.49217,20.25874c-5.98883,0-9.56433,5.54004-9.56433,14.81946,0,7.10394,2.51257,14.69495,9.56433,14.69495,4.62378,0,9.56433-3.86041,9.56433-14.69495,0-7.16419-2.51257-14.81946-9.56433-14.81946ZM23.49217,49.55452c-3.78296,0-5.62189-4.73529-5.62189-14.47632,0-9.85291,1.83893-14.6424,5.62189-14.6424,3.70276,0,5.58032,4.92645,5.58032,14.6424,0,9.60571-1.87756,14.47632-5.58032,14.47632Z"/>
          <path class="cls-3" d="M50.21917,20.53541l-.07159-.05603-9.61487,2.28973v.28748l5.37946-.53833v17.52558c0,2.55835-.04193,5.15479-.12488,7.71698l-.01813.56232-6.10529.74249v.04559h16.43903v-.04816l-5.89893-.74231-.01813-.55994c-.08258-2.55103-.12433-5.14728-.12433-7.71698v-13.15943l.15765-6.349Z"/>
        </g>
      </g>
      <g>
        <path class="cls-1" d="M20.3133,40.93195c-.63965-.00977-1.16895-.07031-1.56934-.17969-.39941-.12012-.74902-.37012-1.05957-.72949-.13965-.16992-.26953-.25-.38965-.25-.23926,0-.62988.45996-1.16895,1.37891l-.54004-.48926c.51953-.83984.98926-1.34961,1.38965-1.5293v-3.03809h-1.41992v-.66016h2.08887v3.73828c.08008.05957.16016.12988.25.22949.24023.29004.5.5.78027.62988.30957.13965.75879.21973,1.3584.24023.53027.00977,1.18945.01953,1.96973.01953.46973,0,.94922-.00977,1.43848-.01953.48047-.01074.85938-.02051,1.12012-.04004l-.16992.71875h-2.28906c-.5498,0-1.14941-.00977-1.78906-.01953ZM18.01447,33.68585l-.50977.5c-.41992-.5-.98926-1.0293-1.71875-1.58887l.48926-.46973c.68945.51953,1.26953,1.03906,1.73926,1.55859ZM18.2342,35.71515l-.20996-.67969c.76953-.91992,1.30957-1.91895,1.61914-2.99902l.66992.12012c-.12012.37988-.25.74023-.41016,1.08984h1.80957c-.16016-.37988-.34961-.75-.55957-1.09961l.64941-.17969c.24023.41992.41992.81934.5498,1.17871l-.27051.10059h2.13965v.65918h-1.91895v1.16992h1.61914v.62891h-1.61914v1.16016h1.62891v.62891h-1.62891v1.22949h1.99805v.64941h-5.2666v-4.63672c-.25.33984-.51953.66895-.7998.97949ZM21.62287,33.90558h-1.90918v1.16992h1.90918v-1.16992ZM21.62287,35.70441h-1.90918v1.16016h1.90918v-1.16016ZM21.62287,37.49347h-1.90918v1.22949h1.90918v-1.22949Z"/>
        <path class="cls-1" d="M28.33479,32.35675c-.56055,1.10938-1.45996,2.08887-2.69922,2.93848l-.20996-.71973c1.04004-.73926,1.78906-1.5791,2.25879-2.51855l.65039.2998ZM28.80451,34.63507c-.29004.55957-.65039,1.09961-1.08984,1.59961v4.89648h-.70996v-4.16699c-.39941.35938-.8291.70996-1.30859,1.03906l-.20996-.71973c1.21875-.85938,2.1084-1.83887,2.66797-2.94824l.65039.2998ZM34.49104,35.14484v.70996h-1.61914v4.36719c0,.58008-.33008.87012-.96973.87012h-1.46875l-.15039-.70996c.48047.03027.92969.0498,1.36914.0498.32031,0,.49023-.12988.49023-.38965v-4.1875h-3.14844v-.70996h5.49707ZM34.05158,32.60675v.70898h-4.78809v-.70898h4.78809Z"/>
        <path class="cls-1" d="M36.91486,33.2757c-.14941-.39941-.31934-.78906-.51953-1.14844l.68945-.19043c.20996.43945.37012.84961.47949,1.20898l-.33984.12988h1.46973v.66992h-3.16895v-.66992h1.38965ZM36.4549,41.13117h-.67969v-3.51758h2.68848v3.3584h-.65918v-.46973h-1.34961v.62891ZM38.37385,34.73566v.62891h-2.50879v-.62891h2.50879ZM38.37385,36.1048v.63965h-2.50879v-.63965h2.50879ZM37.80451,38.25324h-1.34961v1.58887h1.34961v-1.58887ZM39.03401,35.56476l-.41992-.5498c.75977-.83887,1.2793-1.87891,1.54883-3.09766l.7002.09961c-.08008.33984-.18066.66992-.28027.98926h3.62793c0,3.6582-.0498,5.92676-.14941,6.78613-.10059.83984-.56055,1.26953-1.39941,1.26953-.20996,0-.57031-.02051-1.08984-.04004l-.16992-.65918c.44043.01953.83008.04004,1.15918.04004.48047,0,.75977-.2998.83008-.88965.07031-.62988.10938-2.5791.12988-5.84668h-3.20801c-.2002.41895-.41992.79883-.66992,1.14941h2.72852v4.59668h-2.86816v-4.40723c-.16016.2002-.31055.37988-.46973.55957ZM41.72248,36.78449v-1.35938h-1.55957v1.35938h1.55957ZM41.72248,37.3841h-1.55957v1.41895h1.55957v-1.41895Z"/>
        <path class="cls-1" d="M49.53401,36.11457h-2.81836v4.99707h-.71973v-8.79492h3.53809v3.79785ZM48.81428,32.95636h-2.09863v.96973h2.09863v-.96973ZM46.71565,35.47492h2.09863v-.93945h-2.09863v.93945ZM51.92268,36.92414v2.96875h-3.83789v-2.96875h3.83789ZM51.22346,37.56378h-2.43945v1.68945h2.43945v-1.68945ZM50.42365,36.11457v-3.79785h3.58789v7.92578c0,.54883-.28027.8291-.83008.8291-.34961,0-.69922-.00977-1.03906-.01953l-.17969-.68945c.33984.01953.64941.04004.94922.04004.25977,0,.38965-.12988.38965-.39062v-3.89746h-2.87793ZM53.30158,32.96613h-2.1582v.95996h2.1582v-.95996ZM51.14338,35.46515h2.1582v-.92969h-2.1582v.92969Z"/>
      </g>
      <g>
        <path class="cls-1" d="M91.48908,35.72492c.29883-.54883.58984-1.08984.85938-1.62891l.73926.21973c-.25977.5-.50977.96973-.74902,1.40918h5.16699v.69922h-1.96973c-.40918,1.06055-.87891,1.88965-1.4082,2.50977,1.0293.43945,2.07812.95898,3.1377,1.55859l-.47949.62891c-1.05957-.61914-2.11914-1.17871-3.17773-1.6582-1.12012.99902-2.59961,1.51953-4.45801,1.57812l-.41992-.66895c1.69922-.00977,3.08887-.41895,4.14746-1.22949-.93945-.39941-1.86914-.75-2.79883-1.04883.36035-.56055.7002-1.11914,1.01953-1.66992h-2.4082v-.69922h2.79883ZM97.23518,35.09601h-.73926v-1.44922h-6.82617v1.43848h-.73926v-2.13867h3.79688c-.13867-.33984-.28906-.63965-.45898-.91895l.79883-.14062c.16016.32031.31055.66992.45117,1.05957h3.7168v2.14941ZM91.1092,37.80402c.75879.21973,1.52832.49902,2.31836.8291.54004-.58984.97949-1.3291,1.31934-2.20898h-2.79883c-.29883.51953-.5791.98047-.83887,1.37988Z"/>
        <path class="cls-1" d="M98.72053,41.04132l-.16016-.69922c.29004.02051.56934.04102.8291.04102.28027,0,.42969-.12109.42969-.36035v-2.38867c-.35938.13965-.72852.28027-1.09863.39941l-.16992-.72949c.42969-.11035.84863-.23926,1.26855-.39941v-2.3291h-1.0791v-.68945h1.0791v-1.88965h.7002v1.88965h.88965v.68945h-.88965v2.03906c.3291-.15918.64941-.31934.96973-.49902v.73828c-.32031.16992-.64062.33008-.96973.48047v2.86816c0,.55957-.2998.83887-.87988.83887h-.91895ZM103.97736,31.97687v9.1543h-.68945v-2.19727h-1.96875v-.66016h1.96875v-1.72852h-1.40918v-.66016h1.40918v-1.65918h-1.56934v-.64941h1.56934v-1.59961h.68945ZM105.86604,31.97687v1.59961h1.70898v.64941h-1.70898v1.65918h1.5v.66016h-1.5v1.72852h1.7793v.66016h-1.7793v2.19727h-.69922v-9.1543h.69922Z"/>
        <path class="cls-1" d="M108.87971,34.94562l-.37891-.59961c1.60938-.67969,3.06836-1.45898,4.36719-2.34961h.43945c1.29883.88086,2.75977,1.66016,4.36719,2.33008l-.37891.59961c-.81055-.38086-1.54883-.75-2.22852-1.12012v.41992h-3.96875v-.38965c-.67969.36914-1.41797.73926-2.21875,1.10938ZM116.59651,34.76593v2.54883h-7.01758v-2.54883h7.01758ZM116.23713,41.15265h-.69141v-.38086h-4.90625v.39062h-.68945v-3.30859h6.28711v3.29883ZM112.75861,35.31476h-2.51953v1.45898h2.51953v-1.45898ZM115.54572,39.04328v-.65039h-4.90625v.65039h4.90625ZM115.54572,40.20246v-.64941h-4.90625v.64941h4.90625ZM112.01838,36.51398l-.49023.12109c-.13867-.36035-.31836-.68945-.51953-1.00977l.49023-.16016c.19922.2998.36914.65039.51953,1.04883ZM113.08869,32.6175c-.53125.35938-1.10938.70898-1.73047,1.06836h3.48828c-.63867-.35938-1.22852-.70898-1.75781-1.06836ZM115.93635,35.31476h-2.51953v1.45898h2.51953v-1.45898ZM115.14729,35.59503c-.13086.39941-.30078.73926-.5,1.04004l-.49023-.16992c.17969-.25977.34961-.58984.5-.99023l.49023.12012Z"/>
        <path class="cls-1" d="M120.53986,33.10578l-.36914.14062h1.38867v.66016h-2.94922v-.66016h1.30078c-.14062-.40039-.31055-.76953-.50977-1.11914l.67969-.2002c.19922.44043.34961.8291.45898,1.17871ZM119.51057,41.1214h-.66016v-3.53711h2.51953v3.38867h-.65039v-.48047h-1.20898v.62891ZM121.28986,34.69562v.62988h-2.35938v-.62988h2.35938ZM121.28986,36.1048v.63965h-2.35938v-.63965h2.35938ZM120.71955,38.22296h-1.20898v1.60938h1.20898v-1.60938ZM122.98908,37.42414v-.59961c-.32031.0293-.66016.0498-1.00977.0498l-.17969-.49902c.99805-.01074,1.83789-.13086,2.50781-.37109l.25977.46094c-.2793.11914-.59961.20898-.94922.26953v.68945h1.39844c-.01953-.41992-.0293-.87891-.0293-1.35938h.61914c0,.5.00977.95898.03125,1.35938h1.75781v.55957h-1.71875c.04102.54004.10938.97949.18945,1.31934.36133-.32031.66992-.67969.91016-1.05957l.44922.33984c-.31836.50977-.68945.9502-1.12891,1.30957.18945.37988.41016.56934.65039.58984.16992,0,.31836-.34961.44922-1.03906l.49023.33984c-.15039.50977-.29102.85938-.42969,1.04883-.15039.17969-.32031.26953-.50977.26953-.45117,0-.83008-.28906-1.15039-.84961-.39844.25-.81836.45996-1.2793.63086l-.25-.57031c.48047-.16992.90039-.37988,1.2793-.62012-.13867-.43945-.22852-1.00879-.28906-1.70898h-1.43945v.81934c.38086-.08008.73047-.16016,1.0293-.25v.56055c-.28906.08984-.62891.17969-1.0293.25977v.88867c0,.51953-.2793.7793-.83984.7793h-.79883l-.13086-.5791c.24023.02051.48047.04004.7207.04004.2793,0,.41992-.12988.41992-.38965v-.62988c-.37109.05078-.75977.09961-1.17969.15039l-.08984-.61914c.45898-.03125.88867-.07031,1.26953-.11133v-.91895h-1.23047v-.55957h1.23047ZM123.24885,32.83625c-.13086-.23926-.28125-.45898-.46094-.66992l.63086-.21875c.18945.25.35938.54883.51953.88867h1.26953c.19922-.29883.37891-.60938.53906-.93945l.64062.2207c-.14062.25977-.29102.5-.46094.71875h1.47852v.56055h-2.47852v.5791h2.07031v.5498h-2.07031v.60938h2.57031v.56055h-5.63867v-.56055h2.41992v-.60938h-2.03906v-.5498h2.03906v-.5791h-2.42969v-.56055h1.40039ZM127.46565,36.67414l-.29883.4502c-.40039-.28027-.82031-.48926-1.24023-.63965l.31055-.44922c.44922.17969.85938.38867,1.22852.63867Z"/>
      </g>
      <g>
        <path class="cls-1" d="M232.19904,24.59308v.7002h-1.34863c-.13086.79883-.32031,1.54883-.56055,2.24805h1.73926v5.2373h-.63965v-.54004h-1.04883v.64062h-.62988v-3.99805c-.16992.31934-.35059.62891-.5498.92969l-.37988-.60059c.7002-1.13867,1.15918-2.44824,1.37988-3.91699h-1.05078v-.7002h3.08887ZM231.38947,31.57941v-3.37793h-1.04883v3.37793h1.04883ZM237.83674,26.87238h-.66016v-1.18945h-2.10938c-.19922.63965-.42969,1.21875-.67969,1.75879h1.12988c-.11035-.33984-.22949-.67969-.37012-1.00977l.62988-.16992c.16016.42969.29004.82031.38965,1.17969h1.5293v.62988h-1.56934v.92969h1.39941v.61914h-1.39941v.95996h1.41895v.61914h-1.41895v1.0293h1.8291v.63965h-4.08789v.36035h-.67969v-3.83789c-.21973.2793-.43945.5293-.67969.76953l-.41992-.50977c1.00977-1.05957,1.76953-2.37891,2.26953-3.96777h-1.17969v1.37891h-.66016v-2.00879h2.0293c.08984-.34961.16992-.69922.24023-1.0498l.66992.12988c-.07031.32031-.14062.62988-.21094.91992h2.58984v1.81934ZM235.44807,28.0716h-1.37988c-.06934.12012-.13965.22949-.2002.33984v.58984h1.58008v-.92969ZM235.44807,29.62043h-1.58008v.95996h1.58008v-.95996ZM235.44807,32.22882v-1.0293h-1.58008v1.0293h1.58008Z"/>
        <path class="cls-1" d="M246.78694,27.01203v.67969h-2.53809v1.75879h2.97754v.67969h-2.97754v2.06934c.69922.09961,1.53906.15918,2.53809.16992.50977,0,1.0293-.02051,1.56934-.06055l-.13086.71973h-1.11914c-2.01855,0-3.45801-.18945-4.33789-.55957-.65918-.30957-1.19922-.79004-1.6084-1.43945-.38965.85938-.87012,1.5791-1.43945,2.15918l-.45996-.57031c.95996-1.01953,1.59961-2.38867,1.93945-4.10742l.69922.12012c-.11914.61914-.2793,1.18945-.45898,1.70898.47852.85938,1.07812,1.39941,1.79883,1.62891.08984.03027.18945.06055.28906.08008v-4.35742h-2.61816v-.67969h5.87695ZM247.92658,27.19171h-.7002v-1.46875h-6.77637v1.51855h-.69922v-2.17871h3.81836c-.15039-.35938-.32031-.68945-.5-.98926l.76953-.12012c.16016.33008.31934.7002.45898,1.10938h3.62891v2.12891Z"/>
        <path class="cls-1" d="M251.86994,28.06085l-.50977.50977c-.41992-.45898-.99023-.95898-1.71875-1.47852l.50977-.5c.68945.49023,1.25879.97949,1.71875,1.46875ZM251.95979,29.46027c-.45996,1.2998-.96973,2.50879-1.53906,3.63867l-.66992-.29004c.60938-1.17969,1.13867-2.36914,1.5791-3.58789l.62988.23926ZM252.13947,25.64289l-.50977.51953c-.41992-.45996-1-.94922-1.73926-1.46875l.50977-.49023c.69043.47949,1.26953.95996,1.73926,1.43945ZM258.74494,24.4632v.67969h-2.03711v1.19922h1.75781v6.83691h-.67969v-.4502h-4.47656v.47949h-.67969v-6.86621h1.67773v-1.19922h-1.94824v-.67969h6.38574ZM253.3094,26.99152v3.42871h4.47656v-.97949h-.95898c-.51953,0-.7793-.25977-.7793-.76953v-1.67969h-1.07031v.58984c-.01953,1.01953-.39844,1.75879-1.13867,2.22949l-.48047-.41016c.66016-.37988,1-.97949,1.00977-1.81934v-.58984h-1.05859ZM257.78596,32.06867v-.99902h-4.47656v.99902h4.47656ZM256.02815,26.3421v-1.19922h-1.04102v1.19922h1.04102ZM257.78596,26.99152h-1.13867v1.54004c0,.20898.10938.31934.33008.31934h.80859v-1.85938Z"/>
        <path class="cls-1" d="M264.06916,33.0589h-.70117v-.50977h-2.10742v.50977h-.71094v-4.33789h3.51953v4.33789ZM263.36799,31.86945v-2.45898h-2.10742v2.45898h2.10742ZM267.38752,24.4632v3.26855h-5.50781v-3.26855h5.50781ZM266.66682,25.14289h-4.06836v1.90918h4.06836v-1.90918ZM268.71565,33.0589h-.71875v-.50977h-2.18945v.50977h-.70898v-4.33789h3.61719v4.33789ZM267.9969,31.86945v-2.45898h-2.18945v2.45898h2.18945Z"/>
        <path class="cls-1" d="M272.5008,26.7923v-1.43945c-.5.08008-1.00977.13965-1.5293.17969l-.23047-.63965c1.48828-.12012,2.72852-.36914,3.72852-.74902l.33984.59961c-.51953.18945-1.05078.34961-1.60938.46973v1.5791h1.70898v.66895h-1.70898v.5c.58008.50977,1.1582,1.08984,1.74805,1.74902l-.41992.62012c-.51953-.70996-.95898-1.2793-1.32812-1.69922v4.50781h-.69922v-4.43848c-.42969.9502-1,1.80957-1.70898,2.5791l-.30078-.7793c.92969-.87988,1.59961-1.86914,2.00977-2.96875v-.07031h-1.75v-.66895h1.75ZM279.13557,32.8089h-.69922v-.79004h-2.42773v.88965h-.68945v-8.18555h3.81641v8.08594ZM278.43635,31.33918v-5.94629h-2.42773v5.94629h2.42773Z"/>
        <path class="cls-1" d="M236.24885,48.18878h-.66895v-5.2168c-.30957.99902-.71973,1.9082-1.21973,2.72852l-.30957-.79004c.7002-.98926,1.18945-2.11914,1.48926-3.39844h-1.18945v-.65918h1.22949v-1.80859h.66895v1.80859h1.08984v.65918h-1.08984v.58984c.44043.50977.89062,1.08008,1.33008,1.70898l-.41992.62988c-.34961-.63965-.64941-1.15918-.91016-1.55859v5.30664ZM239.02815,46.45929c-.43945.63965-.99023,1.20996-1.62891,1.68945l-.41016-.5293c.61914-.4502,1.14941-.96973,1.5791-1.55957l.45996.39941ZM239.25764,40.78253v-.74902h-1.74902v-.62012h5.53711v.62012h-1.65918v.74902h1.45996v2.30859h-5.05762v-2.30859h1.46875ZM238.98811,48.17902l-.13965-.63965c.25977.01953.5.04004.73926.04004.21973,0,.33984-.11035.33984-.31055v-1.61914h-2.3584v-.61914h5.49609v.61914h-2.47852v1.7793c0,.5-.25977.75-.76953.75h-.8291ZM242.66584,43.73078v.62012h-4.6377v-.62012h4.6377ZM239.30744,41.3421h-.88867v1.18945h.88867v-1.18945ZM239.85822,40.03351v.74902h.92871v-.74902h-.92871ZM240.77717,41.3421h-.90918v1.18945h.90918v-1.18945ZM242.21565,41.3421h-.87891v1.18945h.87891v-1.18945ZM243.27619,47.62921l-.48047.46973c-.33984-.5-.81934-1.04004-1.43945-1.60938l.43945-.41992c.58984.51953,1.08008,1.04004,1.48047,1.55957Z"/>
        <path class="cls-1" d="M245.21955,41.43293l-.58887-.37988c.56934-.62012.97949-1.2998,1.22949-2.03906l.67969.13965c-.08008.20996-.16016.41016-.24023.59961h2.66797v.58984h-1.58789c.17969.29004.33984.55957.45898.80957l-.58008.20996c-.16992-.34961-.36914-.68945-.58984-1.01953h-.66895c-.22949.39941-.48926.75977-.78027,1.08984ZM250.5174,42.91144c-.02051-.48926-.03027-1.00879-.03027-1.56934h.66016c0,.58008.00977,1.09961.0293,1.56934h2.18945v.59961h-2.15918c.03027.61035.08008,1.12012.16016,1.5293.0498.29004.11035.5498.16992.79004.3291-.55957.62988-1.18945.88965-1.90918l.54883.37012c-.35938.93945-.75977,1.72852-1.18945,2.34863.03125.08008.07031.16992.11035.25.2002.37891.38965.5791.56934.5791.16016,0,.32031-.41992.5-1.25879l.57031.3291c-.28027,1.09961-.62012,1.64941-1,1.64941-.33984,0-.66016-.22949-.96875-.67969-.07031-.11035-.13086-.21973-.19043-.33008-.39941.45996-.80957.7998-1.23926,1.0293l-.40039-.5293.12109-.07031c-1.16016.14062-2.79883.25-4.91797.33984l-.08984-.59961,1.7793-.05957v-.66992h-1.53906v-.48926h1.53906v-.55957h-1.35938v-.45996h1.35938v-.51953h-1.47949v-.49023h1.47949v-.58984h-1.89941v-.59961h5.78711ZM245.66975,42.90168l-.41895-.37012c.50977-.37988.88867-.86914,1.14844-1.48926l.5.2002c-.07031.16016-.14062.30957-.21973.43945.29004.15039.55957.32031.7998.52051l-.29004.44922c-.25-.22949-.5-.41992-.75977-.55957-.22949.31934-.47949.58984-.75977.80957ZM247.8885,47.21906v-3.70801h-.64941v3.74805l.64941-.04004ZM247.97932,42.89191l-.41016-.37012c.45898-.35938.80859-.8291,1.04883-1.42871l.50977.19922c-.05957.14062-.12891.28027-.18945.41016.36914.2002.70898.42969,1.00977.68945l-.29102.4502c-.31934-.2998-.63867-.5498-.95898-.73047-.20898.31055-.44922.57031-.71875.78027ZM251.08674,46.48957c-.11914-.31934-.21973-.67969-.2998-1.05957-.11035-.5293-.19043-1.16895-.23926-1.91895h-2.04883v.55957h1.5293v.48047h-1.5293v.51953h1.4082v.45996h-1.4082v.49902h1.58887v.49023h-1.58887v.65918c.5791-.04004,1.10938-.08984,1.57812-.14941v.42969c.36035-.25977.7002-.58984,1.00977-.96973ZM249.61799,41.28253l-.57031-.35938c.4502-.58008.7793-1.20996.98047-1.88965l.66895.14062c-.06934.19922-.13965.39941-.20996.5791h2.89844v.58984h-1.74902c.16992.24023.2998.46973.39941.68945l-.56934.20996c-.15918-.30957-.3291-.60938-.53027-.89941h-.71875c-.17969.33984-.37988.64941-.59961.93945ZM252.98615,42.28156l-.41016.41016c-.25977-.2998-.59961-.61914-1.03906-.95898l.40918-.39062c.41016.31055.75977.62012,1.04004.93945Z"/>
        <path class="cls-1" d="M256.64924,40.36261c-.16992-.39941-.36914-.78906-.60938-1.15918l.68945-.18945c.24023.43945.41992.83887.56055,1.20898l-.39062.13965h1.75977v.66016h-3.72852v-.66016h1.71875ZM258.28791,47.56867h-2.33789v.49023h-.67969v-3.36816h3.01758v2.87793ZM258.21955,41.82257v.62891h-2.86914v-.62891h2.86914ZM258.21955,43.20148v.62988h-2.86914v-.62988h2.86914ZM257.62971,46.91925v-1.59863h-1.67969v1.59863h1.67969ZM263.28596,43.3216v.65918c-.2793.91992-.73047,1.70898-1.36914,2.36914.59961.47949,1.32812.90918,2.20898,1.26953l-.39062.61914c-.91992-.41992-1.68945-.89941-2.30859-1.42871-.71875.59961-1.61914,1.06934-2.67773,1.42871l-.39062-.60938c1.01953-.33984,1.85938-.7793,2.53906-1.31934-.62891-.67969-1.05859-1.44922-1.28906-2.28906h-.63086v-.69922h4.30859ZM262.71565,39.4339v2.1582c0,.25.13086.37988.41016.37988h.70898v.66016h-.88867c-.64062,0-.94922-.2998-.94922-.88965v-1.62891h-1.55859v.44922c0,1-.4707,1.76953-1.39062,2.30859l-.47852-.5293c.76953-.40039,1.1582-.96973,1.1582-1.70898v-1.19922h2.98828ZM261.39729,45.85968c.51953-.53906.91992-1.15918,1.18945-1.83887h-2.28906c.20898.67969.58008,1.2998,1.09961,1.83887Z"/>
        <path class="cls-1" d="M266.95979,40.35285c-.15039-.39941-.33008-.78906-.53906-1.14941l.68945-.18945c.21875.43945.38867.84961.50977,1.20898l-.34961.12988h1.74805v.66992h-3.77734v-.66992h1.71875ZM266.28986,48.19855h-.68945v-3.51758h3.04883v3.37793h-.68945v-.45996h-1.66992v.59961ZM268.61994,41.83234v.62988h-2.98828v-.62988h2.98828ZM268.61994,43.20148v.63965h-2.98828v-.63965h2.98828ZM267.95979,45.33039h-1.66992v1.60938h1.66992v-1.60938ZM272.11799,39.06378v3.27832h2.28711v.69922h-2.28711v5.15723h-.71094v-5.15723h-2.21875v-.69922h2.21875v-3.27832h.71094Z"/>
      </g>
      <g>
        <path class="cls-1" d="M305.60822,36.82843l-.41504-.53125c.84668-.88184,1.42285-2.0791,1.71973-3.58301l.65723.11719c-.09863.46777-.21582.90039-.35059,1.30566h1.92578v-1.60254h.65723v1.60254h2.96191v.62988h-2.96191v2.08008h2.78223v.62988h-2.78223v2.28613h3.53809v.64844h-7.93164v-.64844h3.73633v-2.28613h-2.64648v-.62988h2.64648v-2.08008h-2.16016c-.36035.81934-.81934,1.50391-1.37695,2.06152Z"/>
        <path class="cls-1" d="M318.72151,34.33527c.63867-.19824,1.20703-.43262,1.70117-.70312h-5.72461v-.54004h3.50195c-.08984-.21582-.19922-.41406-.30664-.59375l.65723-.1084c.1084.19824.20703.43262.31543.70215h3.08789v.54004h-1.44141l.37891.25293c-.45898.25195-.93652.46777-1.44043.66602.70215.20703,1.35059.41406,1.92676.62109l-.37891.37793h1v.55859h-6.41016v1.0166c-.03613,1.49512-.32422,2.70117-.88281,3.61035l-.47656-.43164c.46875-.75684.71094-1.81934.72949-3.17871v-1.5752h6.00488c-.63086-.25195-1.36914-.50391-2.23242-.75586-.9375.28809-1.94531.50391-3.04297.62988l-.30664-.41406c.93652-.1084,1.7832-.26074,2.53906-.4502-.63086-.17969-1.29688-.35156-2.01758-.53125l.35156-.33301c.88281.21582,1.70117.42285,2.4668.63965ZM316.08381,38.5296l-.4502-.39551c.57617-.43262,1.00781-1.01758,1.30566-1.75586l.5127.20703c-.08008.18945-.16211.36914-.24219.53125h1.59277v-.73828h.62988v.73828h2.35938v.56738h-2.35938v.83691h2.15234v.56738h-2.15234v.83691h2.79102v.55859h-6.48145v-.55859h3.06055v-.83691h-2.14258v-.56738h2.14258v-.83691h-1.93555c-.2334.33301-.49512.6123-.7832.8457Z"/>
        <path class="cls-1" d="M326.88459,34.92023h1.6748v3.1416h1.39453l.05469-1.125h-1v-.59473h1.02734l.04492-1.09766h-1.00781v-.58594h1.03516l.05273-1.09766h-1.17969v-.6123h1.80078l-.19727,5.11328h.7207v.6123h-7.98633v-.6123h.75586l-.20703-4.91504c.70312-.11719,1.3418-.29785,1.91797-.54004l.24316.58496c-.31543.14355-.82812.29688-1.54785.45898l.05371.99902h1.34082v.58496h-1.31445l.05469,1.08984h1.19727v.59375h-1.16992l.05273,1.14355h1.65723v-2.03418h.60254v2.03418h1.00977v-2.55664h-1.68457v-2.94434h.60352v.72949h1.71973v.59473h-1.71973v1.03516ZM326.45197,39.22296c-.71973.55859-1.62012,1.05371-2.68262,1.47656l-.40527-.52148c1.03516-.39648,1.9082-.85547,2.62012-1.36914l.46777.41406ZM331.34065,40.17804l-.35938.55762c-.90039-.62988-1.81836-1.11621-2.75586-1.47656l.32422-.48633c1.02734.3877,1.95312.85547,2.79102,1.40527Z"/>
        <path class="cls-1" d="M338.42463,36.36945c-.43359.82812-.95508,1.53906-1.57617,2.14258.97266.70215,2.15234,1.22461,3.55664,1.58496l-.40625.60254c-1.45898-.41406-2.67383-.99023-3.64648-1.74609-1.00781.80957-2.23242,1.4043-3.67188,1.78223l-.39648-.59375c1.42188-.36035,2.60156-.90039,3.54688-1.62109-.65625-.59375-1.19727-1.27832-1.62109-2.03418l.55859-.31543c.39648.73828.91797,1.37793,1.55859,1.92676.61133-.57617,1.11523-1.2334,1.50195-1.98926l.5957.26074ZM336.05549,33.53351c-.16211-.36914-.3418-.70215-.53906-1.00781l.71875-.12598c.18164.3418.36133.71973.52344,1.13379h3.54688v.62109h-7.9668v-.62109h3.7168ZM335.3094,34.84796c-.68555.8916-1.53125,1.6748-2.53906,2.34082l-.41406-.54883c.98047-.63086,1.80859-1.35938,2.48438-2.20605l.46875.41406ZM340.2508,36.7923l-.47656.47754c-.59375-.75684-1.42188-1.55762-2.47656-2.42188l.44141-.42285c1,.79199,1.83789,1.5752,2.51172,2.36719Z"/>
        <path class="cls-1" d="M343.80549,32.66925c-.19922.62988-.45117,1.21582-.73828,1.77344v6.29297h-.64844v-5.22168c-.32422.47754-.69336.92773-1.09961,1.35938l-.19727-.6748c.95508-1.10742,1.64648-2.37695,2.08008-3.81738l.60352.28809ZM347.44221,34.41632v-1.93652h.64844v1.93652h1.29492v.62988h-1.29492v4.69922c0,.6123-.28906.91895-.84766.91895h-1.30469l-.14453-.63965c.42383.02637.82812.04492,1.22461.04492.2793,0,.42383-.16211.42383-.48633v-4.53711h-3.44922v-.62988h3.44922ZM346.40705,38.15168l-.55078.3877c-.38672-.65723-.9082-1.38672-1.56641-2.1875l.53125-.32422c.68555.80957,1.2168,1.52148,1.58594,2.12402Z"/>
      </g>
      <g>
        <path class="cls-1" d="M161.91486,41.04132l-.15039-.69922c.28027.01953.54004.04004.80078.04004.23926,0,.36914-.12988.36914-.37988v-2.43848c-.37988.14941-.76953.28906-1.15918.40918l-.16992-.71973c.4502-.10938.88965-.25,1.3291-.41992v-2.25879h-1.20898v-.68945h1.20898v-1.88867h.74023v1.88867h1.00879v.68945h-1.00879v1.94922c.28906-.13965.5791-.2793.85938-.43945v.72949c-.28027.14941-.57031.29004-.85938.42969v2.94824c0,.55957-.29102.84961-.86035.84961h-.89941ZM170.48029,36.48371v.63965h-2.49902v1.12988h2.08984v.64941h-2.08984v1.28906c.40039.06055.86914.08984,1.41992.08984.51953,0,.96875-.01953,1.33887-.0498l-.2002.7002c-.39941,0-.76953-.00977-1.08887-.00977-1.31934-.01074-2.21875-.14062-2.69824-.38086-.38086-.19922-.73047-.5791-1.0293-1.13867-.24023.61914-.57031,1.18945-1,1.70898l-.5293-.45996c.75977-.91992,1.17871-1.95898,1.25879-3.09863l.63965.07031c-.01953.35938-.07031.69922-.15039,1.03906.32031.66992.68945,1.09961,1.10938,1.29004.07031.0293.15039.05957.24023.08984v-2.91895h-2.52832v-.63965h5.7168ZM169.82111,32.31574v3.46875h-4.35742v-3.46875h4.35742ZM169.12092,33.7757v-.87012h-2.95801v.87012h2.95801ZM169.12092,34.33527h-2.95801v.85938h2.95801v-.85938Z"/>
        <path class="cls-1" d="M171.71565,36.81378l-.24023-.75977c1.08984-1.21875,1.87891-2.6084,2.37891-4.16797l.67969.31055c-.25977.7793-.58984,1.51855-.99023,2.20801v6.72656h-.73926v-5.59668c-.33008.43945-.68945.86914-1.08887,1.2793ZM175.87287,34.09503v-2.08887h.73926v2.08887h1.78906v-2.08887h.73047v2.08887h1.32812v.7002h-1.32812v2.33789h1.6084v.69043h-6.43652v-.69043h1.56934v-2.33789h-1.29004v-.7002h1.29004ZM176.83283,38.57257c-.52051.97949-1.14062,1.8291-1.84961,2.54883l-.61914-.4502c.69922-.66895,1.30859-1.46875,1.80859-2.4082l.66016.30957ZM178.40119,37.13312v-2.33789h-1.78906v2.33789h1.78906ZM180.62971,40.66144l-.63867.44043c-.46094-.75977-1.08984-1.60938-1.87891-2.54883l.58887-.36035c.83984.93945,1.47949,1.76953,1.92871,2.46875Z"/>
        <path class="cls-1" d="M184.27326,31.96613v1.05957h1.55957v.63965h-1.55957v1.17969h1.92969v.65918h-.84961c-.08008.5-.2002.96973-.33984,1.40918h.84961v.63965h-1.58984v1.18945h1.93945v.66016h-1.93945v1.71875h-.69922v-1.71875h-1.96875v-.66016h1.96875v-1.18945h-1.60938v-.63965h.85938c-.09961-.51953-.20996-.98926-.31934-1.40918h-.84961v-.65918h1.91895v-1.17969h-1.56934v-.63965h1.56934v-1.05957h.69922ZM184.70295,35.50421h-1.55859c.10938.41992.21973.88965.31934,1.40918h.88965c.16016-.43945.27051-.90918.34961-1.40918ZM187.15217,41.1214h-.67969v-8.75488h3.79785c0,1.11914-.07031,1.86816-.18945,2.23828-.12012.37012-.49023.55957-1.10938.55957h-.66016l-.2002-.61914c.14062,0,.32031.00977.53027.00977.23926,0,.40918-.01953.5293-.0498.12012-.04004.2002-.11035.25977-.23047.08008-.19922.12012-.61914.14062-1.25879h-2.41895v2.93848h3.18848v.61914c-.18066,1.09961-.5,2.0293-.96973,2.78906.39941.43945.86914.84961,1.41895,1.20898l-.46973.5498c-.51953-.38965-.96973-.79004-1.33887-1.20898-.40039.49902-.87988.91895-1.43945,1.23926l-.34961-.62012c.5293-.30957.97949-.69922,1.33887-1.17969-.60938-.83887-.97949-1.75879-1.10938-2.74805h-.26953v4.51758ZM188.91096,38.78253c.36035-.61914.60938-1.34961.76953-2.17871h-1.61914c.12012.7998.40039,1.51953.84961,2.17871Z"/>
        <path class="cls-1" d="M194.37385,32.26593c-.19922.63965-.44922,1.25977-.74902,1.83887v7.04688h-.7002v-5.84668c-.34961.51953-.73926,1.00879-1.15918,1.46875l-.20996-.71973c1.00977-1.17969,1.73926-2.53809,2.18848-4.06738l.62988.2793ZM196.95295,40.28156c-.55957.33984-1.36914.62012-2.42871.83008l-.31055-.53027c1.05957-.19922,1.85938-.44922,2.40918-.74902l.33008.44922ZM200.67072,32.35578v.62012h-1.96875v.64941h1.58887v1.91895h-5.54688v-1.91895h1.63867v-.64941h-1.72852v-.62012h6.0166ZM200.01057,36.04425v3.76758h-4.95703v-3.76758h4.95703ZM196.46272,34.15558h-1.08887v.86914h1.08887v-.86914ZM199.36115,37.17316v-.62891h-3.64746v.62891h3.64746ZM199.36115,38.2132v-.58984h-3.64746v.58984h3.64746ZM199.36115,38.66242h-3.64746v.62012h3.64746v-.62012ZM198.08186,32.97589h-1.06934v.64941h1.06934v-.64941ZM198.08186,34.15558h-1.06934v.86914h1.06934v-.86914ZM200.7801,40.58136l-.21973.5498c-.7793-.35938-1.5791-.64941-2.4082-.84961l.22949-.44922c.83008.16992,1.62891.41992,2.39844.74902ZM199.66096,34.15558h-1.03906v.86914h1.03906v-.86914Z"/>
      </g>
    </g>
  </g>
</svg>