<?xml version="1.0" encoding="UTF-8"?>
<svg id="_レイヤー_2" data-name="レイヤー_2" xmlns="http://www.w3.org/2000/svg" viewBox="0 0 967.50049 171.57812">
  <defs>
    <style>
      .cls-1, .cls-2 {
        fill: #231815;
      }

      .cls-3 {
        fill: #f6f2e7;
      }

      .cls-4 {
        fill: #fff;
      }

      .cls-2 {
        stroke: #231815;
        stroke-miterlimit: 10;
        stroke-width: .2px;
      }
    </style>
  </defs>
  <g id="_レイヤー_1-2" data-name="レイヤー_1">
    <g>
      <g>
        <circle class="cls-3" cx="881.71075" cy="85.78907" r="85.03937"/>
        <g>
          <path class="cls-4" d="M851.35139,48.89608c-14.97254,0-23.91083,13.8501-23.91083,37.04865,0,17.75986,6.28143,36.73737,23.91083,36.73737,11.55945,0,23.91083-9.65103,23.91083-36.73737,0-17.91046-6.28143-37.04865-23.91083-37.04865ZM851.35139,122.13553c-9.4574,0-14.05518-11.83823-14.05518-36.1908,0-24.63227,4.59778-36.60599,14.05518-36.60599,9.2569,0,13.95081,12.31613,13.95081,36.60599,0,24.01429-4.69391,36.1908-13.95081,36.1908Z"/>
          <path class="cls-4" d="M908.86208,122.6821c16.7276,0,27.11884-8.68607,27.11884-22.66892,0-13.28888-9.16809-20.91065-25.1532-20.91065-4.49616,0-8.48786.56992-12.56195,1.79306l-2.27234.68207,1.61591-23.34412h35.88685v-7.68265h-36.86554l-2.29614,31.84754,1.41998.7338c3.43048-1.11877,6.99829-1.62094,11.45325-1.62094,11.23261,0,17.67426,7.30911,17.67426,20.0528,0,12.68875-6.96991,20.57144-18.19062,20.57144-2.48016,0-4.52362-.31311-6.62476-1.01578l-.90454-.30212-1.94275-9.83048c-.97412-5.94864-2.97546-6.43662-5.11505-6.43662-1.22223,0-3.36823.36255-4.42108,2.71271,1.41724,9.94766,8.9209,15.41886,21.1789,15.41886Z"/>
        </g>
        <circle class="cls-3" cx="682.73039" cy="85.78907" r="85.03937"/>
        <g>
          <path class="cls-4" d="M648.83511,48.89652c-14.97254,0-23.91175,13.84918-23.91175,37.04773,0,17.76032,6.28143,36.73737,23.91175,36.73737,11.55945,0,23.91083-9.65058,23.91083-36.73737,0-17.91046-6.28143-37.04773-23.91083-37.04773ZM648.83511,122.13505c-9.4574,0-14.05518-11.83777-14.05518-36.1908,0-24.63135,4.59778-36.60553,14.05518-36.60553,9.2569,0,13.95081,12.31568,13.95081,36.60553,0,24.01429-4.69391,36.1908-13.95081,36.1908Z"/>
          <path class="cls-4" d="M735.22245,95.75687h-11.69037v-45.72236h-6.91956l-32.52045,46.35773v5.18829h30.41108v19.44672h9.02893v-19.44672h11.69037v-5.82367ZM714.50315,95.75687h-29.52668l29.52668-41.88447v41.88447Z"/>
        </g>
        <circle class="cls-3" cx="483.75009" cy="85.78907" r="85.03937"/>
        <g>
          <path class="cls-4" d="M453.64916,48.89608c-14.97208,0-23.91083,13.8501-23.91083,37.04865,0,17.75986,6.28143,36.73737,23.91083,36.73737,11.55945,0,23.91083-9.65103,23.91083-36.73737,0-17.91046-6.28143-37.04865-23.91083-37.04865ZM453.64916,122.13553c-9.4574,0-14.05472-11.83823-14.05472-36.1908,0-24.63227,4.59732-36.60599,14.05472-36.60599,9.2569,0,13.95081,12.31613,13.95081,36.60599,0,24.01429-4.69391,36.1908-13.95081,36.1908Z"/>
          <g>
            <path class="cls-4" d="M496.98886,65.37328c2.04895,0,4.50348-.60928,5.31189-5.35904l.02472-.11856,2.39044-9.66934c-6.64307,2.11441-10.7721,6.66596-11.52558,13.04672.79285,1.34079,2.15515,2.10022,3.79852,2.10022Z"/>
            <path class="cls-4" d="M502.0032,121.19803l-2.06909-9.88449c-1.06201-6.25855-3.03955-6.763-5.32562-6.763-.90454,0-3.06152.27512-4.21234,2.73331,1.09497,7.99622,5.91431,12.025,11.60706,13.91419Z"/>
            <path class="cls-4" d="M537.76187,103.01382c0-9.87351-6.17889-15.63767-18.88916-17.62162l-8.41919-1.31424,8.30475-1.90567c11.09894-2.54746,16.72669-8.20404,16.72669-16.8132,0-10.30884-7.9715-16.46302-21.32263-16.46302-2.9068,0-5.56458.30899-7.94129.90363,1.68915-.31815,3.03589-.46097,4.31763-.46097,9.39331,0,14.78119,5.95184,14.78119,16.32889,0,11.32736-6.56983,18.08991-17.57355,18.08991h-2.1872v.8551h2.91321c11.93115,0,18.50189,6.64444,18.50189,18.70926,0,12.13211-6.57074,18.81363-18.50189,18.81363-1.88599,0-3.67584-.21881-5.46936-.66925l-.76904-.19272c3.29407,1.0556,6.86554,1.40854,10.16693,1.40854,15.4065,0,25.36103-7.72019,25.36103-19.66828Z"/>
          </g>
        </g>
        <circle class="cls-3" cx="284.76979" cy="85.78907" r="85.03937"/>
        <g>
          <path class="cls-4" d="M254.716,48.89652c-14.97208,0-23.91037,13.84918-23.91037,37.04773,0,17.76032,6.28143,36.73737,23.91037,36.73737,11.55899,0,23.91037-9.65058,23.91037-36.73737,0-17.91046-6.28143-37.04773-23.91037-37.04773ZM254.716,122.13688c-9.4574,0-14.05472-11.83869-14.05472-36.19263,0-24.63227,4.59732-36.60645,14.05472-36.60645,9.2569,0,13.95035,12.31659,13.95035,36.60645,0,24.01612-4.69345,36.19263-13.95035,36.19263Z"/>
          <g>
            <path class="cls-4" d="M315.23511,48.89652c-2.15149,0-4.1954.17487-6.11481.51086.56122-.04578,1.1174-.06958,1.66718-.06958,9.10401,0,14.98627,6.8161,14.98627,17.36481,0,10.08545-4.23981,17.91596-16.80176,31.0318-5.16907,5.27527-11.0463,11.4679-16.6127,17.50489v5.78796h46.37467v-7.68494h-44.48594l6.19995-5.3183c3.98529-3.42682,7.74994-6.66229,10.46723-8.7854,19.021-14.68872,25.43839-22.76734,25.43839-32.01874,0-11.8158-7.5-18.32337-21.11847-18.32337Z"/>
            <path class="cls-4" d="M292.09836,64.74247c.95123,1.67908,2.50351,2.59735,4.41376,2.59735,1.76102,0,4.22836-.67657,5.31784-6.52313l.02518-.11353,2.63123-10.08637c-6.93558,2.47559-11.49216,7.48444-12.388,14.12567Z"/>
          </g>
        </g>
        <circle class="cls-3" cx="85.78949" cy="85.78907" r="85.03937"/>
        <g>
          <path class="cls-4" d="M56.98154,48.89608c-14.97208,0-23.91083,13.8501-23.91083,37.04865,0,17.75986,6.28143,36.73737,23.91083,36.73737,11.55945,0,23.91083-9.65103,23.91083-36.73737,0-17.91046-6.28143-37.04865-23.91083-37.04865ZM56.98154,122.13553c-9.4574,0-14.05472-11.83823-14.05472-36.1908,0-24.63227,4.59732-36.60599,14.05472-36.60599,9.2569,0,13.95081,12.31613,13.95081,36.60599,0,24.01429-4.69391,36.1908-13.95081,36.1908Z"/>
          <path class="cls-4" d="M123.79902,49.58776l-.17899-.14008-24.03717,5.72434v.71869l13.44864-1.34583v43.81394c0,6.39587-.10483,12.88696-.31219,19.29245l-.04532,1.40579-15.26322,1.85623v.11398h41.09757v-.12039l-14.74732-1.85577-.04532-1.39984c-.20645-6.37756-.31082-12.8682-.31082-19.29245v-32.89856l.39413-15.8725Z"/>
        </g>
        <path class="cls-1" d="M881.71045,0c-47.30469,0-85.78906,38.48438-85.78906,85.78906,0,.83734.03943,1.66528.06335,2.49695-7.07452.29449-14.16339.17657-21.22815-.39734l-.2312-.01465c-2.95203-.19183-4.96503-.33618-6.04724-.43378.0105-.55127.04187-1.09747.04187-1.65118,0-47.30469-38.48535-85.78906-85.79004-85.78906-46.00092,0-83.64948,36.39514-85.69043,81.90131-5.13892-.0379-10.37756.20673-15.74243,1.10626-3.87195.64856-7.83954,1.4718-11.7691,2.32745-.24664-47.09546-38.6261-85.33502-85.77802-85.33502-47.3042,0-85.78906,38.48438-85.78906,85.78906,0,.46844.02795.93018.03546,1.39685-1.26654.08856-2.53137.17352-3.79919.26569-2.25482.16327-4.50739.32361-6.75769.48108-.34802.02362-4.72412.21149-5.94537.22229-2.70123.02429-5.34027-.11688-7.888-.25293l-1.77325-.09216c-.44073-.02203-.8819-.05377-1.323-.08258.01447-.64661.04919-1.28827.04919-1.93823,0-47.30469-38.48486-85.78906-85.78906-85.78906s-85.78955,38.48438-85.78955,85.78906c0,1.599.05212,3.18567.13892,4.76337-8.66919,1.06458-18.76508.84363-27.64789-.52185.06879-1.40564.1076-2.81909.1076-4.24152C171.5791,38.48438,133.09424,0,85.78955,0S0,38.48438,0,85.78906s38.48486,85.78906,85.78955,85.78906c45.33282,0,82.54169-35.34955,85.56689-79.92828,1.87817.34576,3.76233.65997,5.65942.8949,5.95264.72229,14.65558.62506,22.23016-.33209,3.29944,44.31268,40.38232,79.36548,85.52399,79.36548,46.03625,0,83.70612-36.45233,85.69318-82.00806.57697.05096,1.15533.10223,1.72729.15192,1.96069.17029,3.9198.33972,5.87042.52655.58325.01636,11.95001-.41846,19.99359-.77032,1.94055,45.59845,39.62848,82.09991,85.6955,82.09991,46.71613,0,84.80457-37.53992,85.74506-84.03546,9.18756-2.14594,18.62323-3.37207,27.49365-3.63855-.01367.62891-.04779,1.25281-.04779,1.88495,0,47.30469,38.48438,85.78906,85.78906,85.78906,45.95105,0,83.57166-36.31555,85.68762-81.75262.51251.07385.86798.12097,1.01074.13196,6.328.48663,13.89508,1.00232,22.01575,1.1535,1.50067.02777,3.06818-.00574,4.65424-.0603,2.72961,44.86176,40.07568,80.52747,85.61212,80.52747,47.30469,0,85.79004-38.48438,85.79004-85.78906S929.01514,0,881.71045,0ZM85.78955,170.07812C39.31201,170.07812,1.5,132.2666,1.5,85.78906S39.31201,1.5,85.78955,1.5s84.28955,37.81152,84.28955,84.28906-37.81201,84.28906-84.28955,84.28906ZM284.77002,170.07812c-46.47754,0-84.28955-37.81152-84.28955-84.28906S238.29248,1.5,284.77002,1.5s84.28906,37.81152,84.28906,84.28906-37.81201,84.28906-84.28906,84.28906ZM483.75,170.07812c-46.47705,0-84.28906-37.81152-84.28906-84.28906S437.27295,1.5,483.75,1.5s84.28955,37.81152,84.28955,84.28906-37.8125,84.28906-84.28955,84.28906ZM682.72998,170.07812c-46.47754,0-84.28906-37.81152-84.28906-84.28906S636.25244,1.5,682.72998,1.5s84.29004,37.81152,84.29004,84.28906-37.8125,84.28906-84.29004,84.28906ZM881.71045,170.07812c-46.47754,0-84.28906-37.81152-84.28906-84.28906S835.23291,1.5,881.71045,1.5s84.29004,37.81152,84.29004,84.28906-37.8125,84.28906-84.29004,84.28906Z"/>
      </g>
      <g>
        <path class="cls-2" d="M58.83875,80.42188c-.0957.52832-.14453,1.12012-.14453,1.79199v8.58008c0,.7041.04883,1.24805.14453,1.79297h-1.52051c.0957-.59277.12793-.99219.12793-1.79297v-8.58008c0-.7998-.03223-1.21582-.12793-1.79199h1.52051Z"/>
        <path class="cls-2" d="M62.16589,92.58691c.0957-.6084.12793-1.04102.12793-1.80859v-5.01074c0-.71973-.03223-1.16895-.12793-1.80859h1.32812v1.08887c0,.19141,0,.32031-.04785.6875.75293-1.3125,1.79297-1.93652,3.2334-1.93652,1.15234,0,2.04883.41699,2.56152,1.2002.30371.46484.44824,1.05664.44824,1.8418v3.95312c0,.81641.03125,1.26465.11133,1.79297h-1.44043c.08008-.625.1123-1.10547.1123-1.80859v-3.73047c0-1.43945-.68848-2.20898-1.95312-2.20898-.89648,0-1.61621.40039-2.28906,1.26562-.41602.54297-.60742.94336-.73633,1.58398v3.08984c0,.70312.03223,1.18359.1123,1.80859h-1.44043Z"/>
        <path class="cls-2" d="M79.67273,95.94824c.08008-.6084.1123-1.08887.1123-1.80859v-1.98535c0-.44824.01562-.7041.06348-1.12012-.75195,1.12012-1.87207,1.69629-3.24902,1.69629-2.46484,0-3.98535-1.69629-3.98535-4.4502,0-2.73633,1.53613-4.48145,3.95312-4.48145,1.45703,0,2.56152.57715,3.28125,1.72949-.03125-.27246-.04785-.41699-.04785-.65625v-.91309h1.28027c-.08008.59277-.11133,1.05664-.11133,1.84082v8.35547c0,.67188.03125,1.2002.11133,1.79297h-1.4082ZM76.66394,91.69043c1.87207,0,3.10449-1.36133,3.10449-3.45703,0-2.04883-1.2002-3.39453-3.04102-3.39453-1.79297,0-2.86523,1.28125-2.86523,3.44141,0,2.12891,1.05664,3.41016,2.80176,3.41016Z"/>
        <path class="cls-2" d="M90.60046,91.5459c0-.17578,0-.28809.04785-.7041-.7998,1.3125-1.79199,1.90527-3.23242,1.90527-1.15332,0-2.0498-.41602-2.56152-1.18555-.28809-.46289-.44824-1.08789-.44824-1.85547v-3.9541c0-.71973-.03223-1.28027-.1123-1.79297h1.44043c-.08008.56055-.11133,1.10449-.11133,1.80859v3.72949c0,1.4248.68848,2.22461,1.93652,2.22461.91211,0,1.66504-.39941,2.30469-1.26367.41602-.56055.59277-.96094.73633-1.60156v-3.08887c0-.68848-.03223-1.24805-.11133-1.80859h1.42383c-.08008.56055-.11133,1.07324-.11133,1.80859v5.01074c0,.71973.03125,1.16797.12793,1.80859h-1.3291v-1.04102Z"/>
        <path class="cls-2" d="M96.69421,80.42188v1.4248h-1.55273v-1.4248h1.55273ZM96.63074,83.95898c-.08008.56055-.1123,1.00879-.1123,1.80859v5.01074c0,.73633.03223,1.18359.1123,1.80859h-1.44043c.0791-.68848.11133-1.13672.11133-1.80859v-5.01074c0-.76855-.03223-1.24805-.11133-1.80859h1.44043Z"/>
        <path class="cls-2" d="M105.11121,85.19141c-.6084-.19238-.89648-.23926-1.2959-.23926-.81641,0-1.48926.33594-1.96875.97559-.38477.49707-.52832.87988-.59277,1.60059v3.26562c0,.7207.03223,1.16797.1123,1.79297h-1.44043c.08008-.73633.11133-1.15234.11133-1.80859v-5.01074c0-.7998-.03125-1.23242-.11133-1.80859h1.32812v.91309c0,.12695,0,.36719-.01562.47949.30371-.49609.54395-.75293.87988-.97559.6084-.40039,1.15234-.56055,1.9209-.56055.48047,0,.75195.03125,1.4248.14355l-.35254,1.23242Z"/>
        <path class="cls-2" d="M107.66882,85.83203q-.71973-1.58496-.87988-1.87305h1.56836c.08008.44824.28809,1.08887.54395,1.69629l2.32129,5.37891,2.06543-5.37891c.31934-.81641.46387-1.24805.52734-1.69629h1.48926c-.09668.24023-.36816.86426-.78418,1.87305l-3.58594,8.73926c-.41602,1.02441-1.12012,1.48828-2.25684,1.48828-.35254,0-.7041-.04785-1.3125-.17578l.33594-1.18457c.44824.20801.67285.27246.97656.27246.54395,0,.92871-.28809,1.18457-.88086l.73633-1.75977-2.92969-6.49902Z"/>
      </g>
      <g>
        <path class="cls-2" d="M252.97937,83.7666c-.24023-.51172-.41602-1.00781-.71973-1.98438.04785.68848.11133,1.68066.11133,2.06445v6.85156c0,.84766.03223,1.34375.12793,1.88867h-1.45605c.0957-.59277.12793-1.05664.12793-1.88867v-8.37109c0-.80078-.03223-1.31348-.12793-1.90527h1.85645c.0957.47949.28809,1.05566.52832,1.58496l3.9541,8.81836,3.9375-8.81836c.27148-.625.44824-1.12109.54395-1.58496h1.84082c-.09668.6084-.12793,1.07227-.12793,1.90527v8.37109c0,.87988.03125,1.3125.12793,1.88867h-1.45703c.09668-.54492.12793-1.12109.12793-1.88867v-6.94727c0-.44824.04883-1.3125.1123-1.96875-.16016.65625-.38379,1.29688-.68848,1.95312l-3.26465,7.18652c-.32031.71973-.48047,1.13672-.6084,1.66504h-1.13672c-.08008-.41602-.27246-.96094-.5918-1.68164l-3.21777-7.13867Z"/>
        <path class="cls-2" d="M267.84265,88.45703c.04883,1.07227.20801,1.66504.64062,2.24121.5127.7041,1.29688,1.08789,2.25684,1.08789,1.29688,0,2.19336-.64062,2.6416-1.87305l1.12012.44922c-.30469.67188-.5127.95996-.88086,1.32812-.75195.73633-1.72852,1.12012-2.89648,1.12012-2.51367,0-4.09766-1.76074-4.09766-4.53027,0-2.73633,1.56836-4.5293,3.96973-4.5293,2.06445,0,3.55273,1.32812,3.87305,3.47363.0166.17578.08008.7998.1123,1.23242h-6.73926ZM273.30164,87.44824c-.09668-.89648-.33691-1.47266-.84863-1.96875-.49609-.48047-1.12012-.7207-1.88867-.7207-.97656,0-1.79297.49707-2.27344,1.39258-.22363.40039-.30371.68945-.39941,1.29688h5.41016Z"/>
        <path class="cls-2" d="M278.21082,88.45703c.04785,1.07227.20801,1.66504.64062,2.24121.51172.7041,1.2959,1.08789,2.25684,1.08789,1.2959,0,2.19238-.64062,2.64062-1.87305l1.12109.44922c-.30469.67188-.5127.95996-.88086,1.32812-.75195.73633-1.72852,1.12012-2.89746,1.12012-2.5127,0-4.09766-1.76074-4.09766-4.53027,0-2.73633,1.56934-4.5293,3.96973-4.5293,2.06445,0,3.55371,1.32812,3.87402,3.47363.01562.17578.08008.7998.1123,1.23242h-6.73926ZM283.66882,87.44824c-.0957-.89648-.33594-1.47266-.84863-1.96875-.49609-.48047-1.12012-.7207-1.88867-.7207-.97656,0-1.79199.49707-2.27246,1.39258-.22461.40039-.30469.68945-.40039,1.29688h5.41016Z"/>
        <path class="cls-2" d="M290.21179,81.57422c-.08008.5127-.1123,1.08887-.1123,1.77637v.6084h.76855c.73535,0,1.07227-.0166,1.63184-.0957v1.21582c-.51172-.08008-.91211-.0957-1.63184-.0957h-.76855v5.57031c0,.46484.06348.7041.20801.84863.17578.17578.44824.27246.78418.27246.41602,0,.73633-.09668,1.26465-.41699l.35156,1.12012c-.65625.27246-1.15234.36914-1.80859.36914-.7041,0-1.24805-.17578-1.56836-.49609s-.44824-.78516-.44824-1.53711v-5.73047h-.64062c-.54395,0-.91211.03223-1.44043.0957v-1.21582c.44824.0791.76855.0957,1.44043.0957h.64062v-.6084c0-.64062-.03223-1.24805-.1123-1.77637h1.44141Z"/>
        <path class="cls-2" d="M296.53113,80.42188v1.4248h-1.55273v-1.4248h1.55273ZM296.46765,83.95898c-.08008.56055-.1123,1.00879-.1123,1.80859v5.01074c0,.73633.03223,1.18359.1123,1.80859h-1.44043c.0791-.68848.11133-1.13672.11133-1.80859v-5.01074c0-.76855-.03223-1.24805-.11133-1.80859h1.44043Z"/>
        <path class="cls-2" d="M299.76257,92.58691c.0957-.6084.12793-1.04102.12793-1.80859v-5.01074c0-.71973-.03223-1.16895-.12793-1.80859h1.32812v1.08887c0,.19141,0,.32031-.04785.6875.75195-1.3125,1.79297-1.93652,3.2334-1.93652,1.15234,0,2.04883.41699,2.56055,1.2002.30469.46484.44824,1.05664.44824,1.8418v3.95312c0,.81641.03223,1.26465.1123,1.79297h-1.44043c.08008-.625.1123-1.10547.1123-1.80859v-3.73047c0-1.43945-.68848-2.20898-1.95312-2.20898-.89648,0-1.61621.40039-2.28906,1.26562-.41602.54297-.6084.94336-.73633,1.58398v3.08984c0,.70312.03223,1.18359.1123,1.80859h-1.44043Z"/>
        <path class="cls-2" d="M311.60242,93.70703c.22363.30371.32031.41602.51172.56055.6084.52832,1.28125.75195,2.14551.75195,1.39258,0,2.36914-.6084,2.78516-1.76074.16016-.46484.22363-1.04102.28809-2.36914-.24023.43262-.41602.64062-.68848.88086-.6084.54395-1.50488.83203-2.48145.83203-2.41699,0-3.95312-1.68066-3.95312-4.35352,0-2.7207,1.56836-4.4502,4.0498-4.4502,1.39258,0,2.41699.56055,3.07324,1.68066-.0166-.27148-.03223-.40039-.03223-.60742v-.91309h1.28027c-.08008.62402-.11133,1.04004-.11133,1.79297v5.72949c0,1.56934-.28906,2.57812-.92871,3.33008-.67285.78418-1.87305,1.2168-3.3291,1.2168-1.58496,0-2.57715-.44824-3.63379-1.60059l1.02441-.7207ZM314.22742,91.59473c1.8252,0,3.04102-1.39258,3.04102-3.47461,0-2.01562-1.15234-3.3125-2.94531-3.3125-1.77637,0-2.86523,1.3125-2.86523,3.44141,0,2.08008,1.05664,3.3457,2.76953,3.3457Z"/>
      </g>
      <g>
        <path class="cls-2" d="M451.45105,93.5791c-.28809-.40039-.46484-.5918-1.39258-1.50488-.89648.52832-1.71289.75293-2.81738.75293-3.36133,0-5.52246-2.46484-5.52246-6.30664,0-3.85742,2.17676-6.33887,5.53809-6.33887s5.52246,2.46484,5.52246,6.30664c0,1.15234-.19238,2.17676-.57617,3.07324-.30371.7207-.57617,1.10449-1.28027,1.85645.73633.71973.94434.91309,1.39258,1.26465l-.86426.89648ZM448.77722,89.22559c.27246.32031.48047.56055,1.28125,1.36035.49609-.52832.67188-.7998.89551-1.3125.33691-.83301.5127-1.74512.5127-2.80176,0-3.15234-1.63281-5.16992-4.19336-5.16992-2.57715,0-4.25781,2.04883-4.25781,5.20215,0,3.16895,1.68066,5.20215,4.30566,5.20215.71973,0,1.2959-.14453,1.88867-.48047-.54395-.52734-.83203-.7832-1.3125-1.13672l.87988-.86328Z"/>
        <path class="cls-2" d="M461.99402,91.5459c0-.17578,0-.28809.04785-.7041-.80078,1.3125-1.79297,1.90527-3.2334,1.90527-1.15234,0-2.04883-.41602-2.56152-1.18555-.28809-.46289-.44824-1.08789-.44824-1.85547v-3.9541c0-.71973-.03125-1.28027-.11133-1.79297h1.44043c-.08008.56055-.1123,1.10449-.1123,1.80859v3.72949c0,1.4248.68848,2.22461,1.93652,2.22461.91309,0,1.66504-.39941,2.30566-1.26367.41602-.56055.5918-.96094.73633-1.60156v-3.08887c0-.68848-.03223-1.24805-.1123-1.80859h1.4248c-.08008.56055-.1123,1.07324-.1123,1.80859v5.01074c0,.71973.03223,1.16797.12793,1.80859h-1.32812v-1.04102Z"/>
        <path class="cls-2" d="M466.15027,88.28027c0-2.76855,1.66504-4.5293,4.27441-4.5293,2.6084,0,4.25684,1.76074,4.25684,4.51367,0,2.7373-1.66406,4.5293-4.24121,4.5293-2.625,0-4.29004-1.74414-4.29004-4.51367ZM467.38269,88.24902c0,2.17676,1.16895,3.50586,3.04199,3.50586,1.87207,0,3.02441-1.3291,3.02441-3.49023,0-2.16016-1.15234-3.50586-2.99316-3.50586-1.9043,0-3.07324,1.3291-3.07324,3.49023Z"/>
        <path class="cls-2" d="M479.95984,81.57422c-.08008.5127-.1123,1.08887-.1123,1.77637v.6084h.76855c.73633,0,1.07227-.0166,1.63281-.0957v1.21582c-.5127-.08008-.91309-.0957-1.63281-.0957h-.76855v5.57031c0,.46484.06445.7041.20801.84863.17578.17578.44824.27246.78418.27246.41602,0,.73633-.09668,1.26465-.41699l.35254,1.12012c-.65625.27246-1.15234.36914-1.80859.36914-.70508,0-1.24902-.17578-1.56934-.49609s-.44824-.78516-.44824-1.53711v-5.73047h-.63965c-.54492,0-.91309.03223-1.44043.0957v-1.21582c.44727.0791.76758.0957,1.44043.0957h.63965v-.6084c0-.64062-.03125-1.24805-.11133-1.77637h1.44043Z"/>
        <path class="cls-2" d="M490.44128,91.4502c-.62402.56055-.92871.76758-1.47266.97656-.54395.20801-1.12012.32031-1.66504.32031-1.76074,0-2.83301-.91211-2.83301-2.43359,0-1.28027.80078-2.20898,2.28906-2.625.94434-.27148,1.71289-.36816,3.68164-.41602v-.92773c0-1.08887-.68848-1.64941-2.0166-1.64941-.88086,0-1.53711.22363-1.98535.68848-.20801.22461-.33594.44824-.49609.92773l-1.24805-.27148c.28809-.73633.49609-1.07227.89551-1.4248.65625-.6084,1.61719-.91211,2.81738-.91211,2.11328,0,3.20117.89551,3.20117,2.625v4.49707c0,.7207.03223,1.12109.12793,1.76172h-1.2959v-1.13672ZM490.44128,88.2168c-1.90527.04785-2.81738.16016-3.53809.46387-.81543.33594-1.21582.88086-1.21582,1.64844,0,.88086.65625,1.44141,1.69629,1.44141.92871,0,1.93652-.44824,2.56152-1.13672.36816-.40039.49609-.73633.49609-1.37695v-1.04004Z"/>
        <path class="cls-2" d="M497.35242,81.57422c-.08008.5127-.1123,1.08887-.1123,1.77637v.6084h.76855c.73535,0,1.07227-.0166,1.63184-.0957v1.21582c-.51172-.08008-.91211-.0957-1.63184-.0957h-.76855v5.57031c0,.46484.06348.7041.20801.84863.17578.17578.44824.27246.78418.27246.41602,0,.73633-.09668,1.26465-.41699l.35156,1.12012c-.65625.27246-1.15234.36914-1.80859.36914-.7041,0-1.24805-.17578-1.56836-.49609s-.44824-.78516-.44824-1.53711v-5.73047h-.64062c-.54395,0-.91211.03223-1.44043.0957v-1.21582c.44824.0791.76855.0957,1.44043.0957h.64062v-.6084c0-.64062-.03223-1.24805-.1123-1.77637h1.44141Z"/>
        <path class="cls-2" d="M503.67078,80.42188v1.4248h-1.55273v-1.4248h1.55273ZM503.6073,83.95898c-.08008.56055-.1123,1.00879-.1123,1.80859v5.01074c0,.73633.03223,1.18359.1123,1.80859h-1.44043c.0791-.68848.11133-1.13672.11133-1.80859v-5.01074c0-.76855-.03223-1.24805-.11133-1.80859h1.44043Z"/>
        <path class="cls-2" d="M506.50281,88.28027c0-2.76855,1.66504-4.5293,4.27344-4.5293,2.60938,0,4.25781,1.76074,4.25781,4.51367,0,2.7373-1.66406,4.5293-4.24121,4.5293-2.625,0-4.29004-1.74414-4.29004-4.51367ZM507.73523,88.24902c0,2.17676,1.16895,3.50586,3.04102,3.50586,1.87305,0,3.02539-1.3291,3.02539-3.49023,0-2.16016-1.15234-3.50586-2.99316-3.50586-1.9043,0-3.07324,1.3291-3.07324,3.49023Z"/>
        <path class="cls-2" d="M517.86316,92.58691c.0957-.6084.12793-1.04102.12793-1.80859v-5.01074c0-.71973-.03223-1.16895-.12793-1.80859h1.32812v1.08887c0,.19141,0,.32031-.04785.6875.75195-1.3125,1.79297-1.93652,3.2334-1.93652,1.15234,0,2.04883.41699,2.56055,1.2002.30469.46484.44824,1.05664.44824,1.8418v3.95312c0,.81641.03223,1.26465.1123,1.79297h-1.44043c.08008-.625.1123-1.10547.1123-1.80859v-3.73047c0-1.43945-.68848-2.20898-1.95312-2.20898-.89648,0-1.61621.40039-2.28906,1.26562-.41602.54297-.6084.94336-.73633,1.58398v3.08984c0,.70312.03223,1.18359.1123,1.80859h-1.44043Z"/>
      </g>
      <g>
        <path class="cls-2" d="M606.06042,81.56348c0,.86426.03223,1.29688.12793,1.87305h-1.52051c.09668-.54492.12793-1.04102.12793-1.87305v-8.51562c0-.6875-.03125-1.2002-.12793-1.82422.56055.03125.99316.04785,1.76074.04785h4.24219c.78418,0,1.23242-.03223,1.84082-.1123v1.36035c-.52832-.0791-.99219-.1123-1.84082-.1123h-4.61035v4.13086h3.74609c.76758,0,1.23242-.0332,1.82422-.11328v1.3457c-.52832-.08008-.99219-.11328-1.82422-.11328h-3.74609v3.90625Z"/>
        <path class="cls-2" d="M616.06042,71.27148v1.4248h-1.55273v-1.4248h1.55273ZM615.99597,74.80859c-.08008.56055-.11133,1.00879-.11133,1.80859v5.01074c0,.73633.03125,1.18359.11133,1.80859h-1.44043c.08008-.68848.1123-1.13672.1123-1.80859v-5.01074c0-.76855-.03223-1.24805-.1123-1.80859h1.44043Z"/>
        <path class="cls-2" d="M618.65125,83.43652c.09668-.6084.12891-1.04102.12891-1.80859v-5.01074c0-.71973-.03223-1.16895-.12891-1.80859h1.3291v1.08887c0,.19141,0,.32031-.04785.6875.75195-1.3125,1.79199-1.93652,3.2334-1.93652,1.15234,0,2.04883.41699,2.56055,1.2002.30469.46484.44824,1.05664.44824,1.8418v3.95312c0,.81641.03223,1.26465.1123,1.79297h-1.44043c.08008-.625.11133-1.10547.11133-1.80859v-3.73047c0-1.43945-.6875-2.20898-1.95215-2.20898-.89648,0-1.61719.40039-2.28906,1.26562-.41602.54297-.6084.94336-.73633,1.58398v3.08984c0,.70312.03223,1.18359.1123,1.80859h-1.44141Z"/>
        <path class="cls-2" d="M634.55847,82.2998c-.625.56055-.92871.76758-1.47266.97656-.54492.20801-1.12109.32031-1.66504.32031-1.76074,0-2.83301-.91211-2.83301-2.43359,0-1.28027.7998-2.20898,2.28906-2.625.94434-.27148,1.71191-.36816,3.68164-.41602v-.92773c0-1.08887-.68848-1.64941-2.01758-1.64941-.87988,0-1.53613.22363-1.98438.68848-.20801.22461-.33594.44824-.49609.92773l-1.24902-.27148c.28809-.73633.49609-1.07227.89648-1.4248.65625-.6084,1.61719-.91211,2.81738-.91211,2.1123,0,3.20117.89551,3.20117,2.625v4.49707c0,.7207.03223,1.12109.12793,1.76172h-1.2959v-1.13672ZM634.55847,79.06641c-1.90527.04785-2.81738.16016-3.53809.46387-.81641.33594-1.21582.88086-1.21582,1.64844,0,.88086.65625,1.44141,1.69629,1.44141.92871,0,1.93652-.44824,2.56055-1.13672.36816-.40039.49707-.73633.49707-1.37695v-1.04004Z"/>
        <path class="cls-2" d="M639.82019,71.27148c-.08008.57617-.1123,1.00879-.1123,1.80859v8.56348c0,.7207.03223,1.15234.1123,1.79297h-1.44043c.08008-.57617.1123-1.07227.1123-1.79297v-8.58008c0-.7832-.03223-1.21582-.1123-1.79199h1.44043Z"/>
        <path class="cls-2" d="M643.94812,71.27148v1.4248h-1.55273v-1.4248h1.55273ZM643.88367,74.80859c-.08008.56055-.11133,1.00879-.11133,1.80859v5.01074c0,.73633.03125,1.18359.11133,1.80859h-1.44043c.08008-.68848.1123-1.13672.1123-1.80859v-5.01074c0-.76855-.03223-1.24805-.1123-1.80859h1.44043Z"/>
        <path class="cls-2" d="M652.5575,75.72168c-.39941.43164-.67188.76758-1.07227,1.3125l-3.44141,4.59375c-.03223.03125-.27148.33594-.6084.75195.78418-.03223.83301-.03223,1.10449-.03223h2.5293c.83203,0,1.28027-.03223,1.80859-.1123v1.3125c-.57617-.08008-.99219-.11133-1.80859-.11133h-3.39355c-.99219,0-1.32812.01562-1.77637.04785v-1.05664c.35156-.36816.67188-.73633,1.08789-1.2959l3.52148-4.70703c.17676-.24023.28809-.36719.48047-.57617-.43164.0332-.57617.0332-.7998.0332h-2.17773c-.67188,0-1.18359.03125-1.79199.11133v-1.29688c.62402.08008,1.08789.1123,1.79199.1123h2.84961c.99219,0,1.24805,0,1.69629-.04785v.96094Z"/>
        <path class="cls-2" d="M660.52625,82.2998c-.625.56055-.92871.76758-1.47266.97656-.54492.20801-1.12109.32031-1.66504.32031-1.76074,0-2.83301-.91211-2.83301-2.43359,0-1.28027.7998-2.20898,2.28906-2.625.94434-.27148,1.71191-.36816,3.68164-.41602v-.92773c0-1.08887-.68848-1.64941-2.01758-1.64941-.87988,0-1.53613.22363-1.98438.68848-.20801.22461-.33594.44824-.49609.92773l-1.24902-.27148c.28809-.73633.49609-1.07227.89648-1.4248.65625-.6084,1.61719-.91211,2.81738-.91211,2.1123,0,3.20117.89551,3.20117,2.625v4.49707c0,.7207.03223,1.12109.12793,1.76172h-1.2959v-1.13672ZM660.52625,79.06641c-1.90527.04785-2.81738.16016-3.53809.46387-.81641.33594-1.21582.88086-1.21582,1.64844,0,.88086.65625,1.44141,1.69629,1.44141.92871,0,1.93652-.44824,2.56055-1.13672.36816-.40039.49707-.73633.49707-1.37695v-1.04004Z"/>
        <path class="cls-2" d="M666.79578,72.42383c-.08008.5127-.11133,1.08887-.11133,1.77637v.6084h.76758c.73633,0,1.07227-.0166,1.63281-.0957v1.21582c-.51172-.08008-.91211-.0957-1.63281-.0957h-.76758v5.57031c0,.46484.06348.7041.20801.84863.17578.17578.44824.27246.78418.27246.41602,0,.73633-.09668,1.26465-.41699l.35156,1.12012c-.65625.27246-1.15234.36914-1.80859.36914-.7041,0-1.24805-.17578-1.56836-.49609s-.44824-.78516-.44824-1.53711v-5.73047h-.64062c-.54395,0-.91211.03223-1.44043.0957v-1.21582c.44824.0791.76855.0957,1.44043.0957h.64062v-.6084c0-.64062-.03223-1.24805-.1123-1.77637h1.44043Z"/>
        <path class="cls-2" d="M672.47546,71.27148v1.4248h-1.55176v-1.4248h1.55176ZM672.41199,74.80859c-.08008.56055-.1123,1.00879-.1123,1.80859v5.01074c0,.73633.03223,1.18359.1123,1.80859h-1.44043c.08008-.68848.11133-1.13672.11133-1.80859v-5.01074c0-.76855-.03125-1.24805-.11133-1.80859h1.44043Z"/>
        <path class="cls-2" d="M674.66687,79.12988c0-2.76855,1.66504-4.5293,4.27441-4.5293,2.6084,0,4.25684,1.76074,4.25684,4.51367,0,2.7373-1.66406,4.5293-4.24121,4.5293-2.625,0-4.29004-1.74414-4.29004-4.51367ZM675.89929,79.09863c0,2.17676,1.16895,3.50586,3.04199,3.50586,1.87207,0,3.02441-1.3291,3.02441-3.49023,0-2.16016-1.15234-3.50586-2.99316-3.50586-1.9043,0-3.07324,1.3291-3.07324,3.49023Z"/>
        <path class="cls-2" d="M685.3866,83.43652c.09668-.6084.12891-1.04102.12891-1.80859v-5.01074c0-.71973-.03223-1.16895-.12891-1.80859h1.3291v1.08887c0,.19141,0,.32031-.04883.6875.75293-1.3125,1.79297-1.93652,3.2334-1.93652,1.15332,0,2.04883.41699,2.56152,1.2002.30371.46484.44824,1.05664.44824,1.8418v3.95312c0,.81641.03223,1.26465.1123,1.79297h-1.44141c.08008-.625.1123-1.10547.1123-1.80859v-3.73047c0-1.43945-.68848-2.20898-1.95312-2.20898-.89551,0-1.61621.40039-2.28809,1.26562-.41699.54297-.6084.94336-.73633,1.58398v3.08984c0,.70312.03125,1.18359.11133,1.80859h-1.44043Z"/>
        <path class="cls-2" d="M700.52234,79.12988c0-2.76855,1.66504-4.5293,4.27344-4.5293,2.60938,0,4.25781,1.76074,4.25781,4.51367,0,2.7373-1.66406,4.5293-4.24121,4.5293-2.625,0-4.29004-1.74414-4.29004-4.51367ZM701.75476,79.09863c0,2.17676,1.16895,3.50586,3.04102,3.50586,1.87305,0,3.02539-1.3291,3.02539-3.49023,0-2.16016-1.15234-3.50586-2.99316-3.50586-1.9043,0-3.07324,1.3291-3.07324,3.49023Z"/>
        <path class="cls-2" d="M711.73914,75.83301c-.56055,0-.96094.03223-1.45703.0957v-1.21582c.43262.06348.81641.0957,1.45703.0957h.65625v-.94434c0-.97656.12793-1.48828.49609-1.95312.38379-.49609,1.12012-.7832,2.0166-.7832.62402,0,1.12109.0957,1.69727.31934l-.33691,1.07227c-.43164-.25586-.83203-.36816-1.32812-.36816-.5127,0-.88086.14453-1.08887.43262-.17578.25586-.23926.59277-.23926,1.34473v.87988h.7998c.68848,0,1.10449-.0166,1.69629-.0957v1.21582c-.54395-.08008-.91211-.0957-1.69629-.0957h-.7998v5.81055c0,.75195.03125,1.2002.11133,1.79297h-1.44043c.08008-.59277.1123-1.13672.1123-1.80859v-5.79492h-.65625Z"/>
        <path class="cls-2" d="M730.68542,74.4248c-.12891-.64062-.25684-.96094-.56055-1.32812-.5127-.60938-1.3291-.92969-2.36914-.92969-1.64844,0-2.80078.88086-2.80078,2.17773,0,.83203.44824,1.42383,1.39258,1.80859.43164.17578.44824.17578,2.28906.57617,2.56055.54492,3.58496,1.52051,3.58496,3.37695,0,2.25781-1.55273,3.53711-4.30566,3.53711-1.79297,0-3.12109-.52734-3.85742-1.51953-.41602-.56055-.59277-1.05664-.75293-2.11328l1.39258-.17578c.04883.76758.16016,1.15234.49707,1.58398.52734.70508,1.48828,1.10547,2.67285,1.10547,1.9043,0,3.05664-.89648,3.05664-2.38574,0-.78418-.31934-1.37598-.92773-1.71191-.52832-.30469-.7041-.35254-2.6416-.78516-1.00781-.20801-1.63281-.43164-2.17676-.73633-.99219-.56055-1.48828-1.4082-1.48828-2.5293,0-2.01562,1.61621-3.3125,4.09766-3.3125,1.58496,0,2.81738.51172,3.53711,1.47266.36816.48047.52832.87988.7041,1.69629l-1.34375.19238Z"/>
        <path class="cls-2" d="M740.28503,82.2998c-.62402.56055-.92871.76758-1.47266.97656-.54395.20801-1.12012.32031-1.66504.32031-1.76074,0-2.83301-.91211-2.83301-2.43359,0-1.28027.80078-2.20898,2.28906-2.625.94434-.27148,1.71289-.36816,3.68164-.41602v-.92773c0-1.08887-.68848-1.64941-2.0166-1.64941-.88086,0-1.53711.22363-1.98535.68848-.20801.22461-.33594.44824-.49609.92773l-1.24805-.27148c.28809-.73633.49609-1.07227.89551-1.4248.65625-.6084,1.61719-.91211,2.81738-.91211,2.11328,0,3.20117.89551,3.20117,2.625v4.49707c0,.7207.03223,1.12109.12793,1.76172h-1.2959v-1.13672ZM740.28503,79.06641c-1.90527.04785-2.81738.16016-3.53809.46387-.81543.33594-1.21582.88086-1.21582,1.64844,0,.88086.65625,1.44141,1.69629,1.44141.92871,0,1.93652-.44824,2.56152-1.13672.36816-.40039.49609-.73633.49609-1.37695v-1.04004Z"/>
        <path class="cls-2" d="M745.53015,71.27148c-.0791.57617-.11133.99219-.11133,1.80859v5.79395l2.89648-2.80078c.68848-.65625.91309-.92773,1.13672-1.26465h1.90527q-.22461.20801-.65625.59277c-.16016.14355-.35254.32031-.57617.54395-.14453.12793-.22461.22363-.25684.25586l-2.22461,2.06543,2.70508,3.48828c.96094,1.23242,1.04004,1.3291,1.39258,1.68164h-1.82422c-.17676-.38477-.20898-.44922-1.00879-1.52148l-2.12891-2.91211-1.36035,1.2959v1.34473c0,.7207.03223,1.23242.11133,1.79297h-1.42383c.08008-.57617.11133-1.04102.11133-1.80859v-8.54785c0-.7998-.03125-1.23242-.11133-1.80859h1.42383Z"/>
        <path class="cls-2" d="M754.44324,79.30664c.04785,1.07227.20801,1.66504.63965,2.24121.5127.7041,1.29688,1.08789,2.25684,1.08789,1.29688,0,2.19336-.64062,2.6416-1.87305l1.12012.44922c-.30371.67188-.51172.95996-.87988,1.32812-.75293.73633-1.72949,1.12012-2.89746,1.12012-2.5127,0-4.09766-1.76074-4.09766-4.53027,0-2.73633,1.56836-4.5293,3.96973-4.5293,2.06445,0,3.55371,1.32812,3.87305,3.47363.0166.17578.08008.7998.1123,1.23242h-6.73828ZM759.90125,78.29785c-.0957-.89648-.33594-1.47266-.84863-1.96875-.49609-.48047-1.12012-.7207-1.88867-.7207-.97656,0-1.79297.49707-2.27246,1.39258-.22461.40039-.30469.68945-.40039,1.29688h5.41016Z"/>
        <path class="cls-2" d="M622.02234,106.2998c-.62402.56055-.92871.76855-1.47266.97656s-1.12012.32031-1.66504.32031c-1.75977,0-2.83301-.91309-2.83301-2.43359,0-1.28027.80078-2.20898,2.28906-2.625.94434-.27246,1.71289-.36816,3.68164-.41602v-.92871c0-1.08789-.68848-1.64844-2.0166-1.64844-.88086,0-1.53711.22461-1.98535.68848-.20801.22363-.33594.44824-.49609.92871l-1.24805-.27246c.28809-.73633.49609-1.07227.89648-1.4248.65625-.6084,1.61621-.91211,2.81641-.91211,2.11328,0,3.20215.89648,3.20215,2.625v4.49805c0,.71973.03125,1.12012.12793,1.76074h-1.29688v-1.13672ZM622.02234,103.06641c-1.9043.04785-2.81738.16016-3.53711.46387-.81641.33691-1.2168.88086-1.2168,1.64941,0,.87988.65625,1.44043,1.69629,1.44043.92871,0,1.9375-.44824,2.56152-1.13672.36816-.40039.49609-.73633.49609-1.37695v-1.04004Z"/>
        <path class="cls-2" d="M625.84363,107.43652c.09668-.6084.12891-1.04102.12891-1.80859v-5.01074c0-.71973-.03223-1.16797-.12891-1.80859h1.3291v1.08887c0,.19141,0,.31934-.04785.6875.75195-1.3125,1.79199-1.93652,3.2334-1.93652,1.15234,0,2.04883.41602,2.56055,1.20117.30469.46387.44824,1.05566.44824,1.83984v3.9541c0,.81641.03223,1.26465.1123,1.79297h-1.44043c.08008-.625.11133-1.10449.11133-1.80859v-3.72949c0-1.44141-.6875-2.20898-1.95215-2.20898-.89648,0-1.61719.39941-2.28906,1.26367-.41602.54492-.6084.94531-.73633,1.58496v3.08984c0,.7041.03223,1.18359.1123,1.80859h-1.44141Z"/>
        <path class="cls-2" d="M642.82312,106.65234c0-.22461.01562-.5127.04785-.78516-.75195,1.16895-1.79297,1.72949-3.24902,1.72949-2.46582,0-3.96973-1.69727-3.96973-4.48242,0-2.7373,1.53613-4.48145,3.9375-4.48145,1.45605,0,2.57715.5918,3.28125,1.69629l-.0166-.24023c-.04785-.33594-.04785-.47949-.04785-.84766v-2.14551c0-.75195-.03125-1.21582-.11133-1.82422h1.4082c-.08008.63965-.1123,1.10449-.1123,1.80859v8.51562c0,.7998.03223,1.21582.1123,1.84082h-1.28027v-.78418ZM636.91687,103.08203c0,1.05664.23926,1.96875.65625,2.49707.49609.625,1.24805.96094,2.14453.96094,1.87305,0,3.07324-1.36035,3.07324-3.47363,0-1.05664-.32031-1.98438-.89648-2.54492-.56055-.54395-1.32812-.84863-2.17676-.84863-1.74512,0-2.80078,1.28027-2.80078,3.40918Z"/>
        <path class="cls-2" d="M653.87683,107.43652c-.73633,0-1.18457.01562-1.74512.04785.09668-.6084.12793-1.12109.12793-1.90527v-8.41895c0-.83203-.03125-1.3291-.12793-1.88867h1.50488c-.0957.5918-.12793,1.00781-.12793,1.88867v9.13965h5.04199c.7998,0,1.23242-.03223,1.85645-.1123v1.36035c-.51172-.08008-.95996-.11133-1.85645-.11133h-4.67383Z"/>
        <path class="cls-2" d="M667.6864,106.2998c-.625.56055-.92871.76855-1.47266.97656-.54492.20801-1.12109.32031-1.66504.32031-1.76074,0-2.83301-.91309-2.83301-2.43359,0-1.28027.7998-2.20898,2.28906-2.625.94434-.27246,1.71191-.36816,3.68164-.41602v-.92871c0-1.08789-.68848-1.64844-2.01758-1.64844-.87988,0-1.53613.22461-1.98438.68848-.20801.22363-.33594.44824-.49609.92871l-1.24902-.27246c.28809-.73633.49609-1.07227.89648-1.4248.65625-.6084,1.61719-.91211,2.81738-.91211,2.1123,0,3.20117.89648,3.20117,2.625v4.49805c0,.71973.03223,1.12012.12793,1.76074h-1.2959v-1.13672ZM667.6864,103.06641c-1.90527.04785-2.81738.16016-3.53809.46387-.81641.33691-1.21582.88086-1.21582,1.64941,0,.87988.65625,1.44043,1.69629,1.44043.92871,0,1.93652-.44824,2.56055-1.13672.36816-.40039.49707-.73633.49707-1.37695v-1.04004Z"/>
        <path class="cls-2" d="M671.50769,107.43652c.08008-.6084.1123-1.07324.1123-1.84082v-8.51562c0-.67188-.03223-1.18457-.1123-1.80859h1.4082c-.08008.5918-.11133,1.05664-.11133,1.82422v2.16113c0,.43262-.0166.7207-.06445,1.13672.75195-1.18457,1.84082-1.76074,3.29785-1.76074,2.46484,0,3.9375,1.66406,3.9375,4.44922,0,2.81738-1.50488,4.51465-4.00195,4.51465-1.00879,0-1.74512-.25684-2.48145-.86523-.35156-.27148-.49609-.44727-.75195-.83203.03223.30469.04785.43262.04785.64062v.89648h-1.28027ZM675.94128,99.65723c-1.88867,0-3.13672,1.37598-3.13672,3.4248,0,2.06543,1.24805,3.47363,3.08887,3.47363,1.79297,0,2.84961-1.2959,2.84961-3.48926,0-2.16113-1.02441-3.40918-2.80176-3.40918Z"/>
        <path class="cls-2" d="M682.97937,103.30664c.04883,1.07227.20801,1.66406.64062,2.24121.5127.7041,1.29688,1.08789,2.25684,1.08789,1.2959,0,2.19238-.63965,2.64062-1.87305l1.12109.44824c-.30469.67285-.5127.96094-.88086,1.3291-.75195.73633-1.72852,1.12012-2.89746,1.12012-2.5127,0-4.09668-1.76074-4.09668-4.5293,0-2.7373,1.56836-4.53027,3.96875-4.53027,2.06543,0,3.55371,1.32812,3.87402,3.47363.01562.17578.08008.7998.1123,1.23242h-6.73926ZM688.43738,102.29785c-.0957-.89648-.33594-1.47266-.84766-1.96875-.49609-.47949-1.12109-.71973-1.88867-.71973-.97656,0-1.79297.49609-2.27344,1.39258-.22363.39941-.30371.6875-.39941,1.2959h5.40918Z"/>
        <path class="cls-2" d="M693.33191,95.27148c-.08008.57617-.1123,1.00781-.1123,1.80859v8.56348c0,.71973.03223,1.15234.1123,1.79297h-1.44043c.08008-.57617.11133-1.07324.11133-1.79297v-8.5791c0-.78516-.03125-1.2168-.11133-1.79297h1.44043Z"/>
        <path class="cls-2" d="M701.47449,97.04785c0-.68848-.03223-1.15234-.12793-1.82422.56055.03125.99219.04785,1.76074.04785h2.70508c3.56934,0,5.60254,2.17676,5.60254,6.00195,0,2.00098-.6084,3.66602-1.71289,4.73828-.95996.94434-2.28906,1.4248-3.88965,1.4248h-2.70508c-.76855,0-1.2002.01562-1.76074.04785.0957-.62402.12793-1.10449.12793-1.90527v-8.53125ZM705.78015,106.31543c1.26465,0,2.27344-.36816,2.99316-1.13574.88086-.89648,1.34473-2.25781,1.34473-3.90625,0-1.66406-.41602-2.94531-1.26465-3.79297-.7041-.73633-1.69629-1.08887-3.00879-1.08887h-3.12109v9.92383h3.05664Z"/>
        <path class="cls-2" d="M714.5155,103.30664c.04785,1.07227.20801,1.66406.63965,2.24121.5127.7041,1.29688,1.08789,2.25684,1.08789,1.29688,0,2.19336-.63965,2.6416-1.87305l1.12012.44824c-.30371.67285-.51172.96094-.87988,1.3291-.75293.73633-1.72949,1.12012-2.89746,1.12012-2.5127,0-4.09766-1.76074-4.09766-4.5293,0-2.7373,1.56836-4.53027,3.96973-4.53027,2.06445,0,3.55371,1.32812,3.87305,3.47363.0166.17578.08008.7998.1123,1.23242h-6.73828ZM719.97351,102.29785c-.0957-.89648-.33594-1.47266-.84863-1.96875-.49609-.47949-1.12012-.71973-1.88867-.71973-.97656,0-1.79297.49609-2.27246,1.39258-.22461.39941-.30469.6875-.40039,1.2959h5.41016Z"/>
        <path class="cls-2" d="M724.27527,104.875c.1123.59277.24023.88086.56055,1.16895.40039.36816,1.04004.55957,1.85645.55957,1.39258,0,2.27344-.5918,2.27344-1.53613,0-.44824-.16016-.78418-.49609-.99219-.38477-.24023-.7041-.33691-1.88867-.57617-1.28125-.27246-1.8252-.46484-2.36914-.83301-.56055-.38379-.86426-.97656-.86426-1.68066,0-.57617.24023-1.12012.68848-1.55273.55957-.54395,1.42383-.83203,2.49707-.83203,1.08789,0,1.93652.25586,2.5127.76855.41602.35156.63965.71973.84863,1.45605l-1.26465.20801c-.09668-.43164-.17676-.62402-.40039-.84766-.36816-.40039-.94434-.6084-1.66504-.6084-1.16797,0-2.00098.5918-2.00098,1.44043,0,.36816.19238.68848.54492.88086.36816.20801.78418.33594,1.77637.54395,1.55273.35156,2.06543.54395,2.54492.91211.49609.40039.76855,1.00879.76855,1.66504,0,1.60059-1.36035,2.59277-3.55371,2.59277-1.45605,0-2.57715-.43262-3.16895-1.24902-.24023-.33594-.35254-.60742-.5127-1.26367l1.3125-.22461Z"/>
        <path class="cls-2" d="M733.87488,95.27148v1.4248h-1.55273v-1.4248h1.55273ZM733.8114,98.80859c-.08008.56055-.1123,1.00879-.1123,1.80859v5.01074c0,.73535.03223,1.18359.1123,1.80859h-1.44043c.0791-.68848.11133-1.13672.11133-1.80859v-5.01074c0-.76758-.03223-1.24805-.11133-1.80859h1.44043Z"/>
        <path class="cls-2" d="M737.45886,108.55664c.22363.30371.32031.41602.51172.56055.6084.52832,1.28125.75195,2.14551.75195,1.39258,0,2.36914-.6084,2.78516-1.76074.16016-.46387.22363-1.04004.28809-2.36914-.24023.43262-.41602.64062-.68848.88086-.6084.54395-1.50488.83203-2.48145.83203-2.41699,0-3.95312-1.68066-3.95312-4.35352,0-2.72168,1.56836-4.4502,4.0498-4.4502,1.39258,0,2.41699.56055,3.07324,1.68066-.0166-.27148-.03223-.40039-.03223-.6084v-.91211h1.28027c-.08008.62402-.11133,1.04102-.11133,1.79297v5.73047c0,1.56836-.28809,2.57715-.92871,3.3291-.67285.78418-1.87305,1.2168-3.3291,1.2168-1.58496,0-2.57715-.44824-3.63379-1.60059l1.02441-.7207ZM740.08386,106.44336c1.8252,0,3.04102-1.39258,3.04102-3.47266,0-2.01758-1.15234-3.31348-2.94531-3.31348-1.77637,0-2.86523,1.3125-2.86523,3.44141,0,2.08105,1.05664,3.34473,2.76953,3.34473Z"/>
        <path class="cls-2" d="M747.04285,107.43652c.0957-.6084.12793-1.04102.12793-1.80859v-5.01074c0-.71973-.03223-1.16797-.12793-1.80859h1.32812v1.08887c0,.19141,0,.31934-.04785.6875.75195-1.3125,1.79297-1.93652,3.2334-1.93652,1.15234,0,2.04883.41602,2.56055,1.20117.30469.46387.44824,1.05566.44824,1.83984v3.9541c0,.81641.03223,1.26465.1123,1.79297h-1.44043c.08008-.625.1123-1.10449.1123-1.80859v-3.72949c0-1.44141-.68848-2.20898-1.95312-2.20898-.89648,0-1.61621.39941-2.28906,1.26367-.41602.54492-.6084.94531-.73633,1.58496v3.08984c0,.7041.03223,1.18359.1123,1.80859h-1.44043Z"/>
      </g>
      <g>
        <path class="cls-2" d="M828.68835,83.43652c.0957-.57617.12695-1.04102.12695-1.79297v-8.5957c0-.65625-.03125-1.15234-.12695-1.82422.57617.03125,1.02344.04785,1.75977.04785h3.26562c2.46484,0,3.85742,1.26465,3.85742,3.48926,0,2.35352-1.44043,3.71289-3.9375,3.71289h-3.56934v3.1543c0,.76758.03223,1.26367.12793,1.80859h-1.50391ZM833.63367,77.37012c1.69727,0,2.65723-.91211,2.65723-2.54492,0-1.60156-.92871-2.44922-2.65723-2.44922h-3.56934v4.99414h3.56934Z"/>
        <path class="cls-2" d="M844.69031,76.04102c-.60938-.19238-.89648-.23926-1.29688-.23926-.81641,0-1.48828.33594-1.96875.97559-.38477.49707-.5293.87988-.59277,1.60059v3.26562c0,.7207.03223,1.16797.1123,1.79297h-1.44141c.08008-.73633.11328-1.15234.11328-1.80859v-5.01074c0-.7998-.0332-1.23242-.11328-1.80859h1.3291v.91309c0,.12695,0,.36719-.01562.47949.30371-.49609.54395-.75293.87988-.97559.6084-.40039,1.15234-.56055,1.9209-.56055.48047,0,.75293.03125,1.4248.14355l-.35156,1.23242Z"/>
        <path class="cls-2" d="M846.30359,79.12988c0-2.76855,1.66406-4.5293,4.27344-4.5293s4.25781,1.76074,4.25781,4.51367c0,2.7373-1.66406,4.5293-4.24219,4.5293-2.625,0-4.28906-1.74414-4.28906-4.51367ZM847.53601,79.09863c0,2.17676,1.16797,3.50586,3.04102,3.50586s3.02539-1.3291,3.02539-3.49023c0-2.16016-1.15234-3.50586-2.99316-3.50586-1.90527,0-3.07324,1.3291-3.07324,3.49023Z"/>
        <path class="cls-2" d="M863.79382,82.65137c0-.22363.0166-.51172.04883-.7832-.75195,1.16797-1.79297,1.72852-3.25,1.72852-2.46484,0-3.96875-1.69727-3.96875-4.48242,0-2.73633,1.53613-4.48145,3.9375-4.48145,1.45605,0,2.57617.59277,3.28125,1.69629l-.01562-.24023c-.04883-.33594-.04883-.48047-.04883-.84766v-2.14453c0-.75293-.03125-1.2168-.11133-1.8252h1.4082c-.08008.63965-.1123,1.10449-.1123,1.80859v8.51465c0,.80078.03223,1.2168.1123,1.8418h-1.28125v-.78516ZM857.88757,79.08301c0,1.05566.24023,1.96875.65625,2.49609.49609.625,1.24902.96094,2.14453.96094,1.87305,0,3.07422-1.36133,3.07422-3.47363,0-1.05664-.32031-1.98535-.89648-2.54492-.56055-.54395-1.32812-.84863-2.17773-.84863-1.74414,0-2.80078,1.28125-2.80078,3.41016Z"/>
        <path class="cls-2" d="M873.9696,82.39551c0-.17578,0-.28809.04883-.7041-.80078,1.3125-1.79297,1.90527-3.23438,1.90527-1.15234,0-2.04883-.41602-2.56055-1.18555-.28809-.46289-.44824-1.08789-.44824-1.85547v-3.9541c0-.71973-.03223-1.28027-.1123-1.79297h1.44141c-.08008.56055-.1123,1.10449-.1123,1.80859v3.72949c0,1.4248.68848,2.22461,1.93652,2.22461.91211,0,1.66406-.39941,2.30469-1.26367.41602-.56055.5918-.96094.73633-1.60156v-3.08887c0-.68848-.03125-1.24805-.11133-1.80859h1.42383c-.08008.56055-.11133,1.07324-.11133,1.80859v5.01074c0,.71973.03125,1.16797.12695,1.80859h-1.32812v-1.04102Z"/>
        <path class="cls-2" d="M884.01843,77.4502c-.46484-1.24902-1.23242-1.8418-2.41797-1.8418-1.75977,0-2.88086,1.37695-2.88086,3.52148,0,2.11328,1.15234,3.45801,2.94531,3.45801.91211,0,1.66406-.36816,2.08008-1.02441.16016-.24023.24023-.43164.35352-.81641l1.19922.32031c-.22266.57617-.38281.88086-.65625,1.23242-.70312.88086-1.72852,1.34375-3.02539,1.34375-2.51172,0-4.12891-1.74414-4.12891-4.48047,0-2.76953,1.60059-4.57812,4.0498-4.57812,1.3291,0,2.40137.51172,3.08887,1.47266.22461.30371.36914.55957.56055,1.02344l-1.16797.36914Z"/>
        <path class="cls-2" d="M889.90515,72.42383c-.08008.5127-.11328,1.08887-.11328,1.77637v.6084h.76953c.73438,0,1.07227-.0166,1.63086-.0957v1.21582c-.51172-.08008-.91211-.0957-1.63086-.0957h-.76953v5.57031c0,.46484.06445.7041.20898.84863.17578.17578.44727.27246.7832.27246.41602,0,.73633-.09668,1.26562-.41699l.35156,1.12012c-.65625.27246-1.15234.36914-1.80859.36914-.70508,0-1.24805-.17578-1.56836-.49609s-.44922-.78516-.44922-1.53711v-5.73047h-.64062c-.54297,0-.91211.03223-1.43945.0957v-1.21582c.44727.0791.76758.0957,1.43945.0957h.64062v-.6084c0-.64062-.03125-1.24805-.11133-1.77637h1.44141Z"/>
        <path class="cls-2" d="M895.58289,71.27148v1.4248h-1.55273v-1.4248h1.55273ZM895.52039,74.80859c-.08008.56055-.11328,1.00879-.11328,1.80859v5.01074c0,.73633.0332,1.18359.11328,1.80859h-1.44141c.08008-.68848.11133-1.13672.11133-1.80859v-5.01074c0-.76855-.03125-1.24805-.11133-1.80859h1.44141Z"/>
        <path class="cls-2" d="M897.77429,79.12988c0-2.76855,1.66602-4.5293,4.27344-4.5293,2.60938,0,4.25781,1.76074,4.25781,4.51367,0,2.7373-1.66406,4.5293-4.24023,4.5293-2.625,0-4.29102-1.74414-4.29102-4.51367ZM899.00671,79.09863c0,2.17676,1.16992,3.50586,3.04102,3.50586,1.87305,0,3.02539-1.3291,3.02539-3.49023,0-2.16016-1.15234-3.50586-2.99219-3.50586-1.9043,0-3.07422,1.3291-3.07422,3.49023Z"/>
        <path class="cls-2" d="M908.495,83.43652c.0957-.6084.12891-1.04102.12891-1.80859v-5.01074c0-.71973-.0332-1.16895-.12891-1.80859h1.32812v1.08887c0,.19141,0,.32031-.04688.6875.75195-1.3125,1.79297-1.93652,3.23242-1.93652,1.15234,0,2.04883.41699,2.56055,1.2002.30469.46484.44922,1.05664.44922,1.8418v3.95312c0,.81641.03125,1.26465.11133,1.79297h-1.43945c.08008-.625.11133-1.10547.11133-1.80859v-3.73047c0-1.43945-.6875-2.20898-1.95312-2.20898-.89648,0-1.61523.40039-2.28906,1.26562-.41602.54297-.60742.94336-.73633,1.58398v3.08984c0,.70312.0332,1.18359.11328,1.80859h-1.44141Z"/>
        <path class="cls-2" d="M933.66687,83.43652c-.54492-.70508-.70508-.89648-1.00977-1.2168l-.36719-.38477c-.76758.75293-1.20117,1.05664-1.95312,1.37695-.75195.30469-1.55273.46484-2.41602.46484-1.3125,0-2.33789-.35254-3.00977-1.04102-.5918-.5918-.91211-1.4082-.91211-2.33691,0-.97559.35156-1.8252,1.05664-2.5127.51172-.51172.95898-.80078,2.06445-1.29688l-.54492-.57617c-.76758-.78418-1.05664-1.42383-1.05664-2.25684,0-.5127.14453-.95996.41602-1.34473.57617-.84766,1.52148-1.26367,2.81836-1.26367,1.91992,0,3.23242,1.02344,3.23242,2.51172,0,.89648-.30273,1.58594-.92773,2.12891-.44922.38477-.625.48047-2.09766,1.13672l3.3457,3.36133c.83203-1.2168,1.18555-2.04883,1.47266-3.55273l1.12109.43164c-.64062,2.0332-.96094,2.7207-1.82422,3.88965l1.03906,1.05664c.5293.52832,1.07227,1.04004,1.52148,1.4248h-1.96875ZM927.87195,77.29004c-1.02344.44727-1.42383.6875-1.85742,1.10352-.51172.46484-.79883,1.12109-.79883,1.8252,0,1.45605,1.08789,2.38574,2.80078,2.38574.6875,0,1.34375-.14453,1.98438-.43262.56055-.27246.91211-.5127,1.52148-1.10449l-3.65039-3.77734ZM928.19226,76.04102c1.16797-.47949,1.37695-.57617,1.66406-.76855.64062-.43164.92969-.92773.92969-1.56836,0-1.02441-.76953-1.64844-2.01758-1.64844s-2.0332.64062-2.0332,1.68066c0,.59277.20898,1.04004.75195,1.58496l.70508.71973Z"/>
        <path class="cls-2" d="M850.495,97.04785c0-.68848-.03125-1.15234-.12695-1.82422.56055.03125.99219.04785,1.75977.04785h2.70508c3.57031,0,5.60352,2.17676,5.60352,6.00195,0,2.00098-.60938,3.66602-1.71289,4.73828-.96094.94434-2.28906,1.4248-3.89062,1.4248h-2.70508c-.76758,0-1.19922.01562-1.75977.04785.0957-.62402.12695-1.10449.12695-1.90527v-8.53125ZM854.80164,106.31543c1.26367,0,2.27344-.36816,2.99316-1.13574.87988-.89648,1.34473-2.25781,1.34473-3.90625,0-1.66406-.41602-2.94531-1.26465-3.79297-.7041-.73633-1.69629-1.08887-3.00879-1.08887h-3.12207v9.92383h3.05762Z"/>
        <path class="cls-2" d="M863.53601,103.30664c.04785,1.07227.20703,1.66406.64062,2.24121.51172.7041,1.2959,1.08789,2.25586,1.08789,1.29688,0,2.19336-.63965,2.6416-1.87305l1.12012.44824c-.30469.67285-.51172.96094-.88086,1.3291-.75195.73633-1.72852,1.12012-2.89648,1.12012-2.51367,0-4.09766-1.76074-4.09766-4.5293,0-2.7373,1.56836-4.53027,3.96973-4.53027,2.06445,0,3.55371,1.32812,3.87402,3.47363.01562.17578.08008.7998.11133,1.23242h-6.73828ZM868.99402,102.29785c-.09668-.89648-.33691-1.47266-.84863-1.96875-.49609-.47949-1.12012-.71973-1.88867-.71973-.97656,0-1.79297.49609-2.27344,1.39258-.22363.39941-.30371.6875-.39941,1.2959h5.41016Z"/>
        <path class="cls-2" d="M873.88757,95.27148c-.08008.57617-.11133,1.00781-.11133,1.80859v8.56348c0,.71973.03125,1.15234.11133,1.79297h-1.44043c.08008-.57617.1123-1.07324.1123-1.79297v-8.5791c0-.78516-.03223-1.2168-.1123-1.79297h1.44043Z"/>
        <path class="cls-2" d="M878.01648,95.27148v1.4248h-1.55273v-1.4248h1.55273ZM877.95203,98.80859c-.08008.56055-.11133,1.00879-.11133,1.80859v5.01074c0,.73535.03125,1.18359.11133,1.80859h-1.44043c.08008-.68848.1123-1.13672.1123-1.80859v-5.01074c0-.76758-.03223-1.24805-.1123-1.80859h1.44043Z"/>
        <path class="cls-2" d="M881.15125,98.80859c.08008.41602.24023.94434.49609,1.56836l1.82422,4.70605c.08008.20801.25586.7207.35352,1.04102.12695-.40039.22266-.67285.36719-1.02441l1.82422-4.72266c.28906-.71973.40039-1.12012.48047-1.56836h1.50586c-.20898.38379-.25781.5127-.78516,1.76074l-2.24023,5.39453c-.35352.87988-.40039.97656-.51367,1.47266h-1.26367c-.0957-.40039-.20898-.68848-.52734-1.47266l-2.22559-5.39453c-.30371-.7041-.46387-1.05664-.7998-1.76074h1.50391Z"/>
        <path class="cls-2" d="M890.44812,103.30664c.04688,1.07227.20703,1.66406.63867,2.24121.51367.7041,1.29688,1.08789,2.25781,1.08789,1.29688,0,2.19336-.63965,2.64062-1.87305l1.12109.44824c-.30469.67285-.51172.96094-.88086,1.3291-.75195.73633-1.72852,1.12012-2.89648,1.12012-2.51367,0-4.09766-1.76074-4.09766-4.5293,0-2.7373,1.56836-4.53027,3.96875-4.53027,2.06445,0,3.55469,1.32812,3.87305,3.47363.01758.17578.08008.7998.11328,1.23242h-6.73828ZM895.90515,102.29785c-.0957-.89648-.33594-1.47266-.84766-1.96875-.49609-.47949-1.12109-.71973-1.88867-.71973-.97656,0-1.79297.49609-2.27344,1.39258-.22461.39941-.30469.6875-.40039,1.2959h5.41016Z"/>
        <path class="cls-2" d="M904.54578,100.04102c-.60938-.19141-.89648-.24023-1.29688-.24023-.81641,0-1.48828.33691-1.96875.97656-.38477.49609-.52734.88086-.5918,1.60059v3.26562c0,.71973.03125,1.16797.11133,1.79297h-1.43945c.08008-.73633.11133-1.15234.11133-1.80859v-5.01074c0-.7998-.03125-1.23242-.11133-1.80859h1.32812v.91211c0,.12891,0,.36816-.01562.48047.30273-.49609.54297-.75195.87891-.97656.60938-.40039,1.15234-.55957,1.92188-.55957.48047,0,.75195.03125,1.42383.14355l-.35156,1.23242Z"/>
        <path class="cls-2" d="M906.46179,100.68164q-.71875-1.58496-.87891-1.87305h1.56836c.08008.44824.28711,1.08887.54297,1.69727l2.32227,5.37793,2.06445-5.37793c.32031-.81641.46484-1.24902.52734-1.69727h1.49023c-.09766.24023-.36914.86426-.78516,1.87305l-3.58594,8.73926c-.41602,1.02441-1.11914,1.48828-2.25586,1.48828-.35352,0-.70508-.04785-1.3125-.17578l.33594-1.18457c.44727.20801.67188.27246.97656.27246.54297,0,.92773-.28809,1.18359-.88086l.73633-1.76074-2.92969-6.49805Z"/>
      </g>
    </g>
  </g>
</svg>