<?xml version="1.0" encoding="UTF-8"?>
<svg id="_レイヤー_2" data-name="レイヤー_2" xmlns="http://www.w3.org/2000/svg" viewBox="0 0 967.50049 171.57812">
  <defs>
    <style>
      .cls-1 {
        fill: #231815;
      }

      .cls-2 {
        fill: #f6f2e7;
      }

      .cls-3 {
        fill: #fff;
      }
    </style>
  </defs>
  <g id="_レイヤー_1-2" data-name="レイヤー_1">
    <g>
      <g>
        <circle class="cls-2" cx="881.71075" cy="85.78907" r="85.03937"/>
        <g>
          <path class="cls-3" d="M851.35139,48.89608c-14.97254,0-23.91083,13.8501-23.91083,37.04865,0,17.75986,6.28143,36.73737,23.91083,36.73737,11.55945,0,23.91083-9.65103,23.91083-36.73737,0-17.91046-6.28143-37.04865-23.91083-37.04865ZM851.35139,122.13553c-9.4574,0-14.05518-11.83823-14.05518-36.1908,0-24.63227,4.59778-36.60599,14.05518-36.60599,9.2569,0,13.95081,12.31613,13.95081,36.60599,0,24.01429-4.69391,36.1908-13.95081,36.1908Z"/>
          <path class="cls-3" d="M908.86208,122.6821c16.7276,0,27.11884-8.68607,27.11884-22.66892,0-13.28888-9.16809-20.91065-25.1532-20.91065-4.49616,0-8.48786.56992-12.56195,1.79306l-2.27234.68207,1.61591-23.34412h35.88685v-7.68265h-36.86554l-2.29614,31.84754,1.41998.7338c3.43048-1.11877,6.99829-1.62094,11.45325-1.62094,11.23261,0,17.67426,7.30911,17.67426,20.0528,0,12.68875-6.96991,20.57144-18.19062,20.57144-2.48016,0-4.52362-.31311-6.62476-1.01578l-.90454-.30212-1.94275-9.83048c-.97412-5.94864-2.97546-6.43662-5.11505-6.43662-1.22223,0-3.36823.36255-4.42108,2.71271,1.41724,9.94766,8.9209,15.41886,21.1789,15.41886Z"/>
        </g>
        <circle class="cls-2" cx="682.73039" cy="85.78907" r="85.03937"/>
        <g>
          <path class="cls-3" d="M648.83511,48.89652c-14.97254,0-23.91175,13.84918-23.91175,37.04773,0,17.76032,6.28143,36.73737,23.91175,36.73737,11.55945,0,23.91083-9.65058,23.91083-36.73737,0-17.91046-6.28143-37.04773-23.91083-37.04773ZM648.83511,122.13505c-9.4574,0-14.05518-11.83777-14.05518-36.1908,0-24.63135,4.59778-36.60553,14.05518-36.60553,9.2569,0,13.95081,12.31568,13.95081,36.60553,0,24.01429-4.69391,36.1908-13.95081,36.1908Z"/>
          <path class="cls-3" d="M735.22245,95.75687h-11.69037v-45.72236h-6.91956l-32.52045,46.35773v5.18829h30.41108v19.44672h9.02893v-19.44672h11.69037v-5.82367ZM714.50315,95.75687h-29.52668l29.52668-41.88447v41.88447Z"/>
        </g>
        <circle class="cls-2" cx="483.75009" cy="85.78907" r="85.03937"/>
        <g>
          <path class="cls-3" d="M453.64916,48.89608c-14.97208,0-23.91083,13.8501-23.91083,37.04865,0,17.75986,6.28143,36.73737,23.91083,36.73737,11.55945,0,23.91083-9.65103,23.91083-36.73737,0-17.91046-6.28143-37.04865-23.91083-37.04865ZM453.64916,122.13553c-9.4574,0-14.05472-11.83823-14.05472-36.1908,0-24.63227,4.59732-36.60599,14.05472-36.60599,9.2569,0,13.95081,12.31613,13.95081,36.60599,0,24.01429-4.69391,36.1908-13.95081,36.1908Z"/>
          <g>
            <path class="cls-3" d="M496.98886,65.37328c2.04895,0,4.50348-.60928,5.31189-5.35904l.02472-.11856,2.39044-9.66934c-6.64307,2.11441-10.7721,6.66596-11.52558,13.04672.79285,1.34079,2.15515,2.10022,3.79852,2.10022Z"/>
            <path class="cls-3" d="M502.0032,121.19803l-2.06909-9.88449c-1.06201-6.25855-3.03955-6.763-5.32562-6.763-.90454,0-3.06152.27512-4.21234,2.73331,1.09497,7.99622,5.91431,12.025,11.60706,13.91419Z"/>
            <path class="cls-3" d="M537.76187,103.01382c0-9.87351-6.17889-15.63767-18.88916-17.62162l-8.41919-1.31424,8.30475-1.90567c11.09894-2.54746,16.72669-8.20404,16.72669-16.8132,0-10.30884-7.9715-16.46302-21.32263-16.46302-2.9068,0-5.56458.30899-7.94129.90363,1.68915-.31815,3.03589-.46097,4.31763-.46097,9.39331,0,14.78119,5.95184,14.78119,16.32889,0,11.32736-6.56983,18.08991-17.57355,18.08991h-2.1872v.8551h2.91321c11.93115,0,18.50189,6.64444,18.50189,18.70926,0,12.13211-6.57074,18.81363-18.50189,18.81363-1.88599,0-3.67584-.21881-5.46936-.66925l-.76904-.19272c3.29407,1.0556,6.86554,1.40854,10.16693,1.40854,15.4065,0,25.36103-7.72019,25.36103-19.66828Z"/>
          </g>
        </g>
        <circle class="cls-2" cx="284.76979" cy="85.78907" r="85.03937"/>
        <g>
          <path class="cls-3" d="M254.716,48.89652c-14.97208,0-23.91037,13.84918-23.91037,37.04773,0,17.76032,6.28143,36.73737,23.91037,36.73737,11.55899,0,23.91037-9.65058,23.91037-36.73737,0-17.91046-6.28143-37.04773-23.91037-37.04773ZM254.716,122.13688c-9.4574,0-14.05472-11.83869-14.05472-36.19263,0-24.63227,4.59732-36.60645,14.05472-36.60645,9.2569,0,13.95035,12.31659,13.95035,36.60645,0,24.01612-4.69345,36.19263-13.95035,36.19263Z"/>
          <g>
            <path class="cls-3" d="M315.23511,48.89652c-2.15149,0-4.1954.17487-6.11481.51086.56122-.04578,1.1174-.06958,1.66718-.06958,9.10401,0,14.98627,6.8161,14.98627,17.36481,0,10.08545-4.23981,17.91596-16.80176,31.0318-5.16907,5.27527-11.0463,11.4679-16.6127,17.50489v5.78796h46.37467v-7.68494h-44.48594l6.19995-5.3183c3.98529-3.42682,7.74994-6.66229,10.46723-8.7854,19.021-14.68872,25.43839-22.76734,25.43839-32.01874,0-11.8158-7.5-18.32337-21.11847-18.32337Z"/>
            <path class="cls-3" d="M292.09836,64.74247c.95123,1.67908,2.50351,2.59735,4.41376,2.59735,1.76102,0,4.22836-.67657,5.31784-6.52313l.02518-.11353,2.63123-10.08637c-6.93558,2.47559-11.49216,7.48444-12.388,14.12567Z"/>
          </g>
        </g>
        <circle class="cls-2" cx="85.78949" cy="85.78907" r="85.03937"/>
        <g>
          <path class="cls-3" d="M56.98154,48.89608c-14.97208,0-23.91083,13.8501-23.91083,37.04865,0,17.75986,6.28143,36.73737,23.91083,36.73737,11.55945,0,23.91083-9.65103,23.91083-36.73737,0-17.91046-6.28143-37.04865-23.91083-37.04865ZM56.98154,122.13553c-9.4574,0-14.05472-11.83823-14.05472-36.1908,0-24.63227,4.59732-36.60599,14.05472-36.60599,9.2569,0,13.95081,12.31613,13.95081,36.60599,0,24.01429-4.69391,36.1908-13.95081,36.1908Z"/>
          <path class="cls-3" d="M123.79902,49.58776l-.17899-.14008-24.03717,5.72434v.71869l13.44864-1.34583v43.81394c0,6.39587-.10483,12.88696-.31219,19.29245l-.04532,1.40579-15.26322,1.85623v.11398h41.09757v-.12039l-14.74732-1.85577-.04532-1.39984c-.20645-6.37756-.31082-12.8682-.31082-19.29245v-32.89856l.39413-15.8725Z"/>
        </g>
        <path class="cls-1" d="M881.71045,0c-47.30469,0-85.78906,38.48438-85.78906,85.78906,0,.83734.03943,1.66528.06335,2.49695-7.07452.29449-14.16339.17657-21.22815-.39734l-.2312-.01465c-2.95203-.19183-4.96503-.33618-6.04724-.43378.0105-.55127.04187-1.09747.04187-1.65118,0-47.30469-38.48535-85.78906-85.79004-85.78906-46.00092,0-83.64948,36.39514-85.69043,81.90131-5.13892-.0379-10.37756.20673-15.74243,1.10626-3.87195.64856-7.83954,1.4718-11.7691,2.32745-.24664-47.09546-38.6261-85.33502-85.77802-85.33502-47.3042,0-85.78906,38.48438-85.78906,85.78906,0,.46844.02795.93018.03546,1.39685-1.26654.08856-2.53137.17352-3.79919.26569-2.25482.16327-4.50739.32361-6.75769.48108-.34802.02362-4.72412.21149-5.94537.22229-2.70123.02429-5.34027-.11688-7.888-.25293l-1.77325-.09216c-.44073-.02203-.8819-.05377-1.323-.08258.01447-.64661.04919-1.28827.04919-1.93823,0-47.30469-38.48486-85.78906-85.78906-85.78906s-85.78955,38.48438-85.78955,85.78906c0,1.599.05212,3.18567.13892,4.76337-8.66919,1.06458-18.76508.84363-27.64789-.52185.06879-1.40564.1076-2.81909.1076-4.24152C171.5791,38.48438,133.09424,0,85.78955,0S0,38.48438,0,85.78906s38.48486,85.78906,85.78955,85.78906c45.33282,0,82.54169-35.34955,85.56689-79.92828,1.87817.34576,3.76233.65997,5.65942.8949,5.95264.72229,14.65558.62506,22.23016-.33209,3.29944,44.31268,40.38232,79.36548,85.52399,79.36548,46.03625,0,83.70612-36.45233,85.69318-82.00806.57697.05096,1.15533.10223,1.72729.15192,1.96069.17029,3.9198.33972,5.87042.52655.58325.01636,11.95001-.41846,19.99359-.77032,1.94055,45.59845,39.62848,82.09991,85.6955,82.09991,46.71613,0,84.80457-37.53992,85.74506-84.03546,9.18756-2.14594,18.62323-3.37207,27.49365-3.63855-.01367.62891-.04779,1.25281-.04779,1.88495,0,47.30469,38.48438,85.78906,85.78906,85.78906,45.95105,0,83.57166-36.31555,85.68762-81.75262.51251.07385.86798.12097,1.01074.13196,6.328.48663,13.89508,1.00232,22.01575,1.1535,1.50067.02777,3.06818-.00574,4.65424-.0603,2.72961,44.86176,40.07568,80.52747,85.61212,80.52747,47.30469,0,85.79004-38.48438,85.79004-85.78906S929.01514,0,881.71045,0ZM85.78955,170.07812C39.31201,170.07812,1.5,132.2666,1.5,85.78906S39.31201,1.5,85.78955,1.5s84.28955,37.81152,84.28955,84.28906-37.81201,84.28906-84.28955,84.28906ZM284.77002,170.07812c-46.47754,0-84.28955-37.81152-84.28955-84.28906S238.29248,1.5,284.77002,1.5s84.28906,37.81152,84.28906,84.28906-37.81201,84.28906-84.28906,84.28906ZM483.75,170.07812c-46.47705,0-84.28906-37.81152-84.28906-84.28906S437.27295,1.5,483.75,1.5s84.28955,37.81152,84.28955,84.28906-37.8125,84.28906-84.28955,84.28906ZM682.72998,170.07812c-46.47754,0-84.28906-37.81152-84.28906-84.28906S636.25244,1.5,682.72998,1.5s84.29004,37.81152,84.29004,84.28906-37.8125,84.28906-84.29004,84.28906ZM881.71045,170.07812c-46.47754,0-84.28906-37.81152-84.28906-84.28906S835.23291,1.5,881.71045,1.5s84.29004,37.81152,84.29004,84.28906-37.8125,84.28906-84.29004,84.28906Z"/>
      </g>
      <g>
        <path class="cls-1" d="M60.83289,93.9632c-1.02441-.01562-1.87305-.11133-2.51367-.28809-.63965-.19141-1.2002-.5918-1.69629-1.16895-.22363-.27148-.43164-.39941-.62402-.39941-.38477,0-1.00879.73633-1.87305,2.20898l-.86426-.78418c.83203-1.34473,1.58496-2.16113,2.22461-2.44922v-4.86621h-2.27246v-1.05664h3.34473v5.98633c.12891.09668.25684.20801.40039.36816.38477.46484.80078.80078,1.24902,1.00879.49609.22363,1.21582.35156,2.17676.38379.84863.0166,1.9043.03223,3.15332.03223.75195,0,1.52051-.01562,2.30469-.03223.76855-.01562,1.37695-.03223,1.79297-.06348l-.27246,1.15234h-3.66504c-.88086,0-1.84082-.01562-2.86523-.03223ZM57.15125,82.35871l-.81641.7998c-.67188-.7998-1.58496-1.64844-2.75293-2.54492l.78418-.75195c1.10449.83203,2.0332,1.66406,2.78516,2.49707ZM57.50378,85.60773l-.33691-1.08789c1.23242-1.47266,2.09766-3.07324,2.59375-4.80273l1.07227.19238c-.19238.6084-.40039,1.18457-.65625,1.74512h2.89648c-.25586-.6084-.55957-1.20117-.89551-1.76074l1.04004-.28809c.38379.67188.67188,1.3125.87988,1.88867l-.43164.16016h3.42578v1.05566h-3.07324v1.87305h2.59277v1.00879h-2.59277v1.85645h2.6084v1.00879h-2.6084v1.96875h3.20117v1.04004h-8.43555v-7.42676c-.40039.54395-.83301,1.07227-1.28027,1.56836ZM62.92957,82.71027h-3.05762v1.87305h3.05762v-1.87305ZM62.92957,85.5921h-3.05762v1.85645h3.05762v-1.85645ZM62.92957,88.45734h-3.05762v1.96875h3.05762v-1.96875Z"/>
        <path class="cls-1" d="M74.62292,80.2298c-.89551,1.77637-2.33691,3.34473-4.32129,4.70605l-.33594-1.15234c1.66406-1.18457,2.86523-2.5293,3.61719-4.03418l1.04004.48047ZM75.37585,83.87921c-.46484.89648-1.04102,1.76074-1.74512,2.56055v7.84375h-1.13672v-6.6748c-.63965.57617-1.32812,1.13672-2.09668,1.66504l-.33594-1.15332c1.95312-1.37598,3.37793-2.94434,4.27344-4.72168l1.04102.48047ZM84.48328,84.69562v1.13672h-2.59277v6.99414c0,.92871-.52832,1.39258-1.55273,1.39258h-2.35352l-.23926-1.13574c.76758.04785,1.48828.0791,2.19238.0791.5127,0,.78418-.20801.78418-.62402v-6.70605h-5.04199v-1.13672h8.80371ZM83.77917,80.63019v1.13574h-7.66699v-1.13574h7.66699Z"/>
        <path class="cls-1" d="M89.31042,81.70246c-.24023-.64062-.51172-1.26465-.83203-1.84082l1.10449-.30469c.33594.70508.5918,1.36133.76855,1.9375l-.54492.20801h2.35352v1.07227h-5.07422v-1.07227h2.22461ZM88.5741,94.28351h-1.08789v-5.63477h4.30566v5.37891h-1.05664v-.75293h-2.16113v1.00879ZM91.64734,84.03937v1.00781h-4.01758v-1.00781h4.01758ZM91.64734,86.23175v1.02441h-4.01758v-1.02441h4.01758ZM90.73523,89.67316h-2.16113v2.54492h2.16113v-2.54492ZM92.70398,85.3675l-.67188-.87988c1.21582-1.34473,2.04883-3.00977,2.48047-4.96191l1.12109.16016c-.12891.54395-.28906,1.07227-.44824,1.58398h5.80957c0,5.8584-.08008,9.49219-.23926,10.86816-.16016,1.3457-.89648,2.0332-2.24121,2.0332-.33594,0-.91211-.03125-1.74512-.06348l-.27148-1.05664c.7041.03223,1.32812.06348,1.85645.06348.76855,0,1.2168-.47949,1.32812-1.42383.1123-1.00879.17676-4.12988.20801-9.36426h-5.1377c-.32031.67188-.67188,1.28027-1.07227,1.84082h4.36914v7.36328h-4.59375v-7.05957c-.25586.32031-.49609.6084-.75195.89648ZM97.00964,87.32062v-2.17676h-2.49707v2.17676h2.49707ZM97.00964,88.28058h-2.49707v2.27344h2.49707v-2.27344Z"/>
        <path class="cls-1" d="M110.46472,86.24835h-4.51465v8.00293h-1.15234v-14.08594h5.66699v6.08301ZM109.3114,81.18976h-3.36133v1.55273h3.36133v-1.55273ZM105.95007,85.22394h3.36133v-1.50488h-3.36133v1.50488ZM114.28992,87.54425v4.75391h-6.14648v-4.75391h6.14648ZM113.1698,88.56867h-3.90625v2.70508h3.90625v-2.70508ZM111.88855,86.24835v-6.08301h5.74707v12.69336c0,.88086-.44824,1.3291-1.3291,1.3291-.56055,0-1.12012-.0166-1.66406-.03223l-.28906-1.10449c.54492.03223,1.04102.06348,1.52148.06348.41602,0,.62402-.20801.62402-.62402v-6.24219h-4.61035ZM116.4989,81.20636h-3.45801v1.53613h3.45801v-1.53613ZM113.04089,85.20734h3.45801v-1.48828h-3.45801v1.48828Z"/>
      </g>
      <g>
        <path class="cls-1" d="M256.77234,85.62335c.47949-.87988.94434-1.74414,1.37598-2.6084l1.18457.35156c-.41602.80078-.81641,1.55273-1.2002,2.25684h8.27539v1.12109h-3.15332c-.65625,1.69629-1.40918,3.02539-2.25684,4.01758,1.64844.7041,3.3291,1.53613,5.02539,2.49707l-.76758,1.00879c-1.69727-.99316-3.39355-1.88965-5.09082-2.65723-1.79199,1.60059-4.16113,2.43262-7.13867,2.5293l-.67188-1.07324c2.7207-.01562,4.94531-.67188,6.64258-1.96875-1.50488-.64062-2.99316-1.2002-4.48242-1.68066.57715-.89648,1.12109-1.79297,1.63281-2.67285h-3.85742v-1.12109h4.48242ZM265.97546,84.61554h-1.18457v-2.32129h-10.93262v2.30469h-1.18359v-3.4248h6.08203c-.22363-.54395-.46387-1.02441-.73633-1.47266l1.28027-.22461c.25684.5127.49609,1.07324.7207,1.69727h5.9541v3.44141ZM256.16394,88.95343c1.21582.35156,2.44824.7998,3.71289,1.32812.86426-.94434,1.56934-2.12891,2.11328-3.53711h-4.48145c-.48047.83203-.92871,1.56836-1.34473,2.20898Z"/>
        <path class="cls-1" d="M269.29773,94.13996l-.25586-1.12109c.46387.03223.91211.06445,1.3291.06445.44727,0,.6875-.19238.6875-.57715v-3.8252c-.57617.22461-1.16797.44824-1.76074.64062l-.27148-1.16895c.68848-.17578,1.36035-.38379,2.03223-.63965v-3.72949h-1.72852v-1.10449h1.72852v-3.02539h1.12109v3.02539h1.42383v1.10449h-1.42383v3.26465c.52832-.25586,1.04004-.51172,1.55273-.7998v1.18457c-.5127.27148-1.02441.52832-1.55273.76758v4.59375c0,.89746-.48047,1.3457-1.40918,1.3457h-1.47266ZM277.71765,79.6214v14.66211h-1.10449v-3.52148h-3.15332v-1.05664h3.15332v-2.76855h-2.25684v-1.05664h2.25684v-2.65723h-2.5127v-1.04004h2.5127v-2.56152h1.10449ZM280.74304,79.6214v2.56152h2.73633v1.04004h-2.73633v2.65723h2.40039v1.05664h-2.40039v2.76855h2.84863v1.05664h-2.84863v3.52148h-1.12109v-14.66211h1.12109Z"/>
        <path class="cls-1" d="M286.51453,84.37531l-.6084-.95996c2.57715-1.08887,4.91406-2.33691,6.99512-3.76172h.7041c2.08105,1.4082,4.41797,2.65723,6.99512,3.72949l-.6084.95996c-1.29688-.6084-2.48145-1.2002-3.56934-1.79297v.67285h-6.35449v-.62402c-1.08887.5918-2.27344,1.18457-3.55371,1.77637ZM298.87097,84.08722v4.08203h-11.23633v-4.08203h11.23633ZM298.2948,94.31574h-1.10449v-.6084h-7.8584v.62402h-1.10449v-5.29785h10.06738v5.28223ZM292.72449,84.9671h-4.0332v2.33789h4.0332v-2.33789ZM297.19031,90.93781v-1.04004h-7.8584v1.04004h7.8584ZM297.19031,92.79425v-1.04004h-7.8584v1.04004h7.8584ZM291.54089,86.888l-.78516.19238c-.22363-.57617-.51172-1.10449-.83203-1.61621l.78418-.25684c.32031.48047.59277,1.04102.83301,1.68066ZM293.25281,80.64582c-.84766.57617-1.77637,1.13672-2.76855,1.71289h5.58594c-1.02441-.57617-1.96875-1.13672-2.81738-1.71289ZM297.81531,84.9671h-4.03418v2.33789h4.03418v-2.33789ZM296.55066,85.41535c-.20801.64062-.48047,1.18457-.80078,1.66504l-.78418-.27246c.28809-.41602.56055-.94434.80078-1.58398l.78418.19141Z"/>
        <path class="cls-1" d="M306.13171,81.43l-.59277.22461h2.22559v1.05566h-4.72266v-1.05566h2.08105c-.22363-.64062-.49609-1.23242-.81641-1.79297l1.08887-.32031c.32031.7041.55957,1.32812.73633,1.88867ZM304.4823,94.26789h-1.05566v-5.66699h4.0332v5.42676h-1.04004v-.76855h-1.9375v1.00879ZM307.33191,83.97492v1.00879h-3.77734v-1.00879h3.77734ZM307.33191,86.23175v1.02441h-3.77734v-1.02441h3.77734ZM306.4198,89.62531h-1.9375v2.57715h1.9375v-2.57715ZM310.05261,88.34503v-.96094c-.51172.04883-1.05566.08008-1.61621.08008l-.28809-.7998c1.60059-.0166,2.94531-.20801,4.01758-.59277l.41602.73633c-.44824.19238-.95996.33691-1.52051.43262v1.10449h2.24121c-.03223-.67285-.04785-1.4082-.04785-2.17676h.99219c0,.7998.01562,1.53613.04785,2.17676h2.81738v.89648h-2.75391c.06445.86426.17676,1.56836.30469,2.1123.57617-.51172,1.07227-1.08789,1.45605-1.69629l.7207.54395c-.51172.81641-1.10449,1.52051-1.80859,2.09668.30371.6084.65625.91309,1.04004.94434.27246,0,.5127-.55957.7207-1.66406l.78418.54395c-.24023.81641-.46387,1.37695-.68848,1.68066-.24023.28809-.51172.43262-.81641.43262-.71973,0-1.32812-.46387-1.84082-1.36133-.63965.40039-1.3125.7373-2.04883,1.00879l-.39941-.91211c.76758-.27246,1.44043-.6084,2.04883-.99219-.22461-.70508-.36816-1.61719-.46484-2.7373h-2.30469v1.3125c.6084-.12793,1.16895-.25586,1.64844-.40039v.89648c-.46387.14355-1.00781.28809-1.64844.41602v1.4248c0,.83203-.44824,1.24902-1.34473,1.24902h-1.28027l-.20801-.92871c.38379.03125.76855.06348,1.15234.06348.44824,0,.67188-.20801.67188-.62402v-1.00879c-.5918.08008-1.21582.16016-1.88867.24023l-.14355-.99219c.73633-.04785,1.4248-.1123,2.03223-.17578v-1.47266h-1.96875v-.89648h1.96875ZM310.4696,80.99835c-.20898-.38477-.44824-.73633-.73633-1.07324l1.00781-.35156c.30469.40039.57617.87988.83301,1.4248h2.03223c.32031-.48047.6084-.97656.86426-1.50488l1.02441.35156c-.22363.41699-.46387.80078-.73633,1.15332h2.36914v.89551h-3.96973v.92871h3.31348v.88086h-3.31348v.97559h4.11426v.89648h-9.02832v-.89648h3.87402v-.97559h-3.26562v-.88086h3.26562v-.92871h-3.88965v-.89551h2.24121ZM317.22351,87.14484l-.47949.71973c-.64062-.44824-1.3125-.78418-1.98535-1.02441l.49609-.71973c.7207.28809,1.37695.62402,1.96875,1.02441Z"/>
      </g>
      <g>
        <path class="cls-1" d="M451.51062,94.13996l-.24023-1.12109c.44824.03223.86426.06445,1.28027.06445.38477,0,.59277-.20898.59277-.6084v-3.90625c-.6084.24023-1.23242.46484-1.85645.65625l-.27246-1.15234c.7207-.17578,1.4248-.40039,2.12891-.67188v-3.61719h-1.93652v-1.10449h1.93652v-3.02539h1.18457v3.02539h1.61621v1.10449h-1.61621v3.12109c.46387-.22461.92773-.44824,1.37598-.7041v1.16797c-.44824.24023-.91211.46387-1.37598.68848v4.72168c0,.89648-.46484,1.36133-1.37695,1.36133h-1.44043ZM465.22839,86.84015v1.02441h-4.00195v1.80859h3.3457v1.04102h-3.3457v2.06445c.64062.0957,1.39258.14453,2.27344.14453.83203,0,1.55273-.03223,2.14453-.08008l-.32031,1.12012c-.63965,0-1.23242-.01562-1.74414-.01562-2.11328-.0166-3.55371-.22461-4.32227-.6084-.6084-.32031-1.16797-.92871-1.64844-1.8252-.38379.99219-.91211,1.90527-1.60059,2.7373l-.84863-.73633c1.2168-1.47266,1.88867-3.13672,2.0166-4.96191l1.02441.1123c-.03125.57617-.11133,1.12012-.24023,1.66406.5127,1.07324,1.10449,1.76074,1.77734,2.06543.1123.04785.24023.0957.38379.14355v-4.67383h-4.0498v-1.02441h9.15625ZM464.17175,80.16535v5.55469h-6.97852v-5.55469h6.97852ZM463.05164,82.50226v-1.39258h-4.73828v1.39258h4.73828ZM463.05164,83.39875h-4.73828v1.37695h4.73828v-1.37695Z"/>
        <path class="cls-1" d="M468.15027,87.36847l-.38379-1.2168c1.74414-1.95215,3.00879-4.17773,3.80957-6.6748l1.08789.49707c-.41602,1.24805-.94434,2.43262-1.58398,3.53711v10.77246h-1.18457v-8.96387c-.52832.7041-1.10449,1.39258-1.74512,2.04883ZM474.80945,83.01496v-3.3457h1.18457v3.3457h2.86523v-3.3457h1.16797v3.3457h2.12891v1.12012h-2.12891v3.74609h2.57715v1.10449h-10.30859v-1.10449h2.51367v-3.74609h-2.06543v-1.12012h2.06543ZM476.34558,90.18585c-.83203,1.56836-1.82422,2.92871-2.96094,4.08203l-.99219-.7207c1.12012-1.07227,2.09668-2.35352,2.89648-3.85742l1.05664.49609ZM478.85925,87.88117v-3.74609h-2.86523v3.74609h2.86523ZM482.42859,93.53156l-1.02441.7041c-.73633-1.2168-1.74512-2.57715-3.00977-4.08203l.94434-.57617c1.34473,1.50488,2.36914,2.83301,3.08984,3.9541Z"/>
        <path class="cls-1" d="M489.20789,79.60578v1.69629h2.49707v1.02441h-2.49707v1.88867h3.08984v1.05664h-1.36035c-.12793.7998-.32031,1.55273-.54492,2.25684h1.36133v1.02441h-2.5459v1.9043h3.10547v1.05664h-3.10547v2.75391h-1.12012v-2.75391h-3.15332v-1.05664h3.15332v-1.9043h-2.57715v-1.02441h1.37695c-.16016-.83203-.33594-1.58496-.5127-2.25684h-1.36035v-1.05664h3.07324v-1.88867h-2.5127v-1.02441h2.5127v-1.69629h1.12012ZM489.89636,85.27179h-2.49707c.17676.67188.35254,1.4248.5127,2.25684h1.4248c.25586-.7041.43164-1.45703.55957-2.25684ZM493.81824,94.26789h-1.08887v-14.02246h6.08301c0,1.79297-.1123,2.99316-.30469,3.58594-.19141.5918-.78418.89648-1.77637.89648h-1.05664l-.32031-.99316c.22461,0,.5127.0166.84863.0166.38477,0,.65625-.03223.84863-.08008.19238-.06445.32031-.17578.41602-.36816.12793-.32031.19238-.99219.22461-2.0166h-3.87402v4.70508h5.10645v.99316c-.28809,1.76074-.80078,3.24902-1.55273,4.46582.63965.7041,1.39258,1.36035,2.27246,1.93652l-.75195.88086c-.83301-.625-1.55273-1.26465-2.14551-1.9375-.63965.80078-1.4082,1.47266-2.30469,1.98535l-.55957-.99219c.84766-.49707,1.56836-1.12109,2.14453-1.88965-.97656-1.34473-1.56836-2.81641-1.77637-4.40137h-.43262v7.23535ZM496.63562,90.52179c.57617-.99219.97656-2.16113,1.23242-3.48926h-2.59277c.19141,1.28027.63965,2.43262,1.36035,3.48926Z"/>
        <path class="cls-1" d="M506.328,80.08527c-.31934,1.02441-.71973,2.01758-1.2002,2.94531v11.28516h-1.12012v-9.36426c-.56055.83203-1.18457,1.61719-1.85742,2.35352l-.33594-1.15332c1.61719-1.88867,2.78516-4.06543,3.50586-6.51465l1.00781.44824ZM510.45789,92.92316c-.89648.54395-2.19238.99219-3.88965,1.32812l-.49609-.84766c1.69727-.32031,2.97754-.7207,3.85742-1.20117l.52832.7207ZM516.41199,80.2298v.99219h-3.15234v1.04004h2.54492v3.07324h-8.88379v-3.07324h2.625v-1.04004h-2.76953v-.99219h9.63574ZM515.35632,86.13605v6.03418h-7.93945v-6.03418h7.93945ZM509.67371,83.11066h-1.74512v1.39258h1.74512v-1.39258ZM514.31531,87.94464v-1.00781h-5.8418v1.00781h5.8418ZM514.31531,89.60968v-.94434h-5.8418v.94434h5.8418ZM514.31531,90.32941h-5.8418v.99316h5.8418v-.99316ZM512.26648,81.22199h-1.71191v1.04004h1.71191v-1.04004ZM512.26648,83.11066h-1.71191v1.39258h1.71191v-1.39258ZM516.58875,93.40363l-.35254.87988c-1.24805-.57617-2.5293-1.04102-3.85742-1.36035l.36816-.7207c1.32812.27246,2.60938.67188,3.8418,1.20117ZM514.79578,83.11066h-1.66504v1.39258h1.66504v-1.39258Z"/>
      </g>
      <g>
        <path class="cls-1" d="M615.6698,80.48566v1.12012h-2.16113c-.20801,1.28125-.5127,2.48145-.89648,3.60156h2.78516v8.3877h-1.02441v-.86426h-1.68066v1.02441h-1.00879v-6.40234c-.27148.51172-.55957,1.00781-.87988,1.48828l-.6084-.95996c1.12012-1.8252,1.85645-3.92188,2.20898-6.27539h-1.68066v-1.12012h4.94629ZM614.37292,91.67414v-5.41016h-1.68066v5.41016h1.68066ZM624.69714,84.13507h-1.05664v-1.9043h-3.37695c-.32031,1.02441-.68848,1.95215-1.08887,2.81641h1.80859c-.17578-.54395-.36816-1.08789-.5918-1.61621l1.00781-.27246c.25684.68848.46484,1.3125.625,1.88867h2.44824v1.00879h-2.5127v1.48828h2.24121v.99316h-2.24121v1.53613h2.27344v.99219h-2.27344v1.64941h2.92969v1.02441h-6.54688v.57617h-1.08887v-6.14648c-.35156.44824-.7041.84766-1.08789,1.23242l-.67285-.81641c1.61719-1.69727,2.83301-3.80957,3.63379-6.35449h-1.88867v2.20898h-1.05664v-3.21777h3.24902c.14453-.56055.27246-1.12012.38477-1.68066l1.07227.20801c-.1123.5127-.22461,1.00879-.33594,1.47266h4.14551v2.91309ZM620.87195,86.05597h-2.20898c-.1123.19238-.22461.36816-.32031.54395v.94434h2.5293v-1.48828ZM620.87195,88.53742h-2.5293v1.53613h2.5293v-1.53613ZM620.87195,92.71515v-1.64941h-2.5293v1.64941h2.5293Z"/>
        <path class="cls-1" d="M639.33582,84.35968v1.08789h-4.06543v2.81738h4.76953v1.08887h-4.76953v3.3125c1.12012.16016,2.46484.25684,4.06543.27246.81641,0,1.64941-.03223,2.51367-.0957l-.20801,1.15234h-1.79297c-3.2334,0-5.53809-.30371-6.94727-.89648-1.05664-.49609-1.9209-1.26465-2.57715-2.30469-.62402,1.37598-1.39258,2.5293-2.30469,3.45703l-.73633-.91211c1.53711-1.63281,2.56152-3.82617,3.10547-6.5791l1.12012.19238c-.19141.99219-.44824,1.9043-.73633,2.7373.76855,1.37598,1.72852,2.24023,2.88184,2.6084.14355.04883.30371.09668.46387.12891v-6.97949h-4.19336v-1.08789h9.41113ZM641.16101,84.64777h-1.12109v-2.35352h-10.85156v2.43359h-1.12109v-3.49023h6.11523c-.24023-.57617-.5127-1.10352-.80078-1.58398l1.23242-.19238c.25586.52832.5127,1.12012.73633,1.77637h5.81055v3.41016Z"/>
        <path class="cls-1" d="M647.78015,86.04035l-.81543.81641c-.67285-.73633-1.58496-1.53711-2.75391-2.36914l.81641-.80078c1.10449.78418,2.01758,1.56934,2.75293,2.35352ZM647.92468,88.28058c-.73633,2.08105-1.55273,4.01758-2.46484,5.82715l-1.07227-.46484c.97559-1.88867,1.82422-3.79297,2.52832-5.74609l1.00879.38379ZM648.21277,82.16632l-.81641.83203c-.67188-.73633-1.60059-1.52051-2.78516-2.35254l.81641-.78418c1.10449.76855,2.0332,1.53613,2.78516,2.30469ZM658.79285,80.27765v1.08887h-3.26465v1.91992h2.81641v10.94922h-1.08789v-.7207h-7.1709v.76855h-1.08887v-10.99707h2.68945v-1.91992h-3.12109v-1.08887h10.22754ZM650.08582,84.32746v5.49023h7.1709v-1.56836h-1.53711c-.83203,0-1.24805-.41699-1.24805-1.2334v-2.68848h-1.71289v.94434c-.03223,1.63281-.64062,2.81738-1.8252,3.56934l-.76758-.65625c1.05566-.6084,1.60059-1.56836,1.61621-2.91309v-.94434h-1.69629ZM657.25671,92.45832v-1.60059h-7.1709v1.60059h7.1709ZM654.43933,83.28644v-1.91992h-1.66504v1.91992h1.66504ZM657.25671,84.32746h-1.8252v2.46484c0,.33594.17578.5127.52832.5127h1.29688v-2.97754Z"/>
        <path class="cls-1" d="M667.62195,94.04328h-1.12109v-.81641h-3.37695v.81641h-1.13672v-6.94727h5.63477v6.94727ZM666.50085,92.138v-3.9375h-3.37695v3.9375h3.37695ZM672.93542,80.27765v5.23438h-8.81934v-5.23438h8.81934ZM671.78308,81.36652h-6.51465v3.05664h6.51465v-3.05664ZM675.06433,94.04328h-1.15234v-.81641h-3.50488v.81641h-1.13672v-6.94727h5.79395v6.94727ZM673.91199,92.138v-3.9375h-3.50488v3.9375h3.50488Z"/>
        <path class="cls-1" d="M681.42859,84.00714v-2.30469c-.80078.12793-1.61719.22363-2.44922.28809l-.36816-1.02441c2.38477-.19238,4.37012-.59277,5.9707-1.2002l.54395.95996c-.83203.30371-1.68066.56055-2.57715.75195v2.5293h2.7373v1.07227h-2.7373v.80078c.92871.81641,1.85645,1.74414,2.80176,2.80078l-.67285.99219c-.83203-1.13574-1.53613-2.04883-2.12891-2.7207v7.21875h-1.12012v-7.10645c-.68848,1.52051-1.60059,2.89648-2.7373,4.12891l-.48047-1.24805c1.48926-1.4082,2.56152-2.99316,3.21777-4.75391v-.1123h-2.80176v-1.07227h2.80176ZM692.05652,93.64289h-1.12012v-1.26465h-3.88965v1.4248h-1.10449v-13.10938h6.11426v12.94922ZM690.9364,91.29035v-9.52441h-3.88965v9.52441h3.88965Z"/>
        <path class="cls-1" d="M698.62878,94.25128h-1.07227v-8.35547c-.49609,1.60059-1.15234,3.05762-1.95312,4.37012l-.49609-1.26465c1.12012-1.58496,1.90527-3.39355,2.38477-5.44238h-1.9043v-1.05664h1.96875v-2.89648h1.07227v2.89648h1.74512v1.05664h-1.74512v.94434c.7041.81641,1.4248,1.72852,2.12891,2.7373l-.67285,1.00879c-.55957-1.02441-1.04004-1.85742-1.45605-2.49707v8.49902ZM703.07898,91.48175c-.70508,1.02441-1.58496,1.9375-2.60938,2.70605l-.65625-.84863c.99219-.7207,1.84082-1.55273,2.5293-2.49707l.73633.63965ZM703.44714,82.39093v-1.20117h-2.80176v-.99219h8.86816v.99219h-2.65723v1.20117h2.33691v3.69727h-8.09961v-3.69727h2.35352ZM703.01453,94.23566l-.22363-1.02441c.41602.03125.7998.06348,1.18359.06348.35254,0,.54492-.17578.54492-.49609v-2.59277h-3.77734v-.99219h8.80273v.99219h-3.96973v2.84863c0,.80078-.41602,1.20117-1.23242,1.20117h-1.32812ZM708.90515,87.11261v.99219h-7.42773v-.99219h7.42773ZM703.52625,83.28644h-1.42383v1.90527h1.42383v-1.90527ZM704.4071,81.18976v1.20117h1.48828v-1.20117h-1.48828ZM705.87976,83.28644h-1.45703v1.90527h1.45703v-1.90527ZM708.18445,83.28644h-1.4082v1.90527h1.4082v-1.90527ZM709.88171,93.3548l-.76855.75293c-.54395-.80078-1.3125-1.66504-2.30469-2.57715l.7041-.67285c.94434.83301,1.72852,1.66504,2.36914,2.49707Z"/>
        <path class="cls-1" d="M713.29968,83.43097l-.94434-.6084c.91211-.99219,1.56836-2.08105,1.96875-3.26562l1.08887.22461c-.12793.33594-.25684.65625-.38477.95996h4.27441v.94434h-2.5459c.28906.46484.54492.89648.73633,1.29688l-.92773.33594c-.27246-.55957-.59277-1.10449-.94434-1.63281h-1.07227c-.36816.64062-.78516,1.2168-1.24902,1.74512ZM721.78308,85.80011c-.03223-.78418-.04785-1.61719-.04785-2.51367h1.05664c0,.92871.01562,1.76074.04785,2.51367h3.50488v.95996h-3.45703c.04785.97656.12793,1.79297.25586,2.44922.08008.46387.17676.87988.27246,1.26465.52832-.89648,1.00879-1.90527,1.4248-3.05762l.87988.59277c-.57617,1.50391-1.21582,2.76855-1.9043,3.76074.04785.12891.11133.27246.17578.40039.32031.6084.62402.92871.91211.92871.25684,0,.5127-.67188.80078-2.0166l.91211.52832c-.44824,1.76074-.99219,2.64062-1.60059,2.64062-.54395,0-1.05664-.36816-1.55273-1.08887-.1123-.17578-.20801-.35156-.30371-.52734-.64062.73633-1.29688,1.28027-1.98535,1.64844l-.63965-.84863.19141-.11133c-1.85645.22363-4.48145.39941-7.875.54395l-.14355-.96094,2.84863-.0957v-1.07227h-2.46484v-.78418h2.46484v-.89648h-2.17676v-.73633h2.17676v-.83301h-2.36914v-.78418h2.36914v-.94434h-3.04102v-.95996h9.26758ZM714.02039,85.78351l-.67285-.5918c.81641-.6084,1.4248-1.39258,1.84082-2.38477l.80078.32031c-.1123.25586-.22461.49609-.35254.7041.46387.24023.89648.51172,1.28027.83203l-.46387.7207c-.40039-.36816-.7998-.67285-1.2168-.89648-.36816.51172-.76758.94434-1.21582,1.2959ZM717.57312,92.69855v-5.93848h-1.04004v6.00293l1.04004-.06445ZM717.71765,85.76789l-.65625-.5918c.73633-.57715,1.29688-1.3291,1.68066-2.28906l.81641.32031c-.09668.22363-.20801.44727-.30469.65625.59277.31934,1.13672.6875,1.61719,1.10352l-.46387.7207c-.5127-.48047-1.02441-.87988-1.53711-1.16797-.33594.49609-.7207.91211-1.15234,1.24805ZM722.69519,91.53058c-.19141-.5127-.35156-1.08887-.47949-1.69727-.17676-.84766-.30469-1.87207-.38477-3.07324h-3.28125v.89648h2.44922v.76855h-2.44922v.83203h2.25684v.73633h-2.25684v.80078h2.54492v.78418h-2.54492v1.05664c.92871-.06445,1.77734-.14453,2.5293-.24023v.68848c.57617-.41699,1.12012-.94531,1.61621-1.55273ZM720.34265,83.19074l-.91211-.57617c.71973-.92871,1.24805-1.93652,1.56836-3.02539l1.07227.22461c-.1123.32031-.22363.63965-.33594.92773h4.6416v.94434h-2.80078c.27246.38477.48047.75293.63965,1.10449l-.91211.33691c-.25586-.49707-.52832-.97656-.84766-1.44141h-1.15332c-.28809.54492-.60742,1.04102-.95996,1.50488ZM725.73718,84.79132l-.65625.65625c-.41699-.48047-.96094-.99219-1.66504-1.53613l.65625-.625c.65625.49707,1.2168.99316,1.66504,1.50488Z"/>
        <path class="cls-1" d="M731.90808,81.71808c-.27148-.63965-.5918-1.26465-.97559-1.85645l1.10352-.30469c.38477.70508.67285,1.34473.89648,1.9375l-.62402.22363h2.81738v1.05664h-5.9707v-1.05664h2.75293ZM734.53308,93.2591h-3.74512v.78418h-1.08887v-5.39453h4.83398v4.61035ZM734.42175,84.055v1.00879h-4.59375v-1.00879h4.59375ZM734.42175,86.26398v1.00879h-4.59375v-1.00879h4.59375ZM733.47742,92.21808v-2.56055h-2.68945v2.56055h2.68945ZM742.53699,86.45636v1.05664c-.44824,1.47266-1.16895,2.73633-2.19336,3.79297.96094.76855,2.12891,1.45703,3.53809,2.0332l-.625.99219c-1.47266-.67188-2.70508-1.44043-3.69727-2.28906-1.15234.96094-2.59277,1.71289-4.29004,2.28906l-.62402-.97656c1.63281-.54395,2.97754-1.24805,4.06543-2.1123-1.00781-1.08887-1.69629-2.32129-2.06445-3.66602h-1.00879v-1.12012h6.89941ZM741.6239,80.2298v3.45703c0,.40039.20898.6084.65625.6084h1.13672v1.05664h-1.4248c-1.02441,0-1.52051-.48047-1.52051-1.4248v-2.60938h-2.49707v.7207c0,1.60059-.75195,2.83301-2.22461,3.69727l-.76855-.84766c1.23242-.64062,1.85742-1.55273,1.85742-2.7373v-1.9209h4.78516ZM739.5116,90.52179c.83203-.86426,1.47266-1.85645,1.9043-2.94531h-3.66504c.33594,1.08887.92871,2.08105,1.76074,2.94531Z"/>
        <path class="cls-1" d="M748.72449,81.70246c-.24023-.64062-.52832-1.26465-.86426-1.84082l1.10449-.30469c.35156.70508.62402,1.36133.81641,1.9375l-.56055.20801h2.80078v1.07227h-6.0498v-1.07227h2.75293ZM747.65222,94.26789h-1.10449v-5.63477h4.88184v5.41016h-1.10449v-.73633h-2.67285v.96094ZM751.38171,84.0716v1.00781h-4.78613v-1.00781h4.78613ZM751.38171,86.26398v1.02441h-4.78613v-1.02441h4.78613ZM750.32507,89.67316h-2.67285v2.57715h2.67285v-2.57715ZM756.98328,79.63703v5.25098h3.66602v1.12012h-3.66602v8.25977h-1.13574v-8.25977h-3.55371v-1.12012h3.55371v-5.25098h1.13574Z"/>
      </g>
      <g>
        <path class="cls-1" d="M841.20007,87.36847l-.73633-.94434c1.50391-1.56836,2.52832-3.69727,3.05664-6.37012l1.16797.20801c-.17578.83203-.38379,1.60059-.62305,2.32031h3.4248v-2.84863h1.16895v2.84863h5.26562v1.12109h-5.26562v3.69727h4.94531v1.12012h-4.94531v4.06543h6.29004v1.15332h-14.10156v-1.15332h6.64258v-4.06543h-4.70605v-1.12012h4.70605v-3.69727h-3.8418c-.63965,1.45605-1.45605,2.67285-2.44824,3.66504Z"/>
        <path class="cls-1" d="M865.47449,82.93488c1.13574-.35254,2.14453-.76855,3.02441-1.24902h-10.17969v-.95996h6.22656c-.16016-.38379-.35156-.73633-.54395-1.05664l1.16895-.19238c.19141.35254.36719.76855.55957,1.24902h5.49023v.95996h-2.56152l.67285.44824c-.81641.44824-1.66504.83301-2.56152,1.18457,1.24902.36816,2.40137.73633,3.42578,1.10449l-.67188.67285h1.77637v.99219h-11.39648v1.80859c-.06348,2.65723-.57617,4.80176-1.56934,6.41895l-.84766-.76855c.83203-1.34473,1.26465-3.2334,1.29688-5.65039v-2.80078h10.67578c-1.12012-.44824-2.43262-.89648-3.96875-1.34473-1.66602.51172-3.45801.89648-5.41016,1.12012l-.54492-.73633c1.66406-.19238,3.16992-.46387,4.51367-.7998-1.12012-.32031-2.30469-.625-3.58594-.94434l.625-.59277c1.56836.38477,3.02539.75195,4.38574,1.13672ZM860.78406,90.39386l-.7998-.7041c1.02441-.76855,1.79199-1.80859,2.32129-3.12109l.91211.36816c-.14453.33594-.28809.65625-.43164.94434h2.83203v-1.3125h1.12109v1.3125h4.19336v1.00781h-4.19336v1.48926h3.8252v1.00781h-3.8252v1.48828h4.96191v.99316h-11.52441v-.99316h5.44141v-1.48828h-3.80859v-1.00781h3.80859v-1.48926h-3.44141c-.41602.59277-.87988,1.08887-1.39258,1.50488Z"/>
        <path class="cls-1" d="M880.94617,83.97492h2.97656v5.58691h2.48047l.09766-2.00098h-1.77734v-1.05664h1.82422l.08008-1.95312h-1.79297v-1.04004h1.8418l.0957-1.95312h-2.09766v-1.08789h3.20117l-.35156,9.0918h1.28125v1.08789h-14.19824v-1.08789h1.34473l-.36914-8.74023c1.24902-.20801,2.38574-.52832,3.41016-.95996l.43164,1.04004c-.55957.25684-1.47266.52832-2.75195.81641l.0957,1.77734h2.38477v1.04004h-2.33691l.0957,1.93652h2.12891v1.05664h-2.08105l.0957,2.0332h2.94531v-3.61816h1.07227v3.61816h1.79297v-4.5459h-2.99219v-5.23438h1.07227v1.29688h3.05664v1.05566h-3.05664v1.84082ZM880.17761,91.62628c-1.28027.99219-2.88184,1.87305-4.77051,2.625l-.71973-.92773c1.84082-.70508,3.39355-1.52148,4.65723-2.43359l.83301.73633ZM888.86804,93.32355l-.63867.99219c-1.60156-1.12109-3.23438-1.98535-4.89844-2.625l.57617-.86523c1.82422.68848,3.47266,1.52148,4.96094,2.49805Z"/>
        <path class="cls-1" d="M902.42078,86.55207c-.76953,1.47266-1.69727,2.7373-2.80273,3.80957,1.73047,1.24902,3.82617,2.17676,6.32422,2.81738l-.7207,1.07227c-2.59375-.73633-4.75391-1.76074-6.48242-3.10547-1.79297,1.44043-3.9707,2.49707-6.53125,3.16992l-.70508-1.05664c2.5293-.64062,4.62695-1.60059,6.30664-2.88086-1.16797-1.05664-2.12891-2.27344-2.88086-3.61816l.99219-.55957c.70508,1.3125,1.63281,2.44824,2.76953,3.4248,1.08789-1.02441,1.98438-2.19238,2.67383-3.53711l1.05664.46387ZM898.20984,81.51007c-.28711-.65625-.60742-1.24805-.95898-1.79297l1.2793-.22363c.32031.6084.64062,1.28027.92773,2.0166h6.30664v1.10449h-14.16406v-1.10449h6.60938ZM896.88171,83.84699c-1.2168,1.58496-2.7207,2.97754-4.51367,4.16211l-.73633-.97656c1.74414-1.12012,3.2168-2.41699,4.41797-3.92188l.83203.73633ZM905.66882,87.305l-.84766.84766c-1.05664-1.34473-2.5293-2.76855-4.40234-4.30566l.78516-.75195c1.77539,1.4082,3.26562,2.80078,4.46484,4.20996Z"/>
        <path class="cls-1" d="M912.94617,79.97394c-.35352,1.12012-.80078,2.16016-1.3125,3.15332v11.18848h-1.15234v-9.28418c-.57812.84863-1.23438,1.64844-1.95312,2.41699l-.35352-1.2002c1.69727-1.96875,2.92969-4.22559,3.69922-6.78711l1.07227.5127ZM919.41296,83.07843v-3.44141h1.15234v3.44141h2.30469v1.12109h-2.30469v8.35547c0,1.08789-.51367,1.63281-1.50586,1.63281h-2.32031l-.25586-1.13672c.75195.04785,1.47266.08008,2.17578.08008.49609,0,.75391-.28809.75391-.86426v-8.06738h-6.13086v-1.12109h6.13086ZM917.57117,89.72101l-.97656.68848c-.6875-1.16797-1.61719-2.46484-2.78516-3.88965l.94531-.57617c1.2168,1.44043,2.16016,2.70508,2.81641,3.77734Z"/>
      </g>
    </g>
  </g>
</svg>