<?xml version="1.0" encoding="UTF-8"?>
<svg id="_レイヤー_2" data-name="レイヤー_2" xmlns="http://www.w3.org/2000/svg" viewBox="0 0 362.33008 70.03125">
  <defs>
    <style>
      .cls-1 {
        fill: #231815;
      }

      .cls-2 {
        fill: #f6f2e7;
      }

      .cls-3 {
        fill: #fff;
      }
    </style>
  </defs>
  <g id="_レイヤー_1-2" data-name="レイヤー_1">
    <g>
      <g>
        <path class="cls-1" d="M327.31445,0c-19.30762,0-35.01562,15.70801-35.01562,35.01562,0,.67371.02368,1.3418.06152,2.00623l-.29102-.03308c-.95215-.10693-1.90405-.23877-2.85376-.38525.02368-.52686.04028-1.05542.04028-1.58789,0-19.30762-15.70801-35.01562-35.01562-35.01562-18.78833,0-34.16211,14.87427-34.97729,33.46436-1.04211.15991-2.07104.33154-3.10864.50903-.55469-18.82617-16.03125-33.97339-34.98926-33.97339-18.62012,0-33.88696,14.6106-34.95105,32.96851-.64709-.01562-1.27759-.03357-1.5802-.04944-.54346-.02856-1.07373-.07935-1.6062-.12598C141.87622,14.51794,126.65027,0,108.08984,0c-19.25012,0-34.91821,15.61548-35.01123,34.84424-1.01587.13745-2.03296.26392-3.05249.37219.00049-.06726.00513-.13342.00513-.20081C70.03125,15.70801,54.32324,0,35.01562,0S0,15.70801,0,35.01562s15.70801,35.01562,35.01562,35.01562c18.72705,0,34.06592-14.77783,34.97168-33.28418,1.01892-.09302,2.06519-.19763,3.12305-.31104.74866,18.65088,16.14819,33.59521,34.97949,33.59521,19.30762,0,35.01562-15.70801,35.01562-35.01562,0-.32056-.01562-.63721-.02417-.95557.63293.01978,1.74084.04858,3.09033.08105-.0072.29163-.02222.5813-.02222.87451,0,19.30762,15.70801,35.01562,35.01562,35.01562,19.29761,0,34.99854-15.69189,35.01489-34.9856,1.01318-.18945,2.03345-.35425,3.05566-.5-.0022.1571-.01196.31226-.01196.46997,0,19.30762,15.70801,35.01562,35.0166,35.01562,18.41504,0,33.54443-14.29199,34.90503-32.36499,1.02356.16064,2.0498.32031,3.06055.47192.08081.01221.16162.0249.24243.03699,1.60327,17.83179,16.62415,31.85608,34.86621,31.85608,19.30762,0,35.01562-15.70801,35.01562-35.01562S346.62207,0,327.31445,0Z"/>
        <circle class="cls-2" cx="327.31457" cy="35.01594" r="34.01575"/>
        <g>
          <path class="cls-3" d="M315.17082,20.25874c-5.98901,0-9.56433,5.54004-9.56433,14.81946,0,7.10394,2.51257,14.69495,9.56433,14.69495,4.62378,0,9.56433-3.86041,9.56433-14.69495,0-7.16419-2.51257-14.81946-9.56433-14.81946ZM315.17082,49.55452c-3.78296,0-5.62207-4.73529-5.62207-14.47632,0-9.85291,1.83911-14.6424,5.62207-14.6424,3.70276,0,5.58032,4.92645,5.58032,14.6424,0,9.60571-1.87756,14.47632-5.58032,14.47632Z"/>
          <path class="cls-3" d="M338.1751,49.77315c6.69104,0,10.84754-3.47443,10.84754-9.06757,0-5.31555-3.66724-8.36426-10.06128-8.36426-1.79846,0-3.39514.22797-5.02478.71722l-.90894.27283.64636-9.33765h14.35474v-3.07306h-14.74622l-.91846,12.73902.56799.29352c1.37219-.44751,2.79932-.64838,4.5813-.64838,4.49304,0,7.0697,2.92365,7.0697,8.02112,0,5.0755-2.78796,8.22858-7.27625,8.22858-.99207,0-1.80945-.12524-2.6499-.40631l-.36182-.12085-.7771-3.93219c-.38965-2.37946-1.19019-2.57465-2.04602-2.57465-.48889,0-1.34729.14502-1.76843,1.08508.56689,3.97907,3.56836,6.16754,8.47156,6.16754Z"/>
        </g>
        <circle class="cls-2" cx="254.23977" cy="35.01594" r="34.01575"/>
        <g>
          <path class="cls-3" d="M240.68165,20.25892c-5.98901,0-9.5647,5.53967-9.5647,14.81909,0,7.10413,2.51257,14.69495,9.5647,14.69495,4.62378,0,9.56433-3.86023,9.56433-14.69495,0-7.16419-2.51257-14.81909-9.56433-14.81909ZM240.68165,49.55433c-3.78296,0-5.62207-4.73511-5.62207-14.47632,0-9.85254,1.83911-14.64221,5.62207-14.64221,3.70276,0,5.58032,4.92627,5.58032,14.64221,0,9.60571-1.87756,14.47632-5.58032,14.47632Z"/>
          <path class="cls-3" d="M275.23659,39.00306h-4.67615v-18.28894h-2.76782l-13.00818,18.54309v2.07532h12.16443v7.77869h3.61157v-7.77869h4.67615v-2.32947ZM266.94887,39.00306h-11.81067l11.81067-16.75379v16.75379Z"/>
        </g>
        <circle class="cls-2" cx="181.16496" cy="35.01594" r="34.01575"/>
        <g>
          <path class="cls-3" d="M169.12459,20.25874c-5.98883,0-9.56433,5.54004-9.56433,14.81946,0,7.10394,2.51257,14.69495,9.56433,14.69495,4.62378,0,9.56433-3.86041,9.56433-14.69495,0-7.16419-2.51257-14.81946-9.56433-14.81946ZM169.12459,49.55452c-3.78296,0-5.62189-4.73529-5.62189-14.47632,0-9.85291,1.83893-14.6424,5.62189-14.6424,3.70276,0,5.58032,4.92645,5.58032,14.6424,0,9.60571-1.87756,14.47632-5.58032,14.47632Z"/>
          <g>
            <path class="cls-3" d="M186.46047,26.84962c.81958,0,1.80139-.24371,2.12476-2.14362l.00989-.04742.95618-3.86774c-2.65723.84576-4.30884,2.66638-4.61023,5.21869.31714.53632.86206.84009,1.51941.84009Z"/>
            <path class="cls-3" d="M188.46621,49.17952l-.82764-3.9538c-.4248-2.50342-1.21582-2.7052-2.13025-2.7052-.36182,0-1.22461.11005-1.68494,1.09332.43799,3.19849,2.36572,4.81,4.64282,5.56567Z"/>
            <path class="cls-3" d="M202.76967,41.90584c0-3.9494-2.47156-6.25507-7.55567-7.04865l-3.36768-.5257,3.3219-.76227c4.43958-1.01898,6.69067-3.28162,6.69067-6.72528,0-4.12354-3.1886-6.58521-8.52905-6.58521-1.16272,0-2.22583.1236-3.17651.36145.67566-.12726,1.21436-.18439,1.72705-.18439,3.75732,0,5.91248,2.38074,5.91248,6.53156,0,4.53095-2.62793,7.23596-7.02942,7.23596h-.87488v.34204h1.16528c4.77246,0,7.40076,2.65778,7.40076,7.4837,0,4.85284-2.6283,7.52545-7.40076,7.52545-.75439,0-1.47034-.08752-2.18774-.2677l-.30762-.07709c1.31763.42224,2.74622.56342,4.06677.56342,6.1626,0,10.14441-3.08807,10.14441-7.86731Z"/>
          </g>
        </g>
        <circle class="cls-2" cx="108.09016" cy="35.01594" r="34.01575"/>
        <g>
          <path class="cls-3" d="M96.06864,20.25892c-5.98883,0-9.56415,5.53967-9.56415,14.81909,0,7.10413,2.51257,14.69495,9.56415,14.69495,4.6236,0,9.56415-3.86023,9.56415-14.69495,0-7.16419-2.51257-14.81909-9.56415-14.81909ZM96.06864,49.55506c-3.78296,0-5.62189-4.73547-5.62189-14.47705,0-9.85291,1.83893-14.64258,5.62189-14.64258,3.70276,0,5.58014,4.92664,5.58014,14.64258,0,9.60645-1.87738,14.47705-5.58014,14.47705Z"/>
          <g>
            <path class="cls-3" d="M120.27629,20.25892c-.8606,0-1.67816.06995-2.44592.20435.22449-.01831.44696-.02783.66687-.02783,3.6416,0,5.99451,2.72644,5.99451,6.94592,0,4.03418-1.69592,7.16638-6.7207,12.41272-2.06763,2.11011-4.41852,4.58716-6.64508,7.00195v2.31519h18.54987v-3.07398h-17.79438l2.47998-2.12732c1.59412-1.37073,3.09998-2.66492,4.18689-3.51416,7.6084-5.87549,10.17536-9.10693,10.17536-12.8075,0-4.72632-3-7.32935-8.44739-7.32935Z"/>
            <path class="cls-3" d="M111.02159,26.5973c.38049.67163,1.0014,1.03894,1.7655,1.03894.70441,0,1.69135-.27063,2.12714-2.60925l.01007-.04541,1.05249-4.03455c-2.77423.99023-4.59686,2.99377-4.9552,5.65027Z"/>
          </g>
        </g>
        <circle class="cls-2" cx="35.01536" cy="35.01594" r="34.01575"/>
        <g>
          <path class="cls-3" d="M23.49217,20.25874c-5.98883,0-9.56433,5.54004-9.56433,14.81946,0,7.10394,2.51257,14.69495,9.56433,14.69495,4.62378,0,9.56433-3.86041,9.56433-14.69495,0-7.16419-2.51257-14.81946-9.56433-14.81946ZM23.49217,49.55452c-3.78296,0-5.62189-4.73529-5.62189-14.47632,0-9.85291,1.83893-14.6424,5.62189-14.6424,3.70276,0,5.58032,4.92645,5.58032,14.6424,0,9.60571-1.87756,14.47632-5.58032,14.47632Z"/>
          <path class="cls-3" d="M50.21917,20.53541l-.07159-.05603-9.61487,2.28973v.28748l5.37946-.53833v17.52558c0,2.55835-.04193,5.15479-.12488,7.71698l-.01813.56232-6.10529.74249v.04559h16.43903v-.04816l-5.89893-.74231-.01813-.55994c-.08258-2.55103-.12433-5.14728-.12433-7.71698v-13.15943l.15765-6.349Z"/>
        </g>
      </g>
      <g>
        <path class="cls-1" d="M20.34358,40.93154c-.63965-.00977-1.14941-.07031-1.5498-.17969-.38965-.12012-.73926-.36914-1.04883-.72949-.12988-.16992-.25977-.25-.37988-.25-.24023,0-.62988.45996-1.17969,1.37988l-.53906-.49023c.5293-.83984.99902-1.34961,1.40918-1.5293v-3.03809h-1.42969v-.65918h2.09863v3.7373c.08008.05957.16016.13965.24023.22949.24023.29004.48926.5.76953.62988.2998.13965.75.21973,1.3291.24023.51953.00977,1.16992.02051,1.93945.02051.46973,0,.94922-.01074,1.43848-.02051.48047-.01074.85938-.02051,1.12012-.04004l-.16992.71875h-2.28906c-.54004,0-1.12988-.00977-1.75879-.01953ZM17.99494,33.67568l-.52051.50977c-.39941-.49023-.95898-1.01953-1.66895-1.58887l.49023-.46973c.66895.51953,1.23926,1.0293,1.69922,1.54883ZM19.86311,33.5458v-1.58887h.69043v1.58887h1.5791v-1.5791h.69922v1.5791h1.26953v.66895h-1.26953v1.99023h1.58887v.67969h-1.58887v2.86719h-.69922v-2.86719h-1.7793c-.25977,1.19922-.7793,2.08789-1.54883,2.66797l-.43066-.58008c.62988-.44922,1.05957-1.14844,1.2793-2.08789h-1.31836v-.67969h1.44922c.0498-.38086.0791-.78027.0791-1.19922v-.79102h-1.17871v-.66895h1.17871ZM20.55354,34.8456c0,.47949-.03027.93945-.08008,1.35938h1.65918v-1.99023h-1.5791v.63086Z"/>
        <path class="cls-1" d="M28.33479,32.35635c-.56055,1.10938-1.45996,2.08887-2.69922,2.93848l-.20996-.71973c1.04004-.73926,1.78906-1.5791,2.25879-2.51855l.65039.2998ZM28.80451,34.63467c-.29004.56055-.65039,1.09961-1.08984,1.59961v4.89648h-.70996v-4.16699c-.39941.36035-.8291.70996-1.30859,1.04004l-.20996-.7207c1.21875-.85938,2.1084-1.83789,2.66797-2.94727l.65039.29883ZM34.49104,35.14443v.70996h-1.61914v4.36816c0,.58008-.33008.86914-.96973.86914h-1.46875l-.15039-.70898c.48047.0293.92969.04883,1.36914.04883.32031,0,.49023-.12891.49023-.38867v-4.18848h-3.14844v-.70996h5.49707ZM34.05158,32.60635v.70996h-4.78809v-.70996h4.78809Z"/>
        <path class="cls-1" d="M38.38361,35.03506c-.72949.88965-1.48828,1.62891-2.27832,2.21875l-.46973-.5293c.80957-.59961,1.53906-1.2998,2.19922-2.09961l.54883.41016ZM38.05451,33.48623l-.5.48926c-.41016-.41895-.97949-.85938-1.70898-1.31934l.47949-.46973c.67969.43066,1.25977.86035,1.72949,1.2998ZM43.30158,41.14248h-.7002v-.48047h-5.13672v.48047h-.69922v-3.62891h6.53613v3.62891ZM42.60139,39.98232v-1.78906h-5.13672v1.78906h5.13672ZM41.65217,33.87588c-.04004.24902-.08008.48926-.13965.70996.41992.97852,1.44922,1.6582,3.08789,2.04883l-.34961.61914c-1.48926-.40039-2.49902-1.04883-3.02832-1.93945-.14941.27051-.33008.51953-.54004.74023-.47949.47949-1.31934.86914-2.51855,1.14941l-.26953-.62988c1.03906-.21973,1.7793-.53906,2.22852-.95898.45996-.42969.75-1.0293.84961-1.80957l.67969.07031ZM38.74397,34.97451l-.43945-.56934c.69922-.67871,1.16895-1.49902,1.40918-2.47852l.71973.08984c-.08008.29004-.16016.55957-.25.80957h3.83789v.58008c-.29004.65918-.61035,1.21875-.95996,1.67871l-.53906-.41895c.26953-.33008.50879-.7207.72949-1.16016h-3.38867c-.2998.5498-.67969,1.03906-1.11914,1.46875Z"/>
        <path class="cls-1" d="M47.59455,35.02529v4.42773c.32031-.28027.66016-.60938,1.03027-.98047l.19922.75977c-.5791.58008-1.19922,1.08984-1.8584,1.53906l-.28027-.63867c.13965-.13086.21973-.28027.21973-.44043v-3.97754h-1.46875v-.68945h2.1582ZM48.32502,33.60537l-.49023.5c-.41992-.49023-.97949-1.00977-1.69922-1.54883l.5-.49023c.65918.50977,1.22949,1.01953,1.68945,1.53906ZM50.62287,32.03701c-.08984.34961-.19922.67969-.31934.99902h3.9375c0,3.64746-.0498,5.90723-.13965,6.7666-.09961.8291-.58008,1.25-1.41895,1.25-.17969,0-.5-.01172-.94922-.03125l-.16992-.64941c.39941.02051.73926.04004,1.0293.04004.45898,0,.72949-.2998.80957-.88965.06934-.62988.10938-2.56836.12988-5.80664h-3.53809c-.34961.66895-.79004,1.26953-1.3291,1.78906l-.4502-.5791c.83984-.82031,1.39941-1.80957,1.68945-2.98828l.71875.09961ZM52.30256,34.88467v4.57812h-3.05859v-4.57812h3.05859ZM51.62287,36.85342v-1.34863h-1.67871v1.34863h1.67871ZM51.62287,37.45303h-1.67871v1.39062h1.67871v-1.39062Z"/>
      </g>
      <g>
        <path class="cls-1" d="M91.48908,35.72451c.29883-.54883.58984-1.08887.85938-1.62891l.73926.21973c-.25977.5-.50977.96973-.74902,1.40918h5.16699v.7002h-1.96973c-.40918,1.05957-.87891,1.88867-1.4082,2.50879,1.0293.43945,2.07812.95898,3.1377,1.55859l-.47949.62988c-1.05957-.62012-2.11914-1.17969-3.17773-1.65918-1.12012.99902-2.59961,1.51953-4.45801,1.5791l-.41992-.66992c1.69922-.00977,3.08887-.41895,4.14746-1.22852-.93945-.40039-1.86914-.75-2.79883-1.0498.36035-.55957.7002-1.11914,1.01953-1.66895h-2.4082v-.7002h2.79883ZM97.23518,35.0956h-.73926v-1.44922h-6.82617v1.43848h-.73926v-2.13867h3.79688c-.13867-.33984-.28906-.63965-.45898-.91895l.79883-.14062c.16016.32031.31055.66992.45117,1.05957h3.7168v2.14941ZM91.1092,37.80361c.75879.21973,1.52832.5,2.31836.83008.54004-.58984.97949-1.33008,1.31934-2.20898h-2.79883c-.29883.51953-.5791.97949-.83887,1.37891Z"/>
        <path class="cls-1" d="M98.72053,41.04189l-.16016-.69922c.29004.01953.56934.04004.8291.04004.28027,0,.42969-.12012.42969-.36035v-2.38867c-.35938.13965-.72852.28027-1.09863.40039l-.16992-.73047c.42969-.10938.84863-.23926,1.26855-.39941v-2.3291h-1.0791v-.68945h1.0791v-1.88867h.7002v1.88867h.88965v.68945h-.88965v2.03906c.3291-.15918.64941-.31934.96973-.49902v.73926c-.32031.16992-.64062.33008-.96973.47949v2.86816c0,.56055-.2998.83984-.87988.83984h-.91895ZM103.97736,31.97744v9.1543h-.68945v-2.19824h-1.96875v-.66016h1.96875v-1.72852h-1.40918v-.66016h1.40918v-1.65918h-1.56934v-.64941h1.56934v-1.59863h.68945ZM105.86604,31.97744v1.59863h1.70898v.64941h-1.70898v1.65918h1.5v.66016h-1.5v1.72852h1.7793v.66016h-1.7793v2.19824h-.69922v-9.1543h.69922Z"/>
        <path class="cls-1" d="M113.34846,31.9667c1.26953,1.41992,2.72852,2.53906,4.37695,3.3584l-.39062.68945c-1.6582-.86914-3.06836-2.00879-4.24609-3.4082-1.08008,1.31934-2.50977,2.45898-4.28906,3.41797l-.37891-.68945c1.75781-.89941,3.22852-2.01855,4.4082-3.36816h.51953ZM117.11604,37.04385v.7002h-4.70703c-.48047.93945-1.06055,1.75879-1.74023,2.46875,1.62891-.10059,3.17773-.24023,4.6582-.44043-.33984-.43945-.70898-.89941-1.11914-1.35938l.55859-.35938c.91016,1.01953,1.60938,1.89941,2.09961,2.64844l-.59961.41992c-.16992-.26953-.34961-.54004-.55078-.81934-1.55859.25-3.52734.44922-5.91602.58984l-.19922-.62988c.17969-.0498.29883-.11035.37891-.19043.64062-.73926,1.17969-1.50879,1.60938-2.32812h-2.50781v-.7002h8.03516ZM115.55744,35.03506v.67969h-4.9082v-.67969h4.9082Z"/>
        <path class="cls-1" d="M120.70002,35.02529v4.31738c.32031-.2793.64844-.58984,1.00977-.94922l.18945.76953c-.57031.55957-1.17969,1.06934-1.83984,1.5293l-.2793-.66016c.15039-.11914.23047-.25977.23047-.41895v-3.89844h-1.46875v-.68945h2.1582ZM121.41877,33.60635l-.48828.49902c-.41016-.49902-.9707-1.01855-1.67969-1.56836l.5-.46973c.6582.51953,1.20898,1.0293,1.66797,1.53906ZM127.10627,32.56631c-.33008,2.35938-1.00977,4.27832-2.0293,5.75684.76953.92969,1.67969,1.65918,2.71875,2.19922l-.41992.62988c-1.03906-.57031-1.94922-1.31934-2.72852-2.25879-.79883.97949-1.7793,1.72852-2.9375,2.25879l-.39062-.61035c1.13867-.51953,2.09961-1.26855,2.86914-2.23828-.98047-1.33984-1.74023-2.97852-2.29883-4.91699l.61914-.33984c.5,1.8584,1.19922,3.41797,2.09961,4.67676.91797-1.39941,1.51758-3.1582,1.81836-5.29688l.67969.13965ZM125.23713,34.13564l-.57031.38965c-.37891-.69922-.85938-1.42871-1.43945-2.20898l.54102-.38965c.63867.83984,1.12891,1.56934,1.46875,2.20898Z"/>
      </g>
      <g>
        <path class="cls-1" d="M237.64924,24.60342v.69922h-1.50977c-.12988.80957-.32031,1.56934-.55957,2.26855h1.81934v4.54785h-1.75v.75977h-.67969v-3.91797c-.16992.30957-.34961.59961-.5293.87988l-.41992-.66992c.7207-1.12891,1.18945-2.41895,1.41992-3.86816h-1.12988v-.69922h3.33887ZM236.73908,31.46963v-3.23828h-1.08984v3.23828h1.08984ZM237.95783,33.17861l-.51953-.46973c.5-.71973.75-1.63867.76953-2.73828v-3.27832c-.14941.13965-.29883.2793-.43945.39941l-.44922-.5293c.78906-.64941,1.43945-1.49902,1.94922-2.53906l.68945.15039c-.09961.20996-.21094.40918-.31055.60938h2.40918v.50977c-.2998.43945-.59961.81934-.89941,1.11914h1.67871v5.9873c0,.44922-.25977.67871-.76953.67871h-.73926l-.16992-.64941c.25.02051.47949.04004.69922.04004.2002,0,.2998-.10938.2998-.30957v-1.33887h-1.33887v2.20801h-.65039v-2.20801h-1.34863c-.12012.93945-.39941,1.71875-.86035,2.3584ZM241.22736,25.39248h-1.94922c-.25.37012-.51953.70996-.7998,1.01953h1.89941c.28906-.2998.56934-.63965.84961-1.01953ZM238.87776,29.93056c0,.08008-.00977.16992-.00977.25977h1.29883v-1.2793h-1.28906v1.01953ZM238.87776,27.05166v1.21973h1.28906v-1.21973h-1.28906ZM242.15608,27.05166h-1.33887v1.21973h1.33887v-1.21973ZM242.15608,28.91103h-1.33887v1.2793h1.33887v-1.2793Z"/>
        <path class="cls-1" d="M251.98713,27.01162v.67969h-2.53906v1.75977h2.97852v.67871h-2.97852v2.06934c.69922.09961,1.53906.16016,2.53906.16992.50977,0,1.0293-.01953,1.56836-.05957l-.12988.71875h-1.11914c-2.01855,0-3.45801-.18945-4.33789-.55957-.65918-.30957-1.19922-.78906-1.6084-1.43848-.39062.85938-.87012,1.5791-1.43945,2.1582l-.45996-.56934c.95996-1.01953,1.59863-2.38867,1.93848-4.10742l.69922.11914c-.11914.62012-.2793,1.18945-.45898,1.70898.47949.86035,1.08008,1.39941,1.79883,1.62988.08984.0293.18945.05957.29004.0791v-4.35742h-2.61816v-.67969h5.87695ZM253.1258,27.19228h-.69922v-1.46973h-6.77734v1.51953h-.69922v-2.17871h3.81836c-.15039-.36035-.32031-.69043-.5-.99023l.76953-.11914c.16016.3291.32031.69922.45996,1.10938h3.62793v2.12891Z"/>
        <path class="cls-1" d="M257.06916,28.06142l-.50977.50977c-.41992-.45996-.99023-.95996-1.71875-1.47949l.50977-.49902c.68945.48926,1.25977.97852,1.71875,1.46875ZM257.15901,29.46084c-.45898,1.29883-.96875,2.50879-1.53906,3.6377l-.66992-.29004c.60938-1.17871,1.14062-2.36816,1.58008-3.58789l.62891.24023ZM257.33869,25.64248l-.50977.51953c-.41992-.45898-.99805-.94922-1.73828-1.46875l.50977-.48926c.68945.47949,1.26953.95898,1.73828,1.43848ZM263.94611,24.46377v.67969h-2.03906v1.19922h1.75781v6.83594h-.67969v-.4502h-4.47656v.47949h-.67969v-6.86523h1.67969v-1.19922h-1.94922v-.67969h6.38672ZM258.50861,26.99209v3.42773h4.47656v-.97949h-.95898c-.51953,0-.7793-.25977-.7793-.76953v-1.67871h-1.06836v.58984c-.02148,1.01953-.40039,1.75879-1.14062,2.22852l-.47852-.41016c.6582-.37988.99805-.97949,1.00781-1.81836v-.58984h-1.05859ZM262.98518,32.06924v-.99902h-4.47656v.99902h4.47656ZM261.22736,26.34267v-1.19922h-1.03906v1.19922h1.03906ZM262.98518,26.99209h-1.13867v1.53906c0,.20996.10938.31934.33008.31934h.80859v-1.8584Z"/>
        <path class="cls-1" d="M269.26838,33.05849h-.69922v-.50977h-2.10938v.50977h-.70898v-4.33789h3.51758v4.33789ZM268.56916,31.86904v-2.45801h-2.10938v2.45801h2.10938ZM272.58674,24.46377v3.26758h-5.50781v-3.26758h5.50781ZM271.86799,25.14346h-4.06836v1.9082h4.06836v-1.9082ZM273.91682,33.05849h-.7207v-.50977h-2.1875v.50977h-.71094v-4.33789h3.61914v4.33789ZM273.19611,31.86904v-2.45801h-2.1875v2.45801h2.1875Z"/>
        <path class="cls-1" d="M230.89924,39.79189v-1.43945c-.49902.08008-1.00879.14062-1.52832.17969l-.22949-.63965c1.48828-.11914,2.72852-.36914,3.72754-.74902l.33984.59961c-.52051.18945-1.0498.34961-1.60938.46973v1.5791h1.70898v.66992h-1.70898v.49902c.5791.50977,1.15918,1.08984,1.74902,1.74902l-.41992.62012c-.51953-.70996-.95898-1.2793-1.3291-1.69922v4.50781h-.7002v-4.4375c-.42969.94922-.99902,1.80859-1.70898,2.57812l-.29883-.7793c.92969-.87988,1.59863-1.86914,2.00781-2.96875v-.06934h-1.74805v-.66992h1.74805ZM237.53596,45.80849h-.69922v-.78906h-2.42871v.88867h-.69043v-8.18555h3.81836v8.08594ZM236.83674,44.33974v-5.94727h-2.42871v5.94727h2.42871Z"/>
        <path class="cls-1" d="M241.45979,37.07314v1.88965h1.15918v.68945h-1.15918v.76953c.49023.49902.97949,1.05957,1.46875,1.66895l-.41016.60938c-.40918-.62988-.75879-1.12891-1.05859-1.50879v5.00684h-.70898v-4.97754c-.32031.94043-.73047,1.7998-1.23047,2.5791l-.30957-.7793c.71973-.97949,1.22949-2.10938,1.54004-3.36816h-1.2207v-.68945h1.2207v-1.88965h.70898ZM244.35822,41.74111c-.32031,1.39844-.78906,2.59863-1.38867,3.61816l-.62012-.40039c.62012-1.00977,1.06934-2.12891,1.34863-3.36816l.66016.15039ZM244.05842,46.09853l-.13965-.66992c.31934.02051.61914.04004.90918.04004.26953,0,.40918-.14941.40918-.43945v-4.26758h-2.4375v-.68945h5.60645v.68945h-2.44824v4.44727c0,.58984-.30078.88965-.88086.88965h-1.01855ZM247.88557,37.64346v.67969h-4.55664v-.67969h4.55664ZM248.39533,45.15908l-.64844.29004c-.33008-1.38965-.69043-2.61914-1.08008-3.69824l.65039-.20996c.41895,1.12891.7793,2.33887,1.07812,3.61816Z"/>
        <path class="cls-1" d="M254.4676,39.53213c1.24023.90918,2.67969,1.62891,4.30859,2.14844l-.34961.62012c-1.64062-.55957-3.0293-1.2793-4.18848-2.17871-1.05957.83887-2.45801,1.55859-4.19824,2.16895l-.33887-.62012c1.71875-.58008,3.1582-1.28906,4.30762-2.13867h.45898ZM250.36994,39.92178l-.61914-.38965c.61914-.75977,1.06934-1.59961,1.34961-2.51855l.69922.14941c-.08008.25977-.16992.5-.25977.74023h2.62891v.63965h-1.43945c.16016.34961.2998.67969.39941.97949l-.65918.23926c-.13086-.41992-.28027-.8291-.45996-1.21875h-.75977c-.25977.49902-.5498.95898-.87988,1.37891ZM257.27619,42.95986c-.25977.83008-.58008,1.5791-.95898,2.23926h2.14844v.66895h-8.43555v-.66895h5.51758c.39062-.67969.72852-1.48926,1.0293-2.42871l.69922.18945ZM252.57893,44.75869l-.64941.16992c-.2002-.63965-.45996-1.24902-.7793-1.82812l.64941-.20996c.29004.53906.5498,1.16895.7793,1.86816ZM256.83674,41.73037v.63965h-5.1875v-.63965h5.1875ZM254.72736,44.67959l-.63867.16992c-.16992-.67969-.37988-1.33008-.64062-1.94922l.66016-.20996c.23047.58008.43945,1.23926.61914,1.98926ZM254.87776,39.52236l-.60938-.39062c.46875-.63867.80859-1.33887,1.01953-2.11816l.68945.14941c-.08008.25977-.16016.5-.24023.74023h2.91797v.63965h-1.58789c.21875.37988.38867.72949.51953,1.06934l-.66016.23926c-.17969-.44922-.37891-.88867-.59961-1.30859h-.86914c-.17969.34961-.36914.67969-.58008.97949Z"/>
        <path class="cls-1" d="M262.18049,40.12197v4.4375c.35938-.2998.74805-.63965,1.1582-1.0293l.19922.75879c-.62891.58984-1.29883,1.10938-1.99805,1.56934l-.2793-.63965c.13867-.13965.21875-.29004.21875-.44922v-3.95801h-1.38867v-.68945h2.08984ZM262.83869,38.71279l-.48828.49902c-.39062-.47949-.91992-.97949-1.59961-1.50879l.5-.46973c.62891.5,1.1582.98926,1.58789,1.47949ZM268.39533,41.29092v.66016c-.31836.93945-.83789,1.74902-1.56836,2.42871.67969.46973,1.50977.87891,2.48828,1.23926l-.38867.61914c-1.04102-.41992-1.91992-.88965-2.61914-1.42871-.79883.59961-1.78906,1.06934-2.95898,1.42871l-.39844-.60938c1.10938-.33008,2.03711-.75977,2.78711-1.28906-.75977-.7002-1.26953-1.47949-1.54883-2.34863h-.54883v-.7002h4.75586ZM267.76643,37.43349v2.1582c0,.25.13086.37988.39062.37988h.91797v.66016h-1.09961c-.61914,0-.91797-.2998-.91797-.88965v-1.62891h-1.93945v.34961c0,1.05957-.51953,1.87891-1.53906,2.45801l-.48047-.54883c.86914-.43066,1.31055-1.04004,1.31055-1.8291v-1.10938h3.35742ZM266.2469,43.92959c.64062-.55957,1.11914-1.19922,1.43945-1.93848h-2.81836c.25977.71875.71875,1.36914,1.37891,1.93848Z"/>
        <path class="cls-1" d="M272.64924,40.10146v4.44824c.36133-.30078.75977-.63965,1.17969-1.04004l.17969.73926c-.61914.60059-1.28906,1.12988-1.99805,1.59961l-.2793-.64941c.14844-.12012.22852-.25977.22852-.41992v-3.98828h-1.46875v-.68945h2.1582ZM273.36994,38.68252l-.49023.5c-.41992-.49023-1-1.00977-1.71875-1.5498l.5-.48926c.67969.50977,1.24805,1.01953,1.70898,1.53906ZM276.32697,40.04189v-3.00879h.74023v3.00879h2.56836v.71973h-2.56836v5.4668h-.74023v-5.4668h-2.70703v-.71973h2.70703Z"/>
      </g>
      <g>
        <path class="cls-1" d="M305.60822,36.829l-.41504-.53125c.84668-.88281,1.42285-2.08008,1.71973-3.58301l.65723.11621c-.09863.46875-.21582.90039-.35059,1.30566h1.92578v-1.60254h.65723v1.60254h2.96191v.63086h-2.96191v2.0791h2.78223v.62988h-2.78223v2.28711h3.53809v.64844h-7.93164v-.64844h3.73633v-2.28711h-2.64648v-.62988h2.64648v-2.0791h-2.16016c-.36035.81836-.81934,1.50293-1.37695,2.06152Z"/>
        <path class="cls-1" d="M318.75764,33.38955h3.16016v.62109h-1.56641c-.1084.47754-.25293.93652-.44141,1.36816h2.19629v.62109h-6.46289v1.33301c-.03711,1.4043-.36133,2.5293-.98242,3.37598l-.49414-.44141c.52148-.70215.80078-1.68359.81836-2.93457v-1.9541h1.8457l-.37793-1.36816h-1.64746v-.62109h3.29492c-.12598-.3418-.2793-.64844-.44141-.92676l.67578-.11719c.14453.30566.28809.65723.42285,1.04395ZM319.28889,35.37881c.19824-.43164.35059-.89062.44043-1.36816h-2.63672l.37793,1.36816h1.81836Z"/>
        <path class="cls-1" d="M328.35236,37.82803v.62109h-5.08691v-.62109h5.08691ZM325.48908,32.48037l-.12598,1.20605h5.45605v.62109h-5.51953l-.15234,1.46777h5.05859c0,2.44922-.16992,3.8623-.51172,4.24902-.33398.36914-1.05469.55859-2.15234.55859-.28809,0-.58594-.01855-.8916-.03613l-.1709-.59375c.44141.03516.74707.0625.92773.0625,1.01758,0,1.62891-.1709,1.82617-.5127.20703-.36914.31641-1.41406.31641-3.12402h-5.12305l.42383-3.95215.63867.05371Z"/>
        <path class="cls-1" d="M338.42463,36.36904c-.43359.8291-.95508,1.54004-1.57617,2.14355.97266.70215,2.15234,1.22363,3.55664,1.58398l-.40625.60254c-1.45898-.41309-2.67383-.98926-3.64648-1.74609-1.00781.81055-2.23242,1.4043-3.67188,1.78223l-.39648-.59375c1.42188-.36035,2.60156-.90039,3.54688-1.62012-.65625-.59473-1.19727-1.27832-1.62109-2.03516l.55859-.31445c.39648.73828.91797,1.37695,1.55859,1.92578.61133-.57617,1.11523-1.2334,1.50195-1.98926l.5957.26074ZM336.05549,33.53408c-.16211-.36914-.3418-.70312-.53906-1.00879l.71875-.12598c.18164.3418.36133.71973.52344,1.13477h3.54688v.62109h-7.9668v-.62109h3.7168ZM335.3094,34.84756c-.68555.8916-1.53125,1.6748-2.53906,2.34082l-.41406-.54883c.98047-.62988,1.80859-1.35938,2.48438-2.20605l.46875.41406ZM340.2508,36.79287l-.47656.47656c-.59375-.75586-1.42188-1.55762-2.47656-2.42188l.44141-.42285c1,.79199,1.83789,1.5752,2.51172,2.36816Z"/>
        <path class="cls-1" d="M343.80549,32.66982c-.19922.62988-.45117,1.21484-.73828,1.77344v6.29199h-.64844v-5.2207c-.32422.47656-.69336.92676-1.09961,1.35938l-.19727-.67578c.95508-1.10742,1.64648-2.37598,2.08008-3.81641l.60352.28809ZM347.44221,34.41592v-1.93555h.64844v1.93555h1.29492v.62988h-1.29492v4.69922c0,.6123-.28906.91895-.84766.91895h-1.30469l-.14453-.63965c.42383.02734.82812.04492,1.22461.04492.2793,0,.42383-.16211.42383-.48535v-4.53809h-3.44922v-.62988h3.44922ZM346.40705,38.15224l-.55078.38672c-.38672-.65723-.9082-1.38672-1.56641-2.1875l.53125-.32422c.68555.81055,1.2168,1.52148,1.58594,2.125Z"/>
      </g>
      <g>
        <path class="cls-1" d="M161.91486,41.04092l-.15039-.69922c.28027.01953.54004.04004.80078.04004.23926,0,.36914-.12988.36914-.37988v-2.43848c-.37988.14941-.76953.29004-1.15918.40918l-.16992-.71875c.4502-.11035.88965-.25,1.3291-.41992v-2.25977h-1.20898v-.68945h1.20898v-1.88867h.74023v1.88867h1.00879v.68945h-1.00879v1.94922c.28906-.13965.5791-.2793.85938-.43945v.72949c-.28027.14941-.57031.29004-.85938.43066v2.94727c0,.56055-.29102.84961-.86035.84961h-.89941ZM170.48029,36.48428v.63867h-2.49902v1.12988h2.08984v.64941h-2.08984v1.28906c.40039.06055.86914.08984,1.41992.08984.51953,0,.96875-.01953,1.33887-.04883l-.2002.69922c-.39941,0-.76953-.00977-1.08887-.00977-1.31934-.01074-2.21875-.14062-2.69824-.38086-.38086-.19922-.73047-.5791-1.0293-1.13867-.24023.61914-.57031,1.18945-1,1.70898l-.5293-.45996c.75977-.91895,1.17871-1.95898,1.25879-3.09863l.63965.07031c-.01953.35938-.07031.69922-.15039,1.03906.32031.66992.68945,1.09961,1.10938,1.29004.07031.03027.15039.05957.24023.08984v-2.91895h-2.52832v-.63867h5.7168ZM169.82111,32.31631v3.46777h-4.35742v-3.46777h4.35742ZM169.12092,33.77529v-.86914h-2.95801v.86914h2.95801ZM169.12092,34.33486h-2.95801v.85938h2.95801v-.85938Z"/>
        <path class="cls-1" d="M171.71565,36.81338l-.24023-.75879c1.08984-1.21973,1.87891-2.60938,2.37891-4.16797l.67969.30957c-.25977.7793-.58984,1.51855-.99023,2.20801v6.72656h-.73926v-5.59668c-.33008.44043-.68945.87012-1.08887,1.2793ZM175.87287,34.0956v-2.08984h.73926v2.08984h1.78906v-2.08984h.73047v2.08984h1.32812v.69922h-1.32812v2.33789h1.6084v.69043h-6.43652v-.69043h1.56934v-2.33789h-1.29004v-.69922h1.29004ZM176.83283,38.57217c-.52051.98047-1.14062,1.83008-1.84961,2.54883l-.61914-.44922c.69922-.66992,1.30859-1.46973,1.80859-2.40918l.66016.30957ZM178.40119,37.13271v-2.33789h-1.78906v2.33789h1.78906ZM180.62971,40.66201l-.63867.43945c-.46094-.75977-1.08984-1.60938-1.87891-2.54883l.58887-.35938c.83984.93945,1.47949,1.76855,1.92871,2.46875Z"/>
        <path class="cls-1" d="M185.03303,36.69326c-.37988.19043-.75977.37012-1.14941.53027v2.97754c0,.60059-.29004.90039-.86914.90039h-.92969l-.16016-.68945c.29004.0293.57031.04883.83984.04883s.41016-.14941.41016-.42969v-2.51758c-.45996.16992-.93945.33008-1.41992.47949l-.17969-.70996c.5498-.12988,1.0791-.28906,1.59961-.46973v-2.31836h-1.44922v-.69043h1.44922v-1.80859h.70898v1.80859h1.12012v.69043h-1.12012v2.03809c.38965-.16992.76953-.34961,1.14941-.54883v.70898ZM186.26252,41.13076h-.67969v-8.75488h4.3877c0,1.10938-.05957,1.84863-.16992,2.21875-.12012.36035-.5.5498-1.13965.5498h-.71973l-.19922-.62891c.15918,0,.34961.00977.58984.00977.23926,0,.42969-.02051.54883-.04102.11035-.03906.2002-.10938.27051-.22949.06934-.19043.10938-.59961.12988-1.21973h-3.01855v2.91895h3.79785v.62012c-.2002,1.05859-.5498,1.96875-1.06934,2.71875.47949.45898,1.06934.87891,1.76855,1.26855l-.47949.5498c-.65918-.41992-1.22949-.84961-1.68848-1.30859-.48047.54883-1.06934.99902-1.74902,1.33887l-.35059-.62988c.63965-.32031,1.17969-.72949,1.61914-1.22949-.68945-.81934-1.10938-1.70898-1.26855-2.66895h-.58008v4.51758ZM188.50178,38.7626c.39941-.61035.68945-1.3291.86914-2.14941h-1.87891c.13965.78027.46973,1.5,1.00977,2.14941Z"/>
        <path class="cls-1" d="M191.77522,36.77334l-.23926-.75977c.97949-1.17871,1.69922-2.52832,2.13867-4.04688l.67969.30957c-.20996.66895-.46973,1.30957-.78027,1.91895v6.90625h-.73926v-5.66699c-.31934.46973-.67969.91895-1.05957,1.33887ZM197.5926,32.01553c.61914,1.33984,1.69922,2.50977,3.21777,3.51855l-.40918.61035c-1.39941-.92969-2.44922-2.08008-3.13867-3.43848-.7998,1.52832-1.79883,2.70801-3.00879,3.54785l-.39941-.60938c1.33887-.92969,2.36914-2.13867,3.08789-3.62891h.65039ZM196.36311,35.49404v1.50977c-.02051,1.88867-.50977,3.26758-1.46973,4.14746l-.53906-.46973c.85938-.75977,1.29883-1.98926,1.31934-3.67773v-1.50977h.68945ZM198.94123,35.46474v5.57617h-.69922v-5.57617h.69922Z"/>
      </g>
    </g>
  </g>
</svg>