<svg id="グループ_2877" data-name="グループ 2877" xmlns="http://www.w3.org/2000/svg" xmlns:xlink="http://www.w3.org/1999/xlink" width="366" height="70.031" viewBox="0 0 366 70.031">
  <defs>
    <clipPath id="clip-path">
      <rect id="長方形_1628" data-name="長方形 1628" width="366" height="70.031" fill="none"/>
    </clipPath>
  </defs>
  <g id="グループ_2876" data-name="グループ 2876" transform="translate(0 0)" clip-path="url(#clip-path)">
    <path id="パス_2018" data-name="パス 2018" d="M330.63,0A35.234,35.234,0,0,0,295.26,35.016c0,.673.024,1.341.063,2.006l-.294-.033c-.962-.107-1.923-.239-2.883-.385.024-.527.04-1.056.04-1.588a35.378,35.378,0,0,0-70.7-1.552c-1.053.16-2.092.332-3.139.509a35.379,35.379,0,0,0-70.648-1c-.655-.016-1.291-.034-1.6-.05-.549-.028-1.084-.079-1.622-.126a35.378,35.378,0,0,0-70.658,2.051c-1.026.138-2.054.264-3.083.372,0-.067.005-.133.005-.2a35.372,35.372,0,0,0-70.74,0,35.38,35.38,0,0,0,70.7,1.731c1.029-.093,2.086-.2,3.155-.311a35.375,35.375,0,0,0,70.7-1.42c0-.321-.016-.638-.024-.956.639.02,1.759.049,3.121.081-.007.292-.022.581-.022.875a35.372,35.372,0,0,0,70.739.03q1.536-.285,3.087-.5c0,.157-.012.312-.012.47a35.38,35.38,0,0,0,70.63,2.65c1.033.161,2.071.321,3.091.472l.245.037A35.384,35.384,0,0,0,366,35.016,35.234,35.234,0,0,0,330.63,0" transform="translate(0 0)" fill="#231815"/>
    <path id="パス_2019" data-name="パス 2019" d="M362.019,35.016A34.362,34.362,0,1,1,327.659,1a34.19,34.19,0,0,1,34.361,34.016" transform="translate(2.971 0)" fill="#f6f2e7"/>
    <path id="パス_2020" data-name="パス 2020" d="M315.268,20.259c-6.05,0-9.661,5.54-9.661,14.82,0,7.1,2.537,14.695,9.661,14.695,4.671,0,9.661-3.861,9.661-14.695,0-7.165-2.537-14.82-9.661-14.82m0,29.3c-3.821,0-5.679-4.735-5.679-14.476,0-9.853,1.858-14.643,5.679-14.643,3.741,0,5.637,4.927,5.637,14.643,0,9.6-1.9,14.476-5.637,14.476" transform="translate(3.096 0)" fill="#fff"/>
    <path id="パス_2021" data-name="パス 2021" d="M338.261,49.773c6.759,0,10.958-3.474,10.958-9.068,0-5.315-3.705-8.364-10.164-8.364a17.337,17.337,0,0,0-5.076.717l-.917.273.653-9.337h14.5V20.921h-14.9l-.927,12.739.574.293a14.6,14.6,0,0,1,4.627-.648c4.539,0,7.142,2.923,7.142,8.021,0,5.075-2.816,8.228-7.35,8.228a8.171,8.171,0,0,1-2.677-.406l-.366-.121-.785-3.932c-.394-2.379-1.2-2.575-2.067-2.575A1.86,1.86,0,0,0,329.7,43.6c.573,3.98,3.605,6.168,8.558,6.168" transform="translate(3.34 0)" fill="#fff"/>
    <path id="パス_2022" data-name="パス 2022" d="M288.944,35.016A34.362,34.362,0,1,1,254.585,1a34.189,34.189,0,0,1,34.36,34.016" transform="translate(2.231 0)" fill="#f6f2e7"/>
    <path id="パス_2023" data-name="パス 2023" d="M240.779,20.259c-6.05,0-9.662,5.539-9.662,14.819,0,7.1,2.538,14.695,9.662,14.695,4.671,0,9.661-3.861,9.661-14.695,0-7.165-2.537-14.819-9.661-14.819m0,29.3c-3.821,0-5.679-4.735-5.679-14.476,0-9.853,1.858-14.643,5.679-14.643,3.741,0,5.637,4.927,5.637,14.643,0,9.6-1.9,14.476-5.637,14.476" transform="translate(2.341 0)" fill="#fff"/>
    <path id="パス_2024" data-name="パス 2024" d="M275.444,39h-4.723V20.714h-2.8l-13.14,18.543v2.075h12.287v7.779h3.649V41.332h4.723Zm-8.372,0H255.142l11.931-16.754Z" transform="translate(2.581 0)" fill="#fff"/>
    <path id="パス_2025" data-name="パス 2025" d="M215.87,35.016A34.362,34.362,0,1,1,181.51,1,34.19,34.19,0,0,1,215.87,35.016" transform="translate(1.49 0)" fill="#f6f2e7"/>
    <path id="パス_2026" data-name="パス 2026" d="M169.222,20.259c-6.05,0-9.661,5.54-9.661,14.82,0,7.1,2.537,14.695,9.661,14.695,4.671,0,9.661-3.861,9.661-14.695,0-7.165-2.537-14.82-9.661-14.82m0,29.3c-3.821,0-5.679-4.735-5.679-14.476,0-9.853,1.858-14.643,5.679-14.643,3.741,0,5.637,4.927,5.637,14.643,0,9.6-1.9,14.476-5.637,14.476" transform="translate(1.616 0)" fill="#fff"/>
    <path id="パス_2027" data-name="パス 2027" d="M186.475,26.85c.829,0,1.819-.244,2.147-2.144l.01-.047.966-3.868a6.143,6.143,0,0,0-4.657,5.219,1.725,1.725,0,0,0,1.534.84" transform="translate(1.873 0)" fill="#fff"/>
    <path id="パス_2028" data-name="パス 2028" d="M188.513,49.18l-.836-3.954c-.428-2.5-1.227-2.705-2.152-2.705a1.832,1.832,0,0,0-1.7,1.093,6.435,6.435,0,0,0,4.69,5.566" transform="translate(1.862 0)" fill="#fff"/>
    <path id="パス_2029" data-name="パス 2029" d="M202.914,41.906c0-3.949-2.5-6.255-7.633-7.049l-3.4-.525,3.356-.763c4.484-1.019,6.758-3.281,6.758-6.725,0-4.123-3.22-6.585-8.615-6.585a13.408,13.408,0,0,0-3.208.361,9.366,9.366,0,0,1,1.744-.184c3.8,0,5.972,2.381,5.972,6.532,0,4.53-2.655,7.235-7.1,7.235H189.9v.343h1.177c4.821,0,7.476,2.657,7.476,7.483,0,4.853-2.655,7.526-7.476,7.526a9.059,9.059,0,0,1-2.21-.268l-.31-.077a13.768,13.768,0,0,0,4.108.563c6.224,0,10.247-3.088,10.247-7.867" transform="translate(1.91 0)" fill="#fff"/>
    <path id="パス_2030" data-name="パス 2030" d="M142.8,35.016A34.362,34.362,0,1,1,108.435,1,34.19,34.19,0,0,1,142.8,35.016" transform="translate(0.75 0)" fill="#f6f2e7"/>
    <path id="パス_2031" data-name="パス 2031" d="M96.166,20.259c-6.05,0-9.661,5.54-9.661,14.819,0,7.1,2.537,14.695,9.661,14.695,4.671,0,9.661-3.86,9.661-14.695,0-7.164-2.537-14.819-9.661-14.819m0,29.3c-3.821,0-5.679-4.735-5.679-14.477,0-9.853,1.858-14.643,5.679-14.643,3.741,0,5.637,4.927,5.637,14.643,0,9.606-1.9,14.477-5.637,14.477" transform="translate(0.876 0)" fill="#fff"/>
    <path id="パス_2032" data-name="パス 2032" d="M120.369,20.259a14.52,14.52,0,0,0-2.471.2q.341-.027.674-.027c3.679,0,6.055,2.726,6.055,6.945,0,4.035-1.712,7.167-6.788,12.413-2.089,2.11-4.464,4.587-6.712,7v2.315h18.738V46.037H111.889l2.505-2.127c1.61-1.371,3.131-2.665,4.229-3.514,7.685-5.876,10.278-9.107,10.278-12.808,0-4.726-3.03-7.329-8.533-7.329" transform="translate(1.126 0)" fill="#fff"/>
    <path id="パス_2033" data-name="パス 2033" d="M111.022,26.6a1.975,1.975,0,0,0,1.784,1.039c.711,0,1.708-.271,2.149-2.609l.01-.046,1.063-4.034a7.021,7.021,0,0,0-5.005,5.65" transform="translate(1.125 0)" fill="#fff"/>
    <path id="パス_2034" data-name="パス 2034" d="M69.72,35.016A34.362,34.362,0,1,1,35.36,1,34.19,34.19,0,0,1,69.72,35.016" transform="translate(0.01 0)" fill="#f6f2e7"/>
    <path id="パス_2035" data-name="パス 2035" d="M23.589,20.259c-6.05,0-9.661,5.54-9.661,14.82,0,7.1,2.537,14.695,9.661,14.695,4.671,0,9.661-3.861,9.661-14.695,0-7.165-2.537-14.82-9.661-14.82m0,29.3c-3.821,0-5.679-4.735-5.679-14.476,0-9.853,1.858-14.643,5.679-14.643,3.741,0,5.637,4.927,5.637,14.643,0,9.6-1.9,14.476-5.637,14.476" transform="translate(0.141 0)" fill="#fff"/>
    <path id="パス_2036" data-name="パス 2036" d="M50.326,20.535l-.073-.056-9.711,2.29v.287l5.433-.538V40.043c0,2.559-.042,5.155-.126,7.717l-.018.563-6.167.742v.046H56.27v-.048l-5.959-.743-.018-.56c-.084-2.551-.126-5.147-.126-7.717V26.884Z" transform="translate(0.402 0)" fill="#fff"/>
    <path id="パス_2037" data-name="パス 2037" d="M10.843,34.216c-.121.019-.162.03-.3.059a17.894,17.894,0,0,1-1.788.3v1.73a7.216,7.216,0,0,1,2.171-.36,3.454,3.454,0,0,1,1.787.419,2.012,2.012,0,0,1,1.04,1.77A2.033,2.033,0,0,1,11.69,40.2a1.488,1.488,0,0,1-1.556-1.129,3.676,3.676,0,0,1-.121-1.13,2.148,2.148,0,0,0,.668-.26,2.816,2.816,0,0,0-.021.39c0,1.04.3,1.47,1.039,1.47a1.333,1.333,0,0,0,1.354-1.409c0-.98-.838-1.589-2.161-1.589a6.872,6.872,0,0,0-2.14.389v2.5c0,.54-.242.8-.736.8a2.69,2.69,0,0,1-1.667-.639,1.2,1.2,0,0,1-.465-.94,1.8,1.8,0,0,1,.8-1.329,5.381,5.381,0,0,1,1.423-.819v-1.89c-.091.011-.091.011-.4.03-.182.01-.354.01-.645.01-.153,0-.424,0-.536-.01H6.107v-.659a5.771,5.771,0,0,0,1.03.07c.272,0,.666-.01.969-.03v-.99a6.571,6.571,0,0,0-.051-.949H8.8a5.649,5.649,0,0,0-.051.929v.959a10.208,10.208,0,0,0,2.06-.429ZM8.106,37.164c-1,.479-1.565,1.019-1.565,1.5,0,.21.141.41.434.6a1.9,1.9,0,0,0,.9.29c.2,0,.232-.06.232-.49Zm5.543-1.879a8.233,8.233,0,0,0-2.04-1.959l.526-.39a8.447,8.447,0,0,1,2.039,1.9Z" transform="translate(0.06 0)" fill="#231815"/>
    <path id="パス_2038" data-name="パス 2038" d="M16.732,39.7a6.945,6.945,0,0,0,.061,1.119h-.746a7.659,7.659,0,0,0,.06-1.119V33.216a10.625,10.625,0,0,0-.04-1.1,9.347,9.347,0,0,0,1.05.04h1.444a8.964,8.964,0,0,0,1.03-.04c-.021.3-.031.56-.031.95V34.4c0,.4.01.68.031.92-.222-.019-.606-.03-1.02-.03H16.732Zm0-6.237h2.252v-.819H16.732Zm0,1.33h2.252v-.84H16.732Zm5.189,3.617a4.832,4.832,0,0,0,.031.6,5.678,5.678,0,0,0-.636-.03H18.893v.789h-.657a6.1,6.1,0,0,0,.052-.929v-2a6.1,6.1,0,0,0-.031-.63c.2.019.424.03.7.03h2.262c.292,0,.555-.011.737-.03a5.326,5.326,0,0,0-.031.609Zm-3.028.04h2.432V36.773H18.893Zm5.31,1.4c0,.649-.192.83-.889.83-.393,0-.757-.011-1.2-.04a1.87,1.87,0,0,0-.182-.64,11.578,11.578,0,0,0,1.283.1c.293,0,.363-.06.363-.29V35.294H21.557c-.423,0-.807.011-1.029.03.02-.29.03-.549.03-.92V33.066c0-.35-.01-.65-.03-.95a8.944,8.944,0,0,0,1.029.04h1.635a9.549,9.549,0,0,0,1.061-.04,9.254,9.254,0,0,0-.051,1.1Zm-3.059-6.387h2.432v-.819H21.144Zm0,1.33h2.432v-.84H21.144Z" transform="translate(0.163 0)" fill="#231815"/>
    <path id="パス_2039" data-name="パス 2039" d="M27.5,33.056a7.177,7.177,0,0,0-.07,1.189,16.966,16.966,0,0,0,.262,3.109c.222,1.019.636,1.709,1.019,1.709.183,0,.355-.17.505-.5a7.1,7.1,0,0,0,.525-1.709,3.269,3.269,0,0,0,.595.569c-.494,1.749-.959,2.419-1.676,2.419-.565,0-1.09-.56-1.433-1.52a14.922,14.922,0,0,1-.545-4.687,5.179,5.179,0,0,0-.029-.589Zm4.877.529a8.7,8.7,0,0,1,1.443,2.279,9.521,9.521,0,0,1,.758,2.668l-.717.29a8.771,8.771,0,0,0-2.1-4.926Z" transform="translate(0.27 0)" fill="#231815"/>
    <path id="パス_2040" data-name="パス 2040" d="M40.684,31.846a6.894,6.894,0,0,0,1.667,1.81,10.624,10.624,0,0,0,2.766,1.638,2.552,2.552,0,0,0-.4.63,14.08,14.08,0,0,1-2.848-1.839,8.4,8.4,0,0,1-1.556-1.679A9.331,9.331,0,0,1,38.19,34.6a11.7,11.7,0,0,1-2.139,1.3,1.739,1.739,0,0,0-.424-.57,10.518,10.518,0,0,0,2.746-1.739,7.276,7.276,0,0,0,1.556-1.739ZM37.16,40.781a7.15,7.15,0,0,0,.062-.979V37.593a6.213,6.213,0,0,0-.051-.919,5.538,5.538,0,0,0,.787.04h4.734a5.554,5.554,0,0,0,.788-.04,5.971,5.971,0,0,0-.051.919V39.8a6.866,6.866,0,0,0,.061.979h-.727V40.2H37.888v.58Zm.727-1.168h4.876V37.324H37.888Zm.071-4.728a5.342,5.342,0,0,0,.8.04h3.13a6.263,6.263,0,0,0,.849-.04v.68a6.118,6.118,0,0,0-.849-.04h-3.14a5.7,5.7,0,0,0-.787.04Z" transform="translate(0.361 0)" fill="#231815"/>
    <path id="パス_2041" data-name="パス 2041" d="M46.256,37.933a7.539,7.539,0,0,0,.868-.739c.343-.321.343-.321.687-.63.162-.15.162-.15.293-.26.02-.829.02-.92.051-1.768-.141.009-.141.009-.515.029a8.909,8.909,0,0,0-1.11.12l-.051-.69c.14.01.2.01.283.01.151,0,.575-.019,1.4-.08.03-.619.04-1,.04-1.388a1.729,1.729,0,0,0-.031-.391h.8a6.148,6.148,0,0,0-.1,1.16c-.011.34-.011.34-.021.569a.575.575,0,0,0,.232-.059l.264.329a2.918,2.918,0,0,0-.536.65c-.03.65-.049.99-.049,1.009h.019l.03-.029a5.389,5.389,0,0,1,.586-.51,3.953,3.953,0,0,1,2.555-.99,2.54,2.54,0,0,1,2.715,2.6,2.855,2.855,0,0,1-3.049,3.009,5.146,5.146,0,0,1-1.717-.3,1.169,1.169,0,0,0,.011-.17,2.448,2.448,0,0,0-.081-.58,4.457,4.457,0,0,0,1.787.39,2.254,2.254,0,0,0,2.019-1.129,2.506,2.506,0,0,0,.283-1.2,1.843,1.843,0,0,0-1.928-1.959c-.99,0-1.9.47-3.221,1.649,0,3.008.01,3.508.062,3.968h-.8a10.57,10.57,0,0,0,.051-1.89c.009-1.218.009-1.3.03-1.539h-.021a2.739,2.739,0,0,1-.524.55,8.762,8.762,0,0,0-.909.949Z" transform="translate(0.469 0)" fill="#231815"/>
    <path id="パス_2042" data-name="パス 2042" d="M58.823,32.526a11.451,11.451,0,0,0-.091,2.089c1.635-.09,2.039-.11,3.3-.159v-.281c.009-.11.009-.219.009-.339a9.37,9.37,0,0,0-.061-1.52h.777a5.515,5.515,0,0,0-.04.771v.418l-.009.651v.269c.989-.02,1.776-.049,2.11-.089l.02.709c-.273-.02-.333-.02-.758-.02-.091,0-.354,0-.687.01-.162,0-.384.01-.706.01a9.413,9.413,0,0,1-.182,1.949,1.01,1.01,0,0,1-1.019.88,2.918,2.918,0,0,1-1.4-.46c.011-.151.021-.2.021-.3s-.01-.21-.021-.41a2.885,2.885,0,0,0,1.323.55c.283,0,.4-.16.494-.65a8.981,8.981,0,0,0,.121-1.539c-1.221.04-1.949.08-3.291.17v.9a15.173,15.173,0,0,0,.1,2.519.862.862,0,0,0,.677.649,5.612,5.612,0,0,0,1.574.17,9.248,9.248,0,0,0,2.808-.369l.081.77c-.142.009-.163.019-.405.049a17.309,17.309,0,0,1-2.554.21c-1.8,0-2.565-.339-2.827-1.239a10.5,10.5,0,0,1-.131-2.369V35.275a20.253,20.253,0,0,0-2.029.21l-.06-.7a1.97,1.97,0,0,0,.222.011c.181,0,.807-.041,1.867-.13v-.651A10.539,10.539,0,0,0,58,32.526Z" transform="translate(0.567 0)" fill="#231815"/>
    <path id="パス_2043" data-name="パス 2043" d="M162.859,34.216c-.121.02-.162.03-.3.06a17.838,17.838,0,0,1-1.787.3v1.729a7.211,7.211,0,0,1,2.171-.36,3.437,3.437,0,0,1,1.786.42,2.008,2.008,0,0,1,1.041,1.769,2.033,2.033,0,0,1-2.06,2.069,1.487,1.487,0,0,1-1.556-1.13,3.665,3.665,0,0,1-.121-1.129,2.2,2.2,0,0,0,.667-.26,2.94,2.94,0,0,0-.02.39c0,1.039.3,1.469,1.039,1.469a1.332,1.332,0,0,0,1.353-1.409c0-.98-.837-1.589-2.161-1.589a6.891,6.891,0,0,0-2.139.389v2.5c0,.54-.242.8-.737.8a2.685,2.685,0,0,1-1.666-.639,1.2,1.2,0,0,1-.465-.94,1.806,1.806,0,0,1,.8-1.33,5.416,5.416,0,0,1,1.424-.819V34.616c-.092.01-.092.01-.405.03-.181.01-.353.01-.645.01-.152,0-.424,0-.535-.01h-.414v-.66a5.764,5.764,0,0,0,1.03.071c.272,0,.666-.01.97-.031v-.989a6.548,6.548,0,0,0-.052-.949h.747a5.637,5.637,0,0,0-.05.928v.96a10.337,10.337,0,0,0,2.059-.429Zm-2.735,2.949c-1,.479-1.566,1.019-1.566,1.5,0,.21.141.409.434.6a1.907,1.907,0,0,0,.9.29c.2,0,.233-.061.233-.491Zm5.542-1.879a8.193,8.193,0,0,0-2.039-1.959l.525-.391a8.468,8.468,0,0,1,2.039,1.9Z" transform="translate(1.599 0)" fill="#231815"/>
    <path id="パス_2044" data-name="パス 2044" d="M169.625,37.963c-.566,0-.827.011-1.14.03a7.656,7.656,0,0,0,.051-1.05V33.556a12.856,12.856,0,0,0-.051-1.329,8.722,8.722,0,0,0,1.08.049h4.22c.414,0,.787-.019,1.081-.049a12.729,12.729,0,0,0-.05,1.329v3.387a7.342,7.342,0,0,0,.05,1.05c-.284-.019-.587-.03-1.131-.03h-.879v1.81c0,.309.1.339,1.131.339.96,0,1.191-.04,1.333-.25a3.338,3.338,0,0,0,.241-1.309,3.072,3.072,0,0,0,.636.27c-.232,1.788-.343,1.879-2.262,1.879a3.6,3.6,0,0,1-1.484-.17c-.182-.11-.242-.24-.242-.56V37.963h-1.231a2.928,2.928,0,0,1-.889,1.819,4.954,4.954,0,0,1-2.585,1.179,1.988,1.988,0,0,0-.353-.6,6.061,6.061,0,0,0,1.544-.42,2.511,2.511,0,0,0,1.4-1.289,2.328,2.328,0,0,0,.182-.69Zm-.464-4.008h5.027V32.866h-5.027Zm0,1.709h5.027V34.516h-5.027Zm0,1.749h5.027V36.225h-5.027Z" transform="translate(1.693 0)" fill="#231815"/>
    <path id="パス_2045" data-name="パス 2045" d="M180.582,34.946a5.465,5.465,0,0,0-.666-.031h-.293a4.381,4.381,0,0,0,1.09,1.82,1.954,1.954,0,0,0-.353.479,4.818,4.818,0,0,1-.808-1.539c.03.48.052,1.1.052,1.509v2.528a7.614,7.614,0,0,0,.06,1.15h-.717a7.947,7.947,0,0,0,.062-1.139V37.474c0-.47.019-1.109.06-1.649a6.79,6.79,0,0,1-1.3,2.749,1.975,1.975,0,0,0-.384-.521,7.179,7.179,0,0,0,1.546-3.138h-.485a5.055,5.055,0,0,0-.859.05v-.649a5.164,5.164,0,0,0,.879.05h.545v-1.48a10.387,10.387,0,0,1-1.192.26,1.267,1.267,0,0,0-.263-.52,7.888,7.888,0,0,0,2.353-.619,1.5,1.5,0,0,0,.413-.23l.375.519a2.458,2.458,0,0,0-.243.1,8.97,8.97,0,0,1-.846.319v1.65h.322a4.456,4.456,0,0,0,.706-.04v.36a6.417,6.417,0,0,0,.879.039h1.616v-.64h-1.2a4.63,4.63,0,0,0-.849.051v-.56a4.66,4.66,0,0,0,.838.05h1.212v-.589h-1.464a4.858,4.858,0,0,0-.849.049v-.58a4.989,4.989,0,0,0,.878.051h1.434a3.942,3.942,0,0,0-.062-.75h.707a3.807,3.807,0,0,0-.061.75H185.4a6.233,6.233,0,0,0,.908-.061v.59a5.382,5.382,0,0,0-.888-.049h-1.706v.589h1.373a5.067,5.067,0,0,0,.909-.05v.56a5.067,5.067,0,0,0-.889-.051h-1.393v.64h1.918a6.048,6.048,0,0,0,.938-.06v.61a5.21,5.21,0,0,0-.938-.06h-4.119a6.3,6.3,0,0,0-.929.06Zm2.172,4.867a6.356,6.356,0,0,1-2.293,1.119,1.92,1.92,0,0,0-.383-.52,5.585,5.585,0,0,0,2.231-.969Zm-.778-.481q-.727.016-.908.031a7.182,7.182,0,0,0,.039-.919v-1.85a6.065,6.065,0,0,0-.039-.9c.231.02.474.03.888.03h3.07c.433,0,.635-.01.9-.03a6.238,6.238,0,0,0-.039.92v1.8a6.743,6.743,0,0,0,.039.95c-.3-.02-.524-.031-.868-.031Zm-.283-2.558h3.6v-.569h-3.6Zm0,1.01h3.6v-.569h-3.6Zm0,1.069h3.6v-.63h-3.6Zm2.9.58a7.637,7.637,0,0,0,2.252.939,2.269,2.269,0,0,0-.375.55,7.623,7.623,0,0,1-2.272-1.1Z" transform="translate(1.797 0)" fill="#231815"/>
    <path id="パス_2046" data-name="パス 2046" d="M188.772,36.1a6.741,6.741,0,0,0,1.807.4c.052-.49.152-1.269.233-1.8a13.568,13.568,0,0,1-1.505-.271c-.131-.029-.172-.04-.312-.069l.091-.66a6.518,6.518,0,0,0,1.816.389,15.34,15.34,0,0,0,.242-1.879v-.079l.807.09a5.475,5.475,0,0,0-.162.669c-.009.09-.009.09-.1.64-.031.219-.051.32-.1.6.282.011.424.011.585.011a8.32,8.32,0,0,0,1.848-.17l-.029.69c-.2.019-.2.019-.707.059-.313.03-.616.04-.909.04-.162,0-.333,0-.889-.019-.161,1.149-.171,1.249-.231,1.808.384.01.525.01.667.01a9,9,0,0,0,1.858-.159l-.021.669c-.1.01-.13.01-.272.02a11.757,11.757,0,0,1-1.423.08c-.253,0-.414,0-.869-.02a1.8,1.8,0,0,1-.01.2c-.02.239-.04.569-.04.739a1.468,1.468,0,0,0,.465,1.2,2.135,2.135,0,0,0,1.423.429c1.354,0,2.231-.689,2.231-1.749a2.272,2.272,0,0,0-.959-1.738,2.01,2.01,0,0,0,.736-.2,2.652,2.652,0,0,1,.949,1.989c0,1.409-1.191,2.358-2.958,2.358a2.522,2.522,0,0,1-2.262-1,2.684,2.684,0,0,1-.312-1.379,5.394,5.394,0,0,1,.039-.659c.011-.15.011-.15.02-.24a10.715,10.715,0,0,1-1.523-.25,1.068,1.068,0,0,0-.314-.06Z" transform="translate(1.911 0)" fill="#231815"/>
    <path id="パス_2047" data-name="パス 2047" d="M200.083,32.117a5.539,5.539,0,0,0-.232,1.029c-.163,1.01-.3,2.1-.334,2.61l.04.009c.021-.08.021-.08.072-.29a4.46,4.46,0,0,1,.615-1.489,2.412,2.412,0,0,1,2.019-1.289,1.906,1.906,0,0,1,1.616.89,4.069,4.069,0,0,1,.605,2.428,4.118,4.118,0,0,1-2.331,3.928,7.77,7.77,0,0,1-1.8.59,2.077,2.077,0,0,0-.4-.68,5.347,5.347,0,0,0,2.049-.63,3.43,3.43,0,0,0,1.736-3.318c0-1.609-.565-2.538-1.533-2.538-.768,0-1.414.569-1.989,1.738a5.162,5.162,0,0,0-.545,2.23c0,.04,0,.09.01.239l-.727.03v-.11l-.01-.18-.019-1.039v-.23a24.966,24.966,0,0,1,.342-3.688,1.985,1.985,0,0,0,.03-.32Z" transform="translate(2.015 0)" fill="#231815"/>
    <path id="パス_2048" data-name="パス 2048" d="M83.655,34.216c-.121.019-.162.03-.3.059a17.837,17.837,0,0,1-1.787.3v1.73a7.211,7.211,0,0,1,2.171-.36,3.447,3.447,0,0,1,1.786.419,2.011,2.011,0,0,1,1.041,1.77A2.033,2.033,0,0,1,84.5,40.2a1.487,1.487,0,0,1-1.556-1.129,3.675,3.675,0,0,1-.121-1.13,2.152,2.152,0,0,0,.667-.26,2.955,2.955,0,0,0-.02.39c0,1.04.3,1.47,1.039,1.47a1.332,1.332,0,0,0,1.353-1.409c0-.98-.837-1.589-2.161-1.589a6.862,6.862,0,0,0-2.139.389v2.5c0,.54-.242.8-.737.8a2.685,2.685,0,0,1-1.666-.639,1.2,1.2,0,0,1-.465-.94,1.806,1.806,0,0,1,.8-1.329,5.389,5.389,0,0,1,1.424-.819v-1.89c-.092.011-.092.011-.405.03-.181.01-.353.01-.645.01-.152,0-.424,0-.535-.01h-.414v-.659a5.778,5.778,0,0,0,1.03.07c.272,0,.666-.01.97-.03v-.99a6.557,6.557,0,0,0-.052-.949h.747a5.649,5.649,0,0,0-.051.929v.959a10.2,10.2,0,0,0,2.059-.429Zm-2.735,2.948c-1,.479-1.566,1.019-1.566,1.5,0,.21.141.41.434.6a1.907,1.907,0,0,0,.9.29c.2,0,.233-.06.233-.49Zm5.542-1.879a8.228,8.228,0,0,0-2.039-1.959l.525-.39a8.428,8.428,0,0,1,2.039,1.9Z" transform="translate(0.797 0)" fill="#231815"/>
    <path id="パス_2049" data-name="パス 2049" d="M89.984,32.815a7.388,7.388,0,0,0-.071-1.008h.8a7.45,7.45,0,0,0-.062,1v1.009h.758a4.515,4.515,0,0,0,.758-.05v.669a7.316,7.316,0,0,0-.847-.049H90.65v2.008a15.508,15.508,0,0,0,1.515-.489l.02.6c-.706.25-.99.34-1.535.51v3.028c0,.319-.11.529-.322.6a2.891,2.891,0,0,1-.849.1c-.212,0-.505-.01-.727-.019a1.847,1.847,0,0,0-.151-.67,6.227,6.227,0,0,0,.939.09c.363,0,.443-.05.443-.27V37.2c-.434.12-.645.17-1,.26-.233.06-.424.11-.556.16l-.152-.72a7.219,7.219,0,0,0,1.706-.33V34.385h-.727a5.937,5.937,0,0,0-.848.049v-.679a4.794,4.794,0,0,0,.817.06h.758Zm3.038.39a7.692,7.692,0,0,0-1.05.061v-.71a7.182,7.182,0,0,0,1.061.06h3.381a7.383,7.383,0,0,0,1.061-.06v.71a8.124,8.124,0,0,0-1.07-.061h-.677v6.667c0,.649-.242.8-1.262.8-.424,0-.869-.02-1.393-.07a3.042,3.042,0,0,0-.153-.709,9.772,9.772,0,0,0,1.605.169c.434,0,.526-.04.526-.269V33.205Z" transform="translate(0.894 0)" fill="#231815"/>
    <path id="パス_2050" data-name="パス 2050" d="M98.837,33.646a9.371,9.371,0,0,0,2.181.17,7.724,7.724,0,0,0,.323-1.789l.807.08a5.34,5.34,0,0,0-.162.64c-.14.579-.172.7-.272,1.058a17.221,17.221,0,0,0,3.977-.43l.051.72c-.172.021-.232.021-.444.05a33.794,33.794,0,0,1-3.746.29A13.322,13.322,0,0,1,100.543,37l.01.021a5.215,5.215,0,0,1,2.937-.84c1.6,0,2.615.72,2.615,1.839,0,1.359-1.342,2.249-3.382,2.249a7.615,7.615,0,0,1-2.494-.39,1,1,0,0,0,.011-.16v-.059c0-.05-.021-.231-.051-.55a6.209,6.209,0,0,0,2.523.5c1.595,0,2.646-.63,2.646-1.59,0-.76-.727-1.219-1.938-1.219a5.538,5.538,0,0,0-2.342.539,2.166,2.166,0,0,0-.849.64l-.726-.289a14.986,14.986,0,0,0,1.353-3.259c-.646-.01-1.09-.03-1.676-.069-.131-.011-.222-.011-.282-.011h-.082Z" transform="translate(1.001 0)" fill="#231815"/>
    <path id="パス_2051" data-name="パス 2051" d="M113.016,31.846a6.872,6.872,0,0,0,1.666,1.81,10.613,10.613,0,0,0,2.767,1.638,2.556,2.556,0,0,0-.4.63,14.081,14.081,0,0,1-2.848-1.839,8.4,8.4,0,0,1-1.555-1.679,9.371,9.371,0,0,1-2.12,2.189,11.71,11.71,0,0,1-2.14,1.3,1.725,1.725,0,0,0-.424-.57,10.524,10.524,0,0,0,2.747-1.739,7.249,7.249,0,0,0,1.555-1.739Zm-3.523,8.935a7.161,7.161,0,0,0,.061-.979V37.593a6.213,6.213,0,0,0-.051-.919,5.547,5.547,0,0,0,.787.04h4.734a5.56,5.56,0,0,0,.789-.04,5.955,5.955,0,0,0-.052.919V39.8a6.708,6.708,0,0,0,.062.979H115.1V40.2H110.22v.58Zm.727-1.168H115.1V37.324H110.22Zm.07-4.728a5.357,5.357,0,0,0,.8.04h3.13a6.246,6.246,0,0,0,.848-.04v.68a6.111,6.111,0,0,0-.848-.04h-3.14a5.706,5.706,0,0,0-.788.04Z" transform="translate(1.093 0)" fill="#231815"/>
    <path id="パス_2052" data-name="パス 2052" d="M118.787,37.933a7.539,7.539,0,0,0,.868-.739c.343-.321.343-.321.687-.63.162-.15.162-.15.293-.26.02-.829.02-.92.051-1.768-.141.009-.141.009-.515.029a8.909,8.909,0,0,0-1.11.12l-.05-.69c.14.01.2.01.283.01.151,0,.575-.019,1.4-.08.03-.619.04-1,.04-1.388a1.729,1.729,0,0,0-.031-.391h.8a6.149,6.149,0,0,0-.1,1.16c-.011.34-.011.34-.021.569a.575.575,0,0,0,.232-.059l.264.329a2.918,2.918,0,0,0-.536.65c-.03.65-.049.99-.049,1.009h.019l.03-.029a5.389,5.389,0,0,1,.586-.51,3.953,3.953,0,0,1,2.555-.99,2.54,2.54,0,0,1,2.715,2.6,2.855,2.855,0,0,1-3.049,3.009,5.146,5.146,0,0,1-1.717-.3,1.169,1.169,0,0,0,.011-.17,2.448,2.448,0,0,0-.081-.58,4.457,4.457,0,0,0,1.787.39,2.254,2.254,0,0,0,2.019-1.129,2.506,2.506,0,0,0,.283-1.2,1.843,1.843,0,0,0-1.928-1.959c-.99,0-1.9.47-3.221,1.649,0,3.008.01,3.508.062,3.968h-.8a10.57,10.57,0,0,0,.051-1.89c.009-1.218.009-1.3.03-1.539h-.021a2.739,2.739,0,0,1-.524.55,8.762,8.762,0,0,0-.909.949Z" transform="translate(1.203 0)" fill="#231815"/>
    <path id="パス_2053" data-name="パス 2053" d="M131.555,32.526a11.453,11.453,0,0,0-.091,2.089c1.635-.09,2.039-.11,3.3-.159v-.281c.009-.11.009-.219.009-.339a9.372,9.372,0,0,0-.061-1.52h.777a5.515,5.515,0,0,0-.04.771v.418l-.009.651v.269c.989-.02,1.776-.049,2.11-.089l.02.709c-.273-.02-.333-.02-.758-.02-.091,0-.354,0-.687.01-.162,0-.384.01-.706.01a9.414,9.414,0,0,1-.182,1.949,1.01,1.01,0,0,1-1.019.88,2.918,2.918,0,0,1-1.4-.46c.011-.151.021-.2.021-.3s-.01-.21-.021-.41a2.885,2.885,0,0,0,1.323.55c.283,0,.4-.16.494-.65a8.981,8.981,0,0,0,.121-1.539c-1.221.04-1.949.08-3.291.17v.9a15.176,15.176,0,0,0,.1,2.519.862.862,0,0,0,.677.649,5.613,5.613,0,0,0,1.574.17,9.248,9.248,0,0,0,2.808-.369l.081.77c-.142.009-.163.019-.405.049a17.309,17.309,0,0,1-2.554.21c-1.8,0-2.565-.339-2.827-1.239a10.5,10.5,0,0,1-.131-2.369V35.275a20.252,20.252,0,0,0-2.029.21l-.06-.7a1.97,1.97,0,0,0,.222.011c.181,0,.807-.041,1.867-.13v-.651a10.538,10.538,0,0,0-.051-1.489Z" transform="translate(1.304 0)" fill="#231815"/>
    <path id="パス_2054" data-name="パス 2054" d="M246.958,22.306c-.108.019-.143.027-.272.055-.746.152-1.182.224-1.609.269v1.558a6.5,6.5,0,0,1,1.955-.324,3.1,3.1,0,0,1,1.609.378,1.807,1.807,0,0,1,.937,1.593,1.831,1.831,0,0,1-1.855,1.864,1.339,1.339,0,0,1-1.4-1.017,3.226,3.226,0,0,1-.109-1.017,2.037,2.037,0,0,0,.6-.235,2.516,2.516,0,0,0-.019.352c0,.935.272,1.323.935,1.323a1.2,1.2,0,0,0,1.219-1.27c0-.881-.754-1.431-1.946-1.431a6.19,6.19,0,0,0-1.927.351V27c0,.487-.218.721-.664.721a2.426,2.426,0,0,1-1.5-.576,1.086,1.086,0,0,1-.418-.847,1.63,1.63,0,0,1,.718-1.2,4.918,4.918,0,0,1,1.284-.738v-1.7c-.082.009-.082.009-.365.028-.164.009-.318.009-.582.009-.137,0-.382,0-.481-.009h-.375V22.1a5.187,5.187,0,0,0,.927.064c.246,0,.6-.009.875-.028v-.891a5.75,5.75,0,0,0-.047-.855h.675a5.1,5.1,0,0,0-.045.837v.864a9.275,9.275,0,0,0,1.855-.386ZM244.5,24.962c-.9.432-1.41.918-1.41,1.351,0,.188.126.369.39.54a1.725,1.725,0,0,0,.81.261c.182,0,.21-.054.21-.442Zm4.992-1.692a7.451,7.451,0,0,0-1.836-1.765l.472-.351a7.6,7.6,0,0,1,1.837,1.711Z" transform="translate(2.456 0)" fill="#231815"/>
    <path id="パス_2055" data-name="パス 2055" d="M251.451,22.46a9.059,9.059,0,0,1,1.556,1.161l-.345.486a6.836,6.836,0,0,0-1.556-1.216Zm1.619,2.917a13.016,13.016,0,0,1-.836,1.872c-.109.189-.174.307-.346.567-.064.109-.072.135-.163.28l-.51-.478a7.561,7.561,0,0,0,1.41-2.61Zm-1.191-5.1a8.246,8.246,0,0,1,1.445,1.225l-.39.441a6.192,6.192,0,0,0-1.437-1.261Zm2.364.783a8.349,8.349,0,0,0-.883.045V20.5a4.771,4.771,0,0,0,.892.055h4.238a6.387,6.387,0,0,0,.9-.055v.612a8.345,8.345,0,0,0-.89-.045h-1.246V22.2h.937a6.954,6.954,0,0,0,.864-.036c-.017.18-.027.4-.027.909v4.1a8.276,8.276,0,0,0,.056,1.071h-.6v-.53h-4.238v.53h-.6a8.071,8.071,0,0,0,.055-1.016V23.054a6.586,6.586,0,0,0-.036-.891,7.667,7.667,0,0,0,.9.036h.791V21.064Zm0,1.62v3.08h4.238V24.747c-.235.009-.381.009-.5.009a2.5,2.5,0,0,1-1-.1c-.191-.081-.254-.216-.254-.476v-1.5h-.857a4.224,4.224,0,0,1-.227,1.378,2.706,2.706,0,0,1-.882,1.2,1.385,1.385,0,0,0-.454-.37,2.035,2.035,0,0,0,.89-1.161,3.719,3.719,0,0,0,.145-1.045Zm0,4.52h4.238V26.25h-4.238Zm1.637-5.005h.846V21.064h-.846Zm1.373,1.836c0,.217.083.243.673.243.156,0,.156,0,.555-.009V22.684h-1.227Z" transform="translate(2.543 0)" fill="#231815"/>
    <path id="パス_2056" data-name="パス 2056" d="M264.5,24.215a.746.746,0,1,1-.745-.738.745.745,0,0,1,.745.738" transform="translate(2.664 0)" fill="#231815"/>
    <path id="パス_2057" data-name="パス 2057" d="M224.188,35.91a6.592,6.592,0,0,0,1.063.054h4.666a1.543,1.543,0,0,0,.59-.063l.337.387a2.626,2.626,0,0,0-.255.567,6.174,6.174,0,0,1-4.383,4.033,1.965,1.965,0,0,0-.391-.621,6.272,6.272,0,0,0,2.7-1.368,5.562,5.562,0,0,0,1.474-2.359h-4.748a8.4,8.4,0,0,0-1.055.046Zm.781-2.089a4.16,4.16,0,0,0,.955.063h3.038a4.154,4.154,0,0,0,.955-.063v.693a6.134,6.134,0,0,0-.946-.045h-3.055a6.134,6.134,0,0,0-.946.045Z" transform="translate(2.271 0)" fill="#231815"/>
    <path id="パス_2058" data-name="パス 2058" d="M232.26,37.792a10.543,10.543,0,0,0,1.855-2.07c.51-.685.746-.856,1.157-.856.363,0,.518.107,1.172.828a23.026,23.026,0,0,0,3.865,3.485l-.345.738-.172-.153c-.045-.045-.282-.235-.636-.541a35.918,35.918,0,0,1-3.084-2.98c-.6-.639-.635-.666-.818-.666s-.227.045-.627.576-1.218,1.522-1.646,2c-.063.071-.144.171-.255.315Zm5.82-3.521a6.909,6.909,0,0,1,.937,1.4l-.464.27a6.923,6.923,0,0,0-.928-1.431Zm1.018-.485a6.88,6.88,0,0,1,.946,1.4l-.456.261a7.191,7.191,0,0,0-.927-1.414Z" transform="translate(2.353 0)" fill="#231815"/>
    <path id="パス_2059" data-name="パス 2059" d="M243.962,33.821a4.29,4.29,0,0,0-.056.774c-.072,2.44-.145,3.106-.49,4.016a5.5,5.5,0,0,1-1.574,2.223,1.684,1.684,0,0,0-.545-.486,4.455,4.455,0,0,0,1.536-2.07,12.2,12.2,0,0,0,.41-3.863,4.085,4.085,0,0,0-.036-.639Zm2.255-.1a3.454,3.454,0,0,0-.055.792l-.054,5.437a4.173,4.173,0,0,0,1.689-1.043,4.427,4.427,0,0,0,1.075-1.8,2.549,2.549,0,0,0,.508.522,5.136,5.136,0,0,1-1.826,2.314,6.033,6.033,0,0,1-1.3.657c-.164.063-.164.063-.29.108a1.521,1.521,0,0,0-.209.1l-.363-.414a1.568,1.568,0,0,0,.063-.612l.055-5.267a3.481,3.481,0,0,0-.037-.8Z" transform="translate(2.444 0)" fill="#231815"/>
    <path id="パス_2060" data-name="パス 2060" d="M254.939,36.711c-.108,2.331-.874,3.43-2.927,4.222a1.565,1.565,0,0,0-.428-.585c1.882-.621,2.592-1.584,2.666-3.637h-2.466a7.233,7.233,0,0,0-1.046.045V36.09a6.119,6.119,0,0,0,1.056.054h5.321a6,6,0,0,0,1.053-.054v.666a7.2,7.2,0,0,0-1.045-.045Zm-3.283-2.854a4.768,4.768,0,0,0,1.045.063h2.747a8.284,8.284,0,0,0,1.045-.045v.648q-.177-.013-1.035-.027h-2.765a6.4,6.4,0,0,0-1.037.045Zm5.329-.756a7.036,7.036,0,0,1,.891,1.422l-.464.253a6.829,6.829,0,0,0-.882-1.459Zm1.118-.342A7.452,7.452,0,0,1,259,34.181l-.464.252a7.066,7.066,0,0,0-.884-1.449Z" transform="translate(2.54 0)" fill="#231815"/>
    <path id="パス_2061" data-name="パス 2061" d="M264.788,35.414v-.882a6.024,6.024,0,0,0-.028-.919h.709a6.442,6.442,0,0,0-.036.856v.945h.782a6.3,6.3,0,0,0,1.066-.054v.684A7.554,7.554,0,0,0,266.224,36h-.8a6.249,6.249,0,0,1-.446,3.052A4.22,4.22,0,0,1,262.439,41a1.6,1.6,0,0,0-.408-.567A3.458,3.458,0,0,0,264.5,38.52,7.266,7.266,0,0,0,264.778,36h-2.764v1.5a4.59,4.59,0,0,0,.035.729h-.736a4.223,4.223,0,0,0,.035-.756V36h-.763a7.536,7.536,0,0,0-1.056.045V35.36a6.283,6.283,0,0,0,1.065.054h.754V34.37a4.3,4.3,0,0,0-.035-.757h.736a4.667,4.667,0,0,0-.035.73v1.071Zm1.509-2.367a7.215,7.215,0,0,1,.645,1.475l-.482.163a6.907,6.907,0,0,0-.647-1.5Zm1.045-.3a7,7,0,0,1,.646,1.468l-.474.162a7.187,7.187,0,0,0-.635-1.477Z" transform="translate(2.629 0)" fill="#231815"/>
    <path id="パス_2062" data-name="パス 2062" d="M275.687,33.929a2.02,2.02,0,0,0-.4.378,15.965,15.965,0,0,1-2.127,1.81v3.834a5.829,5.829,0,0,0,.045.956h-.791a4.7,4.7,0,0,0,.053-.937V36.549a14.246,14.246,0,0,1-3.509,1.575,2.1,2.1,0,0,0-.356-.6,12.841,12.841,0,0,0,4.719-2.331,7.609,7.609,0,0,0,1.738-1.7Z" transform="translate(2.721 0)" fill="#231815"/>
    <path id="パス_2063" data-name="パス 2063" d="M277.45,39.853a7.965,7.965,0,0,0,2.646-.693,6.832,6.832,0,0,0,3.711-4.006,1.813,1.813,0,0,0,.555.531,7.906,7.906,0,0,1-2.774,3.439,9.192,9.192,0,0,1-3.392,1.341,5.083,5.083,0,0,0-.544.144Zm.582-5.582a11.915,11.915,0,0,1,2.192,1.692l-.474.559a10.052,10.052,0,0,0-2.164-1.765Z" transform="translate(2.81 0)" fill="#231815"/>
    <path id="パス_2064" data-name="パス 2064" d="M244.3,51.242c-.528,1.188-1.065,1.728-1.719,1.728-.864,0-1.51-.936-1.51-2.2a3.73,3.73,0,0,1,.955-2.485,3.822,3.822,0,0,1,2.938-1.2,3.547,3.547,0,0,1,2.5.892,3,3,0,0,1,.882,2.2,3.278,3.278,0,0,1-2.083,3.106,7.136,7.136,0,0,1-1.381.415,1.426,1.426,0,0,0-.32-.6,5.525,5.525,0,0,0,1.519-.423,2.717,2.717,0,0,0,1.61-2.521,2.373,2.373,0,0,0-1.447-2.26,2.64,2.64,0,0,0-1.056-.225,13.368,13.368,0,0,1-.89,3.575M243.182,48.1a3.108,3.108,0,0,0-1.484,2.684c0,.864.383,1.53.874,1.53.382,0,.746-.423,1.136-1.306a12.221,12.221,0,0,0,.828-3.331,2.892,2.892,0,0,0-1.355.423" transform="translate(2.442 0)" fill="#231815"/>
    <path id="パス_2065" data-name="パス 2065" d="M250.12,48.478a8.625,8.625,0,0,1,1.582,1.17l-.355.5a7.3,7.3,0,0,0-1.574-1.251Zm1.636,2.917a14.851,14.851,0,0,1-1.192,2.449,2.538,2.538,0,0,0-.19.324l-.528-.478a7.69,7.69,0,0,0,1.437-2.646Zm-1.182-5.1a7.967,7.967,0,0,1,1.519,1.251l-.373.467a6.866,6.866,0,0,0-1.519-1.313ZM255,50.638a5.407,5.407,0,0,0,3,3.026,2.225,2.225,0,0,0-.365.585,6.119,6.119,0,0,1-3.018-3.331,5.1,5.1,0,0,1-.874,1.89,5.659,5.659,0,0,1-1.873,1.5,1.672,1.672,0,0,0-.4-.5,4.578,4.578,0,0,0,1.956-1.494,4.349,4.349,0,0,0,.683-1.675h-1.1a6.886,6.886,0,0,0-.955.054v-.63a6.68,6.68,0,0,0,.945.054h1.2a15.781,15.781,0,0,0,.128-1.917h-.983a5.9,5.9,0,0,0-.882.045v-.612a5.97,5.97,0,0,0,.882.045h.983v-.639a5.078,5.078,0,0,0-.066-.883h.693a4.676,4.676,0,0,0-.066.883v.639h1.484a5.382,5.382,0,0,0,.809-.037,5.171,5.171,0,0,0-.037.757v1.719h.092a5.165,5.165,0,0,0,.782-.054v.63a6.7,6.7,0,0,0-.919-.054Zm1.582-.522V48.2h-1.7a14.8,14.8,0,0,1-.118,1.917Z" transform="translate(2.53 0)" fill="#231815"/>
    <path id="パス_2066" data-name="パス 2066" d="M262.828,49.315h-1.61a6.108,6.108,0,0,0-.9.054v-.622a5.762,5.762,0,0,0,.9.055h3.767a5.774,5.774,0,0,0,.9-.055v.622a5.866,5.866,0,0,0-.9-.054h-1.593v1.468h1.755a5.5,5.5,0,0,0,.874-.055v.612a4.933,4.933,0,0,0-.874-.053h-1.755v2a8.238,8.238,0,0,0,1.482.1c.738,0,1.366-.027,2.129-.09a1.658,1.658,0,0,0-.2.63c-.791.018-.854.018-1.1.018a12.637,12.637,0,0,1-1.992-.071,3.33,3.33,0,0,1-2.792-1.693,6.073,6.073,0,0,1-1.383,2.043,1.677,1.677,0,0,0-.472-.423,4.808,4.808,0,0,0,1.227-1.6,5.627,5.627,0,0,0,.555-2.053v-.09l.637.126c-.028.117-.028.117-.109.468-.045.217-.183.738-.246.955a2.787,2.787,0,0,0,.718.99,3.08,3.08,0,0,0,.983.549Zm-.136-2.548a2.989,2.989,0,0,0-.056-.567h.71a2.385,2.385,0,0,0-.063.558V47.2h2.654c.355,0,.619-.01.909-.037a4.336,4.336,0,0,0-.035.613v.566a4.587,4.587,0,0,0,.035.64h-.59V47.721h-6.349v1.261h-.6a4.126,4.126,0,0,0,.037-.64v-.566a3.9,3.9,0,0,0-.037-.613c.292.027.555.037.92.037h2.464Z" transform="translate(2.624 0)" fill="#231815"/>
    <path id="パス_2067" data-name="パス 2067" d="M308.569,37.853a6.239,6.239,0,0,1-1.13.829v1.31c.98-.18,1.332-.26,2.221-.491v.54a34.6,34.6,0,0,1-3.6.74c-.191.03-.3.049-.534.1l-.153-.62a8.83,8.83,0,0,0,1.455-.159v-1.09a10.568,10.568,0,0,1-2.363.819,1.479,1.479,0,0,0-.333-.529,8.555,8.555,0,0,0,3.685-1.449H305.3a7.23,7.23,0,0,0-1.09.05v-.62a8.566,8.566,0,0,0,1.1.05h3.2v-.18a3.048,3.048,0,0,0-.031-.459h.677a3.526,3.526,0,0,0-.04.459v.18h3.019a8.019,8.019,0,0,0,1.09-.05v.62a7.091,7.091,0,0,0-1.081-.05h-2.876a3.143,3.143,0,0,0,1.05,1.129,4.8,4.8,0,0,0,1.332-.989l.534.349a7.068,7.068,0,0,1-1.412.94,9.752,9.752,0,0,0,2.544.95,1.948,1.948,0,0,0-.365.579,9.052,9.052,0,0,1-3.069-1.48,3.946,3.946,0,0,1-1.221-1.478Zm-3.31-4.8a4.519,4.519,0,0,1-.465.57,1.685,1.685,0,0,0-.485-.3,3.269,3.269,0,0,0,.928-1.45l.556.17c-.121.27-.162.36-.253.539h1.03a3.934,3.934,0,0,0-.051-.769h.666a3.7,3.7,0,0,0-.051.769h1.13a5,5,0,0,0,.87-.049V33.1a7.135,7.135,0,0,0-.87-.04h-1.13v.66H308.4a5.076,5.076,0,0,0,.9-.05v.56a7.184,7.184,0,0,0-.878-.04h-1.283V34.8h.97a7.863,7.863,0,0,0,.848-.029,4.051,4.051,0,0,0-.029.51v.789c0,.429-.172.559-.717.559-.121,0-.363-.01-.6-.029a1.574,1.574,0,0,0-.1-.46,3.947,3.947,0,0,0,.667.08c.181,0,.232-.051.232-.21v-.76h-1.273v.9a5.625,5.625,0,0,0,.04.769h-.645a5.659,5.659,0,0,0,.04-.76v-.909H305.39v.85a3.312,3.312,0,0,0,.04.63h-.636a4.46,4.46,0,0,0,.04-.651v-.689a6.027,6.027,0,0,0-.03-.619c.191.019.484.029.777.029h.99v-.619h-1.312a5.283,5.283,0,0,0-.838.06v-.57a5.786,5.786,0,0,0,.777.04h1.374v-.66Zm4.543,2.489a3.753,3.753,0,0,0,.051-.69V33.076a3.714,3.714,0,0,0-.051-.71h.706a3.187,3.187,0,0,0-.051.71v1.778a3.763,3.763,0,0,0,.051.69Zm2.736.43c0,.569-.223.739-.96.739-.192,0-.687-.03-1.019-.05a2.139,2.139,0,0,0-.152-.609,6.816,6.816,0,0,0,1.1.119c.384,0,.414-.019.414-.289V32.805a5.323,5.323,0,0,0-.061-.869h.737a4.436,4.436,0,0,0-.061.89Z" transform="translate(3.08 0)" fill="#231815"/>
    <path id="パス_2068" data-name="パス 2068" d="M314.629,35.833a4.12,4.12,0,0,0,.778.051h.524a4.676,4.676,0,0,0,.778-.051,7.569,7.569,0,0,0-.051,1.06v1.959a1.523,1.523,0,0,0,.9.91,5.564,5.564,0,0,0,2.272.289,29.817,29.817,0,0,0,4.058-.2,2.463,2.463,0,0,0-.231.729c-1.061.05-2.222.069-3.413.069a6.429,6.429,0,0,1-2.888-.349,2.326,2.326,0,0,1-1.039-.94,8.836,8.836,0,0,1-1.211,1.05c-.091.07-.2.16-.364.31l-.333-.659a6.814,6.814,0,0,0,1.626-1.21V36.443h-.667a3.871,3.871,0,0,0-.737.05Zm.646-3.787a12.372,12.372,0,0,1,1.635,1.778l-.515.451a9.054,9.054,0,0,0-1.6-1.83Zm3.19,1.738a6.766,6.766,0,0,1-.687,1,1.518,1.518,0,0,0-.534-.34,5.542,5.542,0,0,0,1.181-1.919,2.705,2.705,0,0,0,.131-.509l.645.189a.319.319,0,0,1-.04.09c-.06.12-.06.12-.181.41a5.234,5.234,0,0,1-.232.53h1.333v-.35a6.047,6.047,0,0,0-.062-1.029h.727a4.925,4.925,0,0,0-.061,1.029v.35h1.455a4.64,4.64,0,0,0,.959-.06v.649a8.414,8.414,0,0,0-.95-.04h-1.464v1.34h1.888a5.177,5.177,0,0,0,.918-.05v.65a8.939,8.939,0,0,0-.918-.05H318.1a8.111,8.111,0,0,0-.9.05v-.65a5.262,5.262,0,0,0,.918.05h1.96v-1.34Zm.556,5.338a7.267,7.267,0,0,0-1.009.05,6.393,6.393,0,0,0,.04-.96v-.839a6.035,6.035,0,0,0-.04-.9,7.563,7.563,0,0,0,1.069.051h2.646a7.927,7.927,0,0,0,1.081-.051,5.378,5.378,0,0,0-.04.969v.76a5.385,5.385,0,0,0,.04.97,7.993,7.993,0,0,0-1.061-.05Zm-.364-.56h3.483V37.083h-3.483Z" transform="translate(3.185 0)" fill="#231815"/>
    <path id="パス_2069" data-name="パス 2069" d="M328.111,36.333a.828.828,0,1,1-.827-.819.826.826,0,0,1,.827.819" transform="translate(3.307 0)" fill="#231815"/>
    <path id="パス_2070" data-name="パス 2070" d="M331.3,36.144a2.725,2.725,0,0,0,.393.029c.072,0,.122,0,.354-.01.091-.109.091-.109.313-.4.091-.11.182-.231.394-.52a13.543,13.543,0,0,0-1.384-1.619l.384-.45c.183.2.263.28.364.4a6.9,6.9,0,0,0,.96-1.828l.615.249a4.005,4.005,0,0,0-.232.38,15.917,15.917,0,0,1-.979,1.63c.323.379.414.489.605.739a9.978,9.978,0,0,0,1.091-1.888l.585.329a3.457,3.457,0,0,0-.272.4c-.475.76-1.313,1.939-1.8,2.548.646-.039,1.051-.069,1.625-.149a6.372,6.372,0,0,0-.424-.89l.465-.24a11.945,11.945,0,0,1,.827,2l-.505.24c-.09-.31-.12-.42-.181-.609-.283.049-.585.08-.918.12v3.277a7.006,7.006,0,0,0,.06,1h-.706a7,7,0,0,0,.06-1V36.654c-.353.029-.534.04-.767.059a5.688,5.688,0,0,0-.837.08Zm1.13,1.219a10.572,10.572,0,0,1-.505,2.848l-.556-.269a7.666,7.666,0,0,0,.495-2.689Zm2.07-.16a15.49,15.49,0,0,1,.465,2.328l-.566.17a9.829,9.829,0,0,0-.414-2.348Zm4.785-3.589a7.821,7.821,0,0,0,.949-.04c-.029.311-.04.6-.04,1.01v5.348c0,.6-.212.759-1,.759-.322,0-.666-.01-.98-.04a2.006,2.006,0,0,0-.14-.66,6.943,6.943,0,0,0,1.08.1c.323,0,.434-.06.434-.25V37.832a1.924,1.924,0,0,0-.4.53,5.558,5.558,0,0,1-.908-1.329,5.311,5.311,0,0,1-.525-1.749,5.2,5.2,0,0,1-.514,1.919,4.972,4.972,0,0,1-.8,1.2,1.686,1.686,0,0,0-.444-.51,3.557,3.557,0,0,0,.869-1.21,5.718,5.718,0,0,0,.565-2.508h-1.464v5.587a9.5,9.5,0,0,0,.04,1.089h-.687a8.07,8.07,0,0,0,.051-1.119V34.565a9.623,9.623,0,0,0-.04-.991,8.062,8.062,0,0,0,.95.04h1.161v-.729a6.668,6.668,0,0,0-.061-.959h.707a6.327,6.327,0,0,0-.061.949v.739Zm-1.262.561a5.644,5.644,0,0,0,.827,2.718,3.663,3.663,0,0,0,.737.929V34.175Z" transform="translate(3.356 0)" fill="#231815"/>
    <path id="パス_2071" data-name="パス 2071" d="M342.117,37.442a9.189,9.189,0,0,0-.04-.969,8.349,8.349,0,0,0,.928.04h1.909c.322,0,.555-.01.817-.03a8.641,8.641,0,0,0-.03.94v2.309a7.619,7.619,0,0,0,.04.979h-.656v-.439h-2.343V40.9h-.675a6.815,6.815,0,0,0,.049-1.039Zm.625,2.269h2.342V37.073h-2.342Zm.828-6.746a7.1,7.1,0,0,0-.039-.839,8.56,8.56,0,0,0,1.13.05h3.3a7.91,7.91,0,0,0,1.141-.05,6.5,6.5,0,0,0-.04.829v1.69a6.946,6.946,0,0,0,.04.879,9.363,9.363,0,0,0-1.06-.041H344.6a9.544,9.544,0,0,0-1.069.041,7.781,7.781,0,0,0,.039-.87Zm.636,1.949h4.21V32.745h-4.21Zm2.493,2.429a6.183,6.183,0,0,0-.03-.86c.253.02.475.03.818.03h2.221a6.8,6.8,0,0,0,.868-.04,8.568,8.568,0,0,0-.04.979v2.409a6.351,6.351,0,0,0,.051,1.039H349.9v-.628h-2.584V40.9h-.657a7.913,7.913,0,0,0,.04-.979Zm.616,2.368h2.6V37.073h-2.6Z" transform="translate(3.465 0)" fill="#231815"/>
  </g>
</svg>
