<?xml version="1.0" encoding="UTF-8"?>
<svg id="_レイヤー_2" data-name="レイヤー_2" xmlns="http://www.w3.org/2000/svg" viewBox="0 0 362.33008 70.03125">
  <defs>
    <style>
      .cls-1 {
        fill: #231815;
      }

      .cls-2 {
        fill: #f6f2e7;
      }

      .cls-3 {
        fill: #fff;
      }
    </style>
  </defs>
  <g id="_レイヤー_1-2" data-name="レイヤー_1">
    <g>
      <g>
        <path class="cls-1" d="M327.31445,0c-19.30762,0-35.01562,15.70801-35.01562,35.01562,0,.67371.02368,1.3418.06152,2.00623l-.29102-.03308c-.95215-.10693-1.90405-.23877-2.85376-.38525.02368-.52686.04028-1.05542.04028-1.58789,0-19.30762-15.70801-35.01562-35.01562-35.01562-18.78833,0-34.16211,14.87427-34.97729,33.46436-1.04211.15991-2.07104.33154-3.10864.50903-.55469-18.82617-16.03125-33.97339-34.98926-33.97339-18.62012,0-33.88696,14.6106-34.95105,32.96851-.64709-.01562-1.27759-.03357-1.5802-.04944-.54346-.02856-1.07373-.07935-1.6062-.12598C141.87622,14.51794,126.65027,0,108.08984,0c-19.25012,0-34.91821,15.61548-35.01123,34.84424-1.01587.13745-2.03296.26392-3.05249.37219.00049-.06726.00513-.13342.00513-.20081C70.03125,15.70801,54.32324,0,35.01562,0S0,15.70801,0,35.01562s15.70801,35.01562,35.01562,35.01562c18.72705,0,34.06592-14.77783,34.97168-33.28418,1.01892-.09302,2.06519-.19763,3.12305-.31104.74866,18.65088,16.14819,33.59521,34.97949,33.59521,19.30762,0,35.01562-15.70801,35.01562-35.01562,0-.32056-.01562-.63721-.02417-.95557.63293.01978,1.74084.04858,3.09033.08105-.0072.29163-.02222.5813-.02222.87451,0,19.30762,15.70801,35.01562,35.01562,35.01562,19.29761,0,34.99854-15.69189,35.01489-34.9856,1.01318-.18945,2.03345-.35425,3.05566-.5-.0022.1571-.01196.31226-.01196.46997,0,19.30762,15.70801,35.01562,35.0166,35.01562,18.41504,0,33.54443-14.29199,34.90503-32.36499,1.02356.16064,2.0498.32031,3.06055.47192.08081.01221.16162.0249.24243.03699,1.60327,17.83179,16.62415,31.85608,34.86621,31.85608,19.30762,0,35.01562-15.70801,35.01562-35.01562S346.62207,0,327.31445,0Z"/>
        <circle class="cls-2" cx="327.31457" cy="35.01594" r="34.01575"/>
        <g>
          <path class="cls-3" d="M315.17082,20.25874c-5.98901,0-9.56433,5.54004-9.56433,14.81946,0,7.10394,2.51257,14.69495,9.56433,14.69495,4.62378,0,9.56433-3.86041,9.56433-14.69495,0-7.16419-2.51257-14.81946-9.56433-14.81946ZM315.17082,49.55452c-3.78296,0-5.62207-4.73529-5.62207-14.47632,0-9.85291,1.83911-14.6424,5.62207-14.6424,3.70276,0,5.58032,4.92645,5.58032,14.6424,0,9.60571-1.87756,14.47632-5.58032,14.47632Z"/>
          <path class="cls-3" d="M338.1751,49.77315c6.69104,0,10.84754-3.47443,10.84754-9.06757,0-5.31555-3.66724-8.36426-10.06128-8.36426-1.79846,0-3.39514.22797-5.02478.71722l-.90894.27283.64636-9.33765h14.35474v-3.07306h-14.74622l-.91846,12.73902.56799.29352c1.37219-.44751,2.79932-.64838,4.5813-.64838,4.49304,0,7.0697,2.92365,7.0697,8.02112,0,5.0755-2.78796,8.22858-7.27625,8.22858-.99207,0-1.80945-.12524-2.6499-.40631l-.36182-.12085-.7771-3.93219c-.38965-2.37946-1.19019-2.57465-2.04602-2.57465-.48889,0-1.34729.14502-1.76843,1.08508.56689,3.97907,3.56836,6.16754,8.47156,6.16754Z"/>
        </g>
        <circle class="cls-2" cx="254.23977" cy="35.01594" r="34.01575"/>
        <g>
          <path class="cls-3" d="M240.68165,20.25892c-5.98901,0-9.5647,5.53967-9.5647,14.81909,0,7.10413,2.51257,14.69495,9.5647,14.69495,4.62378,0,9.56433-3.86023,9.56433-14.69495,0-7.16419-2.51257-14.81909-9.56433-14.81909ZM240.68165,49.55433c-3.78296,0-5.62207-4.73511-5.62207-14.47632,0-9.85254,1.83911-14.64221,5.62207-14.64221,3.70276,0,5.58032,4.92627,5.58032,14.64221,0,9.60571-1.87756,14.47632-5.58032,14.47632Z"/>
          <path class="cls-3" d="M275.23659,39.00306h-4.67615v-18.28894h-2.76782l-13.00818,18.54309v2.07532h12.16443v7.77869h3.61157v-7.77869h4.67615v-2.32947ZM266.94887,39.00306h-11.81067l11.81067-16.75379v16.75379Z"/>
        </g>
        <circle class="cls-2" cx="181.16496" cy="35.01594" r="34.01575"/>
        <g>
          <path class="cls-3" d="M169.12459,20.25874c-5.98883,0-9.56433,5.54004-9.56433,14.81946,0,7.10394,2.51257,14.69495,9.56433,14.69495,4.62378,0,9.56433-3.86041,9.56433-14.69495,0-7.16419-2.51257-14.81946-9.56433-14.81946ZM169.12459,49.55452c-3.78296,0-5.62189-4.73529-5.62189-14.47632,0-9.85291,1.83893-14.6424,5.62189-14.6424,3.70276,0,5.58032,4.92645,5.58032,14.6424,0,9.60571-1.87756,14.47632-5.58032,14.47632Z"/>
          <g>
            <path class="cls-3" d="M186.46047,26.84962c.81958,0,1.80139-.24371,2.12476-2.14362l.00989-.04742.95618-3.86774c-2.65723.84576-4.30884,2.66638-4.61023,5.21869.31714.53632.86206.84009,1.51941.84009Z"/>
            <path class="cls-3" d="M188.46621,49.17952l-.82764-3.9538c-.4248-2.50342-1.21582-2.7052-2.13025-2.7052-.36182,0-1.22461.11005-1.68494,1.09332.43799,3.19849,2.36572,4.81,4.64282,5.56567Z"/>
            <path class="cls-3" d="M202.76967,41.90584c0-3.9494-2.47156-6.25507-7.55567-7.04865l-3.36768-.5257,3.3219-.76227c4.43958-1.01898,6.69067-3.28162,6.69067-6.72528,0-4.12354-3.1886-6.58521-8.52905-6.58521-1.16272,0-2.22583.1236-3.17651.36145.67566-.12726,1.21436-.18439,1.72705-.18439,3.75732,0,5.91248,2.38074,5.91248,6.53156,0,4.53095-2.62793,7.23596-7.02942,7.23596h-.87488v.34204h1.16528c4.77246,0,7.40076,2.65778,7.40076,7.4837,0,4.85284-2.6283,7.52545-7.40076,7.52545-.75439,0-1.47034-.08752-2.18774-.2677l-.30762-.07709c1.31763.42224,2.74622.56342,4.06677.56342,6.1626,0,10.14441-3.08807,10.14441-7.86731Z"/>
          </g>
        </g>
        <circle class="cls-2" cx="108.09016" cy="35.01594" r="34.01575"/>
        <g>
          <path class="cls-3" d="M96.06864,20.25892c-5.98883,0-9.56415,5.53967-9.56415,14.81909,0,7.10413,2.51257,14.69495,9.56415,14.69495,4.6236,0,9.56415-3.86023,9.56415-14.69495,0-7.16419-2.51257-14.81909-9.56415-14.81909ZM96.06864,49.55506c-3.78296,0-5.62189-4.73547-5.62189-14.47705,0-9.85291,1.83893-14.64258,5.62189-14.64258,3.70276,0,5.58014,4.92664,5.58014,14.64258,0,9.60645-1.87738,14.47705-5.58014,14.47705Z"/>
          <g>
            <path class="cls-3" d="M120.27629,20.25892c-.8606,0-1.67816.06995-2.44592.20435.22449-.01831.44696-.02783.66687-.02783,3.6416,0,5.99451,2.72644,5.99451,6.94592,0,4.03418-1.69592,7.16638-6.7207,12.41272-2.06763,2.11011-4.41852,4.58716-6.64508,7.00195v2.31519h18.54987v-3.07398h-17.79438l2.47998-2.12732c1.59412-1.37073,3.09998-2.66492,4.18689-3.51416,7.6084-5.87549,10.17536-9.10693,10.17536-12.8075,0-4.72632-3-7.32935-8.44739-7.32935Z"/>
            <path class="cls-3" d="M111.02159,26.5973c.38049.67163,1.0014,1.03894,1.7655,1.03894.70441,0,1.69135-.27063,2.12714-2.60925l.01007-.04541,1.05249-4.03455c-2.77423.99023-4.59686,2.99377-4.9552,5.65027Z"/>
          </g>
        </g>
        <circle class="cls-2" cx="35.01536" cy="35.01594" r="34.01575"/>
        <g>
          <path class="cls-3" d="M23.49217,20.25874c-5.98883,0-9.56433,5.54004-9.56433,14.81946,0,7.10394,2.51257,14.69495,9.56433,14.69495,4.62378,0,9.56433-3.86041,9.56433-14.69495,0-7.16419-2.51257-14.81946-9.56433-14.81946ZM23.49217,49.55452c-3.78296,0-5.62189-4.73529-5.62189-14.47632,0-9.85291,1.83893-14.6424,5.62189-14.6424,3.70276,0,5.58032,4.92645,5.58032,14.6424,0,9.60571-1.87756,14.47632-5.58032,14.47632Z"/>
          <path class="cls-3" d="M50.21917,20.53541l-.07159-.05603-9.61487,2.28973v.28748l5.37946-.53833v17.52558c0,2.55835-.04193,5.15479-.12488,7.71698l-.01813.56232-6.10529.74249v.04559h16.43903v-.04816l-5.89893-.74231-.01813-.55994c-.08258-2.55103-.12433-5.14728-.12433-7.71698v-13.15943l.15765-6.349Z"/>
        </g>
      </g>
      <g>
        <path class="cls-1" d="M18.77033,32.47656c-.05957.3291-.08984.69922-.08984,1.11914v5.35742c0,.43945.03027.7793.08984,1.11914h-.94922c.05957-.37012.08008-.62012.08008-1.11914v-5.35742c0-.5-.02051-.75977-.08008-1.11914h.94922Z"/>
        <path class="cls-1" d="M20.65119,40.07227c.05957-.37988.08008-.64941.08008-1.12988v-3.12793c0-.4502-.02051-.72949-.08008-1.12891h.8291v.67871c0,.12012,0,.2002-.0293.43066.46973-.82031,1.11914-1.20996,2.01855-1.20996.71973,0,1.2793.25977,1.59863.75.19043.29004.28027.65918.28027,1.14941v2.46875c0,.50977.02051.78906.07031,1.11914h-.89941c.0498-.38965.06934-.68945.06934-1.12988v-2.32812c0-.89941-.42969-1.37988-1.21875-1.37988-.55957,0-1.00977.25-1.42969.79004-.25977.33984-.37988.58984-.45996.98926v1.92871c0,.44043.02051.74023.07031,1.12988h-.89941Z"/>
        <path class="cls-1" d="M31.3885,42.1709c.0498-.37988.07031-.67969.07031-1.12988v-1.23828c0-.28027.00977-.44043.03906-.7002-.46973.7002-1.16895,1.05957-2.02832,1.05957-1.53906,0-2.48828-1.05957-2.48828-2.77832,0-1.70898.95898-2.79883,2.46777-2.79883.91016,0,1.59961.36035,2.04883,1.0791-.01953-.16992-.0293-.25977-.0293-.40918v-.56934h.7998c-.05078.36914-.07031.65918-.07031,1.14844v5.21777c0,.41895.01953.74902.07031,1.11914h-.87988ZM29.50959,39.5127c1.16895,0,1.93848-.84961,1.93848-2.15918,0-1.2793-.74902-2.11914-1.89844-2.11914-1.11914,0-1.78906.7998-1.78906,2.14941,0,1.3291.65918,2.12891,1.74902,2.12891Z"/>
        <path class="cls-1" d="M38.01838,39.42285c0-.11035,0-.18066.03027-.44043-.5.82031-1.11914,1.18945-2.01855,1.18945-.71973,0-1.2793-.25977-1.59961-.73926-.17969-.29004-.2793-.67969-.2793-1.15918v-2.46875c0-.4502-.02051-.7998-.07031-1.11914h.89941c-.0498.34961-.06934.68945-.06934,1.12891v2.3291c0,.88867.42871,1.38867,1.20898,1.38867.56934,0,1.03906-.25,1.43848-.78906.26074-.35059.37012-.59961.45996-1v-1.92871c0-.42969-.01953-.7793-.06934-1.12891h.88867c-.0498.34961-.06934.66895-.06934,1.12891v3.12793c0,.4502.01953.72949.08008,1.12988h-.83008v-.64941Z"/>
        <path class="cls-1" d="M41.62971,32.47656v.88965h-.96973v-.88965h.96973ZM41.58967,34.68555c-.0498.34961-.06934.62891-.06934,1.12891v3.12793c0,.45996.01953.74023.06934,1.12988h-.89941c.0498-.42969.07031-.70996.07031-1.12988v-3.12793c0-.47949-.02051-.7793-.07031-1.12891h.89941Z"/>
        <path class="cls-1" d="M46.68928,35.45508c-.37988-.12012-.56055-.15039-.80957-.15039-.50977,0-.92969.20996-1.22949.60938-.24023.31055-.33008.5498-.37012,1v2.03906c0,.44922.02051.72949.07031,1.11914h-.89941c.0498-.45996.06934-.71973.06934-1.12988v-3.12793c0-.5-.01953-.76953-.06934-1.12891h.8291v.56934c0,.08008,0,.22949-.00977.2998.18945-.30957.33984-.46973.5498-.60938.37988-.25.71973-.35059,1.19922-.35059.2998,0,.46973.02051.88965.09082l-.21973.76953Z"/>
        <path class="cls-1" d="M48.09065,35.85449q-.44922-.98926-.5498-1.16895h.97949c.0498.2793.18066.67871.33984,1.05859l1.44922,3.3584,1.28906-3.3584c.2002-.50977.29004-.7793.33008-1.05859h.92969c-.05957.14941-.22949.53906-.48926,1.16895l-2.23926,5.45703c-.25977.63965-.69922.92871-1.40918.92871-.21973,0-.43945-.0293-.81934-.10938l.20996-.73926c.2793.12988.41992.16992.60938.16992.33984,0,.58008-.18066.73926-.5498l.45996-1.09961-1.8291-4.05762Z"/>
      </g>
      <g>
        <path class="cls-1" d="M88.81916,34.56543c-.14941-.31934-.25977-.62988-.44922-1.23926.0293.42969.07031,1.0498.07031,1.28906v4.27832c0,.5293.01953.83887.08008,1.17871h-.91016c.06055-.36914.08008-.65918.08008-1.17871v-5.22754c0-.5-.01953-.81934-.08008-1.18945h1.15918c.05957.2998.18066.66016.33008.98926l2.46875,5.50781,2.45801-5.50781c.16992-.38965.28027-.69922.33984-.98926h1.15039c-.06055.37988-.08008.66992-.08008,1.18945v5.22754c0,.5498.01953.81934.08008,1.17871h-.91016c.06055-.33984.08008-.69922.08008-1.17871v-4.33789c0-.28027.0293-.81934.07031-1.22949-.09961.41016-.24023.80957-.42969,1.21973l-2.03906,4.4873c-.2002.4502-.30078.70996-.37988,1.03906h-.70996c-.0498-.25977-.16992-.59961-.36914-1.04883l-2.00977-4.45801Z"/>
        <path class="cls-1" d="M97.90998,37.49414c.03027.66992.12988,1.03906.39941,1.39941.32031.43945.81055.67969,1.41016.67969.80859,0,1.36914-.40039,1.64844-1.16992l.69922.28027c-.18945.41992-.31934.59961-.54883.8291-.4707.45996-1.08008.7002-1.80859.7002-1.57031,0-2.55859-1.09961-2.55859-2.8291,0-1.70898.97852-2.82812,2.47852-2.82812,1.28906,0,2.21875.8291,2.41797,2.16895.00977.10938.05078.5.07031.76953h-4.20801ZM101.31819,36.86426c-.05957-.55957-.20996-.91895-.53027-1.22949-.30859-.2998-.69922-.44922-1.17871-.44922-.61035,0-1.12012.30957-1.41895.86914-.14062.25-.19043.42969-.25.80957h3.37793Z"/>
        <path class="cls-1" d="M104.19026,37.49414c.0293.66992.12891,1.03906.39941,1.39941.31934.43945.80957.67969,1.40918.67969.80957,0,1.36914-.40039,1.64844-1.16992l.70117.28027c-.19141.41992-.32031.59961-.55078.8291-.46973.45996-1.0791.7002-1.80859.7002-1.56934,0-2.55859-1.09961-2.55859-2.8291,0-1.70898.97852-2.82812,2.47852-2.82812,1.28906,0,2.21875.8291,2.41797,2.16895.00977.10938.05078.5.07031.76953h-4.20703ZM107.59846,36.86426c-.06055-.55957-.21094-.91895-.53027-1.22949-.30957-.2998-.7002-.44922-1.17871-.44922-.61035,0-1.12012.30957-1.41992.86914-.13965.25-.18945.42969-.25.80957h3.37891Z"/>
        <path class="cls-1" d="M111.48908,33.19629c-.05078.32031-.07031.67969-.07031,1.10938v.37988h.48047c.45898,0,.66992-.00977,1.01953-.05957v.75879c-.32031-.0498-.57031-.05957-1.01953-.05957h-.48047v3.47852c0,.28906.04102.43945.13086.5293.10938.11035.2793.16992.48828.16992.25977,0,.46094-.05957.79102-.25977l.21875.69922c-.41016.16992-.71875.23047-1.12891.23047-.43945,0-.7793-.11035-.97852-.31055-.20117-.19922-.28125-.48926-.28125-.95898v-3.57812h-.39844c-.33984,0-.57031.01953-.90039.05957v-.75879c.2793.0498.48047.05957.90039.05957h.39844v-.37988c0-.39941-.01953-.7793-.07031-1.10938h.90039Z"/>
        <path class="cls-1" d="M115.23908,32.47656v.88965h-.96875v-.88965h.96875ZM115.20002,34.68555c-.05078.34961-.07031.62988-.07031,1.12988v3.12793c0,.45996.01953.73926.07031,1.12891h-.90039c.05078-.42969.07031-.70898.07031-1.12891v-3.12793c0-.48047-.01953-.78027-.07031-1.12988h.90039Z"/>
        <path class="cls-1" d="M117.06135,40.07227c.05859-.37988.08008-.64941.08008-1.12891v-3.12793c0-.4502-.02148-.73047-.08008-1.12988h.82812v.67969c0,.12012,0,.2002-.0293.42969.46875-.81934,1.11914-1.20898,2.01953-1.20898.71875,0,1.2793.25977,1.59766.74902.19141.29004.28125.66016.28125,1.14941v2.46875c0,.50977.01953.79004.06836,1.11914h-.89844c.05078-.38965.07031-.68945.07031-1.12891v-2.3291c0-.89941-.42969-1.37891-1.2207-1.37891-.55859,0-1.00781.25-1.42773.78906-.25977.33984-.38086.58984-.46094.99023v1.92871c0,.43945.02148.73926.07031,1.12891h-.89844Z"/>
        <path class="cls-1" d="M124.25861,40.77246c.14062.18945.20117.25977.32031.34961.38086.33008.79883.46973,1.33984.46973.86914,0,1.47852-.37988,1.73828-1.09961.09961-.29004.14062-.64941.17969-1.47852-.14844.26953-.25977.39941-.42969.54883-.37891.33984-.93945.52051-1.54883.52051-1.50977,0-2.46875-1.0498-2.46875-2.71875,0-1.69922.98047-2.77832,2.5293-2.77832.86914,0,1.50781.34961,1.91797,1.04883-.00977-.16992-.01953-.25-.01953-.37988v-.56934h.79883c-.04883.38965-.06836.64941-.06836,1.11914v3.57812c0,.97949-.18164,1.60938-.58008,2.0791-.41992.49023-1.16992.75977-2.08008.75977-.98828,0-1.60742-.28027-2.26758-.99902l.63867-.4502ZM125.89924,39.45312c1.13867,0,1.89844-.87012,1.89844-2.16895,0-1.25977-.7207-2.06934-1.83984-2.06934-1.10938,0-1.78906.82031-1.78906,2.14941,0,1.29883.66016,2.08887,1.73047,2.08887Z"/>
      </g>
      <g>
        <path class="cls-1" d="M297.76057,33.50977c.05273-.32324.07129-.58496.07129-1.00781v-4.83496c0-.36816-.01855-.64746-.07129-1.02539.32324.01758.57617.02637.99023.02637h1.83594c1.38672,0,2.16992.71094,2.16992,1.96289,0,1.32324-.81055,2.08887-2.21484,2.08887h-2.00781v1.77344c0,.43164.01758.71094.07227,1.0166h-.8457ZM300.54182,30.09863c.9541,0,1.49414-.51367,1.49414-1.43164,0-.90039-.52148-1.37793-1.49414-1.37793h-2.00781v2.80957h2.00781Z"/>
        <path class="cls-1" d="M306.76057,29.35059c-.3418-.10742-.50391-.13477-.72949-.13477-.45898,0-.83691.18945-1.10645.54883-.2168.2793-.29785.49512-.33398.90039v1.83691c0,.40527.01758.65723.0625,1.00781h-.80957c.04492-.41406.06348-.64746.06348-1.0166v-2.81836c0-.4502-.01855-.69336-.06348-1.0166h.74707v.5127c0,.07227,0,.20703-.00879.27051.1709-.2793.30566-.42383.49512-.5498.3418-.22461.64844-.31445,1.08008-.31445.27051,0,.42383.01758.80078.08105l-.19727.69238Z"/>
        <path class="cls-1" d="M307.66877,31.08887c0-1.55762.93652-2.54785,2.4043-2.54785,1.4668,0,2.39453.99023,2.39453,2.53809,0,1.54004-.93652,2.54785-2.38672,2.54785-1.47559,0-2.41211-.98145-2.41211-2.53809ZM308.36213,31.07031c0,1.22461.65723,1.97168,1.71094,1.97168,1.05273,0,1.70117-.74707,1.70117-1.96289,0-1.21484-.64844-1.97168-1.68359-1.97168-1.07129,0-1.72852.74805-1.72852,1.96289Z"/>
        <path class="cls-1" d="M317.50666,33.06934c0-.12598.00977-.28809.02734-.44141-.42383.65723-1.00879.97266-1.82812.97266-1.38672,0-2.23242-.95508-2.23242-2.52148,0-1.53906.86426-2.52051,2.21484-2.52051.81934,0,1.44922.33301,1.8457.9541l-.00977-.13477c-.02637-.18945-.02637-.27051-.02637-.47754v-1.20605c0-.42285-.01855-.68359-.06348-1.02637h.79297c-.04492.36035-.06348.62109-.06348,1.01758v4.78906c0,.4502.01855.68457.06348,1.03516h-.7207v-.44043ZM314.1844,31.06152c0,.59375.13477,1.10742.36914,1.4043.2793.35156.70312.54004,1.20703.54004,1.05273,0,1.72852-.76465,1.72852-1.95312,0-.59473-.17969-1.11621-.50391-1.43164-.31641-.30566-.74805-.47754-1.22461-.47754-.98145,0-1.57617.7207-1.57617,1.91797Z"/>
        <path class="cls-1" d="M323.23127,32.9248c0-.09863,0-.16211.02637-.39551-.4502.73828-1.00879,1.07129-1.81836,1.07129-.64844,0-1.15234-.23438-1.44043-.66699-.16211-.26074-.25195-.61133-.25195-1.04395v-2.22363c0-.40527-.01758-.71973-.0625-1.00781h.80957c-.04492.31445-.06348.62109-.06348,1.0166v2.09766c0,.80176.3877,1.25195,1.08984,1.25195.51367,0,.93555-.22559,1.29688-.71191.2334-.31445.33203-.54004.41406-.90039v-1.7373c0-.38672-.01855-.70215-.06348-1.0166h.80176c-.04492.31445-.06348.60254-.06348,1.0166v2.81836c0,.40527.01855.65723.07129,1.0166h-.74609v-.58496Z"/>
        <path class="cls-1" d="M328.88166,30.14355c-.25977-.70215-.69336-1.03613-1.35938-1.03613-.99023,0-1.61914.77441-1.61914,1.98145,0,1.1875.64746,1.94434,1.65625,1.94434.51367,0,.93555-.20703,1.16992-.57617.08984-.13477.13477-.24316.19727-.45898l.67578.17969c-.125.32422-.21484.49512-.36914.69336-.39648.49512-.97266.75586-1.70117.75586-1.41406,0-2.32227-.98145-2.32227-2.52051,0-1.55762.90039-2.5752,2.27734-2.5752.74805,0,1.34961.28809,1.73828.8291.125.1709.20703.31445.31445.57617l-.6582.20703Z"/>
        <path class="cls-1" d="M332.19416,27.31641c-.04492.28809-.06445.6123-.06445.99902v.34277h.43359c.41406,0,.60352-.00977.91797-.05469v.68457c-.28906-.04492-.51367-.05371-.91797-.05371h-.43359v3.13281c0,.26074.03711.39551.11719.47656.09961.09961.25195.15332.44141.15332.23438,0,.41406-.05371.71094-.23438l.19922.63086c-.36914.15234-.64844.20703-1.01758.20703-.39648,0-.70312-.09961-.88281-.2793-.17969-.18066-.25195-.44141-.25195-.86426v-3.22266h-.35938c-.30664,0-.51367.01758-.81055.05371v-.68457c.25195.04492.43164.05469.81055.05469h.35938v-.34277c0-.36035-.01758-.70215-.0625-.99902h.81055Z"/>
        <path class="cls-1" d="M335.38947,26.66797v.80176h-.875v-.80176h.875ZM335.35236,28.6582c-.04492.31445-.0625.56641-.0625,1.0166v2.81836c0,.41406.01758.66602.0625,1.0166h-.81055c.04492-.38672.0625-.63867.0625-1.0166v-2.81836c0-.43164-.01758-.70215-.0625-1.0166h.81055Z"/>
        <path class="cls-1" d="M336.6219,31.08887c0-1.55762.93555-2.54785,2.40234-2.54785,1.46875,0,2.39648.99023,2.39648,2.53809,0,1.54004-.9375,2.54785-2.38672,2.54785-1.47656,0-2.41211-.98145-2.41211-2.53809ZM337.31526,31.07031c0,1.22461.65625,1.97168,1.70898,1.97168,1.05469,0,1.70312-.74707,1.70312-1.96289,0-1.21484-.64844-1.97168-1.68359-1.97168-1.07227,0-1.72852.74805-1.72852,1.96289Z"/>
        <path class="cls-1" d="M342.65119,33.50977c.05469-.3418.07227-.58496.07227-1.0166v-2.81836c0-.40527-.01758-.65723-.07227-1.0166h.74805v.61133c0,.1084,0,.18066-.02734.3877.42188-.73828,1.00781-1.08984,1.81836-1.08984.64844,0,1.15234.23438,1.43945.67578.17188.26074.25195.59375.25195,1.03516v2.22363c0,.45898.01953.71094.06445,1.00781h-.81055c.04492-.35059.0625-.62109.0625-1.0166v-2.09766c0-.81055-.38672-1.24219-1.09766-1.24219-.50391,0-.91016.22461-1.28711.71094-.23438.30566-.34375.53125-.41406.8916v1.7373c0,.39551.01758.66602.0625,1.0166h-.81055Z"/>
        <path class="cls-1" d="M356.27033,33.50977c-.30664-.39551-.39648-.50391-.56836-.68359l-.20703-.21582c-.43164.42285-.67383.59375-1.09766.77344-.42383.17188-.87305.26172-1.35938.26172-.73828,0-1.31445-.19824-1.69336-.58496-.33203-.33398-.51172-.79297-.51172-1.31445,0-.5498.19727-1.02637.59375-1.41406.28711-.28809.53906-.4502,1.16016-.72852l-.30469-.32422c-.43359-.44141-.5957-.80176-.5957-1.26953,0-.28809.08203-.54004.23438-.75684.32422-.47656.85547-.71094,1.58594-.71094,1.08008,0,1.81836.57617,1.81836,1.41309,0,.50488-.17188.8916-.52344,1.19824-.25195.21582-.34961.26953-1.17773.63867l1.88086,1.89062c.46875-.68457.66602-1.15234.82812-1.99902l.63086.24316c-.36133,1.14355-.54102,1.53125-1.02734,2.18848l.58594.59375c.29688.29688.60352.58496.85547.80078h-1.10742ZM353.01057,30.05273c-.57617.25293-.80078.3877-1.04492.62207-.28711.26074-.44922.62988-.44922,1.02539,0,.81934.61133,1.3418,1.57617,1.3418.38672,0,.75586-.08105,1.11523-.24316.31445-.15332.51367-.28809.85547-.62109l-2.05273-2.125ZM353.19026,29.35059c.6582-.26953.77539-.32324.9375-.43164.35938-.24316.52148-.52246.52148-.88281,0-.57617-.43164-.92676-1.13477-.92676-.70117,0-1.14258.36035-1.14258.94531,0,.33301.11719.58496.42188.8916l.39648.4043Z"/>
        <path class="cls-1" d="M309.75666,40.66797c0-.3877-.01758-.64844-.07227-1.02637.31543.01758.55859.02637.99023.02637h1.52148c2.00781,0,3.15137,1.22461,3.15137,3.37598,0,1.12598-.34277,2.0625-.96387,2.66504-.53906.53125-1.28711.80176-2.1875.80176h-1.52148c-.43164,0-.6748.00879-.99023.02637.05469-.35059.07227-.62109.07227-1.07129v-4.79785ZM312.17854,45.87988c.71094,0,1.27832-.20703,1.68359-.63867.49512-.50391.75586-1.26953.75586-2.19727,0-.93555-.23438-1.65625-.71094-2.13281-.39648-.41406-.95508-.6123-1.69238-.6123h-1.75586v5.58105h1.71973Z"/>
        <path class="cls-1" d="M317.09162,44.1875c.02734.60352.11719.93652.36035,1.26074.28809.39648.72852.6123,1.26953.6123.72852,0,1.23242-.36035,1.48535-1.05371l.62988.25195c-.1709.37793-.28809.54004-.49512.74707-.42285.41504-.97168.63086-1.62988.63086-1.41309,0-2.30469-.99023-2.30469-2.54785,0-1.54004.88281-2.54785,2.2334-2.54785,1.16113,0,1.99902.74707,2.17871,1.95312.00879.09961.04492.4502.0625.69336h-3.79004ZM320.16194,43.62012c-.05371-.50391-.18945-.82812-.47754-1.10645-.2793-.27051-.62988-.40527-1.0625-.40527-.54883,0-1.00781.2793-1.27734.7832-.12695.22461-.17188.38672-.22559.72852h3.04297Z"/>
        <path class="cls-1" d="M322.91486,39.66797c-.04492.32422-.0625.56738-.0625,1.01758v4.81641c0,.40527.01758.64844.0625,1.00879h-.81055c.04492-.32422.06348-.60352.06348-1.00879v-4.8252c0-.44141-.01855-.68457-.06348-1.00879h.81055Z"/>
        <path class="cls-1" d="M325.23713,39.66797v.80176h-.87305v-.80176h.87305ZM325.20002,41.6582c-.04492.31445-.0625.56738-.0625,1.0166v2.81836c0,.41406.01758.66602.0625,1.01758h-.80957c.04492-.3877.06348-.63965.06348-1.01758v-2.81836c0-.43164-.01855-.70215-.06348-1.0166h.80957Z"/>
        <path class="cls-1" d="M327.0008,41.6582c.04492.2334.13477.53125.2793.88184l1.02539,2.64746c.04492.11621.14453.4043.19922.58496.07227-.22559.125-.37793.20703-.57617l1.02539-2.65625c.16211-.40527.22461-.62988.27148-.88184h.8457c-.11719.21582-.14453.28809-.44141.99023l-1.25977,3.03418c-.19922.49512-.22656.54883-.28906.82812h-.71094c-.05469-.22559-.11719-.3877-.29688-.82812l-1.25195-3.03418c-.1709-.39648-.26074-.59473-.44922-.99023h.8457Z"/>
        <path class="cls-1" d="M332.22932,44.1875c.02734.60352.11719.93652.35938,1.26074.28906.39648.73047.6123,1.26953.6123.73047,0,1.23438-.36035,1.48633-1.05371l.63086.25195c-.17188.37793-.28906.54004-.49609.74707-.42383.41504-.97266.63086-1.62891.63086-1.41406,0-2.30469-.99023-2.30469-2.54785,0-1.54004.88086-2.54785,2.23242-2.54785,1.16211,0,1.99805.74707,2.17773,1.95312.00977.09961.04492.4502.06445.69336h-3.79102ZM335.29963,43.62012c-.05469-.50391-.18945-.82812-.47656-1.10645-.2793-.27051-.63086-.40527-1.0625-.40527-.54883,0-1.00977.2793-1.2793.7832-.125.22461-.16992.38672-.22461.72852h3.04297Z"/>
        <path class="cls-1" d="M340.15901,42.35156c-.3418-.1084-.50391-.13574-.72852-.13574-.45898,0-.83789.18945-1.10742.5498-.2168.27832-.29688.49512-.33398.90039v1.83594c0,.40527.01758.65723.0625,1.00879h-.80859c.04492-.41406.0625-.64844.0625-1.01758v-2.81836c0-.44922-.01758-.69238-.0625-1.0166h.74609v.5127c0,.07227,0,.20703-.00977.27051.17188-.2793.30664-.42285.49609-.5498.3418-.22461.64844-.31445,1.08008-.31445.26953,0,.42383.01758.80078.08105l-.19727.69336Z"/>
        <path class="cls-1" d="M341.23908,42.71094q-.40625-.89062-.49609-1.05273h.88281c.04492.25195.16211.6123.30664.9541l1.30469,3.02441,1.16211-3.02441c.17969-.45898.25977-.70215.29688-.9541h.83789c-.05469.13477-.20703.48633-.44141,1.05273l-2.01758,4.91602c-.23438.57617-.62891.83691-1.26953.83691-.19727,0-.39648-.02734-.73828-.09863l.18945-.66602c.25195.11621.37891.15234.54883.15234.30664,0,.52344-.16211.66602-.49512l.41406-.99023-1.64648-3.65527Z"/>
      </g>
      <g>
        <path class="cls-1" d="M227.21565,26.33984c0,.43164.01562.64746.06348.93555h-.75879c.04785-.27246.06348-.52051.06348-.93555v-4.25391c0-.34375-.01562-.59961-.06348-.91113.2793.01562.49512.02344.87891.02344h2.11914c.3916,0,.61523-.01562.91992-.05566v.67969c-.26465-.04004-.49609-.05664-.91992-.05664h-2.30273v2.06348h1.87109c.38379,0,.61523-.0166.91113-.05566v.6709c-.26367-.04004-.49512-.05566-.91113-.05566h-1.87109v1.95117Z"/>
        <path class="cls-1" d="M232.21565,21.19824v.71191h-.77539v-.71191h.77539ZM232.18342,22.96582c-.04004.2793-.05566.50293-.05566.90332v2.50195c0,.36816.01562.5918.05566.9043h-.71973c.04004-.34375.05664-.56836.05664-.9043v-2.50195c0-.38379-.0166-.62402-.05664-.90332h.71973Z"/>
        <path class="cls-1" d="M233.51252,27.27539c.04785-.30371.06348-.52051.06348-.9043v-2.50195c0-.36035-.01562-.58398-.06348-.90332h.66309v.54297c0,.09668,0,.16016-.02344.34375.375-.65527.89551-.9668,1.61426-.9668.57617,0,1.02344.20801,1.2793.59961.15234.23145.22461.52734.22461.91895v1.97559c0,.40723.01562.63086.05566.89551h-.71973c.04004-.3125.05566-.55176.05566-.9043v-1.8623c0-.71973-.34375-1.10352-.97461-1.10352-.44824,0-.80762.2002-1.14355.63184-.20801.27148-.30371.47168-.36816.79102v1.54297c0,.35254.01562.5918.05566.9043h-.71875Z"/>
        <path class="cls-1" d="M241.46272,26.70703c-.3125.28027-.46387.38379-.73535.48828-.27246.10352-.56055.16016-.83203.16016-.87988,0-1.41504-.45605-1.41504-1.21582,0-.63965.39941-1.10352,1.14355-1.31152.47168-.13574.85547-.18359,1.83887-.20801v-.46289c0-.54395-.34375-.82422-1.00781-.82422-.43945,0-.76758.1123-.99121.34375-.10449.1123-.16797.22461-.24805.46387l-.62402-.13574c.14453-.36816.24805-.53613.44824-.71191.32812-.30371.80762-.45508,1.40723-.45508,1.05566,0,1.59863.44727,1.59863,1.31055v2.24707c0,.35938.0166.55957.06445.87988h-.64746v-.56836ZM241.46272,25.0918c-.95215.02441-1.40723.08008-1.76758.23242-.40723.16797-.60742.43945-.60742.82324,0,.44043.32812.71973.84766.71973.46387,0,.96777-.22363,1.2793-.56738.18359-.2002.24805-.36816.24805-.6875v-.52051Z"/>
        <path class="cls-1" d="M244.09553,21.19824c-.04004.28809-.05566.50391-.05566.90332v4.27832c0,.35938.01562.5752.05566.89551h-.71973c.04004-.28809.05566-.53613.05566-.89551v-4.28613c0-.3916-.01562-.60742-.05566-.89551h.71973Z"/>
        <path class="cls-1" d="M246.15998,21.19824v.71191h-.77637v-.71191h.77637ZM246.12776,22.96582c-.04004.2793-.05664.50293-.05664.90332v2.50195c0,.36816.0166.5918.05664.9043h-.71973c.04004-.34375.05566-.56836.05566-.9043v-2.50195c0-.38379-.01562-.62402-.05566-.90332h.71973Z"/>
        <path class="cls-1" d="M250.46272,23.4209c-.2002.21582-.33594.38379-.53613.65625l-1.71875,2.29395c-.0166.0166-.13672.16797-.30371.37598.3916-.01562.41504-.01562.55078-.01562h1.26367c.41602,0,.63965-.01562.90332-.05566v.65527c-.28711-.04004-.49512-.05566-.90332-.05566h-1.69531c-.49512,0-.66309.00781-.88672.02344v-.52734c.17578-.18359.33496-.36816.54297-.64746l1.75977-2.35059c.08789-.12012.14355-.18457.23926-.28809-.21582.01562-.28809.01562-.39941.01562h-1.08789c-.33594,0-.5918.0166-.89551.05566v-.64746c.3125.04004.54395.05664.89551.05664h1.42383c.49512,0,.62305,0,.84766-.02441v.47949Z"/>
        <path class="cls-1" d="M254.44611,26.70703c-.3125.28027-.46387.38379-.73535.48828-.27246.10352-.56055.16016-.83203.16016-.87988,0-1.41504-.45605-1.41504-1.21582,0-.63965.39941-1.10352,1.14355-1.31152.47168-.13574.85547-.18359,1.83887-.20801v-.46289c0-.54395-.34375-.82422-1.00781-.82422-.43945,0-.76758.1123-.99121.34375-.10449.1123-.16797.22461-.24805.46387l-.62402-.13574c.14453-.36816.24805-.53613.44824-.71191.32812-.30371.80762-.45508,1.40723-.45508,1.05566,0,1.59863.44727,1.59863,1.31055v2.24707c0,.35938.0166.55957.06445.87988h-.64746v-.56836ZM254.44611,25.0918c-.95215.02441-1.40723.08008-1.76758.23242-.40723.16797-.60742.43945-.60742.82324,0,.44043.32812.71973.84766.71973.46387,0,.96777-.22363,1.2793-.56738.18359-.2002.24805-.36816.24805-.6875v-.52051Z"/>
        <path class="cls-1" d="M257.58283,21.77441c-.04004.25586-.05566.54297-.05566.88672v.30469h.38379c.36719,0,.53516-.00879.81543-.04883v.6084c-.25586-.04004-.45605-.04785-.81543-.04785h-.38379v2.78223c0,.23145.03125.35156.10352.42383.08789.08789.22363.13574.3916.13574.20801,0,.36816-.04785.63184-.20801l.17578.55957c-.32715.13574-.5752.18457-.90332.18457-.35156,0-.62402-.08887-.7832-.24805-.16016-.16016-.22461-.3916-.22461-.76758v-2.8623h-.31934c-.27148,0-.45605.01562-.71973.04785v-.6084c.22363.04004.38379.04883.71973.04883h.31934v-.30469c0-.31934-.01562-.62305-.05566-.88672h.71973Z"/>
        <path class="cls-1" d="M260.42268,21.19824v.71191h-.77539v-.71191h.77539ZM260.39143,22.96582c-.04004.2793-.05664.50293-.05664.90332v2.50195c0,.36816.0166.5918.05664.9043h-.71973c.04004-.34375.05566-.56836.05566-.9043v-2.50195c0-.38379-.01562-.62402-.05566-.90332h.71973Z"/>
        <path class="cls-1" d="M261.51936,25.12402c0-1.38281.83105-2.2627,2.13477-2.2627,1.30273,0,2.12695.87988,2.12695,2.25488,0,1.36719-.83203,2.2627-2.11914,2.2627-1.31152,0-2.14258-.87109-2.14258-2.25488ZM262.13459,25.1084c0,1.08691.58398,1.75098,1.51953,1.75098s1.51074-.66406,1.51074-1.74316-.5752-1.75098-1.49512-1.75098c-.95117,0-1.53516.66406-1.53516,1.74316Z"/>
        <path class="cls-1" d="M266.87873,27.27539c.04785-.30371.06445-.52051.06445-.9043v-2.50195c0-.36035-.0166-.58398-.06445-.90332h.66406v.54297c0,.09668,0,.16016-.02441.34375.37598-.65527.89551-.9668,1.61523-.9668.57617,0,1.02344.20801,1.2793.59961.15234.23145.22363.52734.22363.91895v1.97559c0,.40723.0166.63086.05664.89551h-.71973c.04004-.3125.05566-.55176.05566-.9043v-1.8623c0-.71973-.34375-1.10352-.97559-1.10352-.44727,0-.80762.2002-1.14355.63184-.20703.27148-.30371.47168-.36719.79102v1.54297c0,.35254.01562.5918.05566.9043h-.71973Z"/>
        <path class="cls-1" d="M274.44807,25.12402c0-1.38281.83105-2.2627,2.13477-2.2627,1.30273,0,2.12695.87988,2.12695,2.25488,0,1.36719-.83203,2.2627-2.11914,2.2627-1.31152,0-2.14258-.87109-2.14258-2.25488ZM275.0633,25.1084c0,1.08691.58398,1.75098,1.51953,1.75098s1.51074-.66406,1.51074-1.74316-.5752-1.75098-1.49512-1.75098c-.95117,0-1.53516.66406-1.53516,1.74316Z"/>
        <path class="cls-1" d="M280.05451,23.47754c-.2793,0-.47949.01562-.72754.04785v-.6084c.21582.03223.4082.04883.72754.04883h.32812v-.47168c0-.48828.06348-.74414.24805-.97559.19141-.24805.55957-.39258,1.00684-.39258.3125,0,.55957.04883.84766.16016l-.16797.53613c-.21582-.12793-.41602-.18457-.66309-.18457-.25586,0-.44043.07227-.54395.2168-.08789.12793-.12012.29492-.12012.6709v.44043h.39941c.34473,0,.55176-.00879.84766-.04883v.6084c-.27148-.04004-.45508-.04785-.84766-.04785h-.39941v2.90234c0,.375.01562.59961.05566.89551h-.71973c.04004-.2959.05664-.56836.05664-.9043v-2.89355h-.32812Z"/>
        <path class="cls-1" d="M239.48908,33.77344c-.06348-.31934-.12793-.47949-.2793-.66309-.25586-.30371-.66406-.46387-1.18359-.46387-.82324,0-1.39941.43945-1.39941,1.08691,0,.41602.22461.71191.69629.9043.21582.08789.22363.08789,1.14258.28711,1.2793.27246,1.79102.75977,1.79102,1.6875,0,1.12695-.77539,1.7666-2.15039,1.7666-.89551,0-1.55957-.26367-1.92676-.75977-.20801-.2793-.2959-.52734-.37598-1.05469l.69531-.08789c.02441.38379.08008.5752.24805.79102.26367.35156.74414.55176,1.33496.55176.95215,0,1.52734-.44727,1.52734-1.19141,0-.3916-.15918-.6875-.46387-.85547-.26367-.15137-.35156-.17578-1.31934-.3916-.50293-.10352-.81543-.21582-1.08691-.36816-.49609-.2793-.74316-.70312-.74316-1.2627,0-1.00781.80664-1.65527,2.04688-1.65527.79102,0,1.40723.25586,1.7666.73535.18359.24023.26367.43945.35156.84766l-.67188.0957Z"/>
        <path class="cls-1" d="M244.28986,37.70801c-.3125.2793-.46387.38379-.73535.4873-.27246.10352-.56055.16016-.83203.16016-.87988,0-1.41504-.45605-1.41504-1.21582,0-.63965.39941-1.10352,1.14355-1.31152.47168-.13574.85547-.18359,1.83887-.20703v-.46387c0-.54395-.34375-.82422-1.00781-.82422-.43945,0-.76758.1123-.99121.34473-.10449.11133-.16797.22363-.24805.46289l-.62402-.13574c.14453-.36719.24805-.53516.44824-.71191.32812-.30371.80762-.45508,1.40723-.45508,1.05566,0,1.59863.44727,1.59863,1.31152v2.24609c0,.36035.0166.55957.06445.87988h-.64746v-.56738ZM244.28986,36.09277c-.95215.02344-1.40723.08008-1.76758.23145-.40723.16797-.60742.43945-.60742.82324,0,.44043.32812.71973.84766.71973.46387,0,.96777-.22363,1.2793-.56738.18359-.2002.24805-.36816.24805-.6875v-.51953Z"/>
        <path class="cls-1" d="M246.91486,32.19824c-.04004.28809-.05566.49609-.05566.9043v2.89355l1.44727-1.39844c.34375-.32812.45605-.46387.56738-.63184h.95117q-.11133.10352-.32715.2959c-.08008.07129-.17578.16016-.28809.27148-.07227.06445-.1123.1123-.12793.12793l-1.11133,1.03125,1.35156,1.74316c.47949.61621.51953.66406.69531.83984h-.91113c-.08789-.19238-.10449-.22363-.50391-.75977l-1.06348-1.45508-.67969.64746v.67188c0,.35938.01562.61523.05566.89551h-.71094c.03906-.28809.05566-.51953.05566-.90332v-4.26953c0-.40039-.0166-.61621-.05566-.9043h.71094Z"/>
        <path class="cls-1" d="M251.37092,36.21289c.02441.53516.10449.83105.32031,1.11914.25586.35156.64746.54297,1.12695.54297.64746,0,1.0957-.31934,1.31934-.93457l.55957.22363c-.15234.33594-.25586.47949-.43945.66309-.37598.36816-.86328.55957-1.44727.55957-1.25586,0-2.04688-.87891-2.04688-2.2627,0-1.36719.7832-2.2627,1.98242-2.2627,1.03223,0,1.77539.66406,1.93555,1.73535.00781.08789.03906.39941.05566.61621h-3.36621ZM254.09748,35.70898c-.04785-.44824-.16797-.73633-.42383-.9834-.24805-.24023-.55957-.36035-.94336-.36035-.4873,0-.89551.24805-1.13574.69531-.11133.2002-.15137.34473-.19922.64844h2.70215Z"/>
        <path class="cls-1" d="M261.49787,37.70801c-.31152.2793-.46387.38379-.73535.4873-.27246.10352-.55957.16016-.83203.16016-.87891,0-1.41504-.45605-1.41504-1.21582,0-.63965.40039-1.10352,1.14355-1.31152.47168-.13574.85547-.18359,1.83887-.20703v-.46387c0-.54395-.34375-.82422-1.00781-.82422-.43945,0-.76758.1123-.99121.34473-.10352.11133-.16797.22363-.24805.46289l-.62305-.13574c.14355-.36719.24805-.53516.44727-.71191.32812-.30371.80762-.45508,1.40723-.45508,1.05566,0,1.59961.44727,1.59961,1.31152v2.24609c0,.36035.01562.55957.06348.87988h-.64746v-.56738ZM261.49787,36.09277c-.95117.02344-1.40723.08008-1.7666.23145-.4082.16797-.6084.43945-.6084.82324,0,.44043.32812.71973.84766.71973.46387,0,.96777-.22363,1.2793-.56738.18457-.2002.24805-.36816.24805-.6875v-.51953Z"/>
        <path class="cls-1" d="M263.41096,38.27539c.04785-.30371.06445-.51953.06445-.90332v-2.50293c0-.35938-.0166-.58398-.06445-.90332h.66406v.54395c0,.0957,0,.15918-.02441.34375.37598-.65625.89551-.96777,1.61523-.96777.57617,0,1.02344.20801,1.2793.59961.15234.23145.22363.52734.22363.91992v1.97461c0,.40723.0166.63184.05664.89551h-.71973c.04004-.31152.05566-.55176.05566-.90332v-1.86328c0-.71973-.34375-1.10352-.97559-1.10352-.44727,0-.80762.2002-1.14258.63184-.20801.27148-.30469.47168-.36816.79102v1.54395c0,.35156.01562.5918.05566.90332h-.71973Z"/>
        <path class="cls-1" d="M271.89729,37.88379c0-.1123.00781-.25586.02344-.3916-.37598.58301-.89551.86328-1.62305.86328-1.23145,0-1.98242-.84766-1.98242-2.23926,0-1.36719.76758-2.23828,1.9668-2.23828.72754,0,1.28711.2959,1.63867.84766l-.00781-.12012c-.02441-.16797-.02441-.24023-.02441-.42383v-1.07129c0-.37598-.01562-.6084-.05566-.91211h.7041c-.04004.32031-.05664.55176-.05664.9043v4.25293c0,.40039.0166.6084.05664.91992h-.63965v-.3916ZM268.94611,36.10059c0,.52734.12012.9834.32812,1.24707.24805.31152.62402.47949,1.07129.47949.93555,0,1.53516-.67969,1.53516-1.73438,0-.52832-.16016-.99219-.44727-1.27148-.28027-.27246-.66406-.42383-1.08789-.42383-.87109,0-1.39941.63965-1.39941,1.70312Z"/>
        <path class="cls-1" d="M229.50373,49.27539c-.36816,0-.5918.00781-.87207.02344.04785-.30371.06445-.55957.06445-.95117v-4.20508c0-.41602-.0166-.66406-.06445-.94434h.75195c-.04785.2959-.06445.50391-.06445.94434v4.56543h2.51855c.40039,0,.61621-.0166.92773-.05664v.67969c-.25586-.04004-.47949-.05566-.92773-.05566h-2.33398Z"/>
        <path class="cls-1" d="M236.40608,48.70801c-.31152.2793-.46387.38379-.73535.4873s-.55957.16016-.83105.16016c-.87988,0-1.41602-.45605-1.41602-1.21582,0-.63965.40039-1.10352,1.14355-1.31152.47168-.13574.85547-.18359,1.83887-.20703v-.46387c0-.54395-.34375-.82422-1.00684-.82422-.44043,0-.76758.1123-.99219.34473-.10352.11133-.16797.22363-.24707.46289l-.62402-.13574c.14355-.36719.24805-.53516.44727-.71191.32812-.30371.80762-.45508,1.40723-.45508,1.05566,0,1.59961.44727,1.59961,1.31152v2.24609c0,.36035.01562.55957.06348.87988h-.64746v-.56738ZM236.40608,47.09277c-.95117.02344-1.40723.08008-1.7666.23145-.4082.16797-.60742.43945-.60742.82324,0,.44043.32715.71973.84668.71973.46387,0,.96777-.22363,1.2793-.56738.18457-.2002.24805-.36816.24805-.6875v-.51953Z"/>
        <path class="cls-1" d="M238.32014,49.27539c.03906-.30371.05566-.53613.05566-.91992v-4.25293c0-.33594-.0166-.5918-.05566-.9043h.70312c-.04004.2959-.05566.52832-.05566.91211v1.0791c0,.21582-.00781.35938-.03223.56738.37598-.59082.91992-.87891,1.64746-.87891,1.23047,0,1.9668.83105,1.9668,2.22266,0,1.40723-.75195,2.25488-1.99902,2.25488-.50391,0-.87207-.12793-1.23926-.43164-.17578-.13672-.24805-.22461-.37598-.41602.01562.15137.02441.21582.02441.31934v.44824h-.63965ZM240.53401,45.38965c-.94336,0-1.56641.6875-1.56641,1.71094,0,1.03125.62305,1.73535,1.54297,1.73535.89551,0,1.42285-.64844,1.42285-1.74316,0-1.08008-.51172-1.70312-1.39941-1.70312Z"/>
        <path class="cls-1" d="M244.05549,47.21289c.02441.53516.10449.83105.32031,1.11914.25586.35156.64746.54297,1.12695.54297.64746,0,1.0957-.31934,1.31934-.93457l.55957.22363c-.15137.33594-.25586.47949-.43945.66309-.37598.36816-.86328.55957-1.44727.55957-1.25586,0-2.04688-.87891-2.04688-2.2627,0-1.36719.7832-2.2627,1.98242-2.2627,1.03223,0,1.77539.66406,1.93555,1.73535.00781.08789.04004.39941.05566.61621h-3.36621ZM246.78205,46.70898c-.04785-.44824-.16797-.73633-.42383-.9834-.24805-.24023-.55957-.36035-.94336-.36035-.4873,0-.89551.24805-1.13574.69531-.11133.2002-.15137.34473-.19922.64844h2.70215Z"/>
        <path class="cls-1" d="M249.23127,43.19824c-.04004.28809-.05566.50391-.05566.9043v4.27734c0,.35938.01562.5752.05566.89551h-.71973c.04004-.28809.05566-.53613.05566-.89551v-4.28613c0-.3916-.01562-.60742-.05566-.89551h.71973Z"/>
        <path class="cls-1" d="M253.30354,44.08594c0-.34375-.01562-.5752-.06348-.91113.2793.01562.49512.02344.87891.02344h1.35156c1.7832,0,2.79785,1.08789,2.79785,2.99902,0,.99902-.30371,1.83105-.85547,2.36621-.47949.47168-1.14355.71191-1.94238.71191h-1.35156c-.38379,0-.59961.00781-.87891.02344.04785-.31152.06348-.55078.06348-.95117v-4.26172ZM255.45393,48.71582c.63184,0,1.13574-.18457,1.49512-.56836.44043-.44727.67188-1.12695.67188-1.9502,0-.83203-.20801-1.47168-.63184-1.89551-.35156-.36719-.84668-.54395-1.50293-.54395h-1.55859v4.95801h1.52637Z"/>
        <path class="cls-1" d="M259.82307,47.21289c.02344.53516.10352.83105.31934,1.11914.25586.35156.64844.54297,1.12793.54297.64746,0,1.09473-.31934,1.31934-.93457l.55957.22363c-.15234.33594-.25586.47949-.43945.66309-.37598.36816-.86426.55957-1.44727.55957-1.25586,0-2.04688-.87891-2.04688-2.2627,0-1.36719.7832-2.2627,1.98242-2.2627,1.03125,0,1.77539.66406,1.93457,1.73535.00879.08789.04004.39941.05664.61621h-3.36621ZM262.54963,46.70898c-.04785-.44824-.16797-.73633-.42383-.9834-.24805-.24023-.55957-.36035-.94336-.36035-.48828,0-.89551.24805-1.13574.69531-.11133.2002-.15137.34473-.2002.64844h2.70312Z"/>
        <path class="cls-1" d="M264.70295,47.99609c.05664.2959.12012.43945.28027.58398.2002.18359.51953.2793.92773.2793.69531,0,1.13477-.2959,1.13477-.76758,0-.22363-.08008-.3916-.24805-.49609-.19141-.11914-.35156-.16699-.94336-.28711-.63965-.13574-.91113-.23242-1.18262-.41602-.28027-.19141-.43262-.4873-.43262-.83984,0-.28711.12012-.55957.34375-.77539.28027-.27148.71191-.41602,1.24805-.41602.54297,0,.9668.12793,1.25488.38379.20801.17676.32031.36035.42383.72754l-.63184.10449c-.04785-.21582-.08789-.31152-.19922-.42383-.18457-.2002-.47168-.30371-.83203-.30371-.58398,0-.99902.2959-.99902.71973,0,.18359.0957.34375.27148.43945.18359.10352.3916.16797.8877.27148.77539.17676,1.03125.27246,1.27148.45605.24707.2002.38379.50391.38379.83203,0,.79883-.67969,1.29492-1.77539,1.29492-.72754,0-1.28711-.21582-1.58301-.62402-.12012-.16797-.17578-.30371-.25586-.63184l.65527-.11133Z"/>
        <path class="cls-1" d="M269.50276,43.19824v.71191h-.77539v-.71191h.77539ZM269.47151,44.96582c-.04004.2793-.05664.50391-.05664.90332v2.50293c0,.36719.0166.5918.05664.90332h-.71973c.04004-.34375.05566-.56738.05566-.90332v-2.50293c0-.38379-.01562-.62402-.05566-.90332h.71973Z"/>
        <path class="cls-1" d="M271.29475,49.83496c.1123.15234.16016.20801.25586.28027.30371.26367.63965.375,1.07129.375.69531,0,1.18359-.30371,1.3916-.87891.08008-.23242.11133-.51953.14355-1.18359-.12012.21582-.20801.32031-.34375.43945-.30371.27246-.75195.41602-1.23926.41602-1.20703,0-1.97461-.83984-1.97461-2.1748,0-1.35938.7832-2.22266,2.02246-2.22266.69531,0,1.20703.28027,1.53516.83984-.00781-.13672-.01562-.2002-.01562-.30371v-.45605h.63965c-.04004.31152-.05664.51953-.05664.89551v2.8623c0,.7832-.14355,1.28711-.46289,1.66309-.33594.3916-.93555.60742-1.66406.60742-.79102,0-1.28711-.22363-1.81445-.7998l.51172-.35938ZM272.60627,48.7793c.91113,0,1.51855-.69531,1.51855-1.73438,0-1.00781-.5752-1.65527-1.4707-1.65527-.8877,0-1.43164.65527-1.43164,1.71875,0,1.03906.52832,1.6709,1.38379,1.6709Z"/>
        <path class="cls-1" d="M276.08674,49.27539c.04785-.30371.06445-.51953.06445-.90332v-2.50293c0-.35938-.0166-.58398-.06445-.90332h.66406v.54395c0,.0957,0,.15918-.02441.34375.37598-.65625.89551-.96777,1.61523-.96777.57617,0,1.02344.20801,1.2793.59961.15234.23145.22363.52734.22363.91992v1.97461c0,.40723.0166.63184.05664.89551h-.71973c.04004-.31152.05566-.55176.05566-.90332v-1.86328c0-.71973-.34375-1.10352-.97559-1.10352-.44727,0-.80762.2002-1.14258.63184-.20801.27148-.30469.47168-.36816.79102v1.54395c0,.35156.01562.5918.05566.90332h-.71973Z"/>
      </g>
      <g>
        <path class="cls-1" d="M161.77229,40.69141c-.17969-.25-.29004-.37012-.86914-.93945-.56055.33008-1.07031.46973-1.75977.46973-2.09863,0-3.44824-1.53906-3.44824-3.9375,0-2.40918,1.35938-3.95801,3.45801-3.95801,2.09961,0,3.44824,1.53906,3.44824,3.9375,0,.71973-.12012,1.35938-.36035,1.91895-.18945.4502-.35938.68945-.79883,1.15918.45898.4502.58984.57031.86914.79004l-.53906.55957ZM160.10236,37.97266c.16992.2002.30078.34961.80078.84961.30859-.33008.41895-.5.55859-.81934.21094-.51953.32031-1.08984.32031-1.74902,0-1.96875-1.01953-3.22852-2.61914-3.22852-1.6084,0-2.6582,1.2793-2.6582,3.24805,0,1.97949,1.0498,3.24805,2.68848,3.24805.4502,0,.80957-.08984,1.17969-.2998-.33984-.3291-.52051-.48926-.81934-.70898l.54883-.54004Z"/>
        <path class="cls-1" d="M168.16291,39.42188c0-.10938,0-.17969.03027-.43945-.5.81934-1.12012,1.18945-2.01855,1.18945-.7207,0-1.2793-.25977-1.59961-.74023-.17969-.28906-.2793-.67969-.2793-1.15918v-2.46875c0-.44922-.02051-.79883-.07031-1.11914h.89941c-.0498.34961-.06934.68945-.06934,1.12988v2.32812c0,.88965.42969,1.38965,1.20898,1.38965.56934,0,1.03906-.25,1.43945-.79004.25977-.34961.36914-.59961.45898-.99902v-1.92871c0-.43066-.01953-.78027-.07031-1.12988h.89062c-.05078.34961-.07031.66992-.07031,1.12988v3.12793c0,.44922.01953.72949.08008,1.12891h-.83008v-.64941Z"/>
        <path class="cls-1" d="M170.56526,37.38281c0-1.72852,1.03906-2.82812,2.66895-2.82812,1.62891,0,2.6582,1.09961,2.6582,2.81836,0,1.70898-1.03906,2.82812-2.64844,2.82812-1.63965,0-2.67871-1.08887-2.67871-2.81836ZM171.33479,37.36328c0,1.35938.73047,2.18848,1.89941,2.18848s1.88867-.8291,1.88867-2.17871-.71973-2.18848-1.86816-2.18848c-1.18945,0-1.91992.8291-1.91992,2.17871Z"/>
        <path class="cls-1" d="M178.99494,33.19531c-.05078.32031-.07031.67969-.07031,1.10938v.37988h.47949c.45996,0,.66992-.00977,1.01953-.05957v.75879c-.31934-.0498-.56934-.05957-1.01953-.05957h-.47949v3.47852c0,.28906.04004.43945.12988.5293.11035.11035.28027.16992.48926.16992.25977,0,.45996-.05957.79004-.25977l.21973.69922c-.41016.16992-.71973.23047-1.12891.23047-.43945,0-.7793-.11035-.98047-.31055-.19922-.19922-.2793-.48926-.2793-.95898v-3.57812h-.40039c-.33984,0-.56836.01953-.89844.05957v-.75879c.2793.0498.47949.05957.89844.05957h.40039v-.37988c0-.39941-.01953-.7793-.07031-1.10938h.90039Z"/>
        <path class="cls-1" d="M185.34358,39.3623c-.39062.34961-.58008.47949-.91992.60938s-.69922.2002-1.03906.2002c-1.09961,0-1.76953-.57031-1.76953-1.51953,0-.7998.5-1.37891,1.42969-1.63867.58984-.16992,1.06934-.23047,2.29883-.25977v-.58008c0-.67969-.42969-1.0293-1.25977-1.0293-.5498,0-.95898.13965-1.23926.42969-.12988.13965-.20996.2793-.30957.5791l-.78027-.16992c.18066-.45898.31055-.66895.56055-.88867.40918-.37988,1.00879-.57031,1.75879-.57031,1.31934,0,1.99902.55957,1.99902,1.63965v2.80859c0,.44922.01953.69922.08008,1.09863h-.80957v-.70898ZM185.34358,37.34277c-1.18945.03027-1.75977.10059-2.20898.29004-.50977.20996-.75977.5498-.75977,1.0293,0,.5498.41016.89941,1.05957.89941.5791,0,1.20898-.2793,1.59863-.70898.23047-.25.31055-.45996.31055-.85938v-.65039Z"/>
        <path class="cls-1" d="M189.46467,33.19531c-.05078.32031-.07031.67969-.07031,1.10938v.37988h.47949c.45996,0,.66992-.00977,1.01953-.05957v.75879c-.31934-.0498-.56934-.05957-1.01953-.05957h-.47949v3.47852c0,.28906.04004.43945.12988.5293.10938.11035.2793.16992.48926.16992.25977,0,.45996-.05957.79004-.25977l.21973.69922c-.41016.16992-.71973.23047-1.12891.23047-.44043,0-.78027-.11035-.97949-.31055-.2002-.19922-.28027-.48926-.28027-.95898v-3.57812h-.39941c-.33984,0-.57031.01953-.89941.05957v-.75879c.2793.0498.47949.05957.89941.05957h.39941v-.37988c0-.39941-.01953-.7793-.07031-1.10938h.90039Z"/>
        <path class="cls-1" d="M193.21467,32.47559v.88965h-.96973v-.88965h.96973ZM193.17463,34.68457c-.0498.34961-.06934.62988-.06934,1.12988v3.12793c0,.45996.01953.73926.06934,1.12891h-.89941c.0498-.42969.07031-.70898.07031-1.12891v-3.12793c0-.48047-.02051-.78027-.07031-1.12988h.89941Z"/>
        <path class="cls-1" d="M194.78498,37.38281c0-1.72852,1.03906-2.82812,2.66797-2.82812,1.62988,0,2.65918,1.09961,2.65918,2.81836,0,1.70898-1.04004,2.82812-2.64844,2.82812-1.63965,0-2.67871-1.08887-2.67871-2.81836ZM195.55451,37.36328c0,1.35938.72949,2.18848,1.89844,2.18848,1.16992,0,1.88965-.8291,1.88965-2.17871s-.71973-2.18848-1.86914-2.18848c-1.18945,0-1.91895.8291-1.91895,2.17871Z"/>
        <path class="cls-1" d="M201.68537,40.07129c.05957-.37988.08008-.64941.08008-1.12891v-3.12793c0-.4502-.02051-.73047-.08008-1.12988h.8291v.67969c0,.12012,0,.2002-.03027.42969.46973-.81934,1.12012-1.20898,2.01953-1.20898.71973,0,1.2793.25977,1.59863.74902.19043.29004.28027.66016.28027,1.14941v2.46875c0,.50977.01953.79004.06934,1.11914h-.89941c.05078-.38965.07031-.68945.07031-1.12891v-2.3291c0-.89941-.42969-1.37891-1.21973-1.37891-.55957,0-1.00879.25-1.42871.78906-.25977.33984-.37988.58984-.45996.99023v1.92871c0,.43945.02051.73926.07031,1.12891h-.89941Z"/>
      </g>
    </g>
  </g>
</svg>