<svg xmlns="http://www.w3.org/2000/svg" xmlns:xlink="http://www.w3.org/1999/xlink" width="211.38" height="51" viewBox="0 0 211.38 51">
  <defs>
    <clipPath id="clip-path">
      <rect id="長方形_1228" data-name="長方形 1228" width="211.38" height="51" fill="none"/>
    </clipPath>
  </defs>
  <g id="グループ_1269" data-name="グループ 1269" transform="translate(0 0)">
    <g id="グループ_1268" data-name="グループ 1268" transform="translate(0 0)" clip-path="url(#clip-path)">
      <path id="パス_561" data-name="パス 561" d="M134.6,45.991c-1.264.2-2.212,1.466-3.8,1.418a3.433,3.433,0,0,1,.971-1.647,1.5,1.5,0,0,1,1.526-.609c.147.039.452-.181.548-.356a.591.591,0,0,0-.236-.762.915.915,0,0,0-.532-.184,1.507,1.507,0,0,0-.689.188,5.661,5.661,0,0,0-2.24,2.427,2.439,2.439,0,0,0-.193.7.859.859,0,0,0,1,1.084,8.407,8.407,0,0,0,1.654-.513c.337-.122.655-.3,1.262-.577-.237.43-.306.6-.41.736-.492.663-1.018,1.3-1.486,1.981a2.251,2.251,0,0,1-1.556.943A116.22,116.22,0,0,0,115.8,54.75c-1.475.484-2.919,1.07-4.359,1.654a6.833,6.833,0,0,0-1.517.858c-.824.618-.72,1.384.271,1.744a6.252,6.252,0,0,0,1.994.36,26.646,26.646,0,0,0,12.9-3.087,22.449,22.449,0,0,0,5.433-3.9,2.315,2.315,0,0,1,1.8-.771,4.039,4.039,0,0,0,.87-.074.507.507,0,0,0,.228-.823,5.348,5.348,0,0,0-.76-.5c.4-.549.825-1.077,1.19-1.641s.7-1.163,1.008-1.766a.561.561,0,0,0-.254-.807m-6.114,7.353a25.34,25.34,0,0,1-13.449,5.11c-1.015.072-2.04.023-3.059,0-.5-.009-.5-.038-1.246-.465a3.23,3.23,0,0,1,.558-.435c.749-.348,1.5-.708,2.272-.993a115.354,115.354,0,0,1,14.821-4.356c.417-.093.838-.164,1.258-.245l.159.252c-.437.377-.85.784-1.313,1.126" transform="translate(-43.78 -17.552)" fill="#1a1311"/>
      <path id="パス_562" data-name="パス 562" d="M58.92,52.114a1.017,1.017,0,0,0,0-1.226c-.2-.317-.456-.6-.681-.9A2.7,2.7,0,0,1,59.632,48.9a6.162,6.162,0,0,0,.8-.329.562.562,0,0,0,.217-.482,1.376,1.376,0,0,0-.45-.5c-.054-.046-.188-.013-.281.009a4.328,4.328,0,0,0-2.49,1.659,1.062,1.062,0,0,0,.032,1.465c.2.267.432.506.654.761a2.922,2.922,0,0,1-1.288,1.567,26.345,26.345,0,0,1-8.871,4.589,5.634,5.634,0,0,0-.828.264.429.429,0,0,0-.229.606.574.574,0,0,0,.443.279,6.149,6.149,0,0,0,1.256-.329,38.311,38.311,0,0,0,8.445-4.542A11.793,11.793,0,0,0,58.283,52.9a5.313,5.313,0,0,0,.637-.788" transform="translate(-18.752 -19.04)" fill="#1a1311"/>
      <path id="パス_563" data-name="パス 563" d="M98.534,47.1c-.284.184-.532.421-.8.63a3.042,3.042,0,0,1-1.169.761l-.964-.84a2.81,2.81,0,0,0-1.771.793c-.252.193-.532.348-.869.566a5.037,5.037,0,0,0-.073-.7.786.786,0,0,0-1.07-.67,8.532,8.532,0,0,0-.909.327c.146-.4.253-.664.336-.934a3.772,3.772,0,0,0,.245-.981.7.7,0,0,0-.343-.558c-.17-.056-.44.106-.629.23-.1.067-.134.251-.183.387q-.791,2.193-1.574,4.389a1.076,1.076,0,0,0-.085.425c.011.13.079.339.161.36a.662.662,0,0,0,.521-.053,5.855,5.855,0,0,0,.552-.673c.511-.586,1.024-1.17,1.553-1.739.158-.17.354-.346.631-.211a.682.682,0,0,1,.068.121c.137.428-.194,1.06.456,1.256.48.144.792-.277,1.133-.536a4.989,4.989,0,0,1,1.626-1.066c.157.184.3.364.459.537a.971.971,0,0,0,1.2.269,18.8,18.8,0,0,0,2.092-1.306.464.464,0,0,0,.043-.659.431.431,0,0,0-.636-.119" transform="translate(-35.495 -18.202)" fill="#1a1311"/>
      <path id="パス_564" data-name="パス 564" d="M132.089,43.925a.506.506,0,0,0,.428-.638.576.576,0,0,0-.654-.447,3.041,3.041,0,0,0-.825.272,11.3,11.3,0,0,0-3.711,3.237,3.143,3.143,0,0,0-.409.768c-.244.67.2,1.246.879,1.063a16.086,16.086,0,0,0,2.31-.871c.572-.254,1.1-.6,1.694-.924.175.323.29.576.441.8a1.029,1.029,0,0,0,.862.477,4.421,4.421,0,0,0,2.109-.467.564.564,0,0,0,.215-.47.43.43,0,0,0-.529-.369,3.542,3.542,0,0,0-.549.194c-.451.151-.9.3-1.36.448-.521-.536-.273-1.29-1.062-1.464-.446.24-.953.524-1.47.79-.691.357-1.385.708-2.086,1.044a.446.446,0,0,1-.663-.193,2.3,2.3,0,0,1,.305-.59,7.678,7.678,0,0,1,4.074-2.664" transform="translate(-50.775 -17.143)" fill="#1a1311"/>
      <path id="パス_565" data-name="パス 565" d="M160.939,44.914c-.422.237-.835.492-1.241.757a10.455,10.455,0,0,1-3.153,1.47,3.075,3.075,0,0,1-1.719-.032.777.777,0,0,1-.6-1,4.007,4.007,0,0,1,.364-.762c.341.228.6.544.867.554a2.436,2.436,0,0,0,1.9-1.583.636.636,0,0,0-.471-.78,1.979,1.979,0,0,0-.577-.047,3.774,3.774,0,0,0-2.789,2.5,1.358,1.358,0,0,0,.833,1.656,2.738,2.738,0,0,0,1.118.2,13.367,13.367,0,0,0,5.834-2.094c.041-.022.094-.056.106-.095a1.613,1.613,0,0,0,.131-.533c-.011-.2-.392-.338-.6-.22m-4.866-.589c.147.341-.111.353-.226.413-.082.043-.221-.025-.459-.062l.685-.35" transform="translate(-61.431 -17.407)" fill="#1a1311"/>
      <path id="パス_566" data-name="パス 566" d="M72.324,47.2a5.9,5.9,0,0,0-2.161,1.907,1.055,1.055,0,0,0,.1,1.346c.249.29.523.56.769.821-.336.772-.314.807-.741,1.082-.858.553-1.728,1.092-2.623,1.581-.6.325-1.248.545-1.867.829-.465.214-.623.447-.547.738.093.359.475.468.973.18q2.273-1.315,4.509-2.7a3.445,3.445,0,0,0,.84-.8,1.176,1.176,0,0,0,.026-1.6c-.215-.3-.455-.587-.684-.88a3.265,3.265,0,0,1,1.129-1.032,4.823,4.823,0,0,0,.838-.578.944.944,0,0,0,.184-.651c-.014-.222-.506-.39-.745-.251" transform="translate(-26.113 -18.873)" fill="#1a1311"/>
      <path id="パス_567" data-name="パス 567" d="M83.7,49.785a6.519,6.519,0,0,0-.988.6,4.73,4.73,0,0,1-1.979.874c-.921.131-1.3-.346-.954-1.191a5.406,5.406,0,0,1,.331-.6,4.6,4.6,0,0,0,1.306-.08,3.87,3.87,0,0,0,1.677-1.359,1.719,1.719,0,0,0,.251-.669.632.632,0,0,0-.688-.73,1.5,1.5,0,0,0-.42.107A5.872,5.872,0,0,0,79.168,49.9c-.5,1.2.088,1.972,1.424,1.971a3.542,3.542,0,0,0,.721-.066,8.941,8.941,0,0,0,2.674-1.117c.082-.047.188-.123.2-.2.03-.173.074-.4-.011-.519a.544.544,0,0,0-.481-.187" transform="translate(-31.618 -18.664)" fill="#1a1311"/>
      <path id="パス_568" data-name="パス 568" d="M128.012,25.819c.175-.233.383-.441.563-.669a.5.5,0,0,0-.037-.666.584.584,0,0,0-.786-.111,5.656,5.656,0,0,0-.775.864c-1.223,1.755-2.422,3.528-3.646,5.283-.242.347-.643.987-.643.987-.546-.1-5.17-1.1-6.463-1.315-2.482-.419-6.943-1.07-8.193-1.282a.145.145,0,0,1-.088-.237c.2-.236.476-.539.649-.721A43.284,43.284,0,0,1,116.12,21.5a29.562,29.562,0,0,1,3.68-2.083,14.132,14.132,0,0,1,2.908-.919,4.328,4.328,0,0,1,1.581.067.738.738,0,0,1,.569,1.016A6.5,6.5,0,0,1,124,21.071a8.131,8.131,0,0,1-2.487,2.005,18.69,18.69,0,0,1-4.057,1.619,3.549,3.549,0,0,0-.8.321.422.422,0,0,0-.175.363c.048.17.172.4.315.443a1.286,1.286,0,0,0,.7-.016,15.684,15.684,0,0,0,5.4-2.5,12.79,12.79,0,0,0,1.984-1.921,4.423,4.423,0,0,0,.781-1.462,1.669,1.669,0,0,0-1.162-2.185,4.91,4.91,0,0,0-2.506.036,15.472,15.472,0,0,0-4.173,1.708,42.257,42.257,0,0,0-9.919,8.1c-.364.39-.732.776-1.08,1.145-1.035-.169-7.363-.956-14.031-1.418-6.843-.474-13.911-.7-15.008-.562a19.256,19.256,0,0,1,1.892-3.078,3.893,3.893,0,0,0,.477-.723.563.563,0,0,0-.149-.5.58.58,0,0,0-.523-.1,1.825,1.825,0,0,0-.608.591c-.464.741-.888,1.508-1.333,2.262-.317.538-.643,1.071-.954,1.589-1.169-.055-6.762.134-6.746.2a42.379,42.379,0,0,1,3.327-5.347c.175-.233.372-.452.528-.7a.439.439,0,0,0-.131-.638.736.736,0,0,0-.652-.025,4.855,4.855,0,0,0-.939,1.1c-.949,1.584-1.858,3.192-2.785,4.789-.167.287-.347.567-.5.82-.557.048-1.039.1-1.523.128A174.137,174.137,0,0,0,49.179,28.9c-4.13.632-8.243,1.381-12.362,2.082-.323.055-1.061.149-1.061.149.975-2.192,2.011-4.7,3.012-6.912,1.023-2.259,2.076-4.5,3.1-6.76a4.434,4.434,0,0,0,.356-1.1.844.844,0,0,0-1.187-.969,5.435,5.435,0,0,0-1.4.772c-1.269.984-2.549,1.961-3.741,3.035A106.059,106.059,0,0,0,23,33.282a3.474,3.474,0,0,1-1.981,1.324c-3.941,1.071-7.876,2.169-11.781,3.361-2.6.795-5.157,1.752-7.723,2.665a4.407,4.407,0,0,0-1.262.7.774.774,0,0,0,.289,1.3,1.279,1.279,0,0,0,.824-.089c.847-.368,1.655-.829,2.511-1.174a152.208,152.208,0,0,1,16.365-5.335c.2-.055.374-.085.515.2-.561.862-1.164,1.742-1.719,2.651-.633,1.037-1.249,2.086-1.82,3.158a3.321,3.321,0,0,0-.333,1.246.734.734,0,0,0,.377.56.779.779,0,0,0,.669-.08,1.718,1.718,0,0,0,.5-.687,46.9,46.9,0,0,1,4.236-7.142A2.168,2.168,0,0,1,24.058,35c2.978-.716,5.951-1.45,8.928-2.172.212-.051.893-.158.893-.158s-.33.774-.444,1.03c-.927,2.089-1.865,4.172-2.789,6.262a8.911,8.911,0,0,0-.506,1.361.587.587,0,0,0,.384.7.613.613,0,0,0,.788-.169,12.25,12.25,0,0,0,.993-2.108c.805-1.831,1.528-3.755,2.262-5.717.76-2.029.435-1.679,1.755-1.961,1.9-.407,3.814-.754,5.725-1.114a202.855,202.855,0,0,1,25.158-3.105,6.582,6.582,0,0,1,1.139-.038c-.137.326-.323.688-.418.906-.6,1.381-1.246,2.747-1.8,4.147-.61,1.536-1.148,3.1-1.7,4.659a1.835,1.835,0,0,0-.139,1.042.251.251,0,0,0,.41.129c.654-.591.81-1.483,1.456-1.938.883.528.97.557,1.73.246a7.075,7.075,0,0,0,3.447-3.031,3.089,3.089,0,0,0,.35-1.1.9.9,0,0,0-.908-1.072,2.281,2.281,0,0,0-1.369.425,11.139,11.139,0,0,0-2.489,2.235c-.275.311-.558.614-.837.919A43.823,43.823,0,0,1,69,28.528c.442-.889.232-.847,1.372-.855,1.458-.01,2.915-.1,4.373-.13.375-.008.836-.013,1.363.02-.256.534-.545,1.073-.755,1.493-.738,1.478-1.52,2.937-2.2,4.44a22.137,22.137,0,0,0-.883,2.619.644.644,0,0,0,.987.789,7.581,7.581,0,0,0,2.16-1.977c.107-.224-.283-.382-.437-.423a.711.711,0,0,0-.535.131,4.35,4.35,0,0,0-.473.55c-.188.2-.395.38-.693.663a31.619,31.619,0,0,1,3.991-8.2,230.7,230.7,0,0,1,28.653,1.727.219.219,0,0,1,.148.35c-.248.321-.574.67-.764.925a23.584,23.584,0,0,0-2.86,4.734,8.194,8.194,0,0,0-.88,3.364,3.014,3.014,0,0,0,2.472,3.168c.234.064.477.1.715.147a11.374,11.374,0,0,0,4.99-.133,59.954,59.954,0,0,0,6.451-1.861c1.454-.515.738-1.6.154-1.382-.594.19-1.135.473-1.637.665a40.314,40.314,0,0,1-5.448,1.757,12.7,12.7,0,0,1-3.6.383,5.3,5.3,0,0,1-2.111-.509,1.9,1.9,0,0,1-1.243-1.954,10.273,10.273,0,0,1,.476-2.565,20.507,20.507,0,0,1,4.4-6.811c.638.065,5.645.744,7.577,1.106,1.885.374,6.169,1.122,7.447,1.457-.761,1.259-1.487,2.411-2.066,3.624s-1.2,2.423-1.766,3.549a5.911,5.911,0,0,0-.527,1.474c-.166,1.244.548,1.478.9,1.4a2.53,2.53,0,0,0,1.6-1.167.5.5,0,0,0-.462-.71,7.384,7.384,0,0,0-1.03.33,32.167,32.167,0,0,1,4.305-8.19,81.824,81.824,0,0,1,9.838,2.624c-.515,1.138-1.037,2.175-1.457,3.251-.548,1.4-1.027,2.83-1.506,4.257a1.777,1.777,0,0,0-.025.852c.016.089.325.212.453.171a.894.894,0,0,0,.4-.394c.282-.455.519-.937.809-1.385a8.337,8.337,0,0,1,3.785-3.315,3.528,3.528,0,0,1,1.268-.238.58.58,0,0,1,.507.926,5.371,5.371,0,0,1-.921,1.111,13.173,13.173,0,0,1-3.334,2.078,5.25,5.25,0,0,0-.868.509.408.408,0,0,0-.057.387.44.44,0,0,0,.343.195,1.269,1.269,0,0,0,.548-.167c.973-.554,1.965-1.081,2.9-1.7a17.546,17.546,0,0,0,1.919-1.563,1.968,1.968,0,0,0,.643-1.277,1.026,1.026,0,0,0-.9-1.259,3.458,3.458,0,0,0-1.983.27,11.03,11.03,0,0,0-3.076,1.887l-.752.639a30.3,30.3,0,0,1,2.146-5.015c.56.158,1.247.369,1.835.581,1.555.559,3.095,1.158,4.647,1.724a1.838,1.838,0,0,0,.849.137.773.773,0,0,0,.519-.426.9.9,0,0,0-.134-.656.891.891,0,0,0-.469-.311c-.645-.22-1.3-.42-1.949-.615-1.536-.458-3.19-.958-4.811-1.437,0,0,.173-.284.219-.363a55.858,55.858,0,0,1,7.215-9.88,8.636,8.636,0,0,0,.766-.874.453.453,0,0,0-.173-.635c-.133-.092-.411-.155-.513-.08a5.611,5.611,0,0,0-.952.879,65.9,65.9,0,0,0-6.674,9.4c-.241.413-.474.852-.752,1.312-3.248-.847-6.469-1.671-9.769-2.44a7.318,7.318,0,0,1,.485-.733ZM34.307,31.4c-1.651.524-8.866,2.085-9.681,2.115C26.6,29.638,37.17,18.8,40.572,17.186c.011.145.071.3.025.4C38.559,22.2,36.313,26.877,34.307,31.4m35.1,1.676a3.511,3.511,0,0,1,.921-.386c.236-.071.479.2.432.441a1.4,1.4,0,0,1-.025.142,4.864,4.864,0,0,1-3.649,2.978,3.028,3.028,0,0,1-.621-.128,11.747,11.747,0,0,1,2.942-3.047" transform="translate(0 -6.129)" fill="#1a1311"/>
      <path id="パス_569" data-name="パス 569" d="M210.119,53.433a2.822,2.822,0,0,0-.73.023c.279-.36.389-.519.517-.663.42-.47.87-.916,1.259-1.411a.756.756,0,0,0,.1-.649c-.126-.276-.41-.157-.62-.033-.293.172-.579.356-.859.548-1.243.849-2.467,1.726-3.729,2.545-.771.5-1.592.927-2.4,1.36-.132.07-.336,0-.644,0,.152-.428.246-.742.375-1.041.153-.355.352-.69.5-1.048a.556.556,0,0,0-.288-.729.565.565,0,0,0-.738.277c-.256.728-.481,1.468-.688,2.212a1.255,1.255,0,0,0,.051.571.736.736,0,0,0,.841.635,3.773,3.773,0,0,0,1.228-.4c1.054-.6,2.074-1.257,3.113-1.884.213-.128.445-.225.754-.378a10.1,10.1,0,0,0-.308,1.1.578.578,0,0,0,.5.612,3.172,3.172,0,0,0,2.111-.809.581.581,0,0,0,.076-.527.693.693,0,0,0-.423-.312" transform="translate(-80.917 -20.241)" fill="#1a1311"/>
      <path id="パス_570" data-name="パス 570" d="M293.284,50.82a24.959,24.959,0,1,1,24.959-24.959A24.988,24.988,0,0,1,293.284,50.82m0-49.769a24.81,24.81,0,1,0,24.809,24.809A24.837,24.837,0,0,0,293.284,1.051" transform="translate(-107.404 -0.361)" fill="#1a1311"/>
      <path id="パス_571" data-name="パス 571" d="M292.923,51a25.5,25.5,0,1,1,25.5-25.5,25.529,25.529,0,0,1-25.5,25.5m0-50.851a25.351,25.351,0,1,0,25.35,25.35A25.379,25.379,0,0,0,292.923.149" transform="translate(-107.043 0)" fill="#1a1311"/>
      <path id="パス_572" data-name="パス 572" d="M302.621,4.216a.783.783,0,1,1,.136-.012.807.807,0,0,1-.136.012m0-1.414a.62.62,0,0,0-.11.01.632.632,0,0,0-.513.732.632.632,0,1,0,.623-.742" transform="translate(-120.819 -1.062)" fill="#1a1311"/>
      <path id="パス_573" data-name="パス 573" d="M296.139,5.927a.616.616,0,0,1-.211-1.194.616.616,0,0,1,.789.368.616.616,0,0,1-.578.826m0-1.082a.474.474,0,0,0-.16.028.465.465,0,1,0,.16-.028" transform="translate(-118.29 -1.879)" fill="#1a1311"/>
      <path id="パス_574" data-name="パス 574" d="M289.842,8.867a.76.76,0,0,1-.2-.027.776.776,0,1,1,.2.027m0-1.414a.632.632,0,1,0,.549.316.634.634,0,0,0-.549-.316" transform="translate(-115.703 -2.924)" fill="#1a1311"/>
      <path id="パス_575" data-name="パス 575" d="M284.252,12.782l-.07,0a.781.781,0,1,1,.07,0m0-1.414a.625.625,0,0,0-.4.148.632.632,0,0,0-.078.89.632.632,0,0,0,.89.078.632.632,0,0,0-.351-1.114c-.019,0-.038,0-.057,0" transform="translate(-113.466 -4.491)" fill="#1a1311"/>
      <path id="パス_576" data-name="パス 576" d="M279.534,17.554a.615.615,0,1,1,.4-1.087.616.616,0,0,1,.076.867.614.614,0,0,1-.472.219m0-1.081a.466.466,0,1,0,.3.109.464.464,0,0,0-.3-.109" transform="translate(-111.644 -6.534)" fill="#1a1311"/>
      <path id="パス_577" data-name="パス 577" d="M275.508,23.2a.774.774,0,0,1-.389-.1.782.782,0,1,1,1.067-.286.774.774,0,0,1-.474.364.785.785,0,0,1-.2.027m0-1.414a.632.632,0,0,0-.317,1.179.632.632,0,1,0,.317-1.179" transform="translate(-109.967 -8.661)" fill="#1a1311"/>
      <path id="パス_578" data-name="パス 578" d="M272.624,29.387a.782.782,0,1,1,.33-.074.784.784,0,0,1-.33.074m0-1.414a.633.633,0,1,0,.215.038.616.616,0,0,0-.215-.038" transform="translate(-108.812 -11.137)" fill="#1a1311"/>
      <path id="パス_579" data-name="パス 579" d="M270.968,35.924a.588.588,0,0,1-.107-.01.614.614,0,1,1,.107.01m0-1.082a.467.467,0,1,0,.081.007.463.463,0,0,0-.081-.007" transform="translate(-108.215 -13.887)" fill="#1a1311"/>
      <path id="パス_580" data-name="パス 580" d="M270.855,49.58a.783.783,0,0,1-.768-.646.781.781,0,1,1,.9.634.807.807,0,0,1-.137.012m-.108-1.4a.634.634,0,0,0-.513.732.633.633,0,0,0,.732.512.631.631,0,0,0,.253-1.139.626.626,0,0,0-.472-.1" transform="translate(-108.104 -19.22)" fill="#1a1311"/>
      <path id="パス_581" data-name="パス 581" d="M272.734,56.118a.619.619,0,1,1,.211-.038.61.61,0,0,1-.211.038m0-1.083a.477.477,0,0,0-.16.028.466.466,0,1,0,.16-.028" transform="translate(-108.922 -21.97)" fill="#1a1311"/>
      <path id="パス_582" data-name="パス 582" d="M275.51,62.359a.78.78,0,1,1,.389-.1.782.782,0,0,1-.389.1m0-1.414a.625.625,0,0,0-.315.085.632.632,0,1,0,.863.231.636.636,0,0,0-.548-.316" transform="translate(-109.966 -24.335)" fill="#1a1311"/>
      <path id="パス_583" data-name="パス 583" d="M279.426,67.951c-.023,0-.046,0-.07,0a.781.781,0,1,1,.667-1.281.782.782,0,0,1-.6,1.284m0-1.414a.635.635,0,1,0,.055,0,.548.548,0,0,0-.055,0" transform="translate(-111.534 -26.574)" fill="#1a1311"/>
      <path id="パス_584" data-name="パス 584" d="M284.36,72.722a.616.616,0,1,1,.472-.219.613.613,0,0,1-.472.219M284,71.807h0a.466.466,0,1,0,.657-.058.467.467,0,0,0-.657.058" transform="translate(-113.576 -28.616)" fill="#1a1311"/>
      <path id="パス_585" data-name="パス 585" d="M289.84,76.692a.781.781,0,1,1,.678-.39.777.777,0,0,1-.678.39m0-1.414a.617.617,0,0,0-.164.022.623.623,0,1,0,.164-.022" transform="translate(-115.704 -30.073)" fill="#1a1311"/>
      <path id="パス_586" data-name="パス 586" d="M296.028,79.577a.783.783,0,1,1,.33-.074.779.779,0,0,1-.33.074m-.594-1h0a.632.632,0,1,0,1.188.432.632.632,0,1,0-1.187-.432" transform="translate(-118.179 -31.227)" fill="#1a1311"/>
      <path id="パス_587" data-name="パス 587" d="M302.733,81.289a.662.662,0,0,1-.109-.01.611.611,0,1,1,.109.01m0-1.082a.467.467,0,1,0,.081.007.457.457,0,0,0-.081-.007" transform="translate(-120.93 -32.045)" fill="#1a1311"/>
      <path id="パス_588" data-name="パス 588" d="M316.219,81.344a.782.782,0,1,1,.137-.012.761.761,0,0,1-.137.012m0-1.414a.632.632,0,1,0,.622.522.63.63,0,0,0-.622-.522" transform="translate(-126.263 -31.935)" fill="#1a1311"/>
      <path id="パス_589" data-name="パス 589" d="M322.924,79.522a.616.616,0,1,1,.558-.356.609.609,0,0,1-.347.318.626.626,0,0,1-.211.037m-.438-.456a.467.467,0,0,0,.6.279.467.467,0,0,0,.278-.6.466.466,0,1,0-.876.319" transform="translate(-129.012 -31.338)" fill="#1a1311"/>
      <path id="パス_590" data-name="パス 590" d="M329,76.693a.794.794,0,0,1-.2-.027.778.778,0,1,1,.2.027m0-1.414a.632.632,0,0,0-.163,1.242.623.623,0,0,0,.479-.063A.632.632,0,0,0,329,75.279" transform="translate(-131.378 -30.073)" fill="#1a1311"/>
      <path id="パス_591" data-name="パス 591" d="M334.594,72.777a.684.684,0,0,1-.07,0,.78.78,0,1,1,.07,0m0-1.413a.632.632,0,1,0,.485.226.628.628,0,0,0-.485-.226" transform="translate(-133.616 -28.506)" fill="#1a1311"/>
      <path id="パス_592" data-name="パス 592" d="M339.528,67.9a.617.617,0,1,1,.055,0l-.055,0m0-1.082a.466.466,0,1,0,.3.109.464.464,0,0,0-.3-.109" transform="translate(-135.659 -26.684)" fill="#1a1311"/>
      <path id="パス_593" data-name="パス 593" d="M343.333,62.359a.784.784,0,1,1,.2-.027.793.793,0,0,1-.2.027m0-1.414a.613.613,0,0,0-.164.022.627.627,0,0,0-.384.294.633.633,0,0,0,.232.864.632.632,0,1,0,.317-1.18" transform="translate(-137.115 -24.335)" fill="#1a1311"/>
      <path id="パス_594" data-name="パス 594" d="M346.218,56.173a.782.782,0,1,1,.735-.515.779.779,0,0,1-.735.515M346,55.985a.632.632,0,1,0-.378-.81.634.634,0,0,0,.378.81" transform="translate(-138.27 -21.859)" fill="#1a1311"/>
      <path id="パス_595" data-name="パス 595" d="M348.1,49.524a.587.587,0,0,1-.107-.01.614.614,0,1,1,.107.01m-.081-.157a.468.468,0,0,0,.54-.378.466.466,0,1,0-.54.378" transform="translate(-139.088 -19.33)" fill="#1a1311"/>
      <path id="パス_596" data-name="パス 596" d="M347.986,35.98a.782.782,0,0,1-.64-1.23.782.782,0,0,1,1.41.312.783.783,0,0,1-.634.906.814.814,0,0,1-.136.012m0-1.414a.632.632,0,1,0,.622.522.635.635,0,0,0-.622-.522" transform="translate(-138.977 -13.776)" fill="#1a1311"/>
      <path id="パス_597" data-name="パス 597" d="M346.329,29.332a.619.619,0,1,1,.211-.038.616.616,0,0,1-.211.038m0-1.083a.466.466,0,0,0-.438.626.467.467,0,0,0,.6.279.467.467,0,0,0,.279-.6.467.467,0,0,0-.439-.307" transform="translate(-138.38 -11.248)" fill="#1a1311"/>
      <path id="パス_598" data-name="パス 598" d="M343.336,23.2a.782.782,0,0,1-.392-1.459.781.781,0,1,1,.392,1.459m0-1.414a.631.631,0,1,0,.165.022.645.645,0,0,0-.165-.022" transform="translate(-137.115 -8.661)" fill="#1a1311"/>
      <path id="パス_599" data-name="パス 599" d="M339.421,17.609a.682.682,0,0,1-.07,0,.78.78,0,1,1,.07,0m0-1.413a.632.632,0,0,0-.055,1.261.632.632,0,1,0,.055-1.261" transform="translate(-135.548 -6.423)" fill="#1a1311"/>
      <path id="パス_600" data-name="パス 600" d="M334.7,12.727a.617.617,0,1,1,.055,0c-.018,0-.037,0-.055,0m0-1.082-.041,0a.466.466,0,0,0-.259.822.47.47,0,0,0,.34.107.466.466,0,0,0-.04-.931" transform="translate(-133.727 -4.602)" fill="#1a1311"/>
      <path id="パス_601" data-name="パス 601" d="M329,8.867a.781.781,0,1,1,.392-1.458A.781.781,0,0,1,329,8.867m0-1.414a.646.646,0,0,0-.165.022A.633.633,0,1,0,329,7.453" transform="translate(-131.378 -2.924)" fill="#1a1311"/>
      <path id="パス_602" data-name="パス 602" d="M322.815,5.982a.781.781,0,1,1,.329-.073.78.78,0,0,1-.329.073m0-1.414a.632.632,0,1,0,.572.365.625.625,0,0,0-.357-.327.616.616,0,0,0-.215-.038" transform="translate(-128.902 -1.769)" fill="#1a1311"/>
      <path id="パス_603" data-name="パス 603" d="M316.333,4.16a.616.616,0,0,1-.608-.723.615.615,0,0,1,1.212.214.616.616,0,0,1-.6.509m0-1.082a.466.466,0,1,0,.267.848.461.461,0,0,0,.192-.3.467.467,0,0,0-.378-.54.474.474,0,0,0-.082-.007" transform="translate(-126.373 -1.173)" fill="#1a1311"/>
      <rect id="長方形_1211" data-name="長方形 1211" width="0.149" height="11.359" transform="translate(191.802 4.703)" fill="#1a1311"/>
      <path id="パス_604" data-name="パス 604" d="M311.486,19.138,308.1,6.485l.145-.039L311.63,19.1Z" transform="translate(-123.323 -2.58)" fill="#1a1311"/>
      <rect id="長方形_1212" data-name="長方形 1212" width="0.15" height="14.39" transform="matrix(0.866, -0.5, 0.5, 0.866, 177.583, 5.52)" fill="#1a1311"/>
      <rect id="長方形_1213" data-name="長方形 1213" width="0.149" height="15.064" transform="matrix(0.707, -0.707, 0.707, 0.707, 171.226, 9.583)" fill="#1a1311"/>
      <rect id="長方形_1214" data-name="長方形 1214" width="0.149" height="14.985" transform="translate(166.615 15.629) rotate(-59.999)" fill="#1a1311"/>
      <path id="パス_605" data-name="パス 605" d="M287.989,41.707l-13.875-3.718.039-.145,13.875,3.718Z" transform="translate(-109.721 -15.149)" fill="#1a1311"/>
      <rect id="長方形_1215" data-name="長方形 1215" width="7.201" height="0.149" transform="matrix(0.707, -0.707, 0.707, 0.707, 176.786, 45.112)" fill="#1a1311"/>
      <path id="パス_606" data-name="パス 606" d="M303.88,75.084l-.129-.075,2.611-4.522.13.075Z" transform="translate(-121.584 -28.214)" fill="#1a1311"/>
      <path id="パス_607" data-name="パス 607" d="M312.386,76.275l-.144-.039.9-3.373.144.038Z" transform="translate(-124.982 -29.165)" fill="#1a1311"/>
      <rect id="長方形_1216" data-name="長方形 1216" width="0.149" height="2.104" transform="translate(191.802 44.193)" fill="#1a1311"/>
      <path id="パス_608" data-name="パス 608" d="M326.166,73.925l-.274-1.024.145-.039.274,1.024Z" transform="translate(-130.446 -29.165)" fill="#1a1311"/>
      <rect id="長方形_1217" data-name="長方形 1217" width="0.149" height="0.374" transform="matrix(0.866, -0.5, 0.5, 0.866, 198.845, 42.347)" fill="#1a1311"/>
      <path id="パス_609" data-name="パス 609" d="M342.943,56.432l-.375-.1.038-.145.375.1Z" transform="translate(-137.121 -22.49)" fill="#1a1311"/>
      <rect id="長方形_1218" data-name="長方形 1218" width="1.082" height="0.149" transform="translate(205.941 30.053)" fill="#1a1311"/>
      <path id="パス_610" data-name="パス 610" d="M342.606,43.822l-.039-.145,2.051-.549.039.145Z" transform="translate(-137.121 -17.263)" fill="#1a1311"/>
      <path id="パス_611" data-name="パス 611" d="M340.266,37.351l-.075-.13,3.059-1.766.075.13Z" transform="translate(-136.17 -14.192)" fill="#1a1311"/>
      <rect id="長方形_1219" data-name="長方形 1219" width="5.266" height="0.149" transform="translate(201.769 20.129) rotate(-44.999)" fill="#1a1311"/>
      <rect id="長方形_1220" data-name="長方形 1220" width="1.112" height="0.149" transform="matrix(0.501, -0.866, 0.866, 0.501, 201.907, 12.602)" fill="#1a1311"/>
      <path id="パス_612" data-name="パス 612" d="M326.314,20.94l-.145-.039,2.251-8.4.145.039Z" transform="translate(-130.557 -5.004)" fill="#1a1311"/>
      <path id="パス_613" data-name="パス 613" d="M310.123,42.159a.541.541,0,1,1-.541-.541.541.541,0,0,1,.541.541" transform="translate(-123.701 -16.659)" fill="#1a1311"/>
      <path id="パス_614" data-name="パス 614" d="M321.067,66.863a1.059,1.059,0,1,1,1.174.931,1.059,1.059,0,0,1-1.174-.931" transform="translate(-128.512 -26.291)" fill="#1a1311"/>
      <rect id="長方形_1221" data-name="長方形 1221" width="0.224" height="36.005" transform="translate(177.044 8.481) rotate(-27.21)" fill="#1a1311"/>
      <path id="パス_615" data-name="パス 615" d="M294.328,14.1l-.272-2.516,1.936,1.629-1.1-.069Zm-.083-2.161.184,1.695.377-.644.745.046Z" transform="translate(-117.703 -4.637)" fill="#1a1311"/>
      <path id="パス_616" data-name="パス 616" d="M294.214,11.879l.7,1.306.925.058Z" transform="translate(-117.767 -4.755)" fill="#1a1311"/>
      <path id="パス_617" data-name="パス 617" d="M310.006,3.677l-.922-1.434v1.4h-.149V1.988l.137-.04.922,1.434V1.947h.15V3.637Z" transform="translate(-123.659 -0.78)" fill="#1a1311"/>
      <path id="パス_618" data-name="パス 618" d="M270.312,41.341a.707.707,0,1,1-.706.706.707.707,0,0,1,.706-.706" transform="translate(-107.917 -16.548)" fill="#1a1311"/>
      <path id="パス_619" data-name="パス 619" d="M348.63,42.755a.707.707,0,1,1,.706-.706.707.707,0,0,1-.706.706" transform="translate(-139.265 -16.548)" fill="#1a1311"/>
      <path id="パス_620" data-name="パス 620" d="M306.742,46.064a7.666,7.666,0,0,1-4.8-1.691l.094-.116A7.5,7.5,0,1,0,311.2,32.386l.089-.12a7.648,7.648,0,0,1-4.548,13.8" transform="translate(-120.861 -12.916)" fill="#1a1311"/>
      <path id="パス_621" data-name="パス 621" d="M288.692,34.382a1.787,1.787,0,0,1-.423-1.681c.565-1.339,4-1.266,8.961.194l-.042.143c-4.81-1.414-8.256-1.524-8.781-.279a1.657,1.657,0,0,0,.407,1.537Z" transform="translate(-115.355 -12.707)" fill="#1a1311"/>
      <path id="パス_622" data-name="パス 622" d="M308.635,46.436a46.5,46.5,0,0,1-7.9-2.588c-4.449-1.876-8.292-4.167-10.281-6.127l.1-.106c1.976,1.948,5.8,4.226,10.234,6.1a46.443,46.443,0,0,0,7.87,2.579Z" transform="translate(-116.263 -15.057)" fill="#1a1311"/>
      <path id="パス_623" data-name="パス 623" d="M325.291,50.463a16.619,16.619,0,0,1-2.921-.31l.026-.147c3.019.552,4.968.35,5.349-.554.279-.663-.322-1.7-1.695-2.924l.1-.112c1.444,1.286,2.043,2.356,1.732,3.093-.266.632-1.162.953-2.592.953" transform="translate(-129.037 -18.58)" fill="#1a1311"/>
      <path id="パス_624" data-name="パス 624" d="M325.346,44.169a28.029,28.029,0,0,0-2.839-1.934l.077-.128a28.019,28.019,0,0,1,2.855,1.944Z" transform="translate(-129.092 -16.855)" fill="#1a1311"/>
      <path id="パス_625" data-name="パス 625" d="M327.575,46.168a.573.573,0,1,1,.468-.9.572.572,0,0,1-.468.9m0-1a.423.423,0,0,0-.073.84.414.414,0,0,0,.316-.07.423.423,0,0,0-.169-.763.389.389,0,0,0-.074-.007" transform="translate(-130.891 -18.022)" fill="#1a1311"/>
      <path id="パス_626" data-name="パス 626" d="M289.3,37.179a.727.727,0,1,1,.306-.068.726.726,0,0,1-.306.068m-.2-.185a.576.576,0,1,0-.344-.738.576.576,0,0,0,.344.738" transform="translate(-115.508 -14.301)" fill="#1a1311"/>
      <path id="パス_627" data-name="パス 627" d="M321.18,52.519a.572.572,0,1,1,.2-.034.574.574,0,0,1-.2.034m-.4-.428a.423.423,0,1,0,.253-.542.424.424,0,0,0-.253.542" transform="translate(-128.331 -20.564)" fill="#1a1311"/>
      <path id="パス_628" data-name="パス 628" d="M329.612,25.866l-.03-.146a3.713,3.713,0,0,0,1.445-6.639,3.84,3.84,0,0,1-5.687,4.188,3.829,3.829,0,0,0,.33.726l-.129.076a3.978,3.978,0,0,1-.4-.949l-.054-.191.167.109a3.692,3.692,0,0,0,5.585-4.1l-.054-.191.167.109a.25.25,0,0,0,.028.015.394.394,0,0,1,.049.028,3.862,3.862,0,0,1-1.415,6.969" transform="translate(-130.123 -7.504)" fill="#1a1311"/>
      <path id="パス_629" data-name="パス 629" d="M308.764,81.207a.707.707,0,1,1,.707.706.707.707,0,0,1-.707-.706" transform="translate(-123.591 -32.223)" fill="#1a1311"/>
      <path id="パス_630" data-name="パス 630" d="M312.669,53.859a10.894,10.894,0,1,1,10.894-10.894,10.907,10.907,0,0,1-10.894,10.894m0-21.639a10.745,10.745,0,1,0,10.745,10.745A10.757,10.757,0,0,0,312.669,32.22" transform="translate(-120.793 -12.837)" fill="#1a1311"/>
      <path id="パス_631" data-name="パス 631" d="M295.451,49.741c-.3,0-.62-.008-1-.025-.086,0-.17-.009-.255-.014l-.027,0c-.254-.014-.514-.034-.771-.058l-.089-.008-.151-.014c-.329-.035-.653-.076-.964-.123l-.113-.019L292,49.465c-.26-.042-.521-.089-.778-.139l-.275-.056c-.284-.06-.56-.124-.82-.19L290,49.05c-.288-.074-.588-.16-.918-.26l-.172-.055-.073-.023c-.238-.076-.473-.156-.7-.237l-.063-.022-.178-.064c-.32-.119-.607-.232-.877-.346l-.115-.05c-.245-.1-.5-.219-.751-.34l-.247-.119c-.23-.113-.458-.23-.68-.348l-.07-.037-.1-.053c-.264-.144-.536-.3-.807-.464l-.12-.074-.075-.047q-.312-.193-.617-.4l-.22-.148c-.294-.2-.535-.372-.76-.541s-.465-.356-.735-.577c-.064-.052-.127-.1-.19-.158-.2-.167-.383-.326-.564-.489l-.066-.058c-.035-.031-.07-.062-.1-.094-.233-.213-.458-.428-.669-.638L280,43.279c-.175-.177-.35-.361-.522-.548-.062-.067-.122-.133-.183-.2-.186-.208-.365-.414-.533-.615l-.08-.095c-.184-.224-.372-.462-.573-.73-.037-.049-.074-.1-.11-.149l-.04-.053q-.214-.291-.418-.588l-.05-.073-.092-.136c-.185-.276-.35-.533-.5-.784l-.064-.108c-.136-.225-.269-.458-.408-.71l-.13-.24c-.12-.224-.237-.453-.348-.679l-.034-.07c-.017-.034-.035-.068-.051-.1l-.031-.062-.245-.547c-.055-.122-.11-.243-.162-.366l-.025-.055c-.043-.1-.082-.2-.12-.306l-.117-.3c-.042-.106-.083-.211-.122-.317-.047-.131-.091-.263-.134-.4l-.1-.293c-.035-.1-.071-.209-.1-.315-.042-.136-.08-.273-.118-.411l-.083-.3c-.031-.1-.061-.209-.088-.315-.037-.143-.069-.288-.1-.433l-.07-.3c-.024-.1-.047-.2-.068-.306-.031-.151-.057-.3-.083-.456l-.055-.314c-.018-.1-.036-.194-.05-.292-.026-.167-.046-.335-.065-.5l-.017-.142c-.007-.054-.014-.109-.021-.163-.012-.09-.024-.18-.034-.271-.02-.208-.035-.417-.049-.626l-.007-.1c0-.049-.008-.1-.012-.147-.006-.072-.012-.144-.016-.217-.019-.372-.028-.745-.028-1.109a21.713,21.713,0,1,1,21.714,21.713m-11.315-3.357.076.047.118.073c.27.163.54.318.8.461l.1.051.071.037c.22.118.447.234.675.346l.246.119c.252.119.5.233.746.337l.115.05c.268.113.553.225.871.344l.176.063.064.023c.224.08.458.159.694.234l.073.023.17.054c.327.1.625.185.911.259l.124.03c.258.065.533.128.815.188l.273.056c.254.05.514.1.772.137l.083.014.11.018c.309.046.632.088.958.122l.149.014.089.008c.256.024.514.044.766.058l.027,0c.084,0,.169.01.253.014.378.017.693.025.993.025a21.564,21.564,0,1,0-21.564-21.564c0,.362.009.733.028,1.1,0,.071.01.142.016.212,0,.05.008.1.011.149l.007.106c.014.208.028.415.048.621.009.089.021.178.033.266.007.055.014.11.021.164l.017.142c.02.167.04.333.065.5.014.1.032.192.05.287l.056.316c.026.151.052.3.082.452.02.1.044.2.068.3l.07.306c.032.143.064.287.1.428.027.1.056.208.086.311l.084.3c.037.137.075.273.116.408.032.1.067.207.1.31l.1.294c.043.131.086.261.133.39.039.106.08.209.121.314l.117.3c.038.1.076.2.118.3l.024.055c.052.124.107.244.161.364l.274.606c.016.034.033.067.05.1l.035.071c.111.225.227.453.346.675.043.08.085.16.129.239.138.251.27.481.405.705l.063.107c.152.249.315.5.5.778l.091.134.051.073q.2.3.415.584l.04.054c.036.05.073.1.109.148.2.266.387.5.57.725l.08.094c.166.2.344.405.53.611.06.067.12.133.181.2.171.186.345.369.519.545l.131.134c.209.209.433.422.665.633.034.031.068.062.1.092l.067.059q.27.241.548.474c.076.064.139.116.2.168.268.219.506.407.729.573s.464.338.756.537c.068.047.137.092.206.138.214.143.419.273.625.4" transform="translate(-109.57 -2.528)" fill="#1a1311"/>
      <path id="パス_632" data-name="パス 632" d="M295.09,49.921c-.309,0-.645-.008-1.028-.026l-.236-.013-.061,0c-.254-.014-.512-.034-.768-.058l-.091-.008-.186-.017c-.359-.038-.684-.079-.994-.127l-.074-.013-.06-.01c-.276-.044-.565-.1-.856-.153l-.291-.061c-.248-.053-.5-.111-.748-.173l-.092-.022-.144-.036c-.322-.084-.639-.174-.942-.267l-.111-.036-.082-.026c-.248-.079-.5-.164-.747-.253l-.278-.1c-.244-.091-.49-.188-.733-.288l-.077-.032-.1-.043c-.287-.122-.583-.255-.88-.4l-.131-.064-.084-.042c-.227-.112-.451-.226-.666-.341-.085-.045-.17-.091-.254-.137-.254-.14-.5-.281-.731-.42l-.109-.064c-.257-.156-.521-.325-.807-.517l-.143-.1-.075-.052q-.3-.206-.594-.422l-.053-.038-.171-.127c-.285-.216-.532-.41-.754-.593s-.46-.39-.725-.628l-.159-.145-.046-.043q-.267-.247-.526-.5l-.064-.063c-.041-.04-.082-.08-.122-.121-.241-.242-.456-.468-.659-.691l-.086-.1c-.179-.2-.362-.41-.546-.63-.061-.073-.122-.148-.182-.222q-.235-.289-.459-.585l-.054-.07c-.029-.039-.059-.077-.088-.116-.193-.26-.38-.522-.554-.779l-.065-.1-.044-.067c-.143-.215-.284-.435-.418-.652q-.076-.124-.151-.249c-.132-.22-.263-.448-.389-.677l-.039-.069c-.019-.034-.038-.067-.056-.1-.148-.274-.3-.562-.439-.856L275,37.245l-.094-.2c-.047-.1-.094-.2-.139-.3l-.106-.251q-.072-.166-.142-.335l-.1-.232c-.026-.065-.049-.129-.073-.193-.016-.046-.033-.091-.05-.136-.06-.157-.117-.306-.171-.458-.065-.182-.125-.365-.186-.549l-.019-.059c-.044-.134-.088-.269-.13-.4-.056-.188-.109-.378-.161-.568l-.026-.092c-.034-.124-.068-.248-.1-.374-.045-.181-.086-.363-.126-.545l-.038-.168c-.025-.113-.051-.226-.074-.34-.035-.179-.067-.36-.1-.541l-.037-.216c-.019-.1-.037-.209-.053-.315-.028-.187-.05-.375-.072-.564l-.029-.243c-.012-.094-.024-.187-.034-.281-.022-.227-.037-.456-.053-.685l0-.046c0-.05-.007-.1-.011-.148-.006-.074-.012-.149-.016-.224-.019-.379-.028-.755-.028-1.117A22.254,22.254,0,1,1,295.09,49.921m0-44.359a22.129,22.129,0,0,0-22.1,22.1c0,.36.01.733.028,1.11,0,.073.009.146.015.219,0,.05.008.1.011.15l0,.047c.015.227.03.455.052.681.01.093.021.185.033.277l.03.244c.022.187.044.374.072.56.015.1.033.207.052.31l.038.217c.031.179.061.359.1.537.022.113.047.224.073.336l.038.169c.04.181.08.362.125.541.031.124.065.247.1.371l.025.092c.052.189.1.377.16.564.041.134.085.268.128.4l.019.059c.06.183.12.365.185.546.053.151.11.3.167.448l.053.144c.023.063.046.125.069.187l.1.231c.047.113.094.224.142.335l.106.25c.043.1.09.194.136.291l.094.2c.02.044.041.088.062.131.142.292.289.578.435.85.018.034.037.066.055.1l.04.071c.125.227.255.453.386.672.05.082.1.165.151.247.133.216.273.434.415.648l.045.068c.021.032.042.065.064.1.173.255.359.516.551.774.028.038.058.076.087.114l.054.071q.224.294.457.581c.06.074.12.147.181.22.182.218.364.429.542.626l.084.1c.2.221.416.446.655.686.04.04.08.08.121.119l.064.063q.257.254.523.5l.047.043.157.144c.263.236.5.439.715.62s.47.378.753.593c.056.043.112.084.169.125l.053.039q.291.214.59.419l.075.052.141.1c.285.191.547.359.8.514l.108.063c.23.139.474.279.726.417l.253.136c.214.115.436.228.662.339l.085.043.128.063c.3.141.589.274.874.4l.1.042.079.032c.241.1.486.2.728.287l.276.1c.246.088.5.173.742.251l.083.027.109.035c.3.093.615.182.936.266l.141.035.094.023c.246.062.5.119.742.172l.29.06c.289.058.575.109.85.152l.133.023c.308.047.631.088.988.125l.184.017.092.008c.253.023.51.043.762.058l.061,0,.234.013c.381.017.715.026,1.021.026a22.1,22.1,0,0,0,0-44.209" transform="translate(-109.21 -2.167)" fill="#1a1311"/>
      <path id="パス_633" data-name="パス 633" d="M286.413,62.146a3.008,3.008,0,1,1,2.844-2.042,3.014,3.014,0,0,1-2.844,2.042m0-5.867a2.858,2.858,0,1,0,.916.152,2.863,2.863,0,0,0-.916-.152" transform="translate(-113.439 -22.468)" fill="#1a1311"/>
      <path id="パス_634" data-name="パス 634" d="M288.51,52.394l-.122-.086a4.377,4.377,0,0,0,.835-2.351,5.156,5.156,0,0,1,.369-2.7,2.7,2.7,0,0,0-.57,2.065,1.9,1.9,0,0,1-.671,1.745,1.934,1.934,0,0,0-.67,1.3l-.149-.005a2.08,2.08,0,0,1,.71-1.391,1.755,1.755,0,0,0,.633-1.62,3.009,3.009,0,0,1,.979-2.593l.378-.314-.267.411a4.916,4.916,0,0,0-.592,3.084,4.428,4.428,0,0,1-.861,2.458" transform="translate(-115.091 -18.589)" fill="#1a1311"/>
      <path id="パス_635" data-name="パス 635" d="M290.879,53.015a4.3,4.3,0,0,1,.128-1.62,3,3,0,0,0,.149-2.328,2.994,2.994,0,0,1,0-2.049l.141.05A2.9,2.9,0,0,0,291.287,49a3.116,3.116,0,0,1-.14,2.449A4.212,4.212,0,0,0,291.028,53Z" transform="translate(-116.421 -18.82)" fill="#1a1311"/>
      <path id="パス_636" data-name="パス 636" d="M283.394,53.826a2.081,2.081,0,0,1-.35-1.522,1.752,1.752,0,0,0-.557-1.648,3.011,3.011,0,0,1-.917-2.616l.088-.483.06.487a4.924,4.924,0,0,0,1.529,2.744,4.428,4.428,0,0,1,.921,2.435l-.149.013a4.383,4.383,0,0,0-.872-2.338,5.15,5.15,0,0,1-1.452-2.3,2.7,2.7,0,0,0,.891,1.949,1.9,1.9,0,0,1,.607,1.767,1.934,1.934,0,0,0,.319,1.424Z" transform="translate(-112.695 -19.036)" fill="#1a1311"/>
      <path id="パス_637" data-name="パス 637" d="M285.234,53.169a4.294,4.294,0,0,1-.944-1.324,2.994,2.994,0,0,0-1.382-1.878,3,3,0,0,1-1.315-1.572l.14-.052a2.9,2.9,0,0,0,1.23,1.486,3.11,3.11,0,0,1,1.466,1.966,4.206,4.206,0,0,0,.907,1.266Z" transform="translate(-112.715 -19.35)" fill="#1a1311"/>
      <path id="パス_638" data-name="パス 638" d="M280.933,59.678a2.081,2.081,0,0,1-1.247-.941,1.753,1.753,0,0,0-1.485-.9,2.668,2.668,0,0,1-1.117-.267l.065-.135a2.508,2.508,0,0,0,1.054.252,1.9,1.9,0,0,1,1.6.964,1.936,1.936,0,0,0,1.16.885Z" transform="translate(-110.91 -22.988)" fill="#1a1311"/>
      <path id="パス_639" data-name="パス 639" d="M280.894,58.517a4.376,4.376,0,0,0-2.17-1.23,5.068,5.068,0,0,1-1.984-.489l.064-.135a4.914,4.914,0,0,0,1.926.474A4.436,4.436,0,0,1,281,58.412Z" transform="translate(-110.772 -22.681)" fill="#1a1311"/>
      <path id="パス_640" data-name="パス 640" d="M281.484,57.2a4.291,4.291,0,0,1-1.574-.407,3,3,0,0,0-2.266-.551,2.028,2.028,0,0,1-1.1-.007l.036-.145a1.872,1.872,0,0,0,1.022.01,3.116,3.116,0,0,1,2.388.563,4.219,4.219,0,0,0,1.508.387Z" transform="translate(-110.692 -22.421)" fill="#1a1311"/>
      <path id="パス_641" data-name="パス 641" d="M282.442,64.408a3.554,3.554,0,0,1-.778-.113,4.186,4.186,0,0,0-.613-.1l.01-.149a4.207,4.207,0,0,1,.635.108,1.938,1.938,0,0,0,1.457-.067l.07.132a1.623,1.623,0,0,1-.781.194" transform="translate(-112.498 -25.634)" fill="#1a1311"/>
      <path id="パス_642" data-name="パス 642" d="M280.507,63.233l-.053-.14a5.469,5.469,0,0,1,2.071-.22l-.014.149a5.432,5.432,0,0,0-2,.211" transform="translate(-112.259 -25.159)" fill="#1a1311"/>
      <path id="パス_643" data-name="パス 643" d="M279.834,61.849l-.042-.143a7.267,7.267,0,0,1,.793-.175,4.2,4.2,0,0,0,1.4-.673l.089.121a4.3,4.3,0,0,1-1.467.7,7.1,7.1,0,0,0-.777.171" transform="translate(-111.994 -24.36)" fill="#1a1311"/>
      <path id="パス_644" data-name="パス 644" d="M284.628,67.381l-.094-.117a3.722,3.722,0,0,1,.625-.378,1.937,1.937,0,0,0,1.074-.988l.138.056a2.081,2.081,0,0,1-1.143,1.065,3.6,3.6,0,0,0-.6.363" transform="translate(-113.892 -26.377)" fill="#1a1311"/>
      <path id="パス_645" data-name="パス 645" d="M284.046,66.723l-.122-.086a5.917,5.917,0,0,1,1.294-1.261l.086.123a5.86,5.86,0,0,0-1.257,1.224" transform="translate(-113.648 -26.169)" fill="#1a1311"/>
      <path id="パス_646" data-name="パス 646" d="M283.277,65.77l-.116-.095.12-.144a4.209,4.209,0,0,0,.643-1.418l.146.035a4.3,4.3,0,0,1-.674,1.48q-.057.067-.119.142" transform="translate(-113.342 -25.663)" fill="#1a1311"/>
      <path id="パス_647" data-name="パス 647" d="M290.6,70.071l-.149,0a2.528,2.528,0,0,0-.315-1.321,1.9,1.9,0,0,1,.034-1.869,1.939,1.939,0,0,0,.187-1.447l.142-.046a2.083,2.083,0,0,1-.191,1.55,1.754,1.754,0,0,0-.041,1.739,2.68,2.68,0,0,1,.333,1.4" transform="translate(-116.042 -26.172)" fill="#1a1311"/>
      <path id="パス_648" data-name="パス 648" d="M289.762,70.057a4.91,4.91,0,0,0-.513-1.566,4.434,4.434,0,0,1-.032-2.6l.145.039a4.376,4.376,0,0,0,.02,2.495,5.055,5.055,0,0,1,.528,1.614Z" transform="translate(-115.688 -26.373)" fill="#1a1311"/>
      <path id="パス_649" data-name="パス 649" d="M288.092,69.416a3.823,3.823,0,0,1-.4-1.981,4.217,4.217,0,0,0-.419-1.5l.134-.066a4.307,4.307,0,0,1,.434,1.566,3.7,3.7,0,0,0,.375,1.9Z" transform="translate(-114.989 -26.366)" fill="#1a1311"/>
      <path id="パス_650" data-name="パス 650" d="M296.475,68.089l-.223-.437a4.917,4.917,0,0,0-2.375-2.055c-.958-.39-1.668-1.909-1.7-1.974l.136-.063c.007.016.715,1.53,1.619,1.9a5.16,5.16,0,0,1,2.152,1.668,2.7,2.7,0,0,0-1.5-1.526,1.9,1.9,0,0,1-1.176-1.454,1.933,1.933,0,0,0-.787-1.228l.08-.127a2.083,2.083,0,0,1,.85,1.31,1.752,1.752,0,0,0,1.086,1.359,3.011,3.011,0,0,1,1.757,2.145Z" transform="translate(-116.952 -25.134)" fill="#1a1311"/>
      <path id="パス_651" data-name="パス 651" d="M295.65,68.693a2.9,2.9,0,0,0-1.664-.976,3.115,3.115,0,0,1-2.05-1.346,4.24,4.24,0,0,0-1.285-.88l.06-.137a4.3,4.3,0,0,1,1.34.921,2.994,2.994,0,0,0,1.941,1.293,2.993,2.993,0,0,1,1.772,1.028Z" transform="translate(-116.34 -26.16)" fill="#1a1311"/>
      <path id="パス_652" data-name="パス 652" d="M299.321,61.051l-.452-.192a4.914,4.914,0,0,0-3.14-.047,4.427,4.427,0,0,1-2.57-.421l.064-.135a4.393,4.393,0,0,0,2.461.414,5.158,5.158,0,0,1,2.721-.106,2.7,2.7,0,0,0-2.133-.2A1.9,1.9,0,0,1,294.437,60a1.933,1.933,0,0,0-1.393-.435l-.02-.148a2.079,2.079,0,0,1,1.493.458,1.753,1.753,0,0,0,1.706.342,3.01,3.01,0,0,1,2.724.514Z" transform="translate(-117.29 -23.778)" fill="#1a1311"/>
      <path id="パス_653" data-name="パス 653" d="M292.953,62.474l-.042-.143a4.3,4.3,0,0,1,1.618-.156,3,3,0,0,0,2.318-.257,3,3,0,0,1,2.019-.352l-.025.148a2.9,2.9,0,0,0-1.9.322,3.114,3.114,0,0,1-2.436.287,4.2,4.2,0,0,0-1.55.152" transform="translate(-117.245 -24.627)" fill="#1a1311"/>
      <path id="パス_654" data-name="パス 654" d="M291.573,55.658l-.038-.145a4.381,4.381,0,0,0,2.151-1.265,5.16,5.16,0,0,1,2.017-1.83,2.707,2.707,0,0,0-1.764,1.216,1.9,1.9,0,0,1-1.635.9,1.937,1.937,0,0,0-1.347.561l-.111-.1a2.082,2.082,0,0,1,1.438-.609,1.754,1.754,0,0,0,1.527-.834,3.01,3.01,0,0,1,2.416-1.357h0l.491,0-.47.144a4.92,4.92,0,0,0-2.436,1.982,4.432,4.432,0,0,1-2.239,1.33" transform="translate(-116.418 -20.895)" fill="#1a1311"/>
      <path id="パス_655" data-name="パス 655" d="M293.093,56.714l-.124-.083a4.278,4.278,0,0,1,1.139-1.159c.5-.287,1.426-.82,1.61-1.688a3,3,0,0,1,1.32-1.567l.076.129a2.9,2.9,0,0,0-1.25,1.469c-.2.933-1.164,1.487-1.682,1.786a4.223,4.223,0,0,0-1.09,1.112" transform="translate(-117.268 -20.901)" fill="#1a1311"/>
      <rect id="長方形_1222" data-name="長方形 1222" width="4.261" height="0.149" transform="translate(164.737 30.053)" fill="#1a1311"/>
      <rect id="長方形_1223" data-name="長方形 1223" width="4.196" height="0.149" transform="translate(169.637 30.053)" fill="#1a1311"/>
      <rect id="長方形_1224" data-name="長方形 1224" width="3.052" height="0.149" transform="translate(174.759 30.053)" fill="#1a1311"/>
      <path id="パス_656" data-name="パス 656" d="M279.068,60.875l-.038-.145,1.89-.506.038.145Z" transform="translate(-111.689 -24.107)" fill="#1a1311"/>
      <rect id="長方形_1225" data-name="長方形 1225" width="1.301" height="0.149" transform="matrix(0.866, -0.501, 0.501, 0.866, 171.616, 41.739)" fill="#1a1311"/>
      <rect id="長方形_1226" data-name="長方形 1226" width="0.931" height="0.149" transform="matrix(0.866, -0.501, 0.501, 0.866, 174.355, 40.157)" fill="#1a1311"/>
      <rect id="長方形_1227" data-name="長方形 1227" width="2.537" height="0.15" transform="matrix(0.866, -0.501, 0.501, 0.866, 176.489, 38.926)" fill="#1a1311"/>
      <path id="パス_657" data-name="パス 657" d="M298.135,58.833a14.106,14.106,0,0,1-1.071-2.891l.145-.036a13.935,13.935,0,0,0,1.06,2.861Z" transform="translate(-118.907 -22.378)" fill="#1a1311"/>
      <path id="パス_658" data-name="パス 658" d="M310.5,54.938a14.212,14.212,0,0,1-12.182-6.956l.128-.076a13.949,13.949,0,1,0-1.8-5.14l-.148.021a14.359,14.359,0,0,1-.139-1.989,14.14,14.14,0,1,1,14.14,14.14" transform="translate(-118.627 -10.671)" fill="#1a1311"/>
      <path id="パス_659" data-name="パス 659" d="M298.96,58.208a13.532,13.532,0,0,1-1.293-3.718l.147-.028a13.372,13.372,0,0,0,1.279,3.676Z" transform="translate(-119.149 -21.8)" fill="#1a1311"/>
      <path id="パス_660" data-name="パス 660" d="M310.864,54.759a13.679,13.679,0,0,1-11.677-6.625l.128-.077a13.43,13.43,0,1,0-1.8-5.28l-.149.018a13.857,13.857,0,0,1-.1-1.635,13.6,13.6,0,1,1,13.6,13.6" transform="translate(-118.988 -11.032)" fill="#1a1311"/>
    </g>
  </g>
</svg>
