<svg xmlns="http://www.w3.org/2000/svg" xmlns:xlink="http://www.w3.org/1999/xlink" width="83.017" height="19" viewBox="0 0 83.017 19">
  <defs>
    <clipPath id="clip-path">
      <rect id="長方形_1523" data-name="長方形 1523" width="83.017" height="19" fill="none"/>
    </clipPath>
  </defs>
  <g id="グループ_2731" data-name="グループ 2731" transform="translate(0 0)">
    <g id="グループ_2730" data-name="グループ 2730" transform="translate(0 0)" clip-path="url(#clip-path)">
      <path id="パス_1837" data-name="パス 1837" d="M125.533,30.166c-.736.115-1.288.854-2.212.826a1.991,1.991,0,0,1,.565-.959.872.872,0,0,1,.888-.355c.086.023.263-.105.319-.207a.344.344,0,0,0-.137-.444.535.535,0,0,0-.31-.107.881.881,0,0,0-.4.11,3.3,3.3,0,0,0-1.3,1.413,1.411,1.411,0,0,0-.112.407.5.5,0,0,0,.582.631,4.9,4.9,0,0,0,.963-.3c.2-.071.381-.173.735-.336-.138.25-.178.347-.239.429-.287.386-.593.758-.865,1.154a1.309,1.309,0,0,1-.906.549,67.7,67.7,0,0,0-8.512,2.289c-.859.281-1.7.623-2.538.963a3.989,3.989,0,0,0-.883.5c-.48.36-.419.806.158,1.015a3.639,3.639,0,0,0,1.161.21,15.517,15.517,0,0,0,7.511-1.8,13.084,13.084,0,0,0,3.164-2.271,1.347,1.347,0,0,1,1.046-.449,2.359,2.359,0,0,0,.506-.044.3.3,0,0,0,.133-.479,3.092,3.092,0,0,0-.443-.294c.234-.32.48-.627.693-.956s.406-.678.586-1.028a.326.326,0,0,0-.147-.47m-3.56,4.281a14.75,14.75,0,0,1-7.83,2.975c-.591.042-1.188.014-1.781,0-.288-.005-.293-.022-.726-.27a1.875,1.875,0,0,1,.325-.254c.436-.2.872-.412,1.323-.578a67.154,67.154,0,0,1,8.629-2.537c.243-.054.488-.1.732-.142l.092.147c-.254.219-.5.457-.765.655" transform="translate(-72.653 -18.956)"/>
      <path id="パス_1838" data-name="パス 1838" d="M54.506,35.334a.592.592,0,0,0,0-.714c-.119-.185-.265-.352-.4-.523a1.573,1.573,0,0,1,.811-.635,3.62,3.62,0,0,0,.467-.192.327.327,0,0,0,.126-.281.8.8,0,0,0-.262-.29c-.031-.026-.11-.007-.163.006a2.523,2.523,0,0,0-1.45.966.619.619,0,0,0,.019.853c.115.155.252.294.381.443a1.7,1.7,0,0,1-.75.912,15.34,15.34,0,0,1-5.164,2.672,3.271,3.271,0,0,0-.482.154.249.249,0,0,0-.133.352.334.334,0,0,0,.258.162,3.581,3.581,0,0,0,.731-.192,22.321,22.321,0,0,0,4.917-2.644,6.842,6.842,0,0,0,.72-.591,3.114,3.114,0,0,0,.371-.459" transform="translate(-31.12 -21.424)"/>
      <path id="パス_1839" data-name="パス 1839" d="M95.607,31.51c-.165.107-.31.245-.465.367a1.77,1.77,0,0,1-.68.443l-.561-.489a1.635,1.635,0,0,0-1.031.462c-.147.112-.31.2-.506.329a2.955,2.955,0,0,0-.042-.41.458.458,0,0,0-.623-.39,4.872,4.872,0,0,0-.529.191c.084-.233.147-.387.2-.544a2.194,2.194,0,0,0,.143-.571.406.406,0,0,0-.2-.325c-.1-.033-.256.062-.366.134-.059.039-.078.146-.106.225q-.46,1.277-.916,2.556a.613.613,0,0,0-.05.247c.006.075.045.2.093.21a.387.387,0,0,0,.3-.031,3.321,3.321,0,0,0,.321-.392c.3-.341.6-.681.9-1.012.092-.1.206-.2.367-.123a.4.4,0,0,1,.04.071c.08.249-.113.617.266.731.28.084.461-.161.66-.311a2.9,2.9,0,0,1,.946-.621c.092.107.177.212.268.313a.565.565,0,0,0,.7.156,11.009,11.009,0,0,0,1.218-.76.27.27,0,0,0,.025-.384.251.251,0,0,0-.371-.069" transform="translate(-58.904 -20.034)"/>
      <path id="パス_1840" data-name="パス 1840" d="M131.6,28.524a.3.3,0,0,0,.249-.372.336.336,0,0,0-.381-.26,1.774,1.774,0,0,0-.48.158,6.574,6.574,0,0,0-2.161,1.885,1.846,1.846,0,0,0-.238.447c-.142.39.116.725.512.618a9.326,9.326,0,0,0,1.344-.507c.333-.147.643-.348.986-.538.1.188.169.335.257.469a.6.6,0,0,0,.5.277,2.573,2.573,0,0,0,1.228-.272.328.328,0,0,0,.125-.274.25.25,0,0,0-.308-.215,2.051,2.051,0,0,0-.319.113c-.263.088-.526.173-.792.26-.3-.312-.159-.751-.618-.852-.26.14-.555.305-.856.46-.4.208-.807.412-1.215.607a.259.259,0,0,1-.386-.112,1.327,1.327,0,0,1,.178-.344,4.468,4.468,0,0,1,2.372-1.551" transform="translate(-84.261 -18.277)"/>
      <path id="パス_1841" data-name="パス 1841" d="M159.882,29.384c-.246.138-.486.287-.723.441a6.094,6.094,0,0,1-1.836.856,1.787,1.787,0,0,1-1-.019.452.452,0,0,1-.35-.581,2.3,2.3,0,0,1,.212-.443c.2.133.348.317.5.322a1.419,1.419,0,0,0,1.107-.922.37.37,0,0,0-.274-.454,1.143,1.143,0,0,0-.336-.027,2.2,2.2,0,0,0-1.623,1.457.79.79,0,0,0,.485.964,1.593,1.593,0,0,0,.651.118,7.784,7.784,0,0,0,3.4-1.219c.024-.013.054-.032.062-.055a.952.952,0,0,0,.076-.31c-.007-.115-.228-.2-.351-.128m-2.833-.343c.085.2-.064.206-.132.24-.048.024-.129-.014-.267-.037l.4-.2" transform="translate(-101.946 -18.715)"/>
      <path id="パス_1842" data-name="パス 1842" d="M70.239,32.294a3.436,3.436,0,0,0-1.258,1.11.614.614,0,0,0,.058.784c.145.169.3.326.448.478-.2.45-.183.47-.431.63-.5.322-1.006.636-1.527.92-.347.189-.726.317-1.087.482-.271.124-.363.261-.319.43.054.209.277.273.566.1q1.324-.765,2.625-1.569A2.02,2.02,0,0,0,69.8,35.2a.685.685,0,0,0,.015-.932c-.125-.176-.265-.341-.4-.512a1.906,1.906,0,0,1,.658-.6,2.8,2.8,0,0,0,.488-.336.548.548,0,0,0,.106-.379c-.008-.13-.295-.227-.434-.146" transform="translate(-43.334 -21.148)"/>
      <path id="パス_1843" data-name="パス 1843" d="M82.792,33.574a3.758,3.758,0,0,0-.575.351,2.76,2.76,0,0,1-1.153.509c-.536.076-.755-.2-.555-.694a3.069,3.069,0,0,1,.192-.35,2.683,2.683,0,0,0,.76-.047,2.252,2.252,0,0,0,.976-.791,1,1,0,0,0,.146-.39.368.368,0,0,0-.4-.426.894.894,0,0,0-.244.062,3.421,3.421,0,0,0-1.785,1.843c-.294.7.051,1.148.829,1.148a2.041,2.041,0,0,0,.42-.039,5.2,5.2,0,0,0,1.557-.65c.047-.028.11-.071.117-.116.017-.1.042-.233-.007-.3a.315.315,0,0,0-.279-.109" transform="translate(-52.469 -20.8)"/>
      <path id="パス_1844" data-name="パス 1844" d="M74.532,6.117c.1-.135.223-.257.328-.39a.292.292,0,0,0-.022-.388.341.341,0,0,0-.458-.064,3.3,3.3,0,0,0-.451.5c-.712,1.022-1.41,2.054-2.123,3.076-.141.2-.375.575-.375.575-.318-.06-3.01-.639-3.763-.766-1.445-.244-4.042-.623-4.77-.746a.084.084,0,0,1-.051-.139c.119-.137.277-.314.378-.42A25.227,25.227,0,0,1,67.608,3.6a17.235,17.235,0,0,1,2.143-1.213,8.211,8.211,0,0,1,1.693-.535,2.514,2.514,0,0,1,.92.039.429.429,0,0,1,.331.592,3.778,3.778,0,0,1-.5.866A4.731,4.731,0,0,1,70.746,4.52a10.909,10.909,0,0,1-2.362.943,2.06,2.06,0,0,0-.464.186.247.247,0,0,0-.1.211c.028.1.1.231.184.258a.749.749,0,0,0,.407-.01,9.126,9.126,0,0,0,3.144-1.457,7.434,7.434,0,0,0,1.155-1.118,2.571,2.571,0,0,0,.455-.851.972.972,0,0,0-.677-1.272,2.857,2.857,0,0,0-1.459.021,9.01,9.01,0,0,0-2.43.995A24.6,24.6,0,0,0,62.822,7.14c-.212.227-.426.452-.628.667-.6-.1-4.287-.556-8.169-.825-3.984-.276-8.1-.408-8.738-.327a11.169,11.169,0,0,1,1.1-1.792,2.276,2.276,0,0,0,.278-.421.328.328,0,0,0-.087-.29.337.337,0,0,0-.3-.061,1.062,1.062,0,0,0-.354.344c-.27.432-.517.878-.776,1.317-.185.313-.374.623-.555.925-.68-.032-3.937.078-3.928.118A24.671,24.671,0,0,1,42.6,3.681c.1-.136.217-.263.307-.406a.256.256,0,0,0-.076-.371.428.428,0,0,0-.38-.015,2.838,2.838,0,0,0-.546.641c-.553.922-1.082,1.858-1.622,2.788-.1.167-.2.33-.292.478-.324.028-.605.061-.887.074A101.476,101.476,0,0,0,28.634,7.911c-2.4.368-4.8.8-7.2,1.212-.188.032-.617.086-.617.086.567-1.276,1.171-2.738,1.753-4.024.6-1.315,1.209-2.622,1.807-3.936a2.586,2.586,0,0,0,.207-.643.491.491,0,0,0-.691-.564,3.164,3.164,0,0,0-.815.45c-.739.573-1.484,1.142-2.178,1.767a61.761,61.761,0,0,0-7.51,8.2,2.024,2.024,0,0,1-1.153.771c-2.294.623-4.586,1.263-6.859,1.957-1.516.462-3,1.02-4.5,1.551a2.565,2.565,0,0,0-.735.408.451.451,0,0,0,.168.759.746.746,0,0,0,.48-.052c.493-.214.964-.483,1.462-.683a88.649,88.649,0,0,1,9.528-3.106c.115-.032.217-.049.3.118-.327.5-.678,1.014-1,1.544-.369.6-.727,1.215-1.059,1.838a1.932,1.932,0,0,0-.194.726.428.428,0,0,0,.22.326.452.452,0,0,0,.389-.047,1,1,0,0,0,.29-.4A27.285,27.285,0,0,1,13.2,12.013a1.261,1.261,0,0,1,.812-.552c1.734-.417,3.465-.844,5.2-1.264.124-.03.52-.092.52-.092s-.193.451-.258.6c-.54,1.216-1.086,2.429-1.624,3.646a5.174,5.174,0,0,0-.295.792.341.341,0,0,0,.224.409.357.357,0,0,0,.459-.1,7.138,7.138,0,0,0,.578-1.228c.469-1.066.889-2.186,1.317-3.328.443-1.182.254-.977,1.022-1.142,1.107-.237,2.221-.439,3.333-.648A118.139,118.139,0,0,1,39.129,7.3a3.843,3.843,0,0,1,.663-.022c-.08.19-.188.4-.243.527-.351.8-.726,1.6-1.049,2.414-.355.894-.668,1.805-.988,2.713a1.072,1.072,0,0,0-.081.606.146.146,0,0,0,.238.075c.381-.345.472-.863.848-1.128.514.307.565.324,1.007.143a4.116,4.116,0,0,0,2.007-1.764,1.8,1.8,0,0,0,.2-.642.522.522,0,0,0-.529-.624,1.33,1.33,0,0,0-.8.247,6.493,6.493,0,0,0-1.449,1.3c-.16.181-.325.357-.488.535a25.553,25.553,0,0,1,1.7-3.987c.258-.518.135-.493.8-.5.849-.006,1.7-.059,2.546-.076.219,0,.487-.008.793.012-.149.31-.318.625-.44.869-.429.861-.884,1.71-1.283,2.585a12.913,12.913,0,0,0-.514,1.525.375.375,0,0,0,.574.459,4.4,4.4,0,0,0,1.257-1.151c.063-.131-.165-.223-.254-.246a.414.414,0,0,0-.311.076,2.538,2.538,0,0,0-.275.32c-.109.116-.23.221-.4.386a18.443,18.443,0,0,1,2.324-4.772A134.347,134.347,0,0,1,61.67,8.19a.128.128,0,0,1,.086.2c-.145.187-.334.39-.445.539a13.719,13.719,0,0,0-1.665,2.756,4.774,4.774,0,0,0-.512,1.958,1.755,1.755,0,0,0,1.439,1.845c.136.038.278.056.417.085a6.618,6.618,0,0,0,2.9-.077,35.025,35.025,0,0,0,3.756-1.084c.847-.3.43-.93.089-.8s-.66.275-.953.387a23.442,23.442,0,0,1-3.172,1.023,7.388,7.388,0,0,1-2.1.223,3.083,3.083,0,0,1-1.229-.3,1.105,1.105,0,0,1-.724-1.138,5.978,5.978,0,0,1,.277-1.493A11.939,11.939,0,0,1,62.4,8.351c.371.038,3.287.433,4.412.644,1.1.218,3.592.653,4.336.849-.443.733-.866,1.4-1.2,2.11s-.7,1.411-1.028,2.066a3.445,3.445,0,0,0-.307.858c-.1.724.319.86.521.816a1.475,1.475,0,0,0,.931-.679A.293.293,0,0,0,69.8,14.6a4.277,4.277,0,0,0-.6.192A18.734,18.734,0,0,1,71.7,10.025a47.621,47.621,0,0,1,5.728,1.528c-.3.662-.6,1.266-.849,1.892-.319.816-.6,1.648-.877,2.479a1.04,1.04,0,0,0-.014.5c.009.052.189.123.264.1a.519.519,0,0,0,.231-.23c.164-.264.3-.545.471-.806a4.851,4.851,0,0,1,2.2-1.93,2.065,2.065,0,0,1,.738-.139.338.338,0,0,1,.3.539,3.149,3.149,0,0,1-.536.647,7.662,7.662,0,0,1-1.941,1.21,3.072,3.072,0,0,0-.505.3.238.238,0,0,0-.033.225.254.254,0,0,0,.2.113.737.737,0,0,0,.319-.1c.567-.322,1.144-.629,1.687-.989a10.237,10.237,0,0,0,1.117-.91,1.145,1.145,0,0,0,.374-.744.6.6,0,0,0-.526-.733,2.015,2.015,0,0,0-1.155.157,6.413,6.413,0,0,0-1.791,1.1l-.438.372a17.626,17.626,0,0,1,1.25-2.92c.326.092.726.215,1.068.338.905.326,1.8.674,2.706,1a1.067,1.067,0,0,0,.495.08.451.451,0,0,0,.3-.248.525.525,0,0,0-.078-.382.517.517,0,0,0-.273-.181c-.375-.128-.754-.245-1.134-.358-.894-.267-1.857-.558-2.8-.837,0,0,.1-.165.127-.211a32.523,32.523,0,0,1,4.2-5.753,5.02,5.02,0,0,0,.446-.509.263.263,0,0,0-.1-.369c-.078-.054-.24-.091-.3-.047a3.292,3.292,0,0,0-.554.512,38.346,38.346,0,0,0-3.886,5.472c-.14.24-.276.5-.438.764-1.892-.493-3.766-.973-5.688-1.421a4.279,4.279,0,0,1,.282-.427ZM19.974,9.369c-.961.3-5.162,1.214-5.637,1.231,1.149-2.259,7.3-8.571,9.284-9.509.007.084.041.172.014.232-1.186,2.688-2.494,5.41-3.662,8.045m20.439.975a2.044,2.044,0,0,1,.536-.225c.137-.041.279.118.252.257a.805.805,0,0,1-.014.082,2.832,2.832,0,0,1-2.125,1.734,1.763,1.763,0,0,1-.362-.074,6.841,6.841,0,0,1,1.713-1.774" transform="translate(0 0)"/>
      <path id="パス_1845" data-name="パス 1845" d="M209.507,37.4a1.636,1.636,0,0,0-.425.014c.162-.209.226-.3.3-.386.245-.274.507-.533.733-.821a.44.44,0,0,0,.06-.378c-.073-.161-.238-.091-.361-.019-.171.1-.337.207-.5.319-.724.494-1.436,1-2.171,1.482-.449.291-.927.539-1.4.791-.077.041-.2,0-.375,0,.089-.249.143-.432.218-.606.089-.207.205-.4.291-.61a.324.324,0,0,0-.167-.424.329.329,0,0,0-.43.162c-.149.424-.28.855-.4,1.288a.73.73,0,0,0,.03.332.428.428,0,0,0,.49.369,2.188,2.188,0,0,0,.715-.232c.614-.349,1.208-.732,1.812-1.1.124-.075.259-.131.439-.22a5.794,5.794,0,0,0-.18.64.337.337,0,0,0,.294.356,1.847,1.847,0,0,0,1.229-.471.34.34,0,0,0,.044-.307.4.4,0,0,0-.246-.182" transform="translate(-134.282 -23.418)"/>
    </g>
  </g>
</svg>
