<svg id="グループ_1378" data-name="グループ 1378" xmlns="http://www.w3.org/2000/svg" xmlns:xlink="http://www.w3.org/1999/xlink" width="385.512" height="200.851" viewBox="0 0 385.512 200.851">
  <defs>
    <clipPath id="clip-path">
      <rect id="長方形_1311" data-name="長方形 1311" width="385.512" height="200.851" fill="none"/>
    </clipPath>
  </defs>
  <g id="グループ_1288" data-name="グループ 1288" clip-path="url(#clip-path)">
    <path id="パス_663" data-name="パス 663" d="M279.3,173.4c-2.594.4-4.539,3.01-7.8,2.91.864-2.175,1-2.406,1.992-3.379.865-.85,1.72-1.628,3.131-1.251.3.081.927-.37,1.125-.729a1.214,1.214,0,0,0-.485-1.565,1.877,1.877,0,0,0-1.091-.376,3.088,3.088,0,0,0-1.414.386,11.619,11.619,0,0,0-4.6,4.981,4.947,4.947,0,0,0-.4,1.435,1.764,1.764,0,0,0,2.052,2.224,17.4,17.4,0,0,0,3.394-1.054c.691-.25,1.344-.609,2.589-1.184-.486.882-.627,1.224-.841,1.512-1.011,1.359-2.089,2.671-3.049,4.065a4.618,4.618,0,0,1-3.194,1.934,238.546,238.546,0,0,0-30,8.066c-3.028.993-5.99,2.2-8.945,3.394a14.034,14.034,0,0,0-3.113,1.76c-1.692,1.269-1.477,2.84.556,3.579a12.807,12.807,0,0,0,4.092.739,54.688,54.688,0,0,0,26.472-6.335,46.112,46.112,0,0,0,11.15-8,4.749,4.749,0,0,1,3.685-1.582,8.375,8.375,0,0,0,1.785-.153,1.041,1.041,0,0,0,.469-1.689,10.871,10.871,0,0,0-1.56-1.036c.825-1.127,1.692-2.21,2.443-3.369s1.431-2.388,2.068-3.623a1.152,1.152,0,0,0-.521-1.657m-12.545,15.089a52,52,0,0,1-27.6,10.487c-2.083.147-4.186.047-6.279.01-1.016-.018-1.03-.078-2.557-.954a6.587,6.587,0,0,1,1.146-.893c1.537-.715,3.073-1.452,4.662-2.036a236.664,236.664,0,0,1,30.413-8.94c.855-.19,1.72-.336,2.581-.5.109.173.217.346.326.518-.9.773-1.745,1.61-2.7,2.31" fill="#1a1311"/>
    <path id="パス_664" data-name="パス 664" d="M175.345,182.91a2.087,2.087,0,0,0,0-2.515c-.419-.651-.935-1.24-1.4-1.843a5.537,5.537,0,0,1,2.859-2.239,12.71,12.71,0,0,0,1.645-.676,1.152,1.152,0,0,0,.446-.989,2.83,2.83,0,0,0-.923-1.024c-.111-.092-.387-.025-.576.019a8.9,8.9,0,0,0-5.111,3.4,2.181,2.181,0,0,0,.067,3.006c.4.549.888,1.038,1.343,1.563a5.994,5.994,0,0,1-2.643,3.215,54.041,54.041,0,0,1-18.2,9.417,11.538,11.538,0,0,0-1.7.542.88.88,0,0,0-.471,1.242,1.179,1.179,0,0,0,.909.572,12.508,12.508,0,0,0,2.577-.675A78.663,78.663,0,0,0,171.5,186.61a24.116,24.116,0,0,0,2.54-2.083,10.977,10.977,0,0,0,1.307-1.617" fill="#1a1311"/>
    <path id="パス_665" data-name="パス 665" d="M222.278,174.333c-.582.377-1.092.863-1.641,1.292a6.245,6.245,0,0,1-2.4,1.562l-1.978-1.724a5.761,5.761,0,0,0-3.633,1.628c-.517.4-1.093.715-1.784,1.161a10.356,10.356,0,0,0-.149-1.444,1.613,1.613,0,0,0-2.2-1.376,17.609,17.609,0,0,0-1.866.671c.3-.822.519-1.362.69-1.918a7.669,7.669,0,0,0,.5-2.013,1.436,1.436,0,0,0-.7-1.146c-.348-.115-.9.218-1.29.472-.209.138-.274.515-.375.795q-1.621,4.5-3.229,9.007a2.181,2.181,0,0,0-.174.871c.022.265.16.695.329.739a1.361,1.361,0,0,0,1.068-.11,11.825,11.825,0,0,0,1.132-1.382c1.049-1.2,2.1-2.4,3.187-3.569.324-.349.725-.71,1.294-.432a1.412,1.412,0,0,1,.14.249c.282.878-.4,2.176.937,2.576.986.3,1.625-.568,2.326-1.1a10.22,10.22,0,0,1,3.337-2.187c.322.378.625.747.942,1.1a1.991,1.991,0,0,0,2.456.552,38.7,38.7,0,0,0,4.293-2.68.952.952,0,0,0,.089-1.353.885.885,0,0,0-1.306-.244" fill="#1a1311"/>
    <path id="パス_666" data-name="パス 666" d="M259.779,170a1.038,1.038,0,0,0,.877-1.31,1.182,1.182,0,0,0-1.342-.918,6.209,6.209,0,0,0-1.692.559,23.17,23.17,0,0,0-7.615,6.643,6.484,6.484,0,0,0-.839,1.576c-.5,1.375.409,2.556,1.805,2.18a32.963,32.963,0,0,0,4.738-1.787c1.174-.521,2.266-1.227,3.476-1.9.358.661.6,1.181.906,1.652a2.112,2.112,0,0,0,1.768.978,9.066,9.066,0,0,0,4.327-.958,1.16,1.16,0,0,0,.442-.964.882.882,0,0,0-1.086-.757,7.223,7.223,0,0,0-1.125.4c-.925.31-1.853.61-2.79.918-1.069-1.1-.56-2.647-2.178-3-.915.494-1.957,1.076-3.017,1.623-1.418.731-2.843,1.451-4.282,2.141a.914.914,0,0,1-1.359-.4,4.657,4.657,0,0,1,.626-1.211c2.35-2.479,4.814-4.795,8.36-5.467" fill="#1a1311"/>
    <path id="パス_667" data-name="パス 667" d="M297.116,171.487c-.867.486-1.714,1.011-2.547,1.554a21.5,21.5,0,0,1-6.472,3.016,6.3,6.3,0,0,1-3.528-.067,1.592,1.592,0,0,1-1.233-2.047,8.211,8.211,0,0,1,.747-1.563c.7.469,1.227,1.115,1.779,1.136,1.455.055,3.567-1.838,3.9-3.25a1.306,1.306,0,0,0-.967-1.6,4.055,4.055,0,0,0-1.184-.1,7.746,7.746,0,0,0-5.722,5.138,2.782,2.782,0,0,0,1.709,3.4,5.61,5.61,0,0,0,2.3.416c4.43-.179,8.206-2.237,11.973-4.295.084-.046.191-.115.216-.195a3.313,3.313,0,0,0,.27-1.094c-.024-.407-.8-.694-1.236-.452m-9.986-1.208c.3.7-.227.725-.464.847-.168.087-.453-.05-.941-.129l1.4-.718" fill="#1a1311"/>
    <path id="パス_668" data-name="パス 668" d="M187.747,173.169a12.107,12.107,0,0,0-4.434,3.913,2.166,2.166,0,0,0,.2,2.764c.512.6,1.074,1.148,1.579,1.684-.691,1.585-.644,1.657-1.52,2.221-1.76,1.134-3.545,2.24-5.382,3.243-1.222.667-2.56,1.118-3.83,1.7-.956.439-1.279.918-1.123,1.515.191.736.974.96,2,.369q4.665-2.7,9.253-5.53a7.073,7.073,0,0,0,1.724-1.639,2.413,2.413,0,0,0,.053-3.282c-.441-.62-.933-1.2-1.4-1.806a6.7,6.7,0,0,1,2.318-2.117,9.9,9.9,0,0,0,1.719-1.185,1.926,1.926,0,0,0,.376-1.336c-.027-.456-1.038-.8-1.529-.515" fill="#1a1311"/>
    <path id="パス_669" data-name="パス 669" d="M199.791,178.9a13.346,13.346,0,0,0-2.027,1.236,9.727,9.727,0,0,1-4.062,1.794c-1.888.27-2.66-.71-1.958-2.445a10.987,10.987,0,0,1,.679-1.232,9.5,9.5,0,0,0,2.68-.164,7.935,7.935,0,0,0,3.441-2.789,3.522,3.522,0,0,0,.515-1.373,1.3,1.3,0,0,0-1.412-1.5,3.116,3.116,0,0,0-.861.22,12.05,12.05,0,0,0-6.291,6.494c-1.034,2.467.18,4.047,2.923,4.045a7.26,7.26,0,0,0,1.48-.136,18.368,18.368,0,0,0,5.488-2.291c.166-.1.387-.253.414-.41.061-.354.15-.823-.024-1.065a1.11,1.11,0,0,0-.985-.385" fill="#1a1311"/>
    <path id="パス_670" data-name="パス 670" d="M355.606,155.445c.36-.477.785-.9,1.156-1.373a1.026,1.026,0,0,0-.077-1.367,1.2,1.2,0,0,0-1.613-.228,11.651,11.651,0,0,0-1.589,1.772c-2.51,3.6-4.971,7.24-7.482,10.841-.5.712-1.321,2.026-1.321,2.026-1.121-.211-10.608-2.251-13.263-2.7-5.092-.858-14.247-2.195-16.813-2.63a.3.3,0,0,1-.18-.488c.419-.484.976-1.1,1.331-1.481A88.876,88.876,0,0,1,331.2,146.588a60.627,60.627,0,0,1,7.552-4.274,28.943,28.943,0,0,1,5.968-1.886,8.909,8.909,0,0,1,3.244.136,1.514,1.514,0,0,1,1.166,2.085,13.359,13.359,0,0,1-1.769,3.053,16.67,16.67,0,0,1-5.1,4.114,38.386,38.386,0,0,1-8.326,3.323,7.332,7.332,0,0,0-1.634.657.87.87,0,0,0-.359.745c.1.349.353.814.647.91a2.637,2.637,0,0,0,1.435-.034,32.169,32.169,0,0,0,11.08-5.135,26.3,26.3,0,0,0,4.072-3.942,9.03,9.03,0,0,0,1.6-3,3.425,3.425,0,0,0-2.384-4.485,10.062,10.062,0,0,0-5.143.074,31.762,31.762,0,0,0-8.564,3.505,86.718,86.718,0,0,0-20.356,16.615c-.747.8-1.5,1.593-2.215,2.349-2.124-.346-15.11-1.961-28.792-2.908-14.042-.972-28.545-1.437-30.8-1.154a39.371,39.371,0,0,1,3.882-6.316,8.055,8.055,0,0,0,.978-1.486,1.154,1.154,0,0,0-.307-1.023,1.191,1.191,0,0,0-1.073-.214,3.755,3.755,0,0,0-1.247,1.213c-.953,1.522-1.823,3.1-2.736,4.642-.65,1.1-1.318,2.2-1.957,3.259-2.4-.112-13.876.275-13.844.417a87.067,87.067,0,0,1,6.827-10.972c.36-.479.766-.928,1.083-1.432a.9.9,0,0,0-.267-1.308,1.509,1.509,0,0,0-1.339-.051,9.988,9.988,0,0,0-1.927,2.257c-1.948,3.251-3.814,6.55-5.716,9.828-.342.59-.712,1.164-1.03,1.683-1.142.1-2.133.214-3.126.262a357.118,357.118,0,0,0-36.893,3.671c-8.475,1.3-16.914,2.834-25.368,4.272-.663.113-2.177.306-2.177.306,2-4.5,4.128-9.651,6.18-14.185,2.1-4.635,4.261-9.24,6.367-13.871a9.135,9.135,0,0,0,.73-2.265,1.732,1.732,0,0,0-2.436-1.989,11.128,11.128,0,0,0-2.872,1.586c-2.6,2.019-5.232,4.024-7.676,6.227a217.6,217.6,0,0,0-26.469,28.911,7.129,7.129,0,0,1-4.065,2.717c-8.087,2.2-16.162,4.451-24.175,6.9-5.342,1.631-10.583,3.6-15.849,5.468a9.006,9.006,0,0,0-2.59,1.437,1.589,1.589,0,0,0,.592,2.675,2.637,2.637,0,0,0,1.692-.184c1.739-.754,3.4-1.7,5.152-2.408a312.263,312.263,0,0,1,33.583-10.947c.407-.113.766-.173,1.055.414-1.151,1.769-2.388,3.575-3.527,5.441-1.3,2.128-2.562,4.281-3.734,6.48a6.8,6.8,0,0,0-.683,2.558,1.505,1.505,0,0,0,.773,1.149,1.6,1.6,0,0,0,1.373-.165,3.517,3.517,0,0,0,1.02-1.41c2.291-5.248,5.534-9.924,8.692-14.657a4.449,4.449,0,0,1,2.862-1.947c6.111-1.47,12.213-2.975,18.321-4.455.437-.106,1.834-.325,1.834-.325s-.679,1.587-.912,2.112c-1.9,4.287-3.827,8.562-5.723,12.85a18.292,18.292,0,0,0-1.039,2.792,1.2,1.2,0,0,0,.788,1.442,1.259,1.259,0,0,0,1.617-.345,25.113,25.113,0,0,0,2.038-4.326c1.652-3.757,3.134-7.706,4.642-11.731,1.56-4.165.893-3.445,3.6-4.025,3.9-.835,7.828-1.546,11.748-2.285a416.369,416.369,0,0,1,51.628-6.372,13.624,13.624,0,0,1,2.337-.078c-.281.67-.663,1.414-.858,1.859-1.238,2.834-2.557,5.636-3.7,8.509-1.251,3.151-2.356,6.361-3.483,9.56a3.772,3.772,0,0,0-.285,2.138.514.514,0,0,0,.84.264c1.342-1.214,1.662-3.042,2.988-3.976,1.814,1.082,1.991,1.141,3.551.5a14.508,14.508,0,0,0,7.072-6.22,6.314,6.314,0,0,0,.719-2.261,1.839,1.839,0,0,0-1.864-2.2,4.672,4.672,0,0,0-2.808.871,22.821,22.821,0,0,0-5.108,4.588c-.564.637-1.145,1.258-1.718,1.887a89.877,89.877,0,0,1,6-14.053c.907-1.824.477-1.738,2.816-1.755,2.992-.021,5.981-.206,8.972-.267.771-.016,1.717-.026,2.8.043-.526,1.094-1.119,2.2-1.549,3.063-1.514,3.035-3.118,6.028-4.522,9.112a45.613,45.613,0,0,0-1.812,5.375,1.321,1.321,0,0,0,2.025,1.618,15.529,15.529,0,0,0,4.431-4.056c.221-.461-.58-.784-.9-.869a1.46,1.46,0,0,0-1.1.268,9.018,9.018,0,0,0-.97,1.128c-.385.409-.81.78-1.422,1.362.729-3.613,5.459-13.213,8.19-16.82,22.712-.412,50.485,2.455,58.8,3.543a.45.45,0,0,1,.3.718c-.509.658-1.178,1.374-1.567,1.9a48.362,48.362,0,0,0-5.87,9.715,16.824,16.824,0,0,0-1.8,6.9c.065,3.5,1.684,5.575,5.072,6.5.481.131.98.2,1.469.3a23.337,23.337,0,0,0,10.239-.272,123.125,123.125,0,0,0,13.238-3.819c2.984-1.056,1.515-3.277.316-2.835-1.221.39-2.329.969-3.359,1.363a82.77,82.77,0,0,1-11.18,3.607,26.065,26.065,0,0,1-7.4.784,10.865,10.865,0,0,1-4.332-1.045,3.9,3.9,0,0,1-2.55-4.009,21.024,21.024,0,0,1,.977-5.263c1.574-4.567,6.05-11.314,9.029-13.978,1.309.134,11.584,1.526,15.549,2.271,3.867.768,12.658,2.3,15.281,2.991-1.563,2.582-3.051,4.947-4.241,7.436s-2.47,4.972-3.624,7.282a12.128,12.128,0,0,0-1.08,3.024c-.34,2.554,1.125,3.033,1.837,2.876a5.188,5.188,0,0,0,3.282-2.4,1.03,1.03,0,0,0-.947-1.457,15,15,0,0,0-2.113.679,65.981,65.981,0,0,1,8.835-16.807,167.844,167.844,0,0,1,20.187,5.385c-1.056,2.335-2.127,4.462-2.99,6.67-1.124,2.876-2.107,5.808-3.091,8.736a3.658,3.658,0,0,0-.051,1.748c.033.182.667.434.931.351a1.839,1.839,0,0,0,.813-.809c.578-.932,1.064-1.923,1.661-2.842a17.1,17.1,0,0,1,7.767-6.8,7.275,7.275,0,0,1,2.6-.489,1.19,1.19,0,0,1,1.042,1.9,11.059,11.059,0,0,1-1.89,2.28,26.974,26.974,0,0,1-6.842,4.264,10.827,10.827,0,0,0-1.781,1.044.836.836,0,0,0-.116.793.894.894,0,0,0,.7.4,2.574,2.574,0,0,0,1.123-.342c2-1.136,4.033-2.218,5.945-3.486a35.958,35.958,0,0,0,3.938-3.208,4.038,4.038,0,0,0,1.319-2.621,2.1,2.1,0,0,0-1.854-2.584,7.094,7.094,0,0,0-4.069.554,22.643,22.643,0,0,0-6.312,3.872l-1.544,1.312a62.178,62.178,0,0,1,4.4-10.291c1.148.325,2.56.759,3.765,1.192,3.189,1.148,6.35,2.377,9.535,3.537a3.763,3.763,0,0,0,1.744.282,1.587,1.587,0,0,0,1.066-.874,1.856,1.856,0,0,0-.275-1.347,1.824,1.824,0,0,0-.963-.637c-1.322-.451-2.658-.862-4-1.262-3.152-.94-6.547-1.966-9.873-2.948,0,0,.355-.584.45-.745a114.6,114.6,0,0,1,14.805-20.275,17.526,17.526,0,0,0,1.573-1.793.931.931,0,0,0-.355-1.3c-.273-.189-.844-.319-1.052-.165a11.684,11.684,0,0,0-1.953,1.8,135.275,135.275,0,0,0-13.695,19.287c-.494.848-.972,1.75-1.543,2.693-6.666-1.739-13.274-3.43-20.046-5.008a14.863,14.863,0,0,1,.994-1.506ZM163.318,166.9c-3.388,1.074-18.193,4.279-19.867,4.339,4.05-7.961,25.742-30.208,32.723-33.514.023.3.144.605.05.819-4.179,9.475-8.789,19.066-12.906,28.356m72.036,3.438a7.183,7.183,0,0,1,1.891-.792c.483-.146.982.417.886.9a2.856,2.856,0,0,1-.051.291c-.9,2.872-4.524,5.845-7.489,6.111a6.25,6.25,0,0,1-1.275-.262,24.119,24.119,0,0,1,6.038-6.253" fill="#1a1311"/>
    <path id="パス_671" data-name="パス 671" d="M358.05,183.154a5.8,5.8,0,0,0-1.5.049c.573-.739.8-1.067,1.061-1.361.863-.965,1.786-1.88,2.583-2.895a1.553,1.553,0,0,0,.211-1.332c-.258-.566-.841-.322-1.273-.068-.6.353-1.188.732-1.763,1.125-2.55,1.742-5.063,3.541-7.652,5.223-1.582,1.028-3.267,1.9-4.935,2.79-.27.144-.69.008-1.322,0,.313-.879.506-1.523.77-2.136.313-.729.722-1.417,1.026-2.15a1.141,1.141,0,0,0-.59-1.5,1.162,1.162,0,0,0-1.515.569c-.525,1.5-.987,3.013-1.41,4.54a2.568,2.568,0,0,0,.1,1.172,1.511,1.511,0,0,0,1.727,1.3,7.743,7.743,0,0,0,2.519-.816c2.164-1.229,4.257-2.579,6.388-3.867.436-.263.913-.461,1.547-.776a20.473,20.473,0,0,0-.633,2.256,1.187,1.187,0,0,0,1.037,1.256,6.518,6.518,0,0,0,4.332-1.66,1.2,1.2,0,0,0,.156-1.083,1.428,1.428,0,0,0-.868-.639" fill="#1a1311"/>
    <path id="パス_672" data-name="パス 672" d="M77.032,152.43a75.4,75.4,0,1,1,75.4-75.4,75.483,75.483,0,0,1-75.4,75.4m0-150.344a74.946,74.946,0,1,0,74.946,74.946A75.031,75.031,0,0,0,77.032,2.086" fill="#1a1311"/>
    <path id="パス_673" data-name="パス 673" d="M77.032,154.064a77.032,77.032,0,1,1,77.031-77.032,77.119,77.119,0,0,1-77.031,77.032m0-153.612a76.581,76.581,0,1,0,76.58,76.58A76.667,76.667,0,0,0,77.032.452" fill="#1a1311"/>
    <path id="パス_674" data-name="パス 674" d="M64.711,9.527a2.362,2.362,0,1,1,.411-.036,2.4,2.4,0,0,1-.411.036m0-4.27a1.978,1.978,0,0,0-.332.029,1.908,1.908,0,1,0,.332-.029" fill="#1a1311"/>
    <path id="パス_675" data-name="パス 675" d="M52.77,12.227a1.86,1.86,0,0,1-.638-3.608,1.86,1.86,0,0,1,2.383,1.112,1.859,1.859,0,0,1-1.745,2.5m0-3.269a1.389,1.389,0,0,0-.482.086,1.406,1.406,0,1,0,1.076.046,1.419,1.419,0,0,0-.594-.132" fill="#1a1311"/>
    <path id="パス_676" data-name="パス 676" d="M41.563,17.955a2.379,2.379,0,0,1-.613-.081,2.347,2.347,0,1,1,.613.081m-.007-4.27a1.906,1.906,0,1,0,1.658.954,1.9,1.9,0,0,0-1.658-.954" fill="#1a1311"/>
    <path id="パス_677" data-name="パス 677" d="M31.434,25.047c-.069,0-.139,0-.209-.009a2.358,2.358,0,1,1,.209.009m-.007-4.27a1.9,1.9,0,1,0,.17.007c-.057,0-.114-.007-.17-.007" fill="#1a1311"/>
    <path id="パス_678" data-name="パス 678" d="M22.684,33.29a1.859,1.859,0,1,1,1.427-.664,1.85,1.85,0,0,1-1.427.664m0-3.267a1.408,1.408,0,1,0,.9.329,1.407,1.407,0,0,0-.9-.329" fill="#1a1311"/>
    <path id="パス_679" data-name="パス 679" d="M15.589,43.922a2.364,2.364,0,1,1,.615-.081,2.4,2.4,0,0,1-.615.081m.007-4.27a1.909,1.909,0,0,0-.958,3.562,1.909,1.909,0,1,0,.958-3.562" fill="#1a1311"/>
    <path id="パス_680" data-name="パス 680" d="M10.368,55.13a2.365,2.365,0,1,1,1-.223,2.36,2.36,0,0,1-1,.223m0-4.271a1.909,1.909,0,1,0,.651.115,1.912,1.912,0,0,0-.651-.115" fill="#1a1311"/>
    <path id="パス_681" data-name="パス 681" d="M7.166,66.574a1.882,1.882,0,0,1-.323-.029,1.856,1.856,0,1,1,.323.029m0-3.269a1.406,1.406,0,1,0,.245.021,1.456,1.456,0,0,0-.245-.021" fill="#1a1311"/>
    <path id="パス_682" data-name="パス 682" d="M7.16,91.712a2.361,2.361,0,0,1-.4-4.686,2.361,2.361,0,0,1,.82,4.65,2.444,2.444,0,0,1-.416.036m-.326-4.241a1.91,1.91,0,1,0,1.427.317,1.912,1.912,0,0,0-1.427-.317" fill="#1a1311"/>
    <path id="パス_683" data-name="パス 683" d="M10.366,103.157a1.865,1.865,0,1,1,.637-.113,1.863,1.863,0,0,1-.637.113m0-3.27a1.419,1.419,0,1,0,.594.134,1.377,1.377,0,0,0-.594-.134" fill="#1a1311"/>
    <path id="パス_684" data-name="パス 684" d="M15.6,114.864a2.36,2.36,0,1,1,1.177-.316,2.364,2.364,0,0,1-1.177.316m-.007-4.27a1.915,1.915,0,1,0,.5.066,1.917,1.917,0,0,0-.5-.066" fill="#1a1311"/>
    <path id="パス_685" data-name="パス 685" d="M22.69,125c-.07,0-.139,0-.21-.009a2.358,2.358,0,1,1,.21.009m-.007-4.27a1.9,1.9,0,1,0,.169.007c-.056-.005-.113-.007-.169-.007" fill="#1a1311"/>
    <path id="パス_686" data-name="パス 686" d="M31.429,133.237a1.859,1.859,0,1,1,1.426-.663,1.847,1.847,0,0,1-1.426.663m-1.078-2.764h0a1.409,1.409,0,1,0,1.985-.174,1.41,1.41,0,0,0-1.985.174" fill="#1a1311"/>
    <path id="パス_687" data-name="パス 687" d="M41.556,140.832a2.36,2.36,0,1,1,2.048-1.18,2.347,2.347,0,0,1-2.048,1.18m.007-4.27a1.923,1.923,0,0,0-.5.066,1.9,1.9,0,1,0,.5-.066" fill="#1a1311"/>
    <path id="パス_688" data-name="パス 688" d="M52.769,146.06a2.366,2.366,0,1,1,1-.223,2.355,2.355,0,0,1-1,.223m-1.8-3.015h0a1.909,1.909,0,1,0,2.447-1.141,1.91,1.91,0,0,0-2.447,1.141" fill="#1a1311"/>
    <path id="パス_689" data-name="パス 689" d="M64.717,148.759a1.9,1.9,0,0,1-.327-.029,1.848,1.848,0,1,1,.327.029m-.005-3.27a1.408,1.408,0,0,0-1.153,2.217,1.4,1.4,0,0,0,.909.579,1.408,1.408,0,1,0,.489-2.774,1.361,1.361,0,0,0-.245-.022" fill="#1a1311"/>
    <path id="パス_690" data-name="パス 690" d="M89.346,149.259a2.36,2.36,0,0,1-.4-4.685,2.36,2.36,0,0,1,.82,4.649,2.442,2.442,0,0,1-.415.036m.006-4.27a1.988,1.988,0,0,0-.333.029,1.91,1.91,0,1,0,.333-.029" fill="#1a1311"/>
    <path id="パス_691" data-name="パス 691" d="M101.295,145.558a1.865,1.865,0,1,1,.637-.113,1.847,1.847,0,0,1-.637.113m-1.323-1.379a1.409,1.409,0,1,0,.842-1.805,1.409,1.409,0,0,0-.842,1.805" fill="#1a1311"/>
    <path id="パス_692" data-name="パス 692" d="M112.508,140.833a2.4,2.4,0,0,1-.615-.081,2.352,2.352,0,1,1,.615.081m-.007-4.27a1.909,1.909,0,1,0,1.656.954,1.9,1.9,0,0,0-1.656-.954" fill="#1a1311"/>
    <path id="パス_693" data-name="パス 693" d="M122.638,133.739q-.1,0-.21-.009a2.358,2.358,0,1,1,.21.009m-.006-4.269a1.909,1.909,0,1,0,1.464.681,1.9,1.9,0,0,0-1.464-.681" fill="#1a1311"/>
    <path id="パス_694" data-name="パス 694" d="M131.374,124.494a1.882,1.882,0,1,1,.166-.008c-.056,0-.111.008-.166.008m.005-3.268a1.407,1.407,0,1,0,.9.329,1.406,1.406,0,0,0-.9-.329" fill="#1a1311"/>
    <path id="パス_695" data-name="パス 695" d="M138.467,114.866a2.371,2.371,0,1,1,.615-.082,2.347,2.347,0,0,1-.615.082m.007-4.272a1.917,1.917,0,0,0-.5.066,1.9,1.9,0,1,0,.5-.066" fill="#1a1311"/>
    <path id="パス_696" data-name="パス 696" d="M143.694,103.658a2.337,2.337,0,0,1-.8-.143,2.358,2.358,0,1,1,.8.143m-.65-.568a1.909,1.909,0,1,0-1.141-2.446,1.913,1.913,0,0,0,1.141,2.446" fill="#1a1311"/>
    <path id="パス_697" data-name="パス 697" d="M146.9,91.212a1.86,1.86,0,1,1,.323-3.692,1.86,1.86,0,0,1,1.508,2.155,1.863,1.863,0,0,1-1.831,1.537m-.245-.473a1.415,1.415,0,0,0,1.632-1.143,1.409,1.409,0,1,0-1.632,1.143" fill="#1a1311"/>
    <path id="パス_698" data-name="パス 698" d="M146.9,67.074a2.362,2.362,0,1,1,.411-.036,2.4,2.4,0,0,1-.411.036m0-4.27a1.909,1.909,0,1,0,1.879,1.577A1.9,1.9,0,0,0,146.9,62.8" fill="#1a1311"/>
    <path id="パス_699" data-name="パス 699" d="M143.7,54.63a1.861,1.861,0,1,1,.788-3.547,1.86,1.86,0,0,1-.15,3.433,1.879,1.879,0,0,1-.638.114m0-3.271a1.377,1.377,0,0,0-.481.086,1.409,1.409,0,0,0-.842,1.8,1.409,1.409,0,1,0,1.323-1.89" fill="#1a1311"/>
    <path id="パス_700" data-name="パス 700" d="M138.475,43.922a2.4,2.4,0,0,1-.615-.081,2.354,2.354,0,1,1,.615.081m-.007-4.271a1.893,1.893,0,0,0-.951.256,1.912,1.912,0,0,0-.7,2.608,1.909,1.909,0,1,0,2.147-2.8,1.918,1.918,0,0,0-.5-.066" fill="#1a1311"/>
    <path id="パス_701" data-name="パス 701" d="M131.381,33.791c-.069,0-.139,0-.209-.008a2.389,2.389,0,1,1,.209.008m0-4.268a1.908,1.908,0,1,0,1.464.681,1.9,1.9,0,0,0-1.464-.681" fill="#1a1311"/>
    <path id="パス_702" data-name="パス 702" d="M122.63,24.546a1.843,1.843,0,0,1-1.192-.435,1.86,1.86,0,1,1,2.391-2.849,1.86,1.86,0,0,1-1.033,3.277c-.055.005-.111.007-.166.007m.006-3.268c-.041,0-.083,0-.125.005a1.42,1.42,0,1,0,.125-.005" fill="#1a1311"/>
    <path id="パス_703" data-name="パス 703" d="M112.5,17.954a2.361,2.361,0,1,1,2.048-1.181,2.342,2.342,0,0,1-2.048,1.181m.007-4.27a1.96,1.96,0,0,0-.5.065,1.911,1.911,0,1,0,.5-.065" fill="#1a1311"/>
    <path id="パス_704" data-name="パス 704" d="M101.3,12.729a2.368,2.368,0,1,1,1-.223,2.364,2.364,0,0,1-1,.223m0-4.271a1.909,1.909,0,1,0,.8,3.639,1.909,1.909,0,0,0-.8-3.639" fill="#1a1311"/>
    <path id="パス_705" data-name="パス 705" d="M89.355,9.026A1.9,1.9,0,0,1,89.028,9a1.865,1.865,0,1,1,.327.028M89.35,5.758A1.408,1.408,0,0,0,88.2,7.974a1.408,1.408,0,0,0,2.54-.563A1.41,1.41,0,0,0,89.6,5.78a1.38,1.38,0,0,0-.246-.022" fill="#1a1311"/>
    <rect id="長方形_1284" data-name="長方形 1284" width="0.452" height="34.316" transform="translate(94.918 14.207)" fill="#1a1311"/>
    <rect id="長方形_1285" data-name="長方形 1285" width="0.452" height="39.571" transform="translate(73.684 11.796) rotate(-15)" fill="#1a1311"/>
    <rect id="長方形_1286" data-name="長方形 1286" width="0.452" height="43.47" transform="translate(51.966 16.676) rotate(-30)" fill="#1a1311"/>
    <rect id="長方形_1287" data-name="長方形 1287" width="0.451" height="45.505" transform="translate(32.764 28.95) rotate(-45)" fill="#1a1311"/>
    <rect id="長方形_1288" data-name="長方形 1288" width="0.452" height="45.266" transform="matrix(0.5, -0.866, 0.866, 0.5, 18.835, 47.214)" fill="#1a1311"/>
    <rect id="長方形_1289" data-name="長方形 1289" width="0.452" height="43.391" transform="translate(12.122 69) rotate(-75.001)" fill="#1a1311"/>
    <rect id="長方形_1290" data-name="長方形 1290" width="21.753" height="0.451" transform="translate(49.559 136.277) rotate(-45)" fill="#1a1311"/>
    <rect id="長方形_1291" data-name="長方形 1291" width="15.773" height="0.452" transform="translate(65.811 141.359) rotate(-59.972)" fill="#1a1311"/>
    <rect id="長方形_1292" data-name="長方形 1292" width="10.552" height="0.452" transform="matrix(0.259, -0.966, 0.966, 0.259, 81.196, 142.196)" fill="#1a1311"/>
    <rect id="長方形_1293" data-name="長方形 1293" width="0.452" height="6.358" transform="translate(94.918 133.499)" fill="#1a1311"/>
    <rect id="長方形_1294" data-name="長方形 1294" width="0.453" height="3.202" transform="translate(105.925 132.121) rotate(-15.009)" fill="#1a1311"/>
    <rect id="長方形_1295" data-name="長方形 1295" width="0.452" height="1.131" transform="translate(116.196 127.927) rotate(-30.034)" fill="#1a1311"/>
    <rect id="長方形_1296" data-name="長方形 1296" width="0.452" height="1.174" transform="translate(136.136 102.229) rotate(-75.006)" fill="#1a1311"/>
    <rect id="長方形_1297" data-name="長方形 1297" width="3.268" height="0.452" transform="translate(137.632 90.785)" fill="#1a1311"/>
    <rect id="長方形_1298" data-name="長方形 1298" width="6.414" height="0.452" transform="matrix(0.966, -0.259, 0.259, 0.966, 136.136, 79.792)" fill="#1a1311"/>
    <rect id="長方形_1299" data-name="長方形 1299" width="10.668" height="0.452" transform="translate(131.834 69.57) rotate(-30.027)" fill="#1a1311"/>
    <rect id="長方形_1300" data-name="長方形 1300" width="15.907" height="0.451" transform="translate(125.028 60.808) rotate(-45)" fill="#1a1311"/>
    <rect id="長方形_1301" data-name="長方形 1301" width="3.36" height="0.451" transform="translate(125.448 38.071) rotate(-59.972)" fill="#1a1311"/>
    <rect id="長方形_1302" data-name="長方形 1302" width="26.268" height="0.452" transform="matrix(0.259, -0.966, 0.966, 0.259, 106.431, 48.023)" fill="#1a1311"/>
    <path id="パス_706" data-name="パス 706" d="M78.666,77.032A1.634,1.634,0,1,1,77.032,75.4a1.634,1.634,0,0,1,1.634,1.634" fill="#1a1311"/>
    <path id="パス_707" data-name="パス 707" d="M97.194,122.561a3.2,3.2,0,1,1,3.546,2.812,3.2,3.2,0,0,1-3.546-2.812" fill="#1a1311"/>
    <rect id="長方形_1303" data-name="長方形 1303" width="0.677" height="108.765" transform="translate(50.337 25.62) rotate(-27.211)" fill="#1a1311"/>
    <path id="パス_708" data-name="パス 708" d="M49.074,28.585l-.823-7.6,5.85,4.921L50.763,25.7Zm-.253-6.53.554,5.121,1.139-1.945,2.249.14Z" fill="#1a1311"/>
    <path id="パス_709" data-name="パス 709" d="M48.536,21.52l2.1,3.945,2.793.173Z" fill="#1a1311"/>
    <path id="パス_710" data-name="パス 710" d="M78.442,8.753,75.657,4.421V8.648h-.451v-5l.416-.122,2.784,4.333V3.528h.452v5.1Z" fill="#1a1311"/>
    <path id="パス_711" data-name="パス 711" d="M6.088,74.9a2.134,2.134,0,1,1-2.135,2.135A2.135,2.135,0,0,1,6.088,74.9" fill="#1a1311"/>
    <path id="パス_712" data-name="パス 712" d="M147.976,79.167a2.134,2.134,0,1,1,2.135-2.135,2.135,2.135,0,0,1-2.135,2.135" fill="#1a1311"/>
    <path id="パス_713" data-name="パス 713" d="M77.032,100.137A23.159,23.159,0,0,1,62.543,95.03l.283-.352A22.654,22.654,0,1,0,90.5,58.818l.269-.363a23.106,23.106,0,0,1-13.739,41.682" fill="#1a1311"/>
    <path id="パス_714" data-name="パス 714" d="M39.141,65.477c-1.416-2.022-1.846-3.73-1.278-5.078,1.708-4.046,12.08-3.824,27.07.585l-.127.433c-14.529-4.271-24.94-4.6-26.526-.843-.5,1.195-.09,2.757,1.231,4.644Z" fill="#1a1311"/>
    <path id="パス_715" data-name="パス 715" d="M96.641,94.795a140.472,140.472,0,0,1-23.852-7.817C59.35,81.31,47.74,74.39,41.732,68.468l.317-.322c5.969,5.885,17.526,12.769,30.916,18.416a140.113,140.113,0,0,0,23.773,7.792Z" fill="#1a1311"/>
    <path id="パス_716" data-name="パス 716" d="M108.369,96.316a50.285,50.285,0,0,1-8.824-.936l.081-.444c9.118,1.666,15.006,1.057,16.158-1.674.845-2-.973-5.14-5.119-8.832l.3-.337c4.363,3.886,6.173,7.117,5.234,9.345-.805,1.907-3.51,2.878-7.831,2.878" fill="#1a1311"/>
    <path id="パス_717" data-name="パス 717" d="M108.371,82.514a84.316,84.316,0,0,0-8.577-5.84l.233-.387a84.8,84.8,0,0,1,8.624,5.872Z" fill="#1a1311"/>
    <path id="パス_718" data-name="パス 718" d="M109.67,85.027a1.73,1.73,0,1,1,.3-3.433,1.73,1.73,0,0,1-.3,3.433m0-3.008a1.278,1.278,0,0,0-.221,2.537,1.279,1.279,0,0,0,1.48-1.037,1.276,1.276,0,0,0-1.259-1.5" fill="#1a1311"/>
    <path id="パス_719" data-name="パス 719" d="M40.5,69.109a2.192,2.192,0,1,1,.924-.206,2.185,2.185,0,0,1-.924.206m-.6-.557a1.738,1.738,0,1,0-1.039-2.228,1.741,1.741,0,0,0,1.039,2.228" fill="#1a1311"/>
    <path id="パス_720" data-name="パス 720" d="M98.084,96.534a1.731,1.731,0,1,1,.59-.1,1.732,1.732,0,0,1-.59.1m-1.2-1.293a1.278,1.278,0,1,0,.764-1.638,1.279,1.279,0,0,0-.764,1.638" fill="#1a1311"/>
    <path id="パス_721" data-name="パス 721" d="M118.141,55.471l-.09-.443a11.216,11.216,0,0,0,4.365-20.055,11.6,11.6,0,0,1-17.179,12.654,11.6,11.6,0,0,0,1,2.191l-.388.229a12.055,12.055,0,0,1-1.217-2.867l-.162-.579.5.329A11.154,11.154,0,0,0,121.84,34.54l-.162-.576.5.326a.807.807,0,0,0,.087.046,1.1,1.1,0,0,1,.148.084,11.668,11.668,0,0,1-4.274,21.051" fill="#1a1311"/>
    <path id="パス_722" data-name="パス 722" d="M74.9,147.976a2.134,2.134,0,1,1,2.135,2.135,2.135,2.135,0,0,1-2.135-2.135" fill="#1a1311"/>
    <path id="パス_723" data-name="パス 723" d="M95.144,123.921a32.909,32.909,0,1,1,32.909-32.909,32.946,32.946,0,0,1-32.909,32.909m0-65.367A32.458,32.458,0,1,0,127.6,91.012,32.495,32.495,0,0,0,95.144,58.554" fill="#1a1311"/>
    <path id="パス_724" data-name="パス 724" d="M77.032,142.625c-.913,0-1.873-.025-3.02-.077-.258-.012-.515-.027-.773-.042l-.08,0c-.768-.045-1.552-.1-2.331-.177l-.267-.024c-.152-.013-.305-.027-.456-.042-.993-.1-1.974-.229-2.914-.371-.115-.017-.229-.036-.342-.056l-.248-.041c-.784-.126-1.574-.267-2.348-.42-.278-.054-.556-.11-.832-.169-.857-.181-1.691-.373-2.478-.572l-.376-.09c-.87-.225-1.776-.482-2.772-.787q-.259-.081-.519-.165l-.22-.071c-.719-.229-1.429-.47-2.111-.714l-.19-.068c-.179-.063-.358-.126-.536-.192-.967-.359-1.834-.7-2.651-1.045l-.347-.153c-.739-.317-1.5-.663-2.271-1.027-.249-.118-.5-.239-.746-.361-.693-.339-1.384-.693-2.053-1.052l-.212-.111c-.1-.051-.2-.1-.3-.158-.8-.434-1.618-.906-2.439-1.4-.122-.073-.242-.148-.362-.224l-.226-.14q-.942-.584-1.864-1.2c-.246-.165-.456-.3-.664-.445-.887-.606-1.616-1.125-2.3-1.634s-1.4-1.077-2.219-1.744q-.29-.235-.574-.477c-.6-.5-1.159-.986-1.706-1.476l-.2-.177c-.106-.093-.212-.186-.316-.282-.7-.644-1.385-1.293-2.022-1.928l-.4-.407c-.527-.535-1.058-1.092-1.579-1.656-.185-.2-.369-.4-.552-.606-.562-.626-1.1-1.251-1.61-1.859l-.243-.286c-.556-.675-1.123-1.4-1.732-2.2-.112-.149-.223-.3-.333-.451l-.119-.162q-.646-.876-1.264-1.776l-.152-.221q-.141-.2-.279-.409c-.56-.836-1.056-1.61-1.518-2.368l-.192-.326c-.409-.681-.813-1.382-1.232-2.144-.133-.241-.263-.484-.394-.726-.361-.676-.715-1.367-1.051-2.053l-.105-.21c-.052-.1-.1-.206-.154-.311l-.093-.188-.739-1.652c-.167-.368-.334-.735-.49-1.108l-.074-.165c-.129-.309-.246-.617-.362-.925l-.353-.91c-.126-.318-.252-.635-.369-.959-.144-.394-.275-.793-.407-1.192l-.3-.885c-.107-.316-.215-.631-.313-.951-.127-.411-.242-.827-.357-1.243l-.251-.895c-.091-.316-.183-.633-.264-.954-.111-.431-.208-.87-.3-1.308l-.21-.919c-.073-.307-.145-.614-.208-.924-.093-.456-.171-.918-.25-1.379l-.166-.948c-.055-.293-.108-.586-.153-.882-.077-.5-.137-1.013-.2-1.522L11.938,85c-.02-.164-.042-.328-.064-.492-.036-.272-.072-.544-.1-.819-.063-.627-.105-1.258-.147-1.891l-.021-.317c-.01-.149-.022-.3-.035-.445-.018-.217-.036-.435-.047-.654-.056-1.123-.085-2.25-.085-3.35a65.592,65.592,0,1,1,65.593,65.592M42.851,132.484l.228.142c.119.075.237.149.357.221.815.491,1.63.96,2.421,1.392.1.053.193.1.291.154l.216.114c.665.355,1.351.707,2.039,1.044.246.122.493.24.741.359.762.361,1.521.7,2.255,1.018l.345.153c.81.341,1.671.681,2.632,1.037.175.066.352.128.529.19l.192.069c.678.242,1.383.481,2.1.709l.222.071c.17.055.341.11.513.163.989.3,1.889.558,2.752.782l.374.09c.78.2,1.608.388,2.46.567.275.059.55.114.826.169.769.151,1.554.291,2.333.416l.252.042c.11.019.221.038.333.055.934.14,1.908.264,2.894.368.149.015.3.028.448.042l.271.023c.772.073,1.551.132,2.315.176l.08,0c.255.015.51.03.766.042,1.141.052,2.094.076,3,.076a65.141,65.141,0,1,0-65.141-65.14c0,1.093.028,2.212.084,3.327.011.214.028.427.047.639.012.151.025.3.035.452l.021.319c.041.627.083,1.253.145,1.875.028.27.064.537.1.806.022.164.044.33.064.5l.051.427c.06.5.12,1.008.195,1.508.044.291.1.58.151.867l.168.954c.077.457.155.914.247,1.365.062.306.133.608.2.911l.211.924c.1.434.192.867.3,1.294.081.317.171.629.261.941l.253.9c.113.412.226.824.352,1.231.1.315.2.627.31.938l.3.889c.13.395.26.79.4,1.18.116.318.24.633.365.946l.355.917c.115.3.23.607.355.906l.073.164c.157.374.322.738.487,1.1l.828,1.831c.049.1.1.2.151.3l.107.214c.334.682.685,1.368,1.044,2.039.128.241.258.482.39.721.417.757.818,1.453,1.225,2.13l.189.323c.459.752.952,1.522,1.508,2.351.091.136.183.27.276.4l.153.222q.612.893,1.254,1.764l.12.164c.109.149.218.3.33.445.605.8,1.168,1.519,1.72,2.189l.241.284c.5.6,1.041,1.224,1.6,1.846.181.2.363.4.547.6.517.561,1.044,1.115,1.568,1.643l.4.407c.632.63,1.309,1.274,2.008,1.914.1.093.206.185.31.277l.2.18q.814.729,1.654,1.431c.229.194.418.351.61.508.81.662,1.53,1.228,2.2,1.73s1.4,1.022,2.284,1.623c.206.141.414.28.622.417.647.431,1.264.827,1.888,1.212" fill="#1a1311"/>
    <path id="パス_725" data-name="パス 725" d="M77.032,144.259c-.933,0-1.948-.026-3.1-.079-.239-.01-.476-.025-.715-.039l-.183-.011c-.769-.045-1.549-.105-2.319-.176l-.275-.025c-.188-.017-.375-.034-.562-.054-1.085-.114-2.067-.239-3-.382-.075-.011-.149-.024-.224-.037l-.18-.03c-.837-.133-1.706-.288-2.585-.462-.3-.059-.588-.121-.881-.183-.75-.159-1.51-.334-2.259-.521l-.279-.068c-.145-.035-.29-.07-.435-.108-.973-.254-1.931-.526-2.846-.808-.113-.035-.224-.072-.336-.109l-.245-.08c-.75-.239-1.51-.5-2.259-.764-.28-.1-.56-.2-.839-.308-.736-.274-1.481-.568-2.214-.872l-.234-.1c-.106-.042-.212-.085-.317-.129-.866-.369-1.761-.773-2.659-1.2-.132-.064-.263-.129-.394-.2l-.254-.126c-.684-.336-1.361-.683-2.011-1.03-.258-.137-.514-.274-.769-.415-.764-.421-1.507-.848-2.207-1.269l-.328-.193c-.776-.472-1.573-.983-2.438-1.563-.145-.1-.289-.2-.433-.295l-.226-.156q-.907-.624-1.793-1.276l-.16-.117c-.172-.127-.344-.253-.515-.382-.862-.651-1.607-1.237-2.278-1.79s-1.389-1.177-2.189-1.9c-.161-.145-.32-.292-.479-.44l-.141-.13q-.807-.743-1.589-1.514l-.193-.19c-.124-.121-.248-.242-.37-.365-.726-.731-1.377-1.414-1.99-2.087l-.259-.294c-.54-.6-1.1-1.24-1.648-1.9q-.279-.333-.551-.671-.709-.87-1.389-1.766l-.162-.212c-.09-.117-.18-.233-.267-.351-.584-.785-1.147-1.578-1.674-2.353-.067-.1-.133-.2-.2-.3l-.132-.2c-.433-.65-.858-1.313-1.263-1.97q-.231-.374-.456-.751c-.4-.665-.794-1.352-1.176-2.044l-.118-.21c-.057-.1-.115-.2-.171-.306-.447-.826-.892-1.7-1.324-2.585-.065-.133-.127-.267-.189-.4l-.283-.6c-.141-.3-.283-.594-.418-.895l-.32-.757q-.219-.5-.43-1.014l-.3-.7c-.078-.195-.149-.389-.219-.582-.05-.137-.1-.274-.151-.409-.181-.472-.353-.925-.516-1.382-.2-.55-.38-1.1-.562-1.66l-.058-.177c-.133-.406-.266-.812-.391-1.222-.172-.568-.329-1.141-.486-1.714l-.077-.28c-.1-.375-.207-.75-.3-1.129-.136-.545-.259-1.1-.381-1.646l-.114-.508c-.077-.342-.153-.683-.222-1.027-.108-.542-.2-1.088-.294-1.634l-.113-.652c-.056-.316-.111-.632-.159-.951-.084-.564-.151-1.133-.219-1.7l-.09-.734c-.036-.282-.072-.564-.1-.849-.068-.686-.114-1.379-.159-2.071l-.009-.14c-.01-.15-.022-.3-.034-.448-.018-.224-.036-.448-.047-.675-.057-1.145-.086-2.281-.086-3.375a67.227,67.227,0,1,1,67.227,67.227m0-134A66.85,66.85,0,0,0,10.257,77.032c0,1.087.029,2.215.085,3.353.011.222.028.441.046.661.012.151.024.3.034.454l.01.141c.045.687.09,1.374.157,2.056.028.28.064.558.1.836l.091.738c.066.565.133,1.13.217,1.69.046.315.1.627.157.938l.113.656c.092.542.184,1.083.292,1.62.067.341.144.679.22,1.016l.114.51c.122.547.243,1.093.379,1.634.094.375.2.747.3,1.119l.077.28c.156.57.312,1.139.484,1.7.123.406.255.809.387,1.212l.058.178c.181.552.363,1.1.558,1.648.162.455.334.9.505,1.353.06.158.111.3.161.436.069.188.138.378.212.564l.3.7c.141.34.283.675.428,1.01l.32.755c.132.293.272.587.412.881l.285.6c.06.132.122.264.185.394.429.883.872,1.747,1.316,2.569.054.1.11.2.166.3l.12.213c.38.688.773,1.371,1.168,2.031.149.25.3.5.454.746.4.652.824,1.311,1.254,1.957l.135.206c.063.1.127.2.193.293.523.771,1.082,1.557,1.662,2.338.086.115.174.23.262.344l.165.214q.675.89,1.379,1.755c.182.223.363.446.547.667.55.658,1.1,1.294,1.638,1.89l.257.292c.609.668,1.256,1.346,1.976,2.073q.182.182.366.36l.194.191q.777.765,1.578,1.5l.142.13c.157.146.315.292.474.435.8.715,1.5,1.327,2.162,1.872.678.561,1.418,1.142,2.275,1.789.169.129.34.254.511.379l.16.118q.879.646,1.781,1.266l.228.157c.141.1.283.2.426.292.86.576,1.652,1.084,2.421,1.553l.327.191c.695.418,1.432.842,2.192,1.26.253.14.508.276.763.412.646.345,1.318.69,2,1.024l.257.127c.129.065.257.129.387.191.892.426,1.781.828,2.641,1.194.1.043.205.085.308.126l.239.1c.728.3,1.468.594,2.2.867q.414.156.833.306c.743.266,1.5.521,2.243.758l.25.082c.109.036.217.072.327.106.909.281,1.86.551,2.827.8.142.037.284.071.427.106l.283.069c.743.185,1.5.359,2.242.517.292.063.583.123.876.182.873.173,1.737.327,2.568.458l.4.068c.93.141,1.906.265,2.984.379.184.02.369.037.554.053l.277.025c.765.072,1.54.13,2.3.175l.185.011c.235.014.471.028.708.039,1.149.052,2.158.078,3.084.078a66.775,66.775,0,1,0,0-133.55" fill="#1a1311"/>
    <path id="パス_726" data-name="パス 726" d="M38.042,119.862a9.1,9.1,0,1,1,4.009-.941,9.088,9.088,0,0,1-4.009.941m0-17.721a8.634,8.634,0,1,0,2.769.459,8.647,8.647,0,0,0-2.769-.459" fill="#1a1311"/>
    <path id="パス_727" data-name="パス 727" d="M39.387,102.122l-.369-.26c.029-.042,2.922-4.184,2.522-7.1a15.577,15.577,0,0,1,1.113-8.151,8.162,8.162,0,0,0-1.722,6.239c.409,2.615-.83,3.964-2.027,5.27a5.841,5.841,0,0,0-2.026,3.914l-.452-.017a6.288,6.288,0,0,1,2.145-4.2c1.177-1.282,2.289-2.494,1.914-4.894a9.093,9.093,0,0,1,2.957-7.834l1.14-.947-.807,1.244A14.853,14.853,0,0,0,41.987,94.7c.425,3.1-2.476,7.249-2.6,7.424" fill="#1a1311"/>
    <path id="パス_728" data-name="パス 728" d="M42.526,103.3a12.977,12.977,0,0,1,.385-4.9c.6-1.631,1.707-4.667.45-7.031-1.291-2.427-.042-6.038.012-6.19l.426.15c-.012.036-1.236,3.577-.04,5.828,1.353,2.542.2,5.7-.423,7.4a12.761,12.761,0,0,0-.361,4.69Z" fill="#1a1311"/>
    <path id="パス_729" data-name="パス 729" d="M31.173,105.1a6.286,6.286,0,0,1-1.058-4.6c.076-1.739.149-3.382-1.681-4.979a9.093,9.093,0,0,1-2.77-7.9l.265-1.459.181,1.471a14.854,14.854,0,0,0,4.619,8.287c2.314,2.1,2.763,7.145,2.78,7.359l-.449.037c0-.05-.451-5.083-2.634-7.061a15.582,15.582,0,0,1-4.386-6.96,8.168,8.168,0,0,0,2.691,5.887c1.994,1.739,1.913,3.57,1.835,5.339a5.848,5.848,0,0,0,.963,4.3Z" fill="#1a1311"/>
    <path id="パス_730" data-name="パス 730" d="M36.671,102.16a12.967,12.967,0,0,1-2.852-4c-.591-1.632-1.691-4.671-4.175-5.675-2.549-1.03-3.913-4.6-3.969-4.749l.422-.159c.014.035,1.353,3.534,3.717,4.489,2.67,1.08,3.815,4.242,4.43,5.94a12.772,12.772,0,0,0,2.738,3.825Z" fill="#1a1311"/>
    <path id="パス_731" data-name="パス 731" d="M29.129,110.835a6.289,6.289,0,0,1-3.766-2.842c-1.059-1.382-2.06-2.688-4.488-2.735a8.03,8.03,0,0,1-3.373-.806l.2-.406a7.6,7.6,0,0,0,3.185.761c2.646.051,3.76,1.5,4.837,2.911a5.845,5.845,0,0,0,3.5,2.675Z" fill="#1a1311"/>
    <path id="パス_732" data-name="パス 732" d="M29.428,108.256c-.036-.036-3.613-3.6-6.556-3.716a15.323,15.323,0,0,1-5.994-1.477l.193-.409a14.841,14.841,0,0,0,5.818,1.434c3.121.119,6.708,3.7,6.859,3.85Z" fill="#1a1311"/>
    <path id="パス_733" data-name="パス 733" d="M31.453,105.052a12.952,12.952,0,0,1-4.754-1.23c-1.5-.871-4.3-2.489-6.846-1.663a6.131,6.131,0,0,1-3.336-.021l.107-.439a5.67,5.67,0,0,0,3.089.03c2.74-.889,5.648.8,7.212,1.7a12.742,12.742,0,0,0,4.556,1.17Z" fill="#1a1311"/>
    <path id="パス_734" data-name="パス 734" d="M28.891,117.131a10.775,10.775,0,0,1-2.351-.342,12.5,12.5,0,0,0-1.85-.316l.03-.45a12.633,12.633,0,0,1,1.918.325c1.455.322,2.829.63,4.4-.2l.211.4a4.92,4.92,0,0,1-2.361.586" fill="#1a1311"/>
    <path id="パス_735" data-name="パス 735" d="M23.768,115.014l-.159-.422a16.567,16.567,0,0,1,6.255-.666l-.04.45a16.422,16.422,0,0,0-6.056.638" fill="#1a1311"/>
    <path id="パス_736" data-name="パス 736" d="M22.535,113.251l-.127-.433a21.7,21.7,0,0,1,2.4-.528,12.742,12.742,0,0,0,4.241-2.033l.269.363a12.972,12.972,0,0,1-4.433,2.114,21.555,21.555,0,0,0-2.347.517" fill="#1a1311"/>
    <path id="パス_737" data-name="パス 737" d="M31.281,123.866,31,123.513a11.282,11.282,0,0,1,1.888-1.144,5.844,5.844,0,0,0,3.243-2.986l.418.17A6.282,6.282,0,0,1,33.1,122.77a10.848,10.848,0,0,0-1.814,1.1" fill="#1a1311"/>
    <path id="パス_738" data-name="パス 738" d="M30.264,122.509l-.37-.259a17.874,17.874,0,0,1,3.909-3.81l.258.371a17.723,17.723,0,0,0-3.8,3.7" fill="#1a1311"/>
    <path id="パス_739" data-name="パス 739" d="M28.862,121.159l-.349-.287c.124-.15.245-.3.361-.434a12.751,12.751,0,0,0,1.943-4.284l.44.107a12.989,12.989,0,0,1-2.037,4.468c-.115.137-.235.28-.358.43" fill="#1a1311"/>
    <path id="パス_740" data-name="パス 740" d="M42.844,132.613l-.452-.014a7.637,7.637,0,0,0-.95-3.99c-1.279-2.317-.577-4.009.1-5.645a5.845,5.845,0,0,0,.566-4.371l.429-.139a6.291,6.291,0,0,1-.577,4.683c-.668,1.608-1.3,3.127-.124,5.254a8.1,8.1,0,0,1,1.006,4.222" fill="#1a1311"/>
    <path id="パス_741" data-name="パス 741" d="M41.366,131.964a14.834,14.834,0,0,0-1.548-4.733c-1.458-2.763-.153-7.658-.1-7.865l.436.118c-.013.049-1.314,4.931.06,7.536a15.26,15.26,0,0,1,1.6,4.877Z" fill="#1a1311"/>
    <path id="パス_742" data-name="パス 742" d="M38.434,130.05c-1.211-1.93-1.206-4.568-1.2-5.986a12.768,12.768,0,0,0-1.265-4.53l.4-.2a12.987,12.987,0,0,1,1.312,4.732c0,1.373-.007,3.926,1.135,5.746Z" fill="#1a1311"/>
    <path id="パス_743" data-name="パス 743" d="M57.828,129.763l-.674-1.321a14.854,14.854,0,0,0-7.175-6.207c-2.892-1.179-5.039-5.769-5.129-5.963l.41-.19c.021.046,2.162,4.623,4.89,5.734a15.6,15.6,0,0,1,6.5,5.04,8.169,8.169,0,0,0-4.542-4.61c-2.47-.953-3.019-2.7-3.551-4.391a5.846,5.846,0,0,0-2.376-3.711l.24-.383a6.289,6.289,0,0,1,2.567,3.959c.522,1.661,1.016,3.229,3.282,4.1a9.094,9.094,0,0,1,5.306,6.478Z" fill="#1a1311"/>
    <path id="パス_744" data-name="パス 744" d="M57.184,128.486c-.024-.029-2.479-2.859-5.027-2.948-2.878-.1-5.036-2.681-6.195-4.066a12.793,12.793,0,0,0-3.882-2.658l.181-.413a12.953,12.953,0,0,1,4.047,2.781c1.114,1.332,3.188,3.811,5.864,3.9,2.748.1,5.25,2.982,5.355,3.105Z" fill="#1a1311"/>
    <path id="パス_745" data-name="パス 745" d="M65.4,112.6l-1.365-.579a14.848,14.848,0,0,0-9.487-.144c-2.973.957-7.568-1.18-7.762-1.271l.192-.408c.046.021,4.631,2.149,7.432,1.25a15.569,15.569,0,0,1,8.22-.319,8.17,8.17,0,0,0-6.443-.613c-2.505.858-4.049-.128-5.542-1.081a5.851,5.851,0,0,0-4.207-1.316l-.061-.447a6.283,6.283,0,0,1,4.511,1.383c1.468.936,2.854,1.821,5.153,1.034a9.091,9.091,0,0,1,8.228,1.552Z" fill="#1a1311"/>
    <path id="パス_746" data-name="パス 746" d="M46.3,114.332l-.127-.433a12.99,12.99,0,0,1,4.888-.471c1.709.3,4.892.871,7-.778,2.167-1.692,5.939-1.089,6.1-1.062l-.074.445c-.036-.006-3.737-.6-5.746.973-2.27,1.773-5.581,1.184-7.36.867a12.74,12.74,0,0,0-4.681.459" fill="#1a1311"/>
    <path id="パス_747" data-name="パス 747" d="M44.632,105.016l-.116-.437c.049-.012,4.929-1.327,6.5-3.82A15.6,15.6,0,0,1,57.1,95.231,8.174,8.174,0,0,0,51.776,98.9c-1.367,2.266-3.183,2.5-4.94,2.734a5.84,5.84,0,0,0-4.068,1.7l-.335-.3a6.288,6.288,0,0,1,4.344-1.841c1.727-.226,3.357-.44,4.613-2.52a9.091,9.091,0,0,1,7.3-4.1h0l1.483.008-1.418.434A14.851,14.851,0,0,0,51.4,101c-1.663,2.644-6.556,3.961-6.763,4.016" fill="#1a1311"/>
    <path id="パス_748" data-name="パス 748" d="M46.655,108.185l-.376-.25a12.978,12.978,0,0,1,3.442-3.5c1.505-.866,4.307-2.478,4.864-5.1.571-2.689,3.849-4.652,3.988-4.734l.23.389c-.033.018-3.246,1.944-3.776,4.438-.6,2.817-3.514,4.494-5.081,5.395a12.776,12.776,0,0,0-3.291,3.361" fill="#1a1311"/>
    <rect id="長方形_1304" data-name="長方形 1304" width="12.871" height="0.452" transform="translate(13.163 90.785)" fill="#1a1311"/>
    <rect id="長方形_1305" data-name="長方形 1305" width="12.676" height="0.452" transform="translate(27.963 90.785)" fill="#1a1311"/>
    <rect id="長方形_1306" data-name="長方形 1306" width="9.219" height="0.452" transform="translate(43.437 90.785)" fill="#1a1311"/>
    <rect id="長方形_1307" data-name="長方形 1307" width="5.91" height="0.452" transform="matrix(0.966, -0.259, 0.259, 0.966, 21.026, 110.636)" fill="#1a1311"/>
    <rect id="長方形_1308" data-name="長方形 1308" width="3.93" height="0.452" transform="translate(33.939 126.088) rotate(-30.028)" fill="#1a1311"/>
    <rect id="長方形_1309" data-name="長方形 1309" width="2.814" height="0.452" transform="translate(42.216 121.31) rotate(-30.028)" fill="#1a1311"/>
    <rect id="長方形_1310" data-name="長方形 1310" width="7.662" height="0.452" transform="translate(48.662 117.59) rotate(-30.028)" fill="#1a1311"/>
    <path id="パス_749" data-name="パス 749" d="M56.936,110.127a42.5,42.5,0,0,1-3.235-8.734l.438-.109a42.016,42.016,0,0,0,3.2,8.641Z" fill="#1a1311"/>
    <path id="パス_750" data-name="パス 750" d="M95.144,133.725a42.93,42.93,0,0,1-36.8-21.014l.389-.23A42.143,42.143,0,1,0,53.3,96.955l-.447.063a43.255,43.255,0,0,1-.419-6.007,42.714,42.714,0,1,1,42.714,42.714" fill="#1a1311"/>
    <path id="パス_751" data-name="パス 751" d="M58.7,109.984a40.819,40.819,0,0,1-3.905-11.23l.444-.084A40.365,40.365,0,0,0,59.1,109.775Z" fill="#1a1311"/>
    <path id="パス_752" data-name="パス 752" d="M95.144,132.091A41.319,41.319,0,0,1,59.87,112.079l.387-.232a40.639,40.639,0,1,0-5.741-20.836,41.4,41.4,0,0,0,.29,4.887l-.448.053a41.643,41.643,0,0,1-.294-4.94,41.08,41.08,0,1,1,41.08,41.08" fill="#1a1311"/>
  </g>
</svg>
