<svg id="グループ_1482" data-name="グループ 1482" xmlns="http://www.w3.org/2000/svg" width="137.091" height="96" viewBox="0 0 137.091 96">
  <path id="パス_1386" data-name="パス 1386" d="M66.976,53.356c-19.1,0-30.5,18.019-30.5,48.2,0,23.107,8.012,47.8,30.5,47.8,14.745,0,30.5-12.556,30.5-47.8,0-23.3-8.012-48.2-30.5-48.2m0,95.289c-12.064,0-17.929-15.4-17.929-47.087,0-32.048,5.865-47.626,17.929-47.626,11.808,0,17.8,16.024,17.8,47.626,0,31.245-5.988,47.087-17.8,47.087" transform="translate(-36.475 -53.356)" fill="#fff"/>
  <path id="パス_1387" data-name="パス 1387" d="M138.766,54.127l-.228-.182L107.875,61.4v.935l17.156-1.751v57.037c0,8.327-.134,16.778-.4,25.116l-.059,1.831-19.469,2.417v.148h52.424v-.156l-18.813-2.416-.057-1.822c-.263-8.3-.4-16.752-.4-25.116V74.79Z" transform="translate(-20.439 -53.24)" fill="#fff"/>
</svg>
