<svg xmlns="http://www.w3.org/2000/svg" width="140.543" height="96" viewBox="0 0 140.543 96">
  <g id="グループ_1480" data-name="グループ 1480" transform="translate(-202.176 -5188.066)">
    <path id="パス_1291" data-name="パス 1291" d="M345.215,53.356c-19.479,0-31.109,18.019-31.109,48.2,0,23.106,8.172,47.8,31.109,47.8,15.039,0,31.109-12.556,31.109-47.8,0-23.3-8.172-48.2-31.109-48.2m0,95.287c-12.3,0-18.286-15.4-18.286-47.086,0-32.047,5.982-47.625,18.286-47.625,12.044,0,18.151,16.024,18.151,47.625,0,31.244-6.107,47.086-18.151,47.086" transform="translate(-111.93 5134.71)" fill="#fff"/>
    <path id="パス_1292" data-name="パス 1292" d="M386.73,74.482c2.666,0,5.86-.793,6.911-6.972l.032-.155,3.11-12.58c-8.643,2.752-14.015,8.673-15,16.975a5.541,5.541,0,0,0,4.942,2.732" transform="translate(-97.06 5135.021)" fill="#fff"/>
    <path id="パス_1293" data-name="パス 1293" d="M393.91,134.38l-2.692-12.86c-1.382-8.143-3.954-8.8-6.929-8.8a5.89,5.89,0,0,0-5.481,3.555c1.425,10.4,7.7,15.645,15.1,18.1" transform="translate(-97.715 5147.754)" fill="#fff"/>
    <path id="パス_1294" data-name="パス 1294" d="M437.658,123.766c0-12.847-8.039-20.345-24.575-22.926l-10.954-1.71,10.8-2.48c14.44-3.314,21.762-10.674,21.762-21.875,0-13.412-10.371-21.421-27.741-21.421a42.679,42.679,0,0,0-10.332,1.177,29.772,29.772,0,0,1,5.618-.6c12.22,0,19.231,7.743,19.231,21.244,0,14.738-8.548,23.536-22.865,23.536H395.76v1.112h3.791c15.522,0,24.071,8.644,24.071,24.342,0,15.784-8.549,24.476-24.071,24.476a28.863,28.863,0,0,1-7.116-.87l-1-.251a43.9,43.9,0,0,0,13.227,1.832c20.045,0,33-10.043,33-25.589" transform="translate(-94.939 5134.71)" fill="#fff"/>
  </g>
</svg>
