<svg xmlns="http://www.w3.org/2000/svg" width="140.422" height="96" viewBox="0 0 140.422 96">
  <g id="グループ_1481" data-name="グループ 1481" transform="translate(-986.214 -4918.066)">
    <path id="パス_1390" data-name="パス 1390" d="M205.761,239.032c-19.48,0-31.109,18.018-31.109,48.2,0,23.107,8.172,47.8,31.109,47.8,15.04,0,31.109-12.556,31.109-47.8,0-23.3-8.172-48.2-31.109-48.2m0,95.291c-12.3,0-18.287-15.4-18.287-47.089,0-32.049,5.982-47.628,18.287-47.628,12.044,0,18.15,16.024,18.15,47.628,0,31.247-6.106,47.089-18.15,47.089" transform="translate(811.562 4679.034)" fill="#fff"/>
    <path id="パス_1389" data-name="パス 1389" d="M270.072,239.032a46.205,46.205,0,0,0-7.955.665q1.094-.09,2.169-.09c11.845,0,19.5,8.868,19.5,22.592,0,13.122-5.516,23.311-21.86,40.375-6.724,6.864-14.371,14.92-21.614,22.775v7.53h60.337v-10H242.767l8.066-6.92c5.185-4.458,10.084-8.668,13.619-11.43,24.748-19.111,33.1-29.622,33.1-41.658,0-15.374-9.758-23.84-27.476-23.84" transform="translate(825.991 4679.034)" fill="#fff"/>
    <path id="パス_1388" data-name="パス 1388" d="M240.031,259.246a6.355,6.355,0,0,0,5.743,3.38c2.291,0,5.5-.881,6.918-8.487l.033-.149,3.424-13.122c-9.024,3.22-14.952,9.737-16.118,18.378" transform="translate(825.929 4679.437)" fill="#fff"/>
  </g>
</svg>
