<svg xmlns="http://www.w3.org/2000/svg" xmlns:xlink="http://www.w3.org/1999/xlink" width="604.281" height="353.88" viewBox="0 0 604.281 353.88">
  <defs>
    <clipPath id="clip-path">
      <rect id="長方形_1392" data-name="長方形 1392" width="604.281" height="353.88" fill="#faf7f0"/>
    </clipPath>
  </defs>
  <g id="グループ_1329" data-name="グループ 1329" transform="translate(0 0)">
    <g id="グループ_1328" data-name="グループ 1328" transform="translate(0 0)" clip-path="url(#clip-path)">
      <path id="パス_1003" data-name="パス 1003" d="M563.61,231.056a13.522,13.522,0,0,0-9.147-20.436,13.341,13.341,0,0,0-11.361,3.314,652.349,652.349,0,0,0-63.183-43.013A176.8,176.8,0,0,0,184.5,45.785C82.283,18.7,14,19.68,1.867,48.42-2.367,58.474.607,71.148,10.709,86.1A16.665,16.665,0,0,0,6.32,92.64a17.044,17.044,0,0,0,23.217,21.279,16.868,16.868,0,0,0,3.353-2.132c21.967,21.361,54.259,45.082,93.4,68.629A176.764,176.764,0,0,0,424.468,305.551c9.414,2.427,17.732,4.438,25.407,6.148a13.476,13.476,0,0,0,26.042,5.286c25.543,4.6,47.839,6.938,66.269,6.938,33.275,0,54.1-7.679,60.232-22.2,7.137-16.923-6.284-41.352-38.808-70.664M454.438,315.329a9.521,9.521,0,1,1,12.2,5.688,9.527,9.527,0,0,1-12.2-5.688M480.049,176c0-.1,0-.2-.01-.3a640.29,640.29,0,0,1,60.489,41.3,13.508,13.508,0,0,0,19.336,18,10.121,10.121,0,0,0,1.027-.858l.087-.082c30.664,27.655,44.07,51.124,37.752,66.09-8.692,20.6-53.115,25.3-121.909,12.926a13.248,13.248,0,0,0-.732-5.64,13.466,13.466,0,0,0-25.455.325c-7.151-1.594-14.608-3.387-22.781-5.465a175.638,175.638,0,0,0,52.214-125.363c0-.315-.01-.625-.019-.94m81.444,49.583a9.472,9.472,0,0,1-3.92,6.143,9.345,9.345,0,0,1-7.108,1.575,9.517,9.517,0,1,1,11.027-7.718M269.536,252.373c50.964,21.5,102.819,39.433,150,51.88A172.56,172.56,0,0,1,130.694,183.062c40.979,24.317,88.977,48.28,138.842,69.312M10.074,94.007a13.063,13.063,0,1,1,.441,9.971,12.965,12.965,0,0,1-.441-9.971m28.275,10.3A17.043,17.043,0,0,0,15.128,83.023a7.994,7.994,0,0,0-.959.552c-.082.048-.16.1-.237.15-9.225-13.7-12.045-25.053-8.382-33.75,10.988-26.017,78.231-26.386,175.532-.954a176.894,176.894,0,0,0-39.85,56.642,175.1,175.1,0,0,0-15.01,70.034c-37.887-22.936-69.171-46-90.518-66.749a16.816,16.816,0,0,0,2.645-4.646m437.4,72.64a172.073,172.073,0,0,1-52.805,124.074C375.32,288.594,322.811,270.5,271.1,248.686,220.452,227.33,171.867,203,130.573,178.343c0-.208-.01-.417-.019-.63-.01-.257-.019-.514-.019-.77,0-95.174,77.432-172.606,172.6-172.606S475.747,81.768,475.747,176.942" transform="translate(-0.002 0.001)" fill="#faf7f0"/>
    </g>
  </g>
</svg>
